<?xml version="1.0" encoding="UTF-8" standalone="no"?><!DOCTYPE svg PUBLIC "-//W3C//DTD SVG 1.1//EN" "http://www.w3.org/Graphics/SVG/1.1/DTD/svg11.dtd"><svg width="100%" height="100%" viewBox="0 0 82 90" version="1.1" xmlns="http://www.w3.org/2000/svg" xmlns:xlink="http://www.w3.org/1999/xlink" xml:space="preserve" xmlns:serif="http://www.serif.com/" style="fill-rule:evenodd;clip-rule:evenodd;"><path d="M6.919,43.133l-2.54,0.99c-0.327,0.127 -0.34,0.284 -0.04,0.47c2.04,1.28 3.086,2.76 3.14,4.44c0.1,2.814 0.58,5.904 1.44,9.27c0.36,1.434 -0.014,2.637 -1.12,3.61c-1.22,1.08 -1.014,2.127 0.62,3.14" style="fill:none;fill-rule:nonzero;stroke:#80936c;stroke-width:2px;"/><path d="M8.419,65.053c1.446,1.174 3.55,3.334 6.31,6.48c4.893,5.56 11.21,9.704 18.95,12.43c3.4,1.194 6.73,1.404 9.99,0.63c8.986,-2.14 16.436,-6.776 22.35,-13.91c0.96,-1.16 1.83,-2.116 2.61,-2.87c0.933,-0.9 1.86,-1.806 2.78,-2.72c0.046,-0.046 0.423,-0.33 1.13,-0.85c0.766,-0.56 0.683,-1.273 -0.25,-2.14c-0.82,-0.766 -1.06,-1.683 -0.72,-2.75c0.546,-1.706 0.99,-3.54 1.33,-5.5c0.013,-0.06 0.07,-1.236 0.17,-3.53c0.106,-2.253 1.16,-3.996 3.16,-5.23c0.29,-0.18 0.43,-0.49 0.33,-0.74c-0.207,-0.486 -0.67,-0.656 -1.39,-0.51c-1.874,0.394 -3.04,-0.19 -3.5,-1.75c-1.32,-4.473 -3.424,-8.536 -6.31,-12.19c-1.274,-1.6 -3.884,-3.8 -7.83,-6.6c-2.467,-1.753 -4.82,-2.953 -7.06,-3.6c-2.394,-0.693 -5.027,-1.196 -7.9,-1.51c-0.48,-0.05 -0.84,-0.45 -0.83,-0.93c0.033,-3.666 -0.294,-7.463 -0.98,-11.39c-0.067,-0.413 -0.16,-0.753 -0.28,-1.02c-0.474,-1.033 -0.93,-0.97 -1.37,0.19c-0.127,0.32 -0.2,0.704 -0.22,1.15c-0.174,3.714 -0.33,7.424 -0.47,11.13c-0.01,0.32 -0.23,0.59 -0.52,0.65l-11.8,2.48c-0.31,0.06 -0.58,0.24 -0.75,0.5c-1.227,1.947 -2.977,3.114 -5.25,3.5c-0.27,0.05 -0.47,0.28 -0.49,0.57c-0.067,1 -0.534,1.664 -1.4,1.99c-0.36,0.14 -0.63,0.317 -0.81,0.53c-3.534,4.094 -6.35,8.627 -8.45,13.6c-0.04,0.08 -0.137,0.43 -0.29,1.05c-0.194,0.774 -0.774,1.087 -1.74,0.94" style="fill:none;fill-rule:nonzero;stroke:#869d72;stroke-width:2px;"/><path d="M39.709,11.843c-0.034,2.14 -0.297,4.64 -0.79,7.5c-0.56,3.274 -0.63,6.857 -0.21,10.75" style="fill:none;fill-rule:nonzero;stroke:#93ac95;stroke-width:2px;"/><path d="M38.709,30.093c-0.074,0.654 -0.274,0.79 -0.6,0.41c-0.21,-0.24 -0.46,-0.36 -0.68,-0.34c-0.547,0.06 -1.037,0.287 -1.47,0.68" style="fill:none;fill-rule:nonzero;stroke:#669164;stroke-width:2px;"/><path d="M35.959,30.843c-0.614,-4.706 -3.057,-7.766 -7.33,-9.18c-0.52,-0.18 -1.08,0.18 -1.15,0.73c-0.287,2.334 -1,4.527 -2.14,6.58c-1.58,2.847 -4.13,4.24 -7.65,4.18c-0.93,-0.02 -1.67,0.77 -1.6,1.7c0.433,5.374 -1.637,8.537 -6.21,9.49" style="fill:none;fill-rule:nonzero;stroke:#93ac95;stroke-width:2px;"/><path d="M9.879,44.343c-1.014,-0.22 -1.834,0.017 -2.46,0.71" style="fill:none;fill-rule:nonzero;stroke:#446d3b;stroke-width:2px;"/><path d="M7.419,45.053c0.54,1.44 1.166,2.844 1.88,4.21c0.233,0.454 0.62,1.577 1.16,3.37c0.593,1.967 2.01,2.517 4.25,1.65c0.35,-0.14 0.55,-0.47 0.4,-0.67c-0.147,-0.2 -0.5,-0.26 -1.06,-0.18c-0.49,0.07 -0.92,-0.32 -0.89,-0.81c0.126,-2.866 1.263,-4.946 3.41,-6.24c0.6,-0.366 1.136,-0.776 1.61,-1.23c0.533,-0.52 1.086,-0.93 1.66,-1.23c1.18,-0.626 1.396,-0.386 0.65,0.72c-0.887,1.314 -1.754,2.634 -2.6,3.96c-1.247,1.967 -0.74,3.307 1.52,4.02c1.566,0.5 1.73,0.947 0.49,1.34c-0.28,0.09 -0.61,0.05 -0.9,-0.12l-2.33,-1.29" style="fill:none;fill-rule:nonzero;stroke:#93ac95;stroke-width:2px;"/><path d="M16.669,52.553c-0.76,-0.406 -0.72,-1.806 0.12,-4.2c0.226,-0.64 0.016,-0.863 -0.63,-0.67c-0.587,0.174 -0.914,0.81 -0.98,1.91c-0.02,0.32 -0.104,0.634 -0.25,0.94c-0.654,1.374 -0.254,2.31 1.2,2.81" style="fill:none;fill-rule:nonzero;stroke:#669164;stroke-width:2px;"/><path d="M16.129,53.343c-0.14,1.354 -0.72,2.51 -1.74,3.47c-1.414,1.32 -1.314,1.797 0.3,1.43c2.86,-0.646 5.67,-1.47 8.43,-2.47c1.633,-0.586 1.806,-1.466 0.52,-2.64c-2.747,-2.5 -2.95,-6.06 -0.61,-10.68c0.24,-0.47 0.65,-0.81 1.15,-0.96c1.086,-0.326 1.666,-0.876 1.74,-1.65" style="fill:none;fill-rule:nonzero;stroke:#93ac95;stroke-width:2px;"/><path d="M25.919,39.843c2.026,-0.266 3.753,0.337 5.18,1.81c1.033,1.074 1.473,0.887 1.32,-0.56c-0.127,-1.193 -1.057,-2.486 -2.79,-3.88c-0.2,-0.16 -0.51,-0.14 -0.73,0.06l-2.98,2.57" style="fill:none;fill-rule:nonzero;stroke:#93ac95;stroke-width:2px;"/><path d="M25.919,39.843c-1.747,1.407 -2.47,1.3 -2.17,-0.32c0.06,-0.33 0.24,-0.62 0.5,-0.82c0.433,-0.333 0.903,-0.6 1.41,-0.8c0.966,-0.393 1.556,-0.736 1.77,-1.03c0.5,-0.7 0.4,-1.463 -0.3,-2.29c-0.17,-0.2 -0.25,-0.41 -0.21,-0.54c0.046,-0.166 0.203,-0.2 0.47,-0.1c1.893,0.674 3.3,1.917 4.22,3.73c0.653,1.274 0.99,1.194 1.01,-0.24c0.026,-1.786 -0.157,-3.796 -0.55,-6.03c-0.06,-0.366 0.01,-0.403 0.21,-0.11c0.82,1.167 1.283,2.85 1.39,5.05c0.133,2.754 0.29,5.504 0.47,8.25c0.02,0.27 0.23,0.5 0.52,0.57c1.186,0.26 1.596,1.06 1.23,2.4c-0.06,0.21 0.12,0.42 0.34,0.38c2.513,-0.386 5.22,-0.29 8.12,0.29c0.25,0.05 0.46,-0.19 0.38,-0.43c-0.374,-1.213 -0.227,-2.283 0.44,-3.21c0.52,-0.726 0.686,-2.226 0.5,-4.5c-0.167,-2.013 0.646,-5.226 2.44,-9.64c0.086,-0.22 0.193,-0.396 0.32,-0.53c0.426,-0.48 0.67,-0.443 0.73,0.11c0.013,0.18 -0.024,0.38 -0.11,0.6c-0.987,2.56 -1.53,5.217 -1.63,7.97c-0.034,0.92 0.176,0.98 0.63,0.18c0.906,-1.6 2.126,-2.986 3.66,-4.16c0.366,-0.28 0.67,-0.34 0.91,-0.18c0.18,0.13 0.2,0.48 0.04,0.83c-0.414,0.86 -0.067,1.644 1.04,2.35c0.42,0.267 0.846,0.527 1.28,0.78c1.693,0.974 2.523,1.817 2.49,2.53c-0.06,1.167 0.18,2.267 0.72,3.3c1.626,3.127 1.266,6.01 -1.08,8.65c-0.27,0.31 -0.69,0.44 -1.09,0.35c-0.534,-0.126 -0.93,-0.14 -1.19,-0.04c-0.394,0.14 -0.357,0.327 0.11,0.56c1.133,0.56 2.223,1.197 3.27,1.91c1.286,0.88 2.383,1.48 3.29,1.8c1.42,0.494 2.873,0.89 4.36,1.19c2.013,0.407 2.366,-0.113 1.06,-1.56l-2.75,-3.04" style="fill:none;fill-rule:nonzero;stroke:#93ac95;stroke-width:2px;"/><path d="M64.169,54.053c-0.554,-1.146 -1.22,-1.23 -2,-0.25" style="fill:none;fill-rule:nonzero;stroke:#669164;stroke-width:2px;"/><path d="M62.169,53.803c-1.98,0.154 -2.014,-0.556 -0.1,-2.13c0.57,-0.47 0.82,-1.22 0.65,-1.93c-0.327,-1.34 -1.087,-2.743 -2.28,-4.21c-0.147,-0.18 -0.254,-0.363 -0.32,-0.55c-0.614,-1.653 -0.307,-1.743 0.92,-0.27c0.72,0.86 1.596,1.5 2.63,1.92" style="fill:none;fill-rule:nonzero;stroke:#93ac95;stroke-width:2px;"/><path d="M63.669,46.633l1,2.5" style="fill:none;fill-rule:nonzero;stroke:#669164;stroke-width:2px;"/><path d="M64.669,49.133c0.22,0.894 0.373,1.79 0.46,2.69c0.08,0.774 0.323,0.844 0.73,0.21c0.713,-1.126 0.483,-2.12 -0.69,-2.98" style="fill:none;fill-rule:nonzero;stroke:#93ac95;stroke-width:2px;"/><path d="M65.169,49.053c0.046,-1.173 -0.384,-1.993 -1.29,-2.46" style="fill:none;fill-rule:nonzero;stroke:#669164;stroke-width:2px;"/><path d="M63.879,46.593c1.2,-1.133 1.82,-0.99 1.86,0.43c0.01,0.34 0.13,0.65 0.33,0.89c1.073,1.294 1.69,2.687 1.85,4.18c0.12,1.094 -0.28,1.634 -1.2,1.62c-0.37,-0.01 -0.67,0.19 -0.62,0.42c0.086,0.394 0.85,0.49 2.29,0.29c0.67,-0.09 1.19,-0.63 1.28,-1.3c0.353,-2.766 1.496,-5.093 3.43,-6.98c0.28,-0.273 0.433,-0.51 0.46,-0.71c0.04,-0.393 -0.257,-0.603 -0.89,-0.63" style="fill:none;fill-rule:nonzero;stroke:#93ac95;stroke-width:2px;"/><path d="M72.669,44.803l-2,-0.92" style="fill:none;fill-rule:nonzero;stroke:#669164;stroke-width:2px;"/><path d="M70.669,43.883c-1.447,-0.553 -2.77,-1.323 -3.97,-2.31c-2.114,-1.726 -2.727,-3.913 -1.84,-6.56c0.22,-0.65 -0.23,-1.34 -0.92,-1.39c-6.32,-0.486 -10.014,-4.126 -11.08,-10.92c-0.1,-0.62 -0.75,-0.99 -1.33,-0.75c-5.04,2.007 -7.734,5.48 -8.08,10.42c-0.087,1.32 -0.787,2.054 -2.1,2.2c-2.414,0.274 -4.044,-0.636 -4.89,-2.73" style="fill:none;fill-rule:nonzero;stroke:#93ac95;stroke-width:2px;"/><path d="M36.459,31.843c0.793,-0.006 1.43,0.274 1.91,0.84c0.12,0.14 0.35,0.09 0.42,-0.08c0.16,-0.353 0.453,-0.536 0.88,-0.55" style="fill:none;fill-rule:nonzero;stroke:#669164;stroke-width:2px;"/><path d="M39.669,32.053c0.646,0.08 0.91,0.34 0.79,0.78c-0.1,0.34 -0.04,0.66 0.13,0.8c0.506,0.414 0.946,0.377 1.32,-0.11c0.17,-0.22 0.25,-0.55 0.22,-0.93l-1.5,-20.75" style="fill:none;fill-rule:nonzero;stroke:#93ac95;stroke-width:2px;"/><path d="M40.629,11.843c-0.254,-1.766 -0.56,-1.766 -0.92,0" style="fill:none;fill-rule:nonzero;stroke:#669164;stroke-width:2px;"/><path d="M40.629,11.843l-0.92,0" style="fill:none;fill-rule:nonzero;stroke:#d2e4cd;stroke-width:2px;"/><path d="M39.669,32.053c-0.647,-0.433 -0.967,-1.086 -0.96,-1.96" style="fill:none;fill-rule:nonzero;stroke:#d2e4cd;stroke-width:2px;"/><path d="M35.959,30.843l0.5,1" style="fill:none;fill-rule:nonzero;stroke:#d2e4cd;stroke-width:2px;"/><path d="M70.669,43.883c-0.194,0.8 -0.767,1.01 -1.72,0.63c-0.994,-0.393 -1.79,-0.303 -2.39,0.27c-0.267,0.247 -0.217,0.42 0.15,0.52c2.026,0.58 4.013,0.414 5.96,-0.5" style="fill:none;fill-rule:nonzero;stroke:#d2e4cd;stroke-width:2px;"/><path d="M63.879,46.593l-0.21,0.04" style="fill:none;fill-rule:nonzero;stroke:#d2e4cd;stroke-width:2px;"/><path d="M62.169,53.803c0.646,0.287 1.313,0.37 2,0.25" style="fill:none;fill-rule:nonzero;stroke:#d2e4cd;stroke-width:2px;"/><path d="M16.129,53.343c0.02,-0.386 0.2,-0.65 0.54,-0.79" style="fill:none;fill-rule:nonzero;stroke:#d2e4cd;stroke-width:2px;"/><path d="M7.419,45.053c2,0.72 4.006,0.857 6.02,0.41c0.233,-0.053 0.23,-0.113 -0.01,-0.18l-3.55,-0.94" style="fill:none;fill-rule:nonzero;stroke:#afc0a4;stroke-width:2px;"/><path d="M65.169,49.053l-0.5,0.08" style="fill:none;fill-rule:nonzero;stroke:#d2e4cd;stroke-width:2px;"/><path d="M49.669,41.143c1.846,-1.033 3.79,-1.156 5.83,-0.37c0.126,0.047 0.243,0.064 0.35,0.05c0.44,-0.073 0.413,-0.246 -0.08,-0.52c-1.487,-0.82 -2.797,-1.873 -3.93,-3.16c-0.23,-0.27 -0.64,-0.3 -0.91,-0.06c-1.627,1.44 -2.674,3.207 -3.14,5.3c-0.047,0.194 -0.044,0.37 0.01,0.53c0.18,0.62 0.426,0.577 0.74,-0.13c0.14,-0.306 0.29,-0.616 0.45,-0.93c0.16,-0.313 0.386,-0.55 0.68,-0.71" style="fill:none;fill-rule:nonzero;stroke:#93ac95;stroke-width:2px;"/><path d="M23.383,50.198c1.596,1.405 4.466,0.765 6.409,-1.434c1.947,-2.201 2.237,-5.131 0.642,-6.535c-1.595,-1.406 -4.465,-0.766 -6.409,1.433c-1.946,2.201 -2.236,5.131 -0.642,6.536" style="fill:none;fill-rule:nonzero;stroke:#93ac95;stroke-width:2px;"/><path d="M57.953,49.773c1.356,-1.67 0.556,-4.57 -1.796,-6.484c-2.348,-1.916 -5.358,-2.116 -6.713,-0.455c-1.355,1.669 -0.555,4.569 1.796,6.484c2.349,1.915 5.359,2.115 6.713,0.455" style="fill:none;fill-rule:nonzero;stroke:#93ac95;stroke-width:2px;"/><path d="M34.025,47.049c0.274,0.074 0.574,-0.136 0.665,-0.478c0.099,-0.338 -0.051,-0.678 -0.318,-0.754c-0.273,-0.074 -0.573,0.136 -0.664,0.478c-0.099,0.338 0.051,0.678 0.317,0.754" style="fill:none;fill-rule:nonzero;stroke:#669164;stroke-width:2px;"/><path d="M46.209,47.593c-0.587,0.42 -0.617,0.78 -0.09,1.08c0.846,0.48 1.72,0.897 2.62,1.25c1.153,0.46 1.386,0.257 0.7,-0.61c-0.707,-0.9 -1.63,-1.486 -2.77,-1.76" style="fill:none;fill-rule:nonzero;stroke:#93ac95;stroke-width:2px;"/><path d="M46.669,47.553c-0.487,-2.34 -0.64,-2.326 -0.46,0.04" style="fill:none;fill-rule:nonzero;stroke:#669164;stroke-width:2px;"/><path d="M46.669,47.553l-0.46,0.04" style="fill:none;fill-rule:nonzero;stroke:#d2e4cd;stroke-width:2px;"/><path d="M31.409,48.683c-0.614,1.107 -0.387,1.39 0.68,0.85l1.7,-0.86c0.36,-0.18 0.35,-0.383 -0.03,-0.61c-1,-0.606 -1.784,-0.4 -2.35,0.62" style="fill:none;fill-rule:nonzero;stroke:#93ac95;stroke-width:2px;"/><path d="M20.919,73.883l4.55,3.84c0.346,0.294 0.52,0.214 0.52,-0.24c-0.02,-1.346 -0.607,-2.08 -1.76,-2.2c-0.814,-0.086 -1.75,-0.803 -2.81,-2.15" style="fill:none;fill-rule:nonzero;stroke:#669164;stroke-width:2px;"/><path d="M21.419,73.133c-2.34,-1.833 -4.22,-4.063 -5.64,-6.69c-0.554,-1.02 -0.437,-1.423 0.35,-1.21c0.24,0.07 0.43,0.33 0.48,0.67c0.066,0.447 0.316,0.677 0.75,0.69c0.31,0.01 0.62,-0.16 0.82,-0.44c0.433,-0.593 0.51,-1.216 0.23,-1.87c-0.11,-0.26 -0.41,-0.4 -0.73,-0.35c-1.44,0.234 -2.887,0.224 -4.34,-0.03c-1.34,-0.233 -1.394,-0.633 -0.16,-1.2c2.9,-1.333 5.993,-2.486 9.28,-3.46c0.953,-0.28 1.94,-0.8 2.96,-1.56c1.02,-0.766 2.033,-1.306 3.04,-1.62c0.913,-0.286 1.773,-0.69 2.58,-1.21c3.006,-1.966 5.83,-2.976 8.47,-3.03c0.726,-0.013 1.286,0.15 1.68,0.49c0.72,0.62 -0.27,0.987 -2.97,1.1c-0.467,0.02 -0.537,0.194 -0.21,0.52c1.606,1.6 3.443,1.21 5.51,-1.17c0.27,-0.3 0.71,-0.38 1.07,-0.19c5.433,3.007 11.156,5.76 17.17,8.26c0.293,0.127 0.616,0.174 0.97,0.14c2.006,-0.166 3.513,0.49 4.52,1.97c0.606,0.887 0.336,1.27 -0.81,1.15l-4.74,-0.48c-0.53,-0.05 -0.88,0.55 -0.65,1.09c0.993,2.307 1.73,2.927 2.21,1.86c0.166,-0.38 0.343,-0.646 0.53,-0.8c0.74,-0.593 0.966,-0.376 0.68,0.65c-0.06,0.227 -0.18,0.45 -0.36,0.67c-1.3,1.647 -2.447,3.387 -3.44,5.22" style="fill:none;fill-rule:nonzero;stroke:#93ac95;stroke-width:2px;"/><path d="M60.669,72.303c-0.787,-0.92 -0.877,-1.93 -0.27,-3.03c0.213,-0.386 0.15,-0.466 -0.19,-0.24l-2.19,1.46c-0.24,0.16 -0.53,0.17 -0.72,0.03c-0.72,-0.52 -1.444,-0.496 -2.17,0.07" style="fill:none;fill-rule:nonzero;stroke:#669164;stroke-width:2px;"/><path d="M55.129,70.593c-0.8,0.867 -1.774,1.45 -2.92,1.75" style="fill:none;fill-rule:nonzero;stroke:#446d3b;stroke-width:2px;"/><path d="M52.209,72.343c-1.147,1.907 -0.827,3.254 0.96,4.04" style="fill:none;fill-rule:nonzero;stroke:#869d72;stroke-width:2px;"/><path d="M53.169,76.383l1.2,1.05c0.26,0.22 0.56,0.28 0.73,0.15l4.07,-3.2" style="fill:none;fill-rule:nonzero;stroke:#446d3b;stroke-width:2px;"/><path d="M59.169,74.383l2,-2" style="fill:none;fill-rule:nonzero;stroke:#669164;stroke-width:2px;"/><path d="M61.169,72.383c3.693,-2.726 7.063,-5.803 10.11,-9.23c0.19,-0.21 0.18,-0.53 -0.02,-0.72c-1.447,-1.406 -2.977,-2.27 -4.59,-2.59c-4.147,-0.82 -7.82,-2.273 -11.02,-4.36c-3.807,-2.486 -5.854,-3.8 -6.14,-3.94c-7.727,-3.586 -15.127,-2.883 -22.2,2.11c-2.56,1.807 -3.857,2.72 -3.89,2.74c-2.554,1.507 -5.3,2.584 -8.24,3.23c-1.594,0.354 -3.16,0.78 -4.7,1.28c-2.074,0.68 -2.49,1.64 -1.25,2.88c3.66,3.64 7.556,7.007 11.69,10.1" style="fill:none;fill-rule:nonzero;stroke:#93ac95;stroke-width:2px;"/><path d="M61.169,72.383l-0.5,-0.08" style="fill:none;fill-rule:nonzero;stroke:#d2e4cd;stroke-width:2px;"/><path d="M21.419,73.133c0.12,0.52 -0.047,0.77 -0.5,0.75" style="fill:none;fill-rule:nonzero;stroke:#d2e4cd;stroke-width:2px;"/><path d="M59.169,74.383c-0.707,-0.093 -0.894,-0.366 -0.56,-0.82c0.213,-0.293 0.34,-0.51 0.38,-0.65c0.173,-0.626 -0.037,-0.94 -0.63,-0.94c-0.26,0 -0.57,0.15 -0.86,0.41c-1.207,1.1 -1.82,0.79 -1.84,-0.93c-0,-0.25 -0.09,-0.48 -0.25,-0.62l-0.28,-0.24" style="fill:none;fill-rule:nonzero;stroke:#83a573;stroke-width:2px;"/><path d="M53.169,76.383c0.7,-1.58 0.38,-2.926 -0.96,-4.04" style="fill:none;fill-rule:nonzero;stroke:#a2b180;stroke-width:2px;"/><path d="M36.229,60.153c0.413,-1.873 0.493,-3.46 0.24,-4.76c-0.06,-0.31 -0.31,-0.55 -0.61,-0.59c-0.634,-0.093 -1.22,-0.003 -1.76,0.27c-0.24,0.13 -0.33,0.44 -0.19,0.7c0.666,1.274 1.023,2.64 1.07,4.1c0.006,0.314 0.07,0.577 0.19,0.79c0.446,0.84 0.8,0.67 1.06,-0.51" style="fill:none;fill-rule:nonzero;stroke:#93ac95;stroke-width:2px;"/><path d="M46.109,55.833c-0.58,-0.466 -1.124,-0.71 -1.63,-0.73c-0.28,-0.01 -0.53,0.22 -0.59,0.55c-0.447,2.427 -0.604,4.074 -0.47,4.94c0.2,1.274 0.506,1.347 0.92,0.22c0.526,-1.426 1.166,-2.826 1.92,-4.2c0.14,-0.27 0.08,-0.59 -0.15,-0.78" style="fill:none;fill-rule:nonzero;stroke:#93ac95;stroke-width:2px;"/><path d="M47.839,56.183c1.106,0.94 1.293,0.787 0.56,-0.46c-0.15,-0.26 -0.42,-0.4 -0.68,-0.35c-0.46,0.08 -0.42,0.35 0.12,0.81" style="fill:none;fill-rule:nonzero;stroke:#669164;stroke-width:2px;"/><path d="M30.809,57.243c-1.754,0.154 -2.237,0.894 -1.45,2.22c1.6,2.72 2.266,2.137 2,-1.75c-0.02,-0.29 -0.27,-0.5 -0.55,-0.47" style="fill:none;fill-rule:nonzero;stroke:#93ac95;stroke-width:2px;"/><path d="M51.589,57.983c-2.794,-1.06 -3.734,-0.1 -2.82,2.88c0.05,0.18 0.3,0.23 0.47,0.1l2.43,-1.91c0.6,-0.466 0.573,-0.823 -0.08,-1.07" style="fill:none;fill-rule:nonzero;stroke:#93ac95;stroke-width:2px;"/><path d="M25.494,63.795c0.475,-0.062 0.745,-0.992 0.597,-2.078c-0.142,-1.084 -0.652,-1.914 -1.128,-1.846c-0.474,0.062 -0.744,0.992 -0.597,2.079c0.143,1.083 0.653,1.913 1.128,1.845" style="fill:none;fill-rule:nonzero;stroke:#869d72;stroke-width:2px;"/><path d="M55.949,60.743c-0.44,-0.433 -0.87,-0.666 -1.29,-0.7c-0.27,-0.02 -0.51,0.22 -0.55,0.55c-0.467,4.294 0.19,4.617 1.97,0.97c0.14,-0.27 0.08,-0.61 -0.13,-0.82" style="fill:none;fill-rule:nonzero;stroke:#869d72;stroke-width:2px;"/><path d="M22.809,61.143c0.706,-0.98 0.52,-1.226 -0.56,-0.74l-2.96,1.33c-0.487,0.214 -0.46,0.337 0.08,0.37c1.753,0.107 2.9,-0.213 3.44,-0.96" style="fill:none;fill-rule:nonzero;stroke:#80936c;stroke-width:2px;"/><path d="M59.739,61.513c-0.394,-0.04 -0.694,-0.183 -0.9,-0.43c-0.26,-0.31 -0.53,-0.51 -0.71,-0.54c-0.554,-0.093 -0.694,0.074 -0.42,0.5c0.706,1.107 1.673,1.687 2.9,1.74c0.27,0.01 0.46,-0.25 0.35,-0.48c-0.22,-0.46 -0.627,-0.723 -1.22,-0.79" style="fill:none;fill-rule:nonzero;stroke:#869d72;stroke-width:2px;"/><path d="M21.689,71.205c0.4,-0.342 0.32,-1.102 -0.189,-1.704c-0.511,-0.598 -1.251,-0.808 -1.652,-0.459c-0.399,0.341 -0.319,1.101 0.189,1.704c0.512,0.597 1.252,0.807 1.652,0.459" style="fill:none;fill-rule:nonzero;stroke:#869d72;stroke-width:2px;"/><path d="M28.879,77.843c-0.727,0.92 -0.694,1.65 0.1,2.19c5.06,3.454 10.79,4.387 17.19,2.8c1.06,-0.266 1.99,-0.763 2.79,-1.49" style="fill:none;fill-rule:nonzero;stroke:#869d72;stroke-width:2px;"/><path d="M48.959,81.343l3.51,-1.47c0.63,-0.26 0.79,-1.09 0.3,-1.57c-1.44,-1.4 -2.284,-1.413 -2.53,-0.04c-0.207,1.18 -0.884,1.957 -2.03,2.33" style="fill:none;fill-rule:nonzero;stroke:#669164;stroke-width:2px;"/><path d="M48.209,80.593c-4.574,1.074 -9.754,0.99 -15.54,-0.25c-1.52,-0.326 -2.52,-0.756 -3,-1.29" style="fill:none;fill-rule:nonzero;stroke:#869d72;stroke-width:2px;"/><path d="M29.669,79.053c0.226,-1.133 0.013,-2.083 -0.64,-2.85c-0.25,-0.29 -0.4,-0.6 -0.41,-0.86l-0.14,-2.82c-0.01,-0.23 -0.23,-0.4 -0.48,-0.36c-0.9,0.114 -1.947,-0.36 -3.14,-1.42c-0.35,-0.32 -0.87,-0.34 -1.25,-0.07c-1.007,0.734 -0.964,1.457 0.13,2.17c0.23,0.15 0.55,0.1 0.77,-0.11c0.826,-0.773 1.533,-0.656 2.12,0.35c0.13,0.22 0.17,0.55 0.11,0.93c-0.154,0.94 0.303,1.654 1.37,2.14c0.573,0.267 0.83,0.83 0.77,1.69" style="fill:none;fill-rule:nonzero;stroke:#869d72;stroke-width:2px;"/><path d="M29.669,79.053c-0.654,-0.093 -0.917,-0.496 -0.79,-1.21" style="fill:none;fill-rule:nonzero;stroke:#e4e1b7;stroke-width:2px;"/><path d="M48.959,81.343c0.093,-0.626 -0.157,-0.876 -0.75,-0.75" style="fill:none;fill-rule:nonzero;stroke:#c5d5aa;stroke-width:2px;"/><path d="M41.969,72.493c0.453,-0.906 0.836,-0.736 1.15,0.51c0.093,0.367 0.243,0.684 0.45,0.95c0.5,0.614 1.006,1.274 1.52,1.98c0.32,0.43 0.99,0.36 1.21,-0.13c0.7,-1.506 0.526,-2.67 -0.52,-3.49c-0.547,-0.44 -1.51,-0.743 -2.89,-0.91c-1.407,-0.166 -2.814,-0.333 -4.22,-0.5c-0.28,-0.03 -0.54,0.16 -0.57,0.44c-0.247,1.907 -0.02,3.73 0.68,5.47c0.12,0.3 0.39,0.52 0.7,0.57c1.846,0.3 2.573,-0.57 2.18,-2.61c-0.15,-0.77 -0.04,-1.57 0.31,-2.28" style="fill:none;fill-rule:nonzero;stroke:#93ac95;stroke-width:2px;"/><path d="M34.119,72.533c-0.467,1.167 -0.524,2.387 -0.17,3.66c0.09,0.35 0.53,0.46 0.79,0.21c1.233,-1.226 1.88,-2.786 1.94,-4.68c0.01,-0.27 -0.22,-0.49 -0.5,-0.47c-1.067,0.087 -1.754,0.514 -2.06,1.28" style="fill:none;fill-rule:nonzero;stroke:#93ac95;stroke-width:2px;"/><path d="M30.209,74.843l0.81,2.25c0.08,0.23 0.33,0.46 0.67,0.62c0.56,0.274 0.983,0.667 1.27,1.18c0.14,0.25 0.44,0.35 0.65,0.22c0.833,-0.48 0.843,-0.923 0.03,-1.33c-0.27,-0.13 -0.46,-0.38 -0.52,-0.69c-0.087,-0.446 -0.28,-0.833 -0.58,-1.16c-0.14,-0.16 -0.46,-0.26 -0.87,-0.28c-0.44,-0.026 -0.704,-0.296 -0.79,-0.81" style="fill:none;fill-rule:nonzero;stroke:#869d72;stroke-width:2px;"/><path d="M30.879,74.843c1.106,-0.52 1.496,-1.263 1.17,-2.23c-0.09,-0.29 -0.38,-0.48 -0.69,-0.46c-1.48,0.08 -1.864,0.977 -1.15,2.69" style="fill:none;fill-rule:nonzero;stroke:#869d72;stroke-width:2px;"/><path d="M30.879,74.843l-0.67,0" style="fill:none;fill-rule:nonzero;stroke:#e4e1b7;stroke-width:2px;"/><path d="M49.289,75.753c2.04,-1.92 1.83,-3.113 -0.63,-3.58c-0.3,-0.06 -0.59,0.11 -0.67,0.39c-0.12,0.434 -0.12,0.874 -0,1.32c0.09,0.3 0.04,0.62 -0.13,0.85c-0.974,1.327 -0.974,2.65 -0,3.97c0.16,0.22 0.48,0.23 0.65,0.02c0.52,-0.64 0.7,-1.356 0.54,-2.15c-0.06,-0.31 0.03,-0.62 0.24,-0.82" style="fill:none;fill-rule:nonzero;stroke:#669164;stroke-width:2px;"/><path d="M36.429,78.953c0.953,0.527 1.373,0.29 1.26,-0.71l-0.31,-2.72c-0.08,-0.746 -0.344,-0.796 -0.79,-0.15c-1.214,1.76 -1.267,2.954 -0.16,3.58" style="fill:none;fill-rule:nonzero;stroke:#93ac95;stroke-width:2px;"/><path d="M44.193,79.613c0.486,-0.13 0.616,-1.24 0.284,-2.479c-0.338,-1.241 -0.998,-2.131 -1.493,-2.001c-0.485,0.13 -0.615,1.24 -0.284,2.48c0.339,1.24 0.999,2.13 1.493,2" style="fill:none;fill-rule:nonzero;stroke:#93ac95;stroke-width:2px;"/><path d="M45.809,79.733c-0.02,0.33 0.27,0.59 0.59,0.54c0.653,-0.086 0.79,-0.633 0.41,-1.64c-0.554,-1.453 -0.887,-1.086 -1,1.1" style="fill:none;fill-rule:nonzero;stroke:#669164;stroke-width:2px;"/><path d="M39.799,78.273c-0.487,-0.22 -0.877,-0.096 -1.17,0.37c-0.15,0.25 -0.08,0.59 0.17,0.78c0.806,0.647 1.746,0.884 2.82,0.71c0.3,-0.05 0.53,-0.3 0.54,-0.6c0.02,-0.98 -0.46,-1.36 -1.44,-1.14c-0.28,0.06 -0.6,0.02 -0.92,-0.12" style="fill:none;fill-rule:nonzero;stroke:#869d72;stroke-width:2px;"/><path d="M19.579,36.483c0.666,-0.346 0.7,-0.74 0.1,-1.18c-0.7,-0.52 -1.037,-0.303 -1.01,0.65c0.01,0.46 0.5,0.74 0.91,0.53" style="fill:none;fill-rule:nonzero;stroke:#d2e4cd;stroke-width:2px;"/><path d="M9.729,1.843l26,0c-8.667,0.587 -17.334,0.587 -26,0Z" style="fill:#d8ccab;fill-rule:nonzero;"/><path d="M8.419,65.053c-1.634,-1.013 -1.84,-2.06 -0.62,-3.14c1.106,-0.973 1.48,-2.176 1.12,-3.61c-0.86,-3.366 -1.34,-6.456 -1.44,-9.27c-0.054,-1.68 -1.1,-3.16 -3.14,-4.44c-0.3,-0.186 -0.287,-0.343 0.04,-0.47l2.54,-0.99c0.966,0.147 1.546,-0.166 1.74,-0.94c0.153,-0.62 0.25,-0.97 0.29,-1.05c2.1,-4.973 4.916,-9.506 8.45,-13.6c0.18,-0.213 0.45,-0.39 0.81,-0.53c0.866,-0.326 1.333,-0.99 1.4,-1.99c0.02,-0.29 0.22,-0.52 0.49,-0.57c2.273,-0.386 4.023,-1.553 5.25,-3.5c0.17,-0.26 0.44,-0.44 0.75,-0.5l11.8,-2.48c0.29,-0.06 0.51,-0.33 0.52,-0.65c0.14,-3.706 0.296,-7.416 0.47,-11.13c0.02,-0.446 0.093,-0.83 0.22,-1.15c0.44,-1.16 0.896,-1.223 1.37,-0.19c0.12,0.267 0.213,0.607 0.28,1.02c0.686,3.927 1.013,7.724 0.98,11.39c-0.01,0.48 0.35,0.88 0.83,0.93c2.873,0.314 5.506,0.817 7.9,1.51c2.24,0.647 4.593,1.847 7.06,3.6c3.946,2.8 6.556,5 7.83,6.6c2.886,3.654 4.99,7.717 6.31,12.19c0.46,1.56 1.626,2.144 3.5,1.75c0.72,-0.146 1.183,0.024 1.39,0.51c0.1,0.25 -0.04,0.56 -0.33,0.74c-2,1.234 -3.054,2.977 -3.16,5.23c-0.1,2.294 -0.157,3.47 -0.17,3.53c-0.34,1.96 -0.784,3.794 -1.33,5.5c-0.34,1.067 -0.1,1.984 0.72,2.75c0.933,0.867 1.016,1.58 0.25,2.14c-0.707,0.52 -1.084,0.804 -1.13,0.85c-0.92,0.914 -1.847,1.82 -2.78,2.72c-0.78,0.754 -1.65,1.71 -2.61,2.87c-5.914,7.134 -13.364,11.77 -22.35,13.91c-3.26,0.774 -6.59,0.564 -9.99,-0.63c-7.74,-2.726 -14.057,-6.87 -18.95,-12.43c-2.76,-3.146 -4.864,-5.306 -6.31,-6.48Zm31.29,-53.21c-0.034,2.14 -0.297,4.64 -0.79,7.5c-0.56,3.274 -0.63,6.857 -0.21,10.75c-0.074,0.654 -0.274,0.79 -0.6,0.41c-0.21,-0.24 -0.46,-0.36 -0.68,-0.34c-0.547,0.06 -1.037,0.287 -1.47,0.68c-0.614,-4.706 -3.057,-7.766 -7.33,-9.18c-0.52,-0.18 -1.08,0.18 -1.15,0.73c-0.287,2.334 -1,4.527 -2.14,6.58c-1.58,2.847 -4.13,4.24 -7.65,4.18c-0.93,-0.02 -1.67,0.77 -1.6,1.7c0.433,5.374 -1.637,8.537 -6.21,9.49c-1.014,-0.22 -1.834,0.017 -2.46,0.71c0.54,1.44 1.166,2.844 1.88,4.21c0.233,0.454 0.62,1.577 1.16,3.37c0.593,1.967 2.01,2.517 4.25,1.65c0.35,-0.14 0.55,-0.47 0.4,-0.67c-0.147,-0.2 -0.5,-0.26 -1.06,-0.18c-0.49,0.07 -0.92,-0.32 -0.89,-0.81c0.126,-2.866 1.263,-4.946 3.41,-6.24c0.6,-0.366 1.136,-0.776 1.61,-1.23c0.533,-0.52 1.086,-0.93 1.66,-1.23c1.18,-0.626 1.396,-0.386 0.65,0.72c-0.887,1.314 -1.754,2.634 -2.6,3.96c-1.247,1.967 -0.74,3.307 1.52,4.02c1.566,0.5 1.73,0.947 0.49,1.34c-0.28,0.09 -0.61,0.05 -0.9,-0.12l-2.33,-1.29c-0.76,-0.406 -0.72,-1.806 0.12,-4.2c0.226,-0.64 0.016,-0.863 -0.63,-0.67c-0.587,0.174 -0.914,0.81 -0.98,1.91c-0.02,0.32 -0.104,0.634 -0.25,0.94c-0.654,1.374 -0.254,2.31 1.2,2.81c-0.14,1.354 -0.72,2.51 -1.74,3.47c-1.414,1.32 -1.314,1.797 0.3,1.43c2.86,-0.646 5.67,-1.47 8.43,-2.47c1.633,-0.586 1.806,-1.466 0.52,-2.64c-2.747,-2.5 -2.95,-6.06 -0.61,-10.68c0.24,-0.47 0.65,-0.81 1.15,-0.96c1.086,-0.326 1.666,-0.876 1.74,-1.65c2.026,-0.266 3.753,0.337 5.18,1.81c1.033,1.074 1.473,0.887 1.32,-0.56c-0.127,-1.193 -1.057,-2.486 -2.79,-3.88c-0.2,-0.16 -0.51,-0.14 -0.73,0.06l-2.98,2.57c-1.747,1.407 -2.47,1.3 -2.17,-0.32c0.06,-0.33 0.24,-0.62 0.5,-0.82c0.433,-0.333 0.903,-0.6 1.41,-0.8c0.966,-0.393 1.556,-0.736 1.77,-1.03c0.5,-0.7 0.4,-1.463 -0.3,-2.29c-0.17,-0.2 -0.25,-0.41 -0.21,-0.54c0.046,-0.166 0.203,-0.2 0.47,-0.1c1.893,0.674 3.3,1.917 4.22,3.73c0.653,1.274 0.99,1.194 1.01,-0.24c0.026,-1.786 -0.157,-3.796 -0.55,-6.03c-0.06,-0.366 0.01,-0.403 0.21,-0.11c0.82,1.167 1.283,2.85 1.39,5.05c0.133,2.754 0.29,5.504 0.47,8.25c0.02,0.27 0.23,0.5 0.52,0.57c1.186,0.26 1.596,1.06 1.23,2.4c-0.06,0.21 0.12,0.42 0.34,0.38c2.513,-0.386 5.22,-0.29 8.12,0.29c0.25,0.05 0.46,-0.19 0.38,-0.43c-0.374,-1.213 -0.227,-2.283 0.44,-3.21c0.52,-0.726 0.686,-2.226 0.5,-4.5c-0.167,-2.013 0.646,-5.226 2.44,-9.64c0.086,-0.22 0.193,-0.396 0.32,-0.53c0.426,-0.48 0.67,-0.443 0.73,0.11c0.013,0.18 -0.024,0.38 -0.11,0.6c-0.987,2.56 -1.53,5.217 -1.63,7.97c-0.034,0.92 0.176,0.98 0.63,0.18c0.906,-1.6 2.126,-2.986 3.66,-4.16c0.366,-0.28 0.67,-0.34 0.91,-0.18c0.18,0.13 0.2,0.48 0.04,0.83c-0.414,0.86 -0.067,1.644 1.04,2.35c0.42,0.267 0.846,0.527 1.28,0.78c1.693,0.974 2.523,1.817 2.49,2.53c-0.06,1.167 0.18,2.267 0.72,3.3c1.626,3.127 1.266,6.01 -1.08,8.65c-0.27,0.31 -0.69,0.44 -1.09,0.35c-0.534,-0.126 -0.93,-0.14 -1.19,-0.04c-0.394,0.14 -0.357,0.327 0.11,0.56c1.133,0.56 2.223,1.197 3.27,1.91c1.286,0.88 2.383,1.48 3.29,1.8c1.42,0.494 2.873,0.89 4.36,1.19c2.013,0.407 2.366,-0.113 1.06,-1.56l-2.75,-3.04c-0.554,-1.146 -1.22,-1.23 -2,-0.25c-1.98,0.154 -2.014,-0.556 -0.1,-2.13c0.57,-0.47 0.82,-1.22 0.65,-1.93c-0.327,-1.34 -1.087,-2.743 -2.28,-4.21c-0.147,-0.18 -0.254,-0.363 -0.32,-0.55c-0.614,-1.653 -0.307,-1.743 0.92,-0.27c0.72,0.86 1.596,1.5 2.63,1.92l1,2.5c0.22,0.894 0.373,1.79 0.46,2.69c0.08,0.774 0.323,0.844 0.73,0.21c0.713,-1.126 0.483,-2.12 -0.69,-2.98c0.046,-1.173 -0.384,-1.993 -1.29,-2.46c1.2,-1.133 1.82,-0.99 1.86,0.43c0.01,0.34 0.13,0.65 0.33,0.89c1.073,1.294 1.69,2.687 1.85,4.18c0.12,1.094 -0.28,1.634 -1.2,1.62c-0.37,-0.01 -0.67,0.19 -0.62,0.42c0.086,0.394 0.85,0.49 2.29,0.29c0.67,-0.09 1.19,-0.63 1.28,-1.3c0.353,-2.766 1.496,-5.093 3.43,-6.98c0.28,-0.273 0.433,-0.51 0.46,-0.71c0.04,-0.393 -0.257,-0.603 -0.89,-0.63l-2,-0.92c-1.447,-0.553 -2.77,-1.323 -3.97,-2.31c-2.114,-1.726 -2.727,-3.913 -1.84,-6.56c0.22,-0.65 -0.23,-1.34 -0.92,-1.39c-6.32,-0.486 -10.014,-4.126 -11.08,-10.92c-0.1,-0.62 -0.75,-0.99 -1.33,-0.75c-5.04,2.007 -7.734,5.48 -8.08,10.42c-0.087,1.32 -0.787,2.054 -2.1,2.2c-2.414,0.274 -4.044,-0.636 -4.89,-2.73c0.793,-0.006 1.43,0.274 1.91,0.84c0.12,0.14 0.35,0.09 0.42,-0.08c0.16,-0.353 0.453,-0.536 0.88,-0.55c0.646,0.08 0.91,0.34 0.79,0.78c-0.1,0.34 -0.04,0.66 0.13,0.8c0.506,0.414 0.946,0.377 1.32,-0.11c0.17,-0.22 0.25,-0.55 0.22,-0.93l-1.5,-20.75c-0.254,-1.766 -0.56,-1.766 -0.92,0Zm9.96,29.3c1.846,-1.033 3.79,-1.156 5.83,-0.37c0.126,0.047 0.243,0.064 0.35,0.05c0.44,-0.073 0.413,-0.246 -0.08,-0.52c-1.487,-0.82 -2.797,-1.873 -3.93,-3.16c-0.23,-0.27 -0.64,-0.3 -0.91,-0.06c-1.627,1.44 -2.674,3.207 -3.14,5.3c-0.047,0.194 -0.044,0.37 0.01,0.53c0.18,0.62 0.426,0.577 0.74,-0.13c0.14,-0.306 0.29,-0.616 0.45,-0.93c0.16,-0.313 0.386,-0.55 0.68,-0.71Zm-26.286,9.055c1.596,1.405 4.466,0.765 6.409,-1.434c1.947,-2.201 2.237,-5.131 0.642,-6.535c-1.595,-1.406 -4.465,-0.766 -6.409,1.433c-1.946,2.201 -2.236,5.131 -0.642,6.536Zm34.57,-0.425c1.356,-1.67 0.556,-4.57 -1.796,-6.484c-2.348,-1.916 -5.358,-2.116 -6.713,-0.455c-1.355,1.669 -0.555,4.569 1.796,6.484c2.349,1.915 5.359,2.115 6.713,0.455Zm-23.928,-2.724c0.274,0.074 0.574,-0.136 0.665,-0.478c0.099,-0.338 -0.051,-0.678 -0.318,-0.754c-0.273,-0.074 -0.573,0.136 -0.664,0.478c-0.099,0.338 0.051,0.678 0.317,0.754Zm12.184,0.544c-0.587,0.42 -0.617,0.78 -0.09,1.08c0.846,0.48 1.72,0.897 2.62,1.25c1.153,0.46 1.386,0.257 0.7,-0.61c-0.707,-0.9 -1.63,-1.486 -2.77,-1.76c-0.487,-2.34 -0.64,-2.326 -0.46,0.04Zm-14.8,1.09c-0.614,1.107 -0.387,1.39 0.68,0.85l1.7,-0.86c0.36,-0.18 0.35,-0.383 -0.03,-0.61c-1,-0.606 -1.784,-0.4 -2.35,0.62Zm-10.49,25.2l4.55,3.84c0.346,0.294 0.52,0.214 0.52,-0.24c-0.02,-1.346 -0.607,-2.08 -1.76,-2.2c-0.814,-0.086 -1.75,-0.803 -2.81,-2.15c-2.34,-1.833 -4.22,-4.063 -5.64,-6.69c-0.554,-1.02 -0.437,-1.423 0.35,-1.21c0.24,0.07 0.43,0.33 0.48,0.67c0.066,0.447 0.316,0.677 0.75,0.69c0.31,0.01 0.62,-0.16 0.82,-0.44c0.433,-0.593 0.51,-1.216 0.23,-1.87c-0.11,-0.26 -0.41,-0.4 -0.73,-0.35c-1.44,0.234 -2.887,0.224 -4.34,-0.03c-1.34,-0.233 -1.394,-0.633 -0.16,-1.2c2.9,-1.333 5.993,-2.486 9.28,-3.46c0.953,-0.28 1.94,-0.8 2.96,-1.56c1.02,-0.766 2.033,-1.306 3.04,-1.62c0.913,-0.286 1.773,-0.69 2.58,-1.21c3.006,-1.966 5.83,-2.976 8.47,-3.03c0.726,-0.013 1.286,0.15 1.68,0.49c0.72,0.62 -0.27,0.987 -2.97,1.1c-0.467,0.02 -0.537,0.194 -0.21,0.52c1.606,1.6 3.443,1.21 5.51,-1.17c0.27,-0.3 0.71,-0.38 1.07,-0.19c5.433,3.007 11.156,5.76 17.17,8.26c0.293,0.127 0.616,0.174 0.97,0.14c2.006,-0.166 3.513,0.49 4.52,1.97c0.606,0.887 0.336,1.27 -0.81,1.15l-4.74,-0.48c-0.53,-0.05 -0.88,0.55 -0.65,1.09c0.993,2.307 1.73,2.927 2.21,1.86c0.166,-0.38 0.343,-0.646 0.53,-0.8c0.74,-0.593 0.966,-0.376 0.68,0.65c-0.06,0.227 -0.18,0.45 -0.36,0.67c-1.3,1.647 -2.447,3.387 -3.44,5.22c-0.787,-0.92 -0.877,-1.93 -0.27,-3.03c0.213,-0.386 0.15,-0.466 -0.19,-0.24l-2.19,1.46c-0.24,0.16 -0.53,0.17 -0.72,0.03c-0.72,-0.52 -1.444,-0.496 -2.17,0.07c-0.8,0.867 -1.774,1.45 -2.92,1.75c-1.147,1.907 -0.827,3.254 0.96,4.04l1.2,1.05c0.26,0.22 0.56,0.28 0.73,0.15l4.07,-3.2l2,-2c3.693,-2.726 7.063,-5.803 10.11,-9.23c0.19,-0.21 0.18,-0.53 -0.02,-0.72c-1.447,-1.406 -2.977,-2.27 -4.59,-2.59c-4.147,-0.82 -7.82,-2.273 -11.02,-4.36c-3.807,-2.486 -5.854,-3.8 -6.14,-3.94c-7.727,-3.586 -15.127,-2.883 -22.2,2.11c-2.56,1.807 -3.857,2.72 -3.89,2.74c-2.554,1.507 -5.3,2.584 -8.24,3.23c-1.594,0.354 -3.16,0.78 -4.7,1.28c-2.074,0.68 -2.49,1.64 -1.25,2.88c3.66,3.64 7.556,7.007 11.69,10.1Zm15.31,-13.73c0.413,-1.873 0.493,-3.46 0.24,-4.76c-0.06,-0.31 -0.31,-0.55 -0.61,-0.59c-0.634,-0.093 -1.22,-0.003 -1.76,0.27c-0.24,0.13 -0.33,0.44 -0.19,0.7c0.666,1.274 1.023,2.64 1.07,4.1c0.006,0.314 0.07,0.577 0.19,0.79c0.446,0.84 0.8,0.67 1.06,-0.51Zm9.88,-4.32c-0.58,-0.466 -1.124,-0.71 -1.63,-0.73c-0.28,-0.01 -0.53,0.22 -0.59,0.55c-0.447,2.427 -0.604,4.074 -0.47,4.94c0.2,1.274 0.506,1.347 0.92,0.22c0.526,-1.426 1.166,-2.826 1.92,-4.2c0.14,-0.27 0.08,-0.59 -0.15,-0.78Zm1.73,0.35c1.106,0.94 1.293,0.787 0.56,-0.46c-0.15,-0.26 -0.42,-0.4 -0.68,-0.35c-0.46,0.08 -0.42,0.35 0.12,0.81Zm-17.03,1.06c-1.754,0.154 -2.237,0.894 -1.45,2.22c1.6,2.72 2.266,2.137 2,-1.75c-0.02,-0.29 -0.27,-0.5 -0.55,-0.47Zm20.78,0.74c-2.794,-1.06 -3.734,-0.1 -2.82,2.88c0.05,0.18 0.3,0.23 0.47,0.1l2.43,-1.91c0.6,-0.466 0.573,-0.823 -0.08,-1.07Zm-26.095,5.812c0.475,-0.062 0.745,-0.992 0.597,-2.078c-0.142,-1.084 -0.652,-1.914 -1.128,-1.846c-0.474,0.062 -0.744,0.992 -0.597,2.079c0.143,1.083 0.653,1.913 1.128,1.845Zm30.455,-3.052c-0.44,-0.433 -0.87,-0.666 -1.29,-0.7c-0.27,-0.02 -0.51,0.22 -0.55,0.55c-0.467,4.294 0.19,4.617 1.97,0.97c0.14,-0.27 0.08,-0.61 -0.13,-0.82Zm-33.14,0.4c0.706,-0.98 0.52,-1.226 -0.56,-0.74l-2.96,1.33c-0.487,0.214 -0.46,0.337 0.08,0.37c1.753,0.107 2.9,-0.213 3.44,-0.96Zm36.93,0.37c-0.394,-0.04 -0.694,-0.183 -0.9,-0.43c-0.26,-0.31 -0.53,-0.51 -0.71,-0.54c-0.554,-0.093 -0.694,0.074 -0.42,0.5c0.706,1.107 1.673,1.687 2.9,1.74c0.27,0.01 0.46,-0.25 0.35,-0.48c-0.22,-0.46 -0.627,-0.723 -1.22,-0.79Zm-38.05,9.692c0.4,-0.342 0.32,-1.102 -0.189,-1.704c-0.511,-0.598 -1.251,-0.808 -1.652,-0.459c-0.399,0.341 -0.319,1.101 0.189,1.704c0.512,0.597 1.252,0.807 1.652,0.459Zm7.19,6.638c-0.727,0.92 -0.694,1.65 0.1,2.19c5.06,3.454 10.79,4.387 17.19,2.8c1.06,-0.266 1.99,-0.763 2.79,-1.49l3.51,-1.47c0.63,-0.26 0.79,-1.09 0.3,-1.57c-1.44,-1.4 -2.284,-1.413 -2.53,-0.04c-0.207,1.18 -0.884,1.957 -2.03,2.33c-4.574,1.074 -9.754,0.99 -15.54,-0.25c-1.52,-0.326 -2.52,-0.756 -3,-1.29c0.226,-1.133 0.013,-2.083 -0.64,-2.85c-0.25,-0.29 -0.4,-0.6 -0.41,-0.86l-0.14,-2.82c-0.01,-0.23 -0.23,-0.4 -0.48,-0.36c-0.9,0.114 -1.947,-0.36 -3.14,-1.42c-0.35,-0.32 -0.87,-0.34 -1.25,-0.07c-1.007,0.734 -0.964,1.457 0.13,2.17c0.23,0.15 0.55,0.1 0.77,-0.11c0.826,-0.773 1.533,-0.656 2.12,0.35c0.13,0.22 0.17,0.55 0.11,0.93c-0.154,0.94 0.303,1.654 1.37,2.14c0.573,0.267 0.83,0.83 0.77,1.69Zm13.09,-5.35c0.453,-0.906 0.836,-0.736 1.15,0.51c0.093,0.367 0.243,0.684 0.45,0.95c0.5,0.614 1.006,1.274 1.52,1.98c0.32,0.43 0.99,0.36 1.21,-0.13c0.7,-1.506 0.526,-2.67 -0.52,-3.49c-0.547,-0.44 -1.51,-0.743 -2.89,-0.91c-1.407,-0.166 -2.814,-0.333 -4.22,-0.5c-0.28,-0.03 -0.54,0.16 -0.57,0.44c-0.247,1.907 -0.02,3.73 0.68,5.47c0.12,0.3 0.39,0.52 0.7,0.57c1.846,0.3 2.573,-0.57 2.18,-2.61c-0.15,-0.77 -0.04,-1.57 0.31,-2.28Zm-7.85,0.04c-0.467,1.167 -0.524,2.387 -0.17,3.66c0.09,0.35 0.53,0.46 0.79,0.21c1.233,-1.226 1.88,-2.786 1.94,-4.68c0.01,-0.27 -0.22,-0.49 -0.5,-0.47c-1.067,0.087 -1.754,0.514 -2.06,1.28Zm-3.91,2.31l0.81,2.25c0.08,0.23 0.33,0.46 0.67,0.62c0.56,0.274 0.983,0.667 1.27,1.18c0.14,0.25 0.44,0.35 0.65,0.22c0.833,-0.48 0.843,-0.923 0.03,-1.33c-0.27,-0.13 -0.46,-0.38 -0.52,-0.69c-0.087,-0.446 -0.28,-0.833 -0.58,-1.16c-0.14,-0.16 -0.46,-0.26 -0.87,-0.28c-0.44,-0.026 -0.704,-0.296 -0.79,-0.81c1.106,-0.52 1.496,-1.263 1.17,-2.23c-0.09,-0.29 -0.38,-0.48 -0.69,-0.46c-1.48,0.08 -1.864,0.977 -1.15,2.69Zm19.08,0.91c2.04,-1.92 1.83,-3.113 -0.63,-3.58c-0.3,-0.06 -0.59,0.11 -0.67,0.39c-0.12,0.434 -0.12,0.874 -0,1.32c0.09,0.3 0.04,0.62 -0.13,0.85c-0.974,1.327 -0.974,2.65 -0,3.97c0.16,0.22 0.48,0.23 0.65,0.02c0.52,-0.64 0.7,-1.356 0.54,-2.15c-0.06,-0.31 0.03,-0.62 0.24,-0.82Zm-12.86,3.2c0.953,0.527 1.373,0.29 1.26,-0.71l-0.31,-2.72c-0.08,-0.746 -0.344,-0.796 -0.79,-0.15c-1.214,1.76 -1.267,2.954 -0.16,3.58Zm7.764,0.66c0.486,-0.13 0.616,-1.24 0.284,-2.479c-0.338,-1.241 -0.998,-2.131 -1.493,-2.001c-0.485,0.13 -0.615,1.24 -0.284,2.48c0.339,1.24 0.999,2.13 1.493,2Zm1.616,0.12c-0.02,0.33 0.27,0.59 0.59,0.54c0.653,-0.086 0.79,-0.633 0.41,-1.64c-0.554,-1.453 -0.887,-1.086 -1,1.1Zm-6.01,-1.46c-0.487,-0.22 -0.877,-0.096 -1.17,0.37c-0.15,0.25 -0.08,0.59 0.17,0.78c0.806,0.647 1.746,0.884 2.82,0.71c0.3,-0.05 0.53,-0.3 0.54,-0.6c0.02,-0.98 -0.46,-1.36 -1.44,-1.14c-0.28,0.06 -0.6,0.02 -0.92,-0.12Z" style="fill:#27592c;fill-rule:nonzero;"/><path d="M81.919,8.653l-0,15.75c-0.42,-5.246 -0.42,-10.496 -0,-15.75Z" style="fill:#d8ccab;fill-rule:nonzero;"/><path d="M40.629,11.843l-0.92,0c0.36,-1.766 0.666,-1.766 0.92,0Z" style="fill:#a5c89c;fill-rule:nonzero;"/><path d="M39.709,11.843l0.92,0l1.5,20.75c0.03,0.38 -0.05,0.71 -0.22,0.93c-0.374,0.487 -0.814,0.524 -1.32,0.11c-0.17,-0.14 -0.23,-0.46 -0.13,-0.8c0.12,-0.44 -0.144,-0.7 -0.79,-0.78c-0.647,-0.433 -0.967,-1.086 -0.96,-1.96c-0.42,-3.893 -0.35,-7.476 0.21,-10.75c0.493,-2.86 0.756,-5.36 0.79,-7.5Z" style="fill:#fefffe;fill-rule:nonzero;"/><path d="M35.959,30.843l0.5,1c0.846,2.094 2.476,3.004 4.89,2.73c1.313,-0.146 2.013,-0.88 2.1,-2.2c0.346,-4.94 3.04,-8.413 8.08,-10.42c0.58,-0.24 1.23,0.13 1.33,0.75c1.066,6.794 4.76,10.434 11.08,10.92c0.69,0.05 1.14,0.74 0.92,1.39c-0.887,2.647 -0.274,4.834 1.84,6.56c1.2,0.987 2.523,1.757 3.97,2.31c-0.194,0.8 -0.767,1.01 -1.72,0.63c-0.994,-0.393 -1.79,-0.303 -2.39,0.27c-0.267,0.247 -0.217,0.42 0.15,0.52c2.026,0.58 4.013,0.414 5.96,-0.5c0.633,0.027 0.93,0.237 0.89,0.63c-0.027,0.2 -0.18,0.437 -0.46,0.71c-1.934,1.887 -3.077,4.214 -3.43,6.98c-0.09,0.67 -0.61,1.21 -1.28,1.3c-1.44,0.2 -2.204,0.104 -2.29,-0.29c-0.05,-0.23 0.25,-0.43 0.62,-0.42c0.92,0.014 1.32,-0.526 1.2,-1.62c-0.16,-1.493 -0.777,-2.886 -1.85,-4.18c-0.2,-0.24 -0.32,-0.55 -0.33,-0.89c-0.04,-1.42 -0.66,-1.563 -1.86,-0.43l-0.21,0.04c-1.034,-0.42 -1.91,-1.06 -2.63,-1.92c-1.227,-1.473 -1.534,-1.383 -0.92,0.27c0.066,0.187 0.173,0.37 0.32,0.55c1.193,1.467 1.953,2.87 2.28,4.21c0.17,0.71 -0.08,1.46 -0.65,1.93c-1.914,1.574 -1.88,2.284 0.1,2.13c0.646,0.287 1.313,0.37 2,0.25l2.75,3.04c1.306,1.447 0.953,1.967 -1.06,1.56c-1.487,-0.3 -2.94,-0.696 -4.36,-1.19c-0.907,-0.32 -2.004,-0.92 -3.29,-1.8c-1.047,-0.713 -2.137,-1.35 -3.27,-1.91c-0.467,-0.233 -0.504,-0.42 -0.11,-0.56c0.26,-0.1 0.656,-0.086 1.19,0.04c0.4,0.09 0.82,-0.04 1.09,-0.35c2.346,-2.64 2.706,-5.523 1.08,-8.65c-0.54,-1.033 -0.78,-2.133 -0.72,-3.3c0.033,-0.713 -0.797,-1.556 -2.49,-2.53c-0.434,-0.253 -0.86,-0.513 -1.28,-0.78c-1.107,-0.706 -1.454,-1.49 -1.04,-2.35c0.16,-0.35 0.14,-0.7 -0.04,-0.83c-0.24,-0.16 -0.544,-0.1 -0.91,0.18c-1.534,1.174 -2.754,2.56 -3.66,4.16c-0.454,0.8 -0.664,0.74 -0.63,-0.18c0.1,-2.753 0.643,-5.41 1.63,-7.97c0.086,-0.22 0.123,-0.42 0.11,-0.6c-0.06,-0.553 -0.304,-0.59 -0.73,-0.11c-0.127,0.134 -0.234,0.31 -0.32,0.53c-1.794,4.414 -2.607,7.627 -2.44,9.64c0.186,2.274 0.02,3.774 -0.5,4.5c-0.667,0.927 -0.814,1.997 -0.44,3.21c0.08,0.24 -0.13,0.48 -0.38,0.43c-2.9,-0.58 -5.607,-0.676 -8.12,-0.29c-0.22,0.04 -0.4,-0.17 -0.34,-0.38c0.366,-1.34 -0.044,-2.14 -1.23,-2.4c-0.29,-0.07 -0.5,-0.3 -0.52,-0.57c-0.18,-2.746 -0.337,-5.496 -0.47,-8.25c-0.107,-2.2 -0.57,-3.883 -1.39,-5.05c-0.2,-0.293 -0.27,-0.256 -0.21,0.11c0.393,2.234 0.576,4.244 0.55,6.03c-0.02,1.434 -0.357,1.514 -1.01,0.24c-0.92,-1.813 -2.327,-3.056 -4.22,-3.73c-0.267,-0.1 -0.424,-0.066 -0.47,0.1c-0.04,0.13 0.04,0.34 0.21,0.54c0.7,0.827 0.8,1.59 0.3,2.29c-0.214,0.294 -0.804,0.637 -1.77,1.03c-0.507,0.2 -0.977,0.467 -1.41,0.8c-0.26,0.2 -0.44,0.49 -0.5,0.82c-0.3,1.62 0.423,1.727 2.17,0.32c-0.074,0.774 -0.654,1.324 -1.74,1.65c-0.5,0.15 -0.91,0.49 -1.15,0.96c-2.34,4.62 -2.137,8.18 0.61,10.68c1.286,1.174 1.113,2.054 -0.52,2.64c-2.76,1 -5.57,1.824 -8.43,2.47c-1.614,0.367 -1.714,-0.11 -0.3,-1.43c1.02,-0.96 1.6,-2.116 1.74,-3.47c0.02,-0.386 0.2,-0.65 0.54,-0.79l2.33,1.29c0.29,0.17 0.62,0.21 0.9,0.12c1.24,-0.393 1.076,-0.84 -0.49,-1.34c-2.26,-0.713 -2.767,-2.053 -1.52,-4.02c0.846,-1.326 1.713,-2.646 2.6,-3.96c0.746,-1.106 0.53,-1.346 -0.65,-0.72c-0.574,0.3 -1.127,0.71 -1.66,1.23c-0.474,0.454 -1.01,0.864 -1.61,1.23c-2.147,1.294 -3.284,3.374 -3.41,6.24c-0.03,0.49 0.4,0.88 0.89,0.81c0.56,-0.08 0.913,-0.02 1.06,0.18c0.15,0.2 -0.05,0.53 -0.4,0.67c-2.24,0.867 -3.657,0.317 -4.25,-1.65c-0.54,-1.793 -0.927,-2.916 -1.16,-3.37c-0.714,-1.366 -1.34,-2.77 -1.88,-4.21c2,0.72 4.006,0.857 6.02,0.41c0.233,-0.053 0.23,-0.113 -0.01,-0.18l-3.55,-0.94c4.573,-0.953 6.643,-4.116 6.21,-9.49c-0.07,-0.93 0.67,-1.72 1.6,-1.7c3.52,0.06 6.07,-1.333 7.65,-4.18c1.14,-2.053 1.853,-4.246 2.14,-6.58c0.07,-0.55 0.63,-0.91 1.15,-0.73c4.273,1.414 6.716,4.474 7.33,9.18Zm-16.38,5.64c0.666,-0.346 0.7,-0.74 0.1,-1.18c-0.7,-0.52 -1.037,-0.303 -1.01,0.65c0.01,0.46 0.5,0.74 0.91,0.53Z" style="fill:#fefffe;fill-rule:nonzero;"/><path d="M38.709,30.093c-0.007,0.874 0.313,1.527 0.96,1.96c-0.427,0.014 -0.72,0.197 -0.88,0.55c-0.07,0.17 -0.3,0.22 -0.42,0.08c-0.48,-0.566 -1.117,-0.846 -1.91,-0.84l-0.5,-1c0.433,-0.393 0.923,-0.62 1.47,-0.68c0.22,-0.02 0.47,0.1 0.68,0.34c0.326,0.38 0.526,0.244 0.6,-0.41Z" style="fill:#a5c89c;fill-rule:nonzero;"/><path d="M19.579,36.483c-0.41,0.21 -0.9,-0.07 -0.91,-0.53c-0.027,-0.953 0.31,-1.17 1.01,-0.65c0.6,0.44 0.566,0.834 -0.1,1.18Z" style="fill:#a5c89c;fill-rule:nonzero;"/><path d="M81.919,35.153l-0,51.69l-1.06,0c0.52,-1 0.776,-2.083 0.77,-3.25c-0.1,-16.146 -0.004,-32.293 0.29,-48.44Z" style="fill:#d8ccab;fill-rule:nonzero;"/><path d="M25.919,39.843l2.98,-2.57c0.22,-0.2 0.53,-0.22 0.73,-0.06c1.733,1.394 2.663,2.687 2.79,3.88c0.153,1.447 -0.287,1.634 -1.32,0.56c-1.427,-1.473 -3.154,-2.076 -5.18,-1.81Z" style="fill:#fefffe;fill-rule:nonzero;"/><path d="M48.989,41.853c-0.16,0.314 -0.31,0.624 -0.45,0.93c-0.314,0.707 -0.56,0.75 -0.74,0.13c-0.054,-0.16 -0.057,-0.336 -0.01,-0.53c0.466,-2.093 1.513,-3.86 3.14,-5.3c0.27,-0.24 0.68,-0.21 0.91,0.06c1.133,1.287 2.443,2.34 3.93,3.16c0.493,0.274 0.52,0.447 0.08,0.52c-0.107,0.014 -0.224,-0.003 -0.35,-0.05c-2.04,-0.786 -3.984,-0.663 -5.83,0.37c-0.294,0.16 -0.52,0.397 -0.68,0.71Z" style="fill:#fefffe;fill-rule:nonzero;"/><path d="M29.792,48.764c-1.946,2.2 -4.817,2.842 -6.409,1.434c-1.591,-1.408 -1.304,-4.337 0.642,-6.536c1.946,-2.199 4.817,-2.841 6.409,-1.433c1.591,1.408 1.304,4.336 -0.642,6.535Z" style="fill:#fefffe;"/><path d="M56.157,43.289c2.348,1.915 3.153,4.82 1.796,6.484c-1.357,1.664 -4.365,1.46 -6.713,-0.455c-2.348,-1.915 -3.153,-4.821 -1.796,-6.484c1.357,-1.664 4.365,-1.46 6.713,0.455Z" style="fill:#fefffe;"/><path d="M70.669,43.883l2,0.92c-1.947,0.914 -3.934,1.08 -5.96,0.5c-0.367,-0.1 -0.417,-0.273 -0.15,-0.52c0.6,-0.573 1.396,-0.663 2.39,-0.27c0.953,0.38 1.526,0.17 1.72,-0.63Z" style="fill:#a5c89c;fill-rule:nonzero;"/><path d="M9.879,44.343l3.55,0.94c0.24,0.067 0.243,0.127 0.01,0.18c-2.014,0.447 -4.02,0.31 -6.02,-0.41c0.626,-0.693 1.446,-0.93 2.46,-0.71Z" style="fill:#608149;fill-rule:nonzero;"/><path d="M34.69,46.571c-0.096,0.34 -0.394,0.555 -0.665,0.478c-0.271,-0.076 -0.413,-0.414 -0.317,-0.754c0.095,-0.34 0.393,-0.554 0.664,-0.478c0.271,0.076 0.413,0.414 0.318,0.754Z" style="fill:#a5c89c;"/><path d="M46.669,47.553l-0.46,0.04c-0.18,-2.366 -0.027,-2.38 0.46,-0.04Z" style="fill:#a5c89c;fill-rule:nonzero;"/><path d="M63.669,46.633l0.21,-0.04c0.906,0.467 1.336,1.287 1.29,2.46l-0.5,0.08l-1,-2.5Z" style="fill:#a5c89c;fill-rule:nonzero;"/><path d="M16.669,52.553c-0.34,0.14 -0.52,0.404 -0.54,0.79c-1.454,-0.5 -1.854,-1.436 -1.2,-2.81c0.146,-0.306 0.23,-0.62 0.25,-0.94c0.066,-1.1 0.393,-1.736 0.98,-1.91c0.646,-0.193 0.856,0.03 0.63,0.67c-0.84,2.394 -0.88,3.794 -0.12,4.2Z" style="fill:#a5c89c;fill-rule:nonzero;"/><path d="M46.209,47.593l0.46,-0.04c1.14,0.274 2.063,0.86 2.77,1.76c0.686,0.867 0.453,1.07 -0.7,0.61c-0.9,-0.353 -1.774,-0.77 -2.62,-1.25c-0.527,-0.3 -0.497,-0.66 0.09,-1.08Z" style="fill:#fefffe;fill-rule:nonzero;"/><path d="M31.409,48.683c0.566,-1.02 1.35,-1.226 2.35,-0.62c0.38,0.227 0.39,0.43 0.03,0.61l-1.7,0.86c-1.067,0.54 -1.294,0.257 -0.68,-0.85Z" style="fill:#fefffe;fill-rule:nonzero;"/><path d="M64.669,49.133l0.5,-0.08c1.173,0.86 1.403,1.854 0.69,2.98c-0.407,0.634 -0.65,0.564 -0.73,-0.21c-0.087,-0.9 -0.24,-1.796 -0.46,-2.69Z" style="fill:#fefffe;fill-rule:nonzero;"/><path d="M61.169,72.383l-0.5,-0.08c0.993,-1.833 2.14,-3.573 3.44,-5.22c0.18,-0.22 0.3,-0.443 0.36,-0.67c0.286,-1.026 0.06,-1.243 -0.68,-0.65c-0.187,0.154 -0.364,0.42 -0.53,0.8c-0.48,1.067 -1.217,0.447 -2.21,-1.86c-0.23,-0.54 0.12,-1.14 0.65,-1.09l4.74,0.48c1.146,0.12 1.416,-0.263 0.81,-1.15c-1.007,-1.48 -2.514,-2.136 -4.52,-1.97c-0.354,0.034 -0.677,-0.013 -0.97,-0.14c-6.014,-2.5 -11.737,-5.253 -17.17,-8.26c-0.36,-0.19 -0.8,-0.11 -1.07,0.19c-2.067,2.38 -3.904,2.77 -5.51,1.17c-0.327,-0.326 -0.257,-0.5 0.21,-0.52c2.7,-0.113 3.69,-0.48 2.97,-1.1c-0.394,-0.34 -0.954,-0.503 -1.68,-0.49c-2.64,0.054 -5.464,1.064 -8.47,3.03c-0.807,0.52 -1.667,0.924 -2.58,1.21c-1.007,0.314 -2.02,0.854 -3.04,1.62c-1.02,0.76 -2.007,1.28 -2.96,1.56c-3.287,0.974 -6.38,2.127 -9.28,3.46c-1.234,0.567 -1.18,0.967 0.16,1.2c1.453,0.254 2.9,0.264 4.34,0.03c0.32,-0.05 0.62,0.09 0.73,0.35c0.28,0.654 0.203,1.277 -0.23,1.87c-0.2,0.28 -0.51,0.45 -0.82,0.44c-0.434,-0.013 -0.684,-0.243 -0.75,-0.69c-0.05,-0.34 -0.24,-0.6 -0.48,-0.67c-0.787,-0.213 -0.904,0.19 -0.35,1.21c1.42,2.627 3.3,4.857 5.64,6.69c0.12,0.52 -0.047,0.77 -0.5,0.75c-4.134,-3.093 -8.03,-6.46 -11.69,-10.1c-1.24,-1.24 -0.824,-2.2 1.25,-2.88c1.54,-0.5 3.106,-0.926 4.7,-1.28c2.94,-0.646 5.686,-1.723 8.24,-3.23c0.033,-0.02 1.33,-0.933 3.89,-2.74c7.073,-4.993 14.473,-5.696 22.2,-2.11c0.286,0.14 2.333,1.454 6.14,3.94c3.2,2.087 6.873,3.54 11.02,4.36c1.613,0.32 3.143,1.184 4.59,2.59c0.2,0.19 0.21,0.51 0.02,0.72c-3.047,3.427 -6.417,6.504 -10.11,9.23Z" style="fill:#fefffe;fill-rule:nonzero;"/><path d="M64.169,54.053c-0.687,0.12 -1.354,0.037 -2,-0.25c0.78,-0.98 1.446,-0.896 2,0.25Z" style="fill:#a5c89c;fill-rule:nonzero;"/><path d="M36.229,60.153c-0.26,1.18 -0.614,1.35 -1.06,0.51c-0.12,-0.213 -0.184,-0.476 -0.19,-0.79c-0.047,-1.46 -0.404,-2.826 -1.07,-4.1c-0.14,-0.26 -0.05,-0.57 0.19,-0.7c0.54,-0.273 1.126,-0.363 1.76,-0.27c0.3,0.04 0.55,0.28 0.61,0.59c0.253,1.3 0.173,2.887 -0.24,4.76Z" style="fill:#fefffe;fill-rule:nonzero;"/><path d="M46.109,55.833c0.23,0.19 0.29,0.51 0.15,0.78c-0.754,1.374 -1.394,2.774 -1.92,4.2c-0.414,1.127 -0.72,1.054 -0.92,-0.22c-0.134,-0.866 0.023,-2.513 0.47,-4.94c0.06,-0.33 0.31,-0.56 0.59,-0.55c0.506,0.02 1.05,0.264 1.63,0.73Z" style="fill:#fefffe;fill-rule:nonzero;"/><path d="M47.839,56.183c-0.54,-0.46 -0.58,-0.73 -0.12,-0.81c0.26,-0.05 0.53,0.09 0.68,0.35c0.733,1.247 0.546,1.4 -0.56,0.46Z" style="fill:#a5c89c;fill-rule:nonzero;"/><path d="M30.809,57.243c0.28,-0.03 0.53,0.18 0.55,0.47c0.266,3.887 -0.4,4.47 -2,1.75c-0.787,-1.326 -0.304,-2.066 1.45,-2.22Z" style="fill:#fefffe;fill-rule:nonzero;"/><path d="M51.589,57.983c0.653,0.247 0.68,0.604 0.08,1.07l-2.43,1.91c-0.17,0.13 -0.42,0.08 -0.47,-0.1c-0.914,-2.98 0.026,-3.94 2.82,-2.88Z" style="fill:#fefffe;fill-rule:nonzero;"/><path d="M26.091,61.717c0.146,1.083 -0.121,2.014 -0.597,2.078c-0.476,0.065 -0.981,-0.762 -1.128,-1.845c-0.146,-1.083 0.121,-2.014 0.597,-2.079c0.476,-0.064 0.981,0.763 1.128,1.846Z" style="fill:#e4e1b7;"/><path d="M55.949,60.743c0.21,0.21 0.27,0.55 0.13,0.82c-1.78,3.647 -2.437,3.324 -1.97,-0.97c0.04,-0.33 0.28,-0.57 0.55,-0.55c0.42,0.034 0.85,0.267 1.29,0.7Z" style="fill:#e4e1b7;fill-rule:nonzero;"/><path d="M22.809,61.143c-0.54,0.747 -1.687,1.067 -3.44,0.96c-0.54,-0.033 -0.567,-0.156 -0.08,-0.37l2.96,-1.33c1.08,-0.486 1.266,-0.24 0.56,0.74Z" style="fill:#d8ccab;fill-rule:nonzero;"/><path d="M59.739,61.513c0.593,0.067 1,0.33 1.22,0.79c0.11,0.23 -0.08,0.49 -0.35,0.48c-1.227,-0.053 -2.194,-0.633 -2.9,-1.74c-0.274,-0.426 -0.134,-0.593 0.42,-0.5c0.18,0.03 0.45,0.23 0.71,0.54c0.206,0.247 0.506,0.39 0.9,0.43Z" style="fill:#e4e1b7;fill-rule:nonzero;"/><path d="M60.669,72.303l0.5,0.08l-2,2c-0.707,-0.093 -0.894,-0.366 -0.56,-0.82c0.213,-0.293 0.34,-0.51 0.38,-0.65c0.173,-0.626 -0.037,-0.94 -0.63,-0.94c-0.26,0 -0.57,0.15 -0.86,0.41c-1.207,1.1 -1.82,0.79 -1.84,-0.93c-0,-0.25 -0.09,-0.48 -0.25,-0.62l-0.28,-0.24c0.726,-0.566 1.45,-0.59 2.17,-0.07c0.19,0.14 0.48,0.13 0.72,-0.03l2.19,-1.46c0.34,-0.226 0.403,-0.146 0.19,0.24c-0.607,1.1 -0.517,2.11 0.27,3.03Z" style="fill:#a5c89c;fill-rule:nonzero;"/><path d="M21.5,69.501c0.508,0.597 0.592,1.36 0.189,1.704c-0.404,0.343 -1.144,0.137 -1.652,-0.459c-0.507,-0.597 -0.592,-1.361 -0.189,-1.704c0.404,-0.343 1.144,-0.138 1.652,0.459Z" style="fill:#e4e1b7;"/><path d="M29.669,79.053c-0.654,-0.093 -0.917,-0.496 -0.79,-1.21c0.06,-0.86 -0.197,-1.423 -0.77,-1.69c-1.067,-0.486 -1.524,-1.2 -1.37,-2.14c0.06,-0.38 0.02,-0.71 -0.11,-0.93c-0.587,-1.006 -1.294,-1.123 -2.12,-0.35c-0.22,0.21 -0.54,0.26 -0.77,0.11c-1.094,-0.713 -1.137,-1.436 -0.13,-2.17c0.38,-0.27 0.9,-0.25 1.25,0.07c1.193,1.06 2.24,1.534 3.14,1.42c0.25,-0.04 0.47,0.13 0.48,0.36l0.14,2.82c0.01,0.26 0.16,0.57 0.41,0.86c0.653,0.767 0.866,1.717 0.64,2.85Z" style="fill:#e4e1b7;fill-rule:nonzero;"/><path d="M55.129,70.593l0.28,0.24c0.16,0.14 0.25,0.37 0.25,0.62c0.02,1.72 0.633,2.03 1.84,0.93c0.29,-0.26 0.6,-0.41 0.86,-0.41c0.593,0 0.803,0.314 0.63,0.94c-0.04,0.14 -0.167,0.357 -0.38,0.65c-0.334,0.454 -0.147,0.727 0.56,0.82l-4.07,3.2c-0.17,0.13 -0.47,0.07 -0.73,-0.15l-1.2,-1.05c0.7,-1.58 0.38,-2.926 -0.96,-4.04c1.146,-0.3 2.12,-0.883 2.92,-1.75Z" style="fill:#608149;fill-rule:nonzero;"/><path d="M41.969,72.493c-0.35,0.71 -0.46,1.51 -0.31,2.28c0.393,2.04 -0.334,2.91 -2.18,2.61c-0.31,-0.05 -0.58,-0.27 -0.7,-0.57c-0.7,-1.74 -0.927,-3.563 -0.68,-5.47c0.03,-0.28 0.29,-0.47 0.57,-0.44c1.406,0.167 2.813,0.334 4.22,0.5c1.38,0.167 2.343,0.47 2.89,0.91c1.046,0.82 1.22,1.984 0.52,3.49c-0.22,0.49 -0.89,0.56 -1.21,0.13c-0.514,-0.706 -1.02,-1.366 -1.52,-1.98c-0.207,-0.266 -0.357,-0.583 -0.45,-0.95c-0.314,-1.246 -0.697,-1.416 -1.15,-0.51Z" style="fill:#fefffe;fill-rule:nonzero;"/><path d="M34.119,72.533c0.306,-0.766 0.993,-1.193 2.06,-1.28c0.28,-0.02 0.51,0.2 0.5,0.47c-0.06,1.894 -0.707,3.454 -1.94,4.68c-0.26,0.25 -0.7,0.14 -0.79,-0.21c-0.354,-1.273 -0.297,-2.493 0.17,-3.66Z" style="fill:#fefffe;fill-rule:nonzero;"/><path d="M30.879,74.843l-0.67,0c-0.714,-1.713 -0.33,-2.61 1.15,-2.69c0.31,-0.02 0.6,0.17 0.69,0.46c0.326,0.967 -0.064,1.71 -1.17,2.23Z" style="fill:#e4e1b7;fill-rule:nonzero;"/><path d="M49.049,76.573c0.16,0.794 -0.02,1.51 -0.54,2.15c-0.17,0.21 -0.49,0.2 -0.65,-0.02c-0.974,-1.32 -0.974,-2.643 -0,-3.97c0.17,-0.23 0.22,-0.55 0.13,-0.85c-0.12,-0.446 -0.12,-0.886 -0,-1.32c0.08,-0.28 0.37,-0.45 0.67,-0.39c2.46,0.467 2.67,1.66 0.63,3.58c-0.21,0.2 -0.3,0.51 -0.24,0.82Z" style="fill:#a5c89c;fill-rule:nonzero;"/><path d="M52.209,72.343c1.34,1.114 1.66,2.46 0.96,4.04c-1.787,-0.786 -2.107,-2.133 -0.96,-4.04Z" style="fill:#e4e1b7;fill-rule:nonzero;"/><path d="M21.419,73.133c1.06,1.347 1.996,2.064 2.81,2.15c1.153,0.12 1.74,0.854 1.76,2.2c-0,0.454 -0.174,0.534 -0.52,0.24l-4.55,-3.84c0.453,0.02 0.62,-0.23 0.5,-0.75Z" style="fill:#a5c89c;fill-rule:nonzero;"/><path d="M30.209,74.843l0.67,0c0.086,0.514 0.35,0.784 0.79,0.81c0.41,0.02 0.73,0.12 0.87,0.28c0.3,0.327 0.493,0.714 0.58,1.16c0.06,0.31 0.25,0.56 0.52,0.69c0.813,0.407 0.803,0.85 -0.03,1.33c-0.21,0.13 -0.51,0.03 -0.65,-0.22c-0.287,-0.513 -0.71,-0.906 -1.27,-1.18c-0.34,-0.16 -0.59,-0.39 -0.67,-0.62l-0.81,-2.25Z" style="fill:#e4e1b7;fill-rule:nonzero;"/><path d="M36.429,78.953c-1.107,-0.626 -1.054,-1.82 0.16,-3.58c0.446,-0.646 0.71,-0.596 0.79,0.15l0.31,2.72c0.113,1 -0.307,1.237 -1.26,0.71Z" style="fill:#fefffe;fill-rule:nonzero;"/><path d="M44.477,77.134c0.333,1.236 0.206,2.347 -0.284,2.479c-0.49,0.133 -1.159,-0.764 -1.493,-2c-0.333,-1.236 -0.206,-2.347 0.284,-2.48c0.49,-0.132 1.159,0.764 1.493,2.001Z" style="fill:#fefffe;"/><path d="M48.959,81.343c0.093,-0.626 -0.157,-0.876 -0.75,-0.75c1.146,-0.373 1.823,-1.15 2.03,-2.33c0.246,-1.373 1.09,-1.36 2.53,0.04c0.49,0.48 0.33,1.31 -0.3,1.57l-3.51,1.47Z" style="fill:#a5c89c;fill-rule:nonzero;"/><path d="M45.809,79.733c0.113,-2.186 0.446,-2.553 1,-1.1c0.38,1.007 0.243,1.554 -0.41,1.64c-0.32,0.05 -0.61,-0.21 -0.59,-0.54Z" style="fill:#a5c89c;fill-rule:nonzero;"/><path d="M28.879,77.843c-0.127,0.714 0.136,1.117 0.79,1.21c0.48,0.534 1.48,0.964 3,1.29c5.786,1.24 10.966,1.324 15.54,0.25c0.593,-0.126 0.843,0.124 0.75,0.75c-0.8,0.727 -1.73,1.224 -2.79,1.49c-6.4,1.587 -12.13,0.654 -17.19,-2.8c-0.794,-0.54 -0.827,-1.27 -0.1,-2.19Z" style="fill:#e4e1b7;fill-rule:nonzero;"/><path d="M40.719,78.393c0.98,-0.22 1.46,0.16 1.44,1.14c-0.01,0.3 -0.24,0.55 -0.54,0.6c-1.074,0.174 -2.014,-0.063 -2.82,-0.71c-0.25,-0.19 -0.32,-0.53 -0.17,-0.78c0.293,-0.466 0.683,-0.59 1.17,-0.37c0.32,0.14 0.64,0.18 0.92,0.12Z" style="fill:#e4e1b7;fill-rule:nonzero;"/></svg>