<?xml version="1.0" encoding="UTF-8" standalone="no"?>
<!DOCTYPE svg PUBLIC "-//W3C//DTD SVG 1.1//EN" "http://www.w3.org/Graphics/SVG/1.1/DTD/svg11.dtd">
<svg xmlns="http://www.w3.org/2000/svg" version="1.1" viewBox="0 0 199 67">
<g stroke-width="2.0" fill="none" stroke-linecap="butt">
<path stroke="#d7d1c6" vector-effect="non-scaling-stroke" d="
  M 112.31 0.00
  Q 92.76 0.64 73.19 0.47
  Q 47.47 0.24 21.75 0.50
  Q 21.42 0.50 21.30 0.66
  Q 21.14 0.86 21.25 1.21"
/>
<path stroke="#675c55" vector-effect="non-scaling-stroke" d="
  M 21.25 1.21
  L 2.95 1.99
  Q 1.09 2.06 1.00 3.99
  Q 0.51 14.49 0.50 25.00
  Q 0.50 33.44 0.00 37.19"
/>
<path stroke="#d7d1c6" vector-effect="non-scaling-stroke" d="
  M 116.56 0.00
  Q 132.69 0.77 148.81 0.00"
/>
<path stroke="#d7d1c6" vector-effect="non-scaling-stroke" d="
  M 149.31 0.00
  Q 157.27 0.65 159.25 0.50
  Q 163.68 0.16 165.97 0.48
  Q 166.69 0.59 166.26 0.99
  Q 166.09 1.15 165.75 1.21"
/>
<path stroke="#ae8f8f" vector-effect="non-scaling-stroke" d="
  M 165.75 1.21
  Q 162.82 1.89 159.25 1.50
  Q 156.26 1.17 152.90 1.41
  Q 148.89 1.70 146.59 1.65
  Q 141.26 1.53 129.75 1.50
  Q 80.00 1.39 30.25 1.29"
/>
<path stroke="#868480" vector-effect="non-scaling-stroke" d="
  M 30.25 1.29
  L 21.25 1.21"
/>
<path stroke="#675c55" vector-effect="non-scaling-stroke" d="
  M 0.00 50.44
  Q 0.43 57.46 0.50 64.50
  Q 0.51 65.08 1.29 66.00"
/>
<path stroke="#8e6764" vector-effect="non-scaling-stroke" d="
  M 1.29 66.00
  Q 1.62 66.49 2.00 66.50
  Q 18.80 66.76 35.58 66.03
  Q 41.27 65.78 46.91 66.12
  Q 55.50 66.63 58.25 66.50
  Q 64.74 66.19 67.25 66.46"
/>
<path stroke="#9c7e76" vector-effect="non-scaling-stroke" d="
  M 67.25 66.46
  Q 71.02 66.98 74.75 66.21"
/>
<path stroke="#8e6764" vector-effect="non-scaling-stroke" d="
  M 74.75 66.21
  Q 77.35 65.96 79.94 66.17
  Q 82.92 66.42 85.06 66.18
  Q 89.63 65.68 92.56 65.81
  Q 113.15 66.78 133.74 65.91
  Q 136.74 65.78 140.77 65.92
  Q 144.29 66.04 147.81 65.95
  Q 150.94 65.87 154.54 66.23
  Q 157.91 66.58 161.31 66.61
  Q 175.91 66.73 190.50 66.39
  Q 194.09 66.30 195.69 63.69
  Q 196.59 62.22 197.25 59.95
  Q 197.74 58.30 197.88 55.99
  Q 198.70 42.88 198.27 29.75
  Q 197.85 16.88 198.01 3.21
  C 198.02 2.75 197.74 2.33 197.31 2.16
  Q 196.57 1.85 195.62 1.53
  Q 194.78 1.25 193.84 1.23
  Q 179.80 0.93 165.75 1.21"
/>
<path stroke="#733c3f" vector-effect="non-scaling-stroke" d="
  M 74.75 66.21
  Q 73.07 64.57 75.25 64.21"
/>
<path stroke="#b29296" vector-effect="non-scaling-stroke" d="
  M 75.25 64.21
  Q 83.12 64.81 91.00 64.49
  Q 97.87 64.21 104.75 64.43
  Q 122.89 64.99 141.00 64.00
  Q 142.36 63.93 143.07 64.23
  Q 143.84 64.56 144.00 64.58
  Q 145.77 64.85 147.53 64.61
  Q 149.85 64.29 151.00 64.35
  Q 156.73 64.63 162.47 64.49
  Q 162.60 64.48 165.65 64.57
  Q 167.97 64.63 170.25 63.96"
/>
<path stroke="#8e6764" vector-effect="non-scaling-stroke" d="
  M 170.25 63.96
  Q 172.18 63.87 173.31 64.19
  Q 178.12 65.54 177.00 60.54"
/>
<path stroke="#b29296" vector-effect="non-scaling-stroke" d="
  M 177.00 60.54
  L 178.75 59.71"
/>
<path stroke="#874952" vector-effect="non-scaling-stroke" d="
  M 178.75 59.71
  L 179.21 60.25"
/>
<path stroke="#8e6764" vector-effect="non-scaling-stroke" d="
  M 179.21 60.25
  L 179.29 61.50"
/>
<path stroke="#874952" vector-effect="non-scaling-stroke" d="
  M 179.29 61.50
  Q 179.11 62.52 180.00 62.25
  Q 181.07 61.93 186.24 61.60
  Q 187.68 61.50 185.76 61.61
  Q 184.70 61.66 183.75 61.29"
/>
<path stroke="#8e6764" vector-effect="non-scaling-stroke" d="
  M 183.75 61.29
  L 184.25 61.21"
/>
<path stroke="#ae8f8f" vector-effect="non-scaling-stroke" d="
  M 184.25 61.21
  Q 187.23 61.21 189.55 59.46
  Q 189.65 59.38 191.23 58.43
  Q 192.63 57.59 192.00 55.71"
/>
<path stroke="#874952" vector-effect="non-scaling-stroke" d="
  M 192.00 55.71
  Q 191.80 54.74 192.00 53.79"
/>
<path stroke="#b29296" vector-effect="non-scaling-stroke" d="
  M 192.00 53.79
  Q 194.63 51.10 195.00 48.50
  Q 195.97 41.71 195.85 31.97
  Q 195.80 27.70 194.54 23.69
  Q 192.00 15.56 188.54 7.75"
/>
<path stroke="#874952" vector-effect="non-scaling-stroke" d="
  M 188.54 7.75
  Q 189.51 7.24 190.06 8.19
  Q 191.18 10.11 192.00 12.25
  L 193.90 17.21
  C 194.02 17.54 194.27 17.78 194.54 17.84
  Q 195.75 18.10 195.36 16.47
  Q 195.09 15.32 195.18 14.13
  Q 195.51 9.99 193.77 7.06
  Q 192.67 5.20 190.71 4.59
  Q 188.71 3.97 186.54 4.50"
/>
<path stroke="#b29296" vector-effect="non-scaling-stroke" d="
  M 186.54 4.50
  L 186.17 4.03
  C 186.00 3.82 185.69 3.66 185.32 3.60
  Q 180.95 2.90 176.55 3.49
  C 176.23 3.54 175.93 3.67 175.68 3.88
  Q 168.73 9.84 168.96 19.25"
/>
<path stroke="#733c3f" vector-effect="non-scaling-stroke" d="
  M 168.96 19.25
  Q 168.73 22.80 168.25 23.75
  Q 167.59 25.06 169.00 25.21"
/>
<path stroke="#b29296" vector-effect="non-scaling-stroke" d="
  M 169.00 25.21
  Q 170.67 27.00 168.24 27.41
  Q 163.68 28.19 159.08 28.30
  Q 150.44 28.51 149.92 28.55
  Q 140.77 29.19 131.65 30.15
  Q 131.56 30.16 129.85 30.14
  Q 128.37 30.13 127.47 31.28
  C 127.25 31.56 126.97 31.74 126.70 31.77
  L 120.27 32.42
  C 119.96 32.45 119.66 32.32 119.50 32.09
  L 119.23 31.70
  C 119.07 31.46 118.78 31.36 118.55 31.46
  Q 115.92 32.61 112.99 32.33
  Q 98.01 30.91 81.38 29.62
  Q 80.70 29.57 80.09 29.29
  Q 76.79 27.79 77.66 29.28
  C 77.79 29.50 77.70 29.78 77.47 29.85
  Q 75.99 30.31 74.50 29.85
  C 74.19 29.75 73.95 29.53 73.86 29.27
  Q 73.65 28.65 74.57 28.91
  Q 75.16 29.08 75.35 28.80
  Q 75.69 28.31 74.93 28.31
  Q 57.63 28.24 40.33 28.25
  Q 35.81 28.25 33.78 29.03
  Q 30.73 30.19 28.19 32.94
  Q 23.38 38.13 21.25 43.50"
/>
<path stroke="#874952" vector-effect="non-scaling-stroke" d="
  M 21.25 43.50
  Q 20.09 44.97 21.21 45.50"
/>
<path stroke="#ae8f8f" vector-effect="non-scaling-stroke" d="
  M 21.21 45.50
  Q 23.18 48.03 27.04 49.15
  Q 29.78 49.95 27.33 48.50
  L 21.75 45.21"
/>
<path stroke="#874952" vector-effect="non-scaling-stroke" d="
  M 21.75 45.21
  L 21.25 43.50"
/>
<path stroke="#b29296" vector-effect="non-scaling-stroke" d="
  M 21.25 43.50
  Q 22.15 43.41 22.69 43.81
  Q 29.09 48.60 36.05 52.51
  Q 37.15 53.13 40.48 55.61
  Q 42.61 57.19 45.31 58.19
  Q 57.80 62.78 70.50 63.79"
/>
<path stroke="#733c3f" vector-effect="non-scaling-stroke" d="
  M 70.50 63.79
  Q 70.11 65.61 68.77 65.24
  C 68.47 65.16 68.17 65.25 68.01 65.46
  L 67.25 66.46"
/>
<path stroke="#3e1a1e" vector-effect="non-scaling-stroke" d="
  M 1.29 66.00
  Q 2.42 66.49 2.57 65.90
  Q 2.64 65.59 2.29 65.07
  Q 0.98 63.13 2.29 61.00"
/>
<path stroke="#b29296" vector-effect="non-scaling-stroke" d="
  M 2.29 61.00
  Q 3.14 60.99 3.94 60.69
  Q 5.61 60.07 5.27 61.88
  C 5.21 62.20 5.46 62.50 5.79 62.50
  Q 8.71 62.49 11.43 62.60
  Q 12.51 62.64 17.06 62.53
  Q 20.85 62.44 24.56 63.44
  Q 26.87 64.06 35.01 63.19
  Q 35.92 63.10 38.47 63.29
  Q 39.91 63.40 42.00 63.25
  Q 43.88 63.11 46.32 64.50
  C 46.62 64.67 46.94 64.75 47.25 64.74
  Q 49.76 64.61 52.00 63.46"
/>
<path stroke="#ae8f8f" vector-effect="non-scaling-stroke" d="
  M 52.00 63.46
  L 60.50 64.21"
/>
<path stroke="#874952" vector-effect="non-scaling-stroke" d="
  M 60.50 64.21
  Q 62.20 64.80 64.62 64.73
  Q 65.46 64.71 64.65 64.55
  L 60.75 63.79"
/>
<path stroke="#ae8f8f" vector-effect="non-scaling-stroke" d="
  M 60.75 63.79
  Q 56.56 61.93 52.00 62.29"
/>
<path stroke="#b29296" vector-effect="non-scaling-stroke" d="
  M 52.00 62.29
  Q 46.82 59.79 41.66 57.24
  Q 31.55 52.24 20.56 49.69
  Q 18.78 49.27 14.00 45.54"
/>
<path stroke="#3e1a1e" vector-effect="non-scaling-stroke" d="
  M 14.00 45.54
  Q 14.23 45.48 14.29 45.25"
/>
<path stroke="#b29296" vector-effect="non-scaling-stroke" d="
  M 14.29 45.25
  Q 18.06 48.22 19.53 45.00
  Q 20.97 41.86 21.00 41.80
  Q 25.28 34.98 30.00 28.46"
/>
<path stroke="#8e6764" vector-effect="non-scaling-stroke" d="
  M 30.00 28.46
  Q 30.64 29.02 31.27 28.53
  Q 34.45 26.09 30.04 27.75"
/>
<path stroke="#b29296" vector-effect="non-scaling-stroke" d="
  M 30.04 27.75
  Q 31.46 18.87 30.00 10.04"
/>
<path stroke="#3e1a1e" vector-effect="non-scaling-stroke" d="
  M 30.00 10.04
  Q 30.76 9.74 30.56 8.94
  Q 29.97 6.52 28.50 5.04"
/>
<path stroke="#874952" vector-effect="non-scaling-stroke" d="
  M 28.50 5.04
  Q 29.83 4.68 29.50 3.29"
/>
<path stroke="#3e1a1e" vector-effect="non-scaling-stroke" d="
  M 29.50 3.29
  Q 30.71 2.72 30.25 1.29"
/>
<path stroke="#874952" vector-effect="non-scaling-stroke" d="
  M 126.6395 3.9788
  C 126.64 3.83 126.52 3.71 126.3685 3.7097
  L 114.7486 3.7503
  C 114.60 3.75 114.48 3.87 114.4795 4.0212
  L 114.4805 4.3012
  C 114.48 4.45 114.60 4.57 114.7515 4.5703
  L 126.3714 4.5297
  C 126.52 4.53 126.64 4.41 126.6405 4.2588
  L 126.6395 3.9788"
/>
<path stroke="#b29296" vector-effect="non-scaling-stroke" d="
  M 90.30 6.55
  Q 90.66 7.65 91.94 7.74
  Q 96.51 8.04 101.00 7.25
  Q 102.88 6.92 104.20 7.15
  Q 106.67 7.59 106.74 7.59
  Q 117.98 7.86 129.22 7.68
  Q 133.92 7.61 145.28 7.90
  Q 153.32 8.10 161.36 7.53
  Q 161.81 7.50 162.11 7.33
  Q 162.68 7.00 162.56 6.64
  C 162.48 6.41 162.16 6.24 161.76 6.21
  Q 150.39 5.32 138.99 5.72
  Q 138.53 5.74 137.53 5.94
  Q 135.75 6.31 136.25 4.78
  C 136.34 4.51 136.20 4.24 135.96 4.17
  Q 132.93 3.33 129.97 4.33
  C 129.75 4.40 129.62 4.68 129.67 4.97
  Q 129.74 5.33 129.55 5.60
  C 129.41 5.81 129.09 5.94 128.69 5.94
  Q 126.29 5.97 123.89 5.88
  Q 122.01 5.80 119.12 5.90
  Q 115.71 6.02 112.34 5.58
  Q 108.35 5.05 105.62 5.12
  Q 102.16 5.20 98.71 5.12
  Q 95.30 5.04 91.80 5.16
  Q 83.83 5.43 75.89 4.76
  Q 66.88 4.00 62.07 4.00
  Q 50.66 4.02 39.25 4.07
  Q 35.92 4.08 33.65 6.33
  Q 33.17 6.80 33.11 7.31
  Q 33.03 7.99 33.45 8.47
  Q 33.86 8.94 34.84 8.98
  Q 37.61 9.09 40.35 8.76
  Q 45.11 8.17 45.81 8.13
  Q 67.26 6.74 88.76 6.93
  C 88.99 6.94 89.25 6.83 89.47 6.63
  L 89.78 6.35
  C 89.95 6.20 90.22 6.31 90.30 6.55"
/>
<path stroke="#874952" vector-effect="non-scaling-stroke" d="
  M 169.19 6.81
  C 169.33 7.15 169.79 7.20 170.01 6.91
  Q 171.35 5.18 173.12 4.47
  C 173.47 4.33 173.69 4.06 173.62 3.85
  Q 173.51 3.56 172.77 3.80
  Q 171.52 4.21 170.26 4.55
  Q 168.42 5.04 169.19 6.81"
/>
<path stroke="#874952" vector-effect="non-scaling-stroke" d="
  M 165.43 8.38
  Q 166.15 9.60 165.92 10.54
  C 165.83 10.96 165.81 11.30 165.89 11.48
  Q 166.06 11.85 166.33 11.83
  Q 166.65 11.82 166.84 11.33
  Q 167.85 8.81 166.77 6.24
  Q 166.25 5.02 165.73 5.81
  C 165.59 6.02 165.62 6.34 165.80 6.64
  Q 166.27 7.42 165.51 7.99
  C 165.39 8.08 165.36 8.25 165.43 8.38"
/>
<path stroke="#b29296" vector-effect="non-scaling-stroke" d="
  M 77.44 16.99
  Q 57.62 18.98 37.71 19.72
  Q 37.05 19.75 36.31 19.60
  Q 31.74 18.68 36.06 21.69
  Q 37.45 22.65 42.50 22.44
  Q 61.85 21.63 81.15 23.05
  Q 82.80 23.17 86.26 23.90
  Q 88.81 24.44 91.43 24.50
  Q 93.81 24.56 92.89 23.32
  C 92.72 23.09 92.42 22.94 92.07 22.91
  Q 89.21 22.74 88.31 22.19
  Q 85.76 20.63 89.00 20.00
  Q 92.08 19.40 93.99 19.09
  Q 95.80 18.79 99.01 19.13
  Q 101.85 19.44 104.70 19.16
  Q 109.20 18.73 110.33 18.70
  Q 123.64 18.37 136.78 16.36
  Q 141.61 15.63 147.30 15.45
  Q 153.68 15.26 160.02 14.39
  Q 164.08 13.84 164.62 8.56
  C 164.66 8.16 164.31 7.84 163.92 7.92
  Q 159.66 8.77 155.75 8.79
  Q 133.81 8.87 111.88 9.19
  Q 109.03 9.24 104.72 10.13
  Q 100.40 11.03 95.98 11.06
  Q 93.17 11.08 90.53 11.27
  Q 87.80 11.46 85.07 11.35
  Q 76.98 11.00 76.92 11.00
  Q 64.08 11.00 51.25 11.00
  Q 45.21 11.00 34.05 13.22
  C 33.79 13.27 33.62 13.52 33.64 13.81
  L 33.93 17.56
  C 33.95 17.84 34.17 18.06 34.43 18.07
  Q 47.49 18.25 57.00 17.50
  Q 70.04 16.48 76.25 16.25
  Q 77.25 16.21 77.67 16.54
  Q 78.16 16.91 77.44 16.99"
/>
<path stroke="#ae8f8f" vector-effect="non-scaling-stroke" d="
  M 67.69 9.58
  Q 77.44 9.38 87.18 9.90
  Q 89.84 10.04 92.51 9.82
  Q 94.48 9.65 93.21 9.16
  Q 92.96 9.06 92.65 9.05
  Q 72.50 8.59 52.34 9.12
  Q 49.49 9.19 43.19 9.80
  Q 38.61 10.25 34.00 10.25
  C 33.69 10.25 33.43 10.46 33.38 10.74
  Q 33.03 12.57 35.25 12.00
  Q 45.47 9.35 54.50 9.56
  Q 61.10 9.72 67.69 9.58"
/>
<path stroke="#733c3f" vector-effect="non-scaling-stroke" d="
  M 159.50 22.04
  L 158.79 22.00"
/>
<path stroke="#b29296" vector-effect="non-scaling-stroke" d="
  M 158.79 22.00
  Q 158.97 20.55 159.94 19.44
  Q 162.11 16.94 158.00 16.75
  Q 155.92 16.65 153.85 16.81
  Q 152.73 16.89 150.39 17.92
  Q 148.01 18.96 144.75 18.75
  Q 139.92 18.43 123.25 19.79
  Q 117.50 20.26 111.74 20.30
  Q 106.99 20.33 101.29 20.77
  Q 96.07 21.16 90.82 21.07
  Q 90.26 21.06 90.57 21.48
  Q 91.36 22.57 92.82 22.34
  Q 93.97 22.17 94.79 23.00"
/>
<path stroke="#874952" vector-effect="non-scaling-stroke" d="
  M 94.79 23.00
  L 94.50 23.46"
/>
<path stroke="#b29296" vector-effect="non-scaling-stroke" d="
  M 94.50 23.46
  Q 93.99 24.43 96.58 24.71
  Q 97.10 24.77 97.62 24.76
  Q 125.16 24.46 151.56 24.69
  Q 155.93 24.73 158.25 24.21"
/>
<path stroke="#733c3f" vector-effect="non-scaling-stroke" d="
  M 158.25 24.21
  Q 158.63 24.30 159.00 24.21"
/>
<path stroke="#ae8f8f" vector-effect="non-scaling-stroke" d="
  M 159.00 24.21
  Q 160.30 25.08 161.31 24.31
  Q 165.14 21.44 163.83 16.55
  C 163.75 16.25 163.46 16.06 163.19 16.13
  Q 162.04 16.41 162.75 17.75
  Q 163.99 20.08 161.50 20.75
  Q 160.28 21.08 159.50 22.04"
/>
<path stroke="#bca6a1" vector-effect="non-scaling-stroke" d="
  M 159.00 24.21
  L 159.50 22.04"
/>
<path stroke="#c0a9a8" vector-effect="non-scaling-stroke" d="
  M 158.79 22.00
  L 158.25 24.21"
/>
<path stroke="#d4b6bb" vector-effect="non-scaling-stroke" d="
  M 94.50 23.46
  Q 100.32 24.52 94.79 23.00"
/>
<path stroke="#874952" vector-effect="non-scaling-stroke" d="
  M 138.50 17.21
  Q 133.95 17.88 139.25 17.46"
/>
<path stroke="#ae8f8f" vector-effect="non-scaling-stroke" d="
  M 139.25 17.46
  Q 143.89 18.03 148.52 17.55
  Q 149.02 17.50 149.43 17.29
  Q 151.57 16.20 148.00 16.47
  Q 143.25 16.82 138.50 17.21"
/>
<path stroke="#cfb2b4" vector-effect="non-scaling-stroke" d="
  M 139.25 17.46
  Q 138.99 17.13 138.50 17.21"
/>
<path stroke="#ae8f8f" vector-effect="non-scaling-stroke" d="
  M 70.5798 24.5231
  C 70.58 24.15 64.33 23.82 56.6135 23.7800
  C 48.90 23.74 42.64 24.01 42.6402 24.3769
  C 42.64 24.75 48.89 25.08 56.6065 25.1200
  C 64.32 25.16 70.58 24.89 70.5798 24.5231"
/>
<path stroke="#733c3f" vector-effect="non-scaling-stroke" d="
  M 129.2444 28.8412
  C 129.33 28.57 128.78 28.16 128.0117 27.9231
  C 127.25 27.68 126.56 27.71 126.4756 27.9788
  C 126.39 28.25 126.94 28.66 127.7083 28.8969
  C 128.47 29.14 129.16 29.11 129.2444 28.8412"
/>
<path stroke="#ae8f8f" vector-effect="non-scaling-stroke" d="
  M 93.50 28.96
  Q 99.39 29.82 105.33 29.78
  Q 105.52 29.78 108.59 29.24
  Q 110.28 28.95 111.99 29.68
  Q 113.95 30.53 116.71 29.82
  C 117.27 29.68 117.86 29.70 118.41 29.89
  Q 120.01 30.44 119.30 29.57
  C 119.13 29.37 118.87 29.24 118.57 29.19
  Q 116.79 28.92 115.01 28.59
  Q 113.18 28.25 111.45 28.25
  Q 102.72 28.25 94.00 28.04"
/>
<path stroke="#8e6764" vector-effect="non-scaling-stroke" d="
  M 94.00 28.04
  L 88.58 28.05
  C 88.38 28.05 88.20 28.13 88.12 28.25
  Q 88.00 28.42 88.14 28.56
  Q 88.26 28.69 88.52 28.70
  Q 91.01 28.85 93.50 28.96"
/>
<path stroke="#d7d1c6" vector-effect="non-scaling-stroke" d="
  M 94.00 28.04
  Q 93.38 28.29 93.50 28.96"
/>
<path stroke="#8e6764" vector-effect="non-scaling-stroke" d="
  M 122.93 29.61
  Q 122.11 28.97 122.22 29.77
  C 122.25 30.02 122.47 30.21 122.73 30.23
  Q 123.85 30.31 122.93 29.61"
/>
<path stroke="#8e6764" vector-effect="non-scaling-stroke" d="
  M 192.35 61.90
  Q 193.90 61.17 193.02 59.95
  C 192.83 59.69 192.51 59.58 192.20 59.66
  Q 191.03 59.97 190.45 61.05
  C 190.30 61.32 190.38 61.66 190.62 61.83
  Q 191.37 62.36 192.35 61.90"
/>
<path stroke="#8e6764" vector-effect="non-scaling-stroke" d="
  M 22.2869 64.4361
  C 22.29 64.29 22.18 64.17 22.0395 64.1642
  L 13.8286 63.7770
  C 13.69 63.77 13.56 63.88 13.5566 64.0244
  L 13.5331 64.5239
  C 13.53 64.67 13.64 64.79 13.7805 64.7958
  L 21.9914 65.1830
  C 22.13 65.19 22.26 65.08 22.2634 64.9356
  L 22.2869 64.4361"
/>
<path stroke="#5f3e42" vector-effect="non-scaling-stroke" d="
  M 29.50 3.29
  Q 24.52 2.57 28.50 5.04"
/>
<path stroke="#8b8787" vector-effect="non-scaling-stroke" d="
  M 30.00 10.04
  Q 28.71 6.37 25.60 4.10
  C 25.34 3.91 25.02 3.80 24.69 3.78
  Q 16.20 3.29 7.75 4.29"
/>
<path stroke="#3e1a1e" vector-effect="non-scaling-stroke" d="
  M 7.75 4.29
  Q 5.39 2.67 3.06 3.44
  Q 0.90 4.15 2.50 6.29"
/>
<path stroke="#8b8787" vector-effect="non-scaling-stroke" d="
  M 2.50 6.29
  Q 1.96 17.89 2.75 29.46"
/>
<path stroke="#4c3130" vector-effect="non-scaling-stroke" d="
  M 2.75 29.46
  Q 1.87 30.43 2.29 31.75"
/>
<path stroke="#8b8787" vector-effect="non-scaling-stroke" d="
  M 2.29 31.75
  Q 1.00 43.50 1.25 46.00
  Q 2.01 53.48 2.29 61.00"
/>
<path stroke="#b29296" vector-effect="non-scaling-stroke" d="
  M 7.75 4.29
  L 2.50 6.29"
/>
<path stroke="#d4b6bb" vector-effect="non-scaling-stroke" d="
  M 186.54 4.50
  L 188.54 7.75"
/>
<path stroke="#d4b6bb" vector-effect="non-scaling-stroke" d="
  M 192.00 53.79
  Q 185.05 56.05 178.75 59.71"
/>
<path stroke="#dbd4cd" vector-effect="non-scaling-stroke" d="
  M 177.00 60.54
  Q 175.22 61.71 173.69 63.19
  Q 172.93 63.92 170.25 63.96"
/>
<path stroke="#c0a9a8" vector-effect="non-scaling-stroke" d="
  M 75.25 64.21
  L 70.50 63.79"
/>
<path stroke="#c0a9a8" vector-effect="non-scaling-stroke" d="
  M 169.00 25.21
  L 168.96 19.25"
/>
<path stroke="#dbd4cd" vector-effect="non-scaling-stroke" d="
  M 30.04 27.75
  L 30.00 28.46"
/>
<path stroke="#8b8787" vector-effect="non-scaling-stroke" d="
  M 14.29 45.25
  Q 9.32 40.95 6.50 37.25
  Q 4.52 34.65 3.46 30.50"
/>
<path stroke="#c0a9a8" vector-effect="non-scaling-stroke" d="
  M 3.46 30.50
  Q 3.54 29.63 2.75 29.46"
/>
<path stroke="#dbd4cd" vector-effect="non-scaling-stroke" d="
  M 107.00 22.54
  Q 105.74 22.30 104.48 22.19
  Q 102.71 22.02 103.61 22.73
  C 103.84 22.91 104.15 23.01 104.47 23.01
  L 107.50 22.96"
/>
<path stroke="#c0a9a8" vector-effect="non-scaling-stroke" d="
  M 107.50 22.96
  Q 126.30 22.93 151.25 21.00
  Q 151.88 20.95 152.04 20.72
  Q 152.36 20.25 151.50 20.25
  Q 145.06 20.24 138.65 20.69
  Q 130.54 21.25 125.83 21.42
  Q 116.40 21.75 107.00 22.54"
/>
<path stroke="#9c7e76" vector-effect="non-scaling-stroke" d="
  M 107.50 22.96
  L 107.00 22.54"
/>
<path stroke="#4c3130" vector-effect="non-scaling-stroke" d="
  M 3.46 30.50
  Q 2.39 30.48 2.71 31.75"
/>
<path stroke="#c0a9a8" vector-effect="non-scaling-stroke" d="
  M 2.71 31.75
  L 2.29 31.75"
/>
<path stroke="#8b8787" vector-effect="non-scaling-stroke" d="
  M 14.00 45.54
  Q 8.54 41.64 3.79 36.92
  C 3.60 36.73 3.47 36.43 3.41 36.07
  L 2.71 31.75"
/>
<path stroke="#fbfcf8" vector-effect="non-scaling-stroke" d="
  M 52.00 62.29
  Q 52.51 62.91 52.00 63.46"
/>
<path stroke="#cfb2b4" vector-effect="non-scaling-stroke" d="
  M 21.75 45.21
  Q 21.33 45.18 21.21 45.50"
/>
<path stroke="#cfb2b4" vector-effect="non-scaling-stroke" d="
  M 192.00 55.71
  Q 186.39 56.99 181.25 59.54"
/>
<path stroke="#b08b89" vector-effect="non-scaling-stroke" d="
  M 181.25 59.54
  L 179.21 60.25"
/>
<path stroke="#d7d1c6" vector-effect="non-scaling-stroke" d="
  M 184.25 61.21
  Q 182.28 61.05 181.25 59.54"
/>
<path stroke="#b08b89" vector-effect="non-scaling-stroke" d="
  M 183.75 61.29
  L 179.29 61.50"
/>
<path stroke="#cfb2b4" vector-effect="non-scaling-stroke" d="
  M 60.75 63.79
  L 60.50 64.21"
/>
</g>
<path fill="#b7a99b" d="
  M 0.00 0.00
  Q 56.16 0.00 112.31 0.00
  Q 92.76 0.64 73.19 0.47
  Q 47.47 0.24 21.75 0.50
  Q 21.42 0.50 21.30 0.66
  Q 21.14 0.86 21.25 1.21
  L 2.95 1.99
  Q 1.09 2.06 1.00 3.99
  Q 0.51 14.49 0.50 25.00
  Q 0.50 33.44 0.00 37.19
  Q 0.00 18.59 0.00 0.00
  Z"
/>
<path fill="#f6f8f1" d="
  M 112.31 0.00
  Q 114.44 0.00 116.56 0.00
  Q 132.69 0.77 148.81 0.00
  Q 149.06 0.00 149.31 0.00
  Q 157.27 0.65 159.25 0.50
  Q 163.68 0.16 165.97 0.48
  Q 166.69 0.59 166.26 0.99
  Q 166.09 1.15 165.75 1.21
  Q 162.82 1.89 159.25 1.50
  Q 156.26 1.17 152.90 1.41
  Q 148.89 1.70 146.59 1.65
  Q 141.26 1.53 129.75 1.50
  Q 80.00 1.39 30.25 1.29
  L 21.25 1.21
  Q 21.14 0.86 21.30 0.66
  Q 21.42 0.50 21.75 0.50
  Q 47.47 0.24 73.19 0.47
  Q 92.76 0.64 112.31 0.00
  Z"
/>
<path fill="#b7a99b" d="
  M 116.56 0.00
  Q 132.69 0.00 148.81 0.00
  Q 132.69 0.77 116.56 0.00
  Z"
/>
<path fill="#b7a99b" d="
  M 149.31 0.00
  Q 174.16 0.00 199.00 0.00
  Q 199.00 33.50 199.00 67.00
  Q 99.50 67.00 0.00 67.00
  Q 0.00 58.72 0.00 50.44
  Q 0.43 57.46 0.50 64.50
  Q 0.51 65.08 1.29 66.00
  Q 1.62 66.49 2.00 66.50
  Q 18.80 66.76 35.58 66.03
  Q 41.27 65.78 46.91 66.12
  Q 55.50 66.63 58.25 66.50
  Q 64.74 66.19 67.25 66.46
  Q 71.02 66.98 74.75 66.21
  Q 77.35 65.96 79.94 66.17
  Q 82.92 66.42 85.06 66.18
  Q 89.63 65.68 92.56 65.81
  Q 113.15 66.78 133.74 65.91
  Q 136.74 65.78 140.77 65.92
  Q 144.29 66.04 147.81 65.95
  Q 150.94 65.87 154.54 66.23
  Q 157.91 66.58 161.31 66.61
  Q 175.91 66.73 190.50 66.39
  Q 194.09 66.30 195.69 63.69
  Q 196.59 62.22 197.25 59.95
  Q 197.74 58.30 197.88 55.99
  Q 198.70 42.88 198.27 29.75
  Q 197.85 16.88 198.01 3.21
  C 198.02 2.75 197.74 2.33 197.31 2.16
  Q 196.57 1.85 195.62 1.53
  Q 194.78 1.25 193.84 1.23
  Q 179.80 0.93 165.75 1.21
  Q 166.09 1.15 166.26 0.99
  Q 166.69 0.59 165.97 0.48
  Q 163.68 0.16 159.25 0.50
  Q 157.27 0.65 149.31 0.00
  Z"
/>
<path fill="#65252d" d="
  M 74.75 66.21
  Q 73.07 64.57 75.25 64.21
  Q 83.12 64.81 91.00 64.49
  Q 97.87 64.21 104.75 64.43
  Q 122.89 64.99 141.00 64.00
  Q 142.36 63.93 143.07 64.23
  Q 143.84 64.56 144.00 64.58
  Q 145.77 64.85 147.53 64.61
  Q 149.85 64.29 151.00 64.35
  Q 156.73 64.63 162.47 64.49
  Q 162.60 64.48 165.65 64.57
  Q 167.97 64.63 170.25 63.96
  Q 172.18 63.87 173.31 64.19
  Q 178.12 65.54 177.00 60.54
  L 178.75 59.71
  L 179.21 60.25
  L 179.29 61.50
  Q 179.11 62.52 180.00 62.25
  Q 181.07 61.93 186.24 61.60
  Q 187.68 61.50 185.76 61.61
  Q 184.70 61.66 183.75 61.29
  L 184.25 61.21
  Q 187.23 61.21 189.55 59.46
  Q 189.65 59.38 191.23 58.43
  Q 192.63 57.59 192.00 55.71
  Q 191.80 54.74 192.00 53.79
  Q 194.63 51.10 195.00 48.50
  Q 195.97 41.71 195.85 31.97
  Q 195.80 27.70 194.54 23.69
  Q 192.00 15.56 188.54 7.75
  Q 189.51 7.24 190.06 8.19
  Q 191.18 10.11 192.00 12.25
  L 193.90 17.21
  C 194.02 17.54 194.27 17.78 194.54 17.84
  Q 195.75 18.10 195.36 16.47
  Q 195.09 15.32 195.18 14.13
  Q 195.51 9.99 193.77 7.06
  Q 192.67 5.20 190.71 4.59
  Q 188.71 3.97 186.54 4.50
  L 186.17 4.03
  C 186.00 3.82 185.69 3.66 185.32 3.60
  Q 180.95 2.90 176.55 3.49
  C 176.23 3.54 175.93 3.67 175.68 3.88
  Q 168.73 9.84 168.96 19.25
  Q 168.73 22.80 168.25 23.75
  Q 167.59 25.06 169.00 25.21
  Q 170.67 27.00 168.24 27.41
  Q 163.68 28.19 159.08 28.30
  Q 150.44 28.51 149.92 28.55
  Q 140.77 29.19 131.65 30.15
  Q 131.56 30.16 129.85 30.14
  Q 128.37 30.13 127.47 31.28
  C 127.25 31.56 126.97 31.74 126.70 31.77
  L 120.27 32.42
  C 119.96 32.45 119.66 32.32 119.50 32.09
  L 119.23 31.70
  C 119.07 31.46 118.78 31.36 118.55 31.46
  Q 115.92 32.61 112.99 32.33
  Q 98.01 30.91 81.38 29.62
  Q 80.70 29.57 80.09 29.29
  Q 76.79 27.79 77.66 29.28
  C 77.79 29.50 77.70 29.78 77.47 29.85
  Q 75.99 30.31 74.50 29.85
  C 74.19 29.75 73.95 29.53 73.86 29.27
  Q 73.65 28.65 74.57 28.91
  Q 75.16 29.08 75.35 28.80
  Q 75.69 28.31 74.93 28.31
  Q 57.63 28.24 40.33 28.25
  Q 35.81 28.25 33.78 29.03
  Q 30.73 30.19 28.19 32.94
  Q 23.38 38.13 21.25 43.50
  Q 20.09 44.97 21.21 45.50
  Q 23.18 48.03 27.04 49.15
  Q 29.78 49.95 27.33 48.50
  L 21.75 45.21
  L 21.25 43.50
  Q 22.15 43.41 22.69 43.81
  Q 29.09 48.60 36.05 52.51
  Q 37.15 53.13 40.48 55.61
  Q 42.61 57.19 45.31 58.19
  Q 57.80 62.78 70.50 63.79
  Q 70.11 65.61 68.77 65.24
  C 68.47 65.16 68.17 65.25 68.01 65.46
  L 67.25 66.46
  Q 64.74 66.19 58.25 66.50
  Q 55.50 66.63 46.91 66.12
  Q 41.27 65.78 35.58 66.03
  Q 18.80 66.76 2.00 66.50
  Q 1.62 66.49 1.29 66.00
  Q 2.42 66.49 2.57 65.90
  Q 2.64 65.59 2.29 65.07
  Q 0.98 63.13 2.29 61.00
  Q 3.14 60.99 3.94 60.69
  Q 5.61 60.07 5.27 61.88
  C 5.21 62.20 5.46 62.50 5.79 62.50
  Q 8.71 62.49 11.43 62.60
  Q 12.51 62.64 17.06 62.53
  Q 20.85 62.44 24.56 63.44
  Q 26.87 64.06 35.01 63.19
  Q 35.92 63.10 38.47 63.29
  Q 39.91 63.40 42.00 63.25
  Q 43.88 63.11 46.32 64.50
  C 46.62 64.67 46.94 64.75 47.25 64.74
  Q 49.76 64.61 52.00 63.46
  L 60.50 64.21
  Q 62.20 64.80 64.62 64.73
  Q 65.46 64.71 64.65 64.55
  L 60.75 63.79
  Q 56.56 61.93 52.00 62.29
  Q 46.82 59.79 41.66 57.24
  Q 31.55 52.24 20.56 49.69
  Q 18.78 49.27 14.00 45.54
  Q 14.23 45.48 14.29 45.25
  Q 18.06 48.22 19.53 45.00
  Q 20.97 41.86 21.00 41.80
  Q 25.28 34.98 30.00 28.46
  Q 30.64 29.02 31.27 28.53
  Q 34.45 26.09 30.04 27.75
  Q 31.46 18.87 30.00 10.04
  Q 30.76 9.74 30.56 8.94
  Q 29.97 6.52 28.50 5.04
  Q 29.83 4.68 29.50 3.29
  Q 30.71 2.72 30.25 1.29
  Q 80.00 1.39 129.75 1.50
  Q 141.26 1.53 146.59 1.65
  Q 148.89 1.70 152.90 1.41
  Q 156.26 1.17 159.25 1.50
  Q 162.82 1.89 165.75 1.21
  Q 179.80 0.93 193.84 1.23
  Q 194.78 1.25 195.62 1.53
  Q 196.57 1.85 197.31 2.16
  C 197.74 2.33 198.02 2.75 198.01 3.21
  Q 197.85 16.88 198.27 29.75
  Q 198.70 42.88 197.88 55.99
  Q 197.74 58.30 197.25 59.95
  Q 196.59 62.22 195.69 63.69
  Q 194.09 66.30 190.50 66.39
  Q 175.91 66.73 161.31 66.61
  Q 157.91 66.58 154.54 66.23
  Q 150.94 65.87 147.81 65.95
  Q 144.29 66.04 140.77 65.92
  Q 136.74 65.78 133.74 65.91
  Q 113.15 66.78 92.56 65.81
  Q 89.63 65.68 85.06 66.18
  Q 82.92 66.42 79.94 66.17
  Q 77.35 65.96 74.75 66.21
  Z
  M 126.6395 3.9788
  C 126.64 3.83 126.52 3.71 126.3685 3.7097
  L 114.7486 3.7503
  C 114.60 3.75 114.48 3.87 114.4795 4.0212
  L 114.4805 4.3012
  C 114.48 4.45 114.60 4.57 114.7515 4.5703
  L 126.3714 4.5297
  C 126.52 4.53 126.64 4.41 126.6405 4.2588
  L 126.6395 3.9788
  Z
  M 90.30 6.55
  Q 90.66 7.65 91.94 7.74
  Q 96.51 8.04 101.00 7.25
  Q 102.88 6.92 104.20 7.15
  Q 106.67 7.59 106.74 7.59
  Q 117.98 7.86 129.22 7.68
  Q 133.92 7.61 145.28 7.90
  Q 153.32 8.10 161.36 7.53
  Q 161.81 7.50 162.11 7.33
  Q 162.68 7.00 162.56 6.64
  C 162.48 6.41 162.16 6.24 161.76 6.21
  Q 150.39 5.32 138.99 5.72
  Q 138.53 5.74 137.53 5.94
  Q 135.75 6.31 136.25 4.78
  C 136.34 4.51 136.20 4.24 135.96 4.17
  Q 132.93 3.33 129.97 4.33
  C 129.75 4.40 129.62 4.68 129.67 4.97
  Q 129.74 5.33 129.55 5.60
  C 129.41 5.81 129.09 5.94 128.69 5.94
  Q 126.29 5.97 123.89 5.88
  Q 122.01 5.80 119.12 5.90
  Q 115.71 6.02 112.34 5.58
  Q 108.35 5.05 105.62 5.12
  Q 102.16 5.20 98.71 5.12
  Q 95.30 5.04 91.80 5.16
  Q 83.83 5.43 75.89 4.76
  Q 66.88 4.00 62.07 4.00
  Q 50.66 4.02 39.25 4.07
  Q 35.92 4.08 33.65 6.33
  Q 33.17 6.80 33.11 7.31
  Q 33.03 7.99 33.45 8.47
  Q 33.86 8.94 34.84 8.98
  Q 37.61 9.09 40.35 8.76
  Q 45.11 8.17 45.81 8.13
  Q 67.26 6.74 88.76 6.93
  C 88.99 6.94 89.25 6.83 89.47 6.63
  L 89.78 6.35
  C 89.95 6.20 90.22 6.31 90.30 6.55
  Z
  M 169.19 6.81
  C 169.33 7.15 169.79 7.20 170.01 6.91
  Q 171.35 5.18 173.12 4.47
  C 173.47 4.33 173.69 4.06 173.62 3.85
  Q 173.51 3.56 172.77 3.80
  Q 171.52 4.21 170.26 4.55
  Q 168.42 5.04 169.19 6.81
  Z
  M 165.43 8.38
  Q 166.15 9.60 165.92 10.54
  C 165.83 10.96 165.81 11.30 165.89 11.48
  Q 166.06 11.85 166.33 11.83
  Q 166.65 11.82 166.84 11.33
  Q 167.85 8.81 166.77 6.24
  Q 166.25 5.02 165.73 5.81
  C 165.59 6.02 165.62 6.34 165.80 6.64
  Q 166.27 7.42 165.51 7.99
  C 165.39 8.08 165.36 8.25 165.43 8.38
  Z
  M 77.44 16.99
  Q 57.62 18.98 37.71 19.72
  Q 37.05 19.75 36.31 19.60
  Q 31.74 18.68 36.06 21.69
  Q 37.45 22.65 42.50 22.44
  Q 61.85 21.63 81.15 23.05
  Q 82.80 23.17 86.26 23.90
  Q 88.81 24.44 91.43 24.50
  Q 93.81 24.56 92.89 23.32
  C 92.72 23.09 92.42 22.94 92.07 22.91
  Q 89.21 22.74 88.31 22.19
  Q 85.76 20.63 89.00 20.00
  Q 92.08 19.40 93.99 19.09
  Q 95.80 18.79 99.01 19.13
  Q 101.85 19.44 104.70 19.16
  Q 109.20 18.73 110.33 18.70
  Q 123.64 18.37 136.78 16.36
  Q 141.61 15.63 147.30 15.45
  Q 153.68 15.26 160.02 14.39
  Q 164.08 13.84 164.62 8.56
  C 164.66 8.16 164.31 7.84 163.92 7.92
  Q 159.66 8.77 155.75 8.79
  Q 133.81 8.87 111.88 9.19
  Q 109.03 9.24 104.72 10.13
  Q 100.40 11.03 95.98 11.06
  Q 93.17 11.08 90.53 11.27
  Q 87.80 11.46 85.07 11.35
  Q 76.98 11.00 76.92 11.00
  Q 64.08 11.00 51.25 11.00
  Q 45.21 11.00 34.05 13.22
  C 33.79 13.27 33.62 13.52 33.64 13.81
  L 33.93 17.56
  C 33.95 17.84 34.17 18.06 34.43 18.07
  Q 47.49 18.25 57.00 17.50
  Q 70.04 16.48 76.25 16.25
  Q 77.25 16.21 77.67 16.54
  Q 78.16 16.91 77.44 16.99
  Z
  M 67.69 9.58
  Q 77.44 9.38 87.18 9.90
  Q 89.84 10.04 92.51 9.82
  Q 94.48 9.65 93.21 9.16
  Q 92.96 9.06 92.65 9.05
  Q 72.50 8.59 52.34 9.12
  Q 49.49 9.19 43.19 9.80
  Q 38.61 10.25 34.00 10.25
  C 33.69 10.25 33.43 10.46 33.38 10.74
  Q 33.03 12.57 35.25 12.00
  Q 45.47 9.35 54.50 9.56
  Q 61.10 9.72 67.69 9.58
  Z
  M 159.50 22.04
  L 158.79 22.00
  Q 158.97 20.55 159.94 19.44
  Q 162.11 16.94 158.00 16.75
  Q 155.92 16.65 153.85 16.81
  Q 152.73 16.89 150.39 17.92
  Q 148.01 18.96 144.75 18.75
  Q 139.92 18.43 123.25 19.79
  Q 117.50 20.26 111.74 20.30
  Q 106.99 20.33 101.29 20.77
  Q 96.07 21.16 90.82 21.07
  Q 90.26 21.06 90.57 21.48
  Q 91.36 22.57 92.82 22.34
  Q 93.97 22.17 94.79 23.00
  L 94.50 23.46
  Q 93.99 24.43 96.58 24.71
  Q 97.10 24.77 97.62 24.76
  Q 125.16 24.46 151.56 24.69
  Q 155.93 24.73 158.25 24.21
  Q 158.63 24.30 159.00 24.21
  Q 160.30 25.08 161.31 24.31
  Q 165.14 21.44 163.83 16.55
  C 163.75 16.25 163.46 16.06 163.19 16.13
  Q 162.04 16.41 162.75 17.75
  Q 163.99 20.08 161.50 20.75
  Q 160.28 21.08 159.50 22.04
  Z
  M 138.50 17.21
  Q 133.95 17.88 139.25 17.46
  Q 143.89 18.03 148.52 17.55
  Q 149.02 17.50 149.43 17.29
  Q 151.57 16.20 148.00 16.47
  Q 143.25 16.82 138.50 17.21
  Z
  M 70.5798 24.5231
  C 70.58 24.15 64.33 23.82 56.6135 23.7800
  C 48.90 23.74 42.64 24.01 42.6402 24.3769
  C 42.64 24.75 48.89 25.08 56.6065 25.1200
  C 64.32 25.16 70.58 24.89 70.5798 24.5231
  Z
  M 129.2444 28.8412
  C 129.33 28.57 128.78 28.16 128.0117 27.9231
  C 127.25 27.68 126.56 27.71 126.4756 27.9788
  C 126.39 28.25 126.94 28.66 127.7083 28.8969
  C 128.47 29.14 129.16 29.11 129.2444 28.8412
  Z
  M 93.50 28.96
  Q 99.39 29.82 105.33 29.78
  Q 105.52 29.78 108.59 29.24
  Q 110.28 28.95 111.99 29.68
  Q 113.95 30.53 116.71 29.82
  C 117.27 29.68 117.86 29.70 118.41 29.89
  Q 120.01 30.44 119.30 29.57
  C 119.13 29.37 118.87 29.24 118.57 29.19
  Q 116.79 28.92 115.01 28.59
  Q 113.18 28.25 111.45 28.25
  Q 102.72 28.25 94.00 28.04
  L 88.58 28.05
  C 88.38 28.05 88.20 28.13 88.12 28.25
  Q 88.00 28.42 88.14 28.56
  Q 88.26 28.69 88.52 28.70
  Q 91.01 28.85 93.50 28.96
  Z
  M 122.93 29.61
  Q 122.11 28.97 122.22 29.77
  C 122.25 30.02 122.47 30.21 122.73 30.23
  Q 123.85 30.31 122.93 29.61
  Z
  M 192.35 61.90
  Q 193.90 61.17 193.02 59.95
  C 192.83 59.69 192.51 59.58 192.20 59.66
  Q 191.03 59.97 190.45 61.05
  C 190.30 61.32 190.38 61.66 190.62 61.83
  Q 191.37 62.36 192.35 61.90
  Z
  M 22.2869 64.4361
  C 22.29 64.29 22.18 64.17 22.0395 64.1642
  L 13.8286 63.7770
  C 13.69 63.77 13.56 63.88 13.5566 64.0244
  L 13.5331 64.5239
  C 13.53 64.67 13.64 64.79 13.7805 64.7958
  L 21.9914 65.1830
  C 22.13 65.19 22.26 65.08 22.2634 64.9356
  L 22.2869 64.4361
  Z"
/>
<path fill="#160f0e" d="
  M 21.25 1.21
  L 30.25 1.29
  Q 30.71 2.72 29.50 3.29
  Q 24.52 2.57 28.50 5.04
  Q 29.97 6.52 30.56 8.94
  Q 30.76 9.74 30.00 10.04
  Q 28.71 6.37 25.60 4.10
  C 25.34 3.91 25.02 3.80 24.69 3.78
  Q 16.20 3.29 7.75 4.29
  Q 5.39 2.67 3.06 3.44
  Q 0.90 4.15 2.50 6.29
  Q 1.96 17.89 2.75 29.46
  Q 1.87 30.43 2.29 31.75
  Q 1.00 43.50 1.25 46.00
  Q 2.01 53.48 2.29 61.00
  Q 0.98 63.13 2.29 65.07
  Q 2.64 65.59 2.57 65.90
  Q 2.42 66.49 1.29 66.00
  Q 0.51 65.08 0.50 64.50
  Q 0.43 57.46 0.00 50.44
  Q 0.00 43.81 0.00 37.19
  Q 0.50 33.44 0.50 25.00
  Q 0.51 14.49 1.00 3.99
  Q 1.09 2.06 2.95 1.99
  L 21.25 1.21
  Z"
/>
<path fill="#a86c76" d="
  M 29.50 3.29
  Q 29.83 4.68 28.50 5.04
  Q 24.52 2.57 29.50 3.29
  Z"
/>
<path fill="#65252d" d="
  M 7.75 4.29
  L 2.50 6.29
  Q 0.90 4.15 3.06 3.44
  Q 5.39 2.67 7.75 4.29
  Z"
/>
<path fill="#ffffff" d="
  M 186.54 4.50
  L 188.54 7.75
  Q 192.00 15.56 194.54 23.69
  Q 195.80 27.70 195.85 31.97
  Q 195.97 41.71 195.00 48.50
  Q 194.63 51.10 192.00 53.79
  Q 185.05 56.05 178.75 59.71
  L 177.00 60.54
  Q 175.22 61.71 173.69 63.19
  Q 172.93 63.92 170.25 63.96
  Q 167.97 64.63 165.65 64.57
  Q 162.60 64.48 162.47 64.49
  Q 156.73 64.63 151.00 64.35
  Q 149.85 64.29 147.53 64.61
  Q 145.77 64.85 144.00 64.58
  Q 143.84 64.56 143.07 64.23
  Q 142.36 63.93 141.00 64.00
  Q 122.89 64.99 104.75 64.43
  Q 97.87 64.21 91.00 64.49
  Q 83.12 64.81 75.25 64.21
  L 70.50 63.79
  Q 57.80 62.78 45.31 58.19
  Q 42.61 57.19 40.48 55.61
  Q 37.15 53.13 36.05 52.51
  Q 29.09 48.60 22.69 43.81
  Q 22.15 43.41 21.25 43.50
  Q 23.38 38.13 28.19 32.94
  Q 30.73 30.19 33.78 29.03
  Q 35.81 28.25 40.33 28.25
  Q 57.63 28.24 74.93 28.31
  Q 75.69 28.31 75.35 28.80
  Q 75.16 29.08 74.57 28.91
  Q 73.65 28.65 73.86 29.27
  C 73.95 29.53 74.19 29.75 74.50 29.85
  Q 75.99 30.31 77.47 29.85
  C 77.70 29.78 77.79 29.50 77.66 29.28
  Q 76.79 27.79 80.09 29.29
  Q 80.70 29.57 81.38 29.62
  Q 98.01 30.91 112.99 32.33
  Q 115.92 32.61 118.55 31.46
  C 118.78 31.36 119.07 31.46 119.23 31.70
  L 119.50 32.09
  C 119.66 32.32 119.96 32.45 120.27 32.42
  L 126.70 31.77
  C 126.97 31.74 127.25 31.56 127.47 31.28
  Q 128.37 30.13 129.85 30.14
  Q 131.56 30.16 131.65 30.15
  Q 140.77 29.19 149.92 28.55
  Q 150.44 28.51 159.08 28.30
  Q 163.68 28.19 168.24 27.41
  Q 170.67 27.00 169.00 25.21
  L 168.96 19.25
  Q 168.73 9.84 175.68 3.88
  C 175.93 3.67 176.23 3.54 176.55 3.49
  Q 180.95 2.90 185.32 3.60
  C 185.69 3.66 186.00 3.82 186.17 4.03
  L 186.54 4.50
  Z"
/>
<path fill="#ffffff" d="
  M 30.00 10.04
  Q 31.46 18.87 30.04 27.75
  L 30.00 28.46
  Q 25.28 34.98 21.00 41.80
  Q 20.97 41.86 19.53 45.00
  Q 18.06 48.22 14.29 45.25
  Q 9.32 40.95 6.50 37.25
  Q 4.52 34.65 3.46 30.50
  Q 3.54 29.63 2.75 29.46
  Q 1.96 17.89 2.50 6.29
  L 7.75 4.29
  Q 16.20 3.29 24.69 3.78
  C 25.02 3.80 25.34 3.91 25.60 4.10
  Q 28.71 6.37 30.00 10.04
  Z"
/>
<rect fill="#a86c76" x="-6.08" y="-0.41" transform="translate(120.56,4.14) rotate(-0.2)" width="12.16" height="0.82" rx="0.27"/>
<path fill="#ffffff" d="
  M 89.78 6.35
  L 89.47 6.63
  C 89.25 6.83 88.99 6.94 88.76 6.93
  Q 67.26 6.74 45.81 8.13
  Q 45.11 8.17 40.35 8.76
  Q 37.61 9.09 34.84 8.98
  Q 33.86 8.94 33.45 8.47
  Q 33.03 7.99 33.11 7.31
  Q 33.17 6.80 33.65 6.33
  Q 35.92 4.08 39.25 4.07
  Q 50.66 4.02 62.07 4.00
  Q 66.88 4.00 75.89 4.76
  Q 83.83 5.43 91.80 5.16
  Q 95.30 5.04 98.71 5.12
  Q 102.16 5.20 105.62 5.12
  Q 108.35 5.05 112.34 5.58
  Q 115.71 6.02 119.12 5.90
  Q 122.01 5.80 123.89 5.88
  Q 126.29 5.97 128.69 5.94
  C 129.09 5.94 129.41 5.81 129.55 5.60
  Q 129.74 5.33 129.67 4.97
  C 129.62 4.68 129.75 4.40 129.97 4.33
  Q 132.93 3.33 135.96 4.17
  C 136.20 4.24 136.34 4.51 136.25 4.78
  Q 135.75 6.31 137.53 5.94
  Q 138.53 5.74 138.99 5.72
  Q 150.39 5.32 161.76 6.21
  C 162.16 6.24 162.48 6.41 162.56 6.64
  Q 162.68 7.00 162.11 7.33
  Q 161.81 7.50 161.36 7.53
  Q 153.32 8.10 145.28 7.90
  Q 133.92 7.61 129.22 7.68
  Q 117.98 7.86 106.74 7.59
  Q 106.67 7.59 104.20 7.15
  Q 102.88 6.92 101.00 7.25
  Q 96.51 8.04 91.94 7.74
  Q 90.66 7.65 90.30 6.55
  C 90.22 6.31 89.95 6.20 89.78 6.35
  Z"
/>
<path fill="#a86c76" d="
  M 169.19 6.81
  Q 168.42 5.04 170.26 4.55
  Q 171.52 4.21 172.77 3.80
  Q 173.51 3.56 173.62 3.85
  C 173.69 4.06 173.47 4.33 173.12 4.47
  Q 171.35 5.18 170.01 6.91
  C 169.79 7.20 169.33 7.15 169.19 6.81
  Z"
/>
<path fill="#a86c76" d="
  M 188.54 7.75
  L 186.54 4.50
  Q 188.71 3.97 190.71 4.59
  Q 192.67 5.20 193.77 7.06
  Q 195.51 9.99 195.18 14.13
  Q 195.09 15.32 195.36 16.47
  Q 195.75 18.10 194.54 17.84
  C 194.27 17.78 194.02 17.54 193.90 17.21
  L 192.00 12.25
  Q 191.18 10.11 190.06 8.19
  Q 189.51 7.24 188.54 7.75
  Z"
/>
<path fill="#a86c76" d="
  M 165.43 8.38
  C 165.36 8.25 165.39 8.08 165.51 7.99
  Q 166.27 7.42 165.80 6.64
  C 165.62 6.34 165.59 6.02 165.73 5.81
  Q 166.25 5.02 166.77 6.24
  Q 167.85 8.81 166.84 11.33
  Q 166.65 11.82 166.33 11.83
  Q 166.06 11.85 165.89 11.48
  C 165.81 11.30 165.83 10.96 165.92 10.54
  Q 166.15 9.60 165.43 8.38
  Z"
/>
<path fill="#ffffff" d="
  M 77.67 16.54
  Q 77.25 16.21 76.25 16.25
  Q 70.04 16.48 57.00 17.50
  Q 47.49 18.25 34.43 18.07
  C 34.17 18.06 33.95 17.84 33.93 17.56
  L 33.64 13.81
  C 33.62 13.52 33.79 13.27 34.05 13.22
  Q 45.21 11.00 51.25 11.00
  Q 64.08 11.00 76.92 11.00
  Q 76.98 11.00 85.07 11.35
  Q 87.80 11.46 90.53 11.27
  Q 93.17 11.08 95.98 11.06
  Q 100.40 11.03 104.72 10.13
  Q 109.03 9.24 111.88 9.19
  Q 133.81 8.87 155.75 8.79
  Q 159.66 8.77 163.92 7.92
  C 164.31 7.84 164.66 8.16 164.62 8.56
  Q 164.08 13.84 160.02 14.39
  Q 153.68 15.26 147.30 15.45
  Q 141.61 15.63 136.78 16.36
  Q 123.64 18.37 110.33 18.70
  Q 109.20 18.73 104.70 19.16
  Q 101.85 19.44 99.01 19.13
  Q 95.80 18.79 93.99 19.09
  Q 92.08 19.40 89.00 20.00
  Q 85.76 20.63 88.31 22.19
  Q 89.21 22.74 92.07 22.91
  C 92.42 22.94 92.72 23.09 92.89 23.32
  Q 93.81 24.56 91.43 24.50
  Q 88.81 24.44 86.26 23.90
  Q 82.80 23.17 81.15 23.05
  Q 61.85 21.63 42.50 22.44
  Q 37.45 22.65 36.06 21.69
  Q 31.74 18.68 36.31 19.60
  Q 37.05 19.75 37.71 19.72
  Q 57.62 18.98 77.44 16.99
  Q 78.16 16.91 77.67 16.54
  Z"
/>
<path fill="#f6f8f1" d="
  M 67.69 9.58
  Q 61.10 9.72 54.50 9.56
  Q 45.47 9.35 35.25 12.00
  Q 33.03 12.57 33.38 10.74
  C 33.43 10.46 33.69 10.25 34.00 10.25
  Q 38.61 10.25 43.19 9.80
  Q 49.49 9.19 52.34 9.12
  Q 72.50 8.59 92.65 9.05
  Q 92.96 9.06 93.21 9.16
  Q 94.48 9.65 92.51 9.82
  Q 89.84 10.04 87.18 9.90
  Q 77.44 9.38 67.69 9.58
  Z"
/>
<path fill="#f6f8f1" d="
  M 159.00 24.21
  L 159.50 22.04
  Q 160.28 21.08 161.50 20.75
  Q 163.99 20.08 162.75 17.75
  Q 162.04 16.41 163.19 16.13
  C 163.46 16.06 163.75 16.25 163.83 16.55
  Q 165.14 21.44 161.31 24.31
  Q 160.30 25.08 159.00 24.21
  Z"
/>
<path fill="#f6f8f1" d="
  M 139.25 17.46
  Q 138.99 17.13 138.50 17.21
  Q 143.25 16.82 148.00 16.47
  Q 151.57 16.20 149.43 17.29
  Q 149.02 17.50 148.52 17.55
  Q 143.89 18.03 139.25 17.46
  Z"
/>
<path fill="#ffffff" d="
  M 158.79 22.00
  L 158.25 24.21
  Q 155.93 24.73 151.56 24.69
  Q 125.16 24.46 97.62 24.76
  Q 97.10 24.77 96.58 24.71
  Q 93.99 24.43 94.50 23.46
  Q 100.32 24.52 94.79 23.00
  Q 93.97 22.17 92.82 22.34
  Q 91.36 22.57 90.57 21.48
  Q 90.26 21.06 90.82 21.07
  Q 96.07 21.16 101.29 20.77
  Q 106.99 20.33 111.74 20.30
  Q 117.50 20.26 123.25 19.79
  Q 139.92 18.43 144.75 18.75
  Q 148.01 18.96 150.39 17.92
  Q 152.73 16.89 153.85 16.81
  Q 155.92 16.65 158.00 16.75
  Q 162.11 16.94 159.94 19.44
  Q 158.97 20.55 158.79 22.00
  Z
  M 107.00 22.54
  Q 105.74 22.30 104.48 22.19
  Q 102.71 22.02 103.61 22.73
  C 103.84 22.91 104.15 23.01 104.47 23.01
  L 107.50 22.96
  Q 126.30 22.93 151.25 21.00
  Q 151.88 20.95 152.04 20.72
  Q 152.36 20.25 151.50 20.25
  Q 145.06 20.24 138.65 20.69
  Q 130.54 21.25 125.83 21.42
  Q 116.40 21.75 107.00 22.54
  Z"
/>
<path fill="#a86c76" d="
  M 138.50 17.21
  Q 138.99 17.13 139.25 17.46
  Q 133.95 17.88 138.50 17.21
  Z"
/>
<path fill="#815351" d="
  M 168.96 19.25
  L 169.00 25.21
  Q 167.59 25.06 168.25 23.75
  Q 168.73 22.80 168.96 19.25
  Z"
/>
<path fill="#815351" d="
  M 107.50 22.96
  L 107.00 22.54
  Q 116.40 21.75 125.83 21.42
  Q 130.54 21.25 138.65 20.69
  Q 145.06 20.24 151.50 20.25
  Q 152.36 20.25 152.04 20.72
  Q 151.88 20.95 151.25 21.00
  Q 126.30 22.93 107.50 22.96
  Z"
/>
<path fill="#b7a99b" d="
  M 107.00 22.54
  L 107.50 22.96
  L 104.47 23.01
  C 104.15 23.01 103.84 22.91 103.61 22.73
  Q 102.71 22.02 104.48 22.19
  Q 105.74 22.30 107.00 22.54
  Z"
/>
<path fill="#815351" d="
  M 158.79 22.00
  L 159.50 22.04
  L 159.00 24.21
  Q 158.63 24.30 158.25 24.21
  L 158.79 22.00
  Z"
/>
<path fill="#a86c76" d="
  M 94.79 23.00
  Q 100.32 24.52 94.50 23.46
  L 94.79 23.00
  Z"
/>
<ellipse fill="#f6f8f1" cx="0.00" cy="0.00" transform="translate(56.61,24.45) rotate(0.3)" rx="13.97" ry="0.67"/>
<path fill="#b7a99b" d="
  M 30.00 28.46
  L 30.04 27.75
  Q 34.45 26.09 31.27 28.53
  Q 30.64 29.02 30.00 28.46
  Z"
/>
<ellipse fill="#815351" cx="0.00" cy="0.00" transform="translate(127.86,28.41) rotate(17.3)" rx="1.45" ry="0.51"/>
<path fill="#b7a99b" d="
  M 94.00 28.04
  Q 93.38 28.29 93.50 28.96
  Q 91.01 28.85 88.52 28.70
  Q 88.26 28.69 88.14 28.56
  Q 88.00 28.42 88.12 28.25
  C 88.20 28.13 88.38 28.05 88.58 28.05
  L 94.00 28.04
  Z"
/>
<path fill="#f6f8f1" d="
  M 94.00 28.04
  Q 102.72 28.25 111.45 28.25
  Q 113.18 28.25 115.01 28.59
  Q 116.79 28.92 118.57 29.19
  C 118.87 29.24 119.13 29.37 119.30 29.57
  Q 120.01 30.44 118.41 29.89
  C 117.86 29.70 117.27 29.68 116.71 29.82
  Q 113.95 30.53 111.99 29.68
  Q 110.28 28.95 108.59 29.24
  Q 105.52 29.78 105.33 29.78
  Q 99.39 29.82 93.50 28.96
  Q 93.38 28.29 94.00 28.04
  Z"
/>
<path fill="#b7a99b" d="
  M 122.93 29.61
  Q 123.85 30.31 122.73 30.23
  C 122.47 30.21 122.25 30.02 122.22 29.77
  Q 122.11 28.97 122.93 29.61
  Z"
/>
<path fill="#815351" d="
  M 2.75 29.46
  Q 3.54 29.63 3.46 30.50
  Q 2.39 30.48 2.71 31.75
  L 2.29 31.75
  Q 1.87 30.43 2.75 29.46
  Z"
/>
<path fill="#160f0e" d="
  M 3.46 30.50
  Q 4.52 34.65 6.50 37.25
  Q 9.32 40.95 14.29 45.25
  Q 14.23 45.48 14.00 45.54
  Q 8.54 41.64 3.79 36.92
  C 3.60 36.73 3.47 36.43 3.41 36.07
  L 2.71 31.75
  Q 2.39 30.48 3.46 30.50
  Z"
/>
<path fill="#ffffff" d="
  M 2.29 31.75
  L 2.71 31.75
  L 3.41 36.07
  C 3.47 36.43 3.60 36.73 3.79 36.92
  Q 8.54 41.64 14.00 45.54
  Q 18.78 49.27 20.56 49.69
  Q 31.55 52.24 41.66 57.24
  Q 46.82 59.79 52.00 62.29
  Q 52.51 62.91 52.00 63.46
  Q 49.76 64.61 47.25 64.74
  C 46.94 64.75 46.62 64.67 46.32 64.50
  Q 43.88 63.11 42.00 63.25
  Q 39.91 63.40 38.47 63.29
  Q 35.92 63.10 35.01 63.19
  Q 26.87 64.06 24.56 63.44
  Q 20.85 62.44 17.06 62.53
  Q 12.51 62.64 11.43 62.60
  Q 8.71 62.49 5.79 62.50
  C 5.46 62.50 5.21 62.20 5.27 61.88
  Q 5.61 60.07 3.94 60.69
  Q 3.14 60.99 2.29 61.00
  Q 2.01 53.48 1.25 46.00
  Q 1.00 43.50 2.29 31.75
  Z"
/>
<path fill="#a86c76" d="
  M 21.25 43.50
  L 21.75 45.21
  Q 21.33 45.18 21.21 45.50
  Q 20.09 44.97 21.25 43.50
  Z"
/>
<path fill="#f6f8f1" d="
  M 21.75 45.21
  L 27.33 48.50
  Q 29.78 49.95 27.04 49.15
  Q 23.18 48.03 21.21 45.50
  Q 21.33 45.18 21.75 45.21
  Z"
/>
<path fill="#a86c76" d="
  M 192.00 53.79
  Q 191.80 54.74 192.00 55.71
  Q 186.39 56.99 181.25 59.54
  L 179.21 60.25
  L 178.75 59.71
  Q 185.05 56.05 192.00 53.79
  Z"
/>
<path fill="#f6f8f1" d="
  M 192.00 55.71
  Q 192.63 57.59 191.23 58.43
  Q 189.65 59.38 189.55 59.46
  Q 187.23 61.21 184.25 61.21
  Q 182.28 61.05 181.25 59.54
  Q 186.39 56.99 192.00 55.71
  Z"
/>
<path fill="#b7a99b" d="
  M 181.25 59.54
  Q 182.28 61.05 184.25 61.21
  L 183.75 61.29
  L 179.29 61.50
  L 179.21 60.25
  L 181.25 59.54
  Z"
/>
<path fill="#b7a99b" d="
  M 192.35 61.90
  Q 191.37 62.36 190.62 61.83
  C 190.38 61.66 190.30 61.32 190.45 61.05
  Q 191.03 59.97 192.20 59.66
  C 192.51 59.58 192.83 59.69 193.02 59.95
  Q 193.90 61.17 192.35 61.90
  Z"
/>
<path fill="#b7a99b" d="
  M 177.00 60.54
  Q 178.12 65.54 173.31 64.19
  Q 172.18 63.87 170.25 63.96
  Q 172.93 63.92 173.69 63.19
  Q 175.22 61.71 177.00 60.54
  Z"
/>
<path fill="#a86c76" d="
  M 183.75 61.29
  Q 184.70 61.66 185.76 61.61
  Q 187.68 61.50 186.24 61.60
  Q 181.07 61.93 180.00 62.25
  Q 179.11 62.52 179.29 61.50
  L 183.75 61.29
  Z"
/>
<path fill="#f6f8f1" d="
  M 60.75 63.79
  L 60.50 64.21
  L 52.00 63.46
  Q 52.51 62.91 52.00 62.29
  Q 56.56 61.93 60.75 63.79
  Z"
/>
<rect fill="#b7a99b" x="-4.37" y="-0.51" transform="translate(17.91,64.48) rotate(2.7)" width="8.74" height="1.02" rx="0.26"/>
<path fill="#a86c76" d="
  M 60.75 63.79
  L 64.65 64.55
  Q 65.46 64.71 64.62 64.73
  Q 62.20 64.80 60.50 64.21
  L 60.75 63.79
  Z"
/>
<path fill="#815351" d="
  M 70.50 63.79
  L 75.25 64.21
  Q 73.07 64.57 74.75 66.21
  Q 71.02 66.98 67.25 66.46
  L 68.01 65.46
  C 68.17 65.25 68.47 65.16 68.77 65.24
  Q 70.11 65.61 70.50 63.79
  Z"
/>
</svg>
