<?xml version="1.0" encoding="UTF-8" standalone="no"?>
<!DOCTYPE svg PUBLIC "-//W3C//DTD SVG 1.1//EN" "http://www.w3.org/Graphics/SVG/1.1/DTD/svg11.dtd">
<svg xmlns="http://www.w3.org/2000/svg" version="1.1" viewBox="0 0 208 70">
<g stroke-width="2.0" fill="none" stroke-linecap="butt">
<path stroke="#d2c4b3" vector-effect="non-scaling-stroke" d="
  M 14.31 0.00
  Q 5.66 0.85 3.25 0.25
  Q -0.38 -0.65 0.00 2.94"
/>
<path stroke="#d2c4b3" vector-effect="non-scaling-stroke" d="
  M 18.81 0.00
  Q 31.69 0.65 44.56 0.00"
/>
<path stroke="#d2c4b3" vector-effect="non-scaling-stroke" d="
  M 45.56 0.00
  Q 51.19 0.63 56.81 0.00"
/>
<path stroke="#d2c4b3" vector-effect="non-scaling-stroke" d="
  M 57.31 0.00
  Q 68.85 0.53 80.39 0.43
  Q 93.68 0.33 99.60 0.33
  Q 109.21 0.32 118.81 0.00"
/>
<path stroke="#d2c4b3" vector-effect="non-scaling-stroke" d="
  M 120.31 0.00
  Q 121.65 0.37 124.56 0.31
  Q 140.83 0.00 170.19 0.44
  Q 171.10 0.45 173.81 0.00"
/>
<path stroke="#d2c4b3" vector-effect="non-scaling-stroke" d="
  M 177.31 0.00
  Q 179.98 0.18 182.64 0.37
  Q 184.52 0.50 187.97 0.29
  Q 191.23 0.09 194.49 0.54
  Q 195.57 0.69 195.00 1.46"
/>
<path stroke="#9e8681" vector-effect="non-scaling-stroke" d="
  M 195.00 1.46
  L 182.50 1.54"
/>
<path stroke="#aa8c88" vector-effect="non-scaling-stroke" d="
  M 182.50 1.54
  Q 177.32 1.28 173.50 1.75
  Q 172.91 1.82 172.46 2.50"
/>
<path stroke="#d2c4b3" vector-effect="non-scaling-stroke" d="
  M 172.46 2.50
  L 171.79 2.50"
/>
<path stroke="#aa8c88" vector-effect="non-scaling-stroke" d="
  M 171.79 2.50
  Q 171.17 1.50 169.75 1.50
  Q 121.75 1.61 73.75 1.96"
/>
<path stroke="#7f7a71" vector-effect="non-scaling-stroke" d="
  M 73.75 1.96
  Q 65.36 1.31 57.00 2.29"
/>
<path stroke="#aa8c88" vector-effect="non-scaling-stroke" d="
  M 57.00 2.29
  Q 50.76 1.40 44.50 2.04"
/>
<path stroke="#7f7a71" vector-effect="non-scaling-stroke" d="
  M 44.50 2.04
  Q 42.66 1.68 40.96 2.25"
/>
<path stroke="#aa8c88" vector-effect="non-scaling-stroke" d="
  M 40.96 2.25
  Q 21.65 0.81 3.43 1.75
  Q 1.25 1.87 1.24 4.07
  L 1.21 24.00"
/>
<path stroke="#d2c4b3" vector-effect="non-scaling-stroke" d="
  M 1.21 24.00
  Q -0.14 21.47 0.31 17.56
  Q 0.76 13.72 0.00 3.69"
/>
<path stroke="#7c5955" vector-effect="non-scaling-stroke" d="
  M 208.00 5.81
  Q 208.23 3.51 206.81 2.13
  C 206.58 1.91 206.27 1.78 205.95 1.77
  L 195.00 1.46"
/>
<path stroke="#35151a" vector-effect="non-scaling-stroke" d="
  M 40.96 2.25
  Q 41.30 2.90 42.01 2.85
  C 42.42 2.82 42.75 2.88 42.93 3.01
  Q 43.89 3.69 41.76 3.77
  C 41.46 3.78 41.20 3.99 41.12 4.28
  Q 40.41 7.06 42.75 6.54"
/>
<path stroke="#b09398" vector-effect="non-scaling-stroke" d="
  M 42.75 6.54
  Q 41.41 6.98 40.02 7.00
  Q 39.43 7.02 39.01 7.15
  Q 35.16 8.41 39.75 8.54"
/>
<path stroke="#35151a" vector-effect="non-scaling-stroke" d="
  M 39.75 8.54
  Q 39.49 8.83 39.50 9.21"
/>
<path stroke="#b09398" vector-effect="non-scaling-stroke" d="
  M 39.50 9.21
  L 36.30 9.29
  C 35.93 9.30 35.62 9.47 35.52 9.72
  Q 35.42 9.96 35.46 10.25"
/>
<path stroke="#35151a" vector-effect="non-scaling-stroke" d="
  M 35.46 10.25
  L 34.49 10.55
  C 34.29 10.61 34.18 10.92 34.24 11.27
  L 34.95 15.19
  C 34.99 15.42 34.82 15.72 34.52 15.95
  Q 33.98 16.35 33.71 17.00"
/>
<path stroke="#885f5c" vector-effect="non-scaling-stroke" d="
  M 33.71 17.00
  L 32.54 17.00"
/>
<path stroke="#35151a" vector-effect="non-scaling-stroke" d="
  M 32.54 17.00
  Q 32.22 16.17 31.29 16.50"
/>
<path stroke="#b09398" vector-effect="non-scaling-stroke" d="
  M 31.29 16.50
  L 30.76 11.25
  C 30.72 10.90 30.59 10.59 30.39 10.40
  Q 28.15 8.24 25.97 6.03
  Q 24.40 4.42 21.00 4.25
  Q 17.52 4.08 14.96 5.15
  Q 12.93 6.00 10.05 8.43
  Q 5.27 12.48 4.00 18.75
  Q 1.35 31.88 3.25 46.00
  Q 3.58 48.48 3.25 49.54"
/>
<path stroke="#35151a" vector-effect="non-scaling-stroke" d="
  M 3.25 49.54
  L 1.29 47.50"
/>
<path stroke="#885f5c" vector-effect="non-scaling-stroke" d="
  M 1.29 47.50
  L 1.21 24.00"
/>
<path stroke="#863e4c" vector-effect="non-scaling-stroke" d="
  M 28.95 6.74
  Q 30.42 8.98 30.86 6.80
  C 30.92 6.50 30.84 6.17 30.65 5.90
  L 29.29 3.92
  C 29.11 3.66 28.81 3.51 28.50 3.55
  Q 24.48 4.03 28.24 6.08
  Q 28.67 6.31 28.95 6.74"
/>
<path stroke="#885f5c" vector-effect="non-scaling-stroke" d="
  M 7.00 5.71
  Q 5.16 7.68 5.19 10.95
  Q 5.20 11.47 5.51 11.06
  Q 7.30 8.75 7.79 6.25"
/>
<path stroke="#863e4c" vector-effect="non-scaling-stroke" d="
  M 7.79 6.25
  Q 10.41 4.22 7.00 5.71"
/>
<path stroke="#ae7777" vector-effect="non-scaling-stroke" d="
  M 7.79 6.25
  Q 7.71 5.55 7.00 5.71"
/>
<path stroke="#885f5c" vector-effect="non-scaling-stroke" d="
  M 171.79 2.50
  Q 171.87 3.97 172.95 3.99
  Q 173.42 4.00 173.03 3.64
  Q 172.55 3.19 172.46 2.50"
/>
<path stroke="#54212a" vector-effect="non-scaling-stroke" d="
  M 182.50 1.54
  Q 181.80 1.91 181.00 1.75
  Q 178.74 1.29 179.00 3.46"
/>
<path stroke="#863e4c" vector-effect="non-scaling-stroke" d="
  M 179.00 3.46
  L 175.75 3.69
  Q 175.19 3.73 175.62 4.10
  Q 177.74 5.98 179.25 3.54"
/>
<path stroke="#54212a" vector-effect="non-scaling-stroke" d="
  M 179.25 3.54
  L 183.50 3.71"
/>
<path stroke="#863e4c" vector-effect="non-scaling-stroke" d="
  M 183.50 3.71
  Q 182.00 3.78 180.50 3.73
  Q 179.32 3.70 179.79 5.00"
/>
<path stroke="#b09398" vector-effect="non-scaling-stroke" d="
  M 179.79 5.00
  Q 176.37 9.08 176.27 14.50
  Q 176.17 19.65 176.35 24.79
  Q 176.50 29.02 177.53 31.55
  Q 178.86 34.80 181.29 37.50"
/>
<path stroke="#885f5c" vector-effect="non-scaling-stroke" d="
  M 181.29 37.50
  Q 181.04 37.89 180.54 37.75"
/>
<path stroke="#b09398" vector-effect="non-scaling-stroke" d="
  M 180.54 37.75
  Q 179.04 35.84 177.53 33.93
  Q 175.50 31.36 172.64 30.24
  Q 170.73 29.49 166.76 29.54
  Q 132.63 29.95 98.50 29.71"
/>
<path stroke="#35151a" vector-effect="non-scaling-stroke" d="
  M 98.50 29.71
  Q 99.83 29.26 100.75 29.50
  Q 102.34 29.92 102.45 28.81
  C 102.48 28.53 102.23 28.29 101.93 28.30
  L 93.06 28.42
  C 92.82 28.42 92.66 28.18 92.76 27.97
  Q 93.58 26.29 95.50 25.71"
/>
<path stroke="#b09398" vector-effect="non-scaling-stroke" d="
  M 95.50 25.71
  L 100.00 25.96"
/>
<path stroke="#885f5c" vector-effect="non-scaling-stroke" d="
  M 100.00 25.96
  Q 101.37 26.83 102.54 26.25"
/>
<path stroke="#b09398" vector-effect="non-scaling-stroke" d="
  M 102.54 26.25
  L 105.00 25.96"
/>
<path stroke="#aa8c88" vector-effect="non-scaling-stroke" d="
  M 105.00 25.96
  Q 105.94 26.46 107.00 26.46"
/>
<path stroke="#885f5c" vector-effect="non-scaling-stroke" d="
  M 107.00 26.46
  L 110.50 25.96"
/>
<path stroke="#b09398" vector-effect="non-scaling-stroke" d="
  M 110.50 25.96
  L 114.75 25.71"
/>
<path stroke="#885f5c" vector-effect="non-scaling-stroke" d="
  M 114.75 25.71
  L 119.94 25.93
  C 120.21 25.94 120.42 25.69 120.36 25.44
  Q 120.20 24.79 119.71 24.25"
/>
<path stroke="#b09398" vector-effect="non-scaling-stroke" d="
  M 119.71 24.25
  Q 120.41 23.87 121.06 24.19
  Q 121.97 24.64 122.02 24.66
  Q 123.51 25.02 124.83 24.27
  C 125.14 24.10 125.46 24.02 125.76 24.04
  Q 129.05 24.30 132.32 24.00
  Q 136.81 23.59 138.84 23.62
  Q 151.79 23.81 164.75 23.69
  Q 168.42 23.66 171.73 22.15
  C 172.05 22.01 172.25 21.73 172.26 21.44
  Q 172.27 20.53 171.19 20.56
  Q 157.27 21.01 146.00 19.75
  Q 135.73 18.59 128.25 18.75
  Q 126.72 18.78 125.74 18.31
  Q 125.23 18.07 125.80 17.98
  Q 128.58 17.55 135.00 17.75
  Q 141.31 17.95 147.61 18.44
  Q 154.96 19.02 159.92 19.10
  Q 165.88 19.19 172.27 19.26
  C 172.52 19.27 172.74 19.04 172.76 18.75
  L 173.07 14.80
  C 173.09 14.52 172.93 14.27 172.70 14.22
  Q 159.72 11.76 146.50 11.69
  Q 136.83 11.63 127.17 11.89
  Q 126.71 11.90 119.35 12.41
  Q 115.09 12.70 111.50 12.25
  Q 108.01 11.81 105.16 11.73
  Q 101.31 11.61 98.88 11.18
  Q 95.44 10.56 92.00 10.03
  Q 90.44 9.79 89.00 10.29"
/>
<path stroke="#885f5c" vector-effect="non-scaling-stroke" d="
  M 89.00 10.29
  Q 87.76 10.60 86.58 10.14
  Q 86.17 9.99 85.90 9.96
  Q 84.36 9.84 85.50 10.75
  Q 86.61 11.64 88.96 11.00"
/>
<path stroke="#b09398" vector-effect="non-scaling-stroke" d="
  M 88.96 11.00
  Q 91.65 13.61 96.24 13.78
  C 96.96 13.80 97.65 14.06 98.21 14.51
  Q 100.88 16.64 96.28 15.82
  Q 93.78 15.37 94.78 17.02
  C 94.91 17.24 95.20 17.39 95.55 17.42
  L 99.50 17.79"
/>
<path stroke="#863e4c" vector-effect="non-scaling-stroke" d="
  M 99.50 17.79
  Q 99.62 18.78 100.21 19.50"
/>
<path stroke="#b09398" vector-effect="non-scaling-stroke" d="
  M 100.21 19.50
  Q 102.19 21.13 103.75 20.50
  Q 106.08 19.56 110.00 20.68
  C 110.46 20.81 110.95 20.77 111.39 20.57
  Q 113.02 19.82 112.40 21.69
  C 112.35 21.83 112.42 21.99 112.55 22.06
  Q 113.34 22.48 112.50 22.43
  Q 105.60 22.02 98.69 21.85
  Q 97.23 21.81 95.96 22.50"
/>
<path stroke="#35151a" vector-effect="non-scaling-stroke" d="
  M 95.96 22.50
  Q 94.17 20.47 91.50 20.29"
/>
<path stroke="#885f5c" vector-effect="non-scaling-stroke" d="
  M 91.50 20.29
  Q 92.20 20.46 92.52 20.19
  C 92.74 20.00 92.67 19.63 92.38 19.43
  Q 91.64 18.90 90.71 19.25"
/>
<path stroke="#35151a" vector-effect="non-scaling-stroke" d="
  M 90.71 19.25
  Q 89.80 17.62 88.27 16.69
  Q 85.67 15.12 85.44 14.96
  Q 83.10 13.34 80.24 12.83
  C 79.99 12.79 79.68 12.89 79.41 13.11
  Q 78.77 13.65 78.50 12.51
  C 78.34 11.82 77.87 11.25 77.23 10.96
  Q 74.21 9.60 74.26 7.56
  C 74.27 7.22 74.50 6.95 74.80 6.94
  L 78.71 6.84
  C 78.95 6.84 79.14 6.64 79.08 6.46
  Q 78.67 5.21 77.07 5.36
  Q 76.08 5.46 76.20 4.54
  C 76.24 4.23 76.50 4.00 76.81 4.01
  L 79.45 4.10
  C 79.72 4.11 79.93 3.90 79.87 3.69
  L 79.48 2.45
  C 79.40 2.19 79.11 2.01 78.76 2.00
  L 73.75 1.96"
/>
<path stroke="#aa8c88" vector-effect="non-scaling-stroke" d="
  M 85.5028 3.9413
  C 85.54 3.40 85.14 2.93 84.5972 2.8922
  L 81.9044 2.6945
  C 81.36 2.65 80.89 3.06 80.8553 3.6001
  L 80.8172 4.1187
  C 80.78 4.66 81.18 5.13 81.7228 5.1678
  L 84.4156 5.3655
  C 84.96 5.41 85.43 5.00 85.4647 4.4599
  L 85.5028 3.9413"
/>
<path stroke="#b09398" vector-effect="non-scaling-stroke" d="
  M 112.55 7.51
  Q 113.62 5.80 115.31 7.22
  C 115.58 7.44 115.89 7.57 116.18 7.59
  Q 124.12 7.97 128.75 7.75
  Q 139.36 7.24 147.51 7.92
  Q 155.03 8.56 162.56 8.91
  C 162.88 8.93 163.19 9.04 163.47 9.22
  Q 165.01 10.23 165.63 9.93
  Q 167.11 9.20 168.74 9.48
  Q 174.20 10.45 173.39 6.98
  C 173.32 6.68 173.11 6.42 172.82 6.25
  Q 169.77 4.47 168.50 4.50
  Q 155.38 4.78 142.27 4.61
  Q 136.45 4.54 128.78 5.22
  Q 119.04 6.08 109.25 5.91
  Q 102.17 5.78 95.08 5.75
  Q 93.26 5.75 89.00 6.46
  Q 85.08 7.12 80.83 6.43
  Q 78.72 6.09 80.23 7.61
  Q 80.81 8.19 81.86 8.52
  Q 82.57 8.75 83.67 8.75
  Q 93.01 8.71 94.81 8.31
  Q 100.77 6.99 106.59 8.79
  C 106.88 8.88 107.21 8.87 107.53 8.77
  Q 109.83 8.02 112.56 8.94
  Q 114.28 9.51 113.99 8.41
  C 113.90 8.05 113.63 7.79 113.34 7.80
  L 112.79 7.80
  Q 112.37 7.80 112.55 7.51"
/>
<path stroke="#b09398" vector-effect="non-scaling-stroke" d="
  M 166.75 11.71
  L 172.70 12.83
  C 173.00 12.89 173.28 12.73 173.36 12.47
  Q 173.86 10.82 172.19 10.67
  Q 169.38 10.42 166.75 11.29"
/>
<path stroke="#885f5c" vector-effect="non-scaling-stroke" d="
  M 166.75 11.29
  Q 161.85 10.30 156.89 10.14
  Q 147.25 9.83 147.01 9.81
  Q 130.48 8.71 116.75 9.75
  Q 111.98 10.11 110.41 10.01
  Q 110.21 10.00 110.10 10.08
  Q 109.90 10.22 110.06 10.43
  Q 110.15 10.56 110.38 10.60
  Q 114.33 11.46 119.50 11.00
  Q 124.23 10.58 130.18 10.75
  Q 135.99 10.91 140.82 10.77
  Q 153.81 10.37 166.75 11.71"
/>
<path stroke="#d8cbc3" vector-effect="non-scaling-stroke" d="
  M 166.75 11.29
  L 166.75 11.71"
/>
<path stroke="#b09398" vector-effect="non-scaling-stroke" d="
  M 162.9805 25.5997
  C 162.98 25.46 162.86 25.34 162.7210 25.3392
  L 129.2610 25.2808
  C 129.12 25.28 129.00 25.40 129.0005 25.5403
  L 128.9995 26.1403
  C 129.00 26.28 129.12 26.40 129.2590 26.4008
  L 162.7190 26.4592
  C 162.86 26.46 162.98 26.34 162.9795 26.1997
  L 162.9805 25.5997"
/>
<path stroke="#aa8c88" vector-effect="non-scaling-stroke" d="
  M 176.10 29.62
  Q 176.53 29.29 175.61 28.89
  Q 175.26 28.74 174.88 28.81
  Q 173.44 29.08 175.24 29.67
  C 175.58 29.78 175.90 29.76 176.10 29.62"
/>
<path stroke="#7c5955" vector-effect="non-scaling-stroke" d="
  M 208.00 11.31
  Q 207.37 20.69 208.00 30.06"
/>
<path stroke="#7c5955" vector-effect="non-scaling-stroke" d="
  M 208.00 61.31
  Q 207.43 64.00 207.86 67.66
  C 207.96 68.53 207.27 69.29 206.39 69.27
  Q 198.49 69.11 191.75 69.57
  Q 183.85 70.11 176.00 69.00
  Q 172.12 68.45 157.50 69.22
  Q 148.62 69.69 139.75 68.96"
/>
<path stroke="#290f13" vector-effect="non-scaling-stroke" d="
  M 139.75 68.96
  Q 141.42 67.69 143.50 67.21"
/>
<path stroke="#793945" vector-effect="non-scaling-stroke" d="
  M 143.50 67.21
  Q 144.45 67.46 148.44 67.56
  Q 150.90 67.63 151.75 66.04"
/>
<path stroke="#290f13" vector-effect="non-scaling-stroke" d="
  M 151.75 66.04
  L 153.21 66.00"
/>
<path stroke="#a38d91" vector-effect="non-scaling-stroke" d="
  M 153.21 66.00
  Q 153.10 66.93 153.81 67.44
  Q 155.04 68.31 157.25 67.75
  Q 161.44 66.69 165.72 66.26
  Q 168.21 66.02 174.30 66.16
  Q 190.02 66.54 205.67 63.72
  C 206.15 63.63 206.50 63.23 206.51 62.76
  L 207.18 41.06
  C 207.19 40.71 206.83 40.48 206.52 40.64
  Q 197.68 45.13 190.69 51.19
  Q 189.42 52.29 188.01 52.53
  Q 185.62 52.95 185.23 53.11
  Q 174.51 57.48 163.25 60.21"
/>
<path stroke="#290f13" vector-effect="non-scaling-stroke" d="
  M 163.25 60.21
  Q 163.26 59.83 163.00 59.54"
/>
<path stroke="#a38d91" vector-effect="non-scaling-stroke" d="
  M 163.00 59.54
  Q 173.24 55.02 184.00 51.96"
/>
<path stroke="#7c5955" vector-effect="non-scaling-stroke" d="
  M 184.00 51.96
  L 186.05 50.47
  C 186.24 50.33 186.60 50.30 186.99 50.39
  Q 189.42 50.95 190.75 48.79"
/>
<path stroke="#a38d91" vector-effect="non-scaling-stroke" d="
  M 190.75 48.79
  Q 195.02 45.05 198.97 40.97
  Q 202.14 37.70 203.25 33.29"
/>
<path stroke="#7c5955" vector-effect="non-scaling-stroke" d="
  M 203.25 33.29
  Q 204.09 33.23 204.75 32.71"
/>
<path stroke="#9e8681" vector-effect="non-scaling-stroke" d="
  M 204.75 32.71
  L 205.75 33.04"
/>
<path stroke="#9e8681" vector-effect="non-scaling-stroke" d="
  M 205.75 33.04
  Q 205.65 34.32 204.82 35.31
  Q 202.79 37.70 205.69 37.27
  C 206.00 37.23 206.25 37.00 206.32 36.70
  Q 206.77 34.86 206.21 33.00"
/>
<path stroke="#9e8681" vector-effect="non-scaling-stroke" d="
  M 206.21 33.00
  L 206.21 28.50"
/>
<path stroke="#a38d91" vector-effect="non-scaling-stroke" d="
  M 206.21 28.50
  Q 206.65 21.86 206.09 15.24
  Q 206.01 14.30 206.11 13.27
  Q 206.21 12.28 206.25 11.29"
/>
<path stroke="#7c5955" vector-effect="non-scaling-stroke" d="
  M 206.25 11.29
  Q 206.98 8.73 205.96 6.38
  Q 205.93 6.31 205.59 5.18
  Q 205.23 3.96 203.50 4.79"
/>
<path stroke="#a38d91" vector-effect="non-scaling-stroke" d="
  M 203.50 4.79
  Q 202.69 4.82 202.68 5.51
  C 202.67 5.98 202.60 6.34 202.50 6.42
  Q 201.92 6.86 200.36 5.09
  C 199.94 4.61 199.35 4.31 198.72 4.25
  Q 191.67 3.58 185.25 4.04"
/>
<path stroke="#793945" vector-effect="non-scaling-stroke" d="
  M 185.25 4.04
  Q 184.34 4.06 183.50 3.71"
/>
<path stroke="#793945" vector-effect="non-scaling-stroke" d="
  M 179.25 3.54
  L 179.00 3.46"
/>
<path stroke="#7c5955" vector-effect="non-scaling-stroke" d="
  M 192.8803 67.1122
  C 192.86 66.86 190.86 66.85 188.4177 67.0820
  C 185.98 67.31 184.02 67.70 184.0397 67.9478
  C 184.06 68.20 186.06 68.21 188.5023 67.9780
  C 190.94 67.75 192.90 67.36 192.8803 67.1122"
/>
<path stroke="#35151a" vector-effect="non-scaling-stroke" d="
  M 44.50 2.04
  Q 48.04 5.16 52.32 2.81
  C 52.72 2.59 53.21 2.85 53.25 3.30
  Q 53.50 5.99 55.00 4.21
  C 55.19 3.98 55.50 3.85 55.82 3.87
  Q 57.57 3.96 57.00 2.29"
/>
<path stroke="#5d4d45" vector-effect="non-scaling-stroke" d="
  M 90.71 19.25
  Q 90.63 20.21 91.50 20.29"
/>
<path stroke="#858181" vector-effect="non-scaling-stroke" d="
  M 95.96 22.50
  Q 97.56 23.87 95.85 24.88
  Q 95.37 25.16 95.50 25.71"
/>
<path stroke="#858181" vector-effect="non-scaling-stroke" d="
  M 98.50 29.71
  L 91.19 29.90
  C 90.89 29.91 90.59 30.06 90.38 30.32
  Q 86.39 35.34 81.69 39.66
  Q 76.10 44.78 74.96 46.03
  Q 71.93 49.35 69.07 53.18
  Q 67.62 55.13 65.65 53.71
  Q 57.29 47.70 47.39 42.81
  Q 47.28 42.76 46.08 42.28
  Q 44.04 41.46 44.78 39.63
  Q 45.47 37.89 45.50 37.78
  Q 46.42 34.25 47.57 29.76
  C 47.66 29.40 47.35 29.07 46.99 29.13
  Q 39.85 30.27 32.25 29.28
  Q 29.91 28.97 31.32 27.53
  C 31.56 27.29 31.68 26.98 31.67 26.69
  L 31.29 16.50"
/>
<path stroke="#5d4d45" vector-effect="non-scaling-stroke" d="
  M 32.54 17.00
  Q 32.24 18.35 32.23 19.72
  Q 32.23 19.96 32.16 21.27
  Q 32.05 23.38 33.87 22.54
  C 34.19 22.39 34.39 22.10 34.35 21.82
  L 33.71 17.00"
/>
<path stroke="#858181" vector-effect="non-scaling-stroke" d="
  M 35.46 10.25
  L 36.27 12.94
  Q 36.50 13.69 36.62 13.83
  Q 38.24 15.80 40.78 15.84
  Q 43.13 15.87 43.22 15.88
  Q 49.92 16.56 57.40 16.78
  C 58.07 16.80 58.71 16.50 59.13 15.98
  L 63.04 11.13
  Q 64.18 9.72 62.37 9.77
  Q 49.89 10.06 39.50 9.21"
/>
<path stroke="#858181" vector-effect="non-scaling-stroke" d="
  M 39.75 8.54
  L 64.81 8.58
  C 65.14 8.58 65.45 8.46 65.69 8.24
  Q 67.79 6.32 64.25 6.46
  Q 58.86 6.68 53.50 6.25
  Q 49.25 5.91 42.75 6.54"
/>
<path stroke="#858181" vector-effect="non-scaling-stroke" d="
  M 68.3064 3.9406
  C 68.34 3.33 67.32 2.77 66.0320 2.7017
  C 64.74 2.63 63.67 3.07 63.6336 3.6794
  C 63.60 4.29 64.62 4.85 65.9080 4.9183
  C 67.20 4.99 68.27 4.55 68.3064 3.9406"
/>
<path stroke="#5b2d35" vector-effect="non-scaling-stroke" d="
  M 66.21 10.75
  Q 63.32 13.24 61.08 16.33
  Q 61.07 16.34 59.88 17.64
  Q 59.06 18.53 59.51 19.57
  C 59.63 19.83 59.55 20.13 59.33 20.27
  Q 54.64 23.29 51.81 28.13
  Q 51.57 28.54 51.13 28.81
  Q 48.37 30.52 47.88 33.69
  Q 47.79 34.22 48.28 34.02
  Q 49.82 33.41 50.71 32.15
  Q 52.49 29.60 52.58 29.51
  Q 54.93 27.01 57.03 24.31
  Q 58.99 21.79 61.55 19.23
  Q 64.99 15.80 67.75 11.79"
/>
<path stroke="#858181" vector-effect="non-scaling-stroke" d="
  M 67.75 11.79
  Q 68.69 10.48 69.80 9.32
  Q 69.87 9.25 71.51 8.08
  Q 72.82 7.15 71.81 5.52
  Q 70.73 3.76 69.94 5.67
  Q 68.72 8.67 66.21 10.75"
/>
<path stroke="#d5abb3" vector-effect="non-scaling-stroke" d="
  M 67.75 11.79
  Q 66.47 11.90 66.21 10.75"
/>
<path stroke="#858181" vector-effect="non-scaling-stroke" d="
  M 73.46 10.25
  Q 71.70 9.59 70.75 10.98
  L 67.86 15.21
  C 67.73 15.41 67.86 15.68 68.10 15.70
  Q 69.93 15.91 71.09 15.10
  Q 73.26 13.60 75.55 14.54
  C 75.85 14.67 76.18 14.64 76.41 14.47
  Q 79.20 12.39 73.46 10.25"
/>
<path stroke="#858181" vector-effect="non-scaling-stroke" d="
  M 80.86 29.03
  Q 83.58 26.39 85.93 23.39
  Q 86.59 22.55 87.40 21.92
  Q 88.22 21.27 89.04 20.62
  C 89.25 20.45 89.28 20.14 89.10 19.95
  Q 85.70 16.30 81.19 14.17
  Q 80.09 13.65 79.24 13.97
  Q 78.18 14.35 77.58 15.37
  C 77.19 16.03 76.38 16.32 75.65 16.06
  Q 72.78 15.01 70.44 16.69
  Q 69.08 17.67 66.74 17.13
  C 66.42 17.05 66.09 17.12 65.86 17.30
  Q 59.43 22.25 55.05 29.10
  Q 53.95 30.81 51.81 32.76
  C 51.14 33.37 50.96 34.36 51.37 35.17
  Q 52.25 36.91 53.80 38.37
  Q 55.36 39.85 55.54 41.02
  Q 55.82 42.79 54.83 44.40
  C 54.68 44.65 54.74 44.95 54.96 45.10
  L 61.65 49.58
  C 62.40 50.09 63.43 49.92 64.01 49.19
  Q 69.99 41.75 75.71 34.53
  Q 77.46 32.32 80.86 29.03"
/>
<path stroke="#5b2d35" vector-effect="non-scaling-stroke" d="
  M 57.00 18.71
  Q 57.43 18.51 57.76 18.58
  C 57.96 18.62 58.09 18.93 58.06 19.29
  Q 58.03 19.70 58.43 19.66
  C 58.66 19.64 58.83 19.43 58.84 19.17
  Q 58.89 17.23 56.25 18.04"
/>
<path stroke="#858181" vector-effect="non-scaling-stroke" d="
  M 56.25 18.04
  L 40.75 17.51
  C 40.42 17.50 40.11 17.64 39.92 17.88
  Q 39.01 19.05 39.41 20.33
  Q 39.46 20.51 40.50 21.86
  Q 41.12 22.68 41.06 23.76
  Q 41.04 24.20 40.72 23.83
  L 38.50 21.30
  C 38.11 20.85 37.92 20.28 38.00 19.74
  Q 38.49 16.36 36.55 18.09
  C 36.31 18.30 36.17 18.61 36.14 18.94
  Q 35.83 23.32 39.11 26.18
  C 39.33 26.37 39.65 26.46 39.99 26.42
  L 45.50 25.78
  C 45.87 25.74 46.17 25.59 46.32 25.38
  L 46.68 24.87
  C 46.89 24.58 47.16 24.38 47.43 24.32
  Q 50.34 23.66 52.50 24.00
  Q 53.28 24.12 53.44 23.81
  C 53.55 23.59 53.35 23.26 52.99 23.09
  Q 51.06 22.18 48.93 21.97
  Q 48.54 21.93 48.24 21.79
  Q 44.98 20.28 49.31 21.16
  Q 49.68 21.23 50.16 21.45
  Q 53.33 22.87 56.55 20.81
  Q 57.20 20.39 56.47 20.31
  L 51.17 19.72
  C 50.85 19.68 50.61 19.56 50.55 19.41
  Q 50.38 18.94 51.19 19.06
  Q 53.46 19.42 57.00 18.71"
/>
<path stroke="#d5abb3" vector-effect="non-scaling-stroke" d="
  M 56.25 18.04
  Q 57.32 18.08 57.00 18.71"
/>
<path stroke="#858181" vector-effect="non-scaling-stroke" d="
  M 87.49 24.93
  Q 88.52 25.63 89.37 26.32
  Q 89.75 26.63 90.04 27.23
  Q 90.79 28.80 91.41 27.04
  Q 91.58 26.57 91.93 26.24
  Q 94.94 23.47 90.67 21.51
  C 90.15 21.27 89.55 21.38 89.21 21.79
  L 87.33 24.03
  C 87.10 24.30 87.18 24.72 87.49 24.93"
/>
<path stroke="#5d4d45" vector-effect="non-scaling-stroke" d="
  M 32.36 24.56
  Q 32.58 25.71 33.60 24.68
  C 33.82 24.46 33.82 24.12 33.61 23.94
  Q 33.22 23.61 32.74 23.80
  C 32.46 23.91 32.30 24.23 32.36 24.56"
/>
<path stroke="#35151a" vector-effect="non-scaling-stroke" d="
  M 50.30 25.09
  Q 44.48 25.61 51.01 25.97
  C 51.37 25.99 51.69 25.85 51.80 25.60
  Q 52.12 24.93 50.30 25.09"
/>
<path stroke="#858181" vector-effect="non-scaling-stroke" d="
  M 86.99 31.82
  Q 91.82 28.94 87.15 26.14
  C 86.63 25.83 85.97 25.87 85.50 26.25
  Q 82.01 28.99 85.21 30.16
  C 85.53 30.28 85.78 30.49 85.91 30.76
  Q 86.88 32.87 84.81 31.44
  Q 84.11 30.95 83.22 29.72
  C 83.04 29.47 82.73 29.36 82.46 29.44
  Q 79.64 30.29 81.50 31.85
  Q 82.37 32.59 82.90 33.24
  Q 85.12 35.99 86.40 32.53
  C 86.51 32.23 86.72 31.98 86.99 31.82"
/>
<path stroke="#290f13" vector-effect="non-scaling-stroke" d="
  M 35.92 28.13
  Q 36.28 28.60 36.74 27.94
  C 36.92 27.68 36.85 27.33 36.58 27.22
  Q 36.25 27.10 35.99 27.30
  C 35.75 27.49 35.71 27.86 35.92 28.13"
/>
<path stroke="#0a0303" vector-effect="non-scaling-stroke" d="
  M 43.07 27.48
  Q 38.95 28.14 43.19 28.18
  Q 43.46 28.19 43.65 28.08
  Q 44.42 27.66 43.56 27.48
  Q 43.34 27.43 43.07 27.48"
/>
<path stroke="#7f7a71" vector-effect="non-scaling-stroke" d="
  M 72.79 45.25
  Q 72.84 45.88 72.34 45.64
  Q 71.17 45.09 70.15 44.31
  C 69.91 44.13 69.57 44.15 69.40 44.37
  L 67.32 47.00
  C 67.01 47.39 67.21 47.99 67.71 48.15
  Q 68.93 48.55 69.56 49.50
  C 69.74 49.76 70.05 49.86 70.26 49.73
  Q 71.12 49.20 71.00 48.04"
/>
<path stroke="#35151a" vector-effect="non-scaling-stroke" d="
  M 71.00 48.04
  Q 71.22 48.00 71.25 47.79"
/>
<path stroke="#7f7a71" vector-effect="non-scaling-stroke" d="
  M 71.25 47.79
  L 73.50 45.54"
/>
<path stroke="#858181" vector-effect="non-scaling-stroke" d="
  M 73.50 45.54
  L 83.06 36.52
  C 83.29 36.31 83.35 35.98 83.22 35.73
  Q 82.06 33.44 79.77 32.28
  C 79.50 32.14 79.17 32.19 78.95 32.39
  Q 73.88 37.06 70.49 43.06
  C 70.37 43.29 70.47 43.57 70.72 43.68
  Q 71.94 44.22 72.79 45.25"
/>
<path stroke="#faf8ef" vector-effect="non-scaling-stroke" d="
  M 73.50 45.54
  Q 73.10 45.50 72.79 45.25"
/>
<path stroke="#aa8c88" vector-effect="non-scaling-stroke" d="
  M 71.25 47.79
  Q 68.56 45.08 71.00 48.04"
/>
<path stroke="#858181" vector-effect="non-scaling-stroke" d="
  M 48.68 36.11
  L 46.33 39.11
  C 45.79 39.80 46.13 40.87 47.04 41.29
  L 52.80 44.02
  C 53.09 44.16 53.41 44.11 53.61 43.90
  Q 54.78 42.67 54.50 41.20
  Q 54.31 40.26 52.75 38.89
  Q 51.41 37.73 50.58 36.30
  C 50.16 35.58 49.17 35.48 48.68 36.11"
/>
<path stroke="#858181" vector-effect="non-scaling-stroke" d="
  M 67.33 48.73
  Q 66.02 47.80 64.98 49.56
  Q 64.74 49.97 64.32 50.26
  Q 63.28 50.96 64.50 51.24
  Q 64.98 51.34 65.31 51.54
  Q 66.16 52.07 67.05 52.52
  C 67.34 52.67 67.67 52.67 67.94 52.51
  Q 70.03 51.29 68.87 50.06
  Q 68.17 49.32 67.33 48.73"
/>
<path stroke="#5d4d45" vector-effect="non-scaling-stroke" d="
  M 1.29 47.50
  L 1.21 50.50"
/>
<path stroke="#d8cbc3" vector-effect="non-scaling-stroke" d="
  M 1.21 50.50
  Q 0.16 50.35 0.40 51.43
  Q 0.56 52.11 0.55 52.47
  Q 0.33 60.73 0.25 68.84
  C 0.25 69.18 0.47 69.47 0.79 69.56
  Q 3.96 70.41 3.75 68.29"
/>
<path stroke="#5d4d45" vector-effect="non-scaling-stroke" d="
  M 3.75 68.29
  Q 4.40 68.64 5.07 68.95
  Q 5.72 69.25 6.49 69.27
  Q 24.62 69.72 42.75 69.20
  Q 54.47 68.86 66.08 69.18
  Q 68.60 69.25 69.59 69.25
  L 106.93 68.97
  Q 107.68 68.97 107.95 68.97
  Q 124.38 69.37 139.75 68.96"
/>
<path stroke="#d5abb3" vector-effect="non-scaling-stroke" d="
  M 185.25 4.04
  L 179.79 5.00"
/>
<path stroke="#d8cbc3" vector-effect="non-scaling-stroke" d="
  M 203.50 4.79
  Q 203.89 7.40 204.25 10.00
  Q 204.46 11.52 206.25 11.29"
/>
<path stroke="#faf8ef" vector-effect="non-scaling-stroke" d="
  M 206.21 28.50
  Q 205.32 29.96 203.75 30.71"
/>
<path stroke="#d8cbc3" vector-effect="non-scaling-stroke" d="
  M 203.75 30.71
  Q 202.76 31.87 203.25 33.29"
/>
<path stroke="#d8cbc3" vector-effect="non-scaling-stroke" d="
  M 190.75 48.79
  Q 185.54 43.55 181.29 37.50"
/>
<path stroke="#d8cbc3" vector-effect="non-scaling-stroke" d="
  M 180.54 37.75
  L 186.97 47.07
  C 187.15 47.33 187.14 47.67 186.96 47.91
  Q 185.69 49.57 183.69 50.20
  Q 181.52 50.89 184.00 51.96"
/>
<path stroke="#858181" vector-effect="non-scaling-stroke" d="
  M 163.00 59.54
  Q 161.55 59.77 160.31 60.57
  Q 156.91 62.75 153.10 63.77
  Q 152.83 63.85 145.42 65.27
  Q 130.32 68.16 119.75 68.00
  Q 85.50 67.47 65.50 67.75
  Q 61.87 67.80 59.27 66.76
  C 59.00 66.65 58.69 66.72 58.49 66.93
  Q 56.02 69.53 53.09 67.60
  C 52.81 67.41 52.49 67.32 52.19 67.35
  Q 40.26 68.35 28.31 67.72
  C 28.03 67.70 27.77 67.51 27.63 67.23
  Q 26.88 65.66 24.75 64.75
  Q 23.98 64.42 24.17 64.92
  C 24.23 65.07 24.38 65.22 24.60 65.34
  Q 26.17 66.24 26.59 67.94
  C 26.65 68.19 26.45 68.43 26.19 68.40
  Q 23.15 68.07 21.71 65.25"
/>
<path stroke="#d5abb3" vector-effect="non-scaling-stroke" d="
  M 21.71 65.25
  L 22.25 64.79"
/>
<path stroke="#858181" vector-effect="non-scaling-stroke" d="
  M 22.25 64.79
  L 22.82 64.51
  C 23.04 64.40 23.05 64.10 22.85 63.95
  Q 16.77 59.47 10.00 58.50
  Q 8.16 58.24 7.17 57.12
  Q 5.77 55.54 5.70 55.47
  Q 3.25 53.17 3.25 49.54"
/>
<path stroke="#d8cbc3" vector-effect="non-scaling-stroke" d="
  M 89.00 10.29
  L 88.96 11.00"
/>
<path stroke="#d8cbc3" vector-effect="non-scaling-stroke" d="
  M 119.71 24.25
  Q 118.48 23.84 117.59 24.64
  Q 117.28 24.92 116.76 25.08
  L 114.75 25.71"
/>
<path stroke="#d8cbc3" vector-effect="non-scaling-stroke" d="
  M 110.50 25.96
  Q 110.48 25.26 111.00 25.07
  C 111.42 24.92 111.73 24.75 111.82 24.61
  Q 112.80 23.19 108.48 24.09
  C 107.78 24.24 107.06 24.19 106.39 23.94
  Q 104.88 23.37 105.25 25.29"
/>
<path stroke="#faf8ef" vector-effect="non-scaling-stroke" d="
  M 105.25 25.29
  Q 104.99 25.58 105.00 25.96"
/>
<path stroke="#d8cbc3" vector-effect="non-scaling-stroke" d="
  M 102.54 26.25
  L 99.91 24.31
  Q 99.33 23.88 99.09 23.83
  Q 98.18 23.67 98.44 24.12
  C 98.53 24.28 98.82 24.46 99.23 24.62
  Q 100.07 24.94 100.00 25.96"
/>
<path stroke="#d5abb3" vector-effect="non-scaling-stroke" d="
  M 100.21 19.50
  Q 104.60 16.90 99.50 17.79"
/>
<path stroke="#a38d91" vector-effect="non-scaling-stroke" d="
  M 117.1947 22.2224
  C 117.09 21.73 116.11 21.52 115.0092 21.7602
  C 113.91 22.00 113.10 22.59 113.2053 23.0776
  C 113.31 23.57 114.29 23.78 115.3908 23.5398
  C 116.49 23.30 117.30 22.71 117.1947 22.2224"
/>
<path stroke="#d2c4b3" vector-effect="non-scaling-stroke" d="
  M 107.00 26.46
  Q 107.75 24.75 105.25 25.29"
/>
<path stroke="#f4f1df" vector-effect="non-scaling-stroke" d="
  M 206.21 33.00
  L 205.75 33.04"
/>
<path stroke="#d2c4b3" vector-effect="non-scaling-stroke" d="
  M 204.75 32.71
  Q 205.56 31.02 203.75 30.71"
/>
<path stroke="#858181" vector-effect="non-scaling-stroke" d="
  M 74.8476 43.9275
  C 75.00 43.68 74.45 43.07 73.6125 42.5571
  C 72.78 42.04 71.98 41.83 71.8324 42.0725
  C 71.68 42.32 72.23 42.93 73.0675 43.4429
  C 73.90 43.96 74.70 44.17 74.8476 43.9275"
/>
<path stroke="#858181" vector-effect="non-scaling-stroke" d="
  M 153.21 66.00
  Q 154.22 64.75 155.31 64.31
  Q 159.96 62.46 163.25 60.21"
/>
<path stroke="#5b2d35" vector-effect="non-scaling-stroke" d="
  M 22.25 64.79
  L 20.54 64.00"
/>
<path stroke="#858181" vector-effect="non-scaling-stroke" d="
  M 20.54 64.00
  Q 14.98 59.19 7.48 59.00
  Q 5.35 58.94 6.84 60.47
  Q 8.12 61.79 10.58 62.24
  C 11.04 62.32 11.36 62.74 11.32 63.20
  Q 11.15 65.23 12.75 64.46"
/>
<path stroke="#35151a" vector-effect="non-scaling-stroke" d="
  M 12.75 64.46
  Q 13.78 64.36 14.25 65.21"
/>
<path stroke="#5d4d45" vector-effect="non-scaling-stroke" d="
  M 14.25 65.21
  Q 15.28 65.75 16.33 65.65
  C 16.68 65.61 16.98 65.43 17.12 65.17
  Q 17.43 64.59 16.75 64.21"
/>
<path stroke="#35151a" vector-effect="non-scaling-stroke" d="
  M 16.75 64.21
  Q 16.49 63.92 16.50 63.54"
/>
<path stroke="#858181" vector-effect="non-scaling-stroke" d="
  M 16.50 63.54
  Q 18.18 63.43 18.45 65.00
  C 18.52 65.39 18.70 65.69 18.92 65.75
  Q 19.35 65.88 19.75 65.46"
/>
<path stroke="#5b2d35" vector-effect="non-scaling-stroke" d="
  M 19.75 65.46
  Q 20.88 64.73 21.71 65.25"
/>
<path stroke="#5b2d35" vector-effect="non-scaling-stroke" d="
  M 151.75 66.04
  L 143.50 67.21"
/>
<path stroke="#858181" vector-effect="non-scaling-stroke" d="
  M 3.75 68.29
  Q 3.03 66.23 2.16 64.22
  Q 1.26 62.17 1.29 60.07
  Q 1.35 55.28 1.21 50.50"
/>
<path stroke="#35151a" vector-effect="non-scaling-stroke" d="
  M 5.75 57.47
  Q 5.31 56.21 4.56 56.05
  C 4.28 56.00 4.01 56.24 3.99 56.56
  Q 3.87 58.09 5.56 57.78
  C 5.71 57.75 5.80 57.61 5.75 57.47"
/>
<path stroke="#35151a" vector-effect="non-scaling-stroke" d="
  M 9.88 63.58
  Q 10.49 63.15 9.73 62.58
  C 9.48 62.39 9.14 62.37 8.86 62.52
  Q 7.79 63.09 8.97 63.63
  C 9.29 63.77 9.63 63.75 9.88 63.58"
/>
<path stroke="#290f13" vector-effect="non-scaling-stroke" d="
  M 12.63 66.19
  Q 11.87 65.82 10.99 65.92
  C 10.72 65.94 10.44 65.81 10.25 65.57
  Q 9.42 64.47 8.04 66.76
  Q 7.24 68.09 8.76 68.08
  L 15.75 68.02
  Q 16.31 68.02 15.94 67.61
  Q 15.02 66.56 13.57 66.45
  Q 13.11 66.41 12.63 66.19"
/>
<path stroke="#5d4d45" vector-effect="non-scaling-stroke" d="
  M 6.7582 68.2238
  C 7.23 67.94 7.30 67.19 6.9136 66.5590
  C 6.53 65.93 5.83 65.65 5.3618 65.9362
  C 4.89 66.22 4.82 66.97 5.2064 67.6010
  C 5.59 68.23 6.29 68.51 6.7582 68.2238"
/>
<path stroke="#d5abb3" vector-effect="non-scaling-stroke" d="
  M 20.54 64.00
  Q 20.57 64.96 19.75 65.46"
/>
<path stroke="#b09398" vector-effect="non-scaling-stroke" d="
  M 16.50 63.54
  L 12.75 64.46"
/>
<path stroke="#885f5c" vector-effect="non-scaling-stroke" d="
  M 16.75 64.21
  Q 15.18 64.16 14.25 65.21"
/>
</g>
<path fill="#b09786" d="
  M 0.00 0.00
  Q 7.16 0.00 14.31 0.00
  Q 5.66 0.85 3.25 0.25
  Q -0.38 -0.65 0.00 2.94
  Q 0.00 1.47 0.00 0.00
  Z"
/>
<path fill="#f4f1df" d="
  M 14.31 0.00
  Q 16.56 0.00 18.81 0.00
  Q 31.69 0.65 44.56 0.00
  Q 45.06 0.00 45.56 0.00
  Q 51.19 0.63 56.81 0.00
  Q 57.06 0.00 57.31 0.00
  Q 68.85 0.53 80.39 0.43
  Q 93.68 0.33 99.60 0.33
  Q 109.21 0.32 118.81 0.00
  Q 119.56 0.00 120.31 0.00
  Q 121.65 0.37 124.56 0.31
  Q 140.83 0.00 170.19 0.44
  Q 171.10 0.45 173.81 0.00
  Q 175.56 0.00 177.31 0.00
  Q 179.98 0.18 182.64 0.37
  Q 184.52 0.50 187.97 0.29
  Q 191.23 0.09 194.49 0.54
  Q 195.57 0.69 195.00 1.46
  L 182.50 1.54
  Q 177.32 1.28 173.50 1.75
  Q 172.91 1.82 172.46 2.50
  L 171.79 2.50
  Q 171.17 1.50 169.75 1.50
  Q 121.75 1.61 73.75 1.96
  Q 65.36 1.31 57.00 2.29
  Q 50.76 1.40 44.50 2.04
  Q 42.66 1.68 40.96 2.25
  Q 21.65 0.81 3.43 1.75
  Q 1.25 1.87 1.24 4.07
  L 1.21 24.00
  Q -0.14 21.47 0.31 17.56
  Q 0.76 13.72 0.00 3.69
  Q 0.00 3.31 0.00 2.94
  Q -0.38 -0.65 3.25 0.25
  Q 5.66 0.85 14.31 0.00
  Z"
/>
<path fill="#b09786" d="
  M 18.81 0.00
  Q 31.69 0.00 44.56 0.00
  Q 31.69 0.65 18.81 0.00
  Z"
/>
<path fill="#b09786" d="
  M 45.56 0.00
  Q 51.19 0.00 56.81 0.00
  Q 51.19 0.63 45.56 0.00
  Z"
/>
<path fill="#b09786" d="
  M 57.31 0.00
  Q 88.06 0.00 118.81 0.00
  Q 109.21 0.32 99.60 0.33
  Q 93.68 0.33 80.39 0.43
  Q 68.85 0.53 57.31 0.00
  Z"
/>
<path fill="#b09786" d="
  M 120.31 0.00
  Q 147.06 0.00 173.81 0.00
  Q 171.10 0.45 170.19 0.44
  Q 140.83 0.00 124.56 0.31
  Q 121.65 0.37 120.31 0.00
  Z"
/>
<path fill="#b09786" d="
  M 177.31 0.00
  Q 192.66 0.00 208.00 0.00
  Q 208.00 2.91 208.00 5.81
  Q 208.23 3.51 206.81 2.13
  C 206.58 1.91 206.27 1.78 205.95 1.77
  L 195.00 1.46
  Q 195.57 0.69 194.49 0.54
  Q 191.23 0.09 187.97 0.29
  Q 184.52 0.50 182.64 0.37
  Q 179.98 0.18 177.31 0.00
  Z"
/>
<path fill="#602631" d="
  M 40.96 2.25
  Q 41.30 2.90 42.01 2.85
  C 42.42 2.82 42.75 2.88 42.93 3.01
  Q 43.89 3.69 41.76 3.77
  C 41.46 3.78 41.20 3.99 41.12 4.28
  Q 40.41 7.06 42.75 6.54
  Q 41.41 6.98 40.02 7.00
  Q 39.43 7.02 39.01 7.15
  Q 35.16 8.41 39.75 8.54
  Q 39.49 8.83 39.50 9.21
  L 36.30 9.29
  C 35.93 9.30 35.62 9.47 35.52 9.72
  Q 35.42 9.96 35.46 10.25
  L 34.49 10.55
  C 34.29 10.61 34.18 10.92 34.24 11.27
  L 34.95 15.19
  C 34.99 15.42 34.82 15.72 34.52 15.95
  Q 33.98 16.35 33.71 17.00
  L 32.54 17.00
  Q 32.22 16.17 31.29 16.50
  L 30.76 11.25
  C 30.72 10.90 30.59 10.59 30.39 10.40
  Q 28.15 8.24 25.97 6.03
  Q 24.40 4.42 21.00 4.25
  Q 17.52 4.08 14.96 5.15
  Q 12.93 6.00 10.05 8.43
  Q 5.27 12.48 4.00 18.75
  Q 1.35 31.88 3.25 46.00
  Q 3.58 48.48 3.25 49.54
  L 1.29 47.50
  L 1.21 24.00
  L 1.24 4.07
  Q 1.25 1.87 3.43 1.75
  Q 21.65 0.81 40.96 2.25
  Z
  M 28.95 6.74
  Q 30.42 8.98 30.86 6.80
  C 30.92 6.50 30.84 6.17 30.65 5.90
  L 29.29 3.92
  C 29.11 3.66 28.81 3.51 28.50 3.55
  Q 24.48 4.03 28.24 6.08
  Q 28.67 6.31 28.95 6.74
  Z
  M 7.00 5.71
  Q 5.16 7.68 5.19 10.95
  Q 5.20 11.47 5.51 11.06
  Q 7.30 8.75 7.79 6.25
  Q 10.41 4.22 7.00 5.71
  Z"
/>
<path fill="#602631" d="
  M 171.79 2.50
  Q 171.87 3.97 172.95 3.99
  Q 173.42 4.00 173.03 3.64
  Q 172.55 3.19 172.46 2.50
  Q 172.91 1.82 173.50 1.75
  Q 177.32 1.28 182.50 1.54
  Q 181.80 1.91 181.00 1.75
  Q 178.74 1.29 179.00 3.46
  L 175.75 3.69
  Q 175.19 3.73 175.62 4.10
  Q 177.74 5.98 179.25 3.54
  L 183.50 3.71
  Q 182.00 3.78 180.50 3.73
  Q 179.32 3.70 179.79 5.00
  Q 176.37 9.08 176.27 14.50
  Q 176.17 19.65 176.35 24.79
  Q 176.50 29.02 177.53 31.55
  Q 178.86 34.80 181.29 37.50
  Q 181.04 37.89 180.54 37.75
  Q 179.04 35.84 177.53 33.93
  Q 175.50 31.36 172.64 30.24
  Q 170.73 29.49 166.76 29.54
  Q 132.63 29.95 98.50 29.71
  Q 99.83 29.26 100.75 29.50
  Q 102.34 29.92 102.45 28.81
  C 102.48 28.53 102.23 28.29 101.93 28.30
  L 93.06 28.42
  C 92.82 28.42 92.66 28.18 92.76 27.97
  Q 93.58 26.29 95.50 25.71
  L 100.00 25.96
  Q 101.37 26.83 102.54 26.25
  L 105.00 25.96
  Q 105.94 26.46 107.00 26.46
  L 110.50 25.96
  L 114.75 25.71
  L 119.94 25.93
  C 120.21 25.94 120.42 25.69 120.36 25.44
  Q 120.20 24.79 119.71 24.25
  Q 120.41 23.87 121.06 24.19
  Q 121.97 24.64 122.02 24.66
  Q 123.51 25.02 124.83 24.27
  C 125.14 24.10 125.46 24.02 125.76 24.04
  Q 129.05 24.30 132.32 24.00
  Q 136.81 23.59 138.84 23.62
  Q 151.79 23.81 164.75 23.69
  Q 168.42 23.66 171.73 22.15
  C 172.05 22.01 172.25 21.73 172.26 21.44
  Q 172.27 20.53 171.19 20.56
  Q 157.27 21.01 146.00 19.75
  Q 135.73 18.59 128.25 18.75
  Q 126.72 18.78 125.74 18.31
  Q 125.23 18.07 125.80 17.98
  Q 128.58 17.55 135.00 17.75
  Q 141.31 17.95 147.61 18.44
  Q 154.96 19.02 159.92 19.10
  Q 165.88 19.19 172.27 19.26
  C 172.52 19.27 172.74 19.04 172.76 18.75
  L 173.07 14.80
  C 173.09 14.52 172.93 14.27 172.70 14.22
  Q 159.72 11.76 146.50 11.69
  Q 136.83 11.63 127.17 11.89
  Q 126.71 11.90 119.35 12.41
  Q 115.09 12.70 111.50 12.25
  Q 108.01 11.81 105.16 11.73
  Q 101.31 11.61 98.88 11.18
  Q 95.44 10.56 92.00 10.03
  Q 90.44 9.79 89.00 10.29
  Q 87.76 10.60 86.58 10.14
  Q 86.17 9.99 85.90 9.96
  Q 84.36 9.84 85.50 10.75
  Q 86.61 11.64 88.96 11.00
  Q 91.65 13.61 96.24 13.78
  C 96.96 13.80 97.65 14.06 98.21 14.51
  Q 100.88 16.64 96.28 15.82
  Q 93.78 15.37 94.78 17.02
  C 94.91 17.24 95.20 17.39 95.55 17.42
  L 99.50 17.79
  Q 99.62 18.78 100.21 19.50
  Q 102.19 21.13 103.75 20.50
  Q 106.08 19.56 110.00 20.68
  C 110.46 20.81 110.95 20.77 111.39 20.57
  Q 113.02 19.82 112.40 21.69
  C 112.35 21.83 112.42 21.99 112.55 22.06
  Q 113.34 22.48 112.50 22.43
  Q 105.60 22.02 98.69 21.85
  Q 97.23 21.81 95.96 22.50
  Q 94.17 20.47 91.50 20.29
  Q 92.20 20.46 92.52 20.19
  C 92.74 20.00 92.67 19.63 92.38 19.43
  Q 91.64 18.90 90.71 19.25
  Q 89.80 17.62 88.27 16.69
  Q 85.67 15.12 85.44 14.96
  Q 83.10 13.34 80.24 12.83
  C 79.99 12.79 79.68 12.89 79.41 13.11
  Q 78.77 13.65 78.50 12.51
  C 78.34 11.82 77.87 11.25 77.23 10.96
  Q 74.21 9.60 74.26 7.56
  C 74.27 7.22 74.50 6.95 74.80 6.94
  L 78.71 6.84
  C 78.95 6.84 79.14 6.64 79.08 6.46
  Q 78.67 5.21 77.07 5.36
  Q 76.08 5.46 76.20 4.54
  C 76.24 4.23 76.50 4.00 76.81 4.01
  L 79.45 4.10
  C 79.72 4.11 79.93 3.90 79.87 3.69
  L 79.48 2.45
  C 79.40 2.19 79.11 2.01 78.76 2.00
  L 73.75 1.96
  Q 121.75 1.61 169.75 1.50
  Q 171.17 1.50 171.79 2.50
  Z
  M 85.5028 3.9413
  C 85.54 3.40 85.14 2.93 84.5972 2.8922
  L 81.9044 2.6945
  C 81.36 2.65 80.89 3.06 80.8553 3.6001
  L 80.8172 4.1187
  C 80.78 4.66 81.18 5.13 81.7228 5.1678
  L 84.4156 5.3655
  C 84.96 5.41 85.43 5.00 85.4647 4.4599
  L 85.5028 3.9413
  Z
  M 112.55 7.51
  Q 113.62 5.80 115.31 7.22
  C 115.58 7.44 115.89 7.57 116.18 7.59
  Q 124.12 7.97 128.75 7.75
  Q 139.36 7.24 147.51 7.92
  Q 155.03 8.56 162.56 8.91
  C 162.88 8.93 163.19 9.04 163.47 9.22
  Q 165.01 10.23 165.63 9.93
  Q 167.11 9.20 168.74 9.48
  Q 174.20 10.45 173.39 6.98
  C 173.32 6.68 173.11 6.42 172.82 6.25
  Q 169.77 4.47 168.50 4.50
  Q 155.38 4.78 142.27 4.61
  Q 136.45 4.54 128.78 5.22
  Q 119.04 6.08 109.25 5.91
  Q 102.17 5.78 95.08 5.75
  Q 93.26 5.75 89.00 6.46
  Q 85.08 7.12 80.83 6.43
  Q 78.72 6.09 80.23 7.61
  Q 80.81 8.19 81.86 8.52
  Q 82.57 8.75 83.67 8.75
  Q 93.01 8.71 94.81 8.31
  Q 100.77 6.99 106.59 8.79
  C 106.88 8.88 107.21 8.87 107.53 8.77
  Q 109.83 8.02 112.56 8.94
  Q 114.28 9.51 113.99 8.41
  C 113.90 8.05 113.63 7.79 113.34 7.80
  L 112.79 7.80
  Q 112.37 7.80 112.55 7.51
  Z
  M 166.75 11.71
  L 172.70 12.83
  C 173.00 12.89 173.28 12.73 173.36 12.47
  Q 173.86 10.82 172.19 10.67
  Q 169.38 10.42 166.75 11.29
  Q 161.85 10.30 156.89 10.14
  Q 147.25 9.83 147.01 9.81
  Q 130.48 8.71 116.75 9.75
  Q 111.98 10.11 110.41 10.01
  Q 110.21 10.00 110.10 10.08
  Q 109.90 10.22 110.06 10.43
  Q 110.15 10.56 110.38 10.60
  Q 114.33 11.46 119.50 11.00
  Q 124.23 10.58 130.18 10.75
  Q 135.99 10.91 140.82 10.77
  Q 153.81 10.37 166.75 11.71
  Z
  M 162.9805 25.5997
  C 162.98 25.46 162.86 25.34 162.7210 25.3392
  L 129.2610 25.2808
  C 129.12 25.28 129.00 25.40 129.0005 25.5403
  L 128.9995 26.1403
  C 129.00 26.28 129.12 26.40 129.2590 26.4008
  L 162.7190 26.4592
  C 162.86 26.46 162.98 26.34 162.9795 26.1997
  L 162.9805 25.5997
  Z
  M 176.10 29.62
  Q 176.53 29.29 175.61 28.89
  Q 175.26 28.74 174.88 28.81
  Q 173.44 29.08 175.24 29.67
  C 175.58 29.78 175.90 29.76 176.10 29.62
  Z"
/>
<path fill="#471b23" d="
  M 182.50 1.54
  L 195.00 1.46
  L 205.95 1.77
  C 206.27 1.78 206.58 1.91 206.81 2.13
  Q 208.23 3.51 208.00 5.81
  Q 208.00 8.56 208.00 11.31
  Q 207.37 20.69 208.00 30.06
  Q 208.00 45.69 208.00 61.31
  Q 207.43 64.00 207.86 67.66
  C 207.96 68.53 207.27 69.29 206.39 69.27
  Q 198.49 69.11 191.75 69.57
  Q 183.85 70.11 176.00 69.00
  Q 172.12 68.45 157.50 69.22
  Q 148.62 69.69 139.75 68.96
  Q 141.42 67.69 143.50 67.21
  Q 144.45 67.46 148.44 67.56
  Q 150.90 67.63 151.75 66.04
  L 153.21 66.00
  Q 153.10 66.93 153.81 67.44
  Q 155.04 68.31 157.25 67.75
  Q 161.44 66.69 165.72 66.26
  Q 168.21 66.02 174.30 66.16
  Q 190.02 66.54 205.67 63.72
  C 206.15 63.63 206.50 63.23 206.51 62.76
  L 207.18 41.06
  C 207.19 40.71 206.83 40.48 206.52 40.64
  Q 197.68 45.13 190.69 51.19
  Q 189.42 52.29 188.01 52.53
  Q 185.62 52.95 185.23 53.11
  Q 174.51 57.48 163.25 60.21
  Q 163.26 59.83 163.00 59.54
  Q 173.24 55.02 184.00 51.96
  L 186.05 50.47
  C 186.24 50.33 186.60 50.30 186.99 50.39
  Q 189.42 50.95 190.75 48.79
  Q 195.02 45.05 198.97 40.97
  Q 202.14 37.70 203.25 33.29
  Q 204.09 33.23 204.75 32.71
  L 205.75 33.04
  Q 205.65 34.32 204.82 35.31
  Q 202.79 37.70 205.69 37.27
  C 206.00 37.23 206.25 37.00 206.32 36.70
  Q 206.77 34.86 206.21 33.00
  L 206.21 28.50
  Q 206.65 21.86 206.09 15.24
  Q 206.01 14.30 206.11 13.27
  Q 206.21 12.28 206.25 11.29
  Q 206.98 8.73 205.96 6.38
  Q 205.93 6.31 205.59 5.18
  Q 205.23 3.96 203.50 4.79
  Q 202.69 4.82 202.68 5.51
  C 202.67 5.98 202.60 6.34 202.50 6.42
  Q 201.92 6.86 200.36 5.09
  C 199.94 4.61 199.35 4.31 198.72 4.25
  Q 191.67 3.58 185.25 4.04
  Q 184.34 4.06 183.50 3.71
  L 179.25 3.54
  L 179.00 3.46
  Q 178.74 1.29 181.00 1.75
  Q 181.80 1.91 182.50 1.54
  Z
  M 192.8803 67.1122
  C 192.86 66.86 190.86 66.85 188.4177 67.0820
  C 185.98 67.31 184.02 67.70 184.0397 67.9478
  C 184.06 68.20 186.06 68.21 188.5023 67.9780
  C 190.94 67.75 192.90 67.36 192.8803 67.1122
  Z"
/>
<path fill="#0a0303" d="
  M 44.50 2.04
  Q 48.04 5.16 52.32 2.81
  C 52.72 2.59 53.21 2.85 53.25 3.30
  Q 53.50 5.99 55.00 4.21
  C 55.19 3.98 55.50 3.85 55.82 3.87
  Q 57.57 3.96 57.00 2.29
  Q 65.36 1.31 73.75 1.96
  L 78.76 2.00
  C 79.11 2.01 79.40 2.19 79.48 2.45
  L 79.87 3.69
  C 79.93 3.90 79.72 4.11 79.45 4.10
  L 76.81 4.01
  C 76.50 4.00 76.24 4.23 76.20 4.54
  Q 76.08 5.46 77.07 5.36
  Q 78.67 5.21 79.08 6.46
  C 79.14 6.64 78.95 6.84 78.71 6.84
  L 74.80 6.94
  C 74.50 6.95 74.27 7.22 74.26 7.56
  Q 74.21 9.60 77.23 10.96
  C 77.87 11.25 78.34 11.82 78.50 12.51
  Q 78.77 13.65 79.41 13.11
  C 79.68 12.89 79.99 12.79 80.24 12.83
  Q 83.10 13.34 85.44 14.96
  Q 85.67 15.12 88.27 16.69
  Q 89.80 17.62 90.71 19.25
  Q 90.63 20.21 91.50 20.29
  Q 94.17 20.47 95.96 22.50
  Q 97.56 23.87 95.85 24.88
  Q 95.37 25.16 95.50 25.71
  Q 93.58 26.29 92.76 27.97
  C 92.66 28.18 92.82 28.42 93.06 28.42
  L 101.93 28.30
  C 102.23 28.29 102.48 28.53 102.45 28.81
  Q 102.34 29.92 100.75 29.50
  Q 99.83 29.26 98.50 29.71
  L 91.19 29.90
  C 90.89 29.91 90.59 30.06 90.38 30.32
  Q 86.39 35.34 81.69 39.66
  Q 76.10 44.78 74.96 46.03
  Q 71.93 49.35 69.07 53.18
  Q 67.62 55.13 65.65 53.71
  Q 57.29 47.70 47.39 42.81
  Q 47.28 42.76 46.08 42.28
  Q 44.04 41.46 44.78 39.63
  Q 45.47 37.89 45.50 37.78
  Q 46.42 34.25 47.57 29.76
  C 47.66 29.40 47.35 29.07 46.99 29.13
  Q 39.85 30.27 32.25 29.28
  Q 29.91 28.97 31.32 27.53
  C 31.56 27.29 31.68 26.98 31.67 26.69
  L 31.29 16.50
  Q 32.22 16.17 32.54 17.00
  Q 32.24 18.35 32.23 19.72
  Q 32.23 19.96 32.16 21.27
  Q 32.05 23.38 33.87 22.54
  C 34.19 22.39 34.39 22.10 34.35 21.82
  L 33.71 17.00
  Q 33.98 16.35 34.52 15.95
  C 34.82 15.72 34.99 15.42 34.95 15.19
  L 34.24 11.27
  C 34.18 10.92 34.29 10.61 34.49 10.55
  L 35.46 10.25
  L 36.27 12.94
  Q 36.50 13.69 36.62 13.83
  Q 38.24 15.80 40.78 15.84
  Q 43.13 15.87 43.22 15.88
  Q 49.92 16.56 57.40 16.78
  C 58.07 16.80 58.71 16.50 59.13 15.98
  L 63.04 11.13
  Q 64.18 9.72 62.37 9.77
  Q 49.89 10.06 39.50 9.21
  Q 39.49 8.83 39.75 8.54
  L 64.81 8.58
  C 65.14 8.58 65.45 8.46 65.69 8.24
  Q 67.79 6.32 64.25 6.46
  Q 58.86 6.68 53.50 6.25
  Q 49.25 5.91 42.75 6.54
  Q 40.41 7.06 41.12 4.28
  C 41.20 3.99 41.46 3.78 41.76 3.77
  Q 43.89 3.69 42.93 3.01
  C 42.75 2.88 42.42 2.82 42.01 2.85
  Q 41.30 2.90 40.96 2.25
  Q 42.66 1.68 44.50 2.04
  Z
  M 68.3064 3.9406
  C 68.34 3.33 67.32 2.77 66.0320 2.7017
  C 64.74 2.63 63.67 3.07 63.6336 3.6794
  C 63.60 4.29 64.62 4.85 65.9080 4.9183
  C 67.20 4.99 68.27 4.55 68.3064 3.9406
  Z
  M 66.21 10.75
  Q 63.32 13.24 61.08 16.33
  Q 61.07 16.34 59.88 17.64
  Q 59.06 18.53 59.51 19.57
  C 59.63 19.83 59.55 20.13 59.33 20.27
  Q 54.64 23.29 51.81 28.13
  Q 51.57 28.54 51.13 28.81
  Q 48.37 30.52 47.88 33.69
  Q 47.79 34.22 48.28 34.02
  Q 49.82 33.41 50.71 32.15
  Q 52.49 29.60 52.58 29.51
  Q 54.93 27.01 57.03 24.31
  Q 58.99 21.79 61.55 19.23
  Q 64.99 15.80 67.75 11.79
  Q 68.69 10.48 69.80 9.32
  Q 69.87 9.25 71.51 8.08
  Q 72.82 7.15 71.81 5.52
  Q 70.73 3.76 69.94 5.67
  Q 68.72 8.67 66.21 10.75
  Z
  M 73.46 10.25
  Q 71.70 9.59 70.75 10.98
  L 67.86 15.21
  C 67.73 15.41 67.86 15.68 68.10 15.70
  Q 69.93 15.91 71.09 15.10
  Q 73.26 13.60 75.55 14.54
  C 75.85 14.67 76.18 14.64 76.41 14.47
  Q 79.20 12.39 73.46 10.25
  Z
  M 80.86 29.03
  Q 83.58 26.39 85.93 23.39
  Q 86.59 22.55 87.40 21.92
  Q 88.22 21.27 89.04 20.62
  C 89.25 20.45 89.28 20.14 89.10 19.95
  Q 85.70 16.30 81.19 14.17
  Q 80.09 13.65 79.24 13.97
  Q 78.18 14.35 77.58 15.37
  C 77.19 16.03 76.38 16.32 75.65 16.06
  Q 72.78 15.01 70.44 16.69
  Q 69.08 17.67 66.74 17.13
  C 66.42 17.05 66.09 17.12 65.86 17.30
  Q 59.43 22.25 55.05 29.10
  Q 53.95 30.81 51.81 32.76
  C 51.14 33.37 50.96 34.36 51.37 35.17
  Q 52.25 36.91 53.80 38.37
  Q 55.36 39.85 55.54 41.02
  Q 55.82 42.79 54.83 44.40
  C 54.68 44.65 54.74 44.95 54.96 45.10
  L 61.65 49.58
  C 62.40 50.09 63.43 49.92 64.01 49.19
  Q 69.99 41.75 75.71 34.53
  Q 77.46 32.32 80.86 29.03
  Z
  M 57.00 18.71
  Q 57.43 18.51 57.76 18.58
  C 57.96 18.62 58.09 18.93 58.06 19.29
  Q 58.03 19.70 58.43 19.66
  C 58.66 19.64 58.83 19.43 58.84 19.17
  Q 58.89 17.23 56.25 18.04
  L 40.75 17.51
  C 40.42 17.50 40.11 17.64 39.92 17.88
  Q 39.01 19.05 39.41 20.33
  Q 39.46 20.51 40.50 21.86
  Q 41.12 22.68 41.06 23.76
  Q 41.04 24.20 40.72 23.83
  L 38.50 21.30
  C 38.11 20.85 37.92 20.28 38.00 19.74
  Q 38.49 16.36 36.55 18.09
  C 36.31 18.30 36.17 18.61 36.14 18.94
  Q 35.83 23.32 39.11 26.18
  C 39.33 26.37 39.65 26.46 39.99 26.42
  L 45.50 25.78
  C 45.87 25.74 46.17 25.59 46.32 25.38
  L 46.68 24.87
  C 46.89 24.58 47.16 24.38 47.43 24.32
  Q 50.34 23.66 52.50 24.00
  Q 53.28 24.12 53.44 23.81
  C 53.55 23.59 53.35 23.26 52.99 23.09
  Q 51.06 22.18 48.93 21.97
  Q 48.54 21.93 48.24 21.79
  Q 44.98 20.28 49.31 21.16
  Q 49.68 21.23 50.16 21.45
  Q 53.33 22.87 56.55 20.81
  Q 57.20 20.39 56.47 20.31
  L 51.17 19.72
  C 50.85 19.68 50.61 19.56 50.55 19.41
  Q 50.38 18.94 51.19 19.06
  Q 53.46 19.42 57.00 18.71
  Z
  M 87.49 24.93
  Q 88.52 25.63 89.37 26.32
  Q 89.75 26.63 90.04 27.23
  Q 90.79 28.80 91.41 27.04
  Q 91.58 26.57 91.93 26.24
  Q 94.94 23.47 90.67 21.51
  C 90.15 21.27 89.55 21.38 89.21 21.79
  L 87.33 24.03
  C 87.10 24.30 87.18 24.72 87.49 24.93
  Z
  M 32.36 24.56
  Q 32.58 25.71 33.60 24.68
  C 33.82 24.46 33.82 24.12 33.61 23.94
  Q 33.22 23.61 32.74 23.80
  C 32.46 23.91 32.30 24.23 32.36 24.56
  Z
  M 50.30 25.09
  Q 44.48 25.61 51.01 25.97
  C 51.37 25.99 51.69 25.85 51.80 25.60
  Q 52.12 24.93 50.30 25.09
  Z
  M 86.99 31.82
  Q 91.82 28.94 87.15 26.14
  C 86.63 25.83 85.97 25.87 85.50 26.25
  Q 82.01 28.99 85.21 30.16
  C 85.53 30.28 85.78 30.49 85.91 30.76
  Q 86.88 32.87 84.81 31.44
  Q 84.11 30.95 83.22 29.72
  C 83.04 29.47 82.73 29.36 82.46 29.44
  Q 79.64 30.29 81.50 31.85
  Q 82.37 32.59 82.90 33.24
  Q 85.12 35.99 86.40 32.53
  C 86.51 32.23 86.72 31.98 86.99 31.82
  Z
  M 35.92 28.13
  Q 36.28 28.60 36.74 27.94
  C 36.92 27.68 36.85 27.33 36.58 27.22
  Q 36.25 27.10 35.99 27.30
  C 35.75 27.49 35.71 27.86 35.92 28.13
  Z
  M 43.07 27.48
  Q 38.95 28.14 43.19 28.18
  Q 43.46 28.19 43.65 28.08
  Q 44.42 27.66 43.56 27.48
  Q 43.34 27.43 43.07 27.48
  Z
  M 72.79 45.25
  Q 72.84 45.88 72.34 45.64
  Q 71.17 45.09 70.15 44.31
  C 69.91 44.13 69.57 44.15 69.40 44.37
  L 67.32 47.00
  C 67.01 47.39 67.21 47.99 67.71 48.15
  Q 68.93 48.55 69.56 49.50
  C 69.74 49.76 70.05 49.86 70.26 49.73
  Q 71.12 49.20 71.00 48.04
  Q 71.22 48.00 71.25 47.79
  L 73.50 45.54
  L 83.06 36.52
  C 83.29 36.31 83.35 35.98 83.22 35.73
  Q 82.06 33.44 79.77 32.28
  C 79.50 32.14 79.17 32.19 78.95 32.39
  Q 73.88 37.06 70.49 43.06
  C 70.37 43.29 70.47 43.57 70.72 43.68
  Q 71.94 44.22 72.79 45.25
  Z
  M 48.68 36.11
  L 46.33 39.11
  C 45.79 39.80 46.13 40.87 47.04 41.29
  L 52.80 44.02
  C 53.09 44.16 53.41 44.11 53.61 43.90
  Q 54.78 42.67 54.50 41.20
  Q 54.31 40.26 52.75 38.89
  Q 51.41 37.73 50.58 36.30
  C 50.16 35.58 49.17 35.48 48.68 36.11
  Z
  M 67.33 48.73
  Q 66.02 47.80 64.98 49.56
  Q 64.74 49.97 64.32 50.26
  Q 63.28 50.96 64.50 51.24
  Q 64.98 51.34 65.31 51.54
  Q 66.16 52.07 67.05 52.52
  C 67.34 52.67 67.67 52.67 67.94 52.51
  Q 70.03 51.29 68.87 50.06
  Q 68.17 49.32 67.33 48.73
  Z"
/>
<path fill="#602631" d="
  M 57.00 2.29
  Q 57.57 3.96 55.82 3.87
  C 55.50 3.85 55.19 3.98 55.00 4.21
  Q 53.50 5.99 53.25 3.30
  C 53.21 2.85 52.72 2.59 52.32 2.81
  Q 48.04 5.16 44.50 2.04
  Q 50.76 1.40 57.00 2.29
  Z"
/>
<path fill="#b09786" d="
  M 171.79 2.50
  L 172.46 2.50
  Q 172.55 3.19 173.03 3.64
  Q 173.42 4.00 172.95 3.99
  Q 171.87 3.97 171.79 2.50
  Z"
/>
<ellipse fill="#ffffff" cx="0.00" cy="0.00" transform="translate(65.97,3.81) rotate(3.2)" rx="2.34" ry="1.11"/>
<rect fill="#f4f1df" x="-2.33" y="-1.24" transform="translate(83.16,4.03) rotate(4.2)" width="4.66" height="2.48" rx="0.98"/>
<path fill="#ab5667" d="
  M 28.24 6.08
  Q 24.48 4.03 28.50 3.55
  C 28.81 3.51 29.11 3.66 29.29 3.92
  L 30.65 5.90
  C 30.84 6.17 30.92 6.50 30.86 6.80
  Q 30.42 8.98 28.95 6.74
  Q 28.67 6.31 28.24 6.08
  Z"
/>
<path fill="#ab5667" d="
  M 179.00 3.46
  L 179.25 3.54
  Q 177.74 5.98 175.62 4.10
  Q 175.19 3.73 175.75 3.69
  L 179.00 3.46
  Z"
/>
<path fill="#b09786" d="
  M 0.00 3.69
  Q 0.76 13.72 0.31 17.56
  Q -0.14 21.47 1.21 24.00
  L 1.29 47.50
  L 1.21 50.50
  Q 0.16 50.35 0.40 51.43
  Q 0.56 52.11 0.55 52.47
  Q 0.33 60.73 0.25 68.84
  C 0.25 69.18 0.47 69.47 0.79 69.56
  Q 3.96 70.41 3.75 68.29
  Q 4.40 68.64 5.07 68.95
  Q 5.72 69.25 6.49 69.27
  Q 24.62 69.72 42.75 69.20
  Q 54.47 68.86 66.08 69.18
  Q 68.60 69.25 69.59 69.25
  L 106.93 68.97
  Q 107.68 68.97 107.95 68.97
  Q 124.38 69.37 139.75 68.96
  Q 148.62 69.69 157.50 69.22
  Q 172.12 68.45 176.00 69.00
  Q 183.85 70.11 191.75 69.57
  Q 198.49 69.11 206.39 69.27
  C 207.27 69.29 207.96 68.53 207.86 67.66
  Q 207.43 64.00 208.00 61.31
  Q 208.00 65.66 208.00 70.00
  Q 104.00 70.00 0.00 70.00
  Q 0.00 36.84 0.00 3.69
  Z"
/>
<path fill="#ab5667" d="
  M 183.50 3.71
  Q 184.34 4.06 185.25 4.04
  L 179.79 5.00
  Q 179.32 3.70 180.50 3.73
  Q 182.00 3.78 183.50 3.71
  Z"
/>
<path fill="#ffffff" d="
  M 203.50 4.79
  Q 203.89 7.40 204.25 10.00
  Q 204.46 11.52 206.25 11.29
  Q 206.21 12.28 206.11 13.27
  Q 206.01 14.30 206.09 15.24
  Q 206.65 21.86 206.21 28.50
  Q 205.32 29.96 203.75 30.71
  Q 202.76 31.87 203.25 33.29
  Q 202.14 37.70 198.97 40.97
  Q 195.02 45.05 190.75 48.79
  Q 185.54 43.55 181.29 37.50
  Q 178.86 34.80 177.53 31.55
  Q 176.50 29.02 176.35 24.79
  Q 176.17 19.65 176.27 14.50
  Q 176.37 9.08 179.79 5.00
  L 185.25 4.04
  Q 191.67 3.58 198.72 4.25
  C 199.35 4.31 199.94 4.61 200.36 5.09
  Q 201.92 6.86 202.50 6.42
  C 202.60 6.34 202.67 5.98 202.68 5.51
  Q 202.69 4.82 203.50 4.79
  Z"
/>
<path fill="#ffffff" d="
  M 31.29 16.50
  L 31.67 26.69
  C 31.68 26.98 31.56 27.29 31.32 27.53
  Q 29.91 28.97 32.25 29.28
  Q 39.85 30.27 46.99 29.13
  C 47.35 29.07 47.66 29.40 47.57 29.76
  Q 46.42 34.25 45.50 37.78
  Q 45.47 37.89 44.78 39.63
  Q 44.04 41.46 46.08 42.28
  Q 47.28 42.76 47.39 42.81
  Q 57.29 47.70 65.65 53.71
  Q 67.62 55.13 69.07 53.18
  Q 71.93 49.35 74.96 46.03
  Q 76.10 44.78 81.69 39.66
  Q 86.39 35.34 90.38 30.32
  C 90.59 30.06 90.89 29.91 91.19 29.90
  L 98.50 29.71
  Q 132.63 29.95 166.76 29.54
  Q 170.73 29.49 172.64 30.24
  Q 175.50 31.36 177.53 33.93
  Q 179.04 35.84 180.54 37.75
  L 186.97 47.07
  C 187.15 47.33 187.14 47.67 186.96 47.91
  Q 185.69 49.57 183.69 50.20
  Q 181.52 50.89 184.00 51.96
  Q 173.24 55.02 163.00 59.54
  Q 161.55 59.77 160.31 60.57
  Q 156.91 62.75 153.10 63.77
  Q 152.83 63.85 145.42 65.27
  Q 130.32 68.16 119.75 68.00
  Q 85.50 67.47 65.50 67.75
  Q 61.87 67.80 59.27 66.76
  C 59.00 66.65 58.69 66.72 58.49 66.93
  Q 56.02 69.53 53.09 67.60
  C 52.81 67.41 52.49 67.32 52.19 67.35
  Q 40.26 68.35 28.31 67.72
  C 28.03 67.70 27.77 67.51 27.63 67.23
  Q 26.88 65.66 24.75 64.75
  Q 23.98 64.42 24.17 64.92
  C 24.23 65.07 24.38 65.22 24.60 65.34
  Q 26.17 66.24 26.59 67.94
  C 26.65 68.19 26.45 68.43 26.19 68.40
  Q 23.15 68.07 21.71 65.25
  L 22.25 64.79
  L 22.82 64.51
  C 23.04 64.40 23.05 64.10 22.85 63.95
  Q 16.77 59.47 10.00 58.50
  Q 8.16 58.24 7.17 57.12
  Q 5.77 55.54 5.70 55.47
  Q 3.25 53.17 3.25 49.54
  Q 3.58 48.48 3.25 46.00
  Q 1.35 31.88 4.00 18.75
  Q 5.27 12.48 10.05 8.43
  Q 12.93 6.00 14.96 5.15
  Q 17.52 4.08 21.00 4.25
  Q 24.40 4.42 25.97 6.03
  Q 28.15 8.24 30.39 10.40
  C 30.59 10.59 30.72 10.90 30.76 11.25
  L 31.29 16.50
  Z"
/>
<path fill="#ffffff" d="
  M 112.79 7.80
  L 113.34 7.80
  C 113.63 7.79 113.90 8.05 113.99 8.41
  Q 114.28 9.51 112.56 8.94
  Q 109.83 8.02 107.53 8.77
  C 107.21 8.87 106.88 8.88 106.59 8.79
  Q 100.77 6.99 94.81 8.31
  Q 93.01 8.71 83.67 8.75
  Q 82.57 8.75 81.86 8.52
  Q 80.81 8.19 80.23 7.61
  Q 78.72 6.09 80.83 6.43
  Q 85.08 7.12 89.00 6.46
  Q 93.26 5.75 95.08 5.75
  Q 102.17 5.78 109.25 5.91
  Q 119.04 6.08 128.78 5.22
  Q 136.45 4.54 142.27 4.61
  Q 155.38 4.78 168.50 4.50
  Q 169.77 4.47 172.82 6.25
  C 173.11 6.42 173.32 6.68 173.39 6.98
  Q 174.20 10.45 168.74 9.48
  Q 167.11 9.20 165.63 9.93
  Q 165.01 10.23 163.47 9.22
  C 163.19 9.04 162.88 8.93 162.56 8.91
  Q 155.03 8.56 147.51 7.92
  Q 139.36 7.24 128.75 7.75
  Q 124.12 7.97 116.18 7.59
  C 115.89 7.57 115.58 7.44 115.31 7.22
  Q 113.62 5.80 112.55 7.51
  Q 112.37 7.80 112.79 7.80
  Z"
/>
<path fill="#b09786" d="
  M 206.25 11.29
  Q 204.46 11.52 204.25 10.00
  Q 203.89 7.40 203.50 4.79
  Q 205.23 3.96 205.59 5.18
  Q 205.93 6.31 205.96 6.38
  Q 206.98 8.73 206.25 11.29
  Z"
/>
<path fill="#ffffff" d="
  M 67.75 11.79
  Q 66.47 11.90 66.21 10.75
  Q 68.72 8.67 69.94 5.67
  Q 70.73 3.76 71.81 5.52
  Q 72.82 7.15 71.51 8.08
  Q 69.87 9.25 69.80 9.32
  Q 68.69 10.48 67.75 11.79
  Z"
/>
<path fill="#ab5667" d="
  M 7.79 6.25
  Q 7.71 5.55 7.00 5.71
  Q 10.41 4.22 7.79 6.25
  Z"
/>
<path fill="#b09786" d="
  M 7.00 5.71
  Q 7.71 5.55 7.79 6.25
  Q 7.30 8.75 5.51 11.06
  Q 5.20 11.47 5.19 10.95
  Q 5.16 7.68 7.00 5.71
  Z"
/>
<path fill="#ffffff" d="
  M 39.75 8.54
  Q 35.16 8.41 39.01 7.15
  Q 39.43 7.02 40.02 7.00
  Q 41.41 6.98 42.75 6.54
  Q 49.25 5.91 53.50 6.25
  Q 58.86 6.68 64.25 6.46
  Q 67.79 6.32 65.69 8.24
  C 65.45 8.46 65.14 8.58 64.81 8.58
  L 39.75 8.54
  Z"
/>
<path fill="#ffffff" d="
  M 39.50 9.21
  Q 49.89 10.06 62.37 9.77
  Q 64.18 9.72 63.04 11.13
  L 59.13 15.98
  C 58.71 16.50 58.07 16.80 57.40 16.78
  Q 49.92 16.56 43.22 15.88
  Q 43.13 15.87 40.78 15.84
  Q 38.24 15.80 36.62 13.83
  Q 36.50 13.69 36.27 12.94
  L 35.46 10.25
  Q 35.42 9.96 35.52 9.72
  C 35.62 9.47 35.93 9.30 36.30 9.29
  L 39.50 9.21
  Z"
/>
<path fill="#b09786" d="
  M 166.75 11.29
  L 166.75 11.71
  Q 153.81 10.37 140.82 10.77
  Q 135.99 10.91 130.18 10.75
  Q 124.23 10.58 119.50 11.00
  Q 114.33 11.46 110.38 10.60
  Q 110.15 10.56 110.06 10.43
  Q 109.90 10.22 110.10 10.08
  Q 110.21 10.00 110.41 10.01
  Q 111.98 10.11 116.75 9.75
  Q 130.48 8.71 147.01 9.81
  Q 147.25 9.83 156.89 10.14
  Q 161.85 10.30 166.75 11.29
  Z"
/>
<path fill="#ffffff" d="
  M 73.46 10.25
  Q 79.20 12.39 76.41 14.47
  C 76.18 14.64 75.85 14.67 75.55 14.54
  Q 73.26 13.60 71.09 15.10
  Q 69.93 15.91 68.10 15.70
  C 67.86 15.68 67.73 15.41 67.86 15.21
  L 70.75 10.98
  Q 71.70 9.59 73.46 10.25
  Z"
/>
<path fill="#b09786" d="
  M 89.00 10.29
  L 88.96 11.00
  Q 86.61 11.64 85.50 10.75
  Q 84.36 9.84 85.90 9.96
  Q 86.17 9.99 86.58 10.14
  Q 87.76 10.60 89.00 10.29
  Z"
/>
<path fill="#ffffff" d="
  M 119.71 24.25
  Q 118.48 23.84 117.59 24.64
  Q 117.28 24.92 116.76 25.08
  L 114.75 25.71
  L 110.50 25.96
  Q 110.48 25.26 111.00 25.07
  C 111.42 24.92 111.73 24.75 111.82 24.61
  Q 112.80 23.19 108.48 24.09
  C 107.78 24.24 107.06 24.19 106.39 23.94
  Q 104.88 23.37 105.25 25.29
  Q 104.99 25.58 105.00 25.96
  L 102.54 26.25
  L 99.91 24.31
  Q 99.33 23.88 99.09 23.83
  Q 98.18 23.67 98.44 24.12
  C 98.53 24.28 98.82 24.46 99.23 24.62
  Q 100.07 24.94 100.00 25.96
  L 95.50 25.71
  Q 95.37 25.16 95.85 24.88
  Q 97.56 23.87 95.96 22.50
  Q 97.23 21.81 98.69 21.85
  Q 105.60 22.02 112.50 22.43
  Q 113.34 22.48 112.55 22.06
  C 112.42 21.99 112.35 21.83 112.40 21.69
  Q 113.02 19.82 111.39 20.57
  C 110.95 20.77 110.46 20.81 110.00 20.68
  Q 106.08 19.56 103.75 20.50
  Q 102.19 21.13 100.21 19.50
  Q 104.60 16.90 99.50 17.79
  L 95.55 17.42
  C 95.20 17.39 94.91 17.24 94.78 17.02
  Q 93.78 15.37 96.28 15.82
  Q 100.88 16.64 98.21 14.51
  C 97.65 14.06 96.96 13.80 96.24 13.78
  Q 91.65 13.61 88.96 11.00
  L 89.00 10.29
  Q 90.44 9.79 92.00 10.03
  Q 95.44 10.56 98.88 11.18
  Q 101.31 11.61 105.16 11.73
  Q 108.01 11.81 111.50 12.25
  Q 115.09 12.70 119.35 12.41
  Q 126.71 11.90 127.17 11.89
  Q 136.83 11.63 146.50 11.69
  Q 159.72 11.76 172.70 14.22
  C 172.93 14.27 173.09 14.52 173.07 14.80
  L 172.76 18.75
  C 172.74 19.04 172.52 19.27 172.27 19.26
  Q 165.88 19.19 159.92 19.10
  Q 154.96 19.02 147.61 18.44
  Q 141.31 17.95 135.00 17.75
  Q 128.58 17.55 125.80 17.98
  Q 125.23 18.07 125.74 18.31
  Q 126.72 18.78 128.25 18.75
  Q 135.73 18.59 146.00 19.75
  Q 157.27 21.01 171.19 20.56
  Q 172.27 20.53 172.26 21.44
  C 172.25 21.73 172.05 22.01 171.73 22.15
  Q 168.42 23.66 164.75 23.69
  Q 151.79 23.81 138.84 23.62
  Q 136.81 23.59 132.32 24.00
  Q 129.05 24.30 125.76 24.04
  C 125.46 24.02 125.14 24.10 124.83 24.27
  Q 123.51 25.02 122.02 24.66
  Q 121.97 24.64 121.06 24.19
  Q 120.41 23.87 119.71 24.25
  Z
  M 117.1947 22.2224
  C 117.09 21.73 116.11 21.52 115.0092 21.7602
  C 113.91 22.00 113.10 22.59 113.2053 23.0776
  C 113.31 23.57 114.29 23.78 115.3908 23.5398
  C 116.49 23.30 117.30 22.71 117.1947 22.2224
  Z"
/>
<path fill="#ffffff" d="
  M 166.75 11.71
  L 166.75 11.29
  Q 169.38 10.42 172.19 10.67
  Q 173.86 10.82 173.36 12.47
  C 173.28 12.73 173.00 12.89 172.70 12.83
  L 166.75 11.71
  Z"
/>
<path fill="#ab5667" d="
  M 66.21 10.75
  Q 66.47 11.90 67.75 11.79
  Q 64.99 15.80 61.55 19.23
  Q 58.99 21.79 57.03 24.31
  Q 54.93 27.01 52.58 29.51
  Q 52.49 29.60 50.71 32.15
  Q 49.82 33.41 48.28 34.02
  Q 47.79 34.22 47.88 33.69
  Q 48.37 30.52 51.13 28.81
  Q 51.57 28.54 51.81 28.13
  Q 54.64 23.29 59.33 20.27
  C 59.55 20.13 59.63 19.83 59.51 19.57
  Q 59.06 18.53 59.88 17.64
  Q 61.07 16.34 61.08 16.33
  Q 63.32 13.24 66.21 10.75
  Z"
/>
<path fill="#b09786" d="
  M 208.00 11.31
  Q 208.00 20.69 208.00 30.06
  Q 207.37 20.69 208.00 11.31
  Z"
/>
<path fill="#ffffff" d="
  M 75.71 34.53
  Q 69.99 41.75 64.01 49.19
  C 63.43 49.92 62.40 50.09 61.65 49.58
  L 54.96 45.10
  C 54.74 44.95 54.68 44.65 54.83 44.40
  Q 55.82 42.79 55.54 41.02
  Q 55.36 39.85 53.80 38.37
  Q 52.25 36.91 51.37 35.17
  C 50.96 34.36 51.14 33.37 51.81 32.76
  Q 53.95 30.81 55.05 29.10
  Q 59.43 22.25 65.86 17.30
  C 66.09 17.12 66.42 17.05 66.74 17.13
  Q 69.08 17.67 70.44 16.69
  Q 72.78 15.01 75.65 16.06
  C 76.38 16.32 77.19 16.03 77.58 15.37
  Q 78.18 14.35 79.24 13.97
  Q 80.09 13.65 81.19 14.17
  Q 85.70 16.30 89.10 19.95
  C 89.28 20.14 89.25 20.45 89.04 20.62
  Q 88.22 21.27 87.40 21.92
  Q 86.59 22.55 85.93 23.39
  Q 83.58 26.39 80.86 29.03
  Q 77.46 32.32 75.71 34.53
  Z"
/>
<path fill="#b09786" d="
  M 32.54 17.00
  L 33.71 17.00
  L 34.35 21.82
  C 34.39 22.10 34.19 22.39 33.87 22.54
  Q 32.05 23.38 32.16 21.27
  Q 32.23 19.96 32.23 19.72
  Q 32.24 18.35 32.54 17.00
  Z"
/>
<path fill="#ab5667" d="
  M 100.21 19.50
  Q 99.62 18.78 99.50 17.79
  Q 104.60 16.90 100.21 19.50
  Z"
/>
<path fill="#ffffff" d="
  M 56.25 18.04
  Q 57.32 18.08 57.00 18.71
  Q 53.46 19.42 51.19 19.06
  Q 50.38 18.94 50.55 19.41
  C 50.61 19.56 50.85 19.68 51.17 19.72
  L 56.47 20.31
  Q 57.20 20.39 56.55 20.81
  Q 53.33 22.87 50.16 21.45
  Q 49.68 21.23 49.31 21.16
  Q 44.98 20.28 48.24 21.79
  Q 48.54 21.93 48.93 21.97
  Q 51.06 22.18 52.99 23.09
  C 53.35 23.26 53.55 23.59 53.44 23.81
  Q 53.28 24.12 52.50 24.00
  Q 50.34 23.66 47.43 24.32
  C 47.16 24.38 46.89 24.58 46.68 24.87
  L 46.32 25.38
  C 46.17 25.59 45.87 25.74 45.50 25.78
  L 39.99 26.42
  C 39.65 26.46 39.33 26.37 39.11 26.18
  Q 35.83 23.32 36.14 18.94
  C 36.17 18.61 36.31 18.30 36.55 18.09
  Q 38.49 16.36 38.00 19.74
  C 37.92 20.28 38.11 20.85 38.50 21.30
  L 40.72 23.83
  Q 41.04 24.20 41.06 23.76
  Q 41.12 22.68 40.50 21.86
  Q 39.46 20.51 39.41 20.33
  Q 39.01 19.05 39.92 17.88
  C 40.11 17.64 40.42 17.50 40.75 17.51
  L 56.25 18.04
  Z"
/>
<path fill="#ab5667" d="
  M 56.25 18.04
  Q 58.89 17.23 58.84 19.17
  C 58.83 19.43 58.66 19.64 58.43 19.66
  Q 58.03 19.70 58.06 19.29
  C 58.09 18.93 57.96 18.62 57.76 18.58
  Q 57.43 18.51 57.00 18.71
  Q 57.32 18.08 56.25 18.04
  Z"
/>
<path fill="#b09786" d="
  M 91.50 20.29
  Q 90.63 20.21 90.71 19.25
  Q 91.64 18.90 92.38 19.43
  C 92.67 19.63 92.74 20.00 92.52 20.19
  Q 92.20 20.46 91.50 20.29
  Z"
/>
<path fill="#ffffff" d="
  M 87.49 24.93
  C 87.18 24.72 87.10 24.30 87.33 24.03
  L 89.21 21.79
  C 89.55 21.38 90.15 21.27 90.67 21.51
  Q 94.94 23.47 91.93 26.24
  Q 91.58 26.57 91.41 27.04
  Q 90.79 28.80 90.04 27.23
  Q 89.75 26.63 89.37 26.32
  Q 88.52 25.63 87.49 24.93
  Z"
/>
<ellipse fill="#471b23" cx="0.00" cy="0.00" transform="translate(115.20,22.65) rotate(-12.1)" rx="2.04" ry="0.91"/>
<path fill="#b09786" d="
  M 32.74 23.80
  Q 33.22 23.61 33.61 23.94
  C 33.82 24.12 33.82 24.46 33.60 24.68
  Q 32.58 25.71 32.36 24.56
  C 32.30 24.23 32.46 23.91 32.74 23.80
  Z"
/>
<path fill="#b09786" d="
  M 102.54 26.25
  Q 101.37 26.83 100.00 25.96
  Q 100.07 24.94 99.23 24.62
  C 98.82 24.46 98.53 24.28 98.44 24.12
  Q 98.18 23.67 99.09 23.83
  Q 99.33 23.88 99.91 24.31
  L 102.54 26.25
  Z"
/>
<path fill="#b09786" d="
  M 110.50 25.96
  L 107.00 26.46
  Q 107.75 24.75 105.25 25.29
  Q 104.88 23.37 106.39 23.94
  C 107.06 24.19 107.78 24.24 108.48 24.09
  Q 112.80 23.19 111.82 24.61
  C 111.73 24.75 111.42 24.92 111.00 25.07
  Q 110.48 25.26 110.50 25.96
  Z"
/>
<path fill="#b09786" d="
  M 119.71 24.25
  Q 120.20 24.79 120.36 25.44
  C 120.42 25.69 120.21 25.94 119.94 25.93
  L 114.75 25.71
  L 116.76 25.08
  Q 117.28 24.92 117.59 24.64
  Q 118.48 23.84 119.71 24.25
  Z"
/>
<path fill="#602631" d="
  M 50.30 25.09
  Q 52.12 24.93 51.80 25.60
  C 51.69 25.85 51.37 25.99 51.01 25.97
  Q 44.48 25.61 50.30 25.09
  Z"
/>
<rect fill="#ffffff" x="-16.99" y="-0.56" transform="translate(145.99,25.87) rotate(0.1)" width="33.98" height="1.12" rx="0.26"/>
<path fill="#f4f1df" d="
  M 105.25 25.29
  Q 107.75 24.75 107.00 26.46
  Q 105.94 26.46 105.00 25.96
  Q 104.99 25.58 105.25 25.29
  Z"
/>
<path fill="#ffffff" d="
  M 86.40 32.53
  Q 85.12 35.99 82.90 33.24
  Q 82.37 32.59 81.50 31.85
  Q 79.64 30.29 82.46 29.44
  C 82.73 29.36 83.04 29.47 83.22 29.72
  Q 84.11 30.95 84.81 31.44
  Q 86.88 32.87 85.91 30.76
  C 85.78 30.49 85.53 30.28 85.21 30.16
  Q 82.01 28.99 85.50 26.25
  C 85.97 25.87 86.63 25.83 87.15 26.14
  Q 91.82 28.94 86.99 31.82
  C 86.72 31.98 86.51 32.23 86.40 32.53
  Z"
/>
<path fill="#471b23" d="
  M 35.99 27.30
  Q 36.25 27.10 36.58 27.22
  C 36.85 27.33 36.92 27.68 36.74 27.94
  Q 36.28 28.60 35.92 28.13
  C 35.71 27.86 35.75 27.49 35.99 27.30
  Z"
/>
<path fill="#0a0303" d="
  M 43.56 27.48
  Q 44.42 27.66 43.65 28.08
  Q 43.46 28.19 43.19 28.18
  Q 38.95 28.14 43.07 27.48
  Q 43.34 27.43 43.56 27.48
  Z"
/>
<path fill="#f4f1df" d="
  M 175.24 29.67
  Q 173.44 29.08 174.88 28.81
  Q 175.26 28.74 175.61 28.89
  Q 176.53 29.29 176.10 29.62
  C 175.90 29.76 175.58 29.78 175.24 29.67
  Z"
/>
<path fill="#f4f1df" d="
  M 206.21 28.50
  L 206.21 33.00
  L 205.75 33.04
  L 204.75 32.71
  Q 205.56 31.02 203.75 30.71
  Q 205.32 29.96 206.21 28.50
  Z"
/>
<path fill="#b09786" d="
  M 203.75 30.71
  Q 205.56 31.02 204.75 32.71
  Q 204.09 33.23 203.25 33.29
  Q 202.76 31.87 203.75 30.71
  Z"
/>
<path fill="#ffffff" d="
  M 73.50 45.54
  Q 73.10 45.50 72.79 45.25
  Q 71.94 44.22 70.72 43.68
  C 70.47 43.57 70.37 43.29 70.49 43.06
  Q 73.88 37.06 78.95 32.39
  C 79.17 32.19 79.50 32.14 79.77 32.28
  Q 82.06 33.44 83.22 35.73
  C 83.35 35.98 83.29 36.31 83.06 36.52
  L 73.50 45.54
  Z
  M 74.8476 43.9275
  C 75.00 43.68 74.45 43.07 73.6125 42.5571
  C 72.78 42.04 71.98 41.83 71.8324 42.0725
  C 71.68 42.32 72.23 42.93 73.0675 43.4429
  C 73.90 43.96 74.70 44.17 74.8476 43.9275
  Z"
/>
<path fill="#f4f1df" d="
  M 205.75 33.04
  L 206.21 33.00
  Q 206.77 34.86 206.32 36.70
  C 206.25 37.00 206.00 37.23 205.69 37.27
  Q 202.79 37.70 204.82 35.31
  Q 205.65 34.32 205.75 33.04
  Z"
/>
<path fill="#ffffff" d="
  M 48.68 36.11
  C 49.17 35.48 50.16 35.58 50.58 36.30
  Q 51.41 37.73 52.75 38.89
  Q 54.31 40.26 54.50 41.20
  Q 54.78 42.67 53.61 43.90
  C 53.41 44.11 53.09 44.16 52.80 44.02
  L 47.04 41.29
  C 46.13 40.87 45.79 39.80 46.33 39.11
  L 48.68 36.11
  Z"
/>
<path fill="#b09786" d="
  M 181.29 37.50
  Q 185.54 43.55 190.75 48.79
  Q 189.42 50.95 186.99 50.39
  C 186.60 50.30 186.24 50.33 186.05 50.47
  L 184.00 51.96
  Q 181.52 50.89 183.69 50.20
  Q 185.69 49.57 186.96 47.91
  C 187.14 47.67 187.15 47.33 186.97 47.07
  L 180.54 37.75
  Q 181.04 37.89 181.29 37.50
  Z"
/>
<path fill="#ffffff" d="
  M 153.21 66.00
  Q 154.22 64.75 155.31 64.31
  Q 159.96 62.46 163.25 60.21
  Q 174.51 57.48 185.23 53.11
  Q 185.62 52.95 188.01 52.53
  Q 189.42 52.29 190.69 51.19
  Q 197.68 45.13 206.52 40.64
  C 206.83 40.48 207.19 40.71 207.18 41.06
  L 206.51 62.76
  C 206.50 63.23 206.15 63.63 205.67 63.72
  Q 190.02 66.54 174.30 66.16
  Q 168.21 66.02 165.72 66.26
  Q 161.44 66.69 157.25 67.75
  Q 155.04 68.31 153.81 67.44
  Q 153.10 66.93 153.21 66.00
  Z"
/>
<ellipse fill="#0a0303" cx="0.00" cy="0.00" transform="translate(73.34,43.00) rotate(31.6)" rx="1.77" ry="0.52"/>
<path fill="#f4f1df" d="
  M 72.79 45.25
  Q 73.10 45.50 73.50 45.54
  L 71.25 47.79
  Q 68.56 45.08 71.00 48.04
  Q 71.12 49.20 70.26 49.73
  C 70.05 49.86 69.74 49.76 69.56 49.50
  Q 68.93 48.55 67.71 48.15
  C 67.21 47.99 67.01 47.39 67.32 47.00
  L 69.40 44.37
  C 69.57 44.15 69.91 44.13 70.15 44.31
  Q 71.17 45.09 72.34 45.64
  Q 72.84 45.88 72.79 45.25
  Z"
/>
<path fill="#602631" d="
  M 71.25 47.79
  Q 71.22 48.00 71.00 48.04
  Q 68.56 45.08 71.25 47.79
  Z"
/>
<path fill="#0a0303" d="
  M 1.29 47.50
  L 3.25 49.54
  Q 3.25 53.17 5.70 55.47
  Q 5.77 55.54 7.17 57.12
  Q 8.16 58.24 10.00 58.50
  Q 16.77 59.47 22.85 63.95
  C 23.05 64.10 23.04 64.40 22.82 64.51
  L 22.25 64.79
  L 20.54 64.00
  Q 14.98 59.19 7.48 59.00
  Q 5.35 58.94 6.84 60.47
  Q 8.12 61.79 10.58 62.24
  C 11.04 62.32 11.36 62.74 11.32 63.20
  Q 11.15 65.23 12.75 64.46
  Q 13.78 64.36 14.25 65.21
  Q 15.28 65.75 16.33 65.65
  C 16.68 65.61 16.98 65.43 17.12 65.17
  Q 17.43 64.59 16.75 64.21
  Q 16.49 63.92 16.50 63.54
  Q 18.18 63.43 18.45 65.00
  C 18.52 65.39 18.70 65.69 18.92 65.75
  Q 19.35 65.88 19.75 65.46
  Q 20.88 64.73 21.71 65.25
  Q 23.15 68.07 26.19 68.40
  C 26.45 68.43 26.65 68.19 26.59 67.94
  Q 26.17 66.24 24.60 65.34
  C 24.38 65.22 24.23 65.07 24.17 64.92
  Q 23.98 64.42 24.75 64.75
  Q 26.88 65.66 27.63 67.23
  C 27.77 67.51 28.03 67.70 28.31 67.72
  Q 40.26 68.35 52.19 67.35
  C 52.49 67.32 52.81 67.41 53.09 67.60
  Q 56.02 69.53 58.49 66.93
  C 58.69 66.72 59.00 66.65 59.27 66.76
  Q 61.87 67.80 65.50 67.75
  Q 85.50 67.47 119.75 68.00
  Q 130.32 68.16 145.42 65.27
  Q 152.83 63.85 153.10 63.77
  Q 156.91 62.75 160.31 60.57
  Q 161.55 59.77 163.00 59.54
  Q 163.26 59.83 163.25 60.21
  Q 159.96 62.46 155.31 64.31
  Q 154.22 64.75 153.21 66.00
  L 151.75 66.04
  L 143.50 67.21
  Q 141.42 67.69 139.75 68.96
  Q 124.38 69.37 107.95 68.97
  Q 107.68 68.97 106.93 68.97
  L 69.59 69.25
  Q 68.60 69.25 66.08 69.18
  Q 54.47 68.86 42.75 69.20
  Q 24.62 69.72 6.49 69.27
  Q 5.72 69.25 5.07 68.95
  Q 4.40 68.64 3.75 68.29
  Q 3.03 66.23 2.16 64.22
  Q 1.26 62.17 1.29 60.07
  Q 1.35 55.28 1.21 50.50
  L 1.29 47.50
  Z
  M 5.75 57.47
  Q 5.31 56.21 4.56 56.05
  C 4.28 56.00 4.01 56.24 3.99 56.56
  Q 3.87 58.09 5.56 57.78
  C 5.71 57.75 5.80 57.61 5.75 57.47
  Z
  M 9.88 63.58
  Q 10.49 63.15 9.73 62.58
  C 9.48 62.39 9.14 62.37 8.86 62.52
  Q 7.79 63.09 8.97 63.63
  C 9.29 63.77 9.63 63.75 9.88 63.58
  Z
  M 12.63 66.19
  Q 11.87 65.82 10.99 65.92
  C 10.72 65.94 10.44 65.81 10.25 65.57
  Q 9.42 64.47 8.04 66.76
  Q 7.24 68.09 8.76 68.08
  L 15.75 68.02
  Q 16.31 68.02 15.94 67.61
  Q 15.02 66.56 13.57 66.45
  Q 13.11 66.41 12.63 66.19
  Z
  M 6.7582 68.2238
  C 7.23 67.94 7.30 67.19 6.9136 66.5590
  C 6.53 65.93 5.83 65.65 5.3618 65.9362
  C 4.89 66.22 4.82 66.97 5.2064 67.6010
  C 5.59 68.23 6.29 68.51 6.7582 68.2238
  Z"
/>
<path fill="#ffffff" d="
  M 68.87 50.06
  Q 70.03 51.29 67.94 52.51
  C 67.67 52.67 67.34 52.67 67.05 52.52
  Q 66.16 52.07 65.31 51.54
  Q 64.98 51.34 64.50 51.24
  Q 63.28 50.96 64.32 50.26
  Q 64.74 49.97 64.98 49.56
  Q 66.02 47.80 67.33 48.73
  Q 68.17 49.32 68.87 50.06
  Z"
/>
<path fill="#ffffff" d="
  M 1.21 50.50
  Q 1.35 55.28 1.29 60.07
  Q 1.26 62.17 2.16 64.22
  Q 3.03 66.23 3.75 68.29
  Q 3.96 70.41 0.79 69.56
  C 0.47 69.47 0.25 69.18 0.25 68.84
  Q 0.33 60.73 0.55 52.47
  Q 0.56 52.11 0.40 51.43
  Q 0.16 50.35 1.21 50.50
  Z"
/>
<path fill="#602631" d="
  M 5.75 57.47
  C 5.80 57.61 5.71 57.75 5.56 57.78
  Q 3.87 58.09 3.99 56.56
  C 4.01 56.24 4.28 56.00 4.56 56.05
  Q 5.31 56.21 5.75 57.47
  Z"
/>
<path fill="#ffffff" d="
  M 20.54 64.00
  Q 20.57 64.96 19.75 65.46
  Q 19.35 65.88 18.92 65.75
  C 18.70 65.69 18.52 65.39 18.45 65.00
  Q 18.18 63.43 16.50 63.54
  L 12.75 64.46
  Q 11.15 65.23 11.32 63.20
  C 11.36 62.74 11.04 62.32 10.58 62.24
  Q 8.12 61.79 6.84 60.47
  Q 5.35 58.94 7.48 59.00
  Q 14.98 59.19 20.54 64.00
  Z"
/>
<path fill="#602631" d="
  M 8.97 63.63
  Q 7.79 63.09 8.86 62.52
  C 9.14 62.37 9.48 62.39 9.73 62.58
  Q 10.49 63.15 9.88 63.58
  C 9.63 63.75 9.29 63.77 8.97 63.63
  Z"
/>
<path fill="#602631" d="
  M 16.50 63.54
  Q 16.49 63.92 16.75 64.21
  Q 15.18 64.16 14.25 65.21
  Q 13.78 64.36 12.75 64.46
  L 16.50 63.54
  Z"
/>
<path fill="#ab5667" d="
  M 20.54 64.00
  L 22.25 64.79
  L 21.71 65.25
  Q 20.88 64.73 19.75 65.46
  Q 20.57 64.96 20.54 64.00
  Z"
/>
<path fill="#b09786" d="
  M 16.75 64.21
  Q 17.43 64.59 17.12 65.17
  C 16.98 65.43 16.68 65.61 16.33 65.65
  Q 15.28 65.75 14.25 65.21
  Q 15.18 64.16 16.75 64.21
  Z"
/>
<path fill="#471b23" d="
  M 13.57 66.45
  Q 15.02 66.56 15.94 67.61
  Q 16.31 68.02 15.75 68.02
  L 8.76 68.08
  Q 7.24 68.09 8.04 66.76
  Q 9.42 64.47 10.25 65.57
  C 10.44 65.81 10.72 65.94 10.99 65.92
  Q 11.87 65.82 12.63 66.19
  Q 13.11 66.41 13.57 66.45
  Z"
/>
<ellipse fill="#b09786" cx="0.00" cy="0.00" transform="translate(6.06,67.08) rotate(58.6)" rx="1.34" ry="1.00"/>
<path fill="#ab5667" d="
  M 151.75 66.04
  Q 150.90 67.63 148.44 67.56
  Q 144.45 67.46 143.50 67.21
  L 151.75 66.04
  Z"
/>
<ellipse fill="#b09786" cx="0.00" cy="0.00" transform="translate(188.46,67.53) rotate(-5.4)" rx="4.44" ry="0.45"/>
</svg>
