<?xml version="1.0" encoding="UTF-8" standalone="no"?><!DOCTYPE svg PUBLIC "-//W3C//DTD SVG 1.1//EN" "http://www.w3.org/Graphics/SVG/1.1/DTD/svg11.dtd"><svg width="100%" height="100%" viewBox="0 0 85 81" version="1.1" xmlns="http://www.w3.org/2000/svg" xmlns:xlink="http://www.w3.org/1999/xlink" xml:space="preserve" xmlns:serif="http://www.serif.com/" style="fill-rule:evenodd;clip-rule:evenodd;"><path d="M10.313,46.79c1.453,-0.873 2.14,-0.47 2.06,1.21c-0.093,2.067 0.233,4.067 0.98,6" style="fill:none;fill-rule:nonzero;stroke:#869a70;stroke-width:2px;"/><path d="M13.353,54c-0.38,2.227 0.343,3.977 2.17,5.25" style="fill:none;fill-rule:nonzero;stroke:#c2c6a7;stroke-width:2px;"/><path d="M15.523,59.25c4.053,8.153 10.027,13.377 17.92,15.67c6.18,1.793 12.237,1.683 18.17,-0.33c6.147,-2.08 11.17,-6.063 15.07,-11.95c2.887,-4.353 4.513,-9.15 4.88,-14.39c0.133,-1.96 0.967,-2.377 2.5,-1.25c0.373,0.273 0.633,0.357 0.78,0.25c0.17,-0.12 0.12,-0.49 -0.11,-0.83c-1.767,-2.627 -2.733,-5.513 -2.9,-8.66c-0.02,-0.31 0.11,-0.62 0.36,-0.83c2.913,-2.487 5.293,-5.403 7.14,-8.75c0.15,-0.28 0.19,-0.6 0.11,-0.91c-0.82,-3.313 -1.927,-6.52 -3.32,-9.62c-0.56,-1.233 -1.423,-2.217 -2.59,-2.95c-4.033,-2.547 -8.273,-4.697 -12.72,-6.45c-1.24,-0.487 -1.47,-0.173 -0.69,0.94c1.807,2.567 2.023,5.207 0.65,7.92c-1.807,3.56 -4.423,4.25 -7.85,2.07c-2.233,-1.427 -4.187,-2.07 -5.86,-1.93c-1.807,0.147 -3.237,0.04 -4.29,-0.32c-0.3,-0.1 -0.62,-0.09 -0.92,0.01c-1.18,0.42 -2.463,0.407 -3.85,-0.04c-0.947,-0.3 -2.097,-0.1 -3.45,0.6l-4.02,2.09c-0.17,0.09 -0.52,0.12 -0.96,0.08c-0.907,-0.073 -1.577,0.3 -2.01,1.12" style="fill:none;fill-rule:nonzero;stroke:#869a70;stroke-width:2px;"/><path d="M27.563,20.79c-0.273,0.187 -0.607,0.173 -1,-0.04c-4.52,-2.467 -5.483,-6.223 -2.89,-11.27c0.733,-1.42 0.347,-1.823 -1.16,-1.21l-8.54,3.5c-0.273,0.107 -0.523,0.303 -0.75,0.59c-0.427,0.547 -1.127,1.03 -2.1,1.45c-1.873,0.82 -3.273,2.15 -4.2,3.99c-0.547,1.093 -1.193,2.837 -1.94,5.23c-0.573,1.833 -0.86,3.72 -0.86,5.66c0,0.22 0.16,0.51 0.43,0.77l1.8,1.79" style="fill:none;fill-rule:nonzero;stroke:#a4a982;stroke-width:2px;"/><path d="M27.563,20.79c0.127,0.713 0.043,1.38 -0.25,2" style="fill:none;fill-rule:nonzero;stroke:#45623a;stroke-width:2px;"/><path d="M27.313,22.79c-2.42,-1.48 -4.563,-3.457 -6.43,-5.93c-0.653,-0.86 -0.817,-1.803 -0.49,-2.83c0.793,-2.487 0.267,-3.15 -1.58,-1.99" style="fill:none;fill-rule:nonzero;stroke:#b1b8a5;stroke-width:2px;"/><path d="M18.813,12.04c-0.773,-0.08 -1.44,0.143 -2,0.67" style="fill:none;fill-rule:nonzero;stroke:#8b9880;stroke-width:2px;"/><path d="M16.813,12.71c-4.013,1.08 -6.837,3.48 -8.47,7.2c-0.893,2.027 -1.55,3.41 -1.97,4.15c-1.293,2.273 -1.04,4.313 0.76,6.12c1.953,1.947 3.617,4.117 4.99,6.51c0.7,1.207 0.763,2.74 0.19,4.6" style="fill:none;fill-rule:nonzero;stroke:#b1b8a5;stroke-width:2px;"/><path d="M12.313,41.29c-1.22,0.36 -1.56,-0.313 -1.02,-2.02c0.16,-0.49 0.1,-1.02 -0.15,-1.47c-1.6,-2.833 -3.197,-5.017 -4.79,-6.55" style="fill:none;fill-rule:nonzero;stroke:#9d9f7d;stroke-width:2px;"/><path d="M12.853,42.75c2.44,-2.653 4.06,-5.707 4.86,-9.16c0.267,-1.12 0.22,-2.333 -0.14,-3.64c-0.327,-1.207 -0.657,-2.413 -0.99,-3.62c-0.02,-0.073 -0.42,-1.13 -1.2,-3.17c-1.04,-2.713 -0.417,-5.203 1.87,-7.47c0.367,-0.373 0.887,-1.59 1.56,-3.65" style="fill:none;fill-rule:nonzero;stroke:#d9dfda;stroke-width:2px;"/><path d="M15.523,59.25l-2.17,-5.25" style="fill:none;fill-rule:nonzero;stroke:#637e5f;stroke-width:2px;"/><path d="M10.313,46.79c-1.547,-0.1 -1.85,-0.68 -0.91,-1.74c0.213,-0.247 0.363,-0.53 0.45,-0.85c0.347,-1.26 1.167,-2.09 2.46,-2.49" style="fill:none;fill-rule:nonzero;stroke:#7e8f6b;stroke-width:2px;"/><path d="M12.313,41.71l0.25,0.08" style="fill:none;fill-rule:nonzero;stroke:#93a994;stroke-width:2px;"/><path d="M12.563,41.79c0.213,0.287 0.31,0.607 0.29,0.96" style="fill:none;fill-rule:nonzero;stroke:#6d886e;stroke-width:2px;"/><path d="M12.853,42.75l-0.99,1.5c-0.213,0.313 -0.133,0.41 0.24,0.29c4.567,-1.527 7.563,-4.75 8.99,-9.67c0.19,-0.66 0.1,-1.38 -0.25,-1.97c-1.5,-2.547 -2.537,-5.027 -3.11,-7.44c-0.347,-1.46 -0.27,-1.843 0.23,-1.15c2.347,3.227 5.613,5.643 9.8,7.25c0.36,0.14 0.75,-0.08 0.83,-0.46c0.593,-2.893 0.167,-5.663 -1.28,-8.31" style="fill:none;fill-rule:nonzero;stroke:#93a994;stroke-width:2px;"/><path d="M12.313,41.71l0,-0.42" style="fill:none;fill-rule:nonzero;stroke:#ebe6d7;stroke-width:2px;"/><path d="M12.563,41.79c0.68,0.127 1.033,-0.057 1.06,-0.55c0.02,-0.393 0.097,-0.697 0.23,-0.91l1.07,-1.7c0.52,-0.833 0.963,-2.503 1.33,-5.01c0.267,-1.8 0.073,-3.413 -0.58,-4.84c-0.853,-1.853 -1.283,-2.793 -1.29,-2.82c-0.533,-1.56 -1.04,-2.957 -1.52,-4.19c-0.413,-1.067 -0.233,-2.027 0.54,-2.88c1.54,-1.687 2.63,-3.157 3.27,-4.41c0.013,-0.02 0.177,-0.277 0.49,-0.77c0.287,-0.433 0.17,-0.767 -0.35,-1" style="fill:none;fill-rule:nonzero;stroke:#d9dfda;stroke-width:2px;"/><path d="M59.813,29.71c0.14,0.027 0.223,0.11 0.25,0.25" style="fill:none;fill-rule:nonzero;stroke:#265228;stroke-width:2px;"/><path d="M60.063,29.96l-4.73,2.65c-0.25,0.14 -0.36,0.43 -0.26,0.67l1.49,3.69c0.15,0.37 0.57,0.53 0.91,0.36c0.753,-0.38 1.407,-0.813 1.96,-1.3c0.44,-0.387 0.877,-1.02 1.31,-1.9c1.02,-2.06 2.293,-3.95 3.82,-5.67" style="fill:none;fill-rule:nonzero;stroke:#93a994;stroke-width:2px;"/><path d="M64.563,28.46l0.46,0.04" style="fill:none;fill-rule:nonzero;stroke:#265228;stroke-width:2px;"/><path d="M65.023,28.5l-3.25,6.18c-0.39,0.75 -0.15,1.74 0.59,2.39c1.08,0.953 1.843,2.02 2.29,3.2c0.12,0.33 0.32,0.6 0.57,0.78c2.387,1.78 4.02,2.827 4.9,3.14c0.913,0.32 1.253,0.017 1.02,-0.91c-0.06,-0.27 -0.28,-0.53 -0.59,-0.69c-1.453,-0.767 -1.34,-1.4 0.34,-1.9c0.25,-0.07 0.4,-0.34 0.34,-0.61l-0.54,-2.52c-0.06,-0.29 0.03,-0.62 0.25,-0.88c1.307,-1.54 2.717,-2.977 4.23,-4.31c1.24,-1.107 2.083,-2.407 2.53,-3.9c0.367,-1.233 0.33,-2.71 -0.11,-4.43c-0.447,-1.713 -1.047,-3.37 -1.8,-4.97c-0.753,-1.6 -1.873,-2.893 -3.36,-3.88c-2.72,-1.813 -5.703,-3.133 -8.95,-3.96c-0.34,-0.09 -0.67,0.17 -0.67,0.52c-0.013,5.273 -2.213,8.857 -6.6,10.75c-0.31,0.13 -0.54,0.36 -0.65,0.65c-0.973,2.573 -1.103,5.2 -0.39,7.88c0.08,0.28 0.37,0.44 0.62,0.34l4.02,-1.66" style="fill:none;fill-rule:nonzero;stroke:#93a994;stroke-width:2px;"/><path d="M65.023,28.5l1.67,-4.02c0.2,-0.48 0.077,-0.66 -0.37,-0.54c-0.36,0.107 -0.673,0.56 -0.94,1.36c-0.23,0.69 -0.74,1.25 -1.41,1.54c-1.647,0.713 -3.033,1.67 -4.16,2.87" style="fill:none;fill-rule:nonzero;stroke:#93a994;stroke-width:2px;"/><path d="M64.563,28.46c-0.06,-0.52 -0.37,-0.643 -0.93,-0.37c-1.207,0.58 -2.397,1.203 -3.57,1.87" style="fill:none;fill-rule:nonzero;stroke:#93a994;stroke-width:2px;"/><path d="M46.313,19.54c-1.847,0.307 -2.46,1.227 -1.84,2.76c0.36,0.893 0.55,1.373 0.57,1.44c0.227,0.74 0.453,1.48 0.68,2.22c0.09,0.29 0.38,0.45 0.64,0.37c0.867,-0.267 1.017,-0.877 0.45,-1.83c-0.54,-0.907 -0.553,-1.657 -0.04,-2.25" style="fill:none;fill-rule:nonzero;stroke:#869a70;stroke-width:2px;"/><path d="M46.773,22.25l0.91,3.43c0.06,0.24 -0.04,0.57 -0.28,0.86l-5.12,6.23c-0.14,0.17 -0.41,0.16 -0.51,-0.03c-0.507,-0.933 -1.057,-1.617 -1.65,-2.05c-1.653,-1.227 -2.853,-2.54 -3.6,-3.94" style="fill:none;fill-rule:nonzero;stroke:#93a994;stroke-width:2px;"/><path d="M36.523,26.75l0.29,-0.46" style="fill:none;fill-rule:nonzero;stroke:#637e5f;stroke-width:2px;"/><path d="M36.813,26.29c1.173,-0.88 1.923,-2.477 2.25,-4.79c0.34,-2.373 -0.077,-2.86 -1.25,-1.46" style="fill:none;fill-rule:nonzero;stroke:#6d886e;stroke-width:2px;"/><path d="M37.813,20.04l-1.21,-0.04" style="fill:none;fill-rule:nonzero;stroke:#637e5f;stroke-width:2px;"/><path d="M36.603,20c0.28,-1.767 -0.12,-2.223 -1.2,-1.37c-1.633,1.273 -3.287,2.287 -4.96,3.04c-0.56,0.25 -0.9,0.79 -0.88,1.35l0.44,8.73c0.01,0.3 0.17,0.6 0.43,0.83c3.16,2.793 6.603,5.273 10.33,7.44c0.65,0.38 1.45,0.35 2.04,-0.07l9.7,-6.88c0.56,-0.4 0.93,-1.03 1.04,-1.75c0.493,-3.28 0.587,-6.033 0.28,-8.26c-0.05,-0.33 -0.19,-0.64 -0.41,-0.87c-1.013,-1.087 -2.38,-2.067 -4.1,-2.94c-1.187,-0.6 -2.187,-0.503 -3,0.29" style="fill:none;fill-rule:nonzero;stroke:#93a994;stroke-width:2px;"/><path d="M36.603,20c-0.253,0.827 -0.253,1.66 0,2.5" style="fill:none;fill-rule:nonzero;stroke:#cfd5ca;stroke-width:2px;"/><path d="M36.603,22.5c0.22,0.693 0.053,1.277 -0.5,1.75" style="fill:none;fill-rule:nonzero;stroke:#d9dfda;stroke-width:2px;"/><path d="M36.103,24.25c-0.84,1.04 -0.7,1.873 0.42,2.5" style="fill:none;fill-rule:nonzero;stroke:#cfd5ca;stroke-width:2px;"/><path d="M46.773,22.25c0.04,-0.927 -0.113,-1.83 -0.46,-2.71" style="fill:none;fill-rule:nonzero;stroke:#f2f0dc;stroke-width:2px;"/><path d="M36.813,26.29c-0.453,-0.58 -0.69,-1.26 -0.71,-2.04" style="fill:none;fill-rule:nonzero;stroke:#a9b4a5;stroke-width:2px;"/><path d="M36.603,22.5c0.773,-0.607 1.177,-1.427 1.21,-2.46" style="fill:none;fill-rule:nonzero;stroke:#a9b4a5;stroke-width:2px;"/><path d="M42.263,30.47c2.453,-1.62 3.31,-3.457 2.57,-5.51c-0.407,-1.12 -1.123,-1.913 -2.15,-2.38c-1.453,-0.653 -2.633,-0.083 -3.54,1.71c-1.347,2.673 -0.6,4.747 2.24,6.22c0.28,0.15 0.62,0.13 0.88,-0.04" style="fill:none;fill-rule:nonzero;stroke:#93a994;stroke-width:2px;"/><path d="M27.873,34.62c0.26,-0.99 -0.16,-2.03 -1.02,-2.58c-1.527,-0.967 -3.437,-2.083 -5.73,-3.35c-1.193,-0.667 -1.663,-0.503 -1.41,0.49c0.073,0.28 0.24,0.59 0.5,0.93c1.073,1.387 2.197,3.14 3.37,5.26c0.34,0.61 0.85,1.1 1.48,1.41c1.32,0.673 2.257,-0.047 2.81,-2.16" style="fill:none;fill-rule:nonzero;stroke:#93a994;stroke-width:2px;"/><path d="M31.103,48.25c0.56,2.313 1.443,3.75 2.65,4.31c1.547,0.727 2.317,0.277 2.31,-1.35" style="fill:none;fill-rule:nonzero;stroke:#637e5f;stroke-width:2px;"/><path d="M36.063,51.21l4.61,4.23c0.26,0.24 0.413,0.18 0.46,-0.18c0.46,-3.613 0.58,-7.673 0.36,-12.18c-0.053,-1.173 -0.61,-2.123 -1.67,-2.85l-9.39,-6.4c-0.67,-0.46 -1.59,-0.11 -1.77,0.67c-0.127,0.587 -0.38,1.47 -0.76,2.65c-0.36,1.12 -1.107,1.653 -2.24,1.6c-0.45,-0.02 -0.8,0.38 -0.72,0.83c0.507,2.853 0.233,5.383 -0.82,7.59c-0.58,1.233 -1.383,2.02 -2.41,2.36c-1.16,0.38 -2.4,0.243 -3.72,-0.41c-0.27,-0.13 -0.59,0.07 -0.59,0.37c-0.147,6.06 1.457,11.187 4.81,15.38c0.687,0.853 1.21,1.713 1.57,2.58c0.313,0.767 0.66,0.763 1.04,-0.01l4.73,-9.52c0.15,-0.3 0.2,-0.62 0.15,-0.91c-0.207,-1.047 -0.147,-2.06 0.18,-3.04c0.09,-0.26 0.38,-0.39 0.64,-0.3c1.7,0.587 2.023,0.233 0.97,-1.06c-0.247,-0.293 -0.443,-0.607 -0.59,-0.94c-0.553,-1.253 -1.25,-2.41 -2.09,-3.47c-0.17,-0.21 -0.45,-0.39 -0.79,-0.5c-0.973,-0.307 -1.42,-1.043 -1.34,-2.21c0.087,-1.247 0.47,-1.217 1.15,0.09c0.15,0.3 0.39,0.55 0.69,0.71c1.3,0.7 2.16,1.353 2.58,1.96" style="fill:none;fill-rule:nonzero;stroke:#93a994;stroke-width:2px;"/><path d="M36.063,51.21c-1.213,-0.927 -2.38,-1.913 -3.5,-2.96c-0.367,-0.34 -0.853,-0.34 -1.46,0" style="fill:none;fill-rule:nonzero;stroke:#cfd5ca;stroke-width:2px;"/><path d="M53.063,53.79c0.253,0.533 0.35,1.103 0.29,1.71" style="fill:none;fill-rule:nonzero;stroke:#637e5f;stroke-width:2px;"/><path d="M53.353,55.5c-0.16,1.273 0.307,2.543 1.4,3.81c0.467,0.547 1.653,2.54 3.56,5.98" style="fill:none;fill-rule:nonzero;stroke:#93a994;stroke-width:2px;"/><path d="M58.313,65.29c0.227,1.953 0.893,2.203 2,0.75" style="fill:none;fill-rule:nonzero;stroke:#6d886e;stroke-width:2px;"/><path d="M60.313,66.04c3.88,-4.62 5.883,-10.133 6.01,-16.54c0.013,-0.787 -0.303,-0.957 -0.95,-0.51c-1.353,0.92 -2.637,1.083 -3.85,0.49c-0.907,-0.44 -1.627,-1.313 -2.16,-2.62c-1.027,-2.507 -1.193,-5.11 -0.5,-7.81c0.08,-0.307 -0.03,-0.417 -0.33,-0.33c-1.773,0.507 -2.827,-0.253 -3.16,-2.28c-0.447,-2.74 -1.6,-3.423 -3.46,-2.05c-1.04,0.773 -1.597,1.183 -1.67,1.23c-2.633,1.693 -5.13,3.563 -7.49,5.61c-0.26,0.23 -0.41,0.53 -0.4,0.83l0.26,13.59c0.027,1.38 0.29,1.42 0.79,0.12c0.273,-0.713 0.797,-1.313 1.57,-1.8c1.127,-0.713 2.027,-1.643 2.7,-2.79c0.16,-0.27 0.35,-0.47 0.56,-0.57c0.587,-0.3 0.697,-0.087 0.33,0.64c-0.62,1.22 -0.37,1.637 0.75,1.25c0.873,-0.3 1.41,-0.867 1.61,-1.7c0.06,-0.24 -0.13,-0.5 -0.41,-0.55c-0.8,-0.153 -0.81,-0.493 -0.03,-1.02c0.72,-0.487 1.503,-0.93 2.35,-1.33c1.013,-0.487 1.36,-0.19 1.04,0.89c-0.407,1.373 -0.873,2.647 -1.4,3.82c-0.313,0.68 -0.117,1.073 0.59,1.18" style="fill:none;fill-rule:nonzero;stroke:#93a994;stroke-width:2px;"/><path d="M60.313,66.04c-0.5,-0.1 -0.68,-0.447 -0.54,-1.04" style="fill:none;fill-rule:nonzero;stroke:#d9dfda;stroke-width:2px;"/><path d="M59.773,65c0.087,-2.22 -0.307,-4.087 -1.18,-5.6c-0.333,-0.573 -0.45,-0.523 -0.35,0.15l0.82,5.41" style="fill:none;fill-rule:nonzero;stroke:#b1b8a5;stroke-width:2px;"/><path d="M59.063,64.96c-0.287,0.027 -0.537,0.137 -0.75,0.33" style="fill:none;fill-rule:nonzero;stroke:#d9dfda;stroke-width:2px;"/><path d="M53.353,55.5c0.393,-0.113 0.693,-0.55 0.9,-1.31c0.653,-2.453 0.257,-2.587 -1.19,-0.4" style="fill:none;fill-rule:nonzero;stroke:#cfd5ca;stroke-width:2px;"/><path d="M59.773,65l-0.71,-0.04" style="fill:none;fill-rule:nonzero;stroke:#8b9880;stroke-width:2px;"/><path d="M33.313,54.96c-2.733,2.207 -4.357,5.037 -4.87,8.49c-0.04,0.25 0.07,0.56 0.29,0.85l2.77,3.52c0.68,0.867 1.067,0.823 1.16,-0.13l0.19,-1.94" style="fill:none;fill-rule:nonzero;stroke:#93a994;stroke-width:2px;"/><path d="M32.853,65.75l0.92,0" style="fill:none;fill-rule:nonzero;stroke:#637e5f;stroke-width:2px;"/><path d="M33.773,65.75c0.693,3.653 2.7,6.233 6.02,7.74c0.22,0.1 0.48,-0.06 0.48,-0.3l0.06,-14.44c0,-0.31 -0.12,-0.62 -0.35,-0.87l-2.42,-2.67" style="fill:none;fill-rule:nonzero;stroke:#93a994;stroke-width:2px;"/><path d="M37.563,55.21c-1.413,-1.06 -2.83,-1.143 -4.25,-0.25" style="fill:none;fill-rule:nonzero;stroke:#7e8f6b;stroke-width:2px;"/><path d="M37.563,55.21c-0.74,0.547 -1.337,1.227 -1.79,2.04" style="fill:none;fill-rule:nonzero;stroke:#ebe6d7;stroke-width:2px;"/><path d="M35.773,57.25l-0.71,-0.04" style="fill:none;fill-rule:nonzero;stroke:#bbbba2;stroke-width:2px;"/><path d="M35.063,57.21c1.027,-1.847 0.443,-2.597 -1.75,-2.25" style="fill:none;fill-rule:nonzero;stroke:#ebe6d7;stroke-width:2px;"/><path d="M33.773,65.75l2,-8.5" style="fill:none;fill-rule:nonzero;stroke:#cfd5ca;stroke-width:2px;"/><path d="M35.063,57.21c-0.807,0.573 -1.307,1.42 -1.5,2.54c-0.407,2.407 -0.643,4.407 -0.71,6" style="fill:none;fill-rule:nonzero;stroke:#cfd5ca;stroke-width:2px;"/><path d="M49.363,67.79c0.29,-0.41 0.44,-0.9 0.45,-1.4c0.04,-3.373 -0.697,-6.583 -2.21,-9.63c-0.153,-0.313 -0.113,-0.343 0.12,-0.09c1.713,1.82 2.63,4.01 2.75,6.57c0.047,1.113 0.313,2.417 0.8,3.91c0.08,0.25 0.37,0.36 0.59,0.22c1.26,-0.787 2.233,-1.863 2.92,-3.23c0.15,-0.29 0.2,-0.62 0.14,-0.94c-0.347,-2.093 -1.04,-4.073 -2.08,-5.94c-1.2,-2.16 -2.857,-3.06 -4.97,-2.7c-1.2,0.207 -2.287,0.84 -3.26,1.9c-0.74,0.813 -1.15,1.917 -1.23,3.31c-0.233,4.48 -0.167,8.957 0.2,13.43c0.027,0.333 0.18,0.4 0.46,0.2c1.813,-1.32 3.587,-3.19 5.32,-5.61" style="fill:none;fill-rule:nonzero;stroke:#93a994;stroke-width:2px;"/><path d="M68.563,24.04c-2.607,5.107 -2.647,10.2 -0.12,15.28c0.13,0.27 0.39,0.41 0.59,0.33c0.2,-0.093 0.21,-0.31 0.03,-0.65c-1.047,-1.953 -1.717,-3.913 -2.01,-5.88c-0.173,-1.147 0.043,-2.637 0.65,-4.47c0.5,-1.513 0.857,-3.063 1.07,-4.65" style="fill:none;fill-rule:nonzero;stroke:#cfd5ca;stroke-width:2px;"/><path d="M68.773,24l1.58,-3.06c0.14,-0.26 0.1,-0.59 -0.08,-0.85c-1.753,-2.48 -2.74,-4.093 -2.96,-4.84c-0.313,-1.04 -0.92,-1.853 -1.82,-2.44c-0.68,-0.447 -0.763,-0.357 -0.25,0.27c0.827,1.007 1.567,2.107 2.22,3.3c0.907,1.66 1.37,2.513 1.39,2.56c0.393,0.973 0.413,1.993 0.06,3.06c-0.007,0.027 -0.153,0.297 -0.44,0.81c-0.227,0.4 -0.197,0.81 0.09,1.23" style="fill:none;fill-rule:nonzero;stroke:#b1b8a5;stroke-width:2px;"/><path d="M68.773,24l-0.21,0.04" style="fill:none;fill-rule:nonzero;stroke:#818e70;stroke-width:2px;"/><path d="M24.413,65.25c0.793,-1.333 0.977,-2.76 0.55,-4.28c-0.093,-0.34 -0.227,-0.357 -0.4,-0.05c-0.693,1.267 -1.027,2.633 -1,4.1c0.02,1.067 0.303,1.143 0.85,0.23" style="fill:none;fill-rule:nonzero;stroke:#cfd5ca;stroke-width:2px;"/><path d="M55.49,48.229c0.333,-0.009 0.593,-0.549 0.573,-1.198c-0.02,-0.651 -0.31,-1.171 -0.647,-1.16c-0.333,0.009 -0.593,0.549 -0.573,1.198c0.02,0.651 0.31,1.171 0.647,1.16" style="fill:none;fill-rule:nonzero;stroke:#93a994;stroke-width:2px;"/><path d="M83.123,0l0.94,0l0,81l-1.31,0c0.207,-0.2 0.31,-0.533 0.31,-1c-0.06,-16.247 -0.04,-42.913 0.06,-80Z" style="fill:#010101;fill-opacity:0.01;fill-rule:nonzero;"/><path d="M27.563,20.79c0.127,0.713 0.043,1.38 -0.25,2c-2.42,-1.48 -4.563,-3.457 -6.43,-5.93c-0.653,-0.86 -0.817,-1.803 -0.49,-2.83c0.793,-2.487 0.267,-3.15 -1.58,-1.99c-0.773,-0.08 -1.44,0.143 -2,0.67c-4.013,1.08 -6.837,3.48 -8.47,7.2c-0.893,2.027 -1.55,3.41 -1.97,4.15c-1.293,2.273 -1.04,4.313 0.76,6.12c1.953,1.947 3.617,4.117 4.99,6.51c0.7,1.207 0.763,2.74 0.19,4.6c-1.22,0.36 -1.56,-0.313 -1.02,-2.02c0.16,-0.49 0.1,-1.02 -0.15,-1.47c-1.6,-2.833 -3.197,-5.017 -4.79,-6.55l-1.8,-1.79c-0.27,-0.26 -0.43,-0.55 -0.43,-0.77c0,-1.94 0.287,-3.827 0.86,-5.66c0.747,-2.393 1.393,-4.137 1.94,-5.23c0.927,-1.84 2.327,-3.17 4.2,-3.99c0.973,-0.42 1.673,-0.903 2.1,-1.45c0.227,-0.287 0.477,-0.483 0.75,-0.59l8.54,-3.5c1.507,-0.613 1.893,-0.21 1.16,1.21c-2.593,5.047 -1.63,8.803 2.89,11.27c0.393,0.213 0.727,0.227 1,0.04Z" style="fill:#63714b;fill-rule:nonzero;"/><path d="M15.523,59.25l-2.17,-5.25c-0.747,-1.933 -1.073,-3.933 -0.98,-6c0.08,-1.68 -0.607,-2.083 -2.06,-1.21c-1.547,-0.1 -1.85,-0.68 -0.91,-1.74c0.213,-0.247 0.363,-0.53 0.45,-0.85c0.347,-1.26 1.167,-2.09 2.46,-2.49l0.25,0.08c0.213,0.287 0.31,0.607 0.29,0.96l-0.99,1.5c-0.213,0.313 -0.133,0.41 0.24,0.29c4.567,-1.527 7.563,-4.75 8.99,-9.67c0.19,-0.66 0.1,-1.38 -0.25,-1.97c-1.5,-2.547 -2.537,-5.027 -3.11,-7.44c-0.347,-1.46 -0.27,-1.843 0.23,-1.15c2.347,3.227 5.613,5.643 9.8,7.25c0.36,0.14 0.75,-0.08 0.83,-0.46c0.593,-2.893 0.167,-5.663 -1.28,-8.31c0.293,-0.62 0.377,-1.287 0.25,-2c0.433,-0.82 1.103,-1.193 2.01,-1.12c0.44,0.04 0.79,0.01 0.96,-0.08l4.02,-2.09c1.353,-0.7 2.503,-0.9 3.45,-0.6c1.387,0.447 2.67,0.46 3.85,0.04c0.3,-0.1 0.62,-0.11 0.92,-0.01c1.053,0.36 2.483,0.467 4.29,0.32c1.673,-0.14 3.627,0.503 5.86,1.93c3.427,2.18 6.043,1.49 7.85,-2.07c1.373,-2.713 1.157,-5.353 -0.65,-7.92c-0.78,-1.113 -0.55,-1.427 0.69,-0.94c4.447,1.753 8.687,3.903 12.72,6.45c1.167,0.733 2.03,1.717 2.59,2.95c1.393,3.1 2.5,6.307 3.32,9.62c0.08,0.31 0.04,0.63 -0.11,0.91c-1.847,3.347 -4.227,6.263 -7.14,8.75c-0.25,0.21 -0.38,0.52 -0.36,0.83c0.167,3.147 1.133,6.033 2.9,8.66c0.23,0.34 0.28,0.71 0.11,0.83c-0.147,0.107 -0.407,0.023 -0.78,-0.25c-1.533,-1.127 -2.367,-0.71 -2.5,1.25c-0.367,5.24 -1.993,10.037 -4.88,14.39c-3.9,5.887 -8.923,9.87 -15.07,11.95c-5.933,2.013 -11.99,2.123 -18.17,0.33c-7.893,-2.293 -13.867,-7.517 -17.92,-15.67Zm44.29,-29.54c0.14,0.027 0.223,0.11 0.25,0.25l-4.73,2.65c-0.25,0.14 -0.36,0.43 -0.26,0.67l1.49,3.69c0.15,0.37 0.57,0.53 0.91,0.36c0.753,-0.38 1.407,-0.813 1.96,-1.3c0.44,-0.387 0.877,-1.02 1.31,-1.9c1.02,-2.06 2.293,-3.95 3.82,-5.67l0.46,0.04l-3.25,6.18c-0.39,0.75 -0.15,1.74 0.59,2.39c1.08,0.953 1.843,2.02 2.29,3.2c0.12,0.33 0.32,0.6 0.57,0.78c2.387,1.78 4.02,2.827 4.9,3.14c0.913,0.32 1.253,0.017 1.02,-0.91c-0.06,-0.27 -0.28,-0.53 -0.59,-0.69c-1.453,-0.767 -1.34,-1.4 0.34,-1.9c0.25,-0.07 0.4,-0.34 0.34,-0.61l-0.54,-2.52c-0.06,-0.29 0.03,-0.62 0.25,-0.88c1.307,-1.54 2.717,-2.977 4.23,-4.31c1.24,-1.107 2.083,-2.407 2.53,-3.9c0.367,-1.233 0.33,-2.71 -0.11,-4.43c-0.447,-1.713 -1.047,-3.37 -1.8,-4.97c-0.753,-1.6 -1.873,-2.893 -3.36,-3.88c-2.72,-1.813 -5.703,-3.133 -8.95,-3.96c-0.34,-0.09 -0.67,0.17 -0.67,0.52c-0.013,5.273 -2.213,8.857 -6.6,10.75c-0.31,0.13 -0.54,0.36 -0.65,0.65c-0.973,2.573 -1.103,5.2 -0.39,7.88c0.08,0.28 0.37,0.44 0.62,0.34l4.02,-1.66Zm-13.5,-10.17c-1.847,0.307 -2.46,1.227 -1.84,2.76c0.36,0.893 0.55,1.373 0.57,1.44c0.227,0.74 0.453,1.48 0.68,2.22c0.09,0.29 0.38,0.45 0.64,0.37c0.867,-0.267 1.017,-0.877 0.45,-1.83c-0.54,-0.907 -0.553,-1.657 -0.04,-2.25l0.91,3.43c0.06,0.24 -0.04,0.57 -0.28,0.86l-5.12,6.23c-0.14,0.17 -0.41,0.16 -0.51,-0.03c-0.507,-0.933 -1.057,-1.617 -1.65,-2.05c-1.653,-1.227 -2.853,-2.54 -3.6,-3.94l0.29,-0.46c1.173,-0.88 1.923,-2.477 2.25,-4.79c0.34,-2.373 -0.077,-2.86 -1.25,-1.46l-1.21,-0.04c0.28,-1.767 -0.12,-2.223 -1.2,-1.37c-1.633,1.273 -3.287,2.287 -4.96,3.04c-0.56,0.25 -0.9,0.79 -0.88,1.35l0.44,8.73c0.01,0.3 0.17,0.6 0.43,0.83c3.16,2.793 6.603,5.273 10.33,7.44c0.65,0.38 1.45,0.35 2.04,-0.07l9.7,-6.88c0.56,-0.4 0.93,-1.03 1.04,-1.75c0.493,-3.28 0.587,-6.033 0.28,-8.26c-0.05,-0.33 -0.19,-0.64 -0.41,-0.87c-1.013,-1.087 -2.38,-2.067 -4.1,-2.94c-1.187,-0.6 -2.187,-0.503 -3,0.29Zm-4.05,10.93c2.453,-1.62 3.31,-3.457 2.57,-5.51c-0.407,-1.12 -1.123,-1.913 -2.15,-2.38c-1.453,-0.653 -2.633,-0.083 -3.54,1.71c-1.347,2.673 -0.6,4.747 2.24,6.22c0.28,0.15 0.62,0.13 0.88,-0.04Zm-14.39,4.15c0.26,-0.99 -0.16,-2.03 -1.02,-2.58c-1.527,-0.967 -3.437,-2.083 -5.73,-3.35c-1.193,-0.667 -1.663,-0.503 -1.41,0.49c0.073,0.28 0.24,0.59 0.5,0.93c1.073,1.387 2.197,3.14 3.37,5.26c0.34,0.61 0.85,1.1 1.48,1.41c1.32,0.673 2.257,-0.047 2.81,-2.16Zm3.23,13.63c0.56,2.313 1.443,3.75 2.65,4.31c1.547,0.727 2.317,0.277 2.31,-1.35l4.61,4.23c0.26,0.24 0.413,0.18 0.46,-0.18c0.46,-3.613 0.58,-7.673 0.36,-12.18c-0.053,-1.173 -0.61,-2.123 -1.67,-2.85l-9.39,-6.4c-0.67,-0.46 -1.59,-0.11 -1.77,0.67c-0.127,0.587 -0.38,1.47 -0.76,2.65c-0.36,1.12 -1.107,1.653 -2.24,1.6c-0.45,-0.02 -0.8,0.38 -0.72,0.83c0.507,2.853 0.233,5.383 -0.82,7.59c-0.58,1.233 -1.383,2.02 -2.41,2.36c-1.16,0.38 -2.4,0.243 -3.72,-0.41c-0.27,-0.13 -0.59,0.07 -0.59,0.37c-0.147,6.06 1.457,11.187 4.81,15.38c0.687,0.853 1.21,1.713 1.57,2.58c0.313,0.767 0.66,0.763 1.04,-0.01l4.73,-9.52c0.15,-0.3 0.2,-0.62 0.15,-0.91c-0.207,-1.047 -0.147,-2.06 0.18,-3.04c0.09,-0.26 0.38,-0.39 0.64,-0.3c1.7,0.587 2.023,0.233 0.97,-1.06c-0.247,-0.293 -0.443,-0.607 -0.59,-0.94c-0.553,-1.253 -1.25,-2.41 -2.09,-3.47c-0.17,-0.21 -0.45,-0.39 -0.79,-0.5c-0.973,-0.307 -1.42,-1.043 -1.34,-2.21c0.087,-1.247 0.47,-1.217 1.15,0.09c0.15,0.3 0.39,0.55 0.69,0.71c1.3,0.7 2.16,1.353 2.58,1.96Zm21.96,5.54c0.253,0.533 0.35,1.103 0.29,1.71c-0.16,1.273 0.307,2.543 1.4,3.81c0.467,0.547 1.653,2.54 3.56,5.98c0.227,1.953 0.893,2.203 2,0.75c3.88,-4.62 5.883,-10.133 6.01,-16.54c0.013,-0.787 -0.303,-0.957 -0.95,-0.51c-1.353,0.92 -2.637,1.083 -3.85,0.49c-0.907,-0.44 -1.627,-1.313 -2.16,-2.62c-1.027,-2.507 -1.193,-5.11 -0.5,-7.81c0.08,-0.307 -0.03,-0.417 -0.33,-0.33c-1.773,0.507 -2.827,-0.253 -3.16,-2.28c-0.447,-2.74 -1.6,-3.423 -3.46,-2.05c-1.04,0.773 -1.597,1.183 -1.67,1.23c-2.633,1.693 -5.13,3.563 -7.49,5.61c-0.26,0.23 -0.41,0.53 -0.4,0.83l0.26,13.59c0.027,1.38 0.29,1.42 0.79,0.12c0.273,-0.713 0.797,-1.313 1.57,-1.8c1.127,-0.713 2.027,-1.643 2.7,-2.79c0.16,-0.27 0.35,-0.47 0.56,-0.57c0.587,-0.3 0.697,-0.087 0.33,0.64c-0.62,1.22 -0.37,1.637 0.75,1.25c0.873,-0.3 1.41,-0.867 1.61,-1.7c0.06,-0.24 -0.13,-0.5 -0.41,-0.55c-0.8,-0.153 -0.81,-0.493 -0.03,-1.02c0.72,-0.487 1.503,-0.93 2.35,-1.33c1.013,-0.487 1.36,-0.19 1.04,0.89c-0.407,1.373 -0.873,2.647 -1.4,3.82c-0.313,0.68 -0.117,1.073 0.59,1.18Zm-19.75,1.17c-2.733,2.207 -4.357,5.037 -4.87,8.49c-0.04,0.25 0.07,0.56 0.29,0.85l2.77,3.52c0.68,0.867 1.067,0.823 1.16,-0.13l0.19,-1.94l0.92,-0c0.693,3.653 2.7,6.233 6.02,7.74c0.22,0.1 0.48,-0.06 0.48,-0.3l0.06,-14.44c0,-0.31 -0.12,-0.62 -0.35,-0.87l-2.42,-2.67c-1.413,-1.06 -2.83,-1.143 -4.25,-0.25Zm16.05,12.83c0.29,-0.41 0.44,-0.9 0.45,-1.4c0.04,-3.373 -0.697,-6.583 -2.21,-9.63c-0.153,-0.313 -0.113,-0.343 0.12,-0.09c1.713,1.82 2.63,4.01 2.75,6.57c0.047,1.113 0.313,2.417 0.8,3.91c0.08,0.25 0.37,0.36 0.59,0.22c1.26,-0.787 2.233,-1.863 2.92,-3.23c0.15,-0.29 0.2,-0.62 0.14,-0.94c-0.347,-2.093 -1.04,-4.073 -2.08,-5.94c-1.2,-2.16 -2.857,-3.06 -4.97,-2.7c-1.2,0.207 -2.287,0.84 -3.26,1.9c-0.74,0.813 -1.15,1.917 -1.23,3.31c-0.233,4.48 -0.167,8.957 0.2,13.43c0.027,0.333 0.18,0.4 0.46,0.2c1.813,-1.32 3.587,-3.19 5.32,-5.61Z" style="fill:#265228;fill-rule:nonzero;"/><path d="M65.023,28.5l1.67,-4.02c0.2,-0.48 0.077,-0.66 -0.37,-0.54c-0.36,0.107 -0.673,0.56 -0.94,1.36c-0.23,0.69 -0.74,1.25 -1.41,1.54c-1.647,0.713 -3.033,1.67 -4.16,2.87l-4.02,1.66c-0.25,0.1 -0.54,-0.06 -0.62,-0.34c-0.713,-2.68 -0.583,-5.307 0.39,-7.88c0.11,-0.29 0.34,-0.52 0.65,-0.65c4.387,-1.893 6.587,-5.477 6.6,-10.75c0,-0.35 0.33,-0.61 0.67,-0.52c3.247,0.827 6.23,2.147 8.95,3.96c1.487,0.987 2.607,2.28 3.36,3.88c0.753,1.6 1.353,3.257 1.8,4.97c0.44,1.72 0.477,3.197 0.11,4.43c-0.447,1.493 -1.29,2.793 -2.53,3.9c-1.513,1.333 -2.923,2.77 -4.23,4.31c-0.22,0.26 -0.31,0.59 -0.25,0.88l0.54,2.52c0.06,0.27 -0.09,0.54 -0.34,0.61c-1.68,0.5 -1.793,1.133 -0.34,1.9c0.31,0.16 0.53,0.42 0.59,0.69c0.233,0.927 -0.107,1.23 -1.02,0.91c-0.88,-0.313 -2.513,-1.36 -4.9,-3.14c-0.25,-0.18 -0.45,-0.45 -0.57,-0.78c-0.447,-1.18 -1.21,-2.247 -2.29,-3.2c-0.74,-0.65 -0.98,-1.64 -0.59,-2.39l3.25,-6.18Zm3.54,-4.46c-2.607,5.107 -2.647,10.2 -0.12,15.28c0.13,0.27 0.39,0.41 0.59,0.33c0.2,-0.093 0.21,-0.31 0.03,-0.65c-1.047,-1.953 -1.717,-3.913 -2.01,-5.88c-0.173,-1.147 0.043,-2.637 0.65,-4.47c0.5,-1.513 0.857,-3.063 1.07,-4.65l1.58,-3.06c0.14,-0.26 0.1,-0.59 -0.08,-0.85c-1.753,-2.48 -2.74,-4.093 -2.96,-4.84c-0.313,-1.04 -0.92,-1.853 -1.82,-2.44c-0.68,-0.447 -0.763,-0.357 -0.25,0.27c0.827,1.007 1.567,2.107 2.22,3.3c0.907,1.66 1.37,2.513 1.39,2.56c0.393,0.973 0.413,1.993 0.06,3.06c-0.007,0.027 -0.153,0.297 -0.44,0.81c-0.227,0.4 -0.197,0.81 0.09,1.23Z" style="fill:#fff;fill-rule:nonzero;"/><path d="M27.313,22.79c1.447,2.647 1.873,5.417 1.28,8.31c-0.08,0.38 -0.47,0.6 -0.83,0.46c-4.187,-1.607 -7.453,-4.023 -9.8,-7.25c-0.5,-0.693 -0.577,-0.31 -0.23,1.15c0.573,2.413 1.61,4.893 3.11,7.44c0.35,0.59 0.44,1.31 0.25,1.97c-1.427,4.92 -4.423,8.143 -8.99,9.67c-0.373,0.12 -0.453,0.023 -0.24,-0.29l0.99,-1.5c2.44,-2.653 4.06,-5.707 4.86,-9.16c0.267,-1.12 0.22,-2.333 -0.14,-3.64c-0.327,-1.207 -0.657,-2.413 -0.99,-3.62c-0.02,-0.073 -0.42,-1.13 -1.2,-3.17c-1.04,-2.713 -0.417,-5.203 1.87,-7.47c0.367,-0.373 0.887,-1.59 1.56,-3.65c1.847,-1.16 2.373,-0.497 1.58,1.99c-0.327,1.027 -0.163,1.97 0.49,2.83c1.867,2.473 4.01,4.45 6.43,5.93Z" style="fill:#fff;fill-rule:nonzero;"/><path d="M18.813,12.04c-0.673,2.06 -1.193,3.277 -1.56,3.65c-2.287,2.267 -2.91,4.757 -1.87,7.47c0.78,2.04 1.18,3.097 1.2,3.17c0.333,1.207 0.663,2.413 0.99,3.62c0.36,1.307 0.407,2.52 0.14,3.64c-0.8,3.453 -2.42,6.507 -4.86,9.16c0.02,-0.353 -0.077,-0.673 -0.29,-0.96c0.68,0.127 1.033,-0.057 1.06,-0.55c0.02,-0.393 0.097,-0.697 0.23,-0.91l1.07,-1.7c0.52,-0.833 0.963,-2.503 1.33,-5.01c0.267,-1.8 0.073,-3.413 -0.58,-4.84c-0.853,-1.853 -1.283,-2.793 -1.29,-2.82c-0.533,-1.56 -1.04,-2.957 -1.52,-4.19c-0.413,-1.067 -0.233,-2.027 0.54,-2.88c1.54,-1.687 2.63,-3.157 3.27,-4.41c0.013,-0.02 0.177,-0.277 0.49,-0.77c0.287,-0.433 0.17,-0.767 -0.35,-1c0.56,-0.527 1.227,-0.75 2,-0.67Z" style="fill:#b3beb4;fill-rule:nonzero;"/><path d="M68.773,24l-0.21,0.04c-0.287,-0.42 -0.317,-0.83 -0.09,-1.23c0.287,-0.513 0.433,-0.783 0.44,-0.81c0.353,-1.067 0.333,-2.087 -0.06,-3.06c-0.02,-0.047 -0.483,-0.9 -1.39,-2.56c-0.653,-1.193 -1.393,-2.293 -2.22,-3.3c-0.513,-0.627 -0.43,-0.717 0.25,-0.27c0.9,0.587 1.507,1.4 1.82,2.44c0.22,0.747 1.207,2.36 2.96,4.84c0.18,0.26 0.22,0.59 0.08,0.85l-1.58,3.06Z" style="fill:#63714b;fill-rule:nonzero;"/><path d="M16.813,12.71c0.52,0.233 0.637,0.567 0.35,1c-0.313,0.493 -0.477,0.75 -0.49,0.77c-0.64,1.253 -1.73,2.723 -3.27,4.41c-0.773,0.853 -0.953,1.813 -0.54,2.88c0.48,1.233 0.987,2.63 1.52,4.19c0.007,0.027 0.437,0.967 1.29,2.82c0.653,1.427 0.847,3.04 0.58,4.84c-0.367,2.507 -0.81,4.177 -1.33,5.01l-1.07,1.7c-0.133,0.213 -0.21,0.517 -0.23,0.91c-0.027,0.493 -0.38,0.677 -1.06,0.55l-0.25,-0.08l0,-0.42c0.573,-1.86 0.51,-3.393 -0.19,-4.6c-1.373,-2.393 -3.037,-4.563 -4.99,-6.51c-1.8,-1.807 -2.053,-3.847 -0.76,-6.12c0.42,-0.74 1.077,-2.123 1.97,-4.15c1.633,-3.72 4.457,-6.12 8.47,-7.2Z" style="fill:#fff;fill-rule:nonzero;"/><path d="M36.603,20c-0.253,0.827 -0.253,1.66 0,2.5c0.22,0.693 0.053,1.277 -0.5,1.75c-0.84,1.04 -0.7,1.873 0.42,2.5c0.747,1.4 1.947,2.713 3.6,3.94c0.593,0.433 1.143,1.117 1.65,2.05c0.1,0.19 0.37,0.2 0.51,0.03l5.12,-6.23c0.24,-0.29 0.34,-0.62 0.28,-0.86l-0.91,-3.43c0.04,-0.927 -0.113,-1.83 -0.46,-2.71c0.813,-0.793 1.813,-0.89 3,-0.29c1.72,0.873 3.087,1.853 4.1,2.94c0.22,0.23 0.36,0.54 0.41,0.87c0.307,2.227 0.213,4.98 -0.28,8.26c-0.11,0.72 -0.48,1.35 -1.04,1.75l-9.7,6.88c-0.59,0.42 -1.39,0.45 -2.04,0.07c-3.727,-2.167 -7.17,-4.647 -10.33,-7.44c-0.26,-0.23 -0.42,-0.53 -0.43,-0.83l-0.44,-8.73c-0.02,-0.56 0.32,-1.1 0.88,-1.35c1.673,-0.753 3.327,-1.767 4.96,-3.04c1.08,-0.853 1.48,-0.397 1.2,1.37Z" style="fill:#fff;fill-rule:nonzero;"/><path d="M36.813,26.29c-0.453,-0.58 -0.69,-1.26 -0.71,-2.04c0.553,-0.473 0.72,-1.057 0.5,-1.75c0.773,-0.607 1.177,-1.427 1.21,-2.46c1.173,-1.4 1.59,-0.913 1.25,1.46c-0.327,2.313 -1.077,3.91 -2.25,4.79Z" style="fill:#b3beb4;fill-rule:nonzero;"/><path d="M46.313,19.54c0.347,0.88 0.5,1.783 0.46,2.71c-0.513,0.593 -0.5,1.343 0.04,2.25c0.567,0.953 0.417,1.563 -0.45,1.83c-0.26,0.08 -0.55,-0.08 -0.64,-0.37c-0.227,-0.74 -0.453,-1.48 -0.68,-2.22c-0.02,-0.067 -0.21,-0.547 -0.57,-1.44c-0.62,-1.533 -0.007,-2.453 1.84,-2.76Z" style="fill:#e5e1b8;fill-rule:nonzero;"/><path d="M36.603,20l1.21,0.04c-0.033,1.033 -0.437,1.853 -1.21,2.46c-0.253,-0.84 -0.253,-1.673 0,-2.5Z" style="fill:#9faa95;fill-rule:nonzero;"/><path d="M42.263,30.47c-0.26,0.17 -0.6,0.19 -0.88,0.04c-2.84,-1.473 -3.587,-3.547 -2.24,-6.22c0.907,-1.793 2.087,-2.363 3.54,-1.71c1.027,0.467 1.743,1.26 2.15,2.38c0.74,2.053 -0.117,3.89 -2.57,5.51Z" style="fill:#fff;fill-rule:nonzero;"/><path d="M65.023,28.5l-0.46,-0.04c-0.06,-0.52 -0.37,-0.643 -0.93,-0.37c-1.207,0.58 -2.397,1.203 -3.57,1.87c-0.027,-0.14 -0.11,-0.223 -0.25,-0.25c1.127,-1.2 2.513,-2.157 4.16,-2.87c0.67,-0.29 1.18,-0.85 1.41,-1.54c0.267,-0.8 0.58,-1.253 0.94,-1.36c0.447,-0.12 0.57,0.06 0.37,0.54l-1.67,4.02Z" style="fill:#265228;fill-rule:nonzero;"/><path d="M68.563,24.04l0.21,-0.04c-0.213,1.587 -0.57,3.137 -1.07,4.65c-0.607,1.833 -0.823,3.323 -0.65,4.47c0.293,1.967 0.963,3.927 2.01,5.88c0.18,0.34 0.17,0.557 -0.03,0.65c-0.2,0.08 -0.46,-0.06 -0.59,-0.33c-2.527,-5.08 -2.487,-10.173 0.12,-15.28Z" style="fill:#9faa95;fill-rule:nonzero;"/><path d="M36.103,24.25c0.02,0.78 0.257,1.46 0.71,2.04l-0.29,0.46c-1.12,-0.627 -1.26,-1.46 -0.42,-2.5Z" style="fill:#9faa95;fill-rule:nonzero;"/><path d="M64.563,28.46c-1.527,1.72 -2.8,3.61 -3.82,5.67c-0.433,0.88 -0.87,1.513 -1.31,1.9c-0.553,0.487 -1.207,0.92 -1.96,1.3c-0.34,0.17 -0.76,0.01 -0.91,-0.36l-1.49,-3.69c-0.1,-0.24 0.01,-0.53 0.26,-0.67l4.73,-2.65c1.173,-0.667 2.363,-1.29 3.57,-1.87c0.56,-0.273 0.87,-0.15 0.93,0.37Z" style="fill:#fff;fill-rule:nonzero;"/><path d="M27.873,34.62c-0.553,2.113 -1.49,2.833 -2.81,2.16c-0.63,-0.31 -1.14,-0.8 -1.48,-1.41c-1.173,-2.12 -2.297,-3.873 -3.37,-5.26c-0.26,-0.34 -0.427,-0.65 -0.5,-0.93c-0.253,-0.993 0.217,-1.157 1.41,-0.49c2.293,1.267 4.203,2.383 5.73,3.35c0.86,0.55 1.28,1.59 1.02,2.58Z" style="fill:#fff;fill-rule:nonzero;"/><path d="M36.063,51.21c-1.213,-0.927 -2.38,-1.913 -3.5,-2.96c-0.367,-0.34 -0.853,-0.34 -1.46,0c-0.42,-0.607 -1.28,-1.26 -2.58,-1.96c-0.3,-0.16 -0.54,-0.41 -0.69,-0.71c-0.68,-1.307 -1.063,-1.337 -1.15,-0.09c-0.08,1.167 0.367,1.903 1.34,2.21c0.34,0.11 0.62,0.29 0.79,0.5c0.84,1.06 1.537,2.217 2.09,3.47c0.147,0.333 0.343,0.647 0.59,0.94c1.053,1.293 0.73,1.647 -0.97,1.06c-0.26,-0.09 -0.55,0.04 -0.64,0.3c-0.327,0.98 -0.387,1.993 -0.18,3.04c0.05,0.29 0,0.61 -0.15,0.91l-4.73,9.52c-0.38,0.773 -0.727,0.777 -1.04,0.01c-0.36,-0.867 -0.883,-1.727 -1.57,-2.58c-3.353,-4.193 -4.957,-9.32 -4.81,-15.38c0,-0.3 0.32,-0.5 0.59,-0.37c1.32,0.653 2.56,0.79 3.72,0.41c1.027,-0.34 1.83,-1.127 2.41,-2.36c1.053,-2.207 1.327,-4.737 0.82,-7.59c-0.08,-0.45 0.27,-0.85 0.72,-0.83c1.133,0.053 1.88,-0.48 2.24,-1.6c0.38,-1.18 0.633,-2.063 0.76,-2.65c0.18,-0.78 1.1,-1.13 1.77,-0.67l9.39,6.4c1.06,0.727 1.617,1.677 1.67,2.85c0.22,4.507 0.1,8.567 -0.36,12.18c-0.047,0.36 -0.2,0.42 -0.46,0.18l-4.61,-4.23Zm-11.65,14.04c0.793,-1.333 0.977,-2.76 0.55,-4.28c-0.093,-0.34 -0.227,-0.357 -0.4,-0.05c-0.693,1.267 -1.027,2.633 -1,4.1c0.02,1.067 0.303,1.143 0.85,0.23Z" style="fill:#fff;fill-rule:nonzero;"/><path d="M60.313,66.04c-0.5,-0.1 -0.68,-0.447 -0.54,-1.04c0.087,-2.22 -0.307,-4.087 -1.18,-5.6c-0.333,-0.573 -0.45,-0.523 -0.35,0.15l0.82,5.41c-0.287,0.027 -0.537,0.137 -0.75,0.33c-1.907,-3.44 -3.093,-5.433 -3.56,-5.98c-1.093,-1.267 -1.56,-2.537 -1.4,-3.81c0.393,-0.113 0.693,-0.55 0.9,-1.31c0.653,-2.453 0.257,-2.587 -1.19,-0.4c-0.707,-0.107 -0.903,-0.5 -0.59,-1.18c0.527,-1.173 0.993,-2.447 1.4,-3.82c0.32,-1.08 -0.027,-1.377 -1.04,-0.89c-0.847,0.4 -1.63,0.843 -2.35,1.33c-0.78,0.527 -0.77,0.867 0.03,1.02c0.28,0.05 0.47,0.31 0.41,0.55c-0.2,0.833 -0.737,1.4 -1.61,1.7c-1.12,0.387 -1.37,-0.03 -0.75,-1.25c0.367,-0.727 0.257,-0.94 -0.33,-0.64c-0.21,0.1 -0.4,0.3 -0.56,0.57c-0.673,1.147 -1.573,2.077 -2.7,2.79c-0.773,0.487 -1.297,1.087 -1.57,1.8c-0.5,1.3 -0.763,1.26 -0.79,-0.12l-0.26,-13.59c-0.01,-0.3 0.14,-0.6 0.4,-0.83c2.36,-2.047 4.857,-3.917 7.49,-5.61c0.073,-0.047 0.63,-0.457 1.67,-1.23c1.86,-1.373 3.013,-0.69 3.46,2.05c0.333,2.027 1.387,2.787 3.16,2.28c0.3,-0.087 0.41,0.023 0.33,0.33c-0.693,2.7 -0.527,5.303 0.5,7.81c0.533,1.307 1.253,2.18 2.16,2.62c1.213,0.593 2.497,0.43 3.85,-0.49c0.647,-0.447 0.963,-0.277 0.95,0.51c-0.127,6.407 -2.13,11.92 -6.01,16.54Zm-4.823,-17.811c0.333,-0.009 0.593,-0.549 0.573,-1.198c-0.02,-0.651 -0.31,-1.171 -0.647,-1.16c-0.333,0.009 -0.593,0.549 -0.573,1.198c0.02,0.651 0.31,1.171 0.647,1.16Z" style="fill:#fff;fill-rule:nonzero;"/><path d="M56.063,47.031c0.02,0.651 -0.236,1.188 -0.573,1.198c-0.336,0.011 -0.626,-0.509 -0.647,-1.16c-0.02,-0.651 0.237,-1.188 0.573,-1.198c0.337,-0.011 0.626,0.509 0.647,1.16Z" style="fill:#265228;"/><path d="M36.063,51.21c0.007,1.627 -0.763,2.077 -2.31,1.35c-1.207,-0.56 -2.09,-1.997 -2.65,-4.31c0.607,-0.34 1.093,-0.34 1.46,0c1.12,1.047 2.287,2.033 3.5,2.96Z" style="fill:#9faa95;fill-rule:nonzero;"/><path d="M53.353,55.5c0.06,-0.607 -0.037,-1.177 -0.29,-1.71c1.447,-2.187 1.843,-2.053 1.19,0.4c-0.207,0.76 -0.507,1.197 -0.9,1.31Z" style="fill:#9faa95;fill-rule:nonzero;"/><path d="M13.353,54l2.17,5.25c-1.827,-1.273 -2.55,-3.023 -2.17,-5.25Z" style="fill:#9faa95;fill-rule:nonzero;"/><path d="M37.563,55.21c-0.74,0.547 -1.337,1.227 -1.79,2.04l-0.71,-0.04c1.027,-1.847 0.443,-2.597 -1.75,-2.25c1.42,-0.893 2.837,-0.81 4.25,0.25Z" style="fill:#d6ccae;fill-rule:nonzero;"/><path d="M49.363,67.79c-1.733,2.42 -3.507,4.29 -5.32,5.61c-0.28,0.2 -0.433,0.133 -0.46,-0.2c-0.367,-4.473 -0.433,-8.95 -0.2,-13.43c0.08,-1.393 0.49,-2.497 1.23,-3.31c0.973,-1.06 2.06,-1.693 3.26,-1.9c2.113,-0.36 3.77,0.54 4.97,2.7c1.04,1.867 1.733,3.847 2.08,5.94c0.06,0.32 0.01,0.65 -0.14,0.94c-0.687,1.367 -1.66,2.443 -2.92,3.23c-0.22,0.14 -0.51,0.03 -0.59,-0.22c-0.487,-1.493 -0.753,-2.797 -0.8,-3.91c-0.12,-2.56 -1.037,-4.75 -2.75,-6.57c-0.233,-0.253 -0.273,-0.223 -0.12,0.09c1.513,3.047 2.25,6.257 2.21,9.63c-0.01,0.5 -0.16,0.99 -0.45,1.4Z" style="fill:#fff;fill-rule:nonzero;"/><path d="M33.313,54.96c2.193,-0.347 2.777,0.403 1.75,2.25c-0.807,0.573 -1.307,1.42 -1.5,2.54c-0.407,2.407 -0.643,4.407 -0.71,6l-0.19,1.94c-0.093,0.953 -0.48,0.997 -1.16,0.13l-2.77,-3.52c-0.22,-0.29 -0.33,-0.6 -0.29,-0.85c0.513,-3.453 2.137,-6.283 4.87,-8.49Z" style="fill:#fff;fill-rule:nonzero;"/><path d="M37.563,55.21l2.42,2.67c0.23,0.25 0.35,0.56 0.35,0.87l-0.06,14.44c0,0.24 -0.26,0.4 -0.48,0.3c-3.32,-1.507 -5.327,-4.087 -6.02,-7.74l2,-8.5c0.453,-0.813 1.05,-1.493 1.79,-2.04Z" style="fill:#fff;fill-rule:nonzero;"/><path d="M35.063,57.21l0.71,0.04l-2,8.5l-0.92,0c0.067,-1.593 0.303,-3.593 0.71,-6c0.193,-1.12 0.693,-1.967 1.5,-2.54Z" style="fill:#9faa95;fill-rule:nonzero;"/><path d="M59.773,65l-0.71,-0.04l-0.82,-5.41c-0.1,-0.673 0.017,-0.723 0.35,-0.15c0.873,1.513 1.267,3.38 1.18,5.6Z" style="fill:#63714b;fill-rule:nonzero;"/><path d="M24.413,65.25c-0.547,0.913 -0.83,0.837 -0.85,-0.23c-0.027,-1.467 0.307,-2.833 1,-4.1c0.173,-0.307 0.307,-0.29 0.4,0.05c0.427,1.52 0.243,2.947 -0.55,4.28Z" style="fill:#9faa95;fill-rule:nonzero;"/><path d="M59.063,64.96l0.71,0.04c-0.14,0.593 0.04,0.94 0.54,1.04c-1.107,1.453 -1.773,1.203 -2,-0.75c0.213,-0.193 0.463,-0.303 0.75,-0.33Z" style="fill:#b3beb4;fill-rule:nonzero;"/></svg>