<?xml version="1.0" encoding="UTF-8" standalone="no"?><!DOCTYPE svg PUBLIC "-//W3C//DTD SVG 1.1//EN" "http://www.w3.org/Graphics/SVG/1.1/DTD/svg11.dtd"><svg width="100%" height="100%" viewBox="0 0 207 74" version="1.1" xmlns="http://www.w3.org/2000/svg" xmlns:xlink="http://www.w3.org/1999/xlink" xml:space="preserve" xmlns:serif="http://www.serif.com/" style="fill-rule:evenodd;clip-rule:evenodd;"><g><path d="M137.56,0c-3.773,0.353 -7.333,1.42 -10.68,3.2c-0.27,0.14 -0.6,0.14 -0.87,-0.02c-1.467,-0.833 -3.053,-1.21 -4.76,-1.13c-3.673,0.167 -7.293,-0.183 -10.86,-1.05c-4.147,-1.007 -7.61,-0.277 -10.39,2.19c-1.26,1.12 -2.463,1.063 -3.61,-0.17c-2.207,-2.367 -4.92,-3.29 -8.14,-2.77c-2.213,0.36 -7.317,0.45 -15.31,0.27c-0.073,0 -0.697,-0.05 -1.87,-0.15c-1.98,-0.167 -3.733,0.41 -5.26,1.73c-0.28,0.24 -0.567,0.39 -0.86,0.45c-1.833,0.367 -3.577,0.2 -5.23,-0.5c-1.82,-0.773 -3.087,-1.21 -3.8,-1.31c-2.953,-0.413 -5.76,-0.577 -8.42,-0.49c-7.927,0.253 -14.903,0.26 -20.93,0.02c-4.12,-0.167 -7.947,0.553 -11.48,2.16c-0.547,0.253 -1.11,0.447 -1.69,0.58c-4.2,0.96 -7.483,2.23 -9.85,3.81c-1.507,1.007 -2.277,2.413 -2.31,4.22c-0.24,12.54 -0.653,25.257 -1.24,38.15" style="fill:none;fill-rule:nonzero;stroke:#a07d74;stroke-width:2px;"/><path d="M143.31,0c2.247,0.093 4.497,0.74 6.75,1.94c1.333,0.707 2.743,0.927 4.23,0.66c1.68,-0.3 2.89,-0.43 3.63,-0.39c3.38,0.187 6.74,-0.05 10.08,-0.71c1.993,-0.393 5.827,-0.247 11.5,0.44c0.31,0.04 0.64,-0.02 0.94,-0.18c1.353,-0.707 2.79,-1.117 4.31,-1.23c3.733,-0.293 7.47,-0.373 11.21,-0.24c3.24,0.12 5.633,0.747 7.18,1.88c2.187,1.607 3.473,3.987 3.86,7.14" style="fill:none;fill-rule:nonzero;stroke:#9c786f;stroke-width:2px;"/><path d="M207,17.31c-0.24,2.22 -0.557,4.43 -0.95,6.63c-0.24,1.327 -0.293,3.003 -0.16,5.03c0.12,1.827 -0.013,3.64 -0.4,5.44c-0.527,2.447 -0.82,4.21 -0.88,5.29c-0.427,7.78 -1.033,15.547 -1.82,23.3c-0.42,4.18 -2.787,7.077 -7.1,8.69c-2.633,0.98 -5.113,1.51 -7.44,1.59c-1.14,0.04 -3.64,-0.01 -7.5,-0.15c-4.727,-0.167 -9.417,-1.62 -14.07,-4.36c-0.3,-0.18 -0.69,-0.07 -0.87,0.23c-0.827,1.44 -2.053,2.373 -3.68,2.8c-2.273,0.6 -3.45,0.913 -3.53,0.94c-1.593,0.573 -3.23,0.993 -4.91,1.26" style="fill:none;fill-rule:nonzero;stroke:#9c786f;stroke-width:2px;"/><path d="M148.44,74c-3.133,-0.28 -6.273,-0.5 -9.42,-0.66c-1.007,-0.053 -2.147,-0.297 -3.42,-0.73c-1.447,-0.487 -2.623,-0.677 -3.53,-0.57c-1.607,0.187 -3.08,-0.18 -4.42,-1.1c-3.727,-2.567 -6.693,-2.53 -8.9,0.11c-0.22,0.26 -0.5,0.43 -0.8,0.49c-3.053,0.647 -6.11,0.757 -9.17,0.33c-2.153,-0.307 -4.06,-0.42 -5.72,-0.34c-5.04,0.24 -10.01,-0.28 -14.91,-1.56c-0.68,-0.18 -1.67,-0.367 -2.97,-0.56c-1.007,-0.147 -1.993,-0.393 -2.96,-0.74c-0.31,-0.1 -0.63,-0.08 -0.91,0.05c-2.207,1.053 -4.473,1.927 -6.8,2.62c-1.873,0.567 -4.257,0.853 -7.15,0.86c-3.3,0 -6.593,0.157 -9.88,0.47c-2.22,0.213 -4.213,0.263 -5.98,0.15c-1.987,-0.12 -3.977,-0.26 -5.97,-0.42c-2.313,-0.187 -3.493,-0.287 -3.54,-0.3c-1.307,-0.313 -2.283,-1.117 -2.93,-2.41c-0.853,-1.713 -1.763,-3.15 -2.73,-4.31c-0.18,-0.21 -0.5,-0.24 -0.71,-0.05c-2.247,1.96 -3.89,3.663 -4.93,5.11c-1.407,1.953 -3.303,2.987 -5.69,3.1c-9.567,0.46 -16.837,-3.283 -21.81,-11.23c-2.053,-3.273 -3.117,-6.48 -3.19,-9.62" style="fill:none;fill-rule:nonzero;stroke:#a58279;stroke-width:2px;"/><path d="M20.5,3.28l-2.09,6c-0.1,0.3 -0.09,0.63 0.03,0.93c1.7,4.093 4.033,7.543 7,10.35c1.333,1.267 2.367,2.423 3.1,3.47c0.18,0.26 0.47,0.42 0.77,0.41c0.8,-0.007 1.587,-0.09 2.36,-0.25c1.16,-0.247 2.103,-0.36 2.83,-0.34c5.34,0.12 10.68,0.097 16.02,-0.07c0.647,-0.02 1.257,-0.197 1.83,-0.53c0.88,-0.507 1.45,-0.82 1.71,-0.94c1.82,-0.82 2.86,-2.13 3.12,-3.93c0.16,-1.087 0.247,-1.663 0.26,-1.73c0.307,-1.367 0.57,-2.737 0.79,-4.11c0.267,-1.64 0.06,-3.15 -0.62,-4.53c-0.427,-0.86 -1.013,-1.85 -1.76,-2.97c-0.647,-0.973 -1.457,-1.81 -2.43,-2.51c-0.25,-0.18 -0.58,-0.27 -0.92,-0.27l-30.87,0.23c-0.51,0.01 -0.96,0.32 -1.13,0.79" style="fill:none;fill-rule:nonzero;stroke:#b19297;stroke-width:2px;"/><path d="M73.15,3.34c-1.173,-0.5 -2.35,-0.507 -3.53,-0.02c-2.773,1.147 -5.74,2.877 -8.9,5.19c-0.26,0.19 -0.43,0.48 -0.46,0.8c-0.473,4.047 -1.333,8.01 -2.58,11.89c-0.427,1.34 0.053,2.127 1.44,2.36c3.387,0.58 6.93,0.84 10.63,0.78c5.167,-0.08 10.52,-0.02 16.06,0.18c0.96,0.04 1.82,-0.56 2.08,-1.44l4.99,-17.03c0.78,-2.673 -0.26,-3.94 -3.12,-3.8c-3.66,0.173 -7.3,0.543 -10.92,1.11c-0.047,0.013 -0.577,0.193 -1.59,0.54c-1.02,0.353 -2.387,0.167 -4.1,-0.56" style="fill:none;fill-rule:nonzero;stroke:#b19297;stroke-width:2px;"/><path d="M202.54,11.75c0.74,-0.187 1.163,0.06 1.27,0.74c0.1,0.673 0.343,0.917 0.73,0.73c0.25,-0.12 0.42,-0.42 0.44,-0.78c0.033,-0.713 -0.037,-1.413 -0.21,-2.1c-0.04,-0.153 -0.123,-0.727 -0.25,-1.72c-0.093,-0.74 -0.503,-1.28 -1.23,-1.62" style="fill:none;fill-rule:nonzero;stroke:#734448;stroke-width:2px;"/><path d="M203.29,7c-0.693,-1.673 -1.74,-3.07 -3.14,-4.19c-0.25,-0.2 -0.56,-0.32 -0.89,-0.34c-4.073,-0.227 -8.15,-0.313 -12.23,-0.26c-1.72,0.027 -3.03,0.28 -3.93,0.76c-1.387,0.753 -2.27,1.873 -2.65,3.36c-0.373,1.46 -0.08,2.997 0.88,4.61c0.847,1.413 1.92,2.67 3.22,3.77c1.72,1.453 3.493,2.84 5.32,4.16c0.027,0.02 0.853,0.707 2.48,2.06c1.48,1.22 3.21,1.997 5.19,2.33c0.49,0.08 0.98,-0.09 1.3,-0.46c2.82,-3.167 4.053,-6.85 3.7,-11.05" style="fill:none;fill-rule:nonzero;stroke:#b19297;stroke-width:2px;"/><path d="M203.29,7l-0.75,4.75" style="fill:none;fill-rule:nonzero;stroke:#c1b1b0;stroke-width:2px;"/><path d="M59.98,3.94c-1.387,-0.047 -2.657,-0.433 -3.81,-1.16c-0.293,-0.18 -0.39,-0.113 -0.29,0.2c0.627,2.087 2.067,3.013 4.32,2.78c0.367,-0.04 0.657,-0.173 0.87,-0.4c0.393,-0.42 0.393,-0.793 0,-1.12c-0.227,-0.187 -0.59,-0.287 -1.09,-0.3" style="fill:none;fill-rule:nonzero;stroke:#862e3f;stroke-width:2px;"/><path d="M145.1,3.34c-1.713,-0.293 -3.663,-0.49 -5.85,-0.59c-3.24,-0.147 -5.677,0.813 -7.31,2.88c-1.153,1.453 -1.537,3.327 -1.15,5.62c0.653,3.88 2.37,7.233 5.15,10.06c0.893,0.913 2.06,1.477 3.5,1.69c0.32,0.05 0.62,0.19 0.87,0.4c1.753,1.513 3.767,1.877 6.04,1.09c0.29,-0.1 0.51,-0.35 0.58,-0.66c1.013,-4.067 2.23,-8.07 3.65,-12.01c0.907,-2.527 0.707,-4.583 -0.6,-6.17c-0.947,-1.147 -2.573,-1.917 -4.88,-2.31" style="fill:none;fill-rule:nonzero;stroke:#b19297;stroke-width:2px;"/><path d="M107,23.79c0.027,0.547 0.277,0.937 0.75,1.17" style="fill:none;fill-rule:nonzero;stroke:#734448;stroke-width:2px;"/><path d="M107.75,24.96c5.673,1.4 11.143,0.873 16.41,-1.58c0.713,-0.327 1.09,-0.87 1.13,-1.63" style="fill:none;fill-rule:nonzero;stroke:#b19297;stroke-width:2px;"/><path d="M125.29,21.75c0.333,-0.147 0.5,-0.397 0.5,-0.75" style="fill:none;fill-rule:nonzero;stroke:#734448;stroke-width:2px;"/><path d="M125.79,21c1.273,-0.233 1.913,-0.983 1.92,-2.25" style="fill:none;fill-rule:nonzero;stroke:#a07d74;stroke-width:2px;"/><path d="M127.71,18.75l-0.25,-1.25" style="fill:none;fill-rule:nonzero;stroke:#734448;stroke-width:2px;"/><path d="M127.46,17.5c0.587,-3.187 0.22,-6.153 -1.1,-8.9c-0.807,-1.687 -1.803,-2.863 -2.99,-3.53c-1.347,-0.76 -2.97,-1.033 -4.87,-0.82c-2.267,0.253 -4.8,0.103 -7.6,-0.45c-2.067,-0.407 -3.663,-0.403 -4.79,0.01c-1.993,0.733 -3.593,2.067 -4.8,4c-0.493,0.793 -0.927,2.44 -1.3,4.94c-0.367,2.46 -0.543,3.787 -0.53,3.98c0.053,1.44 0.707,2.717 1.96,3.83c1.76,1.567 3.613,2.643 5.56,3.23" style="fill:none;fill-rule:nonzero;stroke:#b19297;stroke-width:2px;"/><path d="M127.46,17.5c-5.687,2.74 -11.673,4.49 -17.96,5.25c-0.8,0.1 -1.633,0.447 -2.5,1.04" style="fill:none;fill-rule:nonzero;stroke:#c1b1b0;stroke-width:2px;"/><path d="M127.71,18.75c-1.62,0.033 -2.26,0.783 -1.92,2.25" style="fill:none;fill-rule:nonzero;stroke:#b09c8d;stroke-width:2px;"/><path d="M125.29,21.75c-0.727,-0.513 -1.407,-0.68 -2.04,-0.5c-5.707,1.6 -10.54,2.6 -14.5,3c-0.653,0.067 -0.987,0.303 -1,0.71" style="fill:none;fill-rule:nonzero;stroke:#c1b1b0;stroke-width:2px;"/><path d="M175.49,3.43c-3.413,-0.333 -6.767,-0.08 -10.06,0.76c-1.947,0.493 -3.237,0.857 -3.87,1.09c-1.32,0.487 -2.487,1.2 -3.5,2.14c-1.1,1.02 -2.393,2.487 -3.88,4.4c-1.793,2.307 -2.937,5.117 -3.43,8.43c-0.233,1.56 -0.013,2.877 0.66,3.95c0.613,0.973 1.667,1.48 3.16,1.52c1,0.033 1.993,-0.027 2.98,-0.18c1.113,-0.173 2.09,-0.263 2.93,-0.27c4.627,-0.047 8.963,-1.107 13.01,-3.18c2.087,-1.073 3.49,-2.277 4.21,-3.61c0.987,-1.827 1.01,-3.857 0.07,-6.09c-0.12,-0.29 -0.17,-0.62 -0.13,-0.95c0.313,-2.253 -0.067,-4.673 -1.14,-7.26c-0.17,-0.42 -0.56,-0.71 -1.01,-0.75" style="fill:none;fill-rule:nonzero;stroke:#b19297;stroke-width:2px;"/><path d="M157.09,5.17c-1.613,1.073 -2.587,2.167 -2.92,3.28c-0.107,0.347 -0.003,0.42 0.31,0.22c1.6,-1.007 3.217,-1.983 4.85,-2.93c0.34,-0.193 0.55,-0.42 0.63,-0.68c0.18,-0.573 -0.253,-0.753 -1.3,-0.54c-0.567,0.113 -1.09,0.33 -1.57,0.65" style="fill:none;fill-rule:nonzero;stroke:#ad8b90;stroke-width:2px;"/><path d="M3.99,10.51c-0.527,4.373 -0.673,9 -0.44,13.88c0.03,0.71 0.6,1.28 1.31,1.31l10.58,0.47c0.32,0.01 0.6,-0.18 0.65,-0.45l1.38,-7.72c0.05,-0.26 -0.03,-0.6 -0.22,-0.93c-1.133,-1.98 -1.973,-4.07 -2.52,-6.27c-0.06,-0.253 -0.087,-0.957 -0.08,-2.11c0.013,-0.927 -0.38,-1.593 -1.18,-2c-0.26,-0.13 -0.6,-0.15 -0.95,-0.05l-6.77,1.88c-0.95,0.26 -1.65,1.05 -1.76,1.99" style="fill:none;fill-rule:nonzero;stroke:#b19297;stroke-width:2px;"/><path d="M91.582,23.4c0.838,0.35 2.988,-2.9 4.792,-7.259c1.806,-4.361 2.586,-8.171 1.744,-8.521c-0.838,-0.35 -2.988,2.9 -4.792,7.259c-1.806,4.361 -2.586,8.171 -1.744,8.521" style="fill:none;fill-rule:nonzero;stroke:#b19297;stroke-width:2px;"/><path d="M131.572,18.467c0.288,-0.137 0.258,-0.837 -0.085,-1.578c-0.337,-0.739 -0.847,-1.229 -1.139,-1.096c-0.288,0.137 -0.258,0.837 0.085,1.578c0.337,0.739 0.847,1.229 1.139,1.096" style="fill:none;fill-rule:nonzero;stroke:#8c4e53;stroke-width:2px;"/><path d="M190.33,21.72c-2.133,-2.213 -4.48,-3.607 -7.04,-4.18c-0.267,-0.06 -0.54,-0.213 -0.82,-0.46c-0.607,-0.533 -1.133,-0.423 -1.58,0.33c-0.92,1.567 -1.51,3.243 -1.77,5.03c-0.03,0.25 0.18,0.48 0.43,0.46l10.56,-0.63c0.467,-0.033 0.54,-0.217 0.22,-0.55" style="fill:none;fill-rule:nonzero;stroke:#b19297;stroke-width:2px;"/><path d="M204.06,18.71l-3.13,5.32c-0.15,0.26 -0.01,0.58 0.29,0.66c0.593,0.147 1.1,-0.077 1.52,-0.67c1.12,-1.567 1.707,-3.283 1.76,-5.15c0.013,-0.627 -0.133,-0.68 -0.44,-0.16" style="fill:none;fill-rule:nonzero;stroke:#a07d74;stroke-width:2px;"/><path d="M134.213,22.646c0.217,-0.126 0.007,-0.876 -0.466,-1.666c-0.467,-0.79 -1.027,-1.33 -1.24,-1.206c-0.217,0.126 -0.007,0.876 0.466,1.666c0.467,0.79 1.027,1.33 1.24,1.206" style="fill:none;fill-rule:nonzero;stroke:#8c4e53;stroke-width:2px;"/><path d="M22.47,20.85c-0.38,1.08 -0.223,1.753 0.47,2.02c0.573,0.22 1.093,0.157 1.56,-0.19c0.573,-0.433 0.38,-1.15 -0.58,-2.15c-0.45,-0.47 -1.23,-0.29 -1.45,0.32" style="fill:none;fill-rule:nonzero;stroke:#8c4e53;stroke-width:2px;"/><path d="M19.87,25.64c0.187,-0.02 0.333,-0.13 0.44,-0.33c0.1,-0.193 0.113,-0.447 0.04,-0.76c-1.227,-5.573 -1.547,-5.39 -0.96,0.55c0.03,0.32 0.25,0.57 0.48,0.54" style="fill:none;fill-rule:nonzero;stroke:#a07d74;stroke-width:2px;"/><path d="M177.07,23.04c0.347,-1.56 -0.14,-1.977 -1.46,-1.25c-1.753,0.967 -3.547,1.853 -5.38,2.66c-1.02,0.447 -1.023,0.707 -0.01,0.78c0.173,0.013 0.36,-0.003 0.56,-0.05c1.473,-0.34 3.01,-0.57 4.61,-0.69c0.82,-0.07 1.5,-0.65 1.68,-1.45" style="fill:none;fill-rule:nonzero;stroke:#b19297;stroke-width:2px;"/><path d="M132.688,24.856c0.102,-0.516 -0.588,-1.086 -1.547,-1.269c-0.951,-0.187 -1.811,0.083 -1.909,0.597c-0.102,0.516 0.588,1.086 1.547,1.268c0.951,0.188 1.811,-0.082 1.909,-0.596" style="fill:none;fill-rule:nonzero;stroke:#9c786f;stroke-width:2px;"/><path d="M180.29,27.75l-3.95,4.89c-0.17,0.22 -0.28,0.54 -0.3,0.92c-0.213,4.973 -0.543,9.94 -0.99,14.9c-0.007,0.073 -0.003,0.433 0.01,1.08c0.013,0.967 -0.493,1.603 -1.52,1.91c-0.32,0.1 -0.58,0.29 -0.73,0.55c-1.193,2.047 -2.403,4.083 -3.63,6.11c-0.02,0.04 -0.39,0.56 -1.11,1.56c-1.22,1.7 -1.097,3.497 0.37,5.39c2.273,2.953 5.173,4.393 8.7,4.32c2.113,-0.04 3.187,-0.06 3.22,-0.06c2.213,0.1 4.423,0.223 6.63,0.37c5.6,0.367 8.44,-2.323 8.52,-8.07c0.013,-1.38 0.53,-2.663 1.55,-3.85l3.13,-3.63c0.2,-0.23 0.33,-0.54 0.37,-0.88c0.347,-2.947 0.26,-5.887 -0.26,-8.82c-0.147,-0.82 -0.08,-1.62 0.2,-2.4" style="fill:none;fill-rule:nonzero;stroke:#b19297;stroke-width:2px;"/><path d="M200.5,42.04c1.113,0.073 1.643,-0.277 1.59,-1.05c-0.027,-0.447 -0.207,-0.537 -0.54,-0.27l-1.55,1.24" style="fill:none;fill-rule:nonzero;stroke:#734448;stroke-width:2px;"/><path d="M200,41.96l-5.68,3.94c-1.287,0.893 -1.417,0.743 -0.39,-0.45c1.54,-1.8 3.133,-3.547 4.78,-5.24c3.767,-3.86 4.307,-8.347 1.62,-13.46c-0.33,-0.64 -0.94,-1.04 -1.58,-1.04l-11,0" style="fill:none;fill-rule:nonzero;stroke:#b19297;stroke-width:2px;"/><path d="M187.75,25.71c-0.98,-1.453 -2.23,-1.827 -3.75,-1.12c-0.3,0.14 -0.62,0.19 -0.93,0.15c-2.12,-0.267 -3.923,0.343 -5.41,1.83c-0.227,0.227 -0.177,0.33 0.15,0.31c0.94,-0.053 1.767,0.237 2.48,0.87" style="fill:none;fill-rule:nonzero;stroke:#8c4e53;stroke-width:2px;"/><path d="M187.75,25.71l-7.46,2.04" style="fill:none;fill-rule:nonzero;stroke:#dabbbb;stroke-width:2px;"/><path d="M200,41.96l0.5,0.08" style="fill:none;fill-rule:nonzero;stroke:#c1b1b0;stroke-width:2px;"/><path d="M100.25,28.29l0,0.67" style="fill:none;fill-rule:nonzero;stroke:#734448;stroke-width:2px;"/><path d="M100.25,28.96c-1.513,0.307 -3.013,0.223 -4.5,-0.25" style="fill:none;fill-rule:nonzero;stroke:#b19297;stroke-width:2px;"/><path d="M95.75,28.71c-1.787,-0.96 -3.703,-1.267 -5.75,-0.92" style="fill:none;fill-rule:nonzero;stroke:#9c786f;stroke-width:2px;"/><path d="M90,27.79c-3.84,-0.293 -11.34,-0.39 -22.5,-0.29c-3.653,0.033 -6.237,0.297 -7.75,0.79" style="fill:none;fill-rule:nonzero;stroke:#ad8b90;stroke-width:2px;"/><path d="M59.75,28.29c-0.567,-0.047 -1.067,0.12 -1.5,0.5" style="fill:none;fill-rule:nonzero;stroke:#734448;stroke-width:2px;"/><path d="M58.25,28.79c-0.933,-0.873 -1.747,-1.283 -2.44,-1.23c-2.367,0.187 -4.303,0.167 -5.81,-0.06c-1.26,-0.187 -2.093,0.217 -2.5,1.21" style="fill:none;fill-rule:nonzero;stroke:#ad8b90;stroke-width:2px;"/><path d="M47.5,28.71c-0.32,0.18 -0.57,0.43 -0.75,0.75" style="fill:none;fill-rule:nonzero;stroke:#734448;stroke-width:2px;"/><path d="M46.75,29.46c-3.733,-0.033 -7.303,0.647 -10.71,2.04" style="fill:none;fill-rule:nonzero;stroke:#b19297;stroke-width:2px;"/><path d="M36.04,31.5l-0.29,-0.37c-0.15,-0.19 -0.12,-0.49 0.08,-0.7c1.027,-1.08 0.697,-1.413 -0.99,-1c-2.767,0.68 -3.95,2.37 -3.55,5.07" style="fill:none;fill-rule:nonzero;stroke:#8c4e53;stroke-width:2px;"/><path d="M31.29,34.5l0.06,3.31c0.01,0.29 0.25,0.54 0.58,0.62c1.947,0.447 3.913,0.577 5.9,0.39c0.28,-0.027 0.703,-0.157 1.27,-0.39c0.973,-0.413 1.223,0.197 0.75,1.83c-0.08,0.29 -0.35,0.49 -0.65,0.49l-7.89,0.05c-0.27,0 -0.49,0.24 -0.45,0.51c0.187,1.52 0.83,2.833 1.93,3.94" style="fill:none;fill-rule:nonzero;stroke:#b19297;stroke-width:2px;"/><path d="M32.79,45.25c0.313,1.407 1.2,1.997 2.66,1.77c2.753,-0.433 2.667,-0.837 -0.26,-1.21c-0.933,-0.113 -1.497,-0.287 -1.69,-0.52" style="fill:none;fill-rule:nonzero;stroke:#a07d74;stroke-width:2px;"/><path d="M33.5,45.29l7.18,0.05c0.31,0.01 0.57,0.2 0.6,0.46c0.187,1.293 -0.323,1.943 -1.53,1.95c-1.433,0.007 -2.85,0.14 -4.25,0.4c-0.353,0.067 -0.36,0.147 -0.02,0.24c3.413,0.94 6.767,0.727 10.06,-0.64" style="fill:none;fill-rule:nonzero;stroke:#b19297;stroke-width:2px;"/><path d="M45.54,47.75c0.32,-0.273 0.557,-0.62 0.71,-1.04" style="fill:none;fill-rule:nonzero;stroke:#8c4e53;stroke-width:2px;"/><path d="M46.25,46.71c7.027,0.06 14.053,0.093 21.08,0.1c0.267,0 0.487,0.067 0.66,0.2c0.5,0.387 0.327,0.673 -0.52,0.86c-0.46,0.1 -0.68,0.25 -0.66,0.45c0.02,0.21 0.34,0.37 0.72,0.35c3.993,-0.147 7.987,-0.327 11.98,-0.54c0.04,-0 1.687,-0.203 4.94,-0.61c1.733,-0.22 3.47,-0.177 5.21,0.13c1.073,0.187 2.143,0.257 3.21,0.21c1.093,-0.047 2.18,0.003 3.26,0.15c2.027,0.28 3.62,0.363 4.78,0.25c5.84,-0.567 9.723,-0.84 11.65,-0.82c2.227,0.02 4.17,-0.057 5.83,-0.23c2.473,-0.26 4.393,-0.37 5.76,-0.33c2.513,0.08 5.027,0.06 7.54,-0.06c2.2,-0.107 4.69,-0.04 7.47,0.2c3.273,0.287 6.553,0.267 9.84,-0.06" style="fill:none;fill-rule:nonzero;stroke:#b19297;stroke-width:2px;"/><path d="M149,46.96c2.06,0.64 3.977,0.39 5.75,-0.75" style="fill:none;fill-rule:nonzero;stroke:#8c4e53;stroke-width:2px;"/><path d="M154.75,46.21l0.68,0.9c0.18,0.24 0.49,0.36 0.82,0.34l13.93,-1.11c0.22,-0.013 0.54,0.047 0.96,0.18c0.4,0.127 0.693,0.047 0.88,-0.24c0.13,-0.21 -0.05,-0.49 -0.34,-0.52l-10.68,-1.05" style="fill:none;fill-rule:nonzero;stroke:#b19297;stroke-width:2px;"/><path d="M161,44.71c-0.013,-0.38 0.157,-0.6 0.51,-0.66c1.32,-0.207 2.65,-0.377 3.99,-0.51" style="fill:none;fill-rule:nonzero;stroke:#8c4e53;stroke-width:2px;"/><path d="M165.5,43.54c2,-0.153 3.993,-0.097 5.98,0.17c0.207,0.027 0.38,0.007 0.52,-0.06c0.42,-0.213 0.253,-0.43 -0.5,-0.65c-1.413,-0.413 -4.58,-0.317 -9.5,0.29" style="fill:none;fill-rule:nonzero;stroke:#ad8b90;stroke-width:2px;"/><path d="M162,43.29c-0.933,-0.073 -1.863,-0.053 -2.79,0.06c-0.08,0.013 -0.723,0.03 -1.93,0.05c-0.9,0.02 -1.66,0.373 -2.28,1.06" style="fill:none;fill-rule:nonzero;stroke:#8c4e53;stroke-width:2px;"/><path d="M155,44.46l-7.56,0.88c-0.353,0.04 -0.677,0.013 -0.97,-0.08c-0.907,-0.293 -1.817,-0.307 -2.73,-0.04c-0.72,0.213 -1.23,0.303 -1.53,0.27c-0.54,-0.053 -1.053,-0.213 -1.54,-0.48c-0.32,-0.173 -0.623,-0.263 -0.91,-0.27c-8.18,-0.113 -15.6,0.057 -22.26,0.51c-1.273,0.087 -2.357,-0.093 -3.25,-0.54" style="fill:none;fill-rule:nonzero;stroke:#b19297;stroke-width:2px;"/><path d="M114.25,44.71l0,-0.17" style="fill:none;fill-rule:nonzero;stroke:#8c4e53;stroke-width:2px;"/><path d="M114.25,44.54c1.473,-0.387 2.723,-0.483 3.75,-0.29c1.08,0.2 2.063,0.21 2.95,0.03c1.48,-0.307 2.413,-0.457 2.8,-0.45c5.753,0.06 9.42,0.033 11,-0.08c1.86,-0.133 3.53,-0.15 5.01,-0.05c2.047,0.133 3.703,0.113 4.97,-0.06c2.213,-0.293 4.433,-0.523 6.66,-0.69c1.233,-0.093 3.44,-0.427 6.62,-1c2.413,-0.433 4.973,-0.57 7.68,-0.41c0.96,0.06 1.9,-0.28 2.61,-0.94c1.813,-1.687 1.13,-2.483 -2.05,-2.39" style="fill:none;fill-rule:nonzero;stroke:#b19297;stroke-width:2px;"/><path d="M166.25,38.21c-1.02,-1.207 -2.103,-1.263 -3.25,-0.17" style="fill:none;fill-rule:nonzero;stroke:#8c4e53;stroke-width:2px;"/><path d="M163,38.04c-1.12,0.12 -2.193,0.017 -3.22,-0.31c-0.34,-0.107 -0.333,-0.2 0.02,-0.28l12.14,-2.66c0.27,-0.06 0.41,-0.34 0.29,-0.55c-0.493,-0.86 -1.423,-1.383 -2.79,-1.57c-0.28,-0.03 -0.49,-0.29 -0.47,-0.58c0.067,-0.827 -0.173,-1.37 -0.72,-1.63" style="fill:none;fill-rule:nonzero;stroke:#b19297;stroke-width:2px;"/><path d="M168.25,30.46c-0.06,-0.413 -0.187,-0.763 -0.38,-1.05c-0.18,-0.26 -0.48,-0.437 -0.9,-0.53c-4.707,-1.053 -9.447,-1.193 -14.22,-0.42" style="fill:none;fill-rule:nonzero;stroke:#8c4e53;stroke-width:2px;"/><path d="M152.75,28.46l-3.5,0.58" style="fill:none;fill-rule:nonzero;stroke:#9c786f;stroke-width:2px;"/><path d="M149.25,29.04c-5.92,-0.207 -11.837,-0.22 -17.75,-0.04c-0.533,0.013 -1.7,-0.133 -3.5,-0.44c-1.18,-0.2 -2.35,-0.273 -3.51,-0.22c-5.413,0.247 -10.827,0.203 -16.24,-0.13" style="fill:none;fill-rule:nonzero;stroke:#b19297;stroke-width:2px;"/><path d="M108.25,28.21c-0.273,-1.093 -0.897,-1.427 -1.87,-1c-0.333,0.14 -0.647,0.207 -0.94,0.2l-3.9,-0.16" style="fill:none;fill-rule:nonzero;stroke:#734448;stroke-width:2px;"/><path d="M101.54,27.25c-2.1,-0.853 -2.53,-0.507 -1.29,1.04" style="fill:none;fill-rule:nonzero;stroke:#9c786f;stroke-width:2px;"/><path d="M101.54,27.25c-0.12,0.693 -0.55,1.04 -1.29,1.04" style="fill:none;fill-rule:nonzero;stroke:#ac9788;stroke-width:2px;"/><path d="M108.25,28.21l-8,0.75" style="fill:none;fill-rule:nonzero;stroke:#c1b1b0;stroke-width:2px;"/><path d="M149.25,29.04l5.25,1.67" style="fill:none;fill-rule:nonzero;stroke:#eae5d7;stroke-width:2px;"/><path d="M163,38.04c1.047,0.593 2.13,0.65 3.25,0.17" style="fill:none;fill-rule:nonzero;stroke:#dabbbb;stroke-width:2px;"/><path d="M114.25,44.54l-6.94,-0.13c-0.46,-0.007 -0.463,0.05 -0.01,0.17c2.293,0.613 4.61,0.657 6.95,0.13" style="fill:none;fill-rule:nonzero;stroke:#dabbbb;stroke-width:2px;"/><path d="M155,44.46l6,0.25" style="fill:none;fill-rule:nonzero;stroke:#dabbbb;stroke-width:2px;"/><path d="M154.75,46.21c-2.013,-1.087 -3.93,-0.837 -5.75,0.75" style="fill:none;fill-rule:nonzero;stroke:#dabbbb;stroke-width:2px;"/><path d="M46.25,46.71c-0.827,-0.48 -1.68,-0.6 -2.56,-0.36c-0.3,0.08 -0.603,0.14 -0.91,0.18c-0.74,0.087 -0.94,0.37 -0.6,0.85c0.15,0.22 0.47,0.3 0.8,0.21c0.853,-0.24 1.707,-0.187 2.56,0.16" style="fill:none;fill-rule:nonzero;stroke:#dabbbb;stroke-width:2px;"/><path d="M33.5,45.29l-0.71,-0.04" style="fill:none;fill-rule:nonzero;stroke:#eeeadc;stroke-width:2px;"/><path d="M31.29,34.5l4.75,-3" style="fill:none;fill-rule:nonzero;stroke:#dabbbb;stroke-width:2px;"/><path d="M88.79,29.5c-1.113,0.447 -2.543,0.613 -4.29,0.5c-8.793,-0.567 -18.14,-0.41 -28.04,0.47c-0.1,0.007 -2.453,0.197 -7.06,0.57c-4.04,0.327 -6.923,0.813 -8.65,1.46c-0.62,0.233 -1.057,0.267 -1.31,0.1c-0.407,-0.253 -0.33,-0.437 0.23,-0.55l7.33,-1.49c0.37,-0.08 0.64,-0.3 0.64,-0.54c0.007,-0.347 -0.29,-0.533 -0.89,-0.56" style="fill:none;fill-rule:nonzero;stroke:#c1b1b0;stroke-width:2px;"/><path d="M95.75,28.71c-2.253,0.867 -4.573,1.13 -6.96,0.79" style="fill:none;fill-rule:nonzero;stroke:#eae5d7;stroke-width:2px;"/><path d="M88.79,29.5l-0.04,-0.21" style="fill:none;fill-rule:nonzero;stroke:#ac9788;stroke-width:2px;"/><path d="M168.25,30.46c-1.14,0.32 -2.307,0.417 -3.5,0.29c-3.413,-0.367 -6.83,-0.38 -10.25,-0.04" style="fill:none;fill-rule:nonzero;stroke:#dabbbb;stroke-width:2px;"/><path d="M154.5,30.71c0.053,-1.247 -0.53,-1.997 -1.75,-2.25" style="fill:none;fill-rule:nonzero;stroke:#c5a193;stroke-width:2px;"/><path d="M90,27.79c0.08,0.927 -0.337,1.427 -1.25,1.5" style="fill:none;fill-rule:nonzero;stroke:#e5ded0;stroke-width:2px;"/><path d="M88.75,29.29c-1.207,-0.46 -2.457,-0.66 -3.75,-0.6c-8,0.373 -16,0.393 -24,0.06c-0.767,-0.033 -1.183,-0.187 -1.25,-0.46" style="fill:none;fill-rule:nonzero;stroke:#bdaaa9;stroke-width:2px;"/><path d="M58.25,28.79c0.04,0.2 0.033,0.377 -0.02,0.53c-0.08,0.21 -0.39,0.34 -0.76,0.31l-9.97,-0.92" style="fill:none;fill-rule:nonzero;stroke:#bdaaa9;stroke-width:2px;"/><path d="M165.5,43.54l-3.5,-0.25" style="fill:none;fill-rule:nonzero;stroke:#d6b4b3;stroke-width:2px;"/><path d="M42.778,27.619c-0.088,-0.419 -1.078,-0.569 -2.221,-0.334c-1.147,0.235 -1.997,0.755 -1.915,1.176c0.088,0.419 1.078,0.569 2.221,0.334c1.147,-0.235 1.997,-0.755 1.915,-1.176" style="fill:none;fill-rule:nonzero;stroke:#8c4e53;stroke-width:2px;"/><path d="M173.57,30.71c1.747,1.413 2.48,0.977 2.2,-1.31c-0.05,-0.4 -0.41,-0.7 -0.81,-0.67c-2.333,0.187 -2.797,0.847 -1.39,1.98" style="fill:none;fill-rule:nonzero;stroke:#b19297;stroke-width:2px;"/><path d="M4.21,32c-1.107,0.113 -1.63,0.643 -1.57,1.59c0.047,0.813 0.067,1.26 0.06,1.34c-0.107,1.78 -0.02,3.553 0.26,5.32" style="fill:none;fill-rule:nonzero;stroke:#734448;stroke-width:2px;"/><path d="M2.96,40.25l0.54,4.04" style="fill:none;fill-rule:nonzero;stroke:#8c4e53;stroke-width:2px;"/><path d="M3.5,44.29c0.367,1.273 0.413,1.867 0.14,1.78c-0.36,-0.12 -0.67,-0.12 -0.78,0c-0.347,0.367 -0.487,0.863 -0.42,1.49c0.267,2.76 0.577,5.513 0.93,8.26c0.04,0.28 0.24,0.53 0.53,0.67c0.933,0.42 1.537,1.173 1.81,2.26" style="fill:none;fill-rule:nonzero;stroke:#734448;stroke-width:2px;"/><path d="M5.71,58.75c1.18,4.113 3.463,7.093 6.85,8.94c0.613,0.333 1.26,0.2 1.94,-0.4" style="fill:none;fill-rule:nonzero;stroke:#a07d74;stroke-width:2px;"/><path d="M14.5,67.29l1.25,0" style="fill:none;fill-rule:nonzero;stroke:#b19297;stroke-width:2px;"/><path d="M15.75,67.29l-0.12,1.39c-0.02,0.33 0.12,0.64 0.36,0.77c1.347,0.747 1.67,0.013 0.97,-2.2" style="fill:none;fill-rule:nonzero;stroke:#a07d74;stroke-width:2px;"/><path d="M16.96,67.25c1.213,-1.273 1.637,-0.817 1.27,1.37c-0.11,0.63 0.23,1.24 0.82,1.49c3.413,1.42 6.43,0.92 9.05,-1.5c1.987,-1.847 3.817,-3.837 5.49,-5.97c0.267,-0.34 0.41,-0.683 0.43,-1.03c0.04,-0.76 -0.24,-1.09 -0.84,-0.99c-0.313,0.047 -0.687,0.253 -1.12,0.62c-2.68,2.24 -5.433,4.383 -8.26,6.43c-0.29,0.22 -0.6,0.3 -0.81,0.21c-0.28,-0.113 -0.177,-0.397 0.31,-0.85c1.107,-1.02 2.167,-2.09 3.18,-3.21c0.047,-0.053 0.897,-0.933 2.55,-2.64c2.62,-2.72 4.273,-6.07 4.96,-10.05c0.05,-0.29 -0.17,-0.56 -0.47,-0.57c-0.807,-0.02 -1.453,-0.387 -1.94,-1.1c-1.913,-2.813 -3.183,-5.873 -3.81,-9.18c-0.273,-1.433 -0.663,-2.55 -1.17,-3.35c-0.5,-0.78 -1.18,-1.777 -2.04,-2.99c-1.033,-1.46 -2.087,-2.61 -3.16,-3.45c-1.027,-0.8 -2.44,-1.307 -4.24,-1.52c-2.473,-0.287 -4.953,-0.32 -7.44,-0.1c-0.04,0.007 -0.86,0.007 -2.46,0c-1.867,-0.007 -2.883,1.037 -3.05,3.13" style="fill:none;fill-rule:nonzero;stroke:#b19297;stroke-width:2px;"/><path d="M16.96,67.25l-1.21,0.04" style="fill:none;fill-rule:nonzero;stroke:#eeeadc;stroke-width:2px;"/><path d="M14.5,67.29c-0.62,0.113 -0.973,-0.047 -1.06,-0.48c-0.087,-0.433 -0.193,-0.73 -0.32,-0.89l-3.76,-4.84c-0.17,-0.22 -0.27,-0.53 -0.28,-0.89c-0.033,-1.293 -0.633,-2.16 -1.8,-2.6c-0.28,-0.11 -0.48,-0.35 -0.56,-0.64c-0.193,-0.707 -0.587,-1.273 -1.18,-1.7" style="fill:none;fill-rule:nonzero;stroke:#eeeadc;stroke-width:2px;"/><path d="M5.54,55.25c-0.207,-3.973 -0.417,-7.943 -0.63,-11.91c-0.02,-0.333 -0.22,-2.213 -0.6,-5.64c-0.207,-1.887 -0.24,-3.787 -0.1,-5.7" style="fill:none;fill-rule:nonzero;stroke:#c1b1b0;stroke-width:2px;"/><path d="M5.54,55.25l0.17,3.5" style="fill:none;fill-rule:nonzero;stroke:#b09c8d;stroke-width:2px;"/><path d="M3.5,44.29c0.367,-1.1 0.52,-2.23 0.46,-3.39c-0.013,-0.267 -0.087,-0.477 -0.22,-0.63c-0.24,-0.267 -0.5,-0.273 -0.78,-0.02" style="fill:none;fill-rule:nonzero;stroke:#9c6d6c;stroke-width:2px;"/><path d="M24.09,28.95c-1.727,-0.54 -2.177,-0.097 -1.35,1.33c0.847,1.467 1.45,1.283 1.81,-0.55c0.07,-0.34 -0.13,-0.68 -0.46,-0.78" style="fill:none;fill-rule:nonzero;stroke:#ad8b90;stroke-width:2px;"/><path d="M28.52,35.19l0.76,-2c0.08,-0.22 0.01,-0.5 -0.18,-0.73l-2.16,-2.66c-0.23,-0.28 -0.61,-0.36 -0.86,-0.18c-0.76,0.527 -1.087,1.26 -0.98,2.2c0.03,0.24 0.19,0.53 0.45,0.83l2.4,2.64c0.17,0.19 0.48,0.14 0.57,-0.1" style="fill:none;fill-rule:nonzero;stroke:#ad8b90;stroke-width:2px;"/><path d="M65.769,48.236c-0.009,-0.326 -1.619,-0.546 -3.594,-0.496c-1.975,0.05 -3.575,0.36 -3.564,0.684c0.009,0.326 1.619,0.546 3.594,0.496c1.975,-0.05 3.575,-0.36 3.564,-0.684" style="fill:none;fill-rule:nonzero;stroke:#a07d74;stroke-width:2px;"/><path d="M128.931,48.353c-0.001,-0.143 -0.111,-0.263 -0.256,-0.264l-11.299,-0.158c-0.146,-0.001 -0.266,0.109 -0.264,0.257l-0.003,0.22c0.001,0.142 0.111,0.262 0.256,0.263l11.299,0.158c0.146,0.001 0.266,-0.109 0.264,-0.256l0.003,-0.22" style="fill:none;fill-rule:nonzero;stroke:#9c786f;stroke-width:2px;"/><path d="M133.657,48.153c-0.017,-0.303 -0.837,-0.503 -1.83,-0.442c-0.987,0.059 -1.777,0.349 -1.764,0.656c0.017,0.303 0.837,0.503 1.83,0.442c0.987,-0.059 1.777,-0.349 1.764,-0.656" style="fill:none;fill-rule:nonzero;stroke:#9c786f;stroke-width:2px;"/><path d="M110.37,47.97c-0.627,-0.147 -0.9,-0.083 -0.82,0.19c0.06,0.2 0.3,0.34 0.6,0.35c1.733,0.027 1.807,-0.153 0.22,-0.54" style="fill:none;fill-rule:nonzero;stroke:#734448;stroke-width:2px;"/><path d="M52.54,48.47l3.46,0.34c0.647,0.067 0.66,-0.017 0.04,-0.25c-1.113,-0.407 -2.277,-0.52 -3.49,-0.34c-0.667,0.107 -0.67,0.19 -0.01,0.25" style="fill:none;fill-rule:nonzero;stroke:#862e3f;stroke-width:2px;"/><path d="M91.67,51.63c0.88,0.087 1.907,0.043 3.08,-0.13c2.533,-0.38 9.637,-0.36 21.31,0.06c4.62,0.167 9.727,0.03 15.32,-0.41c2.773,-0.22 5.687,-0.19 8.74,0.09c5.053,0.46 10.117,0.567 15.19,0.32c0.667,-0.027 1.437,-0.183 2.31,-0.47c0.76,-0.253 1.537,-0.447 2.33,-0.58c0.64,-0.107 0.7,-0.253 0.18,-0.44c-0.153,-0.053 -0.363,-0.077 -0.63,-0.07c-6.793,0.153 -17.19,0.117 -31.19,-0.11c-1.973,-0.033 -4.803,0.06 -8.49,0.28c-2.847,0.173 -5.69,0.21 -8.53,0.11c-7.247,-0.267 -11.487,-0.393 -12.72,-0.38c-11.94,0.12 -23.88,0.07 -35.82,-0.15c-4.107,-0.08 -12.437,0.243 -24.99,0.97c-0.38,0.02 -0.69,0.2 -0.78,0.45c-0.12,0.307 0.053,0.5 0.52,0.58c2.28,0.38 4.697,0.47 7.25,0.27c2.853,-0.227 5.24,-0.307 7.16,-0.24c2.02,0.067 4.043,0.047 6.07,-0.06c2.32,-0.12 4.337,-0.163 6.05,-0.13c3.253,0.067 6.503,0.027 9.75,-0.12c1.92,-0.087 4.397,-0.047 7.43,0.12c2.493,0.14 4.983,0.1 7.47,-0.12c0.467,-0.04 1.463,0.013 2.99,0.16" style="fill:none;fill-rule:nonzero;stroke:#ad8b90;stroke-width:2px;"/><path d="M167.86,53.44c-0.833,5.147 -0.193,5.397 1.92,0.75c0.213,-0.467 0.303,-0.9 0.27,-1.3c-0.107,-1.247 -0.693,-1.35 -1.76,-0.31c-0.23,0.21 -0.38,0.52 -0.43,0.86" style="fill:none;fill-rule:nonzero;stroke:#b19297;stroke-width:2px;"/><path d="M158.52,55.54c-0.567,-0.747 -1.053,-1.197 -1.46,-1.35c-3.613,-1.407 -6.973,-1.087 -10.08,0.96c-0.287,0.193 -0.263,0.257 0.07,0.19c3.433,-0.64 6.563,-0.4 9.39,0.72c1.607,0.64 3.043,0.893 4.31,0.76c0.393,-0.04 0.457,-0.193 0.19,-0.46c-0.427,-0.413 -0.973,-0.583 -1.64,-0.51c-0.31,0.03 -0.61,-0.09 -0.78,-0.31" style="fill:none;fill-rule:nonzero;stroke:#862e3f;stroke-width:2px;"/><path d="M38.5,53.93c-0.28,-0.03 -0.53,0.19 -0.54,0.47c-0.033,0.893 0.14,1.453 0.52,1.68c0.347,0.213 0.773,0.103 1.28,-0.33c1.16,-1.013 0.74,-1.62 -1.26,-1.82" style="fill:none;fill-rule:nonzero;stroke:#8c4e53;stroke-width:2px;"/><path d="M71.06,54.67c-4.287,0.287 -8.557,0.73 -12.81,1.33c-1.56,0.22 -3.43,1.097 -5.61,2.63c-1.12,0.793 -2.297,1.29 -3.53,1.49c-3.473,0.56 -6.95,1.26 -10.43,2.1c-0.34,0.08 -0.52,0.46 -0.35,0.75l3.04,5.31c0.36,0.62 1.02,1.06 1.81,1.21c6.36,1.147 12.717,1.233 19.07,0.26c1.373,-0.207 2.497,-0.133 3.37,0.22c0.32,0.14 0.65,0.18 0.93,0.12c2.133,-0.447 4.27,-0.873 6.41,-1.28c1.947,-0.36 3.597,-1.203 4.95,-2.53c0.433,-0.42 0.86,-1.047 1.28,-1.88c0.347,-0.68 0.713,-1.35 1.1,-2.01c0.773,-1.327 1.25,-2.353 1.43,-3.08c0.847,-3.473 -0.89,-5.117 -5.21,-4.93c-1.82,0.073 -3.637,0.17 -5.45,0.29" style="fill:none;fill-rule:nonzero;stroke:#b19297;stroke-width:2px;"/><path d="M86.46,54.85c-1.107,-0.453 -1.8,-0.333 -2.08,0.36c-0.24,0.587 -0.387,0.923 -0.44,1.01c-0.447,0.813 -0.28,1.287 0.5,1.42c0.23,0.04 0.51,-0.1 0.74,-0.38l1.41,-1.72c0.19,-0.24 0.13,-0.59 -0.13,-0.69" style="fill:none;fill-rule:nonzero;stroke:#ad8b90;stroke-width:2px;"/><path d="M161.31,58.94c-3.38,-1.207 -7.4,-1.853 -12.06,-1.94c-2.287,-0.04 -4.15,-0.527 -5.59,-1.46c-0.307,-0.2 -0.61,-0.317 -0.91,-0.35c-3.247,-0.327 -6.447,-0.1 -9.6,0.68c-0.487,0.12 -1.437,0.233 -2.85,0.34c-1.74,0.127 -2.373,1.057 -1.9,2.79c0.227,0.847 0.303,1.53 0.23,2.05c-0.1,0.673 -0.237,1.36 -0.41,2.06c-0.07,0.3 0.04,0.63 0.29,0.82c2.347,1.8 4.677,3.5 6.99,5.1c1.573,1.087 3.287,1.68 5.14,1.78c1.593,0.087 2.82,0.193 3.68,0.32c1.24,0.18 2.49,0.207 3.75,0.08c0.127,-0.013 1.077,-0.047 2.85,-0.1c1.673,-0.053 3.097,-0.777 4.27,-2.17c1.653,-1.96 3.787,-3.93 6.4,-5.91c0.847,-0.64 1.337,-1.24 1.47,-1.8c0.247,-1.027 -0.337,-1.79 -1.75,-2.29" style="fill:none;fill-rule:nonzero;stroke:#b19297;stroke-width:2px;"/><path d="M85,64.79c0.073,3.2 1.073,3.59 3,1.17" style="fill:none;fill-rule:nonzero;stroke:#734448;stroke-width:2px;"/><path d="M88,65.96c2.32,0.933 4.687,1.657 7.1,2.17c1.867,0.4 4.313,0.51 7.34,0.33c3.107,-0.18 6.22,-0.217 9.34,-0.11c1.44,0.053 2.677,-0.143 3.71,-0.59c1.187,-0.507 2.313,-1.127 3.38,-1.86c0.093,-0.067 1.113,-0.687 3.06,-1.86c2.367,-1.433 3.39,-3.677 3.07,-6.73c-0.03,-0.28 -0.27,-0.48 -0.55,-0.47c-1.58,0.06 -3.14,-0.037 -4.68,-0.29c-2.427,-0.393 -4.127,-0.603 -5.1,-0.63c-6.907,-0.22 -13.817,-0.38 -20.73,-0.48c-0.227,-0 -0.55,0.06 -0.97,0.18c-0.52,0.147 -1.343,0.273 -2.47,0.38c-2.147,0.2 -4,1.207 -5.56,3.02c-0.727,0.84 -1.04,1.763 -0.94,2.77c0.107,1.067 0.44,2.067 1,3" style="fill:none;fill-rule:nonzero;stroke:#b19297;stroke-width:2px;"/><path d="M88,65.96c-0.913,-0.613 -1.913,-1.003 -3,-1.17" style="fill:none;fill-rule:nonzero;stroke:#c1b1b0;stroke-width:2px;"/><path d="M198.221,59.557c0.359,0.183 1.049,-0.477 1.542,-1.464c0.497,-0.983 0.607,-1.933 0.256,-2.11c-0.359,-0.183 -1.049,0.477 -1.542,1.463c-0.497,0.984 -0.607,1.934 -0.256,2.111" style="fill:none;fill-rule:nonzero;stroke:#8c4e53;stroke-width:2px;"/><path d="M49.31,58.23c-3.12,0.107 -6.237,0.043 -9.35,-0.19c-0.067,-0.007 -0.367,-0.05 -0.9,-0.13c-1.407,-0.207 -1.88,0.587 -1.42,2.38c0.18,0.71 0.95,1.11 1.64,0.85c3.087,-1.153 6.367,-1.8 9.84,-1.94c0.22,-0.013 0.42,-0.067 0.6,-0.16c1.073,-0.587 0.937,-0.857 -0.41,-0.81" style="fill:none;fill-rule:nonzero;stroke:#ad8b90;stroke-width:2px;"/><path d="M156.44,69.19c-1.187,1.347 -0.98,1.72 0.62,1.12l4.63,-1.73c1.173,-0.44 1.753,-1.26 1.74,-2.46c-0.027,-2.627 -0.78,-3.07 -2.26,-1.33c-0.467,0.54 -0.933,0.983 -1.4,1.33c-1.22,0.9 -2.33,1.923 -3.33,3.07" style="fill:none;fill-rule:nonzero;stroke:#b19297;stroke-width:2px;"/><path d="M128.68,67.36c0.907,0.033 1.217,-0.33 0.93,-1.09c-0.147,-0.373 -0.43,-0.693 -0.85,-0.96c-1.52,-0.96 -1.787,-0.443 -0.8,1.55c0.14,0.3 0.42,0.49 0.72,0.5" style="fill:none;fill-rule:nonzero;stroke:#9c786f;stroke-width:2px;"/><path d="M130.51,68.49c-0.547,0.113 -0.81,0.43 -0.79,0.95c0.02,0.29 0.26,0.52 0.58,0.57c2.84,0.38 3.257,-0.05 1.25,-1.29c-0.373,-0.227 -0.72,-0.303 -1.04,-0.23" style="fill:none;fill-rule:nonzero;stroke:#8c4e53;stroke-width:2px;"/><path d="M146.008,31.141c-0.008,-0.141 -0.128,-0.251 -0.27,-0.249l-22.322,0.896c-0.146,0.002 -0.256,0.132 -0.249,0.271l0.005,0.12c0.008,0.141 0.128,0.251 0.27,0.249l22.322,-0.897c0.146,-0.001 0.256,-0.131 0.249,-0.27l-0.005,-0.12" style="fill:none;fill-rule:nonzero;stroke:#b19297;stroke-width:2px;"/><path d="M162.59,32.57c-1.647,-0.387 -2.76,-0.493 -3.34,-0.32c-2.547,0.753 -5.09,0.763 -7.63,0.03c-0.5,-0.14 -0.443,-0.107 0.17,0.1c2.667,0.907 5.38,1.263 8.14,1.07c0.807,-0.053 2.013,-0.023 3.62,0.09c1.153,0.08 2.387,-0.017 3.7,-0.29c0.487,-0.1 0.72,-0.283 0.7,-0.55c-0.02,-0.32 -0.34,-0.55 -0.7,-0.51l-3.7,0.34c-0.54,0.053 -0.86,0.067 -0.96,0.04" style="fill:none;fill-rule:nonzero;stroke:#dabbbb;stroke-width:2px;"/><path d="M117.94,74c-2.14,-0.82 -4.307,-0.82 -6.5,0" style="fill:none;fill-rule:nonzero;stroke:#ded5b9;stroke-width:2px;"/></g><path d="M137.56,0l5.75,0c2.247,0.093 4.497,0.74 6.75,1.94c1.333,0.707 2.743,0.927 4.23,0.66c1.68,-0.3 2.89,-0.43 3.63,-0.39c3.38,0.187 6.74,-0.05 10.08,-0.71c1.993,-0.393 5.827,-0.247 11.5,0.44c0.31,0.04 0.64,-0.02 0.94,-0.18c1.353,-0.707 2.79,-1.117 4.31,-1.23c3.733,-0.293 7.47,-0.373 11.21,-0.24c3.24,0.12 5.633,0.747 7.18,1.88c2.187,1.607 3.473,3.987 3.86,7.14l-0,8c-0.24,2.22 -0.557,4.43 -0.95,6.63c-0.24,1.327 -0.293,3.003 -0.16,5.03c0.12,1.827 -0.013,3.64 -0.4,5.44c-0.527,2.447 -0.82,4.21 -0.88,5.29c-0.427,7.78 -1.033,15.547 -1.82,23.3c-0.42,4.18 -2.787,7.077 -7.1,8.69c-2.633,0.98 -5.113,1.51 -7.44,1.59c-1.14,0.04 -3.64,-0.01 -7.5,-0.15c-4.727,-0.167 -9.417,-1.62 -14.07,-4.36c-0.3,-0.18 -0.69,-0.07 -0.87,0.23c-0.827,1.44 -2.053,2.373 -3.68,2.8c-2.273,0.6 -3.45,0.913 -3.53,0.94c-1.593,0.573 -3.23,0.993 -4.91,1.26l-5.25,0c-3.133,-0.28 -6.273,-0.5 -9.42,-0.66c-1.007,-0.053 -2.147,-0.297 -3.42,-0.73c-1.447,-0.487 -2.623,-0.677 -3.53,-0.57c-1.607,0.187 -3.08,-0.18 -4.42,-1.1c-3.727,-2.567 -6.693,-2.53 -8.9,0.11c-0.22,0.26 -0.5,0.43 -0.8,0.49c-3.053,0.647 -6.11,0.757 -9.17,0.33c-2.153,-0.307 -4.06,-0.42 -5.72,-0.34c-5.04,0.24 -10.01,-0.28 -14.91,-1.56c-0.68,-0.18 -1.67,-0.367 -2.97,-0.56c-1.007,-0.147 -1.993,-0.393 -2.96,-0.74c-0.31,-0.1 -0.63,-0.08 -0.91,0.05c-2.207,1.053 -4.473,1.927 -6.8,2.62c-1.873,0.567 -4.257,0.853 -7.15,0.86c-3.3,0 -6.593,0.157 -9.88,0.47c-2.22,0.213 -4.213,0.263 -5.98,0.15c-1.987,-0.12 -3.977,-0.26 -5.97,-0.42c-2.313,-0.187 -3.493,-0.287 -3.54,-0.3c-1.307,-0.313 -2.283,-1.117 -2.93,-2.41c-0.853,-1.713 -1.763,-3.15 -2.73,-4.31c-0.18,-0.21 -0.5,-0.24 -0.71,-0.05c-2.247,1.96 -3.89,3.663 -4.93,5.11c-1.407,1.953 -3.303,2.987 -5.69,3.1c-9.567,0.46 -16.837,-3.283 -21.81,-11.23c-2.053,-3.273 -3.117,-6.48 -3.19,-9.62l-0,-3.5c0.587,-12.893 1,-25.61 1.24,-38.15c0.033,-1.807 0.803,-3.213 2.31,-4.22c2.367,-1.58 5.65,-2.85 9.85,-3.81c0.58,-0.133 1.143,-0.327 1.69,-0.58c3.533,-1.607 7.36,-2.327 11.48,-2.16c6.027,0.24 13.003,0.233 20.93,-0.02c2.66,-0.087 5.467,0.077 8.42,0.49c0.713,0.1 1.98,0.537 3.8,1.31c1.653,0.7 3.397,0.867 5.23,0.5c0.293,-0.06 0.58,-0.21 0.86,-0.45c1.527,-1.32 3.28,-1.897 5.26,-1.73c1.173,0.1 1.797,0.15 1.87,0.15c7.993,0.18 13.097,0.09 15.31,-0.27c3.22,-0.52 5.933,0.403 8.14,2.77c1.147,1.233 2.35,1.29 3.61,0.17c2.78,-2.467 6.243,-3.197 10.39,-2.19c3.567,0.867 7.187,1.217 10.86,1.05c1.707,-0.08 3.293,0.297 4.76,1.13c0.27,0.16 0.6,0.16 0.87,0.02c3.347,-1.78 6.907,-2.847 10.68,-3.2Zm-117.06,3.28l-2.09,6c-0.1,0.3 -0.09,0.63 0.03,0.93c1.7,4.093 4.033,7.543 7,10.35c1.333,1.267 2.367,2.423 3.1,3.47c0.18,0.26 0.47,0.42 0.77,0.41c0.8,-0.007 1.587,-0.09 2.36,-0.25c1.16,-0.247 2.103,-0.36 2.83,-0.34c5.34,0.12 10.68,0.097 16.02,-0.07c0.647,-0.02 1.257,-0.197 1.83,-0.53c0.88,-0.507 1.45,-0.82 1.71,-0.94c1.82,-0.82 2.86,-2.13 3.12,-3.93c0.16,-1.087 0.247,-1.663 0.26,-1.73c0.307,-1.367 0.57,-2.737 0.79,-4.11c0.267,-1.64 0.06,-3.15 -0.62,-4.53c-0.427,-0.86 -1.013,-1.85 -1.76,-2.97c-0.647,-0.973 -1.457,-1.81 -2.43,-2.51c-0.25,-0.18 -0.58,-0.27 -0.92,-0.27l-30.87,0.23c-0.51,0.01 -0.96,0.32 -1.13,0.79Zm52.65,0.06c-1.173,-0.5 -2.35,-0.507 -3.53,-0.02c-2.773,1.147 -5.74,2.877 -8.9,5.19c-0.26,0.19 -0.43,0.48 -0.46,0.8c-0.473,4.047 -1.333,8.01 -2.58,11.89c-0.427,1.34 0.053,2.127 1.44,2.36c3.387,0.58 6.93,0.84 10.63,0.78c5.167,-0.08 10.52,-0.02 16.06,0.18c0.96,0.04 1.82,-0.56 2.08,-1.44l4.99,-17.03c0.78,-2.673 -0.26,-3.94 -3.12,-3.8c-3.66,0.173 -7.3,0.543 -10.92,1.11c-0.047,0.013 -0.577,0.193 -1.59,0.54c-1.02,0.353 -2.387,0.167 -4.1,-0.56Zm129.39,8.41c0.74,-0.187 1.163,0.06 1.27,0.74c0.1,0.673 0.343,0.917 0.73,0.73c0.25,-0.12 0.42,-0.42 0.44,-0.78c0.033,-0.713 -0.037,-1.413 -0.21,-2.1c-0.04,-0.153 -0.123,-0.727 -0.25,-1.72c-0.093,-0.74 -0.503,-1.28 -1.23,-1.62c-0.693,-1.673 -1.74,-3.07 -3.14,-4.19c-0.25,-0.2 -0.56,-0.32 -0.89,-0.34c-4.073,-0.227 -8.15,-0.313 -12.23,-0.26c-1.72,0.027 -3.03,0.28 -3.93,0.76c-1.387,0.753 -2.27,1.873 -2.65,3.36c-0.373,1.46 -0.08,2.997 0.88,4.61c0.847,1.413 1.92,2.67 3.22,3.77c1.72,1.453 3.493,2.84 5.32,4.16c0.027,0.02 0.853,0.707 2.48,2.06c1.48,1.22 3.21,1.997 5.19,2.33c0.49,0.08 0.98,-0.09 1.3,-0.46c2.82,-3.167 4.053,-6.85 3.7,-11.05Zm-142.56,-7.81c-1.387,-0.047 -2.657,-0.433 -3.81,-1.16c-0.293,-0.18 -0.39,-0.113 -0.29,0.2c0.627,2.087 2.067,3.013 4.32,2.78c0.367,-0.04 0.657,-0.173 0.87,-0.4c0.393,-0.42 0.393,-0.793 -0,-1.12c-0.227,-0.187 -0.59,-0.287 -1.09,-0.3Zm85.12,-0.6c-1.713,-0.293 -3.663,-0.49 -5.85,-0.59c-3.24,-0.147 -5.677,0.813 -7.31,2.88c-1.153,1.453 -1.537,3.327 -1.15,5.62c0.653,3.88 2.37,7.233 5.15,10.06c0.893,0.913 2.06,1.477 3.5,1.69c0.32,0.05 0.62,0.19 0.87,0.4c1.753,1.513 3.767,1.877 6.04,1.09c0.29,-0.1 0.51,-0.35 0.58,-0.66c1.013,-4.067 2.23,-8.07 3.65,-12.01c0.907,-2.527 0.707,-4.583 -0.6,-6.17c-0.947,-1.147 -2.573,-1.917 -4.88,-2.31Zm-38.1,20.45c0.027,0.547 0.277,0.937 0.75,1.17c5.673,1.4 11.143,0.873 16.41,-1.58c0.713,-0.327 1.09,-0.87 1.13,-1.63c0.333,-0.147 0.5,-0.397 0.5,-0.75c1.273,-0.233 1.913,-0.983 1.92,-2.25l-0.25,-1.25c0.587,-3.187 0.22,-6.153 -1.1,-8.9c-0.807,-1.687 -1.803,-2.863 -2.99,-3.53c-1.347,-0.76 -2.97,-1.033 -4.87,-0.82c-2.267,0.253 -4.8,0.103 -7.6,-0.45c-2.067,-0.407 -3.663,-0.403 -4.79,0.01c-1.993,0.733 -3.593,2.067 -4.8,4c-0.493,0.793 -0.927,2.44 -1.3,4.94c-0.367,2.46 -0.543,3.787 -0.53,3.98c0.053,1.44 0.707,2.717 1.96,3.83c1.76,1.567 3.613,2.643 5.56,3.23Zm68.49,-20.36c-3.413,-0.333 -6.767,-0.08 -10.06,0.76c-1.947,0.493 -3.237,0.857 -3.87,1.09c-1.32,0.487 -2.487,1.2 -3.5,2.14c-1.1,1.02 -2.393,2.487 -3.88,4.4c-1.793,2.307 -2.937,5.117 -3.43,8.43c-0.233,1.56 -0.013,2.877 0.66,3.95c0.613,0.973 1.667,1.48 3.16,1.52c1,0.033 1.993,-0.027 2.98,-0.18c1.113,-0.173 2.09,-0.263 2.93,-0.27c4.627,-0.047 8.963,-1.107 13.01,-3.18c2.087,-1.073 3.49,-2.277 4.21,-3.61c0.987,-1.827 1.01,-3.857 0.07,-6.09c-0.12,-0.29 -0.17,-0.62 -0.13,-0.95c0.313,-2.253 -0.067,-4.673 -1.14,-7.26c-0.17,-0.42 -0.56,-0.71 -1.01,-0.75Zm-18.4,1.74c-1.613,1.073 -2.587,2.167 -2.92,3.28c-0.107,0.347 -0.003,0.42 0.31,0.22c1.6,-1.007 3.217,-1.983 4.85,-2.93c0.34,-0.193 0.55,-0.42 0.63,-0.68c0.18,-0.573 -0.253,-0.753 -1.3,-0.54c-0.567,0.113 -1.09,0.33 -1.57,0.65Zm-153.1,5.34c-0.527,4.373 -0.673,9 -0.44,13.88c0.03,0.71 0.6,1.28 1.31,1.31l10.58,0.47c0.32,0.01 0.6,-0.18 0.65,-0.45l1.38,-7.72c0.05,-0.26 -0.03,-0.6 -0.22,-0.93c-1.133,-1.98 -1.973,-4.07 -2.52,-6.27c-0.06,-0.253 -0.087,-0.957 -0.08,-2.11c0.013,-0.927 -0.38,-1.593 -1.18,-2c-0.26,-0.13 -0.6,-0.15 -0.95,-0.05l-6.77,1.88c-0.95,0.26 -1.65,1.05 -1.76,1.99Zm87.592,12.89c0.838,0.35 2.988,-2.9 4.792,-7.259c1.806,-4.361 2.586,-8.171 1.744,-8.521c-0.838,-0.35 -2.988,2.9 -4.792,7.259c-1.806,4.361 -2.586,8.171 -1.744,8.521Zm39.99,-4.933c0.288,-0.137 0.258,-0.837 -0.085,-1.578c-0.337,-0.739 -0.847,-1.229 -1.139,-1.096c-0.288,0.137 -0.258,0.837 0.085,1.578c0.337,0.739 0.847,1.229 1.139,1.096Zm58.758,3.253c-2.133,-2.213 -4.48,-3.607 -7.04,-4.18c-0.267,-0.06 -0.54,-0.213 -0.82,-0.46c-0.607,-0.533 -1.133,-0.423 -1.58,0.33c-0.92,1.567 -1.51,3.243 -1.77,5.03c-0.03,0.25 0.18,0.48 0.43,0.46l10.56,-0.63c0.467,-0.033 0.54,-0.217 0.22,-0.55Zm13.73,-3.01l-3.13,5.32c-0.15,0.26 -0.01,0.58 0.29,0.66c0.593,0.147 1.1,-0.077 1.52,-0.67c1.12,-1.567 1.707,-3.283 1.76,-5.15c0.013,-0.627 -0.133,-0.68 -0.44,-0.16Zm-69.847,3.936c0.217,-0.126 0.007,-0.876 -0.466,-1.666c-0.467,-0.79 -1.027,-1.33 -1.24,-1.206c-0.217,0.126 -0.007,0.876 0.466,1.666c0.467,0.79 1.027,1.33 1.24,1.206Zm-111.743,-1.796c-0.38,1.08 -0.223,1.753 0.47,2.02c0.573,0.22 1.093,0.157 1.56,-0.19c0.573,-0.433 0.38,-1.15 -0.58,-2.15c-0.45,-0.47 -1.23,-0.29 -1.45,0.32Zm-2.6,4.79c0.187,-0.02 0.333,-0.13 0.44,-0.33c0.1,-0.193 0.113,-0.447 0.04,-0.76c-1.227,-5.573 -1.547,-5.39 -0.96,0.55c0.03,0.32 0.25,0.57 0.48,0.54Zm157.2,-2.6c0.347,-1.56 -0.14,-1.977 -1.46,-1.25c-1.753,0.967 -3.547,1.853 -5.38,2.66c-1.02,0.447 -1.023,0.707 -0.01,0.78c0.173,0.013 0.36,-0.003 0.56,-0.05c1.473,-0.34 3.01,-0.57 4.61,-0.69c0.82,-0.07 1.5,-0.65 1.68,-1.45Zm-44.382,1.816c0.102,-0.516 -0.588,-1.086 -1.547,-1.268c-0.951,-0.188 -1.811,0.082 -1.909,0.596c-0.102,0.516 0.588,1.086 1.547,1.269c0.951,0.187 1.811,-0.083 1.909,-0.597Zm47.602,2.894l-3.95,4.89c-0.17,0.22 -0.28,0.54 -0.3,0.92c-0.213,4.973 -0.543,9.94 -0.99,14.9c-0.007,0.073 -0.003,0.433 0.01,1.08c0.013,0.967 -0.493,1.603 -1.52,1.91c-0.32,0.1 -0.58,0.29 -0.73,0.55c-1.193,2.047 -2.403,4.083 -3.63,6.11c-0.02,0.04 -0.39,0.56 -1.11,1.56c-1.22,1.7 -1.097,3.497 0.37,5.39c2.273,2.953 5.173,4.393 8.7,4.32c2.113,-0.04 3.187,-0.06 3.22,-0.06c2.213,0.1 4.423,0.223 6.63,0.37c5.6,0.367 8.44,-2.323 8.52,-8.07c0.013,-1.38 0.53,-2.663 1.55,-3.85l3.13,-3.63c0.2,-0.23 0.33,-0.54 0.37,-0.88c0.347,-2.947 0.26,-5.887 -0.26,-8.82c-0.147,-0.82 -0.08,-1.62 0.2,-2.4c1.113,0.073 1.643,-0.277 1.59,-1.05c-0.027,-0.447 -0.207,-0.537 -0.54,-0.27l-1.55,1.24l-5.68,3.94c-1.287,0.893 -1.417,0.743 -0.39,-0.45c1.54,-1.8 3.133,-3.547 4.78,-5.24c3.767,-3.86 4.307,-8.347 1.62,-13.46c-0.33,-0.64 -0.94,-1.04 -1.58,-1.04l-11,0c-0.98,-1.453 -2.23,-1.827 -3.75,-1.12c-0.3,0.14 -0.62,0.19 -0.93,0.15c-2.12,-0.267 -3.923,0.343 -5.41,1.83c-0.227,0.227 -0.177,0.33 0.15,0.31c0.94,-0.053 1.767,0.237 2.48,0.87Zm-80.04,0.54l-0,0.67c-1.513,0.307 -3.013,0.223 -4.5,-0.25c-1.787,-0.96 -3.703,-1.267 -5.75,-0.92c-3.84,-0.293 -11.34,-0.39 -22.5,-0.29c-3.653,0.033 -6.237,0.297 -7.75,0.79c-0.567,-0.047 -1.067,0.12 -1.5,0.5c-0.933,-0.873 -1.747,-1.283 -2.44,-1.23c-2.367,0.187 -4.303,0.167 -5.81,-0.06c-1.26,-0.187 -2.093,0.217 -2.5,1.21c-0.32,0.18 -0.57,0.43 -0.75,0.75c-3.733,-0.033 -7.303,0.647 -10.71,2.04l-0.29,-0.37c-0.15,-0.19 -0.12,-0.49 0.08,-0.7c1.027,-1.08 0.697,-1.413 -0.99,-1c-2.767,0.68 -3.95,2.37 -3.55,5.07l0.06,3.31c0.01,0.29 0.25,0.54 0.58,0.62c1.947,0.447 3.913,0.577 5.9,0.39c0.28,-0.027 0.703,-0.157 1.27,-0.39c0.973,-0.413 1.223,0.197 0.75,1.83c-0.08,0.29 -0.35,0.49 -0.65,0.49l-7.89,0.05c-0.27,0 -0.49,0.24 -0.45,0.51c0.187,1.52 0.83,2.833 1.93,3.94c0.313,1.407 1.2,1.997 2.66,1.77c2.753,-0.433 2.667,-0.837 -0.26,-1.21c-0.933,-0.113 -1.497,-0.287 -1.69,-0.52l7.18,0.05c0.31,0.01 0.57,0.2 0.6,0.46c0.187,1.293 -0.323,1.943 -1.53,1.95c-1.433,0.007 -2.85,0.14 -4.25,0.4c-0.353,0.067 -0.36,0.147 -0.02,0.24c3.413,0.94 6.767,0.727 10.06,-0.64c0.32,-0.273 0.557,-0.62 0.71,-1.04c7.027,0.06 14.053,0.093 21.08,0.1c0.267,0 0.487,0.067 0.66,0.2c0.5,0.387 0.327,0.673 -0.52,0.86c-0.46,0.1 -0.68,0.25 -0.66,0.45c0.02,0.21 0.34,0.37 0.72,0.35c3.993,-0.147 7.987,-0.327 11.98,-0.54c0.04,0 1.687,-0.203 4.94,-0.61c1.733,-0.22 3.47,-0.177 5.21,0.13c1.073,0.187 2.143,0.257 3.21,0.21c1.093,-0.047 2.18,0.003 3.26,0.15c2.027,0.28 3.62,0.363 4.78,0.25c5.84,-0.567 9.723,-0.84 11.65,-0.82c2.227,0.02 4.17,-0.057 5.83,-0.23c2.473,-0.26 4.393,-0.37 5.76,-0.33c2.513,0.08 5.027,0.06 7.54,-0.06c2.2,-0.107 4.69,-0.04 7.47,0.2c3.273,0.287 6.553,0.267 9.84,-0.06c2.06,0.64 3.977,0.39 5.75,-0.75l0.68,0.9c0.18,0.24 0.49,0.36 0.82,0.34l13.93,-1.11c0.22,-0.013 0.54,0.047 0.96,0.18c0.4,0.127 0.693,0.047 0.88,-0.24c0.13,-0.21 -0.05,-0.49 -0.34,-0.52l-10.68,-1.05c-0.013,-0.38 0.157,-0.6 0.51,-0.66c1.32,-0.207 2.65,-0.377 3.99,-0.51c2,-0.153 3.993,-0.097 5.98,0.17c0.207,0.027 0.38,0.007 0.52,-0.06c0.42,-0.213 0.253,-0.43 -0.5,-0.65c-1.413,-0.413 -4.58,-0.317 -9.5,0.29c-0.933,-0.073 -1.863,-0.053 -2.79,0.06c-0.08,0.013 -0.723,0.03 -1.93,0.05c-0.9,0.02 -1.66,0.373 -2.28,1.06l-7.56,0.88c-0.353,0.04 -0.677,0.013 -0.97,-0.08c-0.907,-0.293 -1.817,-0.307 -2.73,-0.04c-0.72,0.213 -1.23,0.303 -1.53,0.27c-0.54,-0.053 -1.053,-0.213 -1.54,-0.48c-0.32,-0.173 -0.623,-0.263 -0.91,-0.27c-8.18,-0.113 -15.6,0.057 -22.26,0.51c-1.273,0.087 -2.357,-0.093 -3.25,-0.54l-0,-0.17c1.473,-0.387 2.723,-0.483 3.75,-0.29c1.08,0.2 2.063,0.21 2.95,0.03c1.48,-0.307 2.413,-0.457 2.8,-0.45c5.753,0.06 9.42,0.033 11,-0.08c1.86,-0.133 3.53,-0.15 5.01,-0.05c2.047,0.133 3.703,0.113 4.97,-0.06c2.213,-0.293 4.433,-0.523 6.66,-0.69c1.233,-0.093 3.44,-0.427 6.62,-1c2.413,-0.433 4.973,-0.57 7.68,-0.41c0.96,0.06 1.9,-0.28 2.61,-0.94c1.813,-1.687 1.13,-2.483 -2.05,-2.39c-1.02,-1.207 -2.103,-1.263 -3.25,-0.17c-1.12,0.12 -2.193,0.017 -3.22,-0.31c-0.34,-0.107 -0.333,-0.2 0.02,-0.28l12.14,-2.66c0.27,-0.06 0.41,-0.34 0.29,-0.55c-0.493,-0.86 -1.423,-1.383 -2.79,-1.57c-0.28,-0.03 -0.49,-0.29 -0.47,-0.58c0.067,-0.827 -0.173,-1.37 -0.72,-1.63c-0.06,-0.413 -0.187,-0.763 -0.38,-1.05c-0.18,-0.26 -0.48,-0.437 -0.9,-0.53c-4.707,-1.053 -9.447,-1.193 -14.22,-0.42l-3.5,0.58c-5.92,-0.207 -11.837,-0.22 -17.75,-0.04c-0.533,0.013 -1.7,-0.133 -3.5,-0.44c-1.18,-0.2 -2.35,-0.273 -3.51,-0.22c-5.413,0.247 -10.827,0.203 -16.24,-0.13c-0.273,-1.093 -0.897,-1.427 -1.87,-1c-0.333,0.14 -0.647,0.207 -0.94,0.2l-3.9,-0.16c-2.1,-0.853 -2.53,-0.507 -1.29,1.04Zm-57.472,-0.671c-0.088,-0.419 -1.078,-0.569 -2.222,-0.334c-1.146,0.235 -1.996,0.755 -1.914,1.176c0.088,0.419 1.078,0.569 2.221,0.333c1.147,-0.234 1.997,-0.754 1.915,-1.175Zm130.792,3.091c1.747,1.413 2.48,0.977 2.2,-1.31c-0.05,-0.4 -0.41,-0.7 -0.81,-0.67c-2.333,0.187 -2.797,0.847 -1.39,1.98Zm-169.36,1.29c-1.107,0.113 -1.63,0.643 -1.57,1.59c0.047,0.813 0.067,1.26 0.06,1.34c-0.107,1.78 -0.02,3.553 0.26,5.32l0.54,4.04c0.367,1.273 0.413,1.867 0.14,1.78c-0.36,-0.12 -0.67,-0.12 -0.78,-0c-0.347,0.367 -0.487,0.863 -0.42,1.49c0.267,2.76 0.577,5.513 0.93,8.26c0.04,0.28 0.24,0.53 0.53,0.67c0.933,0.42 1.537,1.173 1.81,2.26c1.18,4.113 3.463,7.093 6.85,8.94c0.613,0.333 1.26,0.2 1.94,-0.4l1.25,0l-0.12,1.39c-0.02,0.33 0.12,0.64 0.36,0.77c1.347,0.747 1.67,0.013 0.97,-2.2c1.213,-1.273 1.637,-0.817 1.27,1.37c-0.11,0.63 0.23,1.24 0.82,1.49c3.413,1.42 6.43,0.92 9.05,-1.5c1.987,-1.847 3.817,-3.837 5.49,-5.97c0.267,-0.34 0.41,-0.683 0.43,-1.03c0.04,-0.76 -0.24,-1.09 -0.84,-0.99c-0.313,0.047 -0.687,0.253 -1.12,0.62c-2.68,2.24 -5.433,4.383 -8.26,6.43c-0.29,0.22 -0.6,0.3 -0.81,0.21c-0.28,-0.113 -0.177,-0.397 0.31,-0.85c1.107,-1.02 2.167,-2.09 3.18,-3.21c0.047,-0.053 0.897,-0.933 2.55,-2.64c2.62,-2.72 4.273,-6.07 4.96,-10.05c0.05,-0.29 -0.17,-0.56 -0.47,-0.57c-0.807,-0.02 -1.453,-0.387 -1.94,-1.1c-1.913,-2.813 -3.183,-5.873 -3.81,-9.18c-0.273,-1.433 -0.663,-2.55 -1.17,-3.35c-0.5,-0.78 -1.18,-1.777 -2.04,-2.99c-1.033,-1.46 -2.087,-2.61 -3.16,-3.45c-1.027,-0.8 -2.44,-1.307 -4.24,-1.52c-2.473,-0.287 -4.953,-0.32 -7.44,-0.1c-0.04,0.007 -0.86,0.007 -2.46,0c-1.867,-0.007 -2.883,1.037 -3.05,3.13Zm19.88,-3.05c-1.727,-0.54 -2.177,-0.097 -1.35,1.33c0.847,1.467 1.45,1.283 1.81,-0.55c0.07,-0.34 -0.13,-0.68 -0.46,-0.78Zm4.43,6.24l0.76,-2c0.08,-0.22 0.01,-0.5 -0.18,-0.73l-2.16,-2.66c-0.23,-0.28 -0.61,-0.36 -0.86,-0.18c-0.76,0.527 -1.087,1.26 -0.98,2.2c0.03,0.24 0.19,0.53 0.45,0.83l2.4,2.64c0.17,0.19 0.48,0.14 0.57,-0.1Zm37.249,13.046c-0.009,-0.326 -1.619,-0.546 -3.594,-0.496c-1.975,0.05 -3.575,0.36 -3.564,0.684c0.009,0.326 1.619,0.546 3.594,0.496c1.975,-0.05 3.575,-0.36 3.564,-0.684Zm63.162,0.117c-0.001,-0.143 -0.111,-0.263 -0.256,-0.264l-11.299,-0.158c-0.146,-0.001 -0.266,0.109 -0.264,0.257l-0.003,0.22c0.001,0.142 0.111,0.262 0.256,0.263l11.299,0.158c0.146,0.001 0.266,-0.109 0.264,-0.256l0.003,-0.22Zm4.726,-0.2c-0.017,-0.303 -0.837,-0.503 -1.83,-0.442c-0.987,0.059 -1.777,0.349 -1.764,0.656c0.017,0.303 0.837,0.503 1.83,0.442c0.987,-0.059 1.777,-0.349 1.764,-0.656Zm-23.287,-0.183c-0.627,-0.147 -0.9,-0.083 -0.82,0.19c0.06,0.2 0.3,0.34 0.6,0.35c1.733,0.027 1.807,-0.153 0.22,-0.54Zm-57.83,0.5l3.46,0.34c0.647,0.067 0.66,-0.017 0.04,-0.25c-1.113,-0.407 -2.277,-0.52 -3.49,-0.34c-0.667,0.107 -0.67,0.19 -0.01,0.25Zm39.13,3.16c0.88,0.087 1.907,0.043 3.08,-0.13c2.533,-0.38 9.637,-0.36 21.31,0.06c4.62,0.167 9.727,0.03 15.32,-0.41c2.773,-0.22 5.687,-0.19 8.74,0.09c5.053,0.46 10.117,0.567 15.19,0.32c0.667,-0.027 1.437,-0.183 2.31,-0.47c0.76,-0.253 1.537,-0.447 2.33,-0.58c0.64,-0.107 0.7,-0.253 0.18,-0.44c-0.153,-0.053 -0.363,-0.077 -0.63,-0.07c-6.793,0.153 -17.19,0.117 -31.19,-0.11c-1.973,-0.033 -4.803,0.06 -8.49,0.28c-2.847,0.173 -5.69,0.21 -8.53,0.11c-7.247,-0.267 -11.487,-0.393 -12.72,-0.38c-11.94,0.12 -23.88,0.07 -35.82,-0.15c-4.107,-0.08 -12.437,0.243 -24.99,0.97c-0.38,0.02 -0.69,0.2 -0.78,0.45c-0.12,0.307 0.053,0.5 0.52,0.58c2.28,0.38 4.697,0.47 7.25,0.27c2.853,-0.227 5.24,-0.307 7.16,-0.24c2.02,0.067 4.043,0.047 6.07,-0.06c2.32,-0.12 4.337,-0.163 6.05,-0.13c3.253,0.067 6.503,0.027 9.75,-0.12c1.92,-0.087 4.397,-0.047 7.43,0.12c2.493,0.14 4.983,0.1 7.47,-0.12c0.467,-0.04 1.463,0.013 2.99,0.16Zm76.19,1.81c-0.833,5.147 -0.193,5.397 1.92,0.75c0.213,-0.467 0.303,-0.9 0.27,-1.3c-0.107,-1.247 -0.693,-1.35 -1.76,-0.31c-0.23,0.21 -0.38,0.52 -0.43,0.86Zm-9.34,2.1c-0.567,-0.747 -1.053,-1.197 -1.46,-1.35c-3.613,-1.407 -6.973,-1.087 -10.08,0.96c-0.287,0.193 -0.263,0.257 0.07,0.19c3.433,-0.64 6.563,-0.4 9.39,0.72c1.607,0.64 3.043,0.893 4.31,0.76c0.393,-0.04 0.457,-0.193 0.19,-0.46c-0.427,-0.413 -0.973,-0.583 -1.64,-0.51c-0.31,0.03 -0.61,-0.09 -0.78,-0.31Zm-120.02,-1.61c-0.28,-0.03 -0.53,0.19 -0.54,0.47c-0.033,0.893 0.14,1.453 0.52,1.68c0.347,0.213 0.773,0.103 1.28,-0.33c1.16,-1.013 0.74,-1.62 -1.26,-1.82Zm32.56,0.74c-4.287,0.287 -8.557,0.73 -12.81,1.33c-1.56,0.22 -3.43,1.097 -5.61,2.63c-1.12,0.793 -2.297,1.29 -3.53,1.49c-3.473,0.56 -6.95,1.26 -10.43,2.1c-0.34,0.08 -0.52,0.46 -0.35,0.75l3.04,5.31c0.36,0.62 1.02,1.06 1.81,1.21c6.36,1.147 12.717,1.233 19.07,0.26c1.373,-0.207 2.497,-0.133 3.37,0.22c0.32,0.14 0.65,0.18 0.93,0.12c2.133,-0.447 4.27,-0.873 6.41,-1.28c1.947,-0.36 3.597,-1.203 4.95,-2.53c0.433,-0.42 0.86,-1.047 1.28,-1.88c0.347,-0.68 0.713,-1.35 1.1,-2.01c0.773,-1.327 1.25,-2.353 1.43,-3.08c0.847,-3.473 -0.89,-5.117 -5.21,-4.93c-1.82,0.073 -3.637,0.17 -5.45,0.29Zm15.4,0.18c-1.107,-0.453 -1.8,-0.333 -2.08,0.36c-0.24,0.587 -0.387,0.923 -0.44,1.01c-0.447,0.813 -0.28,1.287 0.5,1.42c0.23,0.04 0.51,-0.1 0.74,-0.38l1.41,-1.72c0.19,-0.24 0.13,-0.59 -0.13,-0.69Zm74.85,4.09c-3.38,-1.207 -7.4,-1.853 -12.06,-1.94c-2.287,-0.04 -4.15,-0.527 -5.59,-1.46c-0.307,-0.2 -0.61,-0.317 -0.91,-0.35c-3.247,-0.327 -6.447,-0.1 -9.6,0.68c-0.487,0.12 -1.437,0.233 -2.85,0.34c-1.74,0.127 -2.373,1.057 -1.9,2.79c0.227,0.847 0.303,1.53 0.23,2.05c-0.1,0.673 -0.237,1.36 -0.41,2.06c-0.07,0.3 0.04,0.63 0.29,0.82c2.347,1.8 4.677,3.5 6.99,5.1c1.573,1.087 3.287,1.68 5.14,1.78c1.593,0.087 2.82,0.193 3.68,0.32c1.24,0.18 2.49,0.207 3.75,0.08c0.127,-0.013 1.077,-0.047 2.85,-0.1c1.673,-0.053 3.097,-0.777 4.27,-2.17c1.653,-1.96 3.787,-3.93 6.4,-5.91c0.847,-0.64 1.337,-1.24 1.47,-1.8c0.247,-1.027 -0.337,-1.79 -1.75,-2.29Zm-76.31,5.85c0.073,3.2 1.073,3.59 3,1.17c2.32,0.933 4.687,1.657 7.1,2.17c1.867,0.4 4.313,0.51 7.34,0.33c3.107,-0.18 6.22,-0.217 9.34,-0.11c1.44,0.053 2.677,-0.143 3.71,-0.59c1.187,-0.507 2.313,-1.127 3.38,-1.86c0.093,-0.067 1.113,-0.687 3.06,-1.86c2.367,-1.433 3.39,-3.677 3.07,-6.73c-0.03,-0.28 -0.27,-0.48 -0.55,-0.47c-1.58,0.06 -3.14,-0.037 -4.68,-0.29c-2.427,-0.393 -4.127,-0.603 -5.1,-0.63c-6.907,-0.22 -13.817,-0.38 -20.73,-0.48c-0.227,0 -0.55,0.06 -0.97,0.18c-0.52,0.147 -1.343,0.273 -2.47,0.38c-2.147,0.2 -4,1.207 -5.56,3.02c-0.727,0.84 -1.04,1.763 -0.94,2.77c0.107,1.067 0.44,2.067 1,3Zm113.221,-5.233c0.359,0.183 1.049,-0.477 1.542,-1.463c0.497,-0.984 0.607,-1.934 0.256,-2.111c-0.359,-0.183 -1.049,0.477 -1.542,1.464c-0.497,0.983 -0.607,1.933 -0.256,2.11Zm-148.911,-1.327c-3.12,0.107 -6.237,0.043 -9.35,-0.19c-0.067,-0.007 -0.367,-0.05 -0.9,-0.13c-1.407,-0.207 -1.88,0.587 -1.42,2.38c0.18,0.71 0.95,1.11 1.64,0.85c3.087,-1.153 6.367,-1.8 9.84,-1.94c0.22,-0.013 0.42,-0.067 0.6,-0.16c1.073,-0.587 0.937,-0.857 -0.41,-0.81Zm107.13,10.96c-1.187,1.347 -0.98,1.72 0.62,1.12l4.63,-1.73c1.173,-0.44 1.753,-1.26 1.74,-2.46c-0.027,-2.627 -0.78,-3.07 -2.26,-1.33c-0.467,0.54 -0.933,0.983 -1.4,1.33c-1.22,0.9 -2.33,1.923 -3.33,3.07Zm-27.76,-1.83c0.907,0.033 1.217,-0.33 0.93,-1.09c-0.147,-0.373 -0.43,-0.693 -0.85,-0.96c-1.52,-0.96 -1.787,-0.443 -0.8,1.55c0.14,0.3 0.42,0.49 0.72,0.5Zm1.83,1.13c-0.547,0.113 -0.81,0.43 -0.79,0.95c0.02,0.29 0.26,0.52 0.58,0.57c2.84,0.38 3.257,-0.05 1.25,-1.29c-0.373,-0.227 -0.72,-0.303 -1.04,-0.23Z" style="fill:#63252f;fill-rule:nonzero;"/><path d="M20.5,3.28c0.17,-0.47 0.62,-0.78 1.13,-0.79l30.87,-0.23c0.34,-0 0.67,0.09 0.92,0.27c0.973,0.7 1.783,1.537 2.43,2.51c0.747,1.12 1.333,2.11 1.76,2.97c0.68,1.38 0.887,2.89 0.62,4.53c-0.22,1.373 -0.483,2.743 -0.79,4.11c-0.013,0.067 -0.1,0.643 -0.26,1.73c-0.26,1.8 -1.3,3.11 -3.12,3.93c-0.26,0.12 -0.83,0.433 -1.71,0.94c-0.573,0.333 -1.183,0.51 -1.83,0.53c-5.34,0.167 -10.68,0.19 -16.02,0.07c-0.727,-0.02 -1.67,0.093 -2.83,0.34c-0.773,0.16 -1.56,0.243 -2.36,0.25c-0.3,0.01 -0.59,-0.15 -0.77,-0.41c-0.733,-1.047 -1.767,-2.203 -3.1,-3.47c-2.967,-2.807 -5.3,-6.257 -7,-10.35c-0.12,-0.3 -0.13,-0.63 -0.03,-0.93l2.09,-6Z" style="fill:#fff;fill-rule:nonzero;"/><path d="M73.15,3.34c1.713,0.727 3.08,0.913 4.1,0.56c1.013,-0.347 1.543,-0.527 1.59,-0.54c3.62,-0.567 7.26,-0.937 10.92,-1.11c2.86,-0.14 3.9,1.127 3.12,3.8l-4.99,17.03c-0.26,0.88 -1.12,1.48 -2.08,1.44c-5.54,-0.2 -10.893,-0.26 -16.06,-0.18c-3.7,0.06 -7.243,-0.2 -10.63,-0.78c-1.387,-0.233 -1.867,-1.02 -1.44,-2.36c1.247,-3.88 2.107,-7.843 2.58,-11.89c0.03,-0.32 0.2,-0.61 0.46,-0.8c3.16,-2.313 6.127,-4.043 8.9,-5.19c1.18,-0.487 2.357,-0.48 3.53,0.02Z" style="fill:#fff;fill-rule:nonzero;"/><path d="M203.29,7l-0.75,4.75c0.353,4.2 -0.88,7.883 -3.7,11.05c-0.32,0.37 -0.81,0.54 -1.3,0.46c-1.98,-0.333 -3.71,-1.11 -5.19,-2.33c-1.627,-1.353 -2.453,-2.04 -2.48,-2.06c-1.827,-1.32 -3.6,-2.707 -5.32,-4.16c-1.3,-1.1 -2.373,-2.357 -3.22,-3.77c-0.96,-1.613 -1.253,-3.15 -0.88,-4.61c0.38,-1.487 1.263,-2.607 2.65,-3.36c0.9,-0.48 2.21,-0.733 3.93,-0.76c4.08,-0.053 8.157,0.033 12.23,0.26c0.33,0.02 0.64,0.14 0.89,0.34c1.4,1.12 2.447,2.517 3.14,4.19Z" style="fill:#fff;fill-rule:nonzero;"/><path d="M61.07,4.24c0.393,0.327 0.393,0.7 0,1.12c-0.213,0.227 -0.503,0.36 -0.87,0.4c-2.253,0.233 -3.693,-0.693 -4.32,-2.78c-0.1,-0.313 -0.003,-0.38 0.29,-0.2c1.153,0.727 2.423,1.113 3.81,1.16c0.5,0.013 0.863,0.113 1.09,0.3Z" style="fill:#a9364e;fill-rule:nonzero;"/><path d="M149.98,5.65c1.307,1.587 1.507,3.643 0.6,6.17c-1.42,3.94 -2.637,7.943 -3.65,12.01c-0.07,0.31 -0.29,0.56 -0.58,0.66c-2.273,0.787 -4.287,0.423 -6.04,-1.09c-0.25,-0.21 -0.55,-0.35 -0.87,-0.4c-1.44,-0.213 -2.607,-0.777 -3.5,-1.69c-2.78,-2.827 -4.497,-6.18 -5.15,-10.06c-0.387,-2.293 -0.003,-4.167 1.15,-5.62c1.633,-2.067 4.07,-3.027 7.31,-2.88c2.187,0.1 4.137,0.297 5.85,0.59c2.307,0.393 3.933,1.163 4.88,2.31Z" style="fill:#fff;fill-rule:nonzero;"/><path d="M127.46,17.5c-5.687,2.74 -11.673,4.49 -17.96,5.25c-0.8,0.1 -1.633,0.447 -2.5,1.04c-1.947,-0.587 -3.8,-1.663 -5.56,-3.23c-1.253,-1.113 -1.907,-2.39 -1.96,-3.83c-0.013,-0.193 0.163,-1.52 0.53,-3.98c0.373,-2.5 0.807,-4.147 1.3,-4.94c1.207,-1.933 2.807,-3.267 4.8,-4c1.127,-0.413 2.723,-0.417 4.79,-0.01c2.8,0.553 5.333,0.703 7.6,0.45c1.9,-0.213 3.523,0.06 4.87,0.82c1.187,0.667 2.183,1.843 2.99,3.53c1.32,2.747 1.687,5.713 1.1,8.9Z" style="fill:#fff;fill-rule:nonzero;"/><path d="M175.49,3.43c0.45,0.04 0.84,0.33 1.01,0.75c1.073,2.587 1.453,5.007 1.14,7.26c-0.04,0.33 0.01,0.66 0.13,0.95c0.94,2.233 0.917,4.263 -0.07,6.09c-0.72,1.333 -2.123,2.537 -4.21,3.61c-4.047,2.073 -8.383,3.133 -13.01,3.18c-0.84,0.007 -1.817,0.097 -2.93,0.27c-0.987,0.153 -1.98,0.213 -2.98,0.18c-1.493,-0.04 -2.547,-0.547 -3.16,-1.52c-0.673,-1.073 -0.893,-2.39 -0.66,-3.95c0.493,-3.313 1.637,-6.123 3.43,-8.43c1.487,-1.913 2.78,-3.38 3.88,-4.4c1.013,-0.94 2.18,-1.653 3.5,-2.14c0.633,-0.233 1.923,-0.597 3.87,-1.09c3.293,-0.84 6.647,-1.093 10.06,-0.76Z" style="fill:#fff;fill-rule:nonzero;"/><path d="M157.09,5.17c0.48,-0.32 1.003,-0.537 1.57,-0.65c1.047,-0.213 1.48,-0.033 1.3,0.54c-0.08,0.26 -0.29,0.487 -0.63,0.68c-1.633,0.947 -3.25,1.923 -4.85,2.93c-0.313,0.2 -0.417,0.127 -0.31,-0.22c0.333,-1.113 1.307,-2.207 2.92,-3.28Z" style="fill:#f6f1f0;fill-rule:nonzero;"/><path d="M3.99,10.51c0.11,-0.94 0.81,-1.73 1.76,-1.99l6.77,-1.88c0.35,-0.1 0.69,-0.08 0.95,0.05c0.8,0.407 1.193,1.073 1.18,2c-0.007,1.153 0.02,1.857 0.08,2.11c0.547,2.2 1.387,4.29 2.52,6.27c0.19,0.33 0.27,0.67 0.22,0.93l-1.38,7.72c-0.05,0.27 -0.33,0.46 -0.65,0.45l-10.58,-0.47c-0.71,-0.03 -1.28,-0.6 -1.31,-1.31c-0.233,-4.88 -0.087,-9.507 0.44,-13.88Z" style="fill:#fff;fill-rule:nonzero;"/><path d="M203.29,7c0.727,0.34 1.137,0.88 1.23,1.62c0.127,0.993 0.21,1.567 0.25,1.72c0.173,0.687 0.243,1.387 0.21,2.1c-0.02,0.36 -0.19,0.66 -0.44,0.78c-0.387,0.187 -0.63,-0.057 -0.73,-0.73c-0.107,-0.68 -0.53,-0.927 -1.27,-0.74l0.75,-4.75Z" style="fill:#836361;fill-rule:nonzero;"/><path d="M96.374,16.141c-1.803,4.355 -3.951,7.607 -4.792,7.259c-0.841,-0.349 -0.06,-4.167 1.744,-8.521c1.803,-4.355 3.951,-7.607 4.792,-7.259c0.841,0.349 0.06,4.167 -1.744,8.521Z" style="fill:#fff;"/><path d="M131.487,16.889c0.338,0.737 0.376,1.444 0.085,1.578c-0.291,0.133 -0.802,-0.358 -1.139,-1.096c-0.338,-0.737 -0.376,-1.444 -0.085,-1.578c0.291,-0.133 0.802,0.358 1.139,1.096Z" style="fill:#b57776;"/><path d="M190.33,21.72c0.32,0.333 0.247,0.517 -0.22,0.55l-10.56,0.63c-0.25,0.02 -0.46,-0.21 -0.43,-0.46c0.26,-1.787 0.85,-3.463 1.77,-5.03c0.447,-0.753 0.973,-0.863 1.58,-0.33c0.28,0.247 0.553,0.4 0.82,0.46c2.56,0.573 4.907,1.967 7.04,4.18Z" style="fill:#fff;fill-rule:nonzero;"/><path d="M127.46,17.5l0.25,1.25c-1.62,0.033 -2.26,0.783 -1.92,2.25c0,0.353 -0.167,0.603 -0.5,0.75c-0.727,-0.513 -1.407,-0.68 -2.04,-0.5c-5.707,1.6 -10.54,2.6 -14.5,3c-0.653,0.067 -0.987,0.303 -1,0.71c-0.473,-0.233 -0.723,-0.623 -0.75,-1.17c0.867,-0.593 1.7,-0.94 2.5,-1.04c6.287,-0.76 12.273,-2.51 17.96,-5.25Z" style="fill:#836361;fill-rule:nonzero;"/><path d="M204.06,18.71c0.307,-0.52 0.453,-0.467 0.44,0.16c-0.053,1.867 -0.64,3.583 -1.76,5.15c-0.42,0.593 -0.927,0.817 -1.52,0.67c-0.3,-0.08 -0.44,-0.4 -0.29,-0.66l3.13,-5.32Z" style="fill:#ddd4b8;fill-rule:nonzero;"/><path d="M127.71,18.75c-0.007,1.267 -0.647,2.017 -1.92,2.25c-0.34,-1.467 0.3,-2.217 1.92,-2.25Z" style="fill:#ddd4b8;fill-rule:nonzero;"/><path d="M133.747,20.98c0.47,0.793 0.679,1.539 0.466,1.666c-0.214,0.127 -0.769,-0.414 -1.24,-1.206c-0.47,-0.793 -0.679,-1.539 -0.466,-1.666c0.214,-0.127 0.769,0.414 1.24,1.206Z" style="fill:#b57776;"/><path d="M22.47,20.85c0.22,-0.61 1,-0.79 1.45,-0.32c0.96,1 1.153,1.717 0.58,2.15c-0.467,0.347 -0.987,0.41 -1.56,0.19c-0.693,-0.267 -0.85,-0.94 -0.47,-2.02Z" style="fill:#b57776;fill-rule:nonzero;"/><path d="M19.39,25.1c-0.587,-5.94 -0.267,-6.123 0.96,-0.55c0.073,0.313 0.06,0.567 -0.04,0.76c-0.107,0.2 -0.253,0.31 -0.44,0.33c-0.23,0.03 -0.45,-0.22 -0.48,-0.54Z" style="fill:#ddd4b8;fill-rule:nonzero;"/><path d="M125.29,21.75c-0.04,0.76 -0.417,1.303 -1.13,1.63c-5.267,2.453 -10.737,2.98 -16.41,1.58c0.013,-0.407 0.347,-0.643 1,-0.71c3.96,-0.4 8.793,-1.4 14.5,-3c0.633,-0.18 1.313,-0.013 2.04,0.5Z" style="fill:#fff;fill-rule:nonzero;"/><path d="M177.07,23.04c-0.18,0.8 -0.86,1.38 -1.68,1.45c-1.6,0.12 -3.137,0.35 -4.61,0.69c-0.2,0.047 -0.387,0.063 -0.56,0.05c-1.013,-0.073 -1.01,-0.333 0.01,-0.78c1.833,-0.807 3.627,-1.693 5.38,-2.66c1.32,-0.727 1.807,-0.31 1.46,1.25Z" style="fill:#fff;fill-rule:nonzero;"/><path d="M131.141,23.587c0.954,0.186 1.647,0.754 1.547,1.269c-0.1,0.515 -0.956,0.782 -1.909,0.597c-0.954,-0.186 -1.647,-0.754 -1.547,-1.269c0.1,-0.515 0.956,-0.782 1.909,-0.597Z" style="fill:#d4cbaf;"/><path d="M187.75,25.71l-7.46,2.04c-0.713,-0.633 -1.54,-0.923 -2.48,-0.87c-0.327,0.02 -0.377,-0.083 -0.15,-0.31c1.487,-1.487 3.29,-2.097 5.41,-1.83c0.31,0.04 0.63,-0.01 0.93,-0.15c1.52,-0.707 2.77,-0.333 3.75,1.12Z" style="fill:#b57776;fill-rule:nonzero;"/><path d="M200,41.96l0.5,0.08c-0.28,0.78 -0.347,1.58 -0.2,2.4c0.52,2.933 0.607,5.873 0.26,8.82c-0.04,0.34 -0.17,0.65 -0.37,0.88l-3.13,3.63c-1.02,1.187 -1.537,2.47 -1.55,3.85c-0.08,5.747 -2.92,8.437 -8.52,8.07c-2.207,-0.147 -4.417,-0.27 -6.63,-0.37c-0.033,0 -1.107,0.02 -3.22,0.06c-3.527,0.073 -6.427,-1.367 -8.7,-4.32c-1.467,-1.893 -1.59,-3.69 -0.37,-5.39c0.72,-1 1.09,-1.52 1.11,-1.56c1.227,-2.027 2.437,-4.063 3.63,-6.11c0.15,-0.26 0.41,-0.45 0.73,-0.55c1.027,-0.307 1.533,-0.943 1.52,-1.91c-0.013,-0.647 -0.017,-1.007 -0.01,-1.08c0.447,-4.96 0.777,-9.927 0.99,-14.9c0.02,-0.38 0.13,-0.7 0.3,-0.92l3.95,-4.89l7.46,-2.04l11,-0c0.64,-0 1.25,0.4 1.58,1.04c2.687,5.113 2.147,9.6 -1.62,13.46c-1.647,1.693 -3.24,3.44 -4.78,5.24c-1.027,1.193 -0.897,1.343 0.39,0.45l5.68,-3.94Z" style="fill:#fff;fill-rule:nonzero;"/><path d="M101.54,27.25c-0.12,0.693 -0.55,1.04 -1.29,1.04c-1.24,-1.547 -0.81,-1.893 1.29,-1.04Z" style="fill:#d4cbaf;fill-rule:nonzero;"/><path d="M108.25,28.21l-8,0.75l0,-0.67c0.74,0 1.17,-0.347 1.29,-1.04l3.9,0.16c0.293,0.007 0.607,-0.06 0.94,-0.2c0.973,-0.427 1.597,-0.093 1.87,1Z" style="fill:#836361;fill-rule:nonzero;"/><path d="M40.556,27.285c1.142,-0.232 2.137,-0.082 2.222,0.334c0.084,0.417 -0.773,0.943 -1.914,1.176c-1.142,0.232 -2.137,0.082 -2.222,-0.334c-0.084,-0.417 0.773,-0.943 1.914,-1.176Z" style="fill:#b57776;"/><path d="M90,27.79c0.08,0.927 -0.337,1.427 -1.25,1.5c-1.207,-0.46 -2.457,-0.66 -3.75,-0.6c-8,0.373 -16,0.393 -24,0.06c-0.767,-0.033 -1.183,-0.187 -1.25,-0.46c1.513,-0.493 4.097,-0.757 7.75,-0.79c11.16,-0.1 18.66,-0.003 22.5,0.29Z" style="fill:#f6f1f0;fill-rule:nonzero;"/><path d="M58.25,28.79c0.04,0.2 0.033,0.377 -0.02,0.53c-0.08,0.21 -0.39,0.34 -0.76,0.31l-9.97,-0.92c0.407,-0.993 1.24,-1.397 2.5,-1.21c1.507,0.227 3.443,0.247 5.81,0.06c0.693,-0.053 1.507,0.357 2.44,1.23Z" style="fill:#f6f1f0;fill-rule:nonzero;"/><path d="M90,27.79c2.047,-0.347 3.963,-0.04 5.75,0.92c-2.253,0.867 -4.573,1.13 -6.96,0.79l-0.04,-0.21c0.913,-0.073 1.33,-0.573 1.25,-1.5Z" style="fill:#d4cbaf;fill-rule:nonzero;"/><path d="M168.25,30.46c-1.14,0.32 -2.307,0.417 -3.5,0.29c-3.413,-0.367 -6.83,-0.38 -10.25,-0.04c0.053,-1.247 -0.53,-1.997 -1.75,-2.25c4.773,-0.773 9.513,-0.633 14.22,0.42c0.42,0.093 0.72,0.27 0.9,0.53c0.193,0.287 0.32,0.637 0.38,1.05Z" style="fill:#b57776;fill-rule:nonzero;"/><path d="M59.75,28.29c0.067,0.273 0.483,0.427 1.25,0.46c8,0.333 16,0.313 24,-0.06c1.293,-0.06 2.543,0.14 3.75,0.6l0.04,0.21c-1.113,0.447 -2.543,0.613 -4.29,0.5c-8.793,-0.567 -18.14,-0.41 -28.04,0.47c-0.1,0.007 -2.453,0.197 -7.06,0.57c-4.04,0.327 -6.923,0.813 -8.65,1.46c-0.62,0.233 -1.057,0.267 -1.31,0.1c-0.407,-0.253 -0.33,-0.437 0.23,-0.55l7.33,-1.49c0.37,-0.08 0.64,-0.3 0.64,-0.54c0.007,-0.347 -0.29,-0.533 -0.89,-0.56c0.18,-0.32 0.43,-0.57 0.75,-0.75l9.97,0.92c0.37,0.03 0.68,-0.1 0.76,-0.31c0.053,-0.153 0.06,-0.33 0.02,-0.53c0.433,-0.38 0.933,-0.547 1.5,-0.5Z" style="fill:#836361;fill-rule:nonzero;"/><path d="M108.25,28.21c5.413,0.333 10.827,0.377 16.24,0.13c1.16,-0.053 2.33,0.02 3.51,0.22c1.8,0.307 2.967,0.453 3.5,0.44c5.913,-0.18 11.83,-0.167 17.75,0.04l5.25,1.67c3.42,-0.34 6.837,-0.327 10.25,0.04c1.193,0.127 2.36,0.03 3.5,-0.29c0.547,0.26 0.787,0.803 0.72,1.63c-0.02,0.29 0.19,0.55 0.47,0.58c1.367,0.187 2.297,0.71 2.79,1.57c0.12,0.21 -0.02,0.49 -0.29,0.55l-12.14,2.66c-0.353,0.08 -0.36,0.173 -0.02,0.28c1.027,0.327 2.1,0.43 3.22,0.31c1.047,0.593 2.13,0.65 3.25,0.17c3.18,-0.093 3.863,0.703 2.05,2.39c-0.71,0.66 -1.65,1 -2.61,0.94c-2.707,-0.16 -5.267,-0.023 -7.68,0.41c-3.18,0.573 -5.387,0.907 -6.62,1c-2.227,0.167 -4.447,0.397 -6.66,0.69c-1.267,0.173 -2.923,0.193 -4.97,0.06c-1.48,-0.1 -3.15,-0.083 -5.01,0.05c-1.58,0.113 -5.247,0.14 -11,0.08c-0.387,-0.007 -1.32,0.143 -2.8,0.45c-0.887,0.18 -1.87,0.17 -2.95,-0.03c-1.027,-0.193 -2.277,-0.097 -3.75,0.29l-6.94,-0.13c-0.46,-0.007 -0.463,0.05 -0.01,0.17c2.293,0.613 4.61,0.657 6.95,0.13c0.893,0.447 1.977,0.627 3.25,0.54c6.66,-0.453 14.08,-0.623 22.26,-0.51c0.287,0.007 0.59,0.097 0.91,0.27c0.487,0.267 1,0.427 1.54,0.48c0.3,0.033 0.81,-0.057 1.53,-0.27c0.913,-0.267 1.823,-0.253 2.73,0.04c0.293,0.093 0.617,0.12 0.97,0.08l7.56,-0.88l6,0.25l10.68,1.05c0.29,0.03 0.47,0.31 0.34,0.52c-0.187,0.287 -0.48,0.367 -0.88,0.24c-0.42,-0.133 -0.74,-0.193 -0.96,-0.18l-13.93,1.11c-0.33,0.02 -0.64,-0.1 -0.82,-0.34l-0.68,-0.9c-2.013,-1.087 -3.93,-0.837 -5.75,0.75c-3.287,0.327 -6.567,0.347 -9.84,0.06c-2.78,-0.24 -5.27,-0.307 -7.47,-0.2c-2.513,0.12 -5.027,0.14 -7.54,0.06c-1.367,-0.04 -3.287,0.07 -5.76,0.33c-1.66,0.173 -3.603,0.25 -5.83,0.23c-1.927,-0.02 -5.81,0.253 -11.65,0.82c-1.16,0.113 -2.753,0.03 -4.78,-0.25c-1.08,-0.147 -2.167,-0.197 -3.26,-0.15c-1.067,0.047 -2.137,-0.023 -3.21,-0.21c-1.74,-0.307 -3.477,-0.35 -5.21,-0.13c-3.253,0.407 -4.9,0.61 -4.94,0.61c-3.993,0.213 -7.987,0.393 -11.98,0.54c-0.38,0.02 -0.7,-0.14 -0.72,-0.35c-0.02,-0.2 0.2,-0.35 0.66,-0.45c0.847,-0.187 1.02,-0.473 0.52,-0.86c-0.173,-0.133 -0.393,-0.2 -0.66,-0.2c-7.027,-0.007 -14.053,-0.04 -21.08,-0.1c-0.827,-0.48 -1.68,-0.6 -2.56,-0.36c-0.3,0.08 -0.603,0.14 -0.91,0.18c-0.74,0.087 -0.94,0.37 -0.6,0.85c0.15,0.22 0.47,0.3 0.8,0.21c0.853,-0.24 1.707,-0.187 2.56,0.16c-3.293,1.367 -6.647,1.58 -10.06,0.64c-0.34,-0.093 -0.333,-0.173 0.02,-0.24c1.4,-0.26 2.817,-0.393 4.25,-0.4c1.207,-0.007 1.717,-0.657 1.53,-1.95c-0.03,-0.26 -0.29,-0.45 -0.6,-0.46l-7.18,-0.05l-0.71,-0.04c-1.1,-1.107 -1.743,-2.42 -1.93,-3.94c-0.04,-0.27 0.18,-0.51 0.45,-0.51l7.89,-0.05c0.3,0 0.57,-0.2 0.65,-0.49c0.473,-1.633 0.223,-2.243 -0.75,-1.83c-0.567,0.233 -0.99,0.363 -1.27,0.39c-1.987,0.187 -3.953,0.057 -5.9,-0.39c-0.33,-0.08 -0.57,-0.33 -0.58,-0.62l-0.06,-3.31l4.75,-3c3.407,-1.393 6.977,-2.073 10.71,-2.04c0.6,0.027 0.897,0.213 0.89,0.56c0,0.24 -0.27,0.46 -0.64,0.54l-7.33,1.49c-0.56,0.113 -0.637,0.297 -0.23,0.55c0.253,0.167 0.69,0.133 1.31,-0.1c1.727,-0.647 4.61,-1.133 8.65,-1.46c4.607,-0.373 6.96,-0.563 7.06,-0.57c9.9,-0.88 19.247,-1.037 28.04,-0.47c1.747,0.113 3.177,-0.053 4.29,-0.5c2.387,0.34 4.707,0.077 6.96,-0.79c1.487,0.473 2.987,0.557 4.5,0.25l8,-0.75Zm37.758,2.931c-0.008,-0.141 -0.128,-0.251 -0.27,-0.249l-22.322,0.897c-0.146,0.001 -0.256,0.131 -0.249,0.27l0.005,0.12c0.008,0.141 0.128,0.251 0.27,0.249l22.322,-0.896c0.146,-0.002 0.256,-0.132 0.249,-0.271l-0.005,-0.12Zm16.582,1.429c-1.647,-0.387 -2.76,-0.493 -3.34,-0.32c-2.547,0.753 -5.09,0.763 -7.63,0.03c-0.5,-0.14 -0.443,-0.107 0.17,0.1c2.667,0.907 5.38,1.263 8.14,1.07c0.807,-0.053 2.013,-0.023 3.62,0.09c1.153,0.08 2.387,-0.017 3.7,-0.29c0.487,-0.1 0.72,-0.283 0.7,-0.55c-0.02,-0.32 -0.34,-0.55 -0.7,-0.51l-3.7,0.34c-0.54,0.053 -0.86,0.067 -0.96,0.04Z" style="fill:#fff;fill-rule:nonzero;"/><path d="M152.75,28.46c1.22,0.253 1.803,1.003 1.75,2.25l-5.25,-1.67l3.5,-0.58Z" style="fill:#d4cbaf;fill-rule:nonzero;"/><path d="M173.57,30.71c-1.407,-1.133 -0.943,-1.793 1.39,-1.98c0.4,-0.03 0.76,0.27 0.81,0.67c0.28,2.287 -0.453,2.723 -2.2,1.31Z" style="fill:#fff;fill-rule:nonzero;"/><path d="M16.96,67.25l-1.21,0.04l-1.25,0c-0.62,0.113 -0.973,-0.047 -1.06,-0.48c-0.087,-0.433 -0.193,-0.73 -0.32,-0.89l-3.76,-4.84c-0.17,-0.22 -0.27,-0.53 -0.28,-0.89c-0.033,-1.293 -0.633,-2.16 -1.8,-2.6c-0.28,-0.11 -0.48,-0.35 -0.56,-0.64c-0.193,-0.707 -0.587,-1.273 -1.18,-1.7c-0.207,-3.973 -0.417,-7.943 -0.63,-11.91c-0.02,-0.333 -0.22,-2.213 -0.6,-5.64c-0.207,-1.887 -0.24,-3.787 -0.1,-5.7c0.167,-2.093 1.183,-3.137 3.05,-3.13c1.6,0.007 2.42,0.007 2.46,0c2.487,-0.22 4.967,-0.187 7.44,0.1c1.8,0.213 3.213,0.72 4.24,1.52c1.073,0.84 2.127,1.99 3.16,3.45c0.86,1.213 1.54,2.21 2.04,2.99c0.507,0.8 0.897,1.917 1.17,3.35c0.627,3.307 1.897,6.367 3.81,9.18c0.487,0.713 1.133,1.08 1.94,1.1c0.3,0.01 0.52,0.28 0.47,0.57c-0.687,3.98 -2.34,7.33 -4.96,10.05c-1.653,1.707 -2.503,2.587 -2.55,2.64c-1.013,1.12 -2.073,2.19 -3.18,3.21c-0.487,0.453 -0.59,0.737 -0.31,0.85c0.21,0.09 0.52,0.01 0.81,-0.21c2.827,-2.047 5.58,-4.19 8.26,-6.43c0.433,-0.367 0.807,-0.573 1.12,-0.62c0.6,-0.1 0.88,0.23 0.84,0.99c-0.02,0.347 -0.163,0.69 -0.43,1.03c-1.673,2.133 -3.503,4.123 -5.49,5.97c-2.62,2.42 -5.637,2.92 -9.05,1.5c-0.59,-0.25 -0.93,-0.86 -0.82,-1.49c0.367,-2.187 -0.057,-2.643 -1.27,-1.37Z" style="fill:#fff;fill-rule:nonzero;"/><path d="M24.09,28.95c0.33,0.1 0.53,0.44 0.46,0.78c-0.36,1.833 -0.963,2.017 -1.81,0.55c-0.827,-1.427 -0.377,-1.87 1.35,-1.33Z" style="fill:#f6f1f0;fill-rule:nonzero;"/><path d="M36.04,31.5l-4.75,3c-0.4,-2.7 0.783,-4.39 3.55,-5.07c1.687,-0.413 2.017,-0.08 0.99,1c-0.2,0.21 -0.23,0.51 -0.08,0.7l0.29,0.37Z" style="fill:#b57776;fill-rule:nonzero;"/><path d="M28.52,35.19c-0.09,0.24 -0.4,0.29 -0.57,0.1l-2.4,-2.64c-0.26,-0.3 -0.42,-0.59 -0.45,-0.83c-0.107,-0.94 0.22,-1.673 0.98,-2.2c0.25,-0.18 0.63,-0.1 0.86,0.18l2.16,2.66c0.19,0.23 0.26,0.51 0.18,0.73l-0.76,2Z" style="fill:#f6f1f0;fill-rule:nonzero;"/><path d="M146.008,31.141c-0.005,-0.143 -0.126,-0.255 -0.27,-0.249l-22.322,0.897c-0.143,0.005 -0.255,0.126 -0.249,0.27l0.005,0.12c0.005,0.143 0.126,0.255 0.27,0.249l22.322,-0.897c0.143,-0.005 0.255,-0.126 0.249,-0.27l-0.005,-0.12Z" style="fill:#63252f;"/><path d="M4.21,32c-0.14,1.913 -0.107,3.813 0.1,5.7c0.38,3.427 0.58,5.307 0.6,5.64c0.213,3.967 0.423,7.937 0.63,11.91l0.17,3.5c-0.273,-1.087 -0.877,-1.84 -1.81,-2.26c-0.29,-0.14 -0.49,-0.39 -0.53,-0.67c-0.353,-2.747 -0.663,-5.5 -0.93,-8.26c-0.067,-0.627 0.073,-1.123 0.42,-1.49c0.11,-0.12 0.42,-0.12 0.78,0c0.273,0.087 0.227,-0.507 -0.14,-1.78c0.367,-1.1 0.52,-2.23 0.46,-3.39c-0.013,-0.267 -0.087,-0.477 -0.22,-0.63c-0.24,-0.267 -0.5,-0.273 -0.78,-0.02c-0.28,-1.767 -0.367,-3.54 -0.26,-5.32c0.007,-0.08 -0.013,-0.527 -0.06,-1.34c-0.06,-0.947 0.463,-1.477 1.57,-1.59Z" style="fill:#836361;fill-rule:nonzero;"/><path d="M163.55,32.53l3.7,-0.34c0.36,-0.04 0.68,0.19 0.7,0.51c0.02,0.267 -0.213,0.45 -0.7,0.55c-1.313,0.273 -2.547,0.37 -3.7,0.29c-1.607,-0.113 -2.813,-0.143 -3.62,-0.09c-2.76,0.193 -5.473,-0.163 -8.14,-1.07c-0.613,-0.207 -0.67,-0.24 -0.17,-0.1c2.54,0.733 5.083,0.723 7.63,-0.03c0.58,-0.173 1.693,-0.067 3.34,0.32c0.1,0.027 0.42,0.013 0.96,-0.04Z" style="fill:#b57776;fill-rule:nonzero;"/><path d="M166.25,38.21c-1.12,0.48 -2.203,0.423 -3.25,-0.17c1.147,-1.093 2.23,-1.037 3.25,0.17Z" style="fill:#b57776;fill-rule:nonzero;"/><path d="M3.5,44.29l-0.54,-4.04c0.28,-0.253 0.54,-0.247 0.78,0.02c0.133,0.153 0.207,0.363 0.22,0.63c0.06,1.16 -0.093,2.29 -0.46,3.39Z" style="fill:#b57776;fill-rule:nonzero;"/><path d="M200.5,42.04l-0.5,-0.08l1.55,-1.24c0.333,-0.267 0.513,-0.177 0.54,0.27c0.053,0.773 -0.477,1.123 -1.59,1.05Z" style="fill:#836361;fill-rule:nonzero;"/><path d="M165.5,43.54l-3.5,-0.25c4.92,-0.607 8.087,-0.703 9.5,-0.29c0.753,0.22 0.92,0.437 0.5,0.65c-0.14,0.067 -0.313,0.087 -0.52,0.06c-1.987,-0.267 -3.98,-0.323 -5.98,-0.17Z" style="fill:#f6f1f0;fill-rule:nonzero;"/><path d="M162,43.29l3.5,0.25c-1.34,0.133 -2.67,0.303 -3.99,0.51c-0.353,0.06 -0.523,0.28 -0.51,0.66l-6,-0.25c0.62,-0.687 1.38,-1.04 2.28,-1.06c1.207,-0.02 1.85,-0.037 1.93,-0.05c0.927,-0.113 1.857,-0.133 2.79,-0.06Z" style="fill:#b57776;fill-rule:nonzero;"/><path d="M114.25,44.54l0,0.17c-2.34,0.527 -4.657,0.483 -6.95,-0.13c-0.453,-0.12 -0.45,-0.177 0.01,-0.17l6.94,0.13Z" style="fill:#b57776;fill-rule:nonzero;"/><path d="M32.79,45.25l0.71,0.04c0.193,0.233 0.757,0.407 1.69,0.52c2.927,0.373 3.013,0.777 0.26,1.21c-1.46,0.227 -2.347,-0.363 -2.66,-1.77Z" style="fill:#ddd4b8;fill-rule:nonzero;"/><path d="M154.75,46.21c-1.773,1.14 -3.69,1.39 -5.75,0.75c1.82,-1.587 3.737,-1.837 5.75,-0.75Z" style="fill:#b57776;fill-rule:nonzero;"/><path d="M46.25,46.71c-0.153,0.42 -0.39,0.767 -0.71,1.04c-0.853,-0.347 -1.707,-0.4 -2.56,-0.16c-0.33,0.09 -0.65,0.01 -0.8,-0.21c-0.34,-0.48 -0.14,-0.763 0.6,-0.85c0.307,-0.04 0.61,-0.1 0.91,-0.18c0.88,-0.24 1.733,-0.12 2.56,0.36Z" style="fill:#b57776;fill-rule:nonzero;"/><path d="M62.175,47.74c1.975,-0.052 3.585,0.171 3.594,0.496c0.008,0.326 -1.588,0.632 -3.564,0.684c-1.975,0.052 -3.585,-0.171 -3.594,-0.496c-0.008,-0.326 1.588,-0.632 3.564,-0.684Z" style="fill:#ddd4b8;"/><path d="M128.931,48.353c0.002,-0.144 -0.113,-0.262 -0.256,-0.264l-11.299,-0.158c-0.144,-0.002 -0.262,0.113 -0.264,0.256l-0.003,0.22c-0.002,0.144 0.113,0.262 0.256,0.264l11.299,0.158c0.144,0.002 0.262,-0.113 0.264,-0.256l0.003,-0.22Z" style="fill:#d4cbaf;"/><path d="M131.827,47.711c0.992,-0.059 1.812,0.139 1.83,0.442c0.018,0.303 -0.773,0.597 -1.764,0.656c-0.992,0.059 -1.812,-0.139 -1.83,-0.442c-0.018,-0.303 0.773,-0.597 1.764,-0.656Z" style="fill:#d4cbaf;"/><path d="M110.37,47.97c1.587,0.387 1.513,0.567 -0.22,0.54c-0.3,-0.01 -0.54,-0.15 -0.6,-0.35c-0.08,-0.273 0.193,-0.337 0.82,-0.19Z" style="fill:#836361;fill-rule:nonzero;"/><path d="M52.55,48.22c1.213,-0.18 2.377,-0.067 3.49,0.34c0.62,0.233 0.607,0.317 -0.04,0.25l-3.46,-0.34c-0.66,-0.06 -0.657,-0.143 0.01,-0.25Z" style="fill:#a9364e;fill-rule:nonzero;"/><path d="M88.68,51.47c-2.487,0.22 -4.977,0.26 -7.47,0.12c-3.033,-0.167 -5.51,-0.207 -7.43,-0.12c-3.247,0.147 -6.497,0.187 -9.75,0.12c-1.713,-0.033 -3.73,0.01 -6.05,0.13c-2.027,0.107 -4.05,0.127 -6.07,0.06c-1.92,-0.067 -4.307,0.013 -7.16,0.24c-2.553,0.2 -4.97,0.11 -7.25,-0.27c-0.467,-0.08 -0.64,-0.273 -0.52,-0.58c0.09,-0.25 0.4,-0.43 0.78,-0.45c12.553,-0.727 20.883,-1.05 24.99,-0.97c11.94,0.22 23.88,0.27 35.82,0.15c1.233,-0.013 5.473,0.113 12.72,0.38c2.84,0.1 5.683,0.063 8.53,-0.11c3.687,-0.22 6.517,-0.313 8.49,-0.28c14,0.227 24.397,0.263 31.19,0.11c0.267,-0.007 0.477,0.017 0.63,0.07c0.52,0.187 0.46,0.333 -0.18,0.44c-0.793,0.133 -1.57,0.327 -2.33,0.58c-0.873,0.287 -1.643,0.443 -2.31,0.47c-5.073,0.247 -10.137,0.14 -15.19,-0.32c-3.053,-0.28 -5.967,-0.31 -8.74,-0.09c-5.593,0.44 -10.7,0.577 -15.32,0.41c-11.673,-0.42 -18.777,-0.44 -21.31,-0.06c-1.173,0.173 -2.2,0.217 -3.08,0.13c-1.527,-0.147 -2.523,-0.2 -2.99,-0.16Z" style="fill:#f6f1f0;fill-rule:nonzero;"/><path d="M168.29,52.58c1.067,-1.04 1.653,-0.937 1.76,0.31c0.033,0.4 -0.057,0.833 -0.27,1.3c-2.113,4.647 -2.753,4.397 -1.92,-0.75c0.05,-0.34 0.2,-0.65 0.43,-0.86Z" style="fill:#fff;fill-rule:nonzero;"/><path d="M159.3,55.85c0.667,-0.073 1.213,0.097 1.64,0.51c0.267,0.267 0.203,0.42 -0.19,0.46c-1.267,0.133 -2.703,-0.12 -4.31,-0.76c-2.827,-1.12 -5.957,-1.36 -9.39,-0.72c-0.333,0.067 -0.357,0.003 -0.07,-0.19c3.107,-2.047 6.467,-2.367 10.08,-0.96c0.407,0.153 0.893,0.603 1.46,1.35c0.17,0.22 0.47,0.34 0.78,0.31Z" style="fill:#a9364e;fill-rule:nonzero;"/><path d="M38.5,53.93c2,0.2 2.42,0.807 1.26,1.82c-0.507,0.433 -0.933,0.543 -1.28,0.33c-0.38,-0.227 -0.553,-0.787 -0.52,-1.68c0.01,-0.28 0.26,-0.5 0.54,-0.47Z" style="fill:#b57776;fill-rule:nonzero;"/><path d="M71.06,54.67c1.813,-0.12 3.63,-0.217 5.45,-0.29c4.32,-0.187 6.057,1.457 5.21,4.93c-0.18,0.727 -0.657,1.753 -1.43,3.08c-0.387,0.66 -0.753,1.33 -1.1,2.01c-0.42,0.833 -0.847,1.46 -1.28,1.88c-1.353,1.327 -3.003,2.17 -4.95,2.53c-2.14,0.407 -4.277,0.833 -6.41,1.28c-0.28,0.06 -0.61,0.02 -0.93,-0.12c-0.873,-0.353 -1.997,-0.427 -3.37,-0.22c-6.353,0.973 -12.71,0.887 -19.07,-0.26c-0.79,-0.15 -1.45,-0.59 -1.81,-1.21l-3.04,-5.31c-0.17,-0.29 0.01,-0.67 0.35,-0.75c3.48,-0.84 6.957,-1.54 10.43,-2.1c1.233,-0.2 2.41,-0.697 3.53,-1.49c2.18,-1.533 4.05,-2.41 5.61,-2.63c4.253,-0.6 8.523,-1.043 12.81,-1.33Z" style="fill:#fff;fill-rule:nonzero;"/><path d="M86.46,54.85c0.26,0.1 0.32,0.45 0.13,0.69l-1.41,1.72c-0.23,0.28 -0.51,0.42 -0.74,0.38c-0.78,-0.133 -0.947,-0.607 -0.5,-1.42c0.053,-0.087 0.2,-0.423 0.44,-1.01c0.28,-0.693 0.973,-0.813 2.08,-0.36Z" style="fill:#f6f1f0;fill-rule:nonzero;"/><path d="M161.31,58.94c1.413,0.5 1.997,1.263 1.75,2.29c-0.133,0.56 -0.623,1.16 -1.47,1.8c-2.613,1.98 -4.747,3.95 -6.4,5.91c-1.173,1.393 -2.597,2.117 -4.27,2.17c-1.773,0.053 -2.723,0.087 -2.85,0.1c-1.26,0.127 -2.51,0.1 -3.75,-0.08c-0.86,-0.127 -2.087,-0.233 -3.68,-0.32c-1.853,-0.1 -3.567,-0.693 -5.14,-1.78c-2.313,-1.6 -4.643,-3.3 -6.99,-5.1c-0.25,-0.19 -0.36,-0.52 -0.29,-0.82c0.173,-0.7 0.31,-1.387 0.41,-2.06c0.073,-0.52 -0.003,-1.203 -0.23,-2.05c-0.473,-1.733 0.16,-2.663 1.9,-2.79c1.413,-0.107 2.363,-0.22 2.85,-0.34c3.153,-0.78 6.353,-1.007 9.6,-0.68c0.3,0.033 0.603,0.15 0.91,0.35c1.44,0.933 3.303,1.42 5.59,1.46c4.66,0.087 8.68,0.733 12.06,1.94Z" style="fill:#fff;fill-rule:nonzero;"/><path d="M5.54,55.25c0.593,0.427 0.987,0.993 1.18,1.7c0.08,0.29 0.28,0.53 0.56,0.64c1.167,0.44 1.767,1.307 1.8,2.6c0.01,0.36 0.11,0.67 0.28,0.89l3.76,4.84c0.127,0.16 0.233,0.457 0.32,0.89c0.087,0.433 0.44,0.593 1.06,0.48c-0.68,0.6 -1.327,0.733 -1.94,0.4c-3.387,-1.847 -5.67,-4.827 -6.85,-8.94l-0.17,-3.5Z" style="fill:#ddd4b8;fill-rule:nonzero;"/><path d="M88,65.96c-0.913,-0.613 -1.913,-1.003 -3,-1.17c-0.56,-0.933 -0.893,-1.933 -1,-3c-0.1,-1.007 0.213,-1.93 0.94,-2.77c1.56,-1.813 3.413,-2.82 5.56,-3.02c1.127,-0.107 1.95,-0.233 2.47,-0.38c0.42,-0.12 0.743,-0.18 0.97,-0.18c6.913,0.1 13.823,0.26 20.73,0.48c0.973,0.027 2.673,0.237 5.1,0.63c1.54,0.253 3.1,0.35 4.68,0.29c0.28,-0.01 0.52,0.19 0.55,0.47c0.32,3.053 -0.703,5.297 -3.07,6.73c-1.947,1.173 -2.967,1.793 -3.06,1.86c-1.067,0.733 -2.193,1.353 -3.38,1.86c-1.033,0.447 -2.27,0.643 -3.71,0.59c-3.12,-0.107 -6.233,-0.07 -9.34,0.11c-3.027,0.18 -5.473,0.07 -7.34,-0.33c-2.413,-0.513 -4.78,-1.237 -7.1,-2.17Z" style="fill:#fff;fill-rule:nonzero;"/><path d="M199.763,58.094c-0.496,0.986 -1.187,1.641 -1.542,1.463c-0.355,-0.179 -0.24,-1.124 0.256,-2.111c0.496,-0.986 1.187,-1.641 1.542,-1.463c0.355,0.179 0.24,1.124 -0.256,2.111Z" style="fill:#b57776;"/><path d="M49.31,58.23c1.347,-0.047 1.483,0.223 0.41,0.81c-0.18,0.093 -0.38,0.147 -0.6,0.16c-3.473,0.14 -6.753,0.787 -9.84,1.94c-0.69,0.26 -1.46,-0.14 -1.64,-0.85c-0.46,-1.793 0.013,-2.587 1.42,-2.38c0.533,0.08 0.833,0.123 0.9,0.13c3.113,0.233 6.23,0.297 9.35,0.19Z" style="fill:#f6f1f0;fill-rule:nonzero;"/><path d="M156.44,69.19c1,-1.147 2.11,-2.17 3.33,-3.07c0.467,-0.347 0.933,-0.79 1.4,-1.33c1.48,-1.74 2.233,-1.297 2.26,1.33c0.013,1.2 -0.567,2.02 -1.74,2.46l-4.63,1.73c-1.6,0.6 -1.807,0.227 -0.62,-1.12Z" style="fill:#fff;fill-rule:nonzero;"/><path d="M85,64.79c1.087,0.167 2.087,0.557 3,1.17c-1.927,2.42 -2.927,2.03 -3,-1.17Z" style="fill:#836361;fill-rule:nonzero;"/><path d="M127.96,66.86c-0.987,-1.993 -0.72,-2.51 0.8,-1.55c0.42,0.267 0.703,0.587 0.85,0.96c0.287,0.76 -0.023,1.123 -0.93,1.09c-0.3,-0.01 -0.58,-0.2 -0.72,-0.5Z" style="fill:#d4cbaf;fill-rule:nonzero;"/><path d="M15.75,67.29l1.21,-0.04c0.7,2.213 0.377,2.947 -0.97,2.2c-0.24,-0.13 -0.38,-0.44 -0.36,-0.77l0.12,-1.39Z" style="fill:#ddd4b8;fill-rule:nonzero;"/><path d="M131.55,68.72c2.007,1.24 1.59,1.67 -1.25,1.29c-0.32,-0.05 -0.56,-0.28 -0.58,-0.57c-0.02,-0.52 0.243,-0.837 0.79,-0.95c0.32,-0.073 0.667,0.003 1.04,0.23Z" style="fill:#b57776;fill-rule:nonzero;"/><path d="M117.94,74l-6.5,0c2.193,-0.82 4.36,-0.82 6.5,0Z" style="fill:#d4cbaf;fill-rule:nonzero;"/></svg>