<?xml version="1.0" encoding="UTF-8" standalone="no"?><!DOCTYPE svg PUBLIC "-//W3C//DTD SVG 1.1//EN" "http://www.w3.org/Graphics/SVG/1.1/DTD/svg11.dtd"><svg width="100%" height="100%" viewBox="0 0 79 61" version="1.1" xmlns="http://www.w3.org/2000/svg" xmlns:xlink="http://www.w3.org/1999/xlink" xml:space="preserve" xmlns:serif="http://www.serif.com/" style="fill-rule:evenodd;clip-rule:evenodd;"><path d="M44.682,55.448l5.5,0" style="fill:none;fill-rule:nonzero;stroke:#e8baaf;stroke-width:2px;"/><path d="M50.182,55.448c0.253,0.06 0.503,0.06 0.75,0" style="fill:none;fill-rule:nonzero;stroke:#b28d81;stroke-width:2px;"/><path d="M50.932,55.448c0.5,0.28 1,0.28 1.5,0" style="fill:none;fill-rule:nonzero;stroke:#dfcab5;stroke-width:2px;"/><path d="M52.432,55.448c4.673,0.607 9.34,0.524 14,-0.25" style="fill:none;fill-rule:nonzero;stroke:#bfa798;stroke-width:2px;"/><path d="M66.432,55.198c2.153,0.447 4.303,0.47 6.45,0.07c0.3,-0.05 0.55,-0.28 0.62,-0.58c0.367,-1.566 0.33,-3.133 -0.11,-4.7" style="fill:none;fill-rule:nonzero;stroke:#b28d81;stroke-width:2px;"/><path d="M73.392,49.988c0.513,-3.733 0.68,-7.483 0.5,-11.25" style="fill:none;fill-rule:nonzero;stroke:#bfa798;stroke-width:2px;"/><path d="M73.892,38.738c0.86,-4.26 0.87,-8.486 0.03,-12.68c-0.26,-1.293 -0.293,-2.683 -0.1,-4.17c0.233,-1.793 0.217,-3.586 -0.05,-5.38c-0.213,-1.433 -0.293,-2.623 -0.24,-3.57c0.053,-1.18 0.107,-2.383 0.16,-3.61c0.01,-0.32 -0.24,-0.58 -0.56,-0.59c-3.893,-0.026 -7.543,0.14 -10.95,0.5c-1.793,0.187 -4.193,-0.123 -7.2,-0.93c-0.29,-0.07 -0.53,-0.3 -0.63,-0.6c-0.387,-1.16 -1.057,-2.116 -2.01,-2.87c-1.253,-0.993 -2.573,-0.85 -3.96,0.43c-0.33,0.3 -0.79,0.39 -1.21,0.24c-3.52,-1.266 -6.757,-1.466 -9.71,-0.6c-0.28,0.08 -0.51,0.31 -0.61,0.62c-0.58,1.707 -1.24,1.63 -1.98,-0.23c-0.29,-0.72 -1.43,-0.89 -2.5,-0.37c-0.673,0.327 -1.307,0.34 -1.9,0.04c-0.84,-0.413 -1.277,-0.626 -1.31,-0.64c-2.26,-0.593 -3.82,0.1 -4.68,2.08c-0.1,0.234 -0.18,0.677 -0.24,1.33c-0.087,0.927 -0.563,1.194 -1.43,0.8c-0.347,-0.16 -0.66,-0.233 -0.94,-0.22c-1.42,0.04 -2.84,0.107 -4.26,0.2c-1.047,0.067 -2.46,0.054 -4.24,-0.04c-2.227,-0.126 -4.42,0.037 -6.58,0.49c-0.55,0.11 -0.93,0.62 -0.87,1.18c0.313,3 0.15,5.947 -0.49,8.84c-0.253,1.14 -0.243,2.074 0.03,2.8c0.12,0.32 0.283,0.327 0.49,0.02c0.947,-1.453 1.437,-0.976 1.47,1.43c0.087,6.807 0.01,13.617 -0.23,20.43c-0.01,0.25 -0.1,0.46 -0.24,0.55c-0.14,0.1 -0.267,0.09 -0.38,-0.03c-0.087,-0.086 -0.143,-0.236 -0.17,-0.45c-0.627,-5.673 -0.727,-11.27 -0.3,-16.79c0.087,-1.173 -0.113,-1.226 -0.6,-0.16c-0.993,2.16 -1.45,4.397 -1.37,6.71c0.007,0.02 0.32,1.66 0.94,4.92c0.32,1.674 0.397,3.364 0.23,5.07c-0.067,0.7 -0.027,1.364 0.12,1.99c0.153,0.654 0.297,1.307 0.43,1.96c0.16,0.807 0.12,1.787 -0.12,2.94c-0.24,1.16 -0.337,2.4 -0.29,3.72c0.047,1.227 0.687,1.834 1.92,1.82c0.62,-0.006 1.323,-0.11 2.11,-0.31c0.74,-0.193 1.43,-0.256 2.07,-0.19c5.747,0.6 11.49,0.63 17.23,0.09c1.353,-0.126 2.667,-0.16 3.94,-0.1c1.32,0.06 2.64,0.1 3.96,0.12c0.073,0.007 0.843,0.15 2.31,0.43c0.82,0.16 1.637,0.004 2.45,-0.47c0.52,-0.3 1.603,-0.313 3.25,-0.04" style="fill:none;fill-rule:nonzero;stroke:#b28d81;stroke-width:2px;"/><path d="M73.892,38.738l-1.17,0" style="fill:none;fill-rule:nonzero;stroke:#874c51;stroke-width:2px;"/><path d="M72.722,38.738c-0.06,-7.546 -0.15,-15.096 -0.27,-22.65c-0.007,-0.32 -0.147,-1.023 -0.42,-2.11c-0.2,-0.766 -0.14,-1.53 0.18,-2.29c0.12,-0.29 0.03,-0.6 -0.21,-0.68c-0.173,-0.06 -0.35,-0.083 -0.53,-0.07c-0.28,0.02 -0.53,0.26 -0.62,0.59c-0.493,1.82 -0.633,3.974 -0.42,6.46c0.307,3.547 0.347,11.86 0.12,24.94c-0.013,0.754 0.28,1.287 0.88,1.6" style="fill:none;fill-rule:nonzero;stroke:#b98a86;stroke-width:2px;"/><path d="M71.432,44.528c-0.293,0.467 -0.463,0.96 -0.51,1.48c-0.073,0.82 -0.12,1.294 -0.14,1.42c-0.273,1.767 0.597,2.62 2.61,2.56" style="fill:none;fill-rule:nonzero;stroke:#874c51;stroke-width:2px;"/><path d="M66.432,55.198c-0.113,-2.053 -1.113,-2.86 -3,-2.42" style="fill:none;fill-rule:nonzero;stroke:#874c51;stroke-width:2px;"/><path d="M63.432,52.778c-1.633,-0.286 -3.233,-0.28 -4.8,0.02c-1.28,0.24 -2.423,0.3 -3.43,0.18c-1.167,-0.146 -2.34,-0.226 -3.52,-0.24c-0.28,0 -0.52,0.22 -0.55,0.51l-0.2,2.2" style="fill:none;fill-rule:nonzero;stroke:#a76f6f;stroke-width:2px;"/><path d="M50.182,55.448c0.26,-1.92 -0.577,-2.656 -2.51,-2.21c-0.51,0.12 -1.04,0.1 -1.54,-0.06c-2.14,-0.68 -2.623,0.077 -1.45,2.27" style="fill:none;fill-rule:nonzero;stroke:#b05f69;stroke-width:2px;"/><path d="M63.432,52.778c0.027,0.687 -0.773,1.234 -2.4,1.64c-0.827,0.207 -1.667,0.3 -2.52,0.28c-2.327,-0.053 -4.353,0.197 -6.08,0.75" style="fill:none;fill-rule:nonzero;stroke:#b38986;stroke-width:2px;"/><path d="M72.722,38.738c-0.56,2.16 -0.74,3.577 -0.54,4.25c0.287,0.98 0.037,1.494 -0.75,1.54" style="fill:none;fill-rule:nonzero;stroke:#c5a49d;stroke-width:2px;"/><path d="M31.462,9.588c-0.313,1.28 -0.2,2.524 0.34,3.73c0.673,1.5 1.57,1.244 2.69,-0.77c0.967,-1.733 1.107,-3.323 0.42,-4.77c-1.327,-2.773 -2.477,-2.17 -3.45,1.81" style="fill:none;fill-rule:nonzero;stroke:#bc989c;stroke-width:2px;"/><path d="M47.872,7.928c-0.44,1.64 -0.583,3.307 -0.43,5c0.02,0.21 0.25,0.38 0.54,0.38l2.15,0.02c0.87,0.01 1.57,-0.58 1.53,-1.28l-0.32,-5.63c-0.02,-0.29 -0.26,-0.54 -0.58,-0.57c-1.507,-0.18 -2.47,0.514 -2.89,2.08" style="fill:none;fill-rule:nonzero;stroke:#bc989c;stroke-width:2px;"/><path d="M25.732,7.948c-0.073,0.527 -0.103,1.057 -0.09,1.59c0,0.107 -0.013,0.57 -0.04,1.39c-0.053,1.56 0.973,1.89 3.08,0.99c0.58,-0.25 0.96,-0.79 1,-1.41l0.23,-3.77c0.02,-0.31 -0.16,-0.59 -0.44,-0.69c-1.253,-0.453 -2.287,-0.283 -3.1,0.51c-0.347,0.34 -0.56,0.804 -0.64,1.39" style="fill:none;fill-rule:nonzero;stroke:#bc989c;stroke-width:2px;"/><path d="M44.502,6.848c-1.28,-0.18 -2.54,-0.08 -3.78,0.3c-0.28,0.08 -0.47,0.35 -0.47,0.65l-0.1,5.77c-0.01,0.76 0.65,1.35 1.39,1.23c2.427,-0.38 3.677,-1.556 3.75,-3.53c0.02,-0.466 0.087,-1.103 0.2,-1.91c0.093,-0.68 0.003,-1.34 -0.27,-1.98c-0.12,-0.29 -0.4,-0.49 -0.72,-0.53" style="fill:none;fill-rule:nonzero;stroke:#bc989c;stroke-width:2px;"/><path d="M14.222,9.948c-2.307,0.134 -2.31,0.594 -0.01,1.38c0.32,0.11 0.65,0.05 0.86,-0.16c0.353,-0.346 0.387,-0.663 0.1,-0.95c-0.2,-0.206 -0.517,-0.296 -0.95,-0.27" style="fill:none;fill-rule:nonzero;stroke:#8b515a;stroke-width:2px;"/><path d="M23.521,10.589c0.011,-0.421 -0.619,-0.791 -1.412,-0.82c-0.797,-0.031 -1.447,0.289 -1.466,0.719c-0.011,0.42 0.619,0.79 1.412,0.82c0.797,0.03 1.447,-0.29 1.466,-0.719" style="fill:none;fill-rule:nonzero;stroke:#a76f6f;stroke-width:2px;"/><path d="M64.752,13.298l-6.08,-0.8c-0.31,-0.05 -0.62,0.14 -0.72,0.44c-0.187,0.534 0.057,0.884 0.73,1.05c0.933,0.234 2.52,0.25 4.76,0.05c0.31,-0.03 0.64,0.04 0.93,0.2c1.46,0.794 1.847,0.66 1.16,-0.4c-0.2,-0.3 -0.48,-0.5 -0.78,-0.54" style="fill:none;fill-rule:nonzero;stroke:#b05f69;stroke-width:2px;"/><path d="M53.662,13.668c0.147,1.227 0.567,1.307 1.26,0.24c0.18,-0.28 0.2,-0.62 0.05,-0.87c-0.267,-0.44 -0.597,-0.513 -0.99,-0.22c-0.24,0.18 -0.36,0.5 -0.32,0.85" style="fill:none;fill-rule:nonzero;stroke:#954551;stroke-width:2px;"/><path d="M56.862,13.698c0.413,-0.513 0.437,-0.82 0.07,-0.92c-0.26,-0.08 -0.55,0.13 -0.64,0.45c-0.32,1.187 -0.13,1.344 0.57,0.47" style="fill:none;fill-rule:nonzero;stroke:#954551;stroke-width:2px;"/><path d="M31.132,16.698c0.607,0.054 1.007,-0.186 1.2,-0.72c0.09,-0.28 -0.04,-0.59 -0.32,-0.74c-1.507,-0.793 -3.01,-0.69 -4.51,0.31c-0.787,0.52 -0.71,0.814 0.23,0.88c1.14,0.08 2.273,0.17 3.4,0.27" style="fill:none;fill-rule:nonzero;stroke:#954551;stroke-width:2px;"/><path d="M8.432,17.778c-0.093,1.027 0.017,2.024 0.33,2.99c0.1,0.3 0.08,0.63 -0.06,0.92c-0.687,1.46 -0.847,2.977 -0.48,4.55" style="fill:none;fill-rule:nonzero;stroke:#954551;stroke-width:2px;"/><path d="M8.222,26.238l0.25,18" style="fill:none;fill-rule:nonzero;stroke:#bc989c;stroke-width:2px;"/><path d="M8.472,44.238c-0.167,0.774 -0.137,1.517 0.09,2.23c0.1,0.3 0.34,0.54 0.64,0.65c1.8,0.667 2.453,-0.06 1.96,-2.18c-0.24,-1.053 -0.413,-2.12 -0.52,-3.2" style="fill:none;fill-rule:nonzero;stroke:#a76f6f;stroke-width:2px;"/><path d="M10.642,41.738l0.75,-16.5" style="fill:none;fill-rule:nonzero;stroke:#bc989c;stroke-width:2px;"/><path d="M11.392,25.238c-0.007,-3.473 -0.077,-5.89 -0.21,-7.25c-0.113,-1.12 -0.767,-1.786 -1.96,-2" style="fill:none;fill-rule:nonzero;stroke:#954551;stroke-width:2px;"/><path d="M9.222,15.988c-0.073,-0.533 -0.283,-0.78 -0.63,-0.74c-0.29,0.03 -0.54,0.29 -0.62,0.65c-0.14,0.667 0.013,1.294 0.46,1.88" style="fill:none;fill-rule:nonzero;stroke:#a76f6f;stroke-width:2px;"/><path d="M9.222,15.988c0.233,0.927 -0.03,1.524 -0.79,1.79" style="fill:none;fill-rule:nonzero;stroke:#c28285;stroke-width:2px;"/><path d="M11.392,25.238l-3.17,1" style="fill:none;fill-rule:nonzero;stroke:#d7abb3;stroke-width:2px;"/><path d="M10.642,41.738c-0.307,1.22 -1.03,2.054 -2.17,2.5" style="fill:none;fill-rule:nonzero;stroke:#e9d5d1;stroke-width:2px;"/><path d="M67.632,18.058c0.52,0.32 1.19,0.02 1.3,-0.58c0.38,-2.04 -0.077,-2.486 -1.37,-1.34c-0.833,0.74 -0.81,1.38 0.07,1.92" style="fill:none;fill-rule:nonzero;stroke:#b28d81;stroke-width:2px;"/><path d="M60.392,16.309c0,-0.261 -0.21,-0.471 -0.466,-0.474l-6.159,-0.054c-0.265,-0.003 -0.475,0.207 -0.475,0.466l-0,0.06c0,0.261 0.21,0.471 0.466,0.474l6.16,0.054c0.264,0.003 0.474,-0.207 0.474,-0.466l0,-0.06" style="fill:none;fill-rule:nonzero;stroke:#986167;stroke-width:2px;"/><path d="M32.682,18.698c-4.2,0.074 -7.637,-0.1 -10.31,-0.52c-2.973,-0.466 -5.62,-0.126 -7.94,1.02" style="fill:none;fill-rule:nonzero;stroke:#a76f6f;stroke-width:2px;"/><path d="M14.432,19.198c-1.233,0.58 -1.213,1.24 0.06,1.98c1.66,0.96 3.243,1.434 4.75,1.42c0.947,-0.006 1.45,-0.01 1.51,-0.01c5.267,0.28 10.537,0.43 15.81,0.45c7.653,0.02 11.9,0.007 12.74,-0.04c4.267,-0.22 8.477,-0.903 12.63,-2.05" style="fill:none;fill-rule:nonzero;stroke:#bc989c;stroke-width:2px;"/><path d="M61.932,20.948l3.46,0.56c0.28,0.05 0.54,-0.1 0.57,-0.33c0.193,-1.48 -0.637,-1.96 -2.49,-1.44" style="fill:none;fill-rule:nonzero;stroke:#8b515a;stroke-width:2px;"/><path d="M63.472,19.738c-0.593,-0.833 -1.33,-1.236 -2.21,-1.21c-1.393,0.034 -2.117,0.047 -2.17,0.04c-3.253,-0.493 -6.12,-0.623 -8.6,-0.39c-3.267,0.3 -5.87,0.39 -7.81,0.27" style="fill:none;fill-rule:nonzero;stroke:#bc989c;stroke-width:2px;"/><path d="M42.682,18.448c-3.347,-0.853 -6.68,-0.77 -10,0.25" style="fill:none;fill-rule:nonzero;stroke:#986167;stroke-width:2px;"/><path d="M42.682,18.448l-5.5,0.5" style="fill:none;fill-rule:nonzero;stroke:#dac7c9;stroke-width:2px;"/><path d="M37.182,18.948l-4.5,-0.25" style="fill:none;fill-rule:nonzero;stroke:#c59e9b;stroke-width:2px;"/><path d="M37.182,18.948c-8.507,-0.206 -14.173,-0.026 -17,0.54c-2.293,0.46 -4.21,0.364 -5.75,-0.29" style="fill:none;fill-rule:nonzero;stroke:#e9d5d1;stroke-width:2px;"/><path d="M63.472,19.738c-0.227,0.74 -0.74,1.144 -1.54,1.21" style="fill:none;fill-rule:nonzero;stroke:#cdb8bc;stroke-width:2px;"/><path d="M68.155,30.068c0.647,0.01 1.207,-2.45 1.247,-5.485c0.04,-3.035 -0.46,-5.505 -1.113,-5.514c-0.647,-0.011 -1.207,2.449 -1.247,5.485c-0.04,3.034 0.46,5.504 1.113,5.514" style="fill:none;fill-rule:nonzero;stroke:#b98a86;stroke-width:2px;"/><path d="M13.722,26.738c-0.447,0.907 -0.597,1.85 -0.45,2.83c0.05,0.33 0.31,0.57 0.6,0.54l1.27,-0.12" style="fill:none;fill-rule:nonzero;stroke:#8b515a;stroke-width:2px;"/><path d="M15.142,29.988l0.58,0.75" style="fill:none;fill-rule:nonzero;stroke:#bc989c;stroke-width:2px;"/><path d="M15.722,30.738c-0.433,0.574 -0.53,1.227 -0.29,1.96" style="fill:none;fill-rule:nonzero;stroke:#876165;stroke-width:2px;"/><path d="M15.432,32.698c-1.213,1.707 -0.963,2.984 0.75,3.83" style="fill:none;fill-rule:nonzero;stroke:#bc989c;stroke-width:2px;"/><path d="M16.182,36.528c-0.007,0.72 0.277,1.217 0.85,1.49c0.32,0.15 0.54,0.39 0.58,0.64l0.61,3.33" style="fill:none;fill-rule:nonzero;stroke:#8b515a;stroke-width:2px;"/><path d="M18.222,41.988c-0.893,0.547 -1.86,0.82 -2.9,0.82c-0.273,0 -0.48,0.044 -0.62,0.13c-0.267,0.167 -0.36,0.377 -0.28,0.63c0.08,0.25 0.37,0.45 0.75,0.5l8.51,1.21" style="fill:none;fill-rule:nonzero;stroke:#bc989c;stroke-width:2px;"/><path d="M23.682,45.278c0.947,2.314 0.51,3.04 -1.31,2.18c-0.313,-0.146 -0.623,-0.213 -0.93,-0.2l-8.01,0.22c-0.38,0.01 -0.7,0.13 -0.88,0.33c-0.307,0.34 -0.097,0.567 0.63,0.68c4.687,0.72 10.353,1.04 17,0.96" style="fill:none;fill-rule:nonzero;stroke:#8b515a;stroke-width:2px;"/><path d="M30.182,49.448c0.487,0.42 0.787,0.327 0.9,-0.28c0.293,-1.633 0.593,-1.503 0.9,0.39c0.08,0.48 0.45,0.85 0.93,0.93c2.547,0.4 4.873,-0.1 6.98,-1.5" style="fill:none;fill-rule:nonzero;stroke:#986167;stroke-width:2px;"/><path d="M39.892,48.988c0.147,-0.353 0.397,-0.52 0.75,-0.5" style="fill:none;fill-rule:nonzero;stroke:#b98a86;stroke-width:2px;"/><path d="M40.642,48.488c0.833,2.634 1.357,2.71 1.57,0.23c0.03,-0.29 0.22,-0.51 0.44,-0.5c0.233,0.02 0.327,0.204 0.28,0.55c-0.06,0.38 0.22,0.73 0.59,0.74l3.1,0.08c0.36,0.007 0.677,0.067 0.95,0.18c0.927,0.4 1.277,0.074 1.05,-0.98c-0.06,-0.29 0.03,-0.6 0.25,-0.81c0.547,-0.533 0.897,-1.18 1.05,-1.94c0.06,-0.3 0.29,-0.52 0.56,-0.54l0.95,-0.05" style="fill:none;fill-rule:nonzero;stroke:#986167;stroke-width:2px;"/><path d="M51.432,45.448c1.18,0.034 2.363,0.04 3.55,0.02c1.08,-0.013 2.233,0.137 3.46,0.45c2.033,0.527 3.78,0.717 5.24,0.57c1.4,-0.14 1.863,-0.653 1.39,-1.54c-0.207,-0.393 -0.603,-0.71 -1.19,-0.95c-1.767,-0.726 -3.517,-1.493 -5.25,-2.3c-0.173,-0.08 -0.493,-0.136 -0.96,-0.17l-3.78,-0.29" style="fill:none;fill-rule:nonzero;stroke:#bc989c;stroke-width:2px;"/><path d="M53.892,41.238l0,-1.25" style="fill:none;fill-rule:nonzero;stroke:#8b515a;stroke-width:2px;"/><path d="M53.892,39.988c3.1,-0.973 6.26,-1.34 9.48,-1.1c0.33,0.02 0.64,-0.11 0.82,-0.35c0.867,-1.093 1.273,-2.343 1.22,-3.75c-0.02,-0.28 -0.25,-0.51 -0.54,-0.53l-7.94,-0.56" style="fill:none;fill-rule:nonzero;stroke:#bc989c;stroke-width:2px;"/><path d="M56.932,33.698c-1.227,-1.133 -1.477,-2.523 -0.75,-4.17" style="fill:none;fill-rule:nonzero;stroke:#874c51;stroke-width:2px;"/><path d="M56.182,29.528l8.44,-1.23c0.8,-0.12 1.39,-0.59 1.25,-1c-0.313,-0.906 -0.94,-1.403 -1.88,-1.49c-0.773,-0.08 -1.187,-0.123 -1.24,-0.13c-2.713,-0.52 -5.467,-0.7 -8.26,-0.54c-3.7,0.22 -7.387,0.087 -11.06,-0.4c-4.72,-0.62 -11.327,-0.52 -19.82,0.3c-0.953,0.094 -2.24,0.09 -3.86,-0.01c-1.293,-0.08 -2.587,-0.04 -3.88,0.12c-0.08,0.007 -0.543,0.014 -1.39,0.02c-0.913,0.007 -1.167,0.53 -0.76,1.57" style="fill:none;fill-rule:nonzero;stroke:#bc989c;stroke-width:2px;"/><path d="M56.182,29.528c-1.84,-0.44 -3.697,-0.573 -5.57,-0.4c-0.88,0.087 -1.417,0.457 -1.61,1.11c-0.067,0.247 -0.157,0.26 -0.27,0.04c-0.547,-1.046 -1.397,-1.38 -2.55,-1" style="fill:none;fill-rule:nonzero;stroke:#c9b2b3;stroke-width:2px;"/><path d="M46.182,29.278c-1.347,-0.54 -2.043,-0.323 -2.09,0.65c-0.01,0.28 -0.22,0.49 -0.47,0.5l-27.9,0.31" style="fill:none;fill-rule:nonzero;stroke:#c9c7c7;stroke-width:2px;"/><path d="M15.142,29.988c2.373,-2.193 1.9,-3.276 -1.42,-3.25" style="fill:none;fill-rule:nonzero;stroke:#cdb8bc;stroke-width:2px;"/><path d="M56.932,33.698l-4.04,-0.21" style="fill:none;fill-rule:nonzero;stroke:#c9b2b3;stroke-width:2px;"/><path d="M52.892,33.488c-0.62,-0.82 -1.357,-0.973 -2.21,-0.46" style="fill:none;fill-rule:nonzero;stroke:#b38986;stroke-width:2px;"/><path d="M50.682,33.028c-0.76,-0.846 -1.677,-1.04 -2.75,-0.58" style="fill:none;fill-rule:nonzero;stroke:#c9b2b3;stroke-width:2px;"/><path d="M46.182,29.278c0.147,0.587 0.023,0.924 -0.37,1.01c-0.347,0.074 -0.547,0.124 -0.6,0.15c-1.027,0.5 -1.02,0.897 0.02,1.19c0.187,0.054 0.49,0.07 0.91,0.05c0.72,-0.04 1.317,0.217 1.79,0.77" style="fill:none;fill-rule:nonzero;stroke:#947b7c;stroke-width:2px;"/><path d="M47.932,32.448c-1.047,0.16 -3.86,0.277 -8.44,0.35c-8.02,0.134 -16.04,0.1 -24.06,-0.1" style="fill:none;fill-rule:nonzero;stroke:#c9c7c7;stroke-width:2px;"/><path d="M50.682,33.028c0.507,1.66 1.243,1.814 2.21,0.46" style="fill:none;fill-rule:nonzero;stroke:#e9d5d1;stroke-width:2px;"/><path d="M53.892,39.988l-8.71,-0.71" style="fill:none;fill-rule:nonzero;stroke:#cdb8bc;stroke-width:2px;"/><path d="M45.182,39.278l-3.75,-0.5" style="fill:none;fill-rule:nonzero;stroke:#e9d5d1;stroke-width:2px;"/><path d="M41.432,38.778l-3.25,-0.25" style="fill:none;fill-rule:nonzero;stroke:#cdb8bc;stroke-width:2px;"/><path d="M38.182,38.528c-3.16,0.38 -6.213,-0.003 -9.16,-1.15c-0.26,-0.11 -0.53,-0.05 -0.6,0.12c-0.047,0.12 -0.043,0.27 0.01,0.45" style="fill:none;fill-rule:nonzero;stroke:#e9d5d1;stroke-width:2px;"/><path d="M28.432,37.948c-0.273,0.554 -0.71,0.67 -1.31,0.35c-0.96,-0.506 -2.357,-0.916 -4.19,-1.23c-0.26,-0.04 -0.55,0.1 -0.75,0.36c-0.3,0.394 -0.587,0.34 -0.86,-0.16c-0.17,-0.33 -0.41,-0.56 -0.67,-0.65c-1.453,-0.5 -2.943,-0.53 -4.47,-0.09" style="fill:none;fill-rule:nonzero;stroke:#cdb8bc;stroke-width:2px;"/><path d="M28.432,37.948c0.487,0.914 1.1,1.294 1.84,1.14c0.36,-0.07 0.69,-0.06 0.93,0.04c2.02,0.84 4.097,0.877 6.23,0.11c0.633,0.14 0.883,-0.096 0.75,-0.71" style="fill:none;fill-rule:nonzero;stroke:#b78f8e;stroke-width:2px;"/><path d="M41.432,38.778c1.093,0.94 2.343,1.107 3.75,0.5" style="fill:none;fill-rule:nonzero;stroke:#b78f8e;stroke-width:2px;"/><path d="M53.892,41.238l-8.96,-0.04" style="fill:none;fill-rule:nonzero;stroke:#cdb8bc;stroke-width:2px;"/><path d="M44.932,41.198c-4.007,-0.493 -8.007,-0.493 -12,0" style="fill:none;fill-rule:nonzero;stroke:#b78f8e;stroke-width:2px;"/><path d="M32.932,41.198c-2.8,0.194 -5.607,0.294 -8.42,0.3c-0.547,0 -1.57,0.174 -3.07,0.52c-1.033,0.24 -2.107,0.23 -3.22,-0.03" style="fill:none;fill-rule:nonzero;stroke:#cdb8bc;stroke-width:2px;"/><path d="M51.432,45.448l-13.69,-0.38c-0.22,-0.01 -0.52,0.12 -0.85,0.34c-0.287,0.2 -0.547,0.144 -0.78,-0.17c-0.18,-0.24 -0.46,-0.34 -0.7,-0.26c-1.36,0.5 -2.77,0.684 -4.23,0.55" style="fill:none;fill-rule:nonzero;stroke:#dac7c9;stroke-width:2px;"/><path d="M31.182,45.528c-1.087,-0.253 -2.17,-0.253 -3.25,0" style="fill:none;fill-rule:nonzero;stroke:#bc989c;stroke-width:2px;"/><path d="M27.932,45.528l-4.25,-0.25" style="fill:none;fill-rule:nonzero;stroke:#cdb8bc;stroke-width:2px;"/><path d="M44.932,41.198l-12,0" style="fill:none;fill-rule:nonzero;stroke:#e9d5d1;stroke-width:2px;"/><path d="M27.932,45.528c0.033,1.674 0.88,2.577 2.54,2.71" style="fill:none;fill-rule:nonzero;stroke:#8b515a;stroke-width:2px;"/><path d="M40.642,48.488c0.647,-0.193 1.04,-0.506 1.18,-0.94c0.08,-0.27 -0.09,-0.58 -0.41,-0.7c-1.24,-0.48 -2.413,-0.346 -3.52,0.4c-0.28,0.19 -0.46,0.48 -0.5,0.8c-0.127,1.134 0.707,1.447 2.5,0.94" style="fill:none;fill-rule:nonzero;stroke:#d7b9b3;stroke-width:2px;"/><path d="M30.182,49.448c-0.087,-0.46 0.01,-0.863 0.29,-1.21" style="fill:none;fill-rule:nonzero;stroke:#a98186;stroke-width:2px;"/><path d="M30.472,48.238c0.72,-0.72 0.957,-1.623 0.71,-2.71" style="fill:none;fill-rule:nonzero;stroke:#986167;stroke-width:2px;"/><path d="M68.203,43.758c0.699,0 1.259,-2.69 1.249,-6.012c-0.01,-3.318 -0.57,-6.008 -1.27,-6.008c-0.7,0 -1.26,2.69 -1.25,6.013c0.01,3.317 0.57,6.007 1.271,6.007" style="fill:none;fill-rule:nonzero;stroke:#bc989c;stroke-width:2px;"/><path d="M67.662,45.218c-0.42,0.05 -0.69,0.48 -0.54,0.88c1.32,3.48 1.95,3.63 1.89,0.45c-0.01,-0.26 0.12,-0.56 0.35,-0.83c0.433,-0.506 -0.133,-0.673 -1.7,-0.5" style="fill:none;fill-rule:nonzero;stroke:#a76f6f;stroke-width:2px;"/><path d="M54.762,47.368c-0.433,-0.133 -0.877,-0.193 -1.33,-0.18c-0.3,0.014 -0.623,-0.02 -0.97,-0.1c-0.807,-0.186 -1.28,0.137 -1.42,0.97c-0.047,0.26 -0.183,0.537 -0.41,0.83c-0.447,0.567 0.567,0.76 3.04,0.58c0.59,-0.05 1.16,-0.26 1.63,-0.63c0.813,-0.62 0.633,-1.11 -0.54,-1.47" style="fill:none;fill-rule:nonzero;stroke:#b28d81;stroke-width:2px;"/><path d="M62.998,49.415c0.294,-0.507 0.044,-1.197 -0.549,-1.536c-0.597,-0.341 -1.317,-0.201 -1.603,0.303c-0.294,0.506 -0.044,1.196 0.549,1.536c0.597,0.34 1.317,0.2 1.603,-0.303" style="fill:none;fill-rule:nonzero;stroke:#954551;stroke-width:2px;"/><path d="M8.025,54.018c0.427,0.06 0.837,-0.3 0.908,-0.804c0.079,-0.506 -0.211,-0.976 -0.633,-1.035c-0.428,-0.061 -0.838,0.299 -0.909,0.804c-0.079,0.505 0.211,0.975 0.634,1.035" style="fill:none;fill-rule:nonzero;stroke:#b05f69;stroke-width:2px;"/><path d="M13.322,53.578c2.08,0.934 4.01,1.367 5.79,1.3c2.813,-0.093 4.24,-0.14 4.28,-0.14c5.047,0.367 10.073,0.157 15.08,-0.63c0.233,-0.04 0.71,-0.04 1.43,0c0.793,0.047 1.207,-0.306 1.24,-1.06c0.01,-0.27 -0.23,-0.5 -0.52,-0.49l-27.23,0.68c-0.533,0.014 -0.557,0.127 -0.07,0.34" style="fill:none;fill-rule:nonzero;stroke:#a76f6f;stroke-width:2px;"/><path d="M43.532,53.932c0.27,-0.374 0.15,-0.914 -0.271,-1.224c-0.419,-0.31 -0.979,-0.25 -1.248,0.117c-0.271,0.373 -0.151,0.913 0.27,1.224c0.419,0.309 0.979,0.249 1.249,-0.117" style="fill:none;fill-rule:nonzero;stroke:#954551;stroke-width:2px;"/><path d="M73.892,38.738l-1.17,0c-0.06,-7.546 -0.15,-15.096 -0.27,-22.65c-0.007,-0.32 -0.147,-1.023 -0.42,-2.11c-0.2,-0.766 -0.14,-1.53 0.18,-2.29c0.12,-0.29 0.03,-0.6 -0.21,-0.68c-0.173,-0.06 -0.35,-0.083 -0.53,-0.07c-0.28,0.02 -0.53,0.26 -0.62,0.59c-0.493,1.82 -0.633,3.974 -0.42,6.46c0.307,3.547 0.347,11.86 0.12,24.94c-0.013,0.754 0.28,1.287 0.88,1.6c-0.293,0.467 -0.463,0.96 -0.51,1.48c-0.073,0.82 -0.12,1.294 -0.14,1.42c-0.273,1.767 0.597,2.62 2.61,2.56c0.44,1.567 0.477,3.134 0.11,4.7c-0.07,0.3 -0.32,0.53 -0.62,0.58c-2.147,0.4 -4.297,0.377 -6.45,-0.07c-0.113,-2.053 -1.113,-2.86 -3,-2.42c-1.633,-0.286 -3.233,-0.28 -4.8,0.02c-1.28,0.24 -2.423,0.3 -3.43,0.18c-1.167,-0.146 -2.34,-0.226 -3.52,-0.24c-0.28,0 -0.52,0.22 -0.55,0.51l-0.2,2.2c-0.247,0.06 -0.497,0.06 -0.75,0c0.26,-1.92 -0.577,-2.656 -2.51,-2.21c-0.51,0.12 -1.04,0.1 -1.54,-0.06c-2.14,-0.68 -2.623,0.077 -1.45,2.27c-1.647,-0.273 -2.73,-0.26 -3.25,0.04c-0.813,0.474 -1.63,0.63 -2.45,0.47c-1.467,-0.28 -2.237,-0.423 -2.31,-0.43c-1.32,-0.02 -2.64,-0.06 -3.96,-0.12c-1.273,-0.06 -2.587,-0.026 -3.94,0.1c-5.74,0.54 -11.483,0.51 -17.23,-0.09c-0.64,-0.066 -1.33,-0.003 -2.07,0.19c-0.787,0.2 -1.49,0.304 -2.11,0.31c-1.233,0.014 -1.873,-0.593 -1.92,-1.82c-0.047,-1.32 0.05,-2.56 0.29,-3.72c0.24,-1.153 0.28,-2.133 0.12,-2.94c-0.133,-0.653 -0.277,-1.306 -0.43,-1.96c-0.147,-0.626 -0.187,-1.29 -0.12,-1.99c0.167,-1.706 0.09,-3.396 -0.23,-5.07c-0.62,-3.26 -0.933,-4.9 -0.94,-4.92c-0.08,-2.313 0.377,-4.55 1.37,-6.71c0.487,-1.066 0.687,-1.013 0.6,0.16c-0.427,5.52 -0.327,11.117 0.3,16.79c0.027,0.214 0.083,0.364 0.17,0.45c0.113,0.12 0.24,0.13 0.38,0.03c0.14,-0.09 0.23,-0.3 0.24,-0.55c0.24,-6.813 0.317,-13.623 0.23,-20.43c-0.033,-2.406 -0.523,-2.883 -1.47,-1.43c-0.207,0.307 -0.37,0.3 -0.49,-0.02c-0.273,-0.726 -0.283,-1.66 -0.03,-2.8c0.64,-2.893 0.803,-5.84 0.49,-8.84c-0.06,-0.56 0.32,-1.07 0.87,-1.18c2.16,-0.453 4.353,-0.616 6.58,-0.49c1.78,0.094 3.193,0.107 4.24,0.04c1.42,-0.093 2.84,-0.16 4.26,-0.2c0.28,-0.013 0.593,0.06 0.94,0.22c0.867,0.394 1.343,0.127 1.43,-0.8c0.06,-0.653 0.14,-1.096 0.24,-1.33c0.86,-1.98 2.42,-2.673 4.68,-2.08c0.033,0.014 0.47,0.227 1.31,0.64c0.593,0.3 1.227,0.287 1.9,-0.04c1.07,-0.52 2.21,-0.35 2.5,0.37c0.74,1.86 1.4,1.937 1.98,0.23c0.1,-0.31 0.33,-0.54 0.61,-0.62c2.953,-0.866 6.19,-0.666 9.71,0.6c0.42,0.15 0.88,0.06 1.21,-0.24c1.387,-1.28 2.707,-1.423 3.96,-0.43c0.953,0.754 1.623,1.71 2.01,2.87c0.1,0.3 0.34,0.53 0.63,0.6c3.007,0.807 5.407,1.117 7.2,0.93c3.407,-0.36 7.057,-0.526 10.95,-0.5c0.32,0.01 0.57,0.27 0.56,0.59c-0.053,1.227 -0.107,2.43 -0.16,3.61c-0.053,0.947 0.027,2.137 0.24,3.57c0.267,1.794 0.283,3.587 0.05,5.38c-0.193,1.487 -0.16,2.877 0.1,4.17c0.84,4.194 0.83,8.42 -0.03,12.68Zm-42.43,-29.15c-0.313,1.28 -0.2,2.524 0.34,3.73c0.673,1.5 1.57,1.244 2.69,-0.77c0.967,-1.733 1.107,-3.323 0.42,-4.77c-1.327,-2.773 -2.477,-2.17 -3.45,1.81Zm16.41,-1.66c-0.44,1.64 -0.583,3.307 -0.43,5c0.02,0.21 0.25,0.38 0.54,0.38l2.15,0.02c0.87,0.01 1.57,-0.58 1.53,-1.28l-0.32,-5.63c-0.02,-0.29 -0.26,-0.54 -0.58,-0.57c-1.507,-0.18 -2.47,0.514 -2.89,2.08Zm-22.14,0.02c-0.073,0.527 -0.103,1.057 -0.09,1.59c0,0.107 -0.013,0.57 -0.04,1.39c-0.053,1.56 0.973,1.89 3.08,0.99c0.58,-0.25 0.96,-0.79 1,-1.41l0.23,-3.77c0.02,-0.31 -0.16,-0.59 -0.44,-0.69c-1.253,-0.453 -2.287,-0.283 -3.1,0.51c-0.347,0.34 -0.56,0.804 -0.64,1.39Zm18.77,-1.1c-1.28,-0.18 -2.54,-0.08 -3.78,0.3c-0.28,0.08 -0.47,0.35 -0.47,0.65l-0.1,5.77c-0.01,0.76 0.65,1.35 1.39,1.23c2.427,-0.38 3.677,-1.556 3.75,-3.53c0.02,-0.466 0.087,-1.103 0.2,-1.91c0.093,-0.68 0.003,-1.34 -0.27,-1.98c-0.12,-0.29 -0.4,-0.49 -0.72,-0.53Zm-30.28,3.1c-2.307,0.134 -2.31,0.594 -0.01,1.38c0.32,0.11 0.65,0.05 0.86,-0.16c0.353,-0.346 0.387,-0.663 0.1,-0.95c-0.2,-0.206 -0.517,-0.296 -0.95,-0.27Zm9.299,0.641c0.011,-0.421 -0.619,-0.791 -1.412,-0.82c-0.797,-0.031 -1.447,0.289 -1.466,0.719c-0.011,0.42 0.619,0.79 1.412,0.82c0.797,0.03 1.447,-0.29 1.466,-0.719Zm41.231,2.709l-6.08,-0.8c-0.31,-0.05 -0.62,0.14 -0.72,0.44c-0.187,0.534 0.057,0.884 0.73,1.05c0.933,0.234 2.52,0.25 4.76,0.05c0.31,-0.03 0.64,0.04 0.93,0.2c1.46,0.794 1.847,0.66 1.16,-0.4c-0.2,-0.3 -0.48,-0.5 -0.78,-0.54Zm-11.09,0.37c0.147,1.227 0.567,1.307 1.26,0.24c0.18,-0.28 0.2,-0.62 0.05,-0.87c-0.267,-0.44 -0.597,-0.513 -0.99,-0.22c-0.24,0.18 -0.36,0.5 -0.32,0.85Zm3.2,0.03c0.413,-0.513 0.437,-0.82 0.07,-0.92c-0.26,-0.08 -0.55,0.13 -0.64,0.45c-0.32,1.187 -0.13,1.344 0.57,0.47Zm-25.73,3c0.607,0.054 1.007,-0.186 1.2,-0.72c0.09,-0.28 -0.04,-0.59 -0.32,-0.74c-1.507,-0.793 -3.01,-0.69 -4.51,0.31c-0.787,0.52 -0.71,0.814 0.23,0.88c1.14,0.08 2.273,0.17 3.4,0.27Zm-22.7,1.08c-0.093,1.027 0.017,2.024 0.33,2.99c0.1,0.3 0.08,0.63 -0.06,0.92c-0.687,1.46 -0.847,2.977 -0.48,4.55l0.25,18c-0.167,0.774 -0.137,1.517 0.09,2.23c0.1,0.3 0.34,0.54 0.64,0.65c1.8,0.667 2.453,-0.06 1.96,-2.18c-0.24,-1.053 -0.413,-2.12 -0.52,-3.2l0.75,-16.5c-0.007,-3.473 -0.077,-5.89 -0.21,-7.25c-0.113,-1.12 -0.767,-1.786 -1.96,-2c-0.073,-0.533 -0.283,-0.78 -0.63,-0.74c-0.29,0.03 -0.54,0.29 -0.62,0.65c-0.14,0.667 0.013,1.294 0.46,1.88Zm59.2,0.28c0.52,0.32 1.19,0.02 1.3,-0.58c0.38,-2.04 -0.077,-2.486 -1.37,-1.34c-0.833,0.74 -0.81,1.38 0.07,1.92Zm-7.24,-1.749c0,-0.261 -0.21,-0.471 -0.466,-0.474l-6.159,-0.054c-0.265,-0.003 -0.475,0.207 -0.475,0.466l-0,0.06c0,0.261 0.21,0.471 0.466,0.474l6.16,0.054c0.264,0.003 0.474,-0.207 0.474,-0.466l0,-0.06Zm-27.71,2.389c-4.2,0.074 -7.637,-0.1 -10.31,-0.52c-2.973,-0.466 -5.62,-0.126 -7.94,1.02c-1.233,0.58 -1.213,1.24 0.06,1.98c1.66,0.96 3.243,1.434 4.75,1.42c0.947,-0.006 1.45,-0.01 1.51,-0.01c5.267,0.28 10.537,0.43 15.81,0.45c7.653,0.02 11.9,0.007 12.74,-0.04c4.267,-0.22 8.477,-0.903 12.63,-2.05l3.46,0.56c0.28,0.05 0.54,-0.1 0.57,-0.33c0.193,-1.48 -0.637,-1.96 -2.49,-1.44c-0.593,-0.833 -1.33,-1.236 -2.21,-1.21c-1.393,0.034 -2.117,0.047 -2.17,0.04c-3.253,-0.493 -6.12,-0.623 -8.6,-0.39c-3.267,0.3 -5.87,0.39 -7.81,0.27c-3.347,-0.853 -6.68,-0.77 -10,0.25Zm35.473,11.37c0.647,0.01 1.207,-2.45 1.247,-5.485c0.04,-3.035 -0.46,-5.505 -1.113,-5.514c-0.647,-0.011 -1.207,2.449 -1.247,5.485c-0.04,3.034 0.46,5.504 1.113,5.514Zm-54.433,-3.33c-0.447,0.907 -0.597,1.85 -0.45,2.83c0.05,0.33 0.31,0.57 0.6,0.54l1.27,-0.12l0.58,0.75c-0.433,0.574 -0.53,1.227 -0.29,1.96c-1.213,1.707 -0.963,2.984 0.75,3.83c-0.007,0.72 0.277,1.217 0.85,1.49c0.32,0.15 0.54,0.39 0.58,0.64l0.61,3.33c-0.893,0.547 -1.86,0.82 -2.9,0.82c-0.273,0 -0.48,0.044 -0.62,0.13c-0.267,0.167 -0.36,0.377 -0.28,0.63c0.08,0.25 0.37,0.45 0.75,0.5l8.51,1.21c0.947,2.314 0.51,3.04 -1.31,2.18c-0.313,-0.146 -0.623,-0.213 -0.93,-0.2l-8.01,0.22c-0.38,0.01 -0.7,0.13 -0.88,0.33c-0.307,0.34 -0.097,0.567 0.63,0.68c4.687,0.72 10.353,1.04 17,0.96c0.487,0.42 0.787,0.327 0.9,-0.28c0.293,-1.633 0.593,-1.503 0.9,0.39c0.08,0.48 0.45,0.85 0.93,0.93c2.547,0.4 4.873,-0.1 6.98,-1.5c0.147,-0.353 0.397,-0.52 0.75,-0.5c0.833,2.634 1.357,2.71 1.57,0.23c0.03,-0.29 0.22,-0.51 0.44,-0.5c0.233,0.02 0.327,0.204 0.28,0.55c-0.06,0.38 0.22,0.73 0.59,0.74l3.1,0.08c0.36,0.007 0.677,0.067 0.95,0.18c0.927,0.4 1.277,0.074 1.05,-0.98c-0.06,-0.29 0.03,-0.6 0.25,-0.81c0.547,-0.533 0.897,-1.18 1.05,-1.94c0.06,-0.3 0.29,-0.52 0.56,-0.54l0.95,-0.05c1.18,0.034 2.363,0.04 3.55,0.02c1.08,-0.013 2.233,0.137 3.46,0.45c2.033,0.527 3.78,0.717 5.24,0.57c1.4,-0.14 1.863,-0.653 1.39,-1.54c-0.207,-0.393 -0.603,-0.71 -1.19,-0.95c-1.767,-0.726 -3.517,-1.493 -5.25,-2.3c-0.173,-0.08 -0.493,-0.136 -0.96,-0.17l-3.78,-0.29l0,-1.25c3.1,-0.973 6.26,-1.34 9.48,-1.1c0.33,0.02 0.64,-0.11 0.82,-0.35c0.867,-1.093 1.273,-2.343 1.22,-3.75c-0.02,-0.28 -0.25,-0.51 -0.54,-0.53l-7.94,-0.56c-1.227,-1.133 -1.477,-2.523 -0.75,-4.17l8.44,-1.23c0.8,-0.12 1.39,-0.59 1.25,-1c-0.313,-0.906 -0.94,-1.403 -1.88,-1.49c-0.773,-0.08 -1.187,-0.123 -1.24,-0.13c-2.713,-0.52 -5.467,-0.7 -8.26,-0.54c-3.7,0.22 -7.387,0.087 -11.06,-0.4c-4.72,-0.62 -11.327,-0.52 -19.82,0.3c-0.953,0.094 -2.24,0.09 -3.86,-0.01c-1.293,-0.08 -2.587,-0.04 -3.88,0.12c-0.08,0.007 -0.543,0.014 -1.39,0.02c-0.913,0.007 -1.167,0.53 -0.76,1.57Zm54.481,17.02c0.699,0 1.259,-2.69 1.249,-6.012c-0.01,-3.318 -0.57,-6.008 -1.27,-6.008c-0.7,0 -1.26,2.69 -1.25,6.013c0.01,3.317 0.57,6.007 1.271,6.007Zm-0.541,1.46c-0.42,0.05 -0.69,0.48 -0.54,0.88c1.32,3.48 1.95,3.63 1.89,0.45c-0.01,-0.26 0.12,-0.56 0.35,-0.83c0.433,-0.506 -0.133,-0.673 -1.7,-0.5Zm-12.9,2.15c-0.433,-0.133 -0.877,-0.193 -1.33,-0.18c-0.3,0.014 -0.623,-0.02 -0.97,-0.1c-0.807,-0.186 -1.28,0.137 -1.42,0.97c-0.047,0.26 -0.183,0.537 -0.41,0.83c-0.447,0.567 0.567,0.76 3.04,0.58c0.59,-0.05 1.16,-0.26 1.63,-0.63c0.813,-0.62 0.633,-1.11 -0.54,-1.47Zm8.236,2.047c0.294,-0.507 0.044,-1.197 -0.549,-1.536c-0.597,-0.341 -1.317,-0.201 -1.603,0.303c-0.294,0.506 -0.044,1.196 0.549,1.536c0.597,0.34 1.317,0.2 1.603,-0.303Zm-54.973,4.603c0.427,0.06 0.837,-0.3 0.908,-0.804c0.079,-0.506 -0.211,-0.976 -0.633,-1.035c-0.428,-0.061 -0.838,0.299 -0.909,0.804c-0.079,0.505 0.211,0.975 0.634,1.035Zm5.297,-0.44c2.08,0.934 4.01,1.367 5.79,1.3c2.813,-0.093 4.24,-0.14 4.28,-0.14c5.047,0.367 10.073,0.157 15.08,-0.63c0.233,-0.04 0.71,-0.04 1.43,0c0.793,0.047 1.207,-0.306 1.24,-1.06c0.01,-0.27 -0.23,-0.5 -0.52,-0.49l-27.23,0.68c-0.533,0.014 -0.557,0.127 -0.07,0.34Zm30.21,0.354c0.27,-0.374 0.15,-0.914 -0.271,-1.224c-0.419,-0.31 -0.979,-0.25 -1.248,0.117c-0.271,0.373 -0.151,0.913 0.27,1.224c0.419,0.309 0.979,0.249 1.249,-0.117Z" style="fill:#7a313a;fill-rule:nonzero;"/><path d="M31.462,9.588c0.973,-3.98 2.123,-4.583 3.45,-1.81c0.687,1.447 0.547,3.037 -0.42,4.77c-1.12,2.014 -2.017,2.27 -2.69,0.77c-0.54,-1.206 -0.653,-2.45 -0.34,-3.73Z" style="fill:#fefefe;fill-rule:nonzero;"/><path d="M47.872,7.928c0.42,-1.566 1.383,-2.26 2.89,-2.08c0.32,0.03 0.56,0.28 0.58,0.57l0.32,5.63c0.04,0.7 -0.66,1.29 -1.53,1.28l-2.15,-0.02c-0.29,0 -0.52,-0.17 -0.54,-0.38c-0.153,-1.693 -0.01,-3.36 0.43,-5Z" style="fill:#fefefe;fill-rule:nonzero;"/><path d="M26.372,6.558c0.813,-0.793 1.847,-0.963 3.1,-0.51c0.28,0.1 0.46,0.38 0.44,0.69l-0.23,3.77c-0.04,0.62 -0.42,1.16 -1,1.41c-2.107,0.9 -3.133,0.57 -3.08,-0.99c0.027,-0.82 0.04,-1.283 0.04,-1.39c-0.013,-0.533 0.017,-1.063 0.09,-1.59c0.08,-0.586 0.293,-1.05 0.64,-1.39Z" style="fill:#fefefe;fill-rule:nonzero;"/><path d="M45.222,7.378c0.273,0.64 0.363,1.3 0.27,1.98c-0.113,0.807 -0.18,1.444 -0.2,1.91c-0.073,1.974 -1.323,3.15 -3.75,3.53c-0.74,0.12 -1.4,-0.47 -1.39,-1.23l0.1,-5.77c0,-0.3 0.19,-0.57 0.47,-0.65c1.24,-0.38 2.5,-0.48 3.78,-0.3c0.32,0.04 0.6,0.24 0.72,0.53Z" style="fill:#fefefe;fill-rule:nonzero;"/><path d="M15.172,10.218c0.287,0.287 0.253,0.604 -0.1,0.95c-0.21,0.21 -0.54,0.27 -0.86,0.16c-2.3,-0.786 -2.297,-1.246 0.01,-1.38c0.433,-0.026 0.75,0.064 0.95,0.27Z" style="fill:#9b7179;fill-rule:nonzero;"/><path d="M22.109,9.769c0.794,0.028 1.427,0.395 1.412,0.82c-0.015,0.424 -0.672,0.747 -1.466,0.719c-0.794,-0.028 -1.427,-0.395 -1.412,-0.82c0.015,-0.425 0.672,-0.747 1.466,-0.719Z" style="fill:#d3aca3;"/><path d="M72.722,38.738c-0.56,2.16 -0.74,3.577 -0.54,4.25c0.287,0.98 0.037,1.494 -0.75,1.54c-0.6,-0.313 -0.893,-0.846 -0.88,-1.6c0.227,-13.08 0.187,-21.393 -0.12,-24.94c-0.213,-2.486 -0.073,-4.64 0.42,-6.46c0.09,-0.33 0.34,-0.57 0.62,-0.59c0.18,-0.013 0.357,0.01 0.53,0.07c0.24,0.08 0.33,0.39 0.21,0.68c-0.32,0.76 -0.38,1.524 -0.18,2.29c0.273,1.087 0.413,1.79 0.42,2.11c0.12,7.554 0.21,15.104 0.27,22.65Z" style="fill:#f7e2d2;fill-rule:nonzero;"/><path d="M65.532,13.838c0.687,1.06 0.3,1.194 -1.16,0.4c-0.29,-0.16 -0.62,-0.23 -0.93,-0.2c-2.24,0.2 -3.827,0.184 -4.76,-0.05c-0.673,-0.166 -0.917,-0.516 -0.73,-1.05c0.1,-0.3 0.41,-0.49 0.72,-0.44l6.08,0.8c0.3,0.04 0.58,0.24 0.78,0.54Z" style="fill:#e58c97;fill-rule:nonzero;"/><path d="M53.982,12.818c0.393,-0.293 0.723,-0.22 0.99,0.22c0.15,0.25 0.13,0.59 -0.05,0.87c-0.693,1.067 -1.113,0.987 -1.26,-0.24c-0.04,-0.35 0.08,-0.67 0.32,-0.85Z" style="fill:#b05867;fill-rule:nonzero;"/><path d="M56.862,13.698c-0.7,0.874 -0.89,0.717 -0.57,-0.47c0.09,-0.32 0.38,-0.53 0.64,-0.45c0.367,0.1 0.343,0.407 -0.07,0.92Z" style="fill:#b05867;fill-rule:nonzero;"/><path d="M31.132,16.698c-1.127,-0.1 -2.26,-0.19 -3.4,-0.27c-0.94,-0.066 -1.017,-0.36 -0.23,-0.88c1.5,-1 3.003,-1.103 4.51,-0.31c0.28,0.15 0.41,0.46 0.32,0.74c-0.193,0.534 -0.593,0.774 -1.2,0.72Z" style="fill:#b05867;fill-rule:nonzero;"/><path d="M9.222,15.988c0.233,0.927 -0.03,1.524 -0.79,1.79c-0.447,-0.586 -0.6,-1.213 -0.46,-1.88c0.08,-0.36 0.33,-0.62 0.62,-0.65c0.347,-0.04 0.557,0.207 0.63,0.74Z" style="fill:#d3aca3;fill-rule:nonzero;"/><path d="M67.632,18.058c-0.88,-0.54 -0.903,-1.18 -0.07,-1.92c1.293,-1.146 1.75,-0.7 1.37,1.34c-0.11,0.6 -0.78,0.9 -1.3,0.58Z" style="fill:#eae8c7;fill-rule:nonzero;"/><path d="M60.392,16.309c0.002,-0.259 -0.206,-0.472 -0.466,-0.474l-6.159,-0.054c-0.26,-0.002 -0.472,0.207 -0.475,0.466l-0,0.06c-0.002,0.26 0.206,0.472 0.466,0.474l6.16,0.054c0.259,0.002 0.471,-0.206 0.474,-0.466l0,-0.06Z" style="fill:#b69093;"/><path d="M9.222,15.988c1.193,0.214 1.847,0.88 1.96,2c0.133,1.36 0.203,3.777 0.21,7.25l-3.17,1c-0.367,-1.573 -0.207,-3.09 0.48,-4.55c0.14,-0.29 0.16,-0.62 0.06,-0.92c-0.313,-0.966 -0.423,-1.963 -0.33,-2.99c0.76,-0.266 1.023,-0.863 0.79,-1.79Z" style="fill:#b05867;fill-rule:nonzero;"/><path d="M42.682,18.448l-5.5,0.5l-4.5,-0.25c3.32,-1.02 6.653,-1.103 10,-0.25Z" style="fill:#b69093;fill-rule:nonzero;"/><path d="M32.682,18.698l4.5,0.25c-8.507,-0.206 -14.173,-0.026 -17,0.54c-2.293,0.46 -4.21,0.364 -5.75,-0.29c2.32,-1.146 4.967,-1.486 7.94,-1.02c2.673,0.42 6.11,0.594 10.31,0.52Z" style="fill:#d3aca3;fill-rule:nonzero;"/><path d="M63.472,19.738c-0.227,0.74 -0.74,1.144 -1.54,1.21c-4.153,1.147 -8.363,1.83 -12.63,2.05c-0.84,0.047 -5.087,0.06 -12.74,0.04c-5.273,-0.02 -10.543,-0.17 -15.81,-0.45c-0.06,0 -0.563,0.004 -1.51,0.01c-1.507,0.014 -3.09,-0.46 -4.75,-1.42c-1.273,-0.74 -1.293,-1.4 -0.06,-1.98c1.54,0.654 3.457,0.75 5.75,0.29c2.827,-0.566 8.493,-0.746 17,-0.54l5.5,-0.5c1.94,0.12 4.543,0.03 7.81,-0.27c2.48,-0.233 5.347,-0.103 8.6,0.39c0.053,0.007 0.777,-0.006 2.17,-0.04c0.88,-0.026 1.617,0.377 2.21,1.21Z" style="fill:#fefefe;fill-rule:nonzero;"/><path d="M69.402,24.583c-0.037,3.035 -0.596,5.493 -1.247,5.485c-0.651,-0.008 -1.15,-2.479 -1.113,-5.514c0.037,-3.035 0.596,-5.493 1.247,-5.485c0.651,0.008 1.15,2.478 1.113,5.514Z" style="fill:#f7e2d2;"/><path d="M63.472,19.738c1.853,-0.52 2.683,-0.04 2.49,1.44c-0.03,0.23 -0.29,0.38 -0.57,0.33l-3.46,-0.56c0.8,-0.066 1.313,-0.47 1.54,-1.21Z" style="fill:#9b7179;fill-rule:nonzero;"/><path d="M56.182,29.528c-1.84,-0.44 -3.697,-0.573 -5.57,-0.4c-0.88,0.087 -1.417,0.457 -1.61,1.11c-0.067,0.247 -0.157,0.26 -0.27,0.04c-0.547,-1.046 -1.397,-1.38 -2.55,-1c-1.347,-0.54 -2.043,-0.323 -2.09,0.65c-0.01,0.28 -0.22,0.49 -0.47,0.5l-27.9,0.31l-0.58,-0.75c2.373,-2.193 1.9,-3.276 -1.42,-3.25c-0.407,-1.04 -0.153,-1.563 0.76,-1.57c0.847,-0.006 1.31,-0.013 1.39,-0.02c1.293,-0.16 2.587,-0.2 3.88,-0.12c1.62,0.1 2.907,0.104 3.86,0.01c8.493,-0.82 15.1,-0.92 19.82,-0.3c3.673,0.487 7.36,0.62 11.06,0.4c2.793,-0.16 5.547,0.02 8.26,0.54c0.053,0.007 0.467,0.05 1.24,0.13c0.94,0.087 1.567,0.584 1.88,1.49c0.14,0.41 -0.45,0.88 -1.25,1l-8.44,1.23Z" style="fill:#fefefe;fill-rule:nonzero;"/><path d="M11.392,25.238l-0.75,16.5c-0.307,1.22 -1.03,2.054 -2.17,2.5l-0.25,-18l3.17,-1Z" style="fill:#fefefe;fill-rule:nonzero;"/><path d="M13.722,26.738c3.32,-0.026 3.793,1.057 1.42,3.25l-1.27,0.12c-0.29,0.03 -0.55,-0.21 -0.6,-0.54c-0.147,-0.98 0.003,-1.923 0.45,-2.83Z" style="fill:#9b7179;fill-rule:nonzero;"/><path d="M46.182,29.278c0.147,0.587 0.023,0.924 -0.37,1.01c-0.347,0.074 -0.547,0.124 -0.6,0.15c-1.027,0.5 -1.02,0.897 0.02,1.19c0.187,0.054 0.49,0.07 0.91,0.05c0.72,-0.04 1.317,0.217 1.79,0.77c-1.047,0.16 -3.86,0.277 -8.44,0.35c-8.02,0.134 -16.04,0.1 -24.06,-0.1c-0.24,-0.733 -0.143,-1.386 0.29,-1.96l27.9,-0.31c0.25,-0.01 0.46,-0.22 0.47,-0.5c0.047,-0.973 0.743,-1.19 2.09,-0.65Z" style="fill:#949090;fill-rule:nonzero;"/><path d="M56.182,29.528c-0.727,1.647 -0.477,3.037 0.75,4.17l-4.04,-0.21c-0.62,-0.82 -1.357,-0.973 -2.21,-0.46c-0.76,-0.846 -1.677,-1.04 -2.75,-0.58c-0.473,-0.553 -1.07,-0.81 -1.79,-0.77c-0.42,0.02 -0.723,0.004 -0.91,-0.05c-1.04,-0.293 -1.047,-0.69 -0.02,-1.19c0.053,-0.026 0.253,-0.076 0.6,-0.15c0.393,-0.086 0.517,-0.423 0.37,-1.01c1.153,-0.38 2.003,-0.046 2.55,1c0.113,0.22 0.203,0.207 0.27,-0.04c0.193,-0.653 0.73,-1.023 1.61,-1.11c1.873,-0.173 3.73,-0.04 5.57,0.4Z" style="fill:#936668;fill-rule:nonzero;"/><path d="M69.452,37.746c0.006,3.317 -0.554,6.011 -1.249,6.012c-0.696,0.002 -1.265,-2.69 -1.271,-6.007c-0.006,-3.317 0.554,-6.011 1.25,-6.013c0.695,-0.001 1.264,2.691 1.27,6.008Z" style="fill:#fefefe;"/><path d="M50.682,33.028c0.507,1.66 1.243,1.814 2.21,0.46l4.04,0.21l7.94,0.56c0.29,0.02 0.52,0.25 0.54,0.53c0.053,1.407 -0.353,2.657 -1.22,3.75c-0.18,0.24 -0.49,0.37 -0.82,0.35c-3.22,-0.24 -6.38,0.127 -9.48,1.1l-8.71,-0.71l-3.75,-0.5l-3.25,-0.25c-3.16,0.38 -6.213,-0.003 -9.16,-1.15c-0.26,-0.11 -0.53,-0.05 -0.6,0.12c-0.047,0.12 -0.043,0.27 0.01,0.45c-0.273,0.554 -0.71,0.67 -1.31,0.35c-0.96,-0.506 -2.357,-0.916 -4.19,-1.23c-0.26,-0.04 -0.55,0.1 -0.75,0.36c-0.3,0.394 -0.587,0.34 -0.86,-0.16c-0.17,-0.33 -0.41,-0.56 -0.67,-0.65c-1.453,-0.5 -2.943,-0.53 -4.47,-0.09c-1.713,-0.846 -1.963,-2.123 -0.75,-3.83c8.02,0.2 16.04,0.234 24.06,0.1c4.58,-0.073 7.393,-0.19 8.44,-0.35c1.073,-0.46 1.99,-0.266 2.75,0.58Z" style="fill:#fefefe;fill-rule:nonzero;"/><path d="M52.892,33.488c-0.967,1.354 -1.703,1.2 -2.21,-0.46c0.853,-0.513 1.59,-0.36 2.21,0.46Z" style="fill:#d3aca3;fill-rule:nonzero;"/><path d="M28.432,37.948c0.487,0.914 1.1,1.294 1.84,1.14c0.36,-0.07 0.69,-0.06 0.93,0.04c2.02,0.84 4.097,0.877 6.23,0.11c0.633,0.14 0.883,-0.096 0.75,-0.71l3.25,0.25c1.093,0.94 2.343,1.107 3.75,0.5l8.71,0.71l0,1.25l-8.96,-0.04c-4.007,-0.493 -8.007,-0.493 -12,0c-2.8,0.194 -5.607,0.294 -8.42,0.3c-0.547,0 -1.57,0.174 -3.07,0.52c-1.033,0.24 -2.107,0.23 -3.22,-0.03l-0.61,-3.33c-0.04,-0.25 -0.26,-0.49 -0.58,-0.64c-0.573,-0.273 -0.857,-0.77 -0.85,-1.49c1.527,-0.44 3.017,-0.41 4.47,0.09c0.26,0.09 0.5,0.32 0.67,0.65c0.273,0.5 0.56,0.554 0.86,0.16c0.2,-0.26 0.49,-0.4 0.75,-0.36c1.833,0.314 3.23,0.724 4.19,1.23c0.6,0.32 1.037,0.204 1.31,-0.35Z" style="fill:#9b7179;fill-rule:nonzero;"/><path d="M38.182,38.528c0.133,0.614 -0.117,0.85 -0.75,0.71c-2.133,0.767 -4.21,0.73 -6.23,-0.11c-0.24,-0.1 -0.57,-0.11 -0.93,-0.04c-0.74,0.154 -1.353,-0.226 -1.84,-1.14c-0.053,-0.18 -0.057,-0.33 -0.01,-0.45c0.07,-0.17 0.34,-0.23 0.6,-0.12c2.947,1.147 6,1.53 9.16,1.15Z" style="fill:#d3aca3;fill-rule:nonzero;"/><path d="M41.432,38.778l3.75,0.5c-1.407,0.607 -2.657,0.44 -3.75,-0.5Z" style="fill:#d3aca3;fill-rule:nonzero;"/><path d="M72.722,38.738l1.17,0c0.18,3.767 0.013,7.517 -0.5,11.25c-2.013,0.06 -2.883,-0.793 -2.61,-2.56c0.02,-0.126 0.067,-0.6 0.14,-1.42c0.047,-0.52 0.217,-1.013 0.51,-1.48c0.787,-0.046 1.037,-0.56 0.75,-1.54c-0.2,-0.673 -0.02,-2.09 0.54,-4.25Z" style="fill:#936668;fill-rule:nonzero;"/><path d="M44.932,41.198l-12,0c3.993,-0.493 7.993,-0.493 12,0Z" style="fill:#d3aca3;fill-rule:nonzero;"/><path d="M32.932,41.198l12,0l8.96,0.04l3.78,0.29c0.467,0.034 0.787,0.09 0.96,0.17c1.733,0.807 3.483,1.574 5.25,2.3c0.587,0.24 0.983,0.557 1.19,0.95c0.473,0.887 0.01,1.4 -1.39,1.54c-1.46,0.147 -3.207,-0.043 -5.24,-0.57c-1.227,-0.313 -2.38,-0.463 -3.46,-0.45c-1.187,0.02 -2.37,0.014 -3.55,-0.02l-13.69,-0.38c-0.22,-0.01 -0.52,0.12 -0.85,0.34c-0.287,0.2 -0.547,0.144 -0.78,-0.17c-0.18,-0.24 -0.46,-0.34 -0.7,-0.26c-1.36,0.5 -2.77,0.684 -4.23,0.55c-1.087,-0.253 -2.17,-0.253 -3.25,0l-4.25,-0.25l-8.51,-1.21c-0.38,-0.05 -0.67,-0.25 -0.75,-0.5c-0.08,-0.253 0.013,-0.463 0.28,-0.63c0.14,-0.086 0.347,-0.13 0.62,-0.13c1.04,0 2.007,-0.273 2.9,-0.82c1.113,0.26 2.187,0.27 3.22,0.03c1.5,-0.346 2.523,-0.52 3.07,-0.52c2.813,-0.006 5.62,-0.106 8.42,-0.3Z" style="fill:#fefefe;fill-rule:nonzero;"/><path d="M10.642,41.738c0.107,1.08 0.28,2.147 0.52,3.2c0.493,2.12 -0.16,2.847 -1.96,2.18c-0.3,-0.11 -0.54,-0.35 -0.64,-0.65c-0.227,-0.713 -0.257,-1.456 -0.09,-2.23c1.14,-0.446 1.863,-1.28 2.17,-2.5Z" style="fill:#d3aca3;fill-rule:nonzero;"/><path d="M51.432,45.448l-0.95,0.05c-0.27,0.02 -0.5,0.24 -0.56,0.54c-0.153,0.76 -0.503,1.407 -1.05,1.94c-0.22,0.21 -0.31,0.52 -0.25,0.81c0.227,1.054 -0.123,1.38 -1.05,0.98c-0.273,-0.113 -0.59,-0.173 -0.95,-0.18l-3.1,-0.08c-0.37,-0.01 -0.65,-0.36 -0.59,-0.74c0.047,-0.346 -0.047,-0.53 -0.28,-0.55c-0.22,-0.01 -0.41,0.21 -0.44,0.5c-0.213,2.48 -0.737,2.404 -1.57,-0.23c0.647,-0.193 1.04,-0.506 1.18,-0.94c0.08,-0.27 -0.09,-0.58 -0.41,-0.7c-1.24,-0.48 -2.413,-0.346 -3.52,0.4c-0.28,0.19 -0.46,0.48 -0.5,0.8c-0.127,1.134 0.707,1.447 2.5,0.94c-2.107,1.4 -4.433,1.9 -6.98,1.5c-0.48,-0.08 -0.85,-0.45 -0.93,-0.93c-0.307,-1.893 -0.607,-2.023 -0.9,-0.39c-0.113,0.607 -0.413,0.7 -0.9,0.28c-0.087,-0.46 0.01,-0.863 0.29,-1.21c0.72,-0.72 0.957,-1.623 0.71,-2.71c1.46,0.134 2.87,-0.05 4.23,-0.55c0.24,-0.08 0.52,0.02 0.7,0.26c0.233,0.314 0.493,0.37 0.78,0.17c0.33,-0.22 0.63,-0.35 0.85,-0.34l13.69,0.38Z" style="fill:#b69093;fill-rule:nonzero;"/><path d="M67.662,45.218c1.567,-0.173 2.133,-0.006 1.7,0.5c-0.23,0.27 -0.36,0.57 -0.35,0.83c0.06,3.18 -0.57,3.03 -1.89,-0.45c-0.15,-0.4 0.12,-0.83 0.54,-0.88Z" style="fill:#d3aca3;fill-rule:nonzero;"/><path d="M23.682,45.278l4.25,0.25c0.033,1.674 0.88,2.577 2.54,2.71c-0.28,0.347 -0.377,0.75 -0.29,1.21c-6.647,0.08 -12.313,-0.24 -17,-0.96c-0.727,-0.113 -0.937,-0.34 -0.63,-0.68c0.18,-0.2 0.5,-0.32 0.88,-0.33l8.01,-0.22c0.307,-0.013 0.617,0.054 0.93,0.2c1.82,0.86 2.257,0.134 1.31,-2.18Z" style="fill:#9b7179;fill-rule:nonzero;"/><path d="M31.182,45.528c0.247,1.087 0.01,1.99 -0.71,2.71c-1.66,-0.133 -2.507,-1.036 -2.54,-2.71c1.08,-0.253 2.163,-0.253 3.25,0Z" style="fill:#7a313a;fill-rule:nonzero;"/><path d="M40.642,48.488c-0.353,-0.02 -0.603,0.147 -0.75,0.5c-1.793,0.507 -2.627,0.194 -2.5,-0.94c0.04,-0.32 0.22,-0.61 0.5,-0.8c1.107,-0.746 2.28,-0.88 3.52,-0.4c0.32,0.12 0.49,0.43 0.41,0.7c-0.14,0.434 -0.533,0.747 -1.18,0.94Z" style="fill:#f7e2d2;fill-rule:nonzero;"/><path d="M54.762,47.368c1.173,0.36 1.353,0.85 0.54,1.47c-0.47,0.37 -1.04,0.58 -1.63,0.63c-2.473,0.18 -3.487,-0.013 -3.04,-0.58c0.227,-0.293 0.363,-0.57 0.41,-0.83c0.14,-0.833 0.613,-1.156 1.42,-0.97c0.347,0.08 0.67,0.114 0.97,0.1c0.453,-0.013 0.897,0.047 1.33,0.18Z" style="fill:#eae8c7;fill-rule:nonzero;"/><path d="M62.449,47.878c0.594,0.341 0.84,1.029 0.549,1.537c-0.291,0.507 -1.009,0.643 -1.603,0.303c-0.594,-0.34 -0.84,-1.028 -0.549,-1.536c0.291,-0.508 1.009,-0.644 1.603,-0.304Z" style="fill:#b05867;"/><path d="M8.933,53.214c-0.075,0.507 -0.483,0.868 -0.908,0.804c-0.426,-0.064 -0.71,-0.527 -0.634,-1.035c0.075,-0.508 0.483,-0.868 0.909,-0.804c0.425,0.063 0.709,0.527 0.633,1.035Z" style="fill:#e58c97;"/><path d="M13.322,53.578c-0.487,-0.213 -0.463,-0.326 0.07,-0.34l27.23,-0.68c0.29,-0.01 0.53,0.22 0.52,0.49c-0.033,0.754 -0.447,1.107 -1.24,1.06c-0.72,-0.04 -1.197,-0.04 -1.43,0c-5.007,0.787 -10.033,0.997 -15.08,0.63c-0.04,0 -1.467,0.047 -4.28,0.14c-1.78,0.067 -3.71,-0.366 -5.79,-1.3Z" style="fill:#d3aca3;fill-rule:nonzero;"/><path d="M43.261,52.708c0.419,0.305 0.54,0.854 0.271,1.224c-0.27,0.37 -0.83,0.423 -1.249,0.117c-0.419,-0.306 -0.54,-0.854 -0.27,-1.225c0.269,-0.37 0.829,-0.422 1.248,-0.116Z" style="fill:#b05867;"/><path d="M63.432,52.778c0.027,0.687 -0.773,1.234 -2.4,1.64c-0.827,0.207 -1.667,0.3 -2.52,0.28c-2.327,-0.053 -4.353,0.197 -6.08,0.75c-0.5,0.28 -1,0.28 -1.5,0l0.2,-2.2c0.03,-0.29 0.27,-0.51 0.55,-0.51c1.18,0.014 2.353,0.094 3.52,0.24c1.007,0.12 2.15,0.06 3.43,-0.18c1.567,-0.3 3.167,-0.306 4.8,-0.02Z" style="fill:#d3aca3;fill-rule:nonzero;"/><path d="M66.432,55.198c-4.66,0.774 -9.327,0.857 -14,0.25c1.727,-0.553 3.753,-0.803 6.08,-0.75c0.853,0.02 1.693,-0.073 2.52,-0.28c1.627,-0.406 2.427,-0.953 2.4,-1.64c1.887,-0.44 2.887,0.367 3,2.42Z" style="fill:#936668;fill-rule:nonzero;"/><path d="M50.182,55.448l-5.5,0c-1.173,-2.193 -0.69,-2.95 1.45,-2.27c0.5,0.16 1.03,0.18 1.54,0.06c1.933,-0.446 2.77,0.29 2.51,2.21Z" style="fill:#e58c97;fill-rule:nonzero;"/></svg>