<?xml version="1.0" encoding="UTF-8" standalone="no"?><!DOCTYPE svg PUBLIC "-//W3C//DTD SVG 1.1//EN" "http://www.w3.org/Graphics/SVG/1.1/DTD/svg11.dtd"><svg width="100%" height="100%" viewBox="0 0 74 79" version="1.1" xmlns="http://www.w3.org/2000/svg" xmlns:xlink="http://www.w3.org/1999/xlink" xml:space="preserve" xmlns:serif="http://www.serif.com/" style="fill-rule:evenodd;clip-rule:evenodd;"><path d="M19.466,12.307c-6.267,7 -9.844,11.27 -10.73,12.81c-4.48,7.806 -5.697,15.726 -3.65,23.76c1.24,4.846 3.526,9.326 6.86,13.44c3.44,4.233 7.536,7.376 12.29,9.43c7.326,3.16 15.21,3.223 23.65,0.19c7.026,-2.527 12.396,-6.764 16.11,-12.71c2.386,-3.814 4.066,-7.734 5.04,-11.76c1.06,-4.36 1.003,-8.727 -0.17,-13.1c-0.86,-3.2 -2.267,-6.454 -4.22,-9.76c-0.774,-1.314 -2.424,-3.387 -4.95,-6.22c-2.134,-2.387 -3.987,-4.997 -5.56,-7.83" style="fill:none;fill-rule:nonzero;stroke:#81a373;stroke-width:2px;"/><path d="M54.136,10.557c-4.027,-4.44 -8.987,-6.49 -14.88,-6.15c-0.7,0.04 -1.744,-0.03 -3.13,-0.21c-0.987,-0.127 -2.054,-0.09 -3.2,0.11c-5.64,0.986 -10.127,3.653 -13.46,8" style="fill:none;fill-rule:nonzero;stroke:#7d9d70;stroke-width:2px;"/><path d="M37.926,55.057l-0,3.01c-0,0.33 0.09,0.65 0.26,0.91c1.046,1.633 1.62,1.406 1.72,-0.68c0.013,-0.214 0.063,-0.704 0.15,-1.47c0.18,-1.567 -0.53,-2.157 -2.13,-1.77" style="fill:none;fill-rule:nonzero;stroke:#8eb095;stroke-width:2px;"/><path d="M37.926,55.057c1.48,-1.747 3.23,-2.064 5.25,-0.95c0.28,0.15 0.45,0.45 0.43,0.76c-0.08,1.32 -0.654,1.483 -1.72,0.49c-0.914,-0.854 -1.25,-0.717 -1.01,0.41c0.14,0.66 0.173,1.343 0.1,2.05c-0.2,1.786 0.296,2.123 1.49,1.01c0.3,-0.28 0.593,-0.577 0.88,-0.89c0.19,-0.21 0.5,-0.29 0.8,-0.22c0.693,0.173 1.256,-0.01 1.69,-0.55c0.23,-0.28 0.28,-0.64 0.13,-0.91l-1.58,-2.79c-0.17,-0.3 -0.03,-0.67 0.28,-0.73c1.213,-0.28 2,-0.95 2.36,-2.01c0.473,-1.394 0.716,-2.1 0.73,-2.12c0.886,-1.367 2.15,-1.72 3.79,-1.06c0.31,0.12 0.63,0.12 0.9,-0.01c2.42,-1.174 4.253,-2.934 5.5,-5.28c0.16,-0.29 0.21,-0.62 0.16,-0.94c-0.307,-1.794 -1.01,-3.414 -2.11,-4.86c-0.23,-0.3 -0.55,-0.44 -0.82,-0.37c-0.327,0.08 -0.494,0.32 -0.5,0.72c-0.007,0.366 0.063,1.45 0.21,3.25c0.03,0.34 -0.06,0.66 -0.24,0.91c-1.92,2.66 -4.64,3.503 -8.16,2.53c-1.354,-0.374 -2.504,-0.804 -3.45,-1.29c-0.327,-0.167 -1.43,-0.647 -3.31,-1.44c-2,-0.847 -2.637,-2.544 -1.91,-5.09c0.073,-0.26 0.203,-0.467 0.39,-0.62c0.7,-0.574 0.856,-0.197 0.47,1.13c-0.514,1.766 -0.03,2.836 1.45,3.21c0.29,0.08 0.62,0.01 0.91,-0.19c1.28,-0.874 2.616,-1.637 4.01,-2.29c1.386,-0.647 2.26,-1.317 2.62,-2.01c0.52,-1.014 0.606,-2.214 0.26,-3.6c-0.2,-0.814 -0.09,-1.144 0.33,-0.99c0.19,0.07 0.35,0.36 0.42,0.74l0.64,3.46c0.05,0.29 0.3,0.53 0.65,0.62c2.213,0.6 4.156,0.186 5.83,-1.24c0.22,-0.18 0.27,-0.51 0.12,-0.76c-1.494,-2.467 -2.094,-5.164 -1.8,-8.09c0.04,-0.39 0.21,-0.7 0.44,-0.82c0.306,-0.16 0.423,0.2 0.35,1.08c-0.207,2.3 0.233,4.436 1.32,6.41c0.4,0.726 0.736,0.696 1.01,-0.09c1.76,-5.08 1.603,-10.044 -0.47,-14.89c-2.587,-6.06 -6.837,-9.614 -12.75,-10.66c-2.854,-0.507 -5.7,-0.75 -8.54,-0.73c-3.094,0.026 -5.924,0.783 -8.49,2.27c-9.627,5.593 -12.874,13.89 -9.74,24.89c0.306,1.08 0.766,1.15 1.38,0.21c1.3,-1.954 1.516,-4.01 0.65,-6.17c-0.06,-0.16 -0.03,-0.34 0.08,-0.42c0.173,-0.12 0.29,-0.067 0.35,0.16c0.046,0.186 0.086,0.316 0.12,0.39c0.686,1.42 0.896,2.856 0.63,4.31c-0.1,0.546 -0.5,1.296 -1.2,2.25c-0.52,0.713 -0.917,1.496 -1.19,2.35c-0.1,0.31 -0.07,0.64 0.08,0.92c0.773,1.406 1.606,1.626 2.5,0.66c0.666,-0.714 1.15,-1.154 1.45,-1.32c0.6,-0.32 1.223,-0.57 1.87,-0.75c0.88,-0.247 1.83,-0.157 2.85,0.27c2,0.833 3.203,1.48 3.61,1.94c1.986,2.246 3.57,2.046 4.75,-0.6c0.12,-0.28 0.42,-0.43 0.67,-0.32c0.526,0.226 0.7,0.6 0.52,1.12c-0.21,0.58 -0.59,1.08 -1.09,1.44c-1.674,1.173 -3.127,2.16 -4.36,2.96c-1.747,1.133 -3.37,1.676 -4.87,1.63c-2.474,-0.08 -4.547,-1.084 -6.22,-3.01c-0.78,-0.9 -1.364,-1.357 -1.75,-1.37c-0.754,-0.034 -1.437,0.66 -2.05,2.08c-0.29,0.66 0.03,1.44 0.71,1.74l4.89,2.15c0.813,0.353 0.773,0.57 -0.12,0.65c-1.167,0.1 -2.317,-0.24 -3.45,-1.02c-0.14,-0.1 -0.284,-0.174 -0.43,-0.22c-1.207,-0.38 -1.21,-0.12 -0.01,0.78c2.213,1.66 4.586,2.49 7.12,2.49c0.78,-0 1.5,0.44 1.85,1.14c1.046,2.066 2.416,3.733 4.11,5c0.25,0.19 0.57,0.28 0.91,0.25c2.16,-0.187 4.266,0.1 6.32,0.86" style="fill:none;fill-rule:nonzero;stroke:#8eb095;stroke-width:2px;"/><path d="M24.336,36.707c-1.314,0.313 -2.347,1.096 -3.1,2.35c-0.16,0.26 -0.15,0.6 0.04,0.84c0.98,1.253 2.2,2.093 3.66,2.52c1.286,0.38 2.576,0.15 3.87,-0.69c2.88,-1.867 2.593,-3.414 -0.86,-4.64c-1.4,-0.5 -2.604,-0.627 -3.61,-0.38" style="fill:none;fill-rule:nonzero;stroke:#1d612b;stroke-width:2px;"/><path d="M23.606,56.817c-1.26,-2.14 -1.82,-4.144 -1.68,-6.01c0.093,-1.254 -0.3,-1.967 -1.18,-2.14c-0.29,-0.06 -0.59,0.11 -0.74,0.41c-1.767,3.72 -1.274,7.026 1.48,9.92c3.94,4.133 6.85,7.343 8.73,9.63c0.033,0.04 0.27,0.386 0.71,1.04c0.726,1.06 1.67,1.276 2.83,0.65c0.27,-0.15 0.59,-0.15 0.86,-0.01c1.84,1 3.623,1.16 5.35,0.48c1.02,-0.4 2.283,-1.47 3.79,-3.21c3.306,-3.82 5.716,-6.307 7.23,-7.46c3.753,-2.847 4.93,-6.524 3.53,-11.03c-0.09,-0.29 -0.38,-0.47 -0.66,-0.41c-0.947,0.18 -1.46,0.83 -1.54,1.95c-0.174,2.4 -0.9,4.61 -2.18,6.63c-0.9,1.433 -1.24,1.476 -1.02,0.13c0.033,-0.207 0.116,-0.404 0.25,-0.59c1.386,-1.914 2,-4.217 1.84,-6.91c-0.05,-0.87 -0.99,-1.39 -1.75,-0.98c-1.214,0.653 -1.964,1.89 -2.25,3.71c-0.52,3.24 -1.404,6.376 -2.65,9.41c-0.08,0.2 -0.284,0.45 -0.61,0.75l-2.23,2.01c-1.08,0.98 -2.2,1.283 -3.36,0.91c-0.894,-0.294 -1.73,-0.427 -2.51,-0.4c-1.294,0.046 -2.107,0.02 -2.44,-0.08c-3.1,-0.954 -4.584,-3.487 -4.45,-7.6c0.03,-0.95 -0.43,-1.84 -1.21,-2.38c-0.294,-0.194 -0.52,-0.61 -0.68,-1.25c-0.054,-0.214 -0.087,-0.674 -0.1,-1.38c-0.02,-1.487 -0.757,-2.654 -2.21,-3.5c-0.62,-0.36 -1.41,0.01 -1.53,0.72c-0.434,2.573 -0.28,4.89 0.46,6.95c0.106,0.3 0.08,0.313 -0.08,0.04" style="fill:none;fill-rule:nonzero;stroke:#8eb095;stroke-width:2px;"/><path d="M33.226,57.047c0.04,-0.847 -0.31,-1.557 -1.05,-2.13c-0.987,-0.774 -1.484,-0.534 -1.49,0.72c-0.02,2.833 0.483,3.91 1.51,3.23c0.646,-0.427 0.99,-1.034 1.03,-1.82" style="fill:none;fill-rule:nonzero;stroke:#8eb095;stroke-width:2px;"/><path d="M35.556,59.717c1.166,0.573 1.67,0.196 1.51,-1.13c-0.047,-0.414 -0.044,-0.927 0.01,-1.54c0.08,-0.947 -0.317,-1.574 -1.19,-1.88c-1.567,-0.554 -2.174,0.283 -1.82,2.51c0.14,0.88 0.69,1.64 1.49,2.04" style="fill:none;fill-rule:nonzero;stroke:#8eb095;stroke-width:2px;"/><path d="M42.366,60.917c-1.94,-0.24 -2.477,0.553 -1.61,2.38c0.14,0.29 0.45,0.44 0.73,0.35c0.366,-0.12 0.686,-0.33 0.96,-0.63c0.21,-0.23 0.49,-0.39 0.79,-0.44c0.92,-0.167 1.34,-0.757 1.26,-1.77c-0.02,-0.34 -0.2,-0.64 -0.47,-0.78c-0.494,-0.26 -0.84,-0.097 -1.04,0.49c-0.09,0.26 -0.35,0.43 -0.62,0.4" style="fill:none;fill-rule:nonzero;stroke:#81a373;stroke-width:2px;"/><path d="M34.226,62.337c0.153,-0.827 0.33,-0.83 0.53,-0.01c0.486,2.04 1.076,2.353 1.77,0.94c0.846,-1.714 0.35,-2.444 -1.49,-2.19c-0.43,0.06 -0.87,-0.05 -1.24,-0.29c-1.207,-0.827 -1.9,-0.747 -2.08,0.24c-0.074,0.42 -0,0.926 0.22,1.52c0.993,2.693 1.756,2.623 2.29,-0.21" style="fill:none;fill-rule:nonzero;stroke:#8eb095;stroke-width:2px;"/><path d="M38.717,64.682c0.649,0.085 1.269,-0.645 1.399,-1.635c0.13,-0.99 -0.29,-1.85 -0.941,-1.936c-0.649,-0.084 -1.269,0.646 -1.4,1.636c-0.129,0.99 0.291,1.85 0.942,1.935" style="fill:none;fill-rule:nonzero;stroke:#8eb095;stroke-width:2px;"/><path d="M33.474,43.018c0.332,0.209 0.892,-0.091 1.237,-0.66c0.345,-0.571 0.365,-1.201 0.027,-1.403c-0.332,-0.208 -0.892,0.092 -1.238,0.661c-0.344,0.571 -0.364,1.201 -0.026,1.402" style="fill:none;fill-rule:nonzero;stroke:#8eb095;stroke-width:2px;"/><path d="M40.688,43.487c0.248,-0.16 0.198,-0.69 -0.119,-1.174c-0.313,-0.486 -0.773,-0.746 -1.025,-0.587c-0.248,0.161 -0.198,0.691 0.119,1.175c0.313,0.486 0.773,0.746 1.025,0.586" style="fill:none;fill-rule:nonzero;stroke:#8eb095;stroke-width:2px;"/><path d="M54.496,43.347c-1.267,1.68 -1.087,1.93 0.54,0.75c0.26,-0.19 0.44,-0.47 0.48,-0.78c0.16,-1.094 -0.18,-1.084 -1.02,0.03" style="fill:none;fill-rule:nonzero;stroke:#8eb095;stroke-width:2px;"/><path d="M36.186,43.337c-3.64,4.64 -2.957,6.986 2.05,7.04c0.32,-0 0.6,-0.17 0.73,-0.44c1.126,-2.334 0.436,-4.557 -2.07,-6.67c-0.21,-0.18 -0.54,-0.15 -0.71,0.07" style="fill:none;fill-rule:nonzero;stroke:#8eb095;stroke-width:2px;"/><path d="M54.136,10.557c1.573,2.833 3.426,5.443 5.56,7.83c2.526,2.833 4.176,4.906 4.95,6.22c1.953,3.306 3.36,6.56 4.22,9.76c1.173,4.373 1.23,8.74 0.17,13.1c-0.974,4.026 -2.654,7.946 -5.04,11.76c-3.714,5.946 -9.084,10.183 -16.11,12.71c-8.44,3.033 -16.324,2.97 -23.65,-0.19c-4.754,-2.054 -8.85,-5.197 -12.29,-9.43c-3.334,-4.114 -5.62,-8.594 -6.86,-13.44c-2.047,-8.034 -0.83,-15.954 3.65,-23.76c0.886,-1.54 4.463,-5.81 10.73,-12.81c3.333,-4.347 7.82,-7.014 13.46,-8c1.146,-0.2 2.213,-0.237 3.2,-0.11c1.386,0.18 2.43,0.25 3.13,0.21c5.893,-0.34 10.853,1.71 14.88,6.15Zm-16.21,44.5l-0,3.01c-0,0.33 0.09,0.65 0.26,0.91c1.046,1.633 1.62,1.406 1.72,-0.68c0.013,-0.214 0.063,-0.704 0.15,-1.47c0.18,-1.567 -0.53,-2.157 -2.13,-1.77c1.48,-1.747 3.23,-2.064 5.25,-0.95c0.28,0.15 0.45,0.45 0.43,0.76c-0.08,1.32 -0.654,1.483 -1.72,0.49c-0.914,-0.854 -1.25,-0.717 -1.01,0.41c0.14,0.66 0.173,1.343 0.1,2.05c-0.2,1.786 0.296,2.123 1.49,1.01c0.3,-0.28 0.593,-0.577 0.88,-0.89c0.19,-0.21 0.5,-0.29 0.8,-0.22c0.693,0.173 1.256,-0.01 1.69,-0.55c0.23,-0.28 0.28,-0.64 0.13,-0.91l-1.58,-2.79c-0.17,-0.3 -0.03,-0.67 0.28,-0.73c1.213,-0.28 2,-0.95 2.36,-2.01c0.473,-1.394 0.716,-2.1 0.73,-2.12c0.886,-1.367 2.15,-1.72 3.79,-1.06c0.31,0.12 0.63,0.12 0.9,-0.01c2.42,-1.174 4.253,-2.934 5.5,-5.28c0.16,-0.29 0.21,-0.62 0.16,-0.94c-0.307,-1.794 -1.01,-3.414 -2.11,-4.86c-0.23,-0.3 -0.55,-0.44 -0.82,-0.37c-0.327,0.08 -0.494,0.32 -0.5,0.72c-0.007,0.366 0.063,1.45 0.21,3.25c0.03,0.34 -0.06,0.66 -0.24,0.91c-1.92,2.66 -4.64,3.503 -8.16,2.53c-1.354,-0.374 -2.504,-0.804 -3.45,-1.29c-0.327,-0.167 -1.43,-0.647 -3.31,-1.44c-2,-0.847 -2.637,-2.544 -1.91,-5.09c0.073,-0.26 0.203,-0.467 0.39,-0.62c0.7,-0.574 0.856,-0.197 0.47,1.13c-0.514,1.766 -0.03,2.836 1.45,3.21c0.29,0.08 0.62,0.01 0.91,-0.19c1.28,-0.874 2.616,-1.637 4.01,-2.29c1.386,-0.647 2.26,-1.317 2.62,-2.01c0.52,-1.014 0.606,-2.214 0.26,-3.6c-0.2,-0.814 -0.09,-1.144 0.33,-0.99c0.19,0.07 0.35,0.36 0.42,0.74l0.64,3.46c0.05,0.29 0.3,0.53 0.65,0.62c2.213,0.6 4.156,0.186 5.83,-1.24c0.22,-0.18 0.27,-0.51 0.12,-0.76c-1.494,-2.467 -2.094,-5.164 -1.8,-8.09c0.04,-0.39 0.21,-0.7 0.44,-0.82c0.306,-0.16 0.423,0.2 0.35,1.08c-0.207,2.3 0.233,4.436 1.32,6.41c0.4,0.726 0.736,0.696 1.01,-0.09c1.76,-5.08 1.603,-10.044 -0.47,-14.89c-2.587,-6.06 -6.837,-9.614 -12.75,-10.66c-2.854,-0.507 -5.7,-0.75 -8.54,-0.73c-3.094,0.026 -5.924,0.783 -8.49,2.27c-9.627,5.593 -12.874,13.89 -9.74,24.89c0.306,1.08 0.766,1.15 1.38,0.21c1.3,-1.954 1.516,-4.01 0.65,-6.17c-0.06,-0.16 -0.03,-0.34 0.08,-0.42c0.173,-0.12 0.29,-0.067 0.35,0.16c0.046,0.186 0.086,0.316 0.12,0.39c0.686,1.42 0.896,2.856 0.63,4.31c-0.1,0.546 -0.5,1.296 -1.2,2.25c-0.52,0.713 -0.917,1.496 -1.19,2.35c-0.1,0.31 -0.07,0.64 0.08,0.92c0.773,1.406 1.606,1.626 2.5,0.66c0.666,-0.714 1.15,-1.154 1.45,-1.32c0.6,-0.32 1.223,-0.57 1.87,-0.75c0.88,-0.247 1.83,-0.157 2.85,0.27c2,0.833 3.203,1.48 3.61,1.94c1.986,2.246 3.57,2.046 4.75,-0.6c0.12,-0.28 0.42,-0.43 0.67,-0.32c0.526,0.226 0.7,0.6 0.52,1.12c-0.21,0.58 -0.59,1.08 -1.09,1.44c-1.674,1.173 -3.127,2.16 -4.36,2.96c-1.747,1.133 -3.37,1.676 -4.87,1.63c-2.474,-0.08 -4.547,-1.084 -6.22,-3.01c-0.78,-0.9 -1.364,-1.357 -1.75,-1.37c-0.754,-0.034 -1.437,0.66 -2.05,2.08c-0.29,0.66 0.03,1.44 0.71,1.74l4.89,2.15c0.813,0.353 0.773,0.57 -0.12,0.65c-1.167,0.1 -2.317,-0.24 -3.45,-1.02c-0.14,-0.1 -0.284,-0.174 -0.43,-0.22c-1.207,-0.38 -1.21,-0.12 -0.01,0.78c2.213,1.66 4.586,2.49 7.12,2.49c0.78,-0 1.5,0.44 1.85,1.14c1.046,2.066 2.416,3.733 4.11,5c0.25,0.19 0.57,0.28 0.91,0.25c2.16,-0.187 4.266,0.1 6.32,0.86Zm-13.59,-18.35c-1.314,0.313 -2.347,1.096 -3.1,2.35c-0.16,0.26 -0.15,0.6 0.04,0.84c0.98,1.253 2.2,2.093 3.66,2.52c1.286,0.38 2.576,0.15 3.87,-0.69c2.88,-1.867 2.593,-3.414 -0.86,-4.64c-1.4,-0.5 -2.604,-0.627 -3.61,-0.38Zm-0.73,20.11c-1.26,-2.14 -1.82,-4.144 -1.68,-6.01c0.093,-1.254 -0.3,-1.967 -1.18,-2.14c-0.29,-0.06 -0.59,0.11 -0.74,0.41c-1.767,3.72 -1.274,7.026 1.48,9.92c3.94,4.133 6.85,7.343 8.73,9.63c0.033,0.04 0.27,0.386 0.71,1.04c0.726,1.06 1.67,1.276 2.83,0.65c0.27,-0.15 0.59,-0.15 0.86,-0.01c1.84,1 3.623,1.16 5.35,0.48c1.02,-0.4 2.283,-1.47 3.79,-3.21c3.306,-3.82 5.716,-6.307 7.23,-7.46c3.753,-2.847 4.93,-6.524 3.53,-11.03c-0.09,-0.29 -0.38,-0.47 -0.66,-0.41c-0.947,0.18 -1.46,0.83 -1.54,1.95c-0.174,2.4 -0.9,4.61 -2.18,6.63c-0.9,1.433 -1.24,1.476 -1.02,0.13c0.033,-0.207 0.116,-0.404 0.25,-0.59c1.386,-1.914 2,-4.217 1.84,-6.91c-0.05,-0.87 -0.99,-1.39 -1.75,-0.98c-1.214,0.653 -1.964,1.89 -2.25,3.71c-0.52,3.24 -1.404,6.376 -2.65,9.41c-0.08,0.2 -0.284,0.45 -0.61,0.75l-2.23,2.01c-1.08,0.98 -2.2,1.283 -3.36,0.91c-0.894,-0.294 -1.73,-0.427 -2.51,-0.4c-1.294,0.046 -2.107,0.02 -2.44,-0.08c-3.1,-0.954 -4.584,-3.487 -4.45,-7.6c0.03,-0.95 -0.43,-1.84 -1.21,-2.38c-0.294,-0.194 -0.52,-0.61 -0.68,-1.25c-0.054,-0.214 -0.087,-0.674 -0.1,-1.38c-0.02,-1.487 -0.757,-2.654 -2.21,-3.5c-0.62,-0.36 -1.41,0.01 -1.53,0.72c-0.434,2.573 -0.28,4.89 0.46,6.95c0.106,0.3 0.08,0.313 -0.08,0.04Zm9.62,0.23c0.04,-0.847 -0.31,-1.557 -1.05,-2.13c-0.987,-0.774 -1.484,-0.534 -1.49,0.72c-0.02,2.833 0.483,3.91 1.51,3.23c0.646,-0.427 0.99,-1.034 1.03,-1.82Zm2.33,2.67c1.166,0.573 1.67,0.196 1.51,-1.13c-0.047,-0.414 -0.044,-0.927 0.01,-1.54c0.08,-0.947 -0.317,-1.574 -1.19,-1.88c-1.567,-0.554 -2.174,0.283 -1.82,2.51c0.14,0.88 0.69,1.64 1.49,2.04Zm6.81,1.2c-1.94,-0.24 -2.477,0.553 -1.61,2.38c0.14,0.29 0.45,0.44 0.73,0.35c0.366,-0.12 0.686,-0.33 0.96,-0.63c0.21,-0.23 0.49,-0.39 0.79,-0.44c0.92,-0.167 1.34,-0.757 1.26,-1.77c-0.02,-0.34 -0.2,-0.64 -0.47,-0.78c-0.494,-0.26 -0.84,-0.097 -1.04,0.49c-0.09,0.26 -0.35,0.43 -0.62,0.4Zm-8.14,1.42c0.153,-0.827 0.33,-0.83 0.53,-0.01c0.486,2.04 1.076,2.353 1.77,0.94c0.846,-1.714 0.35,-2.444 -1.49,-2.19c-0.43,0.06 -0.87,-0.05 -1.24,-0.29c-1.207,-0.827 -1.9,-0.747 -2.08,0.24c-0.074,0.42 -0,0.926 0.22,1.52c0.993,2.693 1.756,2.623 2.29,-0.21Zm4.491,2.345c0.649,0.085 1.269,-0.645 1.399,-1.635c0.13,-0.99 -0.29,-1.85 -0.941,-1.936c-0.649,-0.084 -1.269,0.646 -1.4,1.636c-0.129,0.99 0.291,1.85 0.942,1.935Z" style="fill:#1d612b;fill-rule:nonzero;"/><path d="M37.926,55.057c-2.054,-0.76 -4.16,-1.047 -6.32,-0.86c-0.34,0.03 -0.66,-0.06 -0.91,-0.25c-1.694,-1.267 -3.064,-2.934 -4.11,-5c-0.35,-0.7 -1.07,-1.14 -1.85,-1.14c-2.534,-0 -4.907,-0.83 -7.12,-2.49c-1.2,-0.9 -1.197,-1.16 0.01,-0.78c0.146,0.046 0.29,0.12 0.43,0.22c1.133,0.78 2.283,1.12 3.45,1.02c0.893,-0.08 0.933,-0.297 0.12,-0.65l-4.89,-2.15c-0.68,-0.3 -1,-1.08 -0.71,-1.74c0.613,-1.42 1.296,-2.114 2.05,-2.08c0.386,0.013 0.97,0.47 1.75,1.37c1.673,1.926 3.746,2.93 6.22,3.01c1.5,0.046 3.123,-0.497 4.87,-1.63c1.233,-0.8 2.686,-1.787 4.36,-2.96c0.5,-0.36 0.88,-0.86 1.09,-1.44c0.18,-0.52 0.006,-0.894 -0.52,-1.12c-0.25,-0.11 -0.55,0.04 -0.67,0.32c-1.18,2.646 -2.764,2.846 -4.75,0.6c-0.407,-0.46 -1.61,-1.107 -3.61,-1.94c-1.02,-0.427 -1.97,-0.517 -2.85,-0.27c-0.647,0.18 -1.27,0.43 -1.87,0.75c-0.3,0.166 -0.784,0.606 -1.45,1.32c-0.894,0.966 -1.727,0.746 -2.5,-0.66c-0.15,-0.28 -0.18,-0.61 -0.08,-0.92c0.273,-0.854 0.67,-1.637 1.19,-2.35c0.7,-0.954 1.1,-1.704 1.2,-2.25c0.266,-1.454 0.056,-2.89 -0.63,-4.31c-0.034,-0.074 -0.074,-0.204 -0.12,-0.39c-0.06,-0.227 -0.177,-0.28 -0.35,-0.16c-0.11,0.08 -0.14,0.26 -0.08,0.42c0.866,2.16 0.65,4.216 -0.65,6.17c-0.614,0.94 -1.074,0.87 -1.38,-0.21c-3.134,-11 0.113,-19.297 9.74,-24.89c2.566,-1.487 5.396,-2.244 8.49,-2.27c2.84,-0.02 5.686,0.223 8.54,0.73c5.913,1.046 10.163,4.6 12.75,10.66c2.073,4.846 2.23,9.81 0.47,14.89c-0.274,0.786 -0.61,0.816 -1.01,0.09c-1.087,-1.974 -1.527,-4.11 -1.32,-6.41c0.073,-0.88 -0.044,-1.24 -0.35,-1.08c-0.23,0.12 -0.4,0.43 -0.44,0.82c-0.294,2.926 0.306,5.623 1.8,8.09c0.15,0.25 0.1,0.58 -0.12,0.76c-1.674,1.426 -3.617,1.84 -5.83,1.24c-0.35,-0.09 -0.6,-0.33 -0.65,-0.62l-0.64,-3.46c-0.07,-0.38 -0.23,-0.67 -0.42,-0.74c-0.42,-0.154 -0.53,0.176 -0.33,0.99c0.346,1.386 0.26,2.586 -0.26,3.6c-0.36,0.693 -1.234,1.363 -2.62,2.01c-1.394,0.653 -2.73,1.416 -4.01,2.29c-0.29,0.2 -0.62,0.27 -0.91,0.19c-1.48,-0.374 -1.964,-1.444 -1.45,-3.21c0.386,-1.327 0.23,-1.704 -0.47,-1.13c-0.187,0.153 -0.317,0.36 -0.39,0.62c-0.727,2.546 -0.09,4.243 1.91,5.09c1.88,0.793 2.983,1.273 3.31,1.44c0.946,0.486 2.096,0.916 3.45,1.29c3.52,0.973 6.24,0.13 8.16,-2.53c0.18,-0.25 0.27,-0.57 0.24,-0.91c-0.147,-1.8 -0.217,-2.884 -0.21,-3.25c0.006,-0.4 0.173,-0.64 0.5,-0.72c0.27,-0.07 0.59,0.07 0.82,0.37c1.1,1.446 1.803,3.066 2.11,4.86c0.05,0.32 -0,0.65 -0.16,0.94c-1.247,2.346 -3.08,4.106 -5.5,5.28c-0.27,0.13 -0.59,0.13 -0.9,0.01c-1.64,-0.66 -2.904,-0.307 -3.79,1.06c-0.014,0.02 -0.257,0.726 -0.73,2.12c-0.36,1.06 -1.147,1.73 -2.36,2.01c-0.31,0.06 -0.45,0.43 -0.28,0.73l1.58,2.79c0.15,0.27 0.1,0.63 -0.13,0.91c-0.434,0.54 -0.997,0.723 -1.69,0.55c-0.3,-0.07 -0.61,0.01 -0.8,0.22c-0.287,0.313 -0.58,0.61 -0.88,0.89c-1.194,1.113 -1.69,0.776 -1.49,-1.01c0.073,-0.707 0.04,-1.39 -0.1,-2.05c-0.24,-1.127 0.096,-1.264 1.01,-0.41c1.066,0.993 1.64,0.83 1.72,-0.49c0.02,-0.31 -0.15,-0.61 -0.43,-0.76c-2.02,-1.114 -3.77,-0.797 -5.25,0.95Zm-4.452,-12.039c0.332,0.209 0.892,-0.091 1.237,-0.66c0.345,-0.571 0.365,-1.201 0.027,-1.403c-0.332,-0.208 -0.892,0.092 -1.238,0.661c-0.344,0.571 -0.364,1.201 -0.026,1.402Zm7.214,0.469c0.248,-0.16 0.198,-0.69 -0.119,-1.174c-0.313,-0.486 -0.773,-0.746 -1.025,-0.587c-0.248,0.161 -0.198,0.691 0.119,1.175c0.313,0.486 0.773,0.746 1.025,0.586Zm13.808,-0.14c-1.267,1.68 -1.087,1.93 0.54,0.75c0.26,-0.19 0.44,-0.47 0.48,-0.78c0.16,-1.094 -0.18,-1.084 -1.02,0.03Zm-18.31,-0.01c-3.64,4.64 -2.957,6.986 2.05,7.04c0.32,-0 0.6,-0.17 0.73,-0.44c1.126,-2.334 0.436,-4.557 -2.07,-6.67c-0.21,-0.18 -0.54,-0.15 -0.71,0.07Z" style="fill:#fff;fill-rule:nonzero;"/><path d="M27.946,37.087c3.453,1.226 3.74,2.773 0.86,4.64c-1.294,0.84 -2.584,1.07 -3.87,0.69c-1.46,-0.427 -2.68,-1.267 -3.66,-2.52c-0.19,-0.24 -0.2,-0.58 -0.04,-0.84c0.753,-1.254 1.786,-2.037 3.1,-2.35c1.006,-0.247 2.21,-0.12 3.61,0.38Z" style="fill:#1d612b;fill-rule:nonzero;"/><path d="M34.711,42.358c-0.349,0.569 -0.903,0.865 -1.237,0.66c-0.335,-0.204 -0.322,-0.833 0.026,-1.402c0.349,-0.57 0.904,-0.866 1.238,-0.661c0.334,0.205 0.322,0.833 -0.027,1.403Z" style="fill:#1d612b;"/><path d="M40.569,42.313c0.315,0.486 0.369,1.012 0.119,1.174c-0.25,0.163 -0.709,-0.1 -1.025,-0.586c-0.316,-0.486 -0.369,-1.013 -0.119,-1.175c0.25,-0.162 0.709,0.101 1.025,0.587Z" style="fill:#1d612b;"/><path d="M54.496,43.347c0.84,-1.114 1.18,-1.124 1.02,-0.03c-0.04,0.31 -0.22,0.59 -0.48,0.78c-1.627,1.18 -1.807,0.93 -0.54,-0.75Z" style="fill:#1d612b;fill-rule:nonzero;"/><path d="M36.186,43.337c0.17,-0.22 0.5,-0.25 0.71,-0.07c2.506,2.113 3.196,4.336 2.07,6.67c-0.13,0.27 -0.41,0.44 -0.73,0.44c-5.007,-0.054 -5.69,-2.4 -2.05,-7.04Z" style="fill:#1d612b;fill-rule:nonzero;"/><path d="M23.686,56.777c-0.74,-2.06 -0.894,-4.377 -0.46,-6.95c0.12,-0.71 0.91,-1.08 1.53,-0.72c1.453,0.846 2.19,2.013 2.21,3.5c0.013,0.706 0.046,1.166 0.1,1.38c0.16,0.64 0.386,1.056 0.68,1.25c0.78,0.54 1.24,1.43 1.21,2.38c-0.134,4.113 1.35,6.646 4.45,7.6c0.333,0.1 1.146,0.126 2.44,0.08c0.78,-0.027 1.616,0.106 2.51,0.4c1.16,0.373 2.28,0.07 3.36,-0.91l2.23,-2.01c0.326,-0.3 0.53,-0.55 0.61,-0.75c1.246,-3.034 2.13,-6.17 2.65,-9.41c0.286,-1.82 1.036,-3.057 2.25,-3.71c0.76,-0.41 1.7,0.11 1.75,0.98c0.16,2.693 -0.454,4.996 -1.84,6.91c-0.134,0.186 -0.217,0.383 -0.25,0.59c-0.22,1.346 0.12,1.303 1.02,-0.13c1.28,-2.02 2.006,-4.23 2.18,-6.63c0.08,-1.12 0.593,-1.77 1.54,-1.95c0.28,-0.06 0.57,0.12 0.66,0.41c1.4,4.506 0.223,8.183 -3.53,11.03c-1.514,1.153 -3.924,3.64 -7.23,7.46c-1.507,1.74 -2.77,2.81 -3.79,3.21c-1.727,0.68 -3.51,0.52 -5.35,-0.48c-0.27,-0.14 -0.59,-0.14 -0.86,0.01c-1.16,0.626 -2.104,0.41 -2.83,-0.65c-0.44,-0.654 -0.677,-1 -0.71,-1.04c-1.88,-2.287 -4.79,-5.497 -8.73,-9.63c-2.754,-2.894 -3.247,-6.2 -1.48,-9.92c0.15,-0.3 0.45,-0.47 0.74,-0.41c0.88,0.173 1.273,0.886 1.18,2.14c-0.14,1.866 0.42,3.87 1.68,6.01c0.16,0.273 0.186,0.26 0.08,-0.04Z" style="fill:#fff;fill-rule:nonzero;"/><path d="M32.196,58.867c-1.027,0.68 -1.53,-0.397 -1.51,-3.23c0.006,-1.254 0.503,-1.494 1.49,-0.72c0.74,0.573 1.09,1.283 1.05,2.13c-0.04,0.786 -0.384,1.393 -1.03,1.82Z" style="fill:#fff;fill-rule:nonzero;"/><path d="M35.556,59.717c-0.8,-0.4 -1.35,-1.16 -1.49,-2.04c-0.354,-2.227 0.253,-3.064 1.82,-2.51c0.873,0.306 1.27,0.933 1.19,1.88c-0.054,0.613 -0.057,1.126 -0.01,1.54c0.16,1.326 -0.344,1.703 -1.51,1.13Z" style="fill:#fff;fill-rule:nonzero;"/><path d="M37.926,55.057c1.6,-0.387 2.31,0.203 2.13,1.77c-0.087,0.766 -0.137,1.256 -0.15,1.47c-0.1,2.086 -0.674,2.313 -1.72,0.68c-0.17,-0.26 -0.26,-0.58 -0.26,-0.91l-0,-3.01Z" style="fill:#fff;fill-rule:nonzero;"/><path d="M42.986,60.517c0.2,-0.587 0.546,-0.75 1.04,-0.49c0.27,0.14 0.45,0.44 0.47,0.78c0.08,1.013 -0.34,1.603 -1.26,1.77c-0.3,0.05 -0.58,0.21 -0.79,0.44c-0.274,0.3 -0.594,0.51 -0.96,0.63c-0.28,0.09 -0.59,-0.06 -0.73,-0.35c-0.867,-1.827 -0.33,-2.62 1.61,-2.38c0.27,0.03 0.53,-0.14 0.62,-0.4Z" style="fill:#e5e4ba;fill-rule:nonzero;"/><path d="M34.226,62.337c-0.534,2.833 -1.297,2.903 -2.29,0.21c-0.22,-0.594 -0.294,-1.1 -0.22,-1.52c0.18,-0.987 0.873,-1.067 2.08,-0.24c0.37,0.24 0.81,0.35 1.24,0.29c1.84,-0.254 2.336,0.476 1.49,2.19c-0.694,1.413 -1.284,1.1 -1.77,-0.94c-0.2,-0.82 -0.377,-0.817 -0.53,0.01Z" style="fill:#fff;fill-rule:nonzero;"/><path d="M40.116,63.047c-0.126,0.985 -0.753,1.718 -1.399,1.635c-0.646,-0.083 -1.068,-0.95 -0.942,-1.935c0.127,-0.986 0.754,-1.718 1.4,-1.636c0.646,0.083 1.067,0.95 0.941,1.936Z" style="fill:#fff;"/></svg>