<?xml version="1.0" encoding="UTF-8" standalone="no"?>
<!DOCTYPE svg PUBLIC "-//W3C//DTD SVG 1.1//EN" "http://www.w3.org/Graphics/SVG/1.1/DTD/svg11.dtd">
<svg xmlns="http://www.w3.org/2000/svg" version="1.1" viewBox="0 0 82 81">
<g stroke-width="2.0" fill="none" stroke-linecap="butt">
<path stroke="#ad9992" stroke-opacity="0.996" vector-effect="non-scaling-stroke" d="
  M 79.71 69.75
  Q 80.45 58.38 79.71 47.00"
/>
<path stroke="#8e857c" stroke-opacity="0.996" vector-effect="non-scaling-stroke" d="
  M 79.71 47.00
  Q 80.23 45.83 80.00 44.00
  Q 79.80 42.40 79.91 34.99
  Q 79.98 31.00 79.76 26.01
  Q 79.29 15.25 79.82 3.39
  Q 79.91 1.50 78.02 1.50
  Q 56.71 1.42 34.68 1.67
  Q 30.27 1.71 20.84 1.44
  Q 13.91 1.23 6.98 1.46
  Q 6.89 1.47 5.05 1.37
  Q 2.71 1.24 2.87 3.61
  Q 2.99 5.34 2.99 5.40
  Q 2.55 36.60 3.41 67.79
  Q 3.41 67.87 3.41 70.08
  Q 3.41 74.15 4.91 78.19
  C 5.21 79.00 5.97 79.55 6.83 79.57
  Q 15.31 79.78 24.08 79.90
  Q 25.55 79.92 29.76 79.52
  Q 32.50 79.25 35.50 79.50
  Q 39.00 79.79 43.37 79.57
  Q 44.11 79.53 45.61 79.74
  Q 46.75 79.90 47.89 79.71
  Q 50.13 79.32 51.15 79.43
  Q 53.00 79.62 54.85 79.78
  Q 56.58 79.93 58.53 79.85
  Q 68.23 79.41 77.95 79.69
  C 78.58 79.71 79.13 79.28 79.27 78.67
  Q 80.28 74.30 79.71 69.75"
/>
<path stroke="#4a3531" vector-effect="non-scaling-stroke" d="
  M 79.71 47.00
  Q 79.36 47.59 78.96 47.50"
/>
<path stroke="#96908d" vector-effect="non-scaling-stroke" d="
  M 78.96 47.50
  Q 79.52 31.73 77.84 16.07
  Q 77.61 13.93 78.15 11.11
  Q 78.78 7.81 78.74 3.78
  C 78.73 3.23 78.30 2.78 77.76 2.75
  Q 69.90 2.27 62.05 2.78
  Q 59.97 2.92 56.44 2.75
  Q 53.62 2.61 50.81 2.93
  Q 49.75 3.06 48.80 2.95
  Q 47.85 2.85 46.80 2.73
  C 46.50 2.69 46.22 2.87 46.12 3.16
  Q 44.80 6.96 41.74 8.93
  Q 41.36 9.18 41.58 8.77
  L 44.65 3.21
  C 44.89 2.78 44.56 2.25 44.06 2.25
  Q 42.45 2.25 41.61 2.90
  C 41.34 3.11 41.04 3.23 40.74 3.26
  Q 39.10 3.42 39.01 5.16
  Q 38.98 5.60 38.92 5.83
  Q 38.45 7.61 38.09 5.99
  Q 38.01 5.60 38.16 5.02
  Q 38.41 4.11 38.16 3.22
  C 38.08 2.93 37.82 2.73 37.51 2.71
  Q 35.66 2.60 33.00 3.25
  Q 30.20 3.94 26.00 3.25
  Q 23.26 2.80 21.18 2.95
  Q 17.36 3.22 17.28 3.22
  Q 11.98 3.16 6.69 3.41
  C 6.38 3.43 6.10 3.61 5.97 3.89
  Q 4.46 7.17 4.67 10.75
  Q 4.92 14.80 4.92 14.88
  Q 4.67 41.04 4.92 67.20
  Q 4.92 67.28 4.79 70.16
  Q 4.47 76.76 11.50 77.75
  Q 14.32 78.15 25.50 77.79"
/>
<path stroke="#785f5c" vector-effect="non-scaling-stroke" d="
  M 25.50 77.79
  Q 28.11 78.81 30.75 77.54"
/>
<path stroke="#96908d" vector-effect="non-scaling-stroke" d="
  M 30.75 77.54
  Q 31.36 76.51 32.15 77.14
  C 32.35 77.31 32.64 77.29 32.79 77.10
  Q 33.68 76.02 34.35 77.23
  C 34.51 77.52 34.77 77.70 35.06 77.71
  Q 46.40 78.11 54.00 77.75
  Q 55.95 77.66 57.50 77.90
  Q 59.90 78.28 60.93 78.23
  Q 65.19 78.01 69.41 77.53
  Q 69.53 77.51 70.96 77.56
  Q 71.89 77.60 72.50 76.96
  C 72.70 76.75 73.01 76.70 73.23 76.83
  Q 78.04 79.82 78.66 74.75
  Q 78.74 74.09 78.53 72.27
  Q 78.39 71.02 78.54 69.75"
/>
<path stroke="#4a3531" vector-effect="non-scaling-stroke" d="
  M 78.54 69.75
  L 79.71 69.75"
/>
<path stroke="#b4a4a3" vector-effect="non-scaling-stroke" d="
  M 78.96 47.50
  L 78.54 69.75"
/>
<path stroke="#e1cece" vector-effect="non-scaling-stroke" d="
  M 30.75 77.54
  L 25.50 77.79"
/>
<path stroke="#d0b9bb" vector-effect="non-scaling-stroke" d="
  M 16.29 64.50
  Q 18.57 70.51 19.50 63.54"
/>
<path stroke="#96908d" vector-effect="non-scaling-stroke" d="
  M 19.50 63.54
  L 19.75 63.46"
/>
<path stroke="#f8e3e5" vector-effect="non-scaling-stroke" d="
  M 19.75 63.46
  Q 24.57 64.81 29.71 64.30
  Q 30.50 64.22 29.93 63.67
  Q 28.08 61.87 26.74 63.26
  Q 25.68 64.36 25.44 62.86
  Q 25.20 61.42 26.22 59.96
  Q 26.68 59.30 26.43 58.89
  C 26.31 58.68 25.97 58.71 25.76 58.95
  L 23.50 61.54"
/>
<path stroke="#96908d" vector-effect="non-scaling-stroke" d="
  M 23.50 61.54
  Q 22.17 61.66 22.00 62.96"
/>
<path stroke="#f8e3e5" vector-effect="non-scaling-stroke" d="
  M 22.00 62.96
  Q 21.04 63.22 20.21 62.75"
/>
<path stroke="#96908d" vector-effect="non-scaling-stroke" d="
  M 20.21 62.75
  Q 20.26 61.30 21.35 60.36
  Q 24.65 57.52 28.06 54.81
  Q 29.44 53.72 32.96 54.00"
/>
<path stroke="#d0b9bb" vector-effect="non-scaling-stroke" d="
  M 32.96 54.00
  Q 33.51 54.46 34.25 54.21"
/>
<path stroke="#96908d" vector-effect="non-scaling-stroke" d="
  M 34.25 54.21
  Q 35.44 54.98 36.64 54.33
  C 36.92 54.18 37.24 54.13 37.54 54.19
  Q 39.39 54.57 40.75 53.21"
/>
<path stroke="#f8e3e5" vector-effect="non-scaling-stroke" d="
  M 40.75 53.21
  L 42.46 53.25"
/>
<path stroke="#b4a4a3" vector-effect="non-scaling-stroke" d="
  M 42.46 53.25
  Q 43.09 54.20 44.00 54.25
  Q 48.34 54.50 57.00 54.46"
/>
<path stroke="#e1cece" vector-effect="non-scaling-stroke" d="
  M 57.00 54.46
  Q 60.52 55.11 62.00 58.29"
/>
<path stroke="#d0b9bb" vector-effect="non-scaling-stroke" d="
  M 62.00 58.29
  L 61.71 60.75"
/>
<path stroke="#f8e3e5" vector-effect="non-scaling-stroke" d="
  M 61.71 60.75
  Q 61.37 61.58 61.46 62.50"
/>
<path stroke="#d0b9bb" vector-effect="non-scaling-stroke" d="
  M 61.46 62.50
  Q 60.49 64.02 58.54 63.38
  Q 57.47 63.04 56.41 62.65
  Q 55.95 62.48 55.57 62.55
  Q 54.60 62.71 55.02 63.35
  Q 55.24 63.67 55.75 63.84
  Q 59.40 65.05 63.02 63.91
  Q 63.48 63.77 63.99 63.87
  Q 65.49 64.19 67.00 63.71"
/>
<path stroke="#b4a4a3" vector-effect="non-scaling-stroke" d="
  M 67.00 63.71
  Q 67.94 63.88 68.24 62.95
  Q 69.14 60.22 71.36 58.44
  Q 71.70 58.16 71.89 57.83
  Q 74.03 54.02 70.62 57.52
  C 70.24 57.90 69.60 57.78 69.38 57.29
  Q 68.46 55.21 68.05 53.29
  Q 67.65 51.49 67.37 53.07
  Q 67.11 54.53 67.75 55.81
  C 67.92 56.15 67.94 56.50 67.82 56.72
  L 67.50 57.29"
/>
<path stroke="#e1cece" vector-effect="non-scaling-stroke" d="
  M 67.50 57.29
  Q 64.25 54.93 61.19 52.31
  Q 60.41 51.65 59.00 52.29"
/>
<path stroke="#96908d" vector-effect="non-scaling-stroke" d="
  M 59.00 52.29
  Q 57.65 51.47 58.04 50.05
  Q 58.26 49.27 58.26 48.92
  Q 58.26 48.34 58.21 47.75"
/>
<path stroke="#b4a4a3" vector-effect="non-scaling-stroke" d="
  M 58.21 47.75
  Q 58.77 43.33 58.00 38.96"
/>
<path stroke="#96908d" vector-effect="non-scaling-stroke" d="
  M 58.00 38.96
  Q 56.92 34.10 59.50 30.04"
/>
<path stroke="#d0b9bb" vector-effect="non-scaling-stroke" d="
  M 59.50 30.04
  L 65.50 23.54"
/>
<path stroke="#b4a4a3" vector-effect="non-scaling-stroke" d="
  M 65.50 23.54
  Q 67.28 23.14 67.29 25.25"
/>
<path stroke="#d0b9bb" vector-effect="non-scaling-stroke" d="
  M 67.29 25.25
  Q 65.60 26.39 66.84 27.33
  Q 67.25 27.65 67.41 27.93
  Q 67.61 28.31 67.75 28.71"
/>
<path stroke="#b4a4a3" vector-effect="non-scaling-stroke" d="
  M 67.75 28.71
  L 66.50 29.04"
/>
<path stroke="#e1cece" vector-effect="non-scaling-stroke" d="
  M 66.50 29.04
  Q 63.78 27.75 63.53 30.41
  Q 63.46 31.07 63.72 31.54
  Q 64.28 32.59 65.25 31.27
  Q 65.97 30.29 66.96 30.52
  C 67.22 30.57 67.37 30.86 67.29 31.15
  Q 66.90 32.66 67.57 34.00
  Q 67.81 34.50 68.06 34.01
  Q 68.98 32.24 68.21 30.25"
/>
<path stroke="#b4a4a3" vector-effect="non-scaling-stroke" d="
  M 68.21 30.25
  Q 68.85 29.48 68.25 28.71"
/>
<path stroke="#d0b9bb" vector-effect="non-scaling-stroke" d="
  M 68.25 28.71
  Q 68.69 27.38 67.79 26.40
  Q 67.51 26.11 67.50 25.89
  Q 67.49 25.56 67.75 25.29"
/>
<path stroke="#b4a4a3" vector-effect="non-scaling-stroke" d="
  M 67.75 25.29
  Q 68.43 22.43 67.75 19.54"
/>
<path stroke="#ffffff" vector-effect="non-scaling-stroke" d="
  M 67.75 19.54
  Q 68.18 19.27 67.96 18.75"
/>
<path stroke="#96908d" vector-effect="non-scaling-stroke" d="
  M 67.96 18.75
  L 66.94 13.20
  Q 66.72 12.00 66.18 13.15
  Q 64.95 15.77 62.20 14.48
  C 61.93 14.35 61.61 14.38 61.33 14.54
  Q 59.92 15.39 59.20 13.97
  C 59.07 13.71 58.78 13.59 58.53 13.68
  Q 55.26 14.89 51.97 13.68
  C 51.68 13.58 51.37 13.64 51.13 13.84
  L 50.14 14.69
  C 49.95 14.85 49.64 14.81 49.47 14.59
  Q 48.89 13.84 48.25 14.00
  Q 45.38 14.71 38.94 14.69
  Q 36.70 14.68 37.51 13.29
  Q 37.75 12.87 38.55 12.27
  Q 39.82 11.32 40.68 9.99
  Q 40.97 9.54 40.59 9.91
  Q 38.03 12.44 34.73 13.80
  Q 32.39 14.75 32.31 14.77
  Q 31.07 15.03 29.56 14.28
  Q 27.74 13.38 25.98 14.40
  Q 24.44 15.30 23.08 13.88
  C 22.84 13.63 22.53 13.50 22.25 13.53
  Q 20.83 13.68 19.66 14.45
  C 19.40 14.62 19.08 14.65 18.81 14.51
  L 15.31 12.69
  Q 14.10 12.06 14.68 13.30
  Q 15.57 15.20 16.09 17.22
  Q 16.45 18.65 16.20 21.30
  Q 15.92 24.25 16.52 27.20
  Q 17.15 30.28 16.71 33.30
  Q 16.35 35.80 16.63 37.73
  Q 17.44 43.33 16.83 48.95
  Q 16.55 51.62 16.85 54.69
  Q 17.33 59.60 16.29 64.50"
/>
<path stroke="#96908d" vector-effect="non-scaling-stroke" d="
  M 67.96 18.75
  L 66.93 16.81
  C 66.75 16.47 66.33 16.37 66.08 16.60
  Q 61.15 21.19 58.56 26.06
  Q 57.52 28.03 58.54 29.50"
/>
<path stroke="#674a49" vector-effect="non-scaling-stroke" d="
  M 58.54 29.50
  Q 58.73 30.15 59.50 30.04"
/>
<path stroke="#4a3531" vector-effect="non-scaling-stroke" d="
  M 58.00 38.96
  L 57.29 39.00"
/>
<path stroke="#96908d" vector-effect="non-scaling-stroke" d="
  M 57.29 39.00
  Q 56.59 37.57 55.39 36.56
  C 55.14 36.35 54.80 36.32 54.57 36.49
  Q 53.67 37.14 53.96 38.50"
/>
<path stroke="#4a3531" vector-effect="non-scaling-stroke" d="
  M 53.96 38.50
  L 53.25 38.54"
/>
<path stroke="#96908d" vector-effect="non-scaling-stroke" d="
  M 53.25 38.54
  L 51.69 37.81
  C 51.41 37.68 51.22 37.48 51.23 37.30
  Q 51.24 36.93 51.75 37.00
  Q 54.74 37.43 54.00 35.25
  Q 53.43 33.55 51.79 34.25"
/>
<path stroke="#4a3531" vector-effect="non-scaling-stroke" d="
  M 51.79 34.25
  L 51.21 33.75"
/>
<path stroke="#96908d" vector-effect="non-scaling-stroke" d="
  M 51.21 33.75
  Q 51.82 33.00 52.75 32.71"
/>
<path stroke="#8e7473" vector-effect="non-scaling-stroke" d="
  M 52.75 32.71
  Q 54.23 33.39 54.00 31.54"
/>
<path stroke="#96908d" vector-effect="non-scaling-stroke" d="
  M 54.00 31.54
  Q 58.08 30.11 55.22 27.53
  Q 54.35 26.75 53.71 27.52
  C 53.52 27.76 53.21 27.84 53.01 27.70
  Q 52.09 27.09 51.81 25.94
  Q 51.49 24.56 50.50 26.00
  Q 48.98 28.22 46.43 28.10
  C 46.11 28.09 45.81 27.93 45.62 27.68
  Q 44.95 26.79 44.75 25.68
  C 44.71 25.41 44.79 25.09 44.99 24.80
  Q 45.63 23.87 44.81 23.64
  C 44.52 23.56 44.21 23.72 44.10 24.02
  L 43.84 24.71
  C 43.71 25.04 43.43 25.24 43.18 25.19
  L 39.75 24.46"
/>
<path stroke="#5e2227" vector-effect="non-scaling-stroke" d="
  M 39.75 24.46
  Q 40.23 22.70 39.12 21.36
  Q 38.45 20.54 39.04 19.75"
/>
<path stroke="#8e7473" vector-effect="non-scaling-stroke" d="
  M 39.04 19.75
  Q 40.40 20.72 40.55 22.19
  C 40.58 22.51 40.76 22.78 41.02 22.88
  Q 44.89 24.46 43.17 21.01
  C 43.04 20.75 42.78 20.54 42.45 20.43
  Q 40.79 19.91 39.91 18.33
  Q 39.12 16.89 37.75 16.21"
/>
<path stroke="#5e2227" vector-effect="non-scaling-stroke" d="
  M 37.75 16.21
  Q 36.87 15.12 35.76 15.49
  C 35.51 15.57 35.24 15.46 35.14 15.22
  Q 34.45 13.38 34.33 15.21
  C 34.32 15.42 34.43 15.72 34.64 16.04
  Q 34.88 16.41 34.75 16.81
  C 34.68 17.03 34.37 17.13 34.05 17.04
  L 29.00 15.56
  Q 28.46 15.41 28.12 15.18
  Q 27.47 14.74 26.97 15.28
  C 26.74 15.53 26.45 15.67 26.18 15.66
  Q 22.24 15.48 18.69 17.27
  C 18.42 17.41 18.23 17.69 18.20 18.01
  Q 17.51 24.97 18.50 32.75
  Q 18.63 33.80 18.19 35.04
  Q 18.01 35.53 18.07 36.00
  Q 18.90 42.14 18.32 48.28
  Q 18.07 51.02 18.20 53.75
  Q 18.33 56.39 18.23 59.25
  Q 18.19 60.53 19.18 59.76
  L 26.17 54.39
  Q 26.56 54.09 27.05 54.03
  Q 29.01 53.76 30.19 51.69
  Q 30.85 50.53 31.29 51.50"
/>
<path stroke="#96908d" vector-effect="non-scaling-stroke" d="
  M 31.29 51.50
  Q 31.06 52.17 31.26 52.47
  C 31.36 52.62 31.72 52.59 32.09 52.41
  Q 32.80 52.06 33.50 52.79"
/>
<path stroke="#674a49" vector-effect="non-scaling-stroke" d="
  M 33.50 52.79
  L 32.96 54.00"
/>
<path stroke="#8e7473" vector-effect="non-scaling-stroke" d="
  M 20.21 62.75
  L 19.75 63.46"
/>
<path stroke="#674a49" vector-effect="non-scaling-stroke" d="
  M 19.50 63.54
  Q 17.74 63.24 16.29 64.50"
/>
<path stroke="#f8e3e5" vector-effect="non-scaling-stroke" d="
  M 54.00 31.54
  Q 53.75 31.46 53.50 31.54"
/>
<path stroke="#b4a4a3" vector-effect="non-scaling-stroke" d="
  M 53.50 31.54
  Q 52.24 31.12 51.54 30.00"
/>
<path stroke="#96908d" vector-effect="non-scaling-stroke" d="
  M 51.54 30.00
  Q 51.55 29.17 50.98 28.88
  C 50.71 28.74 50.36 28.86 50.20 29.15
  Q 49.79 29.90 50.75 30.29"
/>
<path stroke="#b4a4a3" vector-effect="non-scaling-stroke" d="
  M 50.75 30.29
  Q 51.40 31.58 52.71 32.25"
/>
<path stroke="#f8e3e5" vector-effect="non-scaling-stroke" d="
  M 52.71 32.25
  L 52.75 32.71"
/>
<path stroke="#b4a4a3" vector-effect="non-scaling-stroke" d="
  M 51.21 33.75
  Q 50.47 34.71 51.10 35.57
  Q 51.35 35.91 51.48 35.44
  L 51.79 34.25"
/>
<path stroke="#b4a4a3" vector-effect="non-scaling-stroke" d="
  M 53.25 38.54
  Q 54.00 40.78 57.05 41.76
  C 57.33 41.84 57.51 42.08 57.50 42.34
  L 57.29 47.75"
/>
<path stroke="#96908d" vector-effect="non-scaling-stroke" d="
  M 57.29 47.75
  Q 55.99 48.71 55.46 46.50"
/>
<path stroke="#d0b9bb" vector-effect="non-scaling-stroke" d="
  M 55.46 46.50
  Q 51.47 42.26 50.13 47.76
  Q 50.04 48.14 49.85 48.30
  Q 49.60 48.52 49.25 48.54"
/>
<path stroke="#b4a4a3" vector-effect="non-scaling-stroke" d="
  M 49.25 48.54
  Q 48.50 47.33 47.89 48.48
  C 47.74 48.78 47.50 49.00 47.22 49.10
  Q 44.63 50.05 42.75 52.04"
/>
<path stroke="#f8e3e5" vector-effect="non-scaling-stroke" d="
  M 42.75 52.04
  L 42.04 52.00"
/>
<path stroke="#96908d" vector-effect="non-scaling-stroke" d="
  M 42.04 52.00
  Q 41.55 51.05 40.50 51.26
  Q 38.27 51.72 35.55 52.45
  C 35.27 52.53 35.00 52.29 35.03 52.00
  Q 35.36 48.96 34.29 46.52
  Q 33.30 44.28 34.32 42.04
  C 34.58 41.46 35.24 41.18 35.84 41.37
  Q 38.30 42.17 37.82 41.11
  C 37.72 40.88 37.45 40.68 37.08 40.55
  Q 35.37 39.96 36.44 38.40
  C 36.62 38.14 36.70 37.82 36.65 37.51
  Q 36.37 35.78 37.42 34.39
  Q 37.67 34.07 37.27 34.08
  Q 36.71 34.11 36.44 33.71
  C 36.28 33.48 36.38 33.14 36.66 32.97
  Q 38.05 32.14 38.46 33.45
  C 38.56 33.77 38.79 34.01 39.06 34.06
  Q 40.63 34.32 41.51 32.93
  C 41.68 32.66 41.71 32.32 41.57 32.03
  L 39.00 26.71"
/>
<path stroke="#d0b9bb" vector-effect="non-scaling-stroke" d="
  M 33.96 52.75
  L 33.50 52.79"
/>
<path stroke="#4a3531" vector-effect="non-scaling-stroke" d="
  M 58.21 47.75
  L 57.29 47.75"
/>
<path stroke="#b4a4a3" vector-effect="non-scaling-stroke" d="
  M 57.29 39.00
  Q 57.73 41.17 56.00 40.50
  Q 54.34 39.86 53.96 38.50"
/>
<path stroke="#8e7473" vector-effect="non-scaling-stroke" d="
  M 22.00 62.96
  Q 25.13 64.63 23.50 61.54"
/>
<path stroke="#b4a4a3" vector-effect="non-scaling-stroke" d="
  M 67.75 19.54
  L 64.46 23.25"
/>
<path stroke="#d0b9bb" vector-effect="non-scaling-stroke" d="
  M 64.46 23.25
  L 58.54 29.50"
/>
<path stroke="#c0757f" vector-effect="non-scaling-stroke" d="
  M 37.75 16.21
  Q 36.56 16.71 37.14 17.67
  C 37.26 17.87 37.55 18.03 37.93 18.12
  Q 39.05 18.39 39.04 19.75"
/>
<path stroke="#c89199" vector-effect="non-scaling-stroke" d="
  M 39.75 24.46
  Q 38.51 25.13 39.00 26.71"
/>
<path stroke="#5e2227" vector-effect="non-scaling-stroke" d="
  M 39.00 26.71
  Q 38.29 27.69 38.54 29.00"
/>
<path stroke="#c18688" stroke-opacity="0.996" vector-effect="non-scaling-stroke" d="
  M 38.54 29.00
  Q 37.14 28.52 36.04 29.50"
/>
<path stroke="#5e2227" vector-effect="non-scaling-stroke" d="
  M 36.04 29.50
  Q 35.86 28.39 34.79 28.25"
/>
<path stroke="#aa6068" vector-effect="non-scaling-stroke" d="
  M 34.79 28.25
  Q 34.36 27.80 33.75 28.04"
/>
<path stroke="#5e2227" vector-effect="non-scaling-stroke" d="
  M 33.75 28.04
  Q 33.38 26.49 32.04 27.25"
/>
<path stroke="#c0757f" vector-effect="non-scaling-stroke" d="
  M 32.04 27.25
  Q 32.11 26.41 31.56 26.30
  C 31.27 26.23 30.94 26.39 30.74 26.69
  Q 30.25 27.44 30.89 28.16
  C 31.03 28.31 30.97 28.55 30.77 28.65
  Q 30.04 29.01 30.21 30.00"
/>
<path stroke="#5e2227" vector-effect="non-scaling-stroke" d="
  M 30.21 30.00
  Q 28.20 32.67 31.25 34.04"
/>
<path stroke="#aa6068" vector-effect="non-scaling-stroke" d="
  M 31.25 34.04
  Q 31.09 36.09 32.71 35.25"
/>
<path stroke="#5e2227" vector-effect="non-scaling-stroke" d="
  M 32.71 35.25
  L 32.25 42.21"
/>
<path stroke="#c0757f" vector-effect="non-scaling-stroke" d="
  M 32.25 42.21
  Q 31.25 43.31 32.25 44.29"
/>
<path stroke="#5e2227" vector-effect="non-scaling-stroke" d="
  M 32.25 44.29
  L 33.21 47.25"
/>
<path stroke="#c0757f" vector-effect="non-scaling-stroke" d="
  M 33.21 47.25
  Q 32.76 48.41 33.50 49.46"
/>
<path stroke="#5e2227" vector-effect="non-scaling-stroke" d="
  M 33.50 49.46
  Q 33.04 49.83 33.50 50.21"
/>
<path stroke="#c89199" vector-effect="non-scaling-stroke" d="
  M 33.50 50.21
  Q 31.95 50.11 31.29 51.50"
/>
<path stroke="#ad9992" stroke-opacity="0.996" vector-effect="non-scaling-stroke" d="
  M 49.54 49.50
  Q 49.30 50.40 49.76 52.35
  C 49.88 52.86 50.47 53.11 50.92 52.84
  Q 53.08 51.57 52.29 49.50"
/>
<path stroke="#967372" vector-effect="non-scaling-stroke" d="
  M 57.75 53.96
  L 57.00 54.46"
/>
<path stroke="#ac8888" vector-effect="non-scaling-stroke" d="
  M 42.46 53.25
  Q 42.88 52.73 42.75 52.04"
/>
<path stroke="#785f5c" vector-effect="non-scaling-stroke" d="
  M 59.00 52.29
  Q 60.16 54.23 57.75 53.96"
/>
<path stroke="#4a3531" vector-effect="non-scaling-stroke" d="
  M 57.75 53.96
  Q 56.33 53.19 56.46 51.50"
/>
<path stroke="#674a49" vector-effect="non-scaling-stroke" d="
  M 55.46 46.50
  L 54.25 46.54"
/>
<path stroke="#c9aeaa" stroke-opacity="0.996" vector-effect="non-scaling-stroke" d="
  M 54.25 46.54
  L 51.76 46.20
  C 51.47 46.16 51.16 46.35 50.97 46.67
  Q 50.11 48.14 52.00 48.16
  Q 52.83 48.16 53.00 48.96"
/>
<path stroke="#855e5e" vector-effect="non-scaling-stroke" d="
  M 53.00 48.96
  Q 52.74 49.48 52.29 49.50"
/>
<path stroke="#c9aeaa" stroke-opacity="0.996" vector-effect="non-scaling-stroke" d="
  M 52.29 49.50
  Q 50.99 48.23 49.54 49.50"
/>
<path stroke="#855e5e" vector-effect="non-scaling-stroke" d="
  M 49.54 49.50
  Q 49.16 49.08 49.25 48.54"
/>
<path stroke="#8e7473" vector-effect="non-scaling-stroke" d="
  M 42.04 52.00
  Q 41.70 52.93 40.75 53.21"
/>
<path stroke="#674a49" vector-effect="non-scaling-stroke" d="
  M 34.25 54.21
  Q 33.88 53.54 33.96 52.75"
/>
<path stroke="#96908d" vector-effect="non-scaling-stroke" d="
  M 33.96 52.75
  Q 34.38 51.29 33.50 50.21"
/>
<path stroke="#8e7473" vector-effect="non-scaling-stroke" d="
  M 33.50 49.46
  Q 34.50 48.37 33.21 47.25"
/>
<path stroke="#8e7473" vector-effect="non-scaling-stroke" d="
  M 32.25 44.29
  Q 34.00 43.25 32.25 42.21"
/>
<path stroke="#785f5c" vector-effect="non-scaling-stroke" d="
  M 32.71 35.25
  Q 33.24 33.28 31.25 34.04"
/>
<path stroke="#785f5c" vector-effect="non-scaling-stroke" d="
  M 33.75 28.04
  Q 33.44 28.76 33.54 29.50"
/>
<path stroke="#8e857c" stroke-opacity="0.996" vector-effect="non-scaling-stroke" d="
  M 33.54 29.50
  Q 31.85 31.65 33.58 32.97
  Q 34.10 33.37 34.17 32.77
  L 34.46 30.25"
/>
<path stroke="#785f5c" vector-effect="non-scaling-stroke" d="
  M 34.46 30.25
  L 34.79 28.25"
/>
<path stroke="#8e857c" stroke-opacity="0.996" vector-effect="non-scaling-stroke" d="
  M 36.04 29.50
  Q 35.20 31.67 37.06 31.41
  C 37.39 31.37 37.69 31.18 37.87 30.91
  Q 38.45 30.07 38.54 29.00"
/>
<path stroke="#4a3531" vector-effect="non-scaling-stroke" d="
  M 51.54 30.00
  Q 51.27 30.37 50.75 30.29"
/>
<path stroke="#ac8888" vector-effect="non-scaling-stroke" d="
  M 53.50 31.54
  Q 53.01 31.81 52.71 32.25"
/>
<path stroke="#855e5e" vector-effect="non-scaling-stroke" d="
  M 67.75 25.29
  L 67.29 25.25"
/>
<path stroke="#855e5e" vector-effect="non-scaling-stroke" d="
  M 65.50 23.54
  Q 64.83 23.64 64.46 23.25"
/>
<path stroke="#dac3be" stroke-opacity="0.996" vector-effect="non-scaling-stroke" d="
  M 34.46 30.25
  Q 34.31 29.36 33.54 29.50"
/>
<path stroke="#8e7473" vector-effect="non-scaling-stroke" d="
  M 32.04 27.25
  Q 31.55 29.66 32.27 32.05
  C 32.46 32.70 31.90 33.33 31.23 33.20
  Q 29.74 32.91 30.06 31.39
  C 30.11 31.14 30.35 30.94 30.65 30.89
  Q 31.82 30.70 30.21 30.00"
/>
<path stroke="#8e857c" stroke-opacity="0.996" vector-effect="non-scaling-stroke" d="
  M 54.25 46.54
  Q 53.90 47.89 54.63 48.68
  C 54.78 48.85 55.09 48.98 55.49 49.06
  Q 57.32 49.43 56.46 51.50"
/>
<path stroke="#ad9992" stroke-opacity="0.996" vector-effect="non-scaling-stroke" d="
  M 56.46 51.50
  Q 55.53 51.67 54.81 51.22
  Q 54.49 51.02 54.01 50.06
  Q 53.67 49.39 53.00 48.96"
/>
<path stroke="#967372" vector-effect="non-scaling-stroke" d="
  M 67.50 57.29
  Q 67.63 58.44 67.21 59.50"
/>
<path stroke="#b2888a" vector-effect="non-scaling-stroke" d="
  M 67.21 59.50
  Q 65.60 60.29 64.98 58.91
  C 64.82 58.55 64.60 58.29 64.37 58.18
  Q 63.25 57.65 62.00 58.29"
/>
<path stroke="#855e5e" vector-effect="non-scaling-stroke" d="
  M 68.25 28.71
  Q 68.00 28.79 67.75 28.71"
/>
<path stroke="#c99da0" vector-effect="non-scaling-stroke" d="
  M 61.46 62.50
  Q 62.63 63.04 62.71 62.06
  C 62.73 61.84 62.50 61.63 62.19 61.57
  Q 61.61 61.47 61.71 60.75"
/>
<path stroke="#855e5e" vector-effect="non-scaling-stroke" d="
  M 67.00 63.71
  L 67.21 59.50"
/>
<path stroke="#967372" vector-effect="non-scaling-stroke" d="
  M 66.50 29.04
  Q 66.46 30.70 68.21 30.25"
/>
<path stroke="#e1cece" vector-effect="non-scaling-stroke" d="
  M 67.8283 40.2895
  C 68.13 40.28 68.35 39.32 68.3199 38.1477
  C 68.29 36.97 68.03 36.02 67.7317 36.0305
  C 67.43 36.04 67.21 37.00 67.2401 38.1723
  C 67.27 39.35 67.53 40.30 67.8283 40.2895"
/>
<path stroke="#d0b9bb" vector-effect="non-scaling-stroke" d="
  M 67.9548 49.6100
  C 68.36 49.61 68.69 48.37 68.6900 46.8387
  C 68.69 45.31 68.35 44.07 67.9452 44.0700
  C 67.54 44.07 67.21 45.31 67.2100 46.8413
  C 67.21 48.37 67.55 49.61 67.9548 49.6100"
/>
<path stroke="#f8e3e5" vector-effect="non-scaling-stroke" d="
  M 51.79 59.27
  Q 51.65 57.23 51.08 59.00
  Q 51.00 59.25 51.06 59.50
  Q 51.39 60.76 51.72 59.85
  Q 51.82 59.59 51.79 59.27"
/>
<path stroke="#d0b9bb" vector-effect="non-scaling-stroke" d="
  M 38.25 63.75
  C 37.65 64.00 37.02 63.87 36.81 63.44
  Q 35.99 61.74 35.66 62.95
  C 35.58 63.24 35.72 63.54 35.99 63.69
  Q 36.98 64.21 38.11 64.30
  Q 38.72 64.34 39.26 64.47
  Q 41.13 64.90 40.23 63.47
  C 40.06 63.22 39.74 63.11 39.47 63.23
  L 38.25 63.75"
/>
<path stroke="#d0b9bb" vector-effect="non-scaling-stroke" d="
  M 50.91 62.60
  Q 49.27 62.28 49.79 63.27
  C 49.93 63.53 50.24 63.67 50.56 63.63
  Q 55.50 63.08 51.71 62.72
  Q 51.40 62.69 50.91 62.60"
/>
<path stroke="#d0b9bb" vector-effect="non-scaling-stroke" d="
  M 13.04 69.00
  Q 13.21 72.18 10.19 71.56
  Q 9.36 71.39 8.78 71.52
  C 8.54 71.57 8.29 71.44 8.16 71.21
  L 6.83 68.88
  Q 6.54 68.36 6.24 68.93
  Q 5.38 70.61 6.81 71.94
  Q 9.14 74.10 11.00 73.50
  Q 14.76 72.28 13.50 68.71"
/>
<path stroke="#f8e3e5" vector-effect="non-scaling-stroke" d="
  M 13.50 68.71
  Q 13.16 67.12 11.71 67.32
  Q 10.43 67.49 11.01 67.87
  Q 11.18 67.98 11.53 68.00
  Q 12.64 68.07 13.04 69.00"
/>
<path stroke="#c99da0" vector-effect="non-scaling-stroke" d="
  M 13.50 68.71
  L 13.04 69.00"
/>
<path stroke="#b4a4a3" vector-effect="non-scaling-stroke" d="
  M 69.54 71.02
  Q 68.75 70.75 66.88 70.32
  Q 65.95 70.10 66.56 70.83
  Q 68.05 72.62 69.68 72.70
  C 70.01 72.72 70.31 72.52 70.40 72.23
  Q 70.63 71.39 69.54 71.02"
/>
<path stroke="#674a49" vector-effect="non-scaling-stroke" d="
  M 46.50 15.79
  Q 45.35 15.67 44.25 16.04"
/>
<path stroke="#8e7473" vector-effect="non-scaling-stroke" d="
  M 44.25 16.04
  Q 41.84 15.27 43.08 16.92
  Q 43.19 17.08 43.27 17.22
  Q 44.18 19.13 42.81 17.46
  Q 42.70 17.33 42.61 17.14
  Q 41.87 15.52 40.28 15.91
  C 40.01 15.98 39.85 16.27 39.94 16.55
  Q 40.60 18.65 42.69 19.56
  Q 44.40 20.31 45.44 22.56
  Q 46.06 23.92 47.28 23.66
  C 47.63 23.58 47.95 23.67 48.08 23.87
  Q 48.45 24.44 47.91 24.95
  C 47.74 25.11 47.40 25.14 47.04 25.04
  Q 46.34 24.85 46.06 25.56
  Q 45.26 27.63 47.94 27.31
  Q 49.73 27.10 49.29 25.00"
/>
<path stroke="#4a3531" vector-effect="non-scaling-stroke" d="
  M 49.29 25.00
  L 49.75 24.96"
/>
<path stroke="#8e7473" vector-effect="non-scaling-stroke" d="
  M 49.75 24.96
  Q 51.15 24.89 52.04 23.75"
/>
<path stroke="#785f5c" vector-effect="non-scaling-stroke" d="
  M 52.04 23.75
  Q 52.70 24.22 53.50 24.29"
/>
<path stroke="#4a3531" vector-effect="non-scaling-stroke" d="
  M 53.50 24.29
  Q 53.76 24.67 54.25 24.46"
/>
<path stroke="#674a49" vector-effect="non-scaling-stroke" d="
  M 54.25 24.46
  Q 55.80 24.88 56.44 23.19
  Q 57.01 21.66 58.45 21.84
  C 58.82 21.88 59.15 21.79 59.30 21.60
  L 62.50 17.46"
/>
<path stroke="#4a3531" vector-effect="non-scaling-stroke" d="
  M 62.50 17.46
  Q 65.76 16.28 62.25 16.04"
/>
<path stroke="#674a49" vector-effect="non-scaling-stroke" d="
  M 62.25 16.04
  Q 58.39 14.98 54.50 16.04"
/>
<path stroke="#4a3531" vector-effect="non-scaling-stroke" d="
  M 54.50 16.04
  L 53.79 16.25"
/>
<path stroke="#785f5c" vector-effect="non-scaling-stroke" d="
  M 53.79 16.25
  Q 53.28 14.94 51.81 15.56
  Q 50.32 16.20 48.04 15.50"
/>
<path stroke="#8e7473" vector-effect="non-scaling-stroke" d="
  M 48.04 15.50
  Q 47.14 14.91 46.50 15.79"
/>
<path stroke="#dab2b4" vector-effect="non-scaling-stroke" d="
  M 48.04 15.50
  Q 48.07 16.08 47.71 16.50"
/>
<path stroke="#ac8888" vector-effect="non-scaling-stroke" d="
  M 47.71 16.50
  Q 46.94 17.19 47.41 17.88
  C 47.59 18.15 47.66 18.46 47.58 18.72
  Q 47.00 20.73 49.50 21.04"
/>
<path stroke="#dab2b4" vector-effect="non-scaling-stroke" d="
  M 49.50 21.04
  Q 49.63 21.37 49.96 21.50"
/>
<path stroke="#ac8888" vector-effect="non-scaling-stroke" d="
  M 49.96 21.50
  Q 49.82 22.62 48.98 23.29
  C 48.78 23.44 48.74 23.73 48.89 23.94
  Q 49.23 24.41 49.29 25.00"
/>
<path stroke="#c99da0" vector-effect="non-scaling-stroke" d="
  M 44.25 16.04
  L 46.07 18.79
  C 46.20 18.99 46.17 19.33 46.00 19.68
  Q 45.44 20.88 46.48 21.48
  Q 46.95 21.75 46.80 21.21
  Q 46.07 18.53 46.50 15.79"
/>
<path stroke="#967372" vector-effect="non-scaling-stroke" d="
  M 53.50 24.29
  Q 54.27 23.57 54.41 22.56
  C 54.45 22.26 54.25 21.99 53.96 21.94
  Q 52.56 21.70 52.04 23.25"
/>
<path stroke="#ac8888" vector-effect="non-scaling-stroke" d="
  M 52.04 23.25
  Q 49.25 22.27 49.75 24.96"
/>
<path stroke="#967372" vector-effect="non-scaling-stroke" d="
  M 53.79 16.25
  Q 54.49 18.39 55.18 20.52
  Q 55.55 21.63 54.56 21.69
  Q 53.34 21.76 52.94 19.31
  Q 52.53 16.85 51.92 18.28
  C 51.81 18.54 51.88 18.87 52.09 19.12
  Q 54.12 21.46 51.30 22.31
  C 50.97 22.41 50.63 22.32 50.44 22.09
  L 49.96 21.50"
/>
<path stroke="#967372" vector-effect="non-scaling-stroke" d="
  M 49.50 21.04
  Q 49.99 20.33 49.29 19.71
  Q 47.84 18.43 47.71 16.50"
/>
<path stroke="#855e5e" vector-effect="non-scaling-stroke" d="
  M 62.25 16.04
  Q 62.64 16.69 62.50 17.46"
/>
<path stroke="#855e5e" vector-effect="non-scaling-stroke" d="
  M 54.25 24.46
  L 55.53 21.69
  C 55.68 21.36 55.72 21.03 55.66 20.76
  L 54.50 16.04"
/>
<path stroke="#dab2b4" vector-effect="non-scaling-stroke" d="
  M 52.04 23.75
  Q 51.96 23.50 52.04 23.25"
/>
<path stroke="#785f5c" vector-effect="non-scaling-stroke" d="
  M 55.54 33.91
  Q 57.07 34.72 56.75 33.66
  C 56.67 33.38 56.39 33.19 56.07 33.21
  Q 52.76 33.34 54.94 33.70
  Q 55.24 33.75 55.54 33.91"
/>
<path stroke="#855e5e" vector-effect="non-scaling-stroke" d="
  M 58.46 18.77
  Q 58.66 18.54 58.63 18.26
  C 58.60 18.03 58.30 17.87 57.94 17.89
  Q 57.38 17.92 56.87 17.68
  C 56.67 17.59 56.45 17.74 56.47 17.94
  Q 56.59 19.33 57.25 20.57
  Q 57.52 21.07 57.67 20.53
  L 57.96 19.54
  Q 58.05 19.22 58.46 18.77"
/>
<path stroke="#96908d" vector-effect="non-scaling-stroke" d="
  M 41.3904 28.7434
  C 41.68 28.77 41.96 28.32 42.0269 27.7171
  C 42.09 27.12 41.92 26.61 41.6296 26.5766
  C 41.34 26.55 41.06 27.00 40.9931 27.6029
  C 40.93 28.20 41.10 28.71 41.3904 28.7434"
/>
<path stroke="#96908d" vector-effect="non-scaling-stroke" d="
  M 48.69 30.87
  Q 50.95 31.06 48.94 29.68
  Q 48.56 29.42 48.13 29.40
  Q 46.39 29.28 47.80 30.50
  C 48.05 30.71 48.36 30.84 48.69 30.87"
/>
<path stroke="#f8e3e5" vector-effect="non-scaling-stroke" d="
  M 49.80 33.76
  Q 50.35 33.04 50.19 32.49
  C 50.11 32.21 49.75 32.12 49.53 32.33
  Q 48.89 32.90 49.65 33.77
  C 49.69 33.82 49.76 33.81 49.80 33.76"
/>
<path stroke="#b4a4a3" vector-effect="non-scaling-stroke" d="
  M 40.21 39.29
  Q 39.36 40.25 40.69 40.59
  C 41.00 40.67 41.32 40.52 41.42 40.25
  Q 41.70 39.53 41.02 39.13
  C 40.76 38.98 40.42 39.05 40.21 39.29"
/>
<path stroke="#b4a4a3" vector-effect="non-scaling-stroke" d="
  M 49.04 43.31
  Q 48.90 41.49 47.61 43.15
  C 47.40 43.41 47.30 43.73 47.33 44.05
  Q 47.50 46.09 48.78 44.24
  C 48.97 43.96 49.07 43.63 49.04 43.31"
/>
<path stroke="#96908d" vector-effect="non-scaling-stroke" d="
  M 39.01 32.92
  C 39.58 33.37 40.43 33.13 40.68 32.45
  Q 41.37 30.58 39.73 30.88
  C 39.40 30.94 39.12 31.12 38.93 31.38
  Q 38.26 32.33 39.01 32.92"
/>
<path stroke="#8e857c" stroke-opacity="0.996" vector-effect="non-scaling-stroke" d="
  M 34.51 35.60
  Q 32.85 37.61 33.69 40.35
  C 33.80 40.72 34.26 40.85 34.55 40.59
  Q 36.35 38.98 35.24 35.74
  Q 34.99 35.01 34.51 35.60"
/>
<path stroke="#ad9992" stroke-opacity="0.996" vector-effect="non-scaling-stroke" d="
  M 47.04 50.10
  Q 45.07 52.00 46.98 51.65
  Q 48.50 51.36 47.97 50.27
  C 47.80 49.91 47.33 49.82 47.04 50.10"
/>
<path stroke="#ac8888" vector-effect="non-scaling-stroke" d="
  M 54.7784 52.3642
  C 54.76 52.01 54.30 51.75 53.7443 51.7810
  C 53.19 51.81 52.76 52.12 52.7816 52.4758
  C 52.80 52.83 53.26 53.09 53.8157 53.0590
  C 54.37 53.03 54.80 52.72 54.7784 52.3642"
/>
</g>
<path fill="#050305" fill-opacity="0.094" d="
  M 0.00 0.00
  Q 0.66 0.00 1.31 0.00
  Q 1.01 0.74 1.00 2.75
  Q 0.86 41.88 1.19 81.00
  Q 0.59 81.00 0.00 81.00
  Q 0.00 40.50 0.00 0.00
  Z"
/>
<path fill="#f2eadf" fill-opacity="0.988" d="
  M 1.31 0.00
  Q 41.19 0.00 81.06 0.00
  Q 81.00 40.50 80.94 81.00
  Q 41.06 81.00 1.19 81.00
  Q 0.86 41.88 1.00 2.75
  Q 1.01 0.74 1.31 0.00
  Z
  M 79.71 69.75
  Q 80.45 58.38 79.71 47.00
  Q 80.23 45.83 80.00 44.00
  Q 79.80 42.40 79.91 34.99
  Q 79.98 31.00 79.76 26.01
  Q 79.29 15.25 79.82 3.39
  Q 79.91 1.50 78.02 1.50
  Q 56.71 1.42 34.68 1.67
  Q 30.27 1.71 20.84 1.44
  Q 13.91 1.23 6.98 1.46
  Q 6.89 1.47 5.05 1.37
  Q 2.71 1.24 2.87 3.61
  Q 2.99 5.34 2.99 5.40
  Q 2.55 36.60 3.41 67.79
  Q 3.41 67.87 3.41 70.08
  Q 3.41 74.15 4.91 78.19
  C 5.21 79.00 5.97 79.55 6.83 79.57
  Q 15.31 79.78 24.08 79.90
  Q 25.55 79.92 29.76 79.52
  Q 32.50 79.25 35.50 79.50
  Q 39.00 79.79 43.37 79.57
  Q 44.11 79.53 45.61 79.74
  Q 46.75 79.90 47.89 79.71
  Q 50.13 79.32 51.15 79.43
  Q 53.00 79.62 54.85 79.78
  Q 56.58 79.93 58.53 79.85
  Q 68.23 79.41 77.95 79.69
  C 78.58 79.71 79.13 79.28 79.27 78.67
  Q 80.28 74.30 79.71 69.75
  Z"
/>
<path fill="#050305" fill-opacity="0.094" d="
  M 81.06 0.00
  Q 81.53 0.00 82.00 0.00
  Q 82.00 40.50 82.00 81.00
  Q 81.47 81.00 80.94 81.00
  Q 81.00 40.50 81.06 0.00
  Z"
/>
<path fill="#2c211b" d="
  M 79.71 47.00
  Q 79.36 47.59 78.96 47.50
  Q 79.52 31.73 77.84 16.07
  Q 77.61 13.93 78.15 11.11
  Q 78.78 7.81 78.74 3.78
  C 78.73 3.23 78.30 2.78 77.76 2.75
  Q 69.90 2.27 62.05 2.78
  Q 59.97 2.92 56.44 2.75
  Q 53.62 2.61 50.81 2.93
  Q 49.75 3.06 48.80 2.95
  Q 47.85 2.85 46.80 2.73
  C 46.50 2.69 46.22 2.87 46.12 3.16
  Q 44.80 6.96 41.74 8.93
  Q 41.36 9.18 41.58 8.77
  L 44.65 3.21
  C 44.89 2.78 44.56 2.25 44.06 2.25
  Q 42.45 2.25 41.61 2.90
  C 41.34 3.11 41.04 3.23 40.74 3.26
  Q 39.10 3.42 39.01 5.16
  Q 38.98 5.60 38.92 5.83
  Q 38.45 7.61 38.09 5.99
  Q 38.01 5.60 38.16 5.02
  Q 38.41 4.11 38.16 3.22
  C 38.08 2.93 37.82 2.73 37.51 2.71
  Q 35.66 2.60 33.00 3.25
  Q 30.20 3.94 26.00 3.25
  Q 23.26 2.80 21.18 2.95
  Q 17.36 3.22 17.28 3.22
  Q 11.98 3.16 6.69 3.41
  C 6.38 3.43 6.10 3.61 5.97 3.89
  Q 4.46 7.17 4.67 10.75
  Q 4.92 14.80 4.92 14.88
  Q 4.67 41.04 4.92 67.20
  Q 4.92 67.28 4.79 70.16
  Q 4.47 76.76 11.50 77.75
  Q 14.32 78.15 25.50 77.79
  Q 28.11 78.81 30.75 77.54
  Q 31.36 76.51 32.15 77.14
  C 32.35 77.31 32.64 77.29 32.79 77.10
  Q 33.68 76.02 34.35 77.23
  C 34.51 77.52 34.77 77.70 35.06 77.71
  Q 46.40 78.11 54.00 77.75
  Q 55.95 77.66 57.50 77.90
  Q 59.90 78.28 60.93 78.23
  Q 65.19 78.01 69.41 77.53
  Q 69.53 77.51 70.96 77.56
  Q 71.89 77.60 72.50 76.96
  C 72.70 76.75 73.01 76.70 73.23 76.83
  Q 78.04 79.82 78.66 74.75
  Q 78.74 74.09 78.53 72.27
  Q 78.39 71.02 78.54 69.75
  L 79.71 69.75
  Q 80.28 74.30 79.27 78.67
  C 79.13 79.28 78.58 79.71 77.95 79.69
  Q 68.23 79.41 58.53 79.85
  Q 56.58 79.93 54.85 79.78
  Q 53.00 79.62 51.15 79.43
  Q 50.13 79.32 47.89 79.71
  Q 46.75 79.90 45.61 79.74
  Q 44.11 79.53 43.37 79.57
  Q 39.00 79.79 35.50 79.50
  Q 32.50 79.25 29.76 79.52
  Q 25.55 79.92 24.08 79.90
  Q 15.31 79.78 6.83 79.57
  C 5.97 79.55 5.21 79.00 4.91 78.19
  Q 3.41 74.15 3.41 70.08
  Q 3.41 67.87 3.41 67.79
  Q 2.55 36.60 2.99 5.40
  Q 2.99 5.34 2.87 3.61
  Q 2.71 1.24 5.05 1.37
  Q 6.89 1.47 6.98 1.46
  Q 13.91 1.23 20.84 1.44
  Q 30.27 1.71 34.68 1.67
  Q 56.71 1.42 78.02 1.50
  Q 79.91 1.50 79.82 3.39
  Q 79.29 15.25 79.76 26.01
  Q 79.98 31.00 79.91 34.99
  Q 79.80 42.40 80.00 44.00
  Q 80.23 45.83 79.71 47.00
  Z"
/>
<path fill="#ffffff" d="
  M 78.96 47.50
  L 78.54 69.75
  Q 78.39 71.02 78.53 72.27
  Q 78.74 74.09 78.66 74.75
  Q 78.04 79.82 73.23 76.83
  C 73.01 76.70 72.70 76.75 72.50 76.96
  Q 71.89 77.60 70.96 77.56
  Q 69.53 77.51 69.41 77.53
  Q 65.19 78.01 60.93 78.23
  Q 59.90 78.28 57.50 77.90
  Q 55.95 77.66 54.00 77.75
  Q 46.40 78.11 35.06 77.71
  C 34.77 77.70 34.51 77.52 34.35 77.23
  Q 33.68 76.02 32.79 77.10
  C 32.64 77.29 32.35 77.31 32.15 77.14
  Q 31.36 76.51 30.75 77.54
  L 25.50 77.79
  Q 14.32 78.15 11.50 77.75
  Q 4.47 76.76 4.79 70.16
  Q 4.92 67.28 4.92 67.20
  Q 4.67 41.04 4.92 14.88
  Q 4.92 14.80 4.67 10.75
  Q 4.46 7.17 5.97 3.89
  C 6.10 3.61 6.38 3.43 6.69 3.41
  Q 11.98 3.16 17.28 3.22
  Q 17.36 3.22 21.18 2.95
  Q 23.26 2.80 26.00 3.25
  Q 30.20 3.94 33.00 3.25
  Q 35.66 2.60 37.51 2.71
  C 37.82 2.73 38.08 2.93 38.16 3.22
  Q 38.41 4.11 38.16 5.02
  Q 38.01 5.60 38.09 5.99
  Q 38.45 7.61 38.92 5.83
  Q 38.98 5.60 39.01 5.16
  Q 39.10 3.42 40.74 3.26
  C 41.04 3.23 41.34 3.11 41.61 2.90
  Q 42.45 2.25 44.06 2.25
  C 44.56 2.25 44.89 2.78 44.65 3.21
  L 41.58 8.77
  Q 41.36 9.18 41.74 8.93
  Q 44.80 6.96 46.12 3.16
  C 46.22 2.87 46.50 2.69 46.80 2.73
  Q 47.85 2.85 48.80 2.95
  Q 49.75 3.06 50.81 2.93
  Q 53.62 2.61 56.44 2.75
  Q 59.97 2.92 62.05 2.78
  Q 69.90 2.27 77.76 2.75
  C 78.30 2.78 78.73 3.23 78.74 3.78
  Q 78.78 7.81 78.15 11.11
  Q 77.61 13.93 77.84 16.07
  Q 79.52 31.73 78.96 47.50
  Z
  M 16.29 64.50
  Q 18.57 70.51 19.50 63.54
  L 19.75 63.46
  Q 24.57 64.81 29.71 64.30
  Q 30.50 64.22 29.93 63.67
  Q 28.08 61.87 26.74 63.26
  Q 25.68 64.36 25.44 62.86
  Q 25.20 61.42 26.22 59.96
  Q 26.68 59.30 26.43 58.89
  C 26.31 58.68 25.97 58.71 25.76 58.95
  L 23.50 61.54
  Q 22.17 61.66 22.00 62.96
  Q 21.04 63.22 20.21 62.75
  Q 20.26 61.30 21.35 60.36
  Q 24.65 57.52 28.06 54.81
  Q 29.44 53.72 32.96 54.00
  Q 33.51 54.46 34.25 54.21
  Q 35.44 54.98 36.64 54.33
  C 36.92 54.18 37.24 54.13 37.54 54.19
  Q 39.39 54.57 40.75 53.21
  L 42.46 53.25
  Q 43.09 54.20 44.00 54.25
  Q 48.34 54.50 57.00 54.46
  Q 60.52 55.11 62.00 58.29
  L 61.71 60.75
  Q 61.37 61.58 61.46 62.50
  Q 60.49 64.02 58.54 63.38
  Q 57.47 63.04 56.41 62.65
  Q 55.95 62.48 55.57 62.55
  Q 54.60 62.71 55.02 63.35
  Q 55.24 63.67 55.75 63.84
  Q 59.40 65.05 63.02 63.91
  Q 63.48 63.77 63.99 63.87
  Q 65.49 64.19 67.00 63.71
  Q 67.94 63.88 68.24 62.95
  Q 69.14 60.22 71.36 58.44
  Q 71.70 58.16 71.89 57.83
  Q 74.03 54.02 70.62 57.52
  C 70.24 57.90 69.60 57.78 69.38 57.29
  Q 68.46 55.21 68.05 53.29
  Q 67.65 51.49 67.37 53.07
  Q 67.11 54.53 67.75 55.81
  C 67.92 56.15 67.94 56.50 67.82 56.72
  L 67.50 57.29
  Q 64.25 54.93 61.19 52.31
  Q 60.41 51.65 59.00 52.29
  Q 57.65 51.47 58.04 50.05
  Q 58.26 49.27 58.26 48.92
  Q 58.26 48.34 58.21 47.75
  Q 58.77 43.33 58.00 38.96
  Q 56.92 34.10 59.50 30.04
  L 65.50 23.54
  Q 67.28 23.14 67.29 25.25
  Q 65.60 26.39 66.84 27.33
  Q 67.25 27.65 67.41 27.93
  Q 67.61 28.31 67.75 28.71
  L 66.50 29.04
  Q 63.78 27.75 63.53 30.41
  Q 63.46 31.07 63.72 31.54
  Q 64.28 32.59 65.25 31.27
  Q 65.97 30.29 66.96 30.52
  C 67.22 30.57 67.37 30.86 67.29 31.15
  Q 66.90 32.66 67.57 34.00
  Q 67.81 34.50 68.06 34.01
  Q 68.98 32.24 68.21 30.25
  Q 68.85 29.48 68.25 28.71
  Q 68.69 27.38 67.79 26.40
  Q 67.51 26.11 67.50 25.89
  Q 67.49 25.56 67.75 25.29
  Q 68.43 22.43 67.75 19.54
  Q 68.18 19.27 67.96 18.75
  L 66.94 13.20
  Q 66.72 12.00 66.18 13.15
  Q 64.95 15.77 62.20 14.48
  C 61.93 14.35 61.61 14.38 61.33 14.54
  Q 59.92 15.39 59.20 13.97
  C 59.07 13.71 58.78 13.59 58.53 13.68
  Q 55.26 14.89 51.97 13.68
  C 51.68 13.58 51.37 13.64 51.13 13.84
  L 50.14 14.69
  C 49.95 14.85 49.64 14.81 49.47 14.59
  Q 48.89 13.84 48.25 14.00
  Q 45.38 14.71 38.94 14.69
  Q 36.70 14.68 37.51 13.29
  Q 37.75 12.87 38.55 12.27
  Q 39.82 11.32 40.68 9.99
  Q 40.97 9.54 40.59 9.91
  Q 38.03 12.44 34.73 13.80
  Q 32.39 14.75 32.31 14.77
  Q 31.07 15.03 29.56 14.28
  Q 27.74 13.38 25.98 14.40
  Q 24.44 15.30 23.08 13.88
  C 22.84 13.63 22.53 13.50 22.25 13.53
  Q 20.83 13.68 19.66 14.45
  C 19.40 14.62 19.08 14.65 18.81 14.51
  L 15.31 12.69
  Q 14.10 12.06 14.68 13.30
  Q 15.57 15.20 16.09 17.22
  Q 16.45 18.65 16.20 21.30
  Q 15.92 24.25 16.52 27.20
  Q 17.15 30.28 16.71 33.30
  Q 16.35 35.80 16.63 37.73
  Q 17.44 43.33 16.83 48.95
  Q 16.55 51.62 16.85 54.69
  Q 17.33 59.60 16.29 64.50
  Z
  M 67.8283 40.2895
  C 68.13 40.28 68.35 39.32 68.3199 38.1477
  C 68.29 36.97 68.03 36.02 67.7317 36.0305
  C 67.43 36.04 67.21 37.00 67.2401 38.1723
  C 67.27 39.35 67.53 40.30 67.8283 40.2895
  Z
  M 67.9548 49.6100
  C 68.36 49.61 68.69 48.37 68.6900 46.8387
  C 68.69 45.31 68.35 44.07 67.9452 44.0700
  C 67.54 44.07 67.21 45.31 67.2100 46.8413
  C 67.21 48.37 67.55 49.61 67.9548 49.6100
  Z
  M 51.79 59.27
  Q 51.65 57.23 51.08 59.00
  Q 51.00 59.25 51.06 59.50
  Q 51.39 60.76 51.72 59.85
  Q 51.82 59.59 51.79 59.27
  Z
  M 38.25 63.75
  C 37.65 64.00 37.02 63.87 36.81 63.44
  Q 35.99 61.74 35.66 62.95
  C 35.58 63.24 35.72 63.54 35.99 63.69
  Q 36.98 64.21 38.11 64.30
  Q 38.72 64.34 39.26 64.47
  Q 41.13 64.90 40.23 63.47
  C 40.06 63.22 39.74 63.11 39.47 63.23
  L 38.25 63.75
  Z
  M 50.91 62.60
  Q 49.27 62.28 49.79 63.27
  C 49.93 63.53 50.24 63.67 50.56 63.63
  Q 55.50 63.08 51.71 62.72
  Q 51.40 62.69 50.91 62.60
  Z
  M 13.04 69.00
  Q 13.21 72.18 10.19 71.56
  Q 9.36 71.39 8.78 71.52
  C 8.54 71.57 8.29 71.44 8.16 71.21
  L 6.83 68.88
  Q 6.54 68.36 6.24 68.93
  Q 5.38 70.61 6.81 71.94
  Q 9.14 74.10 11.00 73.50
  Q 14.76 72.28 13.50 68.71
  Q 13.16 67.12 11.71 67.32
  Q 10.43 67.49 11.01 67.87
  Q 11.18 67.98 11.53 68.00
  Q 12.64 68.07 13.04 69.00
  Z
  M 69.54 71.02
  Q 68.75 70.75 66.88 70.32
  Q 65.95 70.10 66.56 70.83
  Q 68.05 72.62 69.68 72.70
  C 70.01 72.72 70.31 72.52 70.40 72.23
  Q 70.63 71.39 69.54 71.02
  Z"
/>
<path fill="#2c211b" d="
  M 67.96 18.75
  L 66.93 16.81
  C 66.75 16.47 66.33 16.37 66.08 16.60
  Q 61.15 21.19 58.56 26.06
  Q 57.52 28.03 58.54 29.50
  Q 58.73 30.15 59.50 30.04
  Q 56.92 34.10 58.00 38.96
  L 57.29 39.00
  Q 56.59 37.57 55.39 36.56
  C 55.14 36.35 54.80 36.32 54.57 36.49
  Q 53.67 37.14 53.96 38.50
  L 53.25 38.54
  L 51.69 37.81
  C 51.41 37.68 51.22 37.48 51.23 37.30
  Q 51.24 36.93 51.75 37.00
  Q 54.74 37.43 54.00 35.25
  Q 53.43 33.55 51.79 34.25
  L 51.21 33.75
  Q 51.82 33.00 52.75 32.71
  Q 54.23 33.39 54.00 31.54
  Q 58.08 30.11 55.22 27.53
  Q 54.35 26.75 53.71 27.52
  C 53.52 27.76 53.21 27.84 53.01 27.70
  Q 52.09 27.09 51.81 25.94
  Q 51.49 24.56 50.50 26.00
  Q 48.98 28.22 46.43 28.10
  C 46.11 28.09 45.81 27.93 45.62 27.68
  Q 44.95 26.79 44.75 25.68
  C 44.71 25.41 44.79 25.09 44.99 24.80
  Q 45.63 23.87 44.81 23.64
  C 44.52 23.56 44.21 23.72 44.10 24.02
  L 43.84 24.71
  C 43.71 25.04 43.43 25.24 43.18 25.19
  L 39.75 24.46
  Q 40.23 22.70 39.12 21.36
  Q 38.45 20.54 39.04 19.75
  Q 40.40 20.72 40.55 22.19
  C 40.58 22.51 40.76 22.78 41.02 22.88
  Q 44.89 24.46 43.17 21.01
  C 43.04 20.75 42.78 20.54 42.45 20.43
  Q 40.79 19.91 39.91 18.33
  Q 39.12 16.89 37.75 16.21
  Q 36.87 15.12 35.76 15.49
  C 35.51 15.57 35.24 15.46 35.14 15.22
  Q 34.45 13.38 34.33 15.21
  C 34.32 15.42 34.43 15.72 34.64 16.04
  Q 34.88 16.41 34.75 16.81
  C 34.68 17.03 34.37 17.13 34.05 17.04
  L 29.00 15.56
  Q 28.46 15.41 28.12 15.18
  Q 27.47 14.74 26.97 15.28
  C 26.74 15.53 26.45 15.67 26.18 15.66
  Q 22.24 15.48 18.69 17.27
  C 18.42 17.41 18.23 17.69 18.20 18.01
  Q 17.51 24.97 18.50 32.75
  Q 18.63 33.80 18.19 35.04
  Q 18.01 35.53 18.07 36.00
  Q 18.90 42.14 18.32 48.28
  Q 18.07 51.02 18.20 53.75
  Q 18.33 56.39 18.23 59.25
  Q 18.19 60.53 19.18 59.76
  L 26.17 54.39
  Q 26.56 54.09 27.05 54.03
  Q 29.01 53.76 30.19 51.69
  Q 30.85 50.53 31.29 51.50
  Q 31.06 52.17 31.26 52.47
  C 31.36 52.62 31.72 52.59 32.09 52.41
  Q 32.80 52.06 33.50 52.79
  L 32.96 54.00
  Q 29.44 53.72 28.06 54.81
  Q 24.65 57.52 21.35 60.36
  Q 20.26 61.30 20.21 62.75
  L 19.75 63.46
  L 19.50 63.54
  Q 17.74 63.24 16.29 64.50
  Q 17.33 59.60 16.85 54.69
  Q 16.55 51.62 16.83 48.95
  Q 17.44 43.33 16.63 37.73
  Q 16.35 35.80 16.71 33.30
  Q 17.15 30.28 16.52 27.20
  Q 15.92 24.25 16.20 21.30
  Q 16.45 18.65 16.09 17.22
  Q 15.57 15.20 14.68 13.30
  Q 14.10 12.06 15.31 12.69
  L 18.81 14.51
  C 19.08 14.65 19.40 14.62 19.66 14.45
  Q 20.83 13.68 22.25 13.53
  C 22.53 13.50 22.84 13.63 23.08 13.88
  Q 24.44 15.30 25.98 14.40
  Q 27.74 13.38 29.56 14.28
  Q 31.07 15.03 32.31 14.77
  Q 32.39 14.75 34.73 13.80
  Q 38.03 12.44 40.59 9.91
  Q 40.97 9.54 40.68 9.99
  Q 39.82 11.32 38.55 12.27
  Q 37.75 12.87 37.51 13.29
  Q 36.70 14.68 38.94 14.69
  Q 45.38 14.71 48.25 14.00
  Q 48.89 13.84 49.47 14.59
  C 49.64 14.81 49.95 14.85 50.14 14.69
  L 51.13 13.84
  C 51.37 13.64 51.68 13.58 51.97 13.68
  Q 55.26 14.89 58.53 13.68
  C 58.78 13.59 59.07 13.71 59.20 13.97
  Q 59.92 15.39 61.33 14.54
  C 61.61 14.38 61.93 14.35 62.20 14.48
  Q 64.95 15.77 66.18 13.15
  Q 66.72 12.00 66.94 13.20
  L 67.96 18.75
  Z
  M 46.50 15.79
  Q 45.35 15.67 44.25 16.04
  Q 41.84 15.27 43.08 16.92
  Q 43.19 17.08 43.27 17.22
  Q 44.18 19.13 42.81 17.46
  Q 42.70 17.33 42.61 17.14
  Q 41.87 15.52 40.28 15.91
  C 40.01 15.98 39.85 16.27 39.94 16.55
  Q 40.60 18.65 42.69 19.56
  Q 44.40 20.31 45.44 22.56
  Q 46.06 23.92 47.28 23.66
  C 47.63 23.58 47.95 23.67 48.08 23.87
  Q 48.45 24.44 47.91 24.95
  C 47.74 25.11 47.40 25.14 47.04 25.04
  Q 46.34 24.85 46.06 25.56
  Q 45.26 27.63 47.94 27.31
  Q 49.73 27.10 49.29 25.00
  L 49.75 24.96
  Q 51.15 24.89 52.04 23.75
  Q 52.70 24.22 53.50 24.29
  Q 53.76 24.67 54.25 24.46
  Q 55.80 24.88 56.44 23.19
  Q 57.01 21.66 58.45 21.84
  C 58.82 21.88 59.15 21.79 59.30 21.60
  L 62.50 17.46
  Q 65.76 16.28 62.25 16.04
  Q 58.39 14.98 54.50 16.04
  L 53.79 16.25
  Q 53.28 14.94 51.81 15.56
  Q 50.32 16.20 48.04 15.50
  Q 47.14 14.91 46.50 15.79
  Z
  M 55.54 33.91
  Q 57.07 34.72 56.75 33.66
  C 56.67 33.38 56.39 33.19 56.07 33.21
  Q 52.76 33.34 54.94 33.70
  Q 55.24 33.75 55.54 33.91
  Z"
/>
<path fill="#902333" d="
  M 37.75 16.21
  Q 36.56 16.71 37.14 17.67
  C 37.26 17.87 37.55 18.03 37.93 18.12
  Q 39.05 18.39 39.04 19.75
  Q 38.45 20.54 39.12 21.36
  Q 40.23 22.70 39.75 24.46
  Q 38.51 25.13 39.00 26.71
  Q 38.29 27.69 38.54 29.00
  Q 37.14 28.52 36.04 29.50
  Q 35.86 28.39 34.79 28.25
  Q 34.36 27.80 33.75 28.04
  Q 33.38 26.49 32.04 27.25
  Q 32.11 26.41 31.56 26.30
  C 31.27 26.23 30.94 26.39 30.74 26.69
  Q 30.25 27.44 30.89 28.16
  C 31.03 28.31 30.97 28.55 30.77 28.65
  Q 30.04 29.01 30.21 30.00
  Q 28.20 32.67 31.25 34.04
  Q 31.09 36.09 32.71 35.25
  L 32.25 42.21
  Q 31.25 43.31 32.25 44.29
  L 33.21 47.25
  Q 32.76 48.41 33.50 49.46
  Q 33.04 49.83 33.50 50.21
  Q 31.95 50.11 31.29 51.50
  Q 30.85 50.53 30.19 51.69
  Q 29.01 53.76 27.05 54.03
  Q 26.56 54.09 26.17 54.39
  L 19.18 59.76
  Q 18.19 60.53 18.23 59.25
  Q 18.33 56.39 18.20 53.75
  Q 18.07 51.02 18.32 48.28
  Q 18.90 42.14 18.07 36.00
  Q 18.01 35.53 18.19 35.04
  Q 18.63 33.80 18.50 32.75
  Q 17.51 24.97 18.20 18.01
  C 18.23 17.69 18.42 17.41 18.69 17.27
  Q 22.24 15.48 26.18 15.66
  C 26.45 15.67 26.74 15.53 26.97 15.28
  Q 27.47 14.74 28.12 15.18
  Q 28.46 15.41 29.00 15.56
  L 34.05 17.04
  C 34.37 17.13 34.68 17.03 34.75 16.81
  Q 34.88 16.41 34.64 16.04
  C 34.43 15.72 34.32 15.42 34.33 15.21
  Q 34.45 13.38 35.14 15.22
  C 35.24 15.46 35.51 15.57 35.76 15.49
  Q 36.87 15.12 37.75 16.21
  Z"
/>
<path fill="#f0c7ca" d="
  M 48.04 15.50
  Q 48.07 16.08 47.71 16.50
  Q 46.94 17.19 47.41 17.88
  C 47.59 18.15 47.66 18.46 47.58 18.72
  Q 47.00 20.73 49.50 21.04
  Q 49.63 21.37 49.96 21.50
  Q 49.82 22.62 48.98 23.29
  C 48.78 23.44 48.74 23.73 48.89 23.94
  Q 49.23 24.41 49.29 25.00
  Q 49.73 27.10 47.94 27.31
  Q 45.26 27.63 46.06 25.56
  Q 46.34 24.85 47.04 25.04
  C 47.40 25.14 47.74 25.11 47.91 24.95
  Q 48.45 24.44 48.08 23.87
  C 47.95 23.67 47.63 23.58 47.28 23.66
  Q 46.06 23.92 45.44 22.56
  Q 44.40 20.31 42.69 19.56
  Q 40.60 18.65 39.94 16.55
  C 39.85 16.27 40.01 15.98 40.28 15.91
  Q 41.87 15.52 42.61 17.14
  Q 42.70 17.33 42.81 17.46
  Q 44.18 19.13 43.27 17.22
  Q 43.19 17.08 43.08 16.92
  Q 41.84 15.27 44.25 16.04
  L 46.07 18.79
  C 46.20 18.99 46.17 19.33 46.00 19.68
  Q 45.44 20.88 46.48 21.48
  Q 46.95 21.75 46.80 21.21
  Q 46.07 18.53 46.50 15.79
  Q 47.14 14.91 48.04 15.50
  Z"
/>
<path fill="#c39c9d" d="
  M 53.79 16.25
  Q 54.49 18.39 55.18 20.52
  Q 55.55 21.63 54.56 21.69
  Q 53.34 21.76 52.94 19.31
  Q 52.53 16.85 51.92 18.28
  C 51.81 18.54 51.88 18.87 52.09 19.12
  Q 54.12 21.46 51.30 22.31
  C 50.97 22.41 50.63 22.32 50.44 22.09
  L 49.96 21.50
  Q 49.63 21.37 49.50 21.04
  Q 49.99 20.33 49.29 19.71
  Q 47.84 18.43 47.71 16.50
  Q 48.07 16.08 48.04 15.50
  Q 50.32 16.20 51.81 15.56
  Q 53.28 14.94 53.79 16.25
  Z"
/>
<path fill="#a17376" d="
  M 62.25 16.04
  Q 62.64 16.69 62.50 17.46
  L 59.30 21.60
  C 59.15 21.79 58.82 21.88 58.45 21.84
  Q 57.01 21.66 56.44 23.19
  Q 55.80 24.88 54.25 24.46
  L 55.53 21.69
  C 55.68 21.36 55.72 21.03 55.66 20.76
  L 54.50 16.04
  Q 58.39 14.98 62.25 16.04
  Z
  M 58.46 18.77
  Q 58.66 18.54 58.63 18.26
  C 58.60 18.03 58.30 17.87 57.94 17.89
  Q 57.38 17.92 56.87 17.68
  C 56.67 17.59 56.45 17.74 56.47 17.94
  Q 56.59 19.33 57.25 20.57
  Q 57.52 21.07 57.67 20.53
  L 57.96 19.54
  Q 58.05 19.22 58.46 18.77
  Z"
/>
<path fill="#a17376" d="
  M 46.50 15.79
  Q 46.07 18.53 46.80 21.21
  Q 46.95 21.75 46.48 21.48
  Q 45.44 20.88 46.00 19.68
  C 46.17 19.33 46.20 18.99 46.07 18.79
  L 44.25 16.04
  Q 45.35 15.67 46.50 15.79
  Z"
/>
<path fill="#684946" d="
  M 54.50 16.04
  L 55.66 20.76
  C 55.72 21.03 55.68 21.36 55.53 21.69
  L 54.25 24.46
  Q 53.76 24.67 53.50 24.29
  Q 54.27 23.57 54.41 22.56
  C 54.45 22.26 54.25 21.99 53.96 21.94
  Q 52.56 21.70 52.04 23.25
  Q 49.25 22.27 49.75 24.96
  L 49.29 25.00
  Q 49.23 24.41 48.89 23.94
  C 48.74 23.73 48.78 23.44 48.98 23.29
  Q 49.82 22.62 49.96 21.50
  L 50.44 22.09
  C 50.63 22.32 50.97 22.41 51.30 22.31
  Q 54.12 21.46 52.09 19.12
  C 51.88 18.87 51.81 18.54 51.92 18.28
  Q 52.53 16.85 52.94 19.31
  Q 53.34 21.76 54.56 21.69
  Q 55.55 21.63 55.18 20.52
  Q 54.49 18.39 53.79 16.25
  L 54.50 16.04
  Z"
/>
<path fill="#684946" d="
  M 62.25 16.04
  Q 65.76 16.28 62.50 17.46
  Q 62.64 16.69 62.25 16.04
  Z"
/>
<path fill="#f0c7ca" d="
  M 37.75 16.21
  Q 39.12 16.89 39.91 18.33
  Q 40.79 19.91 42.45 20.43
  C 42.78 20.54 43.04 20.75 43.17 21.01
  Q 44.89 24.46 41.02 22.88
  C 40.76 22.78 40.58 22.51 40.55 22.19
  Q 40.40 20.72 39.04 19.75
  Q 39.05 18.39 37.93 18.12
  C 37.55 18.03 37.26 17.87 37.14 17.67
  Q 36.56 16.71 37.75 16.21
  Z"
/>
<path fill="#ffffff" d="
  M 67.96 18.75
  Q 68.18 19.27 67.75 19.54
  L 64.46 23.25
  L 58.54 29.50
  Q 57.52 28.03 58.56 26.06
  Q 61.15 21.19 66.08 16.60
  C 66.33 16.37 66.75 16.47 66.93 16.81
  L 67.96 18.75
  Z"
/>
<path fill="#684946" d="
  M 47.71 16.50
  Q 47.84 18.43 49.29 19.71
  Q 49.99 20.33 49.50 21.04
  Q 47.00 20.73 47.58 18.72
  C 47.66 18.46 47.59 18.15 47.41 17.88
  Q 46.94 17.19 47.71 16.50
  Z"
/>
<path fill="#684946" d="
  M 57.96 19.54
  L 57.67 20.53
  Q 57.52 21.07 57.25 20.57
  Q 56.59 19.33 56.47 17.94
  C 56.45 17.74 56.67 17.59 56.87 17.68
  Q 57.38 17.92 57.94 17.89
  C 58.30 17.87 58.60 18.03 58.63 18.26
  Q 58.66 18.54 58.46 18.77
  Q 58.05 19.22 57.96 19.54
  Z"
/>
<path fill="#684946" d="
  M 67.75 19.54
  Q 68.43 22.43 67.75 25.29
  L 67.29 25.25
  Q 67.28 23.14 65.50 23.54
  Q 64.83 23.64 64.46 23.25
  L 67.75 19.54
  Z"
/>
<path fill="#c39c9d" d="
  M 53.50 24.29
  Q 52.70 24.22 52.04 23.75
  Q 51.96 23.50 52.04 23.25
  Q 52.56 21.70 53.96 21.94
  C 54.25 21.99 54.45 22.26 54.41 22.56
  Q 54.27 23.57 53.50 24.29
  Z"
/>
<path fill="#f0c7ca" d="
  M 52.04 23.25
  Q 51.96 23.50 52.04 23.75
  Q 51.15 24.89 49.75 24.96
  Q 49.25 22.27 52.04 23.25
  Z"
/>
<path fill="#a17376" d="
  M 64.46 23.25
  Q 64.83 23.64 65.50 23.54
  L 59.50 30.04
  Q 58.73 30.15 58.54 29.50
  L 64.46 23.25
  Z"
/>
<path fill="#ffffff" d="
  M 54.00 31.54
  Q 53.75 31.46 53.50 31.54
  Q 52.24 31.12 51.54 30.00
  Q 51.55 29.17 50.98 28.88
  C 50.71 28.74 50.36 28.86 50.20 29.15
  Q 49.79 29.90 50.75 30.29
  Q 51.40 31.58 52.71 32.25
  L 52.75 32.71
  Q 51.82 33.00 51.21 33.75
  Q 50.47 34.71 51.10 35.57
  Q 51.35 35.91 51.48 35.44
  L 51.79 34.25
  Q 53.43 33.55 54.00 35.25
  Q 54.74 37.43 51.75 37.00
  Q 51.24 36.93 51.23 37.30
  C 51.22 37.48 51.41 37.68 51.69 37.81
  L 53.25 38.54
  Q 54.00 40.78 57.05 41.76
  C 57.33 41.84 57.51 42.08 57.50 42.34
  L 57.29 47.75
  Q 55.99 48.71 55.46 46.50
  Q 51.47 42.26 50.13 47.76
  Q 50.04 48.14 49.85 48.30
  Q 49.60 48.52 49.25 48.54
  Q 48.50 47.33 47.89 48.48
  C 47.74 48.78 47.50 49.00 47.22 49.10
  Q 44.63 50.05 42.75 52.04
  L 42.04 52.00
  Q 41.55 51.05 40.50 51.26
  Q 38.27 51.72 35.55 52.45
  C 35.27 52.53 35.00 52.29 35.03 52.00
  Q 35.36 48.96 34.29 46.52
  Q 33.30 44.28 34.32 42.04
  C 34.58 41.46 35.24 41.18 35.84 41.37
  Q 38.30 42.17 37.82 41.11
  C 37.72 40.88 37.45 40.68 37.08 40.55
  Q 35.37 39.96 36.44 38.40
  C 36.62 38.14 36.70 37.82 36.65 37.51
  Q 36.37 35.78 37.42 34.39
  Q 37.67 34.07 37.27 34.08
  Q 36.71 34.11 36.44 33.71
  C 36.28 33.48 36.38 33.14 36.66 32.97
  Q 38.05 32.14 38.46 33.45
  C 38.56 33.77 38.79 34.01 39.06 34.06
  Q 40.63 34.32 41.51 32.93
  C 41.68 32.66 41.71 32.32 41.57 32.03
  L 39.00 26.71
  Q 38.51 25.13 39.75 24.46
  L 43.18 25.19
  C 43.43 25.24 43.71 25.04 43.84 24.71
  L 44.10 24.02
  C 44.21 23.72 44.52 23.56 44.81 23.64
  Q 45.63 23.87 44.99 24.80
  C 44.79 25.09 44.71 25.41 44.75 25.68
  Q 44.95 26.79 45.62 27.68
  C 45.81 27.93 46.11 28.09 46.43 28.10
  Q 48.98 28.22 50.50 26.00
  Q 51.49 24.56 51.81 25.94
  Q 52.09 27.09 53.01 27.70
  C 53.21 27.84 53.52 27.76 53.71 27.52
  Q 54.35 26.75 55.22 27.53
  Q 58.08 30.11 54.00 31.54
  Z
  M 41.3904 28.7434
  C 41.68 28.77 41.96 28.32 42.0269 27.7171
  C 42.09 27.12 41.92 26.61 41.6296 26.5766
  C 41.34 26.55 41.06 27.00 40.9931 27.6029
  C 40.93 28.20 41.10 28.71 41.3904 28.7434
  Z
  M 48.69 30.87
  Q 50.95 31.06 48.94 29.68
  Q 48.56 29.42 48.13 29.40
  Q 46.39 29.28 47.80 30.50
  C 48.05 30.71 48.36 30.84 48.69 30.87
  Z
  M 49.80 33.76
  Q 50.35 33.04 50.19 32.49
  C 50.11 32.21 49.75 32.12 49.53 32.33
  Q 48.89 32.90 49.65 33.77
  C 49.69 33.82 49.76 33.81 49.80 33.76
  Z
  M 40.21 39.29
  Q 39.36 40.25 40.69 40.59
  C 41.00 40.67 41.32 40.52 41.42 40.25
  Q 41.70 39.53 41.02 39.13
  C 40.76 38.98 40.42 39.05 40.21 39.29
  Z
  M 49.04 43.31
  Q 48.90 41.49 47.61 43.15
  C 47.40 43.41 47.30 43.73 47.33 44.05
  Q 47.50 46.09 48.78 44.24
  C 48.97 43.96 49.07 43.63 49.04 43.31
  Z"
/>
<path fill="#a17376" d="
  M 67.29 25.25
  L 67.75 25.29
  Q 67.49 25.56 67.50 25.89
  Q 67.51 26.11 67.79 26.40
  Q 68.69 27.38 68.25 28.71
  Q 68.00 28.79 67.75 28.71
  Q 67.61 28.31 67.41 27.93
  Q 67.25 27.65 66.84 27.33
  Q 65.60 26.39 67.29 25.25
  Z"
/>
<path fill="#f0c7ca" d="
  M 32.04 27.25
  Q 31.55 29.66 32.27 32.05
  C 32.46 32.70 31.90 33.33 31.23 33.20
  Q 29.74 32.91 30.06 31.39
  C 30.11 31.14 30.35 30.94 30.65 30.89
  Q 31.82 30.70 30.21 30.00
  Q 30.04 29.01 30.77 28.65
  C 30.97 28.55 31.03 28.31 30.89 28.16
  Q 30.25 27.44 30.74 26.69
  C 30.94 26.39 31.27 26.23 31.56 26.30
  Q 32.11 26.41 32.04 27.25
  Z"
/>
<ellipse fill="#2c211b" cx="0.00" cy="0.00" transform="translate(41.51,27.66) rotate(96.3)" rx="1.09" ry="0.52"/>
<path fill="#2c211b" d="
  M 39.00 26.71
  L 41.57 32.03
  C 41.71 32.32 41.68 32.66 41.51 32.93
  Q 40.63 34.32 39.06 34.06
  C 38.79 34.01 38.56 33.77 38.46 33.45
  Q 38.05 32.14 36.66 32.97
  C 36.38 33.14 36.28 33.48 36.44 33.71
  Q 36.71 34.11 37.27 34.08
  Q 37.67 34.07 37.42 34.39
  Q 36.37 35.78 36.65 37.51
  C 36.70 37.82 36.62 38.14 36.44 38.40
  Q 35.37 39.96 37.08 40.55
  C 37.45 40.68 37.72 40.88 37.82 41.11
  Q 38.30 42.17 35.84 41.37
  C 35.24 41.18 34.58 41.46 34.32 42.04
  Q 33.30 44.28 34.29 46.52
  Q 35.36 48.96 35.03 52.00
  C 35.00 52.29 35.27 52.53 35.55 52.45
  Q 38.27 51.72 40.50 51.26
  Q 41.55 51.05 42.04 52.00
  Q 41.70 52.93 40.75 53.21
  Q 39.39 54.57 37.54 54.19
  C 37.24 54.13 36.92 54.18 36.64 54.33
  Q 35.44 54.98 34.25 54.21
  Q 33.88 53.54 33.96 52.75
  Q 34.38 51.29 33.50 50.21
  Q 33.04 49.83 33.50 49.46
  Q 34.50 48.37 33.21 47.25
  L 32.25 44.29
  Q 34.00 43.25 32.25 42.21
  L 32.71 35.25
  Q 33.24 33.28 31.25 34.04
  Q 28.20 32.67 30.21 30.00
  Q 31.82 30.70 30.65 30.89
  C 30.35 30.94 30.11 31.14 30.06 31.39
  Q 29.74 32.91 31.23 33.20
  C 31.90 33.33 32.46 32.70 32.27 32.05
  Q 31.55 29.66 32.04 27.25
  Q 33.38 26.49 33.75 28.04
  Q 33.44 28.76 33.54 29.50
  Q 31.85 31.65 33.58 32.97
  Q 34.10 33.37 34.17 32.77
  L 34.46 30.25
  L 34.79 28.25
  Q 35.86 28.39 36.04 29.50
  Q 35.20 31.67 37.06 31.41
  C 37.39 31.37 37.69 31.18 37.87 30.91
  Q 38.45 30.07 38.54 29.00
  Q 38.29 27.69 39.00 26.71
  Z
  M 39.01 32.92
  C 39.58 33.37 40.43 33.13 40.68 32.45
  Q 41.37 30.58 39.73 30.88
  C 39.40 30.94 39.12 31.12 38.93 31.38
  Q 38.26 32.33 39.01 32.92
  Z
  M 34.51 35.60
  Q 32.85 37.61 33.69 40.35
  C 33.80 40.72 34.26 40.85 34.55 40.59
  Q 36.35 38.98 35.24 35.74
  Q 34.99 35.01 34.51 35.60
  Z"
/>
<path fill="#c39c9d" d="
  M 33.75 28.04
  Q 34.36 27.80 34.79 28.25
  L 34.46 30.25
  Q 34.31 29.36 33.54 29.50
  Q 33.44 28.76 33.75 28.04
  Z"
/>
<path fill="#c39c9d" d="
  M 66.50 29.04
  Q 66.46 30.70 68.21 30.25
  Q 68.98 32.24 68.06 34.01
  Q 67.81 34.50 67.57 34.00
  Q 66.90 32.66 67.29 31.15
  C 67.37 30.86 67.22 30.57 66.96 30.52
  Q 65.97 30.29 65.25 31.27
  Q 64.28 32.59 63.72 31.54
  Q 63.46 31.07 63.53 30.41
  Q 63.78 27.75 66.50 29.04
  Z"
/>
<path fill="#f2eadf" fill-opacity="0.988" d="
  M 38.54 29.00
  Q 38.45 30.07 37.87 30.91
  C 37.69 31.18 37.39 31.37 37.06 31.41
  Q 35.20 31.67 36.04 29.50
  Q 37.14 28.52 38.54 29.00
  Z"
/>
<path fill="#2c211b" d="
  M 51.54 30.00
  Q 51.27 30.37 50.75 30.29
  Q 49.79 29.90 50.20 29.15
  C 50.36 28.86 50.71 28.74 50.98 28.88
  Q 51.55 29.17 51.54 30.00
  Z"
/>
<path fill="#684946" d="
  M 67.75 28.71
  Q 68.00 28.79 68.25 28.71
  Q 68.85 29.48 68.21 30.25
  Q 66.46 30.70 66.50 29.04
  L 67.75 28.71
  Z"
/>
<path fill="#2c211b" d="
  M 47.80 30.50
  Q 46.39 29.28 48.13 29.40
  Q 48.56 29.42 48.94 29.68
  Q 50.95 31.06 48.69 30.87
  C 48.36 30.84 48.05 30.71 47.80 30.50
  Z"
/>
<path fill="#f2eadf" fill-opacity="0.988" d="
  M 33.54 29.50
  Q 34.31 29.36 34.46 30.25
  L 34.17 32.77
  Q 34.10 33.37 33.58 32.97
  Q 31.85 31.65 33.54 29.50
  Z"
/>
<path fill="#684946" d="
  M 51.54 30.00
  Q 52.24 31.12 53.50 31.54
  Q 53.01 31.81 52.71 32.25
  Q 51.40 31.58 50.75 30.29
  Q 51.27 30.37 51.54 30.00
  Z"
/>
<path fill="#ffffff" d="
  M 39.01 32.92
  Q 38.26 32.33 38.93 31.38
  C 39.12 31.12 39.40 30.94 39.73 30.88
  Q 41.37 30.58 40.68 32.45
  C 40.43 33.13 39.58 33.37 39.01 32.92
  Z"
/>
<path fill="#f0c7ca" d="
  M 53.50 31.54
  Q 53.75 31.46 54.00 31.54
  Q 54.23 33.39 52.75 32.71
  L 52.71 32.25
  Q 53.01 31.81 53.50 31.54
  Z"
/>
<path fill="#f0c7ca" d="
  M 49.80 33.76
  C 49.76 33.81 49.69 33.82 49.65 33.77
  Q 48.89 32.90 49.53 32.33
  C 49.75 32.12 50.11 32.21 50.19 32.49
  Q 50.35 33.04 49.80 33.76
  Z"
/>
<path fill="#c39c9d" d="
  M 54.94 33.70
  Q 52.76 33.34 56.07 33.21
  C 56.39 33.19 56.67 33.38 56.75 33.66
  Q 57.07 34.72 55.54 33.91
  Q 55.24 33.75 54.94 33.70
  Z"
/>
<path fill="#c39c9d" d="
  M 32.71 35.25
  Q 31.09 36.09 31.25 34.04
  Q 33.24 33.28 32.71 35.25
  Z"
/>
<path fill="#684946" d="
  M 51.21 33.75
  L 51.79 34.25
  L 51.48 35.44
  Q 51.35 35.91 51.10 35.57
  Q 50.47 34.71 51.21 33.75
  Z"
/>
<path fill="#f2eadf" fill-opacity="0.988" d="
  M 34.51 35.60
  Q 34.99 35.01 35.24 35.74
  Q 36.35 38.98 34.55 40.59
  C 34.26 40.85 33.80 40.72 33.69 40.35
  Q 32.85 37.61 34.51 35.60
  Z"
/>
<ellipse fill="#c39c9d" cx="0.00" cy="0.00" transform="translate(67.78,38.16) rotate(88.7)" rx="2.13" ry="0.54"/>
<path fill="#ffffff" d="
  M 57.29 39.00
  Q 57.73 41.17 56.00 40.50
  Q 54.34 39.86 53.96 38.50
  Q 53.67 37.14 54.57 36.49
  C 54.80 36.32 55.14 36.35 55.39 36.56
  Q 56.59 37.57 57.29 39.00
  Z"
/>
<path fill="#684946" d="
  M 53.25 38.54
  L 53.96 38.50
  Q 54.34 39.86 56.00 40.50
  Q 57.73 41.17 57.29 39.00
  L 58.00 38.96
  Q 58.77 43.33 58.21 47.75
  L 57.29 47.75
  L 57.50 42.34
  C 57.51 42.08 57.33 41.84 57.05 41.76
  Q 54.00 40.78 53.25 38.54
  Z"
/>
<path fill="#684946" d="
  M 41.02 39.13
  Q 41.70 39.53 41.42 40.25
  C 41.32 40.52 41.00 40.67 40.69 40.59
  Q 39.36 40.25 40.21 39.29
  C 40.42 39.05 40.76 38.98 41.02 39.13
  Z"
/>
<path fill="#f0c7ca" d="
  M 32.25 42.21
  Q 34.00 43.25 32.25 44.29
  Q 31.25 43.31 32.25 42.21
  Z"
/>
<path fill="#684946" d="
  M 48.78 44.24
  Q 47.50 46.09 47.33 44.05
  C 47.30 43.73 47.40 43.41 47.61 43.15
  Q 48.90 41.49 49.04 43.31
  C 49.07 43.63 48.97 43.96 48.78 44.24
  Z"
/>
<ellipse fill="#a17376" cx="0.00" cy="0.00" transform="translate(67.95,46.84) rotate(89.9)" rx="2.77" ry="0.74"/>
<path fill="#a17376" d="
  M 55.46 46.50
  L 54.25 46.54
  L 51.76 46.20
  C 51.47 46.16 51.16 46.35 50.97 46.67
  Q 50.11 48.14 52.00 48.16
  Q 52.83 48.16 53.00 48.96
  Q 52.74 49.48 52.29 49.50
  Q 50.99 48.23 49.54 49.50
  Q 49.16 49.08 49.25 48.54
  Q 49.60 48.52 49.85 48.30
  Q 50.04 48.14 50.13 47.76
  Q 51.47 42.26 55.46 46.50
  Z"
/>
<path fill="#f2eadf" fill-opacity="0.988" d="
  M 54.25 46.54
  Q 53.90 47.89 54.63 48.68
  C 54.78 48.85 55.09 48.98 55.49 49.06
  Q 57.32 49.43 56.46 51.50
  Q 55.53 51.67 54.81 51.22
  Q 54.49 51.02 54.01 50.06
  Q 53.67 49.39 53.00 48.96
  Q 52.83 48.16 52.00 48.16
  Q 50.11 48.14 50.97 46.67
  C 51.16 46.35 51.47 46.16 51.76 46.20
  L 54.25 46.54
  Z"
/>
<path fill="#2c211b" d="
  M 54.25 46.54
  L 55.46 46.50
  Q 55.99 48.71 57.29 47.75
  L 58.21 47.75
  Q 58.26 48.34 58.26 48.92
  Q 58.26 49.27 58.04 50.05
  Q 57.65 51.47 59.00 52.29
  Q 60.16 54.23 57.75 53.96
  Q 56.33 53.19 56.46 51.50
  Q 57.32 49.43 55.49 49.06
  C 55.09 48.98 54.78 48.85 54.63 48.68
  Q 53.90 47.89 54.25 46.54
  Z"
/>
<path fill="#684946" d="
  M 79.71 47.00
  Q 80.45 58.38 79.71 69.75
  L 78.54 69.75
  L 78.96 47.50
  Q 79.36 47.59 79.71 47.00
  Z"
/>
<path fill="#f0c7ca" d="
  M 33.21 47.25
  Q 34.50 48.37 33.50 49.46
  Q 32.76 48.41 33.21 47.25
  Z"
/>
<path fill="#684946" d="
  M 49.25 48.54
  Q 49.16 49.08 49.54 49.50
  Q 49.30 50.40 49.76 52.35
  C 49.88 52.86 50.47 53.11 50.92 52.84
  Q 53.08 51.57 52.29 49.50
  Q 52.74 49.48 53.00 48.96
  Q 53.67 49.39 54.01 50.06
  Q 54.49 51.02 54.81 51.22
  Q 55.53 51.67 56.46 51.50
  Q 56.33 53.19 57.75 53.96
  L 57.00 54.46
  Q 48.34 54.50 44.00 54.25
  Q 43.09 54.20 42.46 53.25
  Q 42.88 52.73 42.75 52.04
  Q 44.63 50.05 47.22 49.10
  C 47.50 49.00 47.74 48.78 47.89 48.48
  Q 48.50 47.33 49.25 48.54
  Z
  M 47.04 50.10
  Q 45.07 52.00 46.98 51.65
  Q 48.50 51.36 47.97 50.27
  C 47.80 49.91 47.33 49.82 47.04 50.10
  Z
  M 54.7784 52.3642
  C 54.76 52.01 54.30 51.75 53.7443 51.7810
  C 53.19 51.81 52.76 52.12 52.7816 52.4758
  C 52.80 52.83 53.26 53.09 53.8157 53.0590
  C 54.37 53.03 54.80 52.72 54.7784 52.3642
  Z"
/>
<path fill="#f2eadf" fill-opacity="0.988" d="
  M 52.29 49.50
  Q 53.08 51.57 50.92 52.84
  C 50.47 53.11 49.88 52.86 49.76 52.35
  Q 49.30 50.40 49.54 49.50
  Q 50.99 48.23 52.29 49.50
  Z"
/>
<path fill="#f2eadf" fill-opacity="0.988" d="
  M 47.04 50.10
  C 47.33 49.82 47.80 49.91 47.97 50.27
  Q 48.50 51.36 46.98 51.65
  Q 45.07 52.00 47.04 50.10
  Z"
/>
<path fill="#ffffff" d="
  M 33.50 50.21
  Q 34.38 51.29 33.96 52.75
  L 33.50 52.79
  Q 32.80 52.06 32.09 52.41
  C 31.72 52.59 31.36 52.62 31.26 52.47
  Q 31.06 52.17 31.29 51.50
  Q 31.95 50.11 33.50 50.21
  Z"
/>
<ellipse fill="#f0c7ca" cx="0.00" cy="0.00" transform="translate(53.78,52.42) rotate(-3.2)" rx="1.00" ry="0.64"/>
<path fill="#f0c7ca" d="
  M 42.04 52.00
  L 42.75 52.04
  Q 42.88 52.73 42.46 53.25
  L 40.75 53.21
  Q 41.70 52.93 42.04 52.00
  Z"
/>
<path fill="#c39c9d" d="
  M 67.50 57.29
  Q 67.63 58.44 67.21 59.50
  Q 65.60 60.29 64.98 58.91
  C 64.82 58.55 64.60 58.29 64.37 58.18
  Q 63.25 57.65 62.00 58.29
  Q 60.52 55.11 57.00 54.46
  L 57.75 53.96
  Q 60.16 54.23 59.00 52.29
  Q 60.41 51.65 61.19 52.31
  Q 64.25 54.93 67.50 57.29
  Z"
/>
<path fill="#684946" d="
  M 67.00 63.71
  L 67.21 59.50
  Q 67.63 58.44 67.50 57.29
  L 67.82 56.72
  C 67.94 56.50 67.92 56.15 67.75 55.81
  Q 67.11 54.53 67.37 53.07
  Q 67.65 51.49 68.05 53.29
  Q 68.46 55.21 69.38 57.29
  C 69.60 57.78 70.24 57.90 70.62 57.52
  Q 74.03 54.02 71.89 57.83
  Q 71.70 58.16 71.36 58.44
  Q 69.14 60.22 68.24 62.95
  Q 67.94 63.88 67.00 63.71
  Z"
/>
<path fill="#a17376" d="
  M 33.50 52.79
  L 33.96 52.75
  Q 33.88 53.54 34.25 54.21
  Q 33.51 54.46 32.96 54.00
  L 33.50 52.79
  Z"
/>
<path fill="#a17376" d="
  M 67.21 59.50
  L 67.00 63.71
  Q 65.49 64.19 63.99 63.87
  Q 63.48 63.77 63.02 63.91
  Q 59.40 65.05 55.75 63.84
  Q 55.24 63.67 55.02 63.35
  Q 54.60 62.71 55.57 62.55
  Q 55.95 62.48 56.41 62.65
  Q 57.47 63.04 58.54 63.38
  Q 60.49 64.02 61.46 62.50
  Q 62.63 63.04 62.71 62.06
  C 62.73 61.84 62.50 61.63 62.19 61.57
  Q 61.61 61.47 61.71 60.75
  L 62.00 58.29
  Q 63.25 57.65 64.37 58.18
  C 64.60 58.29 64.82 58.55 64.98 58.91
  Q 65.60 60.29 67.21 59.50
  Z"
/>
<path fill="#f0c7ca" d="
  M 51.72 59.85
  Q 51.39 60.76 51.06 59.50
  Q 51.00 59.25 51.08 59.00
  Q 51.65 57.23 51.79 59.27
  Q 51.82 59.59 51.72 59.85
  Z"
/>
<path fill="#f0c7ca" d="
  M 19.75 63.46
  L 20.21 62.75
  Q 21.04 63.22 22.00 62.96
  Q 25.13 64.63 23.50 61.54
  L 25.76 58.95
  C 25.97 58.71 26.31 58.68 26.43 58.89
  Q 26.68 59.30 26.22 59.96
  Q 25.20 61.42 25.44 62.86
  Q 25.68 64.36 26.74 63.26
  Q 28.08 61.87 29.93 63.67
  Q 30.50 64.22 29.71 64.30
  Q 24.57 64.81 19.75 63.46
  Z"
/>
<path fill="#f0c7ca" d="
  M 61.71 60.75
  Q 61.61 61.47 62.19 61.57
  C 62.50 61.63 62.73 61.84 62.71 62.06
  Q 62.63 63.04 61.46 62.50
  Q 61.37 61.58 61.71 60.75
  Z"
/>
<path fill="#2c211b" d="
  M 23.50 61.54
  Q 25.13 64.63 22.00 62.96
  Q 22.17 61.66 23.50 61.54
  Z"
/>
<path fill="#a17376" d="
  M 38.25 63.75
  L 39.47 63.23
  C 39.74 63.11 40.06 63.22 40.23 63.47
  Q 41.13 64.90 39.26 64.47
  Q 38.72 64.34 38.11 64.30
  Q 36.98 64.21 35.99 63.69
  C 35.72 63.54 35.58 63.24 35.66 62.95
  Q 35.99 61.74 36.81 63.44
  C 37.02 63.87 37.65 64.00 38.25 63.75
  Z"
/>
<path fill="#a17376" d="
  M 51.71 62.72
  Q 55.50 63.08 50.56 63.63
  C 50.24 63.67 49.93 63.53 49.79 63.27
  Q 49.27 62.28 50.91 62.60
  Q 51.40 62.69 51.71 62.72
  Z"
/>
<path fill="#a17376" d="
  M 19.50 63.54
  Q 18.57 70.51 16.29 64.50
  Q 17.74 63.24 19.50 63.54
  Z"
/>
<path fill="#f0c7ca" d="
  M 13.50 68.71
  L 13.04 69.00
  Q 12.64 68.07 11.53 68.00
  Q 11.18 67.98 11.01 67.87
  Q 10.43 67.49 11.71 67.32
  Q 13.16 67.12 13.50 68.71
  Z"
/>
<path fill="#a17376" d="
  M 13.04 69.00
  L 13.50 68.71
  Q 14.76 72.28 11.00 73.50
  Q 9.14 74.10 6.81 71.94
  Q 5.38 70.61 6.24 68.93
  Q 6.54 68.36 6.83 68.88
  L 8.16 71.21
  C 8.29 71.44 8.54 71.57 8.78 71.52
  Q 9.36 71.39 10.19 71.56
  Q 13.21 72.18 13.04 69.00
  Z"
/>
<path fill="#684946" d="
  M 69.54 71.02
  Q 70.63 71.39 70.40 72.23
  C 70.31 72.52 70.01 72.72 69.68 72.70
  Q 68.05 72.62 66.56 70.83
  Q 65.95 70.10 66.88 70.32
  Q 68.75 70.75 69.54 71.02
  Z"
/>
<path fill="#c39c9d" d="
  M 30.75 77.54
  Q 28.11 78.81 25.50 77.79
  L 30.75 77.54
  Z"
/>
</svg>
