<?xml version="1.0" encoding="UTF-8" standalone="no"?><!DOCTYPE svg PUBLIC "-//W3C//DTD SVG 1.1//EN" "http://www.w3.org/Graphics/SVG/1.1/DTD/svg11.dtd"><svg width="100%" height="100%" viewBox="0 0 88 92" version="1.1" xmlns="http://www.w3.org/2000/svg" xmlns:xlink="http://www.w3.org/1999/xlink" xml:space="preserve" xmlns:serif="http://www.serif.com/" style="fill-rule:evenodd;clip-rule:evenodd;"><path d="M12.161,65.768c1.333,2.726 2.933,5.283 4.8,7.67c7.526,9.626 16.81,14.096 27.85,13.41c6.926,-0.434 13.15,-2.567 18.67,-6.4c7,-4.86 11.643,-11.837 13.93,-20.93" style="fill:none;fill-rule:nonzero;stroke:#80a172;stroke-width:2px;"/><path d="M77.911,47.768c-0.787,-3.634 -2.13,-7.484 -4.03,-11.55c-0.26,-0.55 -0.31,-1.17 -0.14,-1.75c0.64,-2.307 1.196,-4.537 1.67,-6.69c0.1,-0.48 0.06,-0.8 -0.12,-0.96c-0.19,-0.16 -0.51,0.02 -0.64,0.36c-0.607,1.566 -1.634,2.486 -3.08,2.76c-1.214,0.226 -2.364,-0.124 -3.45,-1.05c-2.274,-1.94 -2.587,-4.46 -0.94,-7.56c1.893,-3.574 4.793,-6.004 8.7,-7.29c2.906,-0.954 4.826,-2.787 5.76,-5.5c0.226,-0.66 0.416,-1.157 0.57,-1.49c1.513,-3.367 1.02,-3.827 -1.48,-1.38c-0.24,0.23 -0.54,0.38 -0.85,0.44c-3.767,0.726 -7.56,1.213 -11.38,1.46c-2.26,0.14 -4.14,0.576 -5.64,1.31c-3.24,1.586 -6.15,3.66 -8.73,6.22c-0.054,0.046 -0.627,0.876 -1.72,2.49c-0.794,1.166 -1.974,1.56 -3.54,1.18c-3.327,-0.807 -6.25,-0.93 -8.77,-0.37c-0.26,0.06 -0.57,-0 -0.87,-0.17c-0.414,-0.24 -0.774,-0.197 -1.08,0.13c-0.24,0.25 -0.54,0.36 -0.76,0.28c-0.74,-0.26 -1.267,-0.78 -1.58,-1.56c-0.207,-0.5 -1.207,-1.667 -3,-3.5c-2.06,-2.1 -4.397,-3.724 -7.01,-4.87c-1.494,-0.654 -3.847,-1.15 -7.06,-1.49c-2.414,-0.247 -4.814,-0.61 -7.2,-1.09c-0.24,-0.047 -0.764,-0.264 -1.57,-0.65c-0.567,-0.267 -1.17,-0.324 -1.81,-0.17c-0.34,0.08 -0.68,0.07 -0.95,-0.04c-3.567,-1.387 -4.044,-1.167 -1.43,0.66c0.266,0.186 0.473,0.43 0.62,0.73l2.01,4.11" style="fill:none;fill-rule:nonzero;stroke:#80a172;stroke-width:2px;"/><path d="M14.411,31.268c0.06,1.88 -0.057,3.11 -0.35,3.69c-3.4,6.6 -4.784,13.62 -4.15,21.06" style="fill:none;fill-rule:nonzero;stroke:#80a172;stroke-width:2px;"/><path d="M77.911,47.768c0.293,3.94 0.126,7.856 -0.5,11.75" style="fill:none;fill-rule:nonzero;stroke:#7b966a;stroke-width:2px;"/><path d="M12.161,65.768c-1.127,-3.154 -1.877,-6.404 -2.25,-9.75" style="fill:none;fill-rule:nonzero;stroke:#7b966a;stroke-width:2px;"/><path d="M14.411,31.268l0.42,-0" style="fill:none;fill-rule:nonzero;stroke:#7b966a;stroke-width:2px;"/><path d="M14.831,31.268c0.953,5.026 2.926,9.25 5.92,12.67c0.846,0.966 1.293,2.096 1.34,3.39c0.106,2.613 0.89,4.66 2.35,6.14c0.4,0.4 0.626,0.32 0.68,-0.24c0.306,-2.9 0.266,-5.81 -0.12,-8.73c-0.254,-1.94 -0.974,-3.674 -2.16,-5.2c-0.26,-0.334 -0.274,-0.504 -0.04,-0.51c0.14,-0 0.3,0.09 0.42,0.24c1.333,1.606 2.43,3.553 3.29,5.84c0.1,0.28 -0.03,0.58 -0.29,0.7c-0.6,0.266 -0.817,0.753 -0.65,1.46c0.186,0.766 0.293,1.54 0.32,2.32c0.02,0.58 0.11,1.346 0.27,2.3c0.333,1.906 -0.304,3.453 -1.91,4.64c-0.59,0.43 -0.7,1.26 -0.24,1.83c0.746,0.926 1.44,1.636 2.08,2.13c0.58,0.453 1.156,0.633 1.73,0.54c0.793,-0.127 1.246,-0.687 1.36,-1.68c0.16,-1.387 0.75,-1.647 1.77,-0.78l6.98,5.87c0.24,0.2 0.28,0.57 0.09,0.85c-0.974,1.453 -1.177,2.876 -0.61,4.27c0.12,0.3 0.41,0.49 0.71,0.45c0.613,-0.067 1.056,-0.41 1.33,-1.03c0.11,-0.25 0.1,-0.59 -0.04,-0.93c-0.634,-1.58 -0.127,-1.997 1.52,-1.25c0.34,0.15 0.67,0.19 0.92,0.09c0.526,-0.187 0.48,-0.514 -0.14,-0.98c-1.2,-0.894 -2.147,-2.014 -2.84,-3.36" style="fill:none;fill-rule:nonzero;stroke:#8eb094;stroke-width:2px;"/><path d="M38.871,62.308l0.5,-0.08" style="fill:none;fill-rule:nonzero;stroke:#205027;stroke-width:2px;"/><path d="M39.371,62.228c0.966,1.06 1.98,2.07 3.04,3.03c0.553,0.5 1.05,0.733 1.49,0.7c0.606,-0.047 1.13,-0.414 1.57,-1.1c0.2,-0.32 0.6,-0.45 0.96,-0.32c0.76,0.28 1.22,0.006 1.38,-0.82c0.03,-0.16 -0.06,-0.33 -0.21,-0.39c-1.48,-0.627 -1.757,-1.247 -0.83,-1.86c1.226,-0.8 2.566,-1.2 4.02,-1.2c1.04,-0 1.216,-0.39 0.53,-1.17c-0.694,-0.794 -1.51,-1.417 -2.45,-1.87" style="fill:none;fill-rule:nonzero;stroke:#8eb094;stroke-width:2px;"/><path d="M48.871,57.228c0.1,-0.2 0.266,-0.284 0.5,-0.25" style="fill:none;fill-rule:nonzero;stroke:#4b714e;stroke-width:2px;"/><path d="M49.371,56.978c0.446,-0.074 0.833,-0.02 1.16,0.16c0.56,0.313 0.856,0.473 0.89,0.48c2.246,0.68 3.133,-0.27 2.66,-2.85" style="fill:none;fill-rule:nonzero;stroke:#8eb094;stroke-width:2px;"/><path d="M54.081,54.768c0.686,-0.347 1.2,-0.834 1.54,-1.46" style="fill:none;fill-rule:nonzero;stroke:#4b714e;stroke-width:2px;"/><path d="M55.621,53.308l1.96,-0.83c0.313,-0.134 0.423,-0.024 0.33,0.33c-0.327,1.18 -0.004,1.703 0.97,1.57c0.46,-0.067 0.79,-0.06 0.99,0.02c0.333,0.126 0.606,0.333 0.82,0.62c0.226,0.313 0.453,0.546 0.68,0.7c0.66,0.44 0.68,0.74 0.06,0.9c-0.26,0.07 -0.57,-0.05 -0.79,-0.31c-0.7,-0.827 -1.52,-0.987 -2.46,-0.48c-4.7,2.546 -8.72,6.18 -12.06,10.9" style="fill:none;fill-rule:nonzero;stroke:#8eb094;stroke-width:2px;"/><path d="M46.121,66.728c-2.72,-0.747 -4.394,0.283 -5.02,3.09c-0.5,2.233 -0.084,2.613 1.25,1.14c0.2,-0.21 0.32,-0.53 0.33,-0.88c0.066,-1.534 0.773,-2.36 2.12,-2.48c0.26,-0.03 0.47,0.2 0.45,0.47c-0.12,1.34 0.233,2.26 1.06,2.76c1.033,0.633 1.48,0.383 1.34,-0.75c-0.04,-0.27 -0.2,-0.56 -0.45,-0.85c-0.607,-0.667 -0.884,-1.474 -0.83,-2.42" style="fill:none;fill-rule:nonzero;stroke:#8eb094;stroke-width:2px;"/><path d="M46.371,66.808c0.813,-0.407 1.526,-0.367 2.14,0.12c0.22,0.17 0.33,0.49 0.31,0.84c-0.134,1.973 0.493,2.32 1.88,1.04c0.27,-0.25 0.39,-0.59 0.29,-0.84l-1.09,-2.79c-0.11,-0.3 -0.09,-0.6 0.07,-0.75c2.52,-2.394 5.233,-4.494 8.14,-6.3c0.21,-0.14 0.5,-0.07 0.64,0.15c1.92,3.026 3.606,3.253 5.06,0.68c0.44,-0.787 0.293,-1.934 -0.44,-3.44c-0.907,-1.86 -1.174,-3.757 -0.8,-5.69c0.073,-0.387 0.146,-0.394 0.22,-0.02l0.58,2.98c0.2,1.02 0.556,1.083 1.07,0.19c0.746,-1.307 1.166,-2.797 1.26,-4.47c0.066,-1.187 0.313,-2.317 0.74,-3.39c0.306,-0.794 1,-1.664 2.08,-2.61c1.486,-1.294 2.416,-2.56 2.79,-3.8c0.646,-2.16 1.356,-4.377 2.13,-6.65c0.72,-2.134 0.216,-2.48 -1.51,-1.04c-1.24,1.033 -2.75,1.943 -4.53,2.73c-3.067,1.36 -5.69,3.306 -7.87,5.84c-0.1,0.113 -0.174,0.246 -0.22,0.4c-0.147,0.513 -0.257,0.63 -0.33,0.35c-0.04,-0.14 -0,-0.31 0.1,-0.47c0.413,-0.634 0.65,-1.31 0.71,-2.03c0.03,-0.34 -0.11,-0.66 -0.37,-0.81l-5.41,-3.15c-0.34,-0.2 -0.78,0.05 -0.83,0.48l-0.6,4.66" style="fill:none;fill-rule:nonzero;stroke:#8eb094;stroke-width:2px;"/><path d="M52.581,39.018l-0.42,-0" style="fill:none;fill-rule:nonzero;stroke:#205027;stroke-width:2px;"/><path d="M52.161,39.018c0.22,-2.507 0.226,-4.444 0.02,-5.81c-0.08,-0.527 -0.304,-0.757 -0.67,-0.69c-0.24,0.04 -0.5,0.28 -0.69,0.63c-2.14,3.94 -2.39,3.94 -0.75,-0c0.11,-0.26 -0.01,-0.56 -0.27,-0.67c-2.274,-1 -4.48,-1.474 -6.62,-1.42c-1.414,0.04 -2.494,0.126 -3.24,0.26c-2.087,0.38 -2.444,1.696 -1.07,3.95c1,1.64 1.57,2.723 1.71,3.25" style="fill:none;fill-rule:nonzero;stroke:#8eb094;stroke-width:2px;"/><path d="M40.581,38.518l-0.21,0.04" style="fill:none;fill-rule:nonzero;stroke:#205027;stroke-width:2px;"/><path d="M40.371,38.558c-1.427,-1.894 -2.32,-3.994 -2.68,-6.3c-0.04,-0.27 0.11,-0.56 0.38,-0.72c0.453,-0.274 0.813,-0.63 1.08,-1.07c0.15,-0.26 0.19,-0.59 0.11,-0.93c-1.08,-4.774 -2.62,-9.397 -4.62,-13.87c-0.14,-0.33 -0.39,-0.57 -0.67,-0.63l-1.28,-0.28c-0.36,-0.08 -0.65,-0.24 -0.81,-0.44c-1.727,-2.114 -3.777,-3.72 -6.15,-4.82c-1.48,-0.687 -3.954,-1.234 -7.42,-1.64c-3.374,-0.394 -6.89,-0.887 -10.55,-1.48c-0.607,-0.1 -0.677,0.05 -0.21,0.45c0.766,0.64 1.213,1.43 1.34,2.37c0.05,0.38 0.17,0.69 0.34,0.9c0.933,1.146 2.25,2.1 3.95,2.86c1.313,0.586 3.38,1.786 6.2,3.6c0.23,0.15 0.45,0.4 0.61,0.73l3.88,7.94" style="fill:none;fill-rule:nonzero;stroke:#8eb094;stroke-width:2px;"/><path d="M23.871,25.228l-1,0.25" style="fill:none;fill-rule:nonzero;stroke:#205027;stroke-width:2px;"/><path d="M22.871,25.478l-3.1,-6.94c-0.32,-0.73 -0.8,-1.29 -1.36,-1.59l-6.25,-3.43" style="fill:none;fill-rule:nonzero;stroke:#80a172;stroke-width:2px;"/><path d="M12.161,13.518l-3.75,-2.75" style="fill:none;fill-rule:nonzero;stroke:#7b966a;stroke-width:2px;"/><path d="M70.771,16.018c2.693,-1.647 5.456,-3.167 8.29,-4.56c1.366,-0.674 1.913,-1.994 1.64,-3.96c-0.04,-0.27 -0.3,-0.45 -0.59,-0.42c-4.107,0.466 -8.224,0.88 -12.35,1.24c-1.82,0.16 -3.344,0.556 -4.57,1.19c-1.434,0.746 -2.774,1.64 -4.02,2.68c-0.027,0.02 -0.46,0.506 -1.3,1.46c-0.454,0.513 -1.02,0.88 -1.7,1.1c-0.94,0.31 -1.73,0.96 -2.23,1.82c-2.387,4.14 -4.077,8.546 -5.07,13.22c-0.17,0.79 0.47,1.52 1.28,1.46c1.666,-0.134 3.173,0.516 4.52,1.95c1.246,1.326 2.076,1.103 2.49,-0.67c1.273,-5.434 3.37,-10.904 6.29,-16.41c0.773,-1.447 1.54,-2.557 2.3,-3.33c1.233,-1.247 2.44,-1.92 3.62,-2.02c2.206,-0.187 4.393,-0.5 6.56,-0.94c0.673,-0.134 1.02,-0.077 1.04,0.17c0.03,0.24 -0.28,0.46 -0.67,0.48c-2.227,0.133 -4.437,0.406 -6.63,0.82c-1.96,0.366 -3.54,1.46 -4.74,3.28c-3.527,5.373 -5.73,11.076 -6.61,17.11c-0.2,1.353 -0.214,2.406 -0.04,3.16c0.42,1.866 1.68,2.236 3.78,1.11c3.14,-1.694 3.83,-4.354 2.07,-7.98c-0.4,-0.84 -0.294,-1.494 0.32,-1.96c0.28,-0.21 0.48,-0.47 0.56,-0.72c0.62,-2.04 1.426,-3.99 2.42,-5.85c0.746,-1.38 1.86,-2.524 3.34,-3.43" style="fill:none;fill-rule:nonzero;stroke:#8eb094;stroke-width:2px;"/><path d="M68.313,31.165c0.168,-0.257 0.038,-0.627 -0.275,-0.83c-0.317,-0.207 -0.707,-0.157 -0.869,0.095c-0.168,0.258 -0.038,0.628 0.275,0.831c0.317,0.207 0.707,0.157 0.869,-0.096" style="fill:none;fill-rule:nonzero;stroke:#205027;stroke-width:2px;"/><path d="M32.411,62.268c0.74,0.06 1.073,0.476 1,1.25" style="fill:none;fill-rule:nonzero;stroke:#4b714e;stroke-width:2px;"/><path d="M33.411,63.518c-0.62,0.726 -0.78,1.44 -0.48,2.14c0.16,0.36 -0.09,0.77 -0.49,0.8c-1.86,0.133 -2.637,0.753 -2.33,1.86c0.64,2.253 0.993,4.55 1.06,6.89c0.01,0.35 0.12,0.67 0.3,0.92c1.02,1.346 2.42,2.146 4.2,2.4c1.28,0.173 1.93,0.903 1.95,2.19c0.02,1.166 0.226,2.123 0.62,2.87c0.473,0.9 0.95,0.903 1.43,0.01c1.513,-2.814 3.73,-3.494 6.65,-2.04c0.873,0.433 1.456,1.09 1.75,1.97c0.12,0.36 0.256,0.61 0.41,0.75c0.506,0.466 0.85,0.29 1.03,-0.53c0.82,-3.774 3.09,-6.01 6.81,-6.71c0.29,-0.05 0.51,-0.28 0.55,-0.57c0.233,-1.62 0.816,-4.27 1.75,-7.95c0.38,-1.487 -0.287,-1.974 -2,-1.46" style="fill:none;fill-rule:nonzero;stroke:#8eb094;stroke-width:2px;"/><path d="M56.621,67.058c-0.174,0.033 -0.327,0.103 -0.46,0.21" style="fill:none;fill-rule:nonzero;stroke:#4b714e;stroke-width:2px;"/><path d="M56.161,67.268l-0.28,-0.85c-0.114,-0.347 -0.157,-0.664 -0.13,-0.95c0.14,-1.38 -0.404,-1.76 -1.63,-1.14c-0.28,0.15 -0.51,0.4 -0.63,0.71c-0.94,2.353 -0.967,4.763 -0.08,7.23" style="fill:none;fill-rule:nonzero;stroke:#8eb094;stroke-width:2px;"/><path d="M53.411,72.268l-0.58,2.69c-0.08,0.36 -0.25,0.63 -0.46,0.73c-1.027,0.486 -1.03,0.016 -0.01,-1.41c0.17,-0.24 0.13,-0.56 -0.09,-0.75l-2.02,-1.69c-0.25,-0.22 -0.6,-0.21 -0.74,0.02l-0.25,0.43c-0.15,0.25 -0.13,0.61 0.07,0.93l1.48,2.41c0.16,0.25 0.12,0.56 -0.08,0.71c-1.047,0.786 -1.984,0.723 -2.81,-0.19c-0.267,-0.3 -0.517,-0.497 -0.75,-0.59c-0.82,-0.32 -1.117,-0.06 -0.89,0.78c0.186,0.693 0.593,1.16 1.22,1.4c0.23,0.08 0.38,0.25 0.35,0.39c-0.04,0.146 -0.2,0.196 -0.48,0.15c-1.574,-0.254 -3.547,-0.32 -5.92,-0.2c-0.834,0.04 -0.964,-0.244 -0.39,-0.85c0.913,-0.954 1.19,-1.6 0.83,-1.94c-0.19,-0.17 -0.54,-0.14 -0.86,0.08c-3.2,2.226 -4.004,1.203 -2.41,-3.07c0.253,-0.68 0.056,-0.854 -0.59,-0.52c-0.927,0.48 -1.587,1.153 -1.98,2.02c-0.09,0.2 -0.35,0.24 -0.49,0.08c-0.5,-0.567 -1.08,-1.024 -1.74,-1.37c-0.934,-0.494 -1.52,-0.907 -1.76,-1.24c-0.574,-0.814 -0.747,-1.717 -0.52,-2.71c0.08,-0.347 0.193,-0.357 0.34,-0.03c0.326,0.72 0.646,1.433 0.96,2.14c0.56,1.233 1.16,1.55 1.8,0.95c0.32,-0.3 0.526,-0.75 0.62,-1.35c0.38,-2.414 -0.097,-4.664 -1.43,-6.75" style="fill:none;fill-rule:nonzero;stroke:#8eb094;stroke-width:2px;"/><path d="M33.831,63.518c0.42,-1.187 0.03,-1.854 -1.17,-2" style="fill:none;fill-rule:nonzero;stroke:#4b714e;stroke-width:2px;"/><path d="M32.661,61.518c-0.42,-0.647 -0.954,-1.157 -1.6,-1.53c-0.24,-0.14 -0.56,-0.08 -0.79,0.14c-0.774,0.733 -1.574,1.113 -2.4,1.14c-2.274,0.08 -4.4,-0.7 -6.38,-2.34c-0.68,-0.56 -0.987,-0.48 -0.92,0.24c0.02,0.213 0.096,0.43 0.23,0.65c1.74,2.873 4.43,4.69 8.07,5.45c2.5,0.526 3.68,-0.474 3.54,-3" style="fill:none;fill-rule:nonzero;stroke:#8eb094;stroke-width:2px;"/><path d="M32.661,61.518l-0.25,0.75" style="fill:none;fill-rule:nonzero;stroke:#bdc0ba;stroke-width:2px;"/><path d="M33.831,63.518l-0.42,-0" style="fill:none;fill-rule:nonzero;stroke:#bdc0ba;stroke-width:2px;"/><path d="M53.411,72.268l0.67,-0" style="fill:none;fill-rule:nonzero;stroke:#fff;stroke-width:2px;"/><path d="M54.081,72.268c0.646,0.7 1.29,0.666 1.93,-0.1c1.286,-1.56 1.49,-3.264 0.61,-5.11" style="fill:none;fill-rule:nonzero;stroke:#bdc0ba;stroke-width:2px;"/><path d="M56.161,67.268c0.54,2.34 -0.154,4.006 -2.08,5" style="fill:none;fill-rule:nonzero;stroke:#bdc0ba;stroke-width:2px;"/><path d="M58.781,60.358c-2.454,-1.22 -3.31,0.016 -2.57,3.71c0.17,0.85 0.92,1.46 1.79,1.44c3.793,-0.054 6.733,-1.694 8.82,-4.92c0.173,-0.267 0.3,-0.537 0.38,-0.81c0.373,-1.247 -0.06,-1.32 -1.3,-0.22c-1.2,1.066 -2.564,1.643 -4.09,1.73c-0.7,0.04 -1.71,-0.27 -3.03,-0.93" style="fill:none;fill-rule:nonzero;stroke:#8eb094;stroke-width:2px;"/><path d="M40.371,38.558c0.16,1.7 -0.31,3.153 -1.41,4.36c-0.22,0.246 -0.177,0.31 0.13,0.19c2.046,-0.76 2.543,-2.29 1.49,-4.59" style="fill:none;fill-rule:nonzero;stroke:#929f93;stroke-width:2px;"/><path d="M52.161,39.018l-1.94,5.12c-0.08,0.21 -0.06,0.48 0.06,0.74c0.773,1.646 0.923,1.356 0.45,-0.87c-0.07,-0.31 -0,-0.64 0.19,-0.89c0.6,-0.827 1.21,-1.647 1.83,-2.46c0.44,-0.574 0.383,-1.12 -0.17,-1.64" style="fill:none;fill-rule:nonzero;stroke:#929f93;stroke-width:2px;"/><path d="M46.371,66.808l-0.25,-0.08" style="fill:none;fill-rule:nonzero;stroke:#fff;stroke-width:2px;"/><path d="M55.621,53.308l-0.5,-0.08" style="fill:none;fill-rule:nonzero;stroke:#bdc0ba;stroke-width:2px;"/><path d="M55.121,53.228c0.606,-0.854 1.223,-1.697 1.85,-2.53c0.046,-0.06 0.743,-0.75 2.09,-2.07c1.333,-1.3 1.306,-2.884 -0.08,-4.75c-0.654,-0.88 -0.774,-0.737 -0.36,0.43c1.3,3.653 0.28,4.556 -3.06,2.71c-0.28,-0.15 -0.61,-0.15 -0.88,0.01c-2.674,1.606 -4.647,3.843 -5.92,6.71c-0.13,0.28 -0.42,0.43 -0.7,0.36c-1.754,-0.467 -2.514,-1.58 -2.28,-3.34c0.04,-0.274 -0.054,-0.327 -0.28,-0.16c-0.854,0.64 -1.557,0.323 -2.11,-0.95c-0.407,-0.92 -0.707,-1.12 -0.9,-0.6c-0.09,0.23 -0.05,0.57 0.11,0.91c0.673,1.466 0.486,2.623 -0.56,3.47c-1.014,0.82 -1.9,0.703 -2.66,-0.35c-1.34,-1.86 -2.624,-3.434 -3.85,-4.72c-1.427,-1.494 -2.93,-1.707 -4.51,-0.64c-0.27,0.19 -0.6,0.21 -0.83,0.05c-0.94,-0.647 -1.147,-1.524 -0.62,-2.63c0.18,-0.39 0.19,-0.78 0.01,-0.87c-0.267,-0.147 -0.7,0.416 -1.3,1.69c-0.2,0.44 -0.14,0.96 0.16,1.33c1.9,2.386 3.993,4.446 6.28,6.18c0.4,0.306 0.423,0.523 0.07,0.65c-0.394,0.146 -1.104,-0.03 -2.13,-0.53c-0.58,-0.28 -1.28,-0.09 -1.64,0.43c-0.44,0.626 -1.25,1.016 -2.43,1.17c-1.187,0.16 -1.577,0.473 -1.17,0.94c0.18,0.2 0.52,0.2 0.78,0.01c1.16,-0.874 2.2,-0.914 3.12,-0.12c0.88,0.766 1.343,1.166 1.39,1.2c2.213,1.493 4.266,3.19 6.16,5.09" style="fill:none;fill-rule:nonzero;stroke:#929f93;stroke-width:2px;"/><path d="M14.831,31.268c-0.434,-0.614 -0.337,-1.044 0.29,-1.29" style="fill:none;fill-rule:nonzero;stroke:#ede5d6;stroke-width:2px;"/><path d="M15.121,29.978l0.25,-0" style="fill:none;fill-rule:nonzero;stroke:#8eb094;stroke-width:2px;"/><path d="M15.371,29.978c1.16,0.913 2.336,1.81 3.53,2.69c0.813,0.6 2.11,1.26 3.89,1.98c2.66,1.073 4.843,2.81 6.55,5.21c0.166,0.24 0.226,0.213 0.18,-0.08c-0.407,-2.354 0.626,-4.19 3.1,-5.51c2.306,-1.234 3.27,-0.5 2.89,2.2c-0.06,0.42 0.04,0.476 0.3,0.17c0.28,-0.34 0.383,-0.797 0.31,-1.37c-0.16,-1.314 0.09,-2.587 0.75,-3.82c0.16,-0.29 0.16,-0.62 0.02,-0.87c-0.54,-0.92 -0.887,-0.71 -1.04,0.63c-0.04,0.34 -0.2,0.63 -0.44,0.8c-0.934,0.66 -2.09,1.103 -3.47,1.33c-0.3,0.05 -0.6,-0.13 -0.69,-0.42c-0.62,-1.94 -1.157,-3.824 -1.61,-5.65c-0.154,-0.607 -0.304,-0.694 -0.45,-0.26c-0.05,0.15 -0.03,0.33 0.03,0.5c0.306,0.846 0.606,2.433 0.9,4.76c0.26,2.086 -0.25,3.636 -1.53,4.65c-0.23,0.18 -0.57,0.19 -0.83,0.02c-3.467,-2.294 -4.737,-5.557 -3.81,-9.79c0.013,-0.04 0.126,-0.32 0.34,-0.84c0.186,-0.454 0.046,-0.814 -0.42,-1.08" style="fill:none;fill-rule:nonzero;stroke:#929f93;stroke-width:2px;"/><path d="M11.791,9.578c0.08,0.01 0.14,-0.05 0.14,-0.12c0.006,-1.16 -0.11,-1.55 -0.35,-1.17c-0.127,0.2 -0.247,0.383 -0.36,0.55c-0.3,0.44 -0.11,0.686 0.57,0.74" style="fill:none;fill-rule:nonzero;stroke:#bdc0ba;stroke-width:2px;"/><path d="M14.501,10.288c0.366,0.14 0.756,0.216 1.17,0.23c0.866,0.026 0.926,-0.177 0.18,-0.61c-0.667,-0.387 -1.167,-0.46 -1.5,-0.22c-0.32,0.24 -0.27,0.44 0.15,0.6" style="fill:none;fill-rule:nonzero;stroke:#bdc0ba;stroke-width:2px;"/><path d="M24.031,14.158c-0.327,-0.107 -0.4,-0.017 -0.22,0.27c4.153,6.753 4.446,6.8 0.88,0.14c-0.08,-0.15 -0.22,-0.27 -0.39,-0.32l-0.27,-0.09" style="fill:none;fill-rule:nonzero;stroke:#bdc0ba;stroke-width:2px;"/><path d="M28.211,23.358c0.146,0.453 0.373,0.866 0.68,1.24c0.353,0.426 0.403,0.056 0.15,-1.11c-0.1,-0.434 -0.267,-0.84 -0.5,-1.22c-0.954,-1.54 -1.064,-1.177 -0.33,1.09" style="fill:none;fill-rule:nonzero;stroke:#ede5d6;stroke-width:2px;"/><path d="M66.811,37.708c-2.6,2.12 -4.164,4.556 -4.69,7.31c-0.167,0.86 0.156,1.456 0.97,1.79c0.21,0.09 0.43,-0.11 0.4,-0.35c-0.387,-3.447 0.77,-6.257 3.47,-8.43c0.066,-0.054 0.126,-0.11 0.18,-0.17c0.8,-0.94 0.69,-0.99 -0.33,-0.15" style="fill:none;fill-rule:nonzero;stroke:#929f93;stroke-width:2px;"/><path d="M48.221,42.468c0.42,0.506 0.526,0.446 0.32,-0.18c-0.567,-1.72 -0.597,-3.324 -0.09,-4.81c0.1,-0.314 0.046,-0.347 -0.16,-0.1c-1.467,1.7 -1.49,3.396 -0.07,5.09" style="fill:none;fill-rule:nonzero;stroke:#929f93;stroke-width:2px;"/><path d="M37.621,44.268c0.693,-0.527 0.763,-1.087 0.21,-1.68c-0.227,-0.247 -0.38,-0.44 -0.46,-0.58c-2.274,-3.8 -2.647,-3.88 -1.12,-0.24c0.093,0.233 0.28,0.48 0.56,0.74c0.493,0.466 0.763,1.053 0.81,1.76" style="fill:none;fill-rule:nonzero;stroke:#929f93;stroke-width:2px;"/><path d="M37.621,44.268c-0.307,0.6 -0.727,1.08 -1.26,1.44c-0.24,0.16 -0.56,0.09 -0.74,-0.15c-1.44,-1.934 -1.914,-4.1 -1.42,-6.5c0.07,-0.34 -0.01,-0.67 -0.2,-0.89c-0.474,-0.547 -0.767,-0.347 -0.88,0.6c-0.314,2.586 0.433,5.016 2.24,7.29c0.2,0.26 0.53,0.37 0.81,0.27c0.913,-0.334 1.396,-1.02 1.45,-2.06" style="fill:none;fill-rule:nonzero;stroke:#929f93;stroke-width:2px;"/><path d="M54.911,41.018l-1.49,4.5c-0.1,0.31 -0.05,0.62 0.15,0.82c0.62,0.626 0.84,0.566 0.66,-0.18c-0.04,-0.174 -0.03,-0.43 0.03,-0.77l0.82,-4.37" style="fill:none;fill-rule:nonzero;stroke:#929f93;stroke-width:2px;"/><path d="M55.081,41.018c0.273,-0.82 0.276,-1.584 0.01,-2.29c-0.11,-0.29 -0.42,-0.44 -0.71,-0.35c-0.647,0.193 -0.824,0.51 -0.53,0.95c0.006,0.013 0.276,0.19 0.81,0.53c0.313,0.193 0.396,0.58 0.25,1.16" style="fill:none;fill-rule:nonzero;stroke:#929f93;stroke-width:2px;"/><path d="M55.081,41.018l-0.17,-0" style="fill:none;fill-rule:nonzero;stroke:#243e26;stroke-width:2px;"/><path d="M12.621,27.558c0.213,1.433 1.046,2.24 2.5,2.42" style="fill:none;fill-rule:nonzero;stroke:#7b966a;stroke-width:2px;"/><path d="M22.871,25.478l-0.9,0.44c-0.347,0.173 -0.65,0.266 -0.91,0.28c-1.027,0.046 -1.414,0.556 -1.16,1.53c0.09,0.36 0.08,0.69 -0.03,0.93c-0.707,1.506 -1.874,1.78 -3.5,0.82" style="fill:none;fill-rule:nonzero;stroke:#848f71;stroke-width:2px;"/><path d="M16.371,29.478c-1.114,-0.927 -2.364,-1.567 -3.75,-1.92" style="fill:none;fill-rule:nonzero;stroke:#80a172;stroke-width:2px;"/><path d="M15.371,29.978c0.193,-0.394 0.526,-0.56 1,-0.5" style="fill:none;fill-rule:nonzero;stroke:#205027;stroke-width:2px;"/><path d="M55.121,53.228c-0.72,0.233 -1.304,0.65 -1.75,1.25" style="fill:none;fill-rule:nonzero;stroke:#4f604d;stroke-width:2px;"/><path d="M53.371,54.478c-0.527,0.493 -1.12,0.803 -1.78,0.93c-0.014,-0 -0.607,-0.067 -1.78,-0.2c-0.774,-0.094 -1.35,0.26 -1.73,1.06" style="fill:none;fill-rule:nonzero;stroke:#929f93;stroke-width:2px;"/><path d="M48.081,56.268l-0.96,0.29" style="fill:none;fill-rule:nonzero;stroke:#4f604d;stroke-width:2px;"/><path d="M47.121,56.558l-1.53,-1.82c-0.24,-0.3 -0.52,-0.49 -0.76,-0.55c-1.48,-0.374 -2.414,0.18 -2.8,1.66c-0.07,0.28 -0.32,0.47 -0.6,0.46c-1.447,-0.007 -2.53,0.416 -3.25,1.27c-1.354,1.626 -1.04,2.786 0.94,3.48" style="fill:none;fill-rule:nonzero;stroke:#929f93;stroke-width:2px;"/><path d="M39.121,61.058c0.213,0.286 0.31,0.606 0.29,0.96" style="fill:none;fill-rule:nonzero;stroke:#243e26;stroke-width:2px;"/><path d="M39.411,62.018l-0.04,0.21" style="fill:none;fill-rule:nonzero;stroke:#929f93;stroke-width:2px;"/><path d="M37.416,52.813c0.485,-0.595 -0.285,-2.035 -1.732,-3.212c-1.443,-1.173 -3.013,-1.643 -3.499,-1.039c-0.484,0.596 0.286,2.036 1.733,3.212c1.443,1.174 3.013,1.644 3.498,1.039" style="fill:none;fill-rule:nonzero;stroke:#929f93;stroke-width:2px;"/><path d="M55.888,48.698c-0.507,-0.54 -1.967,0.02 -3.268,1.246c-1.299,1.224 -1.939,2.654 -1.426,3.193c0.507,0.541 1.967,-0.019 3.267,-1.246c1.3,-1.223 1.94,-2.653 1.427,-3.193" style="fill:none;fill-rule:nonzero;stroke:#929f93;stroke-width:2px;"/><path d="M35.811,57.578c1.06,-0.067 1.846,-0.604 2.36,-1.61c0.15,-0.3 0.17,-0.65 0.05,-0.94c-0.227,-0.54 -0.567,-0.59 -1.02,-0.15c-0.24,0.24 -0.54,0.37 -0.83,0.35c-2.18,-0.107 -2.647,0.556 -1.4,1.99c0.22,0.25 0.53,0.39 0.84,0.36" style="fill:none;fill-rule:nonzero;stroke:#929f93;stroke-width:2px;"/><path d="M54.081,54.768c-0.207,-0.167 -0.444,-0.264 -0.71,-0.29" style="fill:none;fill-rule:nonzero;stroke:#bdc0ba;stroke-width:2px;"/><path d="M47.121,56.558c0.366,0.786 0.95,1.01 1.75,0.67" style="fill:none;fill-rule:nonzero;stroke:#bdc0ba;stroke-width:2px;"/><path d="M39.411,62.018c0.326,-0.487 0.75,-0.424 1.27,0.19c1.54,1.8 1.963,1.793 1.27,-0.02c-0.087,-0.214 -0.22,-0.434 -0.4,-0.66c-1.48,-1.84 -0.89,-2.53 1.77,-2.07c0.206,0.04 0.41,0.04 0.61,-0c5.06,-1.074 4.936,-1.367 -0.37,-0.88c-2.1,0.193 -3.58,1.02 -4.44,2.48" style="fill:none;fill-rule:nonzero;stroke:#929f93;stroke-width:2px;"/><path d="M49.371,56.978c-0.607,-0.02 -1.037,-0.257 -1.29,-0.71" style="fill:none;fill-rule:nonzero;stroke:#bdc0ba;stroke-width:2px;"/><path d="M77.911,47.768c0.293,3.94 0.126,7.856 -0.5,11.75c-2.287,9.093 -6.93,16.07 -13.93,20.93c-5.52,3.833 -11.744,5.966 -18.67,6.4c-11.04,0.686 -20.324,-3.784 -27.85,-13.41c-1.867,-2.387 -3.467,-4.944 -4.8,-7.67c-1.127,-3.154 -1.877,-6.404 -2.25,-9.75c-0.634,-7.44 0.75,-14.46 4.15,-21.06c0.293,-0.58 0.41,-1.81 0.35,-3.69l0.42,-0c0.953,5.026 2.926,9.25 5.92,12.67c0.846,0.966 1.293,2.096 1.34,3.39c0.106,2.613 0.89,4.66 2.35,6.14c0.4,0.4 0.626,0.32 0.68,-0.24c0.306,-2.9 0.266,-5.81 -0.12,-8.73c-0.254,-1.94 -0.974,-3.674 -2.16,-5.2c-0.26,-0.334 -0.274,-0.504 -0.04,-0.51c0.14,-0 0.3,0.09 0.42,0.24c1.333,1.606 2.43,3.553 3.29,5.84c0.1,0.28 -0.03,0.58 -0.29,0.7c-0.6,0.266 -0.817,0.753 -0.65,1.46c0.186,0.766 0.293,1.54 0.32,2.32c0.02,0.58 0.11,1.346 0.27,2.3c0.333,1.906 -0.304,3.453 -1.91,4.64c-0.59,0.43 -0.7,1.26 -0.24,1.83c0.746,0.926 1.44,1.636 2.08,2.13c0.58,0.453 1.156,0.633 1.73,0.54c0.793,-0.127 1.246,-0.687 1.36,-1.68c0.16,-1.387 0.75,-1.647 1.77,-0.78l6.98,5.87c0.24,0.2 0.28,0.57 0.09,0.85c-0.974,1.453 -1.177,2.876 -0.61,4.27c0.12,0.3 0.41,0.49 0.71,0.45c0.613,-0.067 1.056,-0.41 1.33,-1.03c0.11,-0.25 0.1,-0.59 -0.04,-0.93c-0.634,-1.58 -0.127,-1.997 1.52,-1.25c0.34,0.15 0.67,0.19 0.92,0.09c0.526,-0.187 0.48,-0.514 -0.14,-0.98c-1.2,-0.894 -2.147,-2.014 -2.84,-3.36l0.5,-0.08c0.966,1.06 1.98,2.07 3.04,3.03c0.553,0.5 1.05,0.733 1.49,0.7c0.606,-0.047 1.13,-0.414 1.57,-1.1c0.2,-0.32 0.6,-0.45 0.96,-0.32c0.76,0.28 1.22,0.006 1.38,-0.82c0.03,-0.16 -0.06,-0.33 -0.21,-0.39c-1.48,-0.627 -1.757,-1.247 -0.83,-1.86c1.226,-0.8 2.566,-1.2 4.02,-1.2c1.04,-0 1.216,-0.39 0.53,-1.17c-0.694,-0.794 -1.51,-1.417 -2.45,-1.87c0.1,-0.2 0.266,-0.284 0.5,-0.25c0.446,-0.074 0.833,-0.02 1.16,0.16c0.56,0.313 0.856,0.473 0.89,0.48c2.246,0.68 3.133,-0.27 2.66,-2.85c0.686,-0.347 1.2,-0.834 1.54,-1.46l1.96,-0.83c0.313,-0.134 0.423,-0.024 0.33,0.33c-0.327,1.18 -0.004,1.703 0.97,1.57c0.46,-0.067 0.79,-0.06 0.99,0.02c0.333,0.126 0.606,0.333 0.82,0.62c0.226,0.313 0.453,0.546 0.68,0.7c0.66,0.44 0.68,0.74 0.06,0.9c-0.26,0.07 -0.57,-0.05 -0.79,-0.31c-0.7,-0.827 -1.52,-0.987 -2.46,-0.48c-4.7,2.546 -8.72,6.18 -12.06,10.9c-2.72,-0.747 -4.394,0.283 -5.02,3.09c-0.5,2.233 -0.084,2.613 1.25,1.14c0.2,-0.21 0.32,-0.53 0.33,-0.88c0.066,-1.534 0.773,-2.36 2.12,-2.48c0.26,-0.03 0.47,0.2 0.45,0.47c-0.12,1.34 0.233,2.26 1.06,2.76c1.033,0.633 1.48,0.383 1.34,-0.75c-0.04,-0.27 -0.2,-0.56 -0.45,-0.85c-0.607,-0.667 -0.884,-1.474 -0.83,-2.42c0.813,-0.407 1.526,-0.367 2.14,0.12c0.22,0.17 0.33,0.49 0.31,0.84c-0.134,1.973 0.493,2.32 1.88,1.04c0.27,-0.25 0.39,-0.59 0.29,-0.84l-1.09,-2.79c-0.11,-0.3 -0.09,-0.6 0.07,-0.75c2.52,-2.394 5.233,-4.494 8.14,-6.3c0.21,-0.14 0.5,-0.07 0.64,0.15c1.92,3.026 3.606,3.253 5.06,0.68c0.44,-0.787 0.293,-1.934 -0.44,-3.44c-0.907,-1.86 -1.174,-3.757 -0.8,-5.69c0.073,-0.387 0.146,-0.394 0.22,-0.02l0.58,2.98c0.2,1.02 0.556,1.083 1.07,0.19c0.746,-1.307 1.166,-2.797 1.26,-4.47c0.066,-1.187 0.313,-2.317 0.74,-3.39c0.306,-0.794 1,-1.664 2.08,-2.61c1.486,-1.294 2.416,-2.56 2.79,-3.8c0.646,-2.16 1.356,-4.377 2.13,-6.65c0.72,-2.134 0.216,-2.48 -1.51,-1.04c-1.24,1.033 -2.75,1.943 -4.53,2.73c-3.067,1.36 -5.69,3.306 -7.87,5.84c-0.1,0.113 -0.174,0.246 -0.22,0.4c-0.147,0.513 -0.257,0.63 -0.33,0.35c-0.04,-0.14 -0,-0.31 0.1,-0.47c0.413,-0.634 0.65,-1.31 0.71,-2.03c0.03,-0.34 -0.11,-0.66 -0.37,-0.81l-5.41,-3.15c-0.34,-0.2 -0.78,0.05 -0.83,0.48l-0.6,4.66l-0.42,-0c0.22,-2.507 0.226,-4.444 0.02,-5.81c-0.08,-0.527 -0.304,-0.757 -0.67,-0.69c-0.24,0.04 -0.5,0.28 -0.69,0.63c-2.14,3.94 -2.39,3.94 -0.75,-0c0.11,-0.26 -0.01,-0.56 -0.27,-0.67c-2.274,-1 -4.48,-1.474 -6.62,-1.42c-1.414,0.04 -2.494,0.126 -3.24,0.26c-2.087,0.38 -2.444,1.696 -1.07,3.95c1,1.64 1.57,2.723 1.71,3.25l-0.21,0.04c-1.427,-1.894 -2.32,-3.994 -2.68,-6.3c-0.04,-0.27 0.11,-0.56 0.38,-0.72c0.453,-0.274 0.813,-0.63 1.08,-1.07c0.15,-0.26 0.19,-0.59 0.11,-0.93c-1.08,-4.774 -2.62,-9.397 -4.62,-13.87c-0.14,-0.33 -0.39,-0.57 -0.67,-0.63l-1.28,-0.28c-0.36,-0.08 -0.65,-0.24 -0.81,-0.44c-1.727,-2.114 -3.777,-3.72 -6.15,-4.82c-1.48,-0.687 -3.954,-1.234 -7.42,-1.64c-3.374,-0.394 -6.89,-0.887 -10.55,-1.48c-0.607,-0.1 -0.677,0.05 -0.21,0.45c0.766,0.64 1.213,1.43 1.34,2.37c0.05,0.38 0.17,0.69 0.34,0.9c0.933,1.146 2.25,2.1 3.95,2.86c1.313,0.586 3.38,1.786 6.2,3.6c0.23,0.15 0.45,0.4 0.61,0.73l3.88,7.94l-1,0.25l-3.1,-6.94c-0.32,-0.73 -0.8,-1.29 -1.36,-1.59l-6.25,-3.43l-3.75,-2.75l-2.01,-4.11c-0.147,-0.3 -0.354,-0.544 -0.62,-0.73c-2.614,-1.827 -2.137,-2.047 1.43,-0.66c0.27,0.11 0.61,0.12 0.95,0.04c0.64,-0.154 1.243,-0.097 1.81,0.17c0.806,0.386 1.33,0.603 1.57,0.65c2.386,0.48 4.786,0.843 7.2,1.09c3.213,0.34 5.566,0.836 7.06,1.49c2.613,1.146 4.95,2.77 7.01,4.87c1.793,1.833 2.793,3 3,3.5c0.313,0.78 0.84,1.3 1.58,1.56c0.22,0.08 0.52,-0.03 0.76,-0.28c0.306,-0.327 0.666,-0.37 1.08,-0.13c0.3,0.17 0.61,0.23 0.87,0.17c2.52,-0.56 5.443,-0.437 8.77,0.37c1.566,0.38 2.746,-0.014 3.54,-1.18c1.093,-1.614 1.666,-2.444 1.72,-2.49c2.58,-2.56 5.49,-4.634 8.73,-6.22c1.5,-0.734 3.38,-1.17 5.64,-1.31c3.82,-0.247 7.613,-0.734 11.38,-1.46c0.31,-0.06 0.61,-0.21 0.85,-0.44c2.5,-2.447 2.993,-1.987 1.48,1.38c-0.154,0.333 -0.344,0.83 -0.57,1.49c-0.934,2.713 -2.854,4.546 -5.76,5.5c-3.907,1.286 -6.807,3.716 -8.7,7.29c-1.647,3.1 -1.334,5.62 0.94,7.56c1.086,0.926 2.236,1.276 3.45,1.05c1.446,-0.274 2.473,-1.194 3.08,-2.76c0.13,-0.34 0.45,-0.52 0.64,-0.36c0.18,0.16 0.22,0.48 0.12,0.96c-0.474,2.153 -1.03,4.383 -1.67,6.69c-0.17,0.58 -0.12,1.2 0.14,1.75c1.9,4.066 3.243,7.916 4.03,11.55Zm-7.14,-31.75c2.693,-1.647 5.456,-3.167 8.29,-4.56c1.366,-0.674 1.913,-1.994 1.64,-3.96c-0.04,-0.27 -0.3,-0.45 -0.59,-0.42c-4.107,0.466 -8.224,0.88 -12.35,1.24c-1.82,0.16 -3.344,0.556 -4.57,1.19c-1.434,0.746 -2.774,1.64 -4.02,2.68c-0.027,0.02 -0.46,0.506 -1.3,1.46c-0.454,0.513 -1.02,0.88 -1.7,1.1c-0.94,0.31 -1.73,0.96 -2.23,1.82c-2.387,4.14 -4.077,8.546 -5.07,13.22c-0.17,0.79 0.47,1.52 1.28,1.46c1.666,-0.134 3.173,0.516 4.52,1.95c1.246,1.326 2.076,1.103 2.49,-0.67c1.273,-5.434 3.37,-10.904 6.29,-16.41c0.773,-1.447 1.54,-2.557 2.3,-3.33c1.233,-1.247 2.44,-1.92 3.62,-2.02c2.206,-0.187 4.393,-0.5 6.56,-0.94c0.673,-0.134 1.02,-0.077 1.04,0.17c0.03,0.24 -0.28,0.46 -0.67,0.48c-2.227,0.133 -4.437,0.406 -6.63,0.82c-1.96,0.366 -3.54,1.46 -4.74,3.28c-3.527,5.373 -5.73,11.076 -6.61,17.11c-0.2,1.353 -0.214,2.406 -0.04,3.16c0.42,1.866 1.68,2.236 3.78,1.11c3.14,-1.694 3.83,-4.354 2.07,-7.98c-0.4,-0.84 -0.294,-1.494 0.32,-1.96c0.28,-0.21 0.48,-0.47 0.56,-0.72c0.62,-2.04 1.426,-3.99 2.42,-5.85c0.746,-1.38 1.86,-2.524 3.34,-3.43Zm-2.458,15.147c0.168,-0.257 0.038,-0.627 -0.275,-0.83c-0.317,-0.207 -0.707,-0.157 -0.869,0.095c-0.168,0.258 -0.038,0.628 0.275,0.831c0.317,0.207 0.707,0.157 0.869,-0.096Zm-35.902,31.103c0.74,0.06 1.073,0.476 1,1.25c-0.62,0.726 -0.78,1.44 -0.48,2.14c0.16,0.36 -0.09,0.77 -0.49,0.8c-1.86,0.133 -2.637,0.753 -2.33,1.86c0.64,2.253 0.993,4.55 1.06,6.89c0.01,0.35 0.12,0.67 0.3,0.92c1.02,1.346 2.42,2.146 4.2,2.4c1.28,0.173 1.93,0.903 1.95,2.19c0.02,1.166 0.226,2.123 0.62,2.87c0.473,0.9 0.95,0.903 1.43,0.01c1.513,-2.814 3.73,-3.494 6.65,-2.04c0.873,0.433 1.456,1.09 1.75,1.97c0.12,0.36 0.256,0.61 0.41,0.75c0.506,0.466 0.85,0.29 1.03,-0.53c0.82,-3.774 3.09,-6.01 6.81,-6.71c0.29,-0.05 0.51,-0.28 0.55,-0.57c0.233,-1.62 0.816,-4.27 1.75,-7.95c0.38,-1.487 -0.287,-1.974 -2,-1.46c-0.174,0.033 -0.327,0.103 -0.46,0.21l-0.28,-0.85c-0.114,-0.347 -0.157,-0.664 -0.13,-0.95c0.14,-1.38 -0.404,-1.76 -1.63,-1.14c-0.28,0.15 -0.51,0.4 -0.63,0.71c-0.94,2.353 -0.967,4.763 -0.08,7.23l-0.58,2.69c-0.08,0.36 -0.25,0.63 -0.46,0.73c-1.027,0.486 -1.03,0.016 -0.01,-1.41c0.17,-0.24 0.13,-0.56 -0.09,-0.75l-2.02,-1.69c-0.25,-0.22 -0.6,-0.21 -0.74,0.02l-0.25,0.43c-0.15,0.25 -0.13,0.61 0.07,0.93l1.48,2.41c0.16,0.25 0.12,0.56 -0.08,0.71c-1.047,0.786 -1.984,0.723 -2.81,-0.19c-0.267,-0.3 -0.517,-0.497 -0.75,-0.59c-0.82,-0.32 -1.117,-0.06 -0.89,0.78c0.186,0.693 0.593,1.16 1.22,1.4c0.23,0.08 0.38,0.25 0.35,0.39c-0.04,0.146 -0.2,0.196 -0.48,0.15c-1.574,-0.254 -3.547,-0.32 -5.92,-0.2c-0.834,0.04 -0.964,-0.244 -0.39,-0.85c0.913,-0.954 1.19,-1.6 0.83,-1.94c-0.19,-0.17 -0.54,-0.14 -0.86,0.08c-3.2,2.226 -4.004,1.203 -2.41,-3.07c0.253,-0.68 0.056,-0.854 -0.59,-0.52c-0.927,0.48 -1.587,1.153 -1.98,2.02c-0.09,0.2 -0.35,0.24 -0.49,0.08c-0.5,-0.567 -1.08,-1.024 -1.74,-1.37c-0.934,-0.494 -1.52,-0.907 -1.76,-1.24c-0.574,-0.814 -0.747,-1.717 -0.52,-2.71c0.08,-0.347 0.193,-0.357 0.34,-0.03c0.326,0.72 0.646,1.433 0.96,2.14c0.56,1.233 1.16,1.55 1.8,0.95c0.32,-0.3 0.526,-0.75 0.62,-1.35c0.38,-2.414 -0.097,-4.664 -1.43,-6.75c0.42,-1.187 0.03,-1.854 -1.17,-2c-0.42,-0.647 -0.954,-1.157 -1.6,-1.53c-0.24,-0.14 -0.56,-0.08 -0.79,0.14c-0.774,0.733 -1.574,1.113 -2.4,1.14c-2.274,0.08 -4.4,-0.7 -6.38,-2.34c-0.68,-0.56 -0.987,-0.48 -0.92,0.24c0.02,0.213 0.096,0.43 0.23,0.65c1.74,2.873 4.43,4.69 8.07,5.45c2.5,0.526 3.68,-0.474 3.54,-3Zm26.37,-1.91c-2.454,-1.22 -3.31,0.016 -2.57,3.71c0.17,0.85 0.92,1.46 1.79,1.44c3.793,-0.054 6.733,-1.694 8.82,-4.92c0.173,-0.267 0.3,-0.537 0.38,-0.81c0.373,-1.247 -0.06,-1.32 -1.3,-0.22c-1.2,1.066 -2.564,1.643 -4.09,1.73c-0.7,0.04 -1.71,-0.27 -3.03,-0.93Z" style="fill:#1c6128;fill-rule:nonzero;"/><path d="M40.371,38.558c0.16,1.7 -0.31,3.153 -1.41,4.36c-0.22,0.246 -0.177,0.31 0.13,0.19c2.046,-0.76 2.543,-2.29 1.49,-4.59c-0.14,-0.527 -0.71,-1.61 -1.71,-3.25c-1.374,-2.254 -1.017,-3.57 1.07,-3.95c0.746,-0.134 1.826,-0.22 3.24,-0.26c2.14,-0.054 4.346,0.42 6.62,1.42c0.26,0.11 0.38,0.41 0.27,0.67c-1.64,3.94 -1.39,3.94 0.75,-0c0.19,-0.35 0.45,-0.59 0.69,-0.63c0.366,-0.067 0.59,0.163 0.67,0.69c0.206,1.366 0.2,3.303 -0.02,5.81l-1.94,5.12c-0.08,0.21 -0.06,0.48 0.06,0.74c0.773,1.646 0.923,1.356 0.45,-0.87c-0.07,-0.31 -0,-0.64 0.19,-0.89c0.6,-0.827 1.21,-1.647 1.83,-2.46c0.44,-0.574 0.383,-1.12 -0.17,-1.64l0.6,-4.66c0.05,-0.43 0.49,-0.68 0.83,-0.48l5.41,3.15c0.26,0.15 0.4,0.47 0.37,0.81c-0.06,0.72 -0.297,1.396 -0.71,2.03c-0.1,0.16 -0.14,0.33 -0.1,0.47c0.073,0.28 0.183,0.163 0.33,-0.35c0.046,-0.154 0.12,-0.287 0.22,-0.4c2.18,-2.534 4.803,-4.48 7.87,-5.84c1.78,-0.787 3.29,-1.697 4.53,-2.73c1.726,-1.44 2.23,-1.094 1.51,1.04c-0.774,2.273 -1.484,4.49 -2.13,6.65c-0.374,1.24 -1.304,2.506 -2.79,3.8c-1.08,0.946 -1.774,1.816 -2.08,2.61c-0.427,1.073 -0.674,2.203 -0.74,3.39c-0.094,1.673 -0.514,3.163 -1.26,4.47c-0.514,0.893 -0.87,0.83 -1.07,-0.19l-0.58,-2.98c-0.074,-0.374 -0.147,-0.367 -0.22,0.02c-0.374,1.933 -0.107,3.83 0.8,5.69c0.733,1.506 0.88,2.653 0.44,3.44c-1.454,2.573 -3.14,2.346 -5.06,-0.68c-0.14,-0.22 -0.43,-0.29 -0.64,-0.15c-2.907,1.806 -5.62,3.906 -8.14,6.3c-0.16,0.15 -0.18,0.45 -0.07,0.75l1.09,2.79c0.1,0.25 -0.02,0.59 -0.29,0.84c-1.387,1.28 -2.014,0.933 -1.88,-1.04c0.02,-0.35 -0.09,-0.67 -0.31,-0.84c-0.614,-0.487 -1.327,-0.527 -2.14,-0.12l-0.25,-0.08c3.34,-4.72 7.36,-8.354 12.06,-10.9c0.94,-0.507 1.76,-0.347 2.46,0.48c0.22,0.26 0.53,0.38 0.79,0.31c0.62,-0.16 0.6,-0.46 -0.06,-0.9c-0.227,-0.154 -0.454,-0.387 -0.68,-0.7c-0.214,-0.287 -0.487,-0.494 -0.82,-0.62c-0.2,-0.08 -0.53,-0.087 -0.99,-0.02c-0.974,0.133 -1.297,-0.39 -0.97,-1.57c0.093,-0.354 -0.017,-0.464 -0.33,-0.33l-1.96,0.83l-0.5,-0.08c0.606,-0.854 1.223,-1.697 1.85,-2.53c0.046,-0.06 0.743,-0.75 2.09,-2.07c1.333,-1.3 1.306,-2.884 -0.08,-4.75c-0.654,-0.88 -0.774,-0.737 -0.36,0.43c1.3,3.653 0.28,4.556 -3.06,2.71c-0.28,-0.15 -0.61,-0.15 -0.88,0.01c-2.674,1.606 -4.647,3.843 -5.92,6.71c-0.13,0.28 -0.42,0.43 -0.7,0.36c-1.754,-0.467 -2.514,-1.58 -2.28,-3.34c0.04,-0.274 -0.054,-0.327 -0.28,-0.16c-0.854,0.64 -1.557,0.323 -2.11,-0.95c-0.407,-0.92 -0.707,-1.12 -0.9,-0.6c-0.09,0.23 -0.05,0.57 0.11,0.91c0.673,1.466 0.486,2.623 -0.56,3.47c-1.014,0.82 -1.9,0.703 -2.66,-0.35c-1.34,-1.86 -2.624,-3.434 -3.85,-4.72c-1.427,-1.494 -2.93,-1.707 -4.51,-0.64c-0.27,0.19 -0.6,0.21 -0.83,0.05c-0.94,-0.647 -1.147,-1.524 -0.62,-2.63c0.18,-0.39 0.19,-0.78 0.01,-0.87c-0.267,-0.147 -0.7,0.416 -1.3,1.69c-0.2,0.44 -0.14,0.96 0.16,1.33c1.9,2.386 3.993,4.446 6.28,6.18c0.4,0.306 0.423,0.523 0.07,0.65c-0.394,0.146 -1.104,-0.03 -2.13,-0.53c-0.58,-0.28 -1.28,-0.09 -1.64,0.43c-0.44,0.626 -1.25,1.016 -2.43,1.17c-1.187,0.16 -1.577,0.473 -1.17,0.94c0.18,0.2 0.52,0.2 0.78,0.01c1.16,-0.874 2.2,-0.914 3.12,-0.12c0.88,0.766 1.343,1.166 1.39,1.2c2.213,1.493 4.266,3.19 6.16,5.09c0.693,1.346 1.64,2.466 2.84,3.36c0.62,0.466 0.666,0.793 0.14,0.98c-0.25,0.1 -0.58,0.06 -0.92,-0.09c-1.647,-0.747 -2.154,-0.33 -1.52,1.25c0.14,0.34 0.15,0.68 0.04,0.93c-0.274,0.62 -0.717,0.963 -1.33,1.03c-0.3,0.04 -0.59,-0.15 -0.71,-0.45c-0.567,-1.394 -0.364,-2.817 0.61,-4.27c0.19,-0.28 0.15,-0.65 -0.09,-0.85l-6.98,-5.87c-1.02,-0.867 -1.61,-0.607 -1.77,0.78c-0.114,0.993 -0.567,1.553 -1.36,1.68c-0.574,0.093 -1.15,-0.087 -1.73,-0.54c-0.64,-0.494 -1.334,-1.204 -2.08,-2.13c-0.46,-0.57 -0.35,-1.4 0.24,-1.83c1.606,-1.187 2.243,-2.734 1.91,-4.64c-0.16,-0.954 -0.25,-1.72 -0.27,-2.3c-0.027,-0.78 -0.134,-1.554 -0.32,-2.32c-0.167,-0.707 0.05,-1.194 0.65,-1.46c0.26,-0.12 0.39,-0.42 0.29,-0.7c-0.86,-2.287 -1.957,-4.234 -3.29,-5.84c-0.12,-0.15 -0.28,-0.24 -0.42,-0.24c-0.234,0.006 -0.22,0.176 0.04,0.51c1.186,1.526 1.906,3.26 2.16,5.2c0.386,2.92 0.426,5.83 0.12,8.73c-0.054,0.56 -0.28,0.64 -0.68,0.24c-1.46,-1.48 -2.244,-3.527 -2.35,-6.14c-0.047,-1.294 -0.494,-2.424 -1.34,-3.39c-2.994,-3.42 -4.967,-7.644 -5.92,-12.67c-0.434,-0.614 -0.337,-1.044 0.29,-1.29l0.25,-0c1.16,0.913 2.336,1.81 3.53,2.69c0.813,0.6 2.11,1.26 3.89,1.98c2.66,1.073 4.843,2.81 6.55,5.21c0.166,0.24 0.226,0.213 0.18,-0.08c-0.407,-2.354 0.626,-4.19 3.1,-5.51c2.306,-1.234 3.27,-0.5 2.89,2.2c-0.06,0.42 0.04,0.476 0.3,0.17c0.28,-0.34 0.383,-0.797 0.31,-1.37c-0.16,-1.314 0.09,-2.587 0.75,-3.82c0.16,-0.29 0.16,-0.62 0.02,-0.87c-0.54,-0.92 -0.887,-0.71 -1.04,0.63c-0.04,0.34 -0.2,0.63 -0.44,0.8c-0.934,0.66 -2.09,1.103 -3.47,1.33c-0.3,0.05 -0.6,-0.13 -0.69,-0.42c-0.62,-1.94 -1.157,-3.824 -1.61,-5.65c-0.154,-0.607 -0.304,-0.694 -0.45,-0.26c-0.05,0.15 -0.03,0.33 0.03,0.5c0.306,0.846 0.606,2.433 0.9,4.76c0.26,2.086 -0.25,3.636 -1.53,4.65c-0.23,0.18 -0.57,0.19 -0.83,0.02c-3.467,-2.294 -4.737,-5.557 -3.81,-9.79c0.013,-0.04 0.126,-0.32 0.34,-0.84c0.186,-0.454 0.046,-0.814 -0.42,-1.08l-3.88,-7.94c-0.16,-0.33 -0.38,-0.58 -0.61,-0.73c-2.82,-1.814 -4.887,-3.014 -6.2,-3.6c-1.7,-0.76 -3.017,-1.714 -3.95,-2.86c-0.17,-0.21 -0.29,-0.52 -0.34,-0.9c-0.127,-0.94 -0.574,-1.73 -1.34,-2.37c-0.467,-0.4 -0.397,-0.55 0.21,-0.45c3.66,0.593 7.176,1.086 10.55,1.48c3.466,0.406 5.94,0.953 7.42,1.64c2.373,1.1 4.423,2.706 6.15,4.82c0.16,0.2 0.45,0.36 0.81,0.44l1.28,0.28c0.28,0.06 0.53,0.3 0.67,0.63c2,4.473 3.54,9.096 4.62,13.87c0.08,0.34 0.04,0.67 -0.11,0.93c-0.267,0.44 -0.627,0.796 -1.08,1.07c-0.27,0.16 -0.42,0.45 -0.38,0.72c0.36,2.306 1.253,4.406 2.68,6.3Zm-28.58,-28.98c0.08,0.01 0.14,-0.05 0.14,-0.12c0.006,-1.16 -0.11,-1.55 -0.35,-1.17c-0.127,0.2 -0.247,0.383 -0.36,0.55c-0.3,0.44 -0.11,0.686 0.57,0.74Zm2.71,0.71c0.366,0.14 0.756,0.216 1.17,0.23c0.866,0.026 0.926,-0.177 0.18,-0.61c-0.667,-0.387 -1.167,-0.46 -1.5,-0.22c-0.32,0.24 -0.27,0.44 0.15,0.6Zm9.53,3.87c-0.327,-0.107 -0.4,-0.017 -0.22,0.27c4.153,6.753 4.446,6.8 0.88,0.14c-0.08,-0.15 -0.22,-0.27 -0.39,-0.32l-0.27,-0.09Zm4.18,9.2c0.146,0.453 0.373,0.866 0.68,1.24c0.353,0.426 0.403,0.056 0.15,-1.11c-0.1,-0.434 -0.267,-0.84 -0.5,-1.22c-0.954,-1.54 -1.064,-1.177 -0.33,1.09Zm38.6,14.35c-2.6,2.12 -4.164,4.556 -4.69,7.31c-0.167,0.86 0.156,1.456 0.97,1.79c0.21,0.09 0.43,-0.11 0.4,-0.35c-0.387,-3.447 0.77,-6.257 3.47,-8.43c0.066,-0.054 0.126,-0.11 0.18,-0.17c0.8,-0.94 0.69,-0.99 -0.33,-0.15Zm-18.59,4.76c0.42,0.506 0.526,0.446 0.32,-0.18c-0.567,-1.72 -0.597,-3.324 -0.09,-4.81c0.1,-0.314 0.046,-0.347 -0.16,-0.1c-1.467,1.7 -1.49,3.396 -0.07,5.09Zm-10.6,1.8c0.693,-0.527 0.763,-1.087 0.21,-1.68c-0.227,-0.247 -0.38,-0.44 -0.46,-0.58c-2.274,-3.8 -2.647,-3.88 -1.12,-0.24c0.093,0.233 0.28,0.48 0.56,0.74c0.493,0.466 0.763,1.053 0.81,1.76c-0.307,0.6 -0.727,1.08 -1.26,1.44c-0.24,0.16 -0.56,0.09 -0.74,-0.15c-1.44,-1.934 -1.914,-4.1 -1.42,-6.5c0.07,-0.34 -0.01,-0.67 -0.2,-0.89c-0.474,-0.547 -0.767,-0.347 -0.88,0.6c-0.314,2.586 0.433,5.016 2.24,7.29c0.2,0.26 0.53,0.37 0.81,0.27c0.913,-0.334 1.396,-1.02 1.45,-2.06Zm17.29,-3.25l-1.49,4.5c-0.1,0.31 -0.05,0.62 0.15,0.82c0.62,0.626 0.84,0.566 0.66,-0.18c-0.04,-0.174 -0.03,-0.43 0.03,-0.77l0.82,-4.37c0.273,-0.82 0.276,-1.584 0.01,-2.29c-0.11,-0.29 -0.42,-0.44 -0.71,-0.35c-0.647,0.193 -0.824,0.51 -0.53,0.95c0.006,0.013 0.276,0.19 0.81,0.53c0.313,0.193 0.396,0.58 0.25,1.16Z" style="fill:#fff;fill-rule:nonzero;"/><path d="M11.791,9.578c-0.68,-0.054 -0.87,-0.3 -0.57,-0.74c0.113,-0.167 0.233,-0.35 0.36,-0.55c0.24,-0.38 0.356,0.01 0.35,1.17c-0,0.07 -0.06,0.13 -0.14,0.12Z" style="fill:#7a8174;fill-rule:nonzero;"/><path d="M14.351,9.688c0.333,-0.24 0.833,-0.167 1.5,0.22c0.746,0.433 0.686,0.636 -0.18,0.61c-0.414,-0.014 -0.804,-0.09 -1.17,-0.23c-0.42,-0.16 -0.47,-0.36 -0.15,-0.6Z" style="fill:#7a8174;fill-rule:nonzero;"/><path d="M24.031,14.158l0.27,0.09c0.17,0.05 0.31,0.17 0.39,0.32c3.566,6.66 3.273,6.613 -0.88,-0.14c-0.18,-0.287 -0.107,-0.377 0.22,-0.27Z" style="fill:#7a8174;fill-rule:nonzero;"/><path d="M28.211,23.358c-0.734,-2.267 -0.624,-2.63 0.33,-1.09c0.233,0.38 0.4,0.786 0.5,1.22c0.253,1.166 0.203,1.536 -0.15,1.11c-0.307,-0.374 -0.534,-0.787 -0.68,-1.24Z" style="fill:#dacbac;fill-rule:nonzero;"/><path d="M23.871,25.228c0.466,0.266 0.606,0.626 0.42,1.08c-0.214,0.52 -0.327,0.8 -0.34,0.84c-0.927,4.233 0.343,7.496 3.81,9.79c0.26,0.17 0.6,0.16 0.83,-0.02c1.28,-1.014 1.79,-2.564 1.53,-4.65c-0.294,-2.327 -0.594,-3.914 -0.9,-4.76c-0.06,-0.17 -0.08,-0.35 -0.03,-0.5c0.146,-0.434 0.296,-0.347 0.45,0.26c0.453,1.826 0.99,3.71 1.61,5.65c0.09,0.29 0.39,0.47 0.69,0.42c1.38,-0.227 2.536,-0.67 3.47,-1.33c0.24,-0.17 0.4,-0.46 0.44,-0.8c0.153,-1.34 0.5,-1.55 1.04,-0.63c0.14,0.25 0.14,0.58 -0.02,0.87c-0.66,1.233 -0.91,2.506 -0.75,3.82c0.073,0.573 -0.03,1.03 -0.31,1.37c-0.26,0.306 -0.36,0.25 -0.3,-0.17c0.38,-2.7 -0.584,-3.434 -2.89,-2.2c-2.474,1.32 -3.507,3.156 -3.1,5.51c0.046,0.293 -0.014,0.32 -0.18,0.08c-1.707,-2.4 -3.89,-4.137 -6.55,-5.21c-1.78,-0.72 -3.077,-1.38 -3.89,-1.98c-1.194,-0.88 -2.37,-1.777 -3.53,-2.69c0.193,-0.394 0.526,-0.56 1,-0.5c1.626,0.96 2.793,0.686 3.5,-0.82c0.11,-0.24 0.12,-0.57 0.03,-0.93c-0.254,-0.974 0.133,-1.484 1.16,-1.53c0.26,-0.014 0.563,-0.107 0.91,-0.28l0.9,-0.44l1,-0.25Z" style="fill:#243e26;fill-rule:nonzero;"/><path d="M12.621,27.558c1.386,0.353 2.636,0.993 3.75,1.92c-0.474,-0.06 -0.807,0.106 -1,0.5l-0.25,-0c-1.454,-0.18 -2.287,-0.987 -2.5,-2.42Z" style="fill:#1c6128;fill-rule:nonzero;"/><path d="M68.038,30.335c0.316,0.203 0.439,0.575 0.275,0.83c-0.164,0.256 -0.554,0.298 -0.869,0.096c-0.316,-0.203 -0.439,-0.575 -0.275,-0.831c0.164,-0.255 0.553,-0.298 0.869,-0.095Z" style="fill:#243e26;"/><path d="M66.811,37.708c1.02,-0.84 1.13,-0.79 0.33,0.15c-0.054,0.06 -0.114,0.116 -0.18,0.17c-2.7,2.173 -3.857,4.983 -3.47,8.43c0.03,0.24 -0.19,0.44 -0.4,0.35c-0.814,-0.334 -1.137,-0.93 -0.97,-1.79c0.526,-2.754 2.09,-5.19 4.69,-7.31Z" style="fill:#243e26;fill-rule:nonzero;"/><path d="M48.221,42.468c-1.42,-1.694 -1.397,-3.39 0.07,-5.09c0.206,-0.247 0.26,-0.214 0.16,0.1c-0.507,1.486 -0.477,3.09 0.09,4.81c0.206,0.626 0.1,0.686 -0.32,0.18Z" style="fill:#243e26;fill-rule:nonzero;"/><path d="M37.621,44.268c-0.054,1.04 -0.537,1.726 -1.45,2.06c-0.28,0.1 -0.61,-0.01 -0.81,-0.27c-1.807,-2.274 -2.554,-4.704 -2.24,-7.29c0.113,-0.947 0.406,-1.147 0.88,-0.6c0.19,0.22 0.27,0.55 0.2,0.89c-0.494,2.4 -0.02,4.566 1.42,6.5c0.18,0.24 0.5,0.31 0.74,0.15c0.533,-0.36 0.953,-0.84 1.26,-1.44Z" style="fill:#243e26;fill-rule:nonzero;"/><path d="M55.081,41.018l-0.17,-0c0.146,-0.58 0.063,-0.967 -0.25,-1.16c-0.534,-0.34 -0.804,-0.517 -0.81,-0.53c-0.294,-0.44 -0.117,-0.757 0.53,-0.95c0.29,-0.09 0.6,0.06 0.71,0.35c0.266,0.706 0.263,1.47 -0.01,2.29Z" style="fill:#243e26;fill-rule:nonzero;"/><path d="M40.371,38.558l0.21,-0.04c1.053,2.3 0.556,3.83 -1.49,4.59c-0.307,0.12 -0.35,0.056 -0.13,-0.19c1.1,-1.207 1.57,-2.66 1.41,-4.36Z" style="fill:#243e26;fill-rule:nonzero;"/><path d="M37.621,44.268c-0.047,-0.707 -0.317,-1.294 -0.81,-1.76c-0.28,-0.26 -0.467,-0.507 -0.56,-0.74c-1.527,-3.64 -1.154,-3.56 1.12,0.24c0.08,0.14 0.233,0.333 0.46,0.58c0.553,0.593 0.483,1.153 -0.21,1.68Z" style="fill:#243e26;fill-rule:nonzero;"/><path d="M52.161,39.018l0.42,-0c0.553,0.52 0.61,1.066 0.17,1.64c-0.62,0.813 -1.23,1.633 -1.83,2.46c-0.19,0.25 -0.26,0.58 -0.19,0.89c0.473,2.226 0.323,2.516 -0.45,0.87c-0.12,-0.26 -0.14,-0.53 -0.06,-0.74l1.94,-5.12Z" style="fill:#243e26;fill-rule:nonzero;"/><path d="M54.911,41.018l0.17,-0l-0.82,4.37c-0.06,0.34 -0.07,0.596 -0.03,0.77c0.18,0.746 -0.04,0.806 -0.66,0.18c-0.2,-0.2 -0.25,-0.51 -0.15,-0.82l1.49,-4.5Z" style="fill:#243e26;fill-rule:nonzero;"/><path d="M55.121,53.228c-0.72,0.233 -1.304,0.65 -1.75,1.25c-0.527,0.493 -1.12,0.803 -1.78,0.93c-0.014,-0 -0.607,-0.067 -1.78,-0.2c-0.774,-0.094 -1.35,0.26 -1.73,1.06l-0.96,0.29l-1.53,-1.82c-0.24,-0.3 -0.52,-0.49 -0.76,-0.55c-1.48,-0.374 -2.414,0.18 -2.8,1.66c-0.07,0.28 -0.32,0.47 -0.6,0.46c-1.447,-0.007 -2.53,0.416 -3.25,1.27c-1.354,1.626 -1.04,2.786 0.94,3.48c0.213,0.286 0.31,0.606 0.29,0.96l-0.04,0.21l-0.5,0.08c-1.894,-1.9 -3.947,-3.597 -6.16,-5.09c-0.047,-0.034 -0.51,-0.434 -1.39,-1.2c-0.92,-0.794 -1.96,-0.754 -3.12,0.12c-0.26,0.19 -0.6,0.19 -0.78,-0.01c-0.407,-0.467 -0.017,-0.78 1.17,-0.94c1.18,-0.154 1.99,-0.544 2.43,-1.17c0.36,-0.52 1.06,-0.71 1.64,-0.43c1.026,0.5 1.736,0.676 2.13,0.53c0.353,-0.127 0.33,-0.344 -0.07,-0.65c-2.287,-1.734 -4.38,-3.794 -6.28,-6.18c-0.3,-0.37 -0.36,-0.89 -0.16,-1.33c0.6,-1.274 1.033,-1.837 1.3,-1.69c0.18,0.09 0.17,0.48 -0.01,0.87c-0.527,1.106 -0.32,1.983 0.62,2.63c0.23,0.16 0.56,0.14 0.83,-0.05c1.58,-1.067 3.083,-0.854 4.51,0.64c1.226,1.286 2.51,2.86 3.85,4.72c0.76,1.053 1.646,1.17 2.66,0.35c1.046,-0.847 1.233,-2.004 0.56,-3.47c-0.16,-0.34 -0.2,-0.68 -0.11,-0.91c0.193,-0.52 0.493,-0.32 0.9,0.6c0.553,1.273 1.256,1.59 2.11,0.95c0.226,-0.167 0.32,-0.114 0.28,0.16c-0.234,1.76 0.526,2.873 2.28,3.34c0.28,0.07 0.57,-0.08 0.7,-0.36c1.273,-2.867 3.246,-5.104 5.92,-6.71c0.27,-0.16 0.6,-0.16 0.88,-0.01c3.34,1.846 4.36,0.943 3.06,-2.71c-0.414,-1.167 -0.294,-1.31 0.36,-0.43c1.386,1.866 1.413,3.45 0.08,4.75c-1.347,1.32 -2.044,2.01 -2.09,2.07c-0.627,0.833 -1.244,1.676 -1.85,2.53Zm-17.705,-0.415c0.485,-0.595 -0.285,-2.035 -1.732,-3.212c-1.443,-1.173 -3.013,-1.643 -3.499,-1.039c-0.484,0.596 0.286,2.036 1.733,3.212c1.443,1.174 3.013,1.644 3.498,1.039Zm18.472,-4.115c-0.507,-0.54 -1.967,0.02 -3.268,1.246c-1.299,1.224 -1.939,2.654 -1.426,3.193c0.507,0.541 1.967,-0.019 3.267,-1.246c1.3,-1.223 1.94,-2.653 1.427,-3.193Zm-20.077,8.88c1.06,-0.067 1.846,-0.604 2.36,-1.61c0.15,-0.3 0.17,-0.65 0.05,-0.94c-0.227,-0.54 -0.567,-0.59 -1.02,-0.15c-0.24,0.24 -0.54,0.37 -0.83,0.35c-2.18,-0.107 -2.647,0.556 -1.4,1.99c0.22,0.25 0.53,0.39 0.84,0.36Z" style="fill:#243e26;fill-rule:nonzero;"/><path d="M35.684,49.601c1.443,1.173 2.219,2.612 1.732,3.212c-0.487,0.6 -2.055,0.134 -3.498,-1.039c-1.444,-1.173 -2.22,-2.612 -1.733,-3.212c0.488,-0.599 2.055,-0.134 3.499,1.039Z" style="fill:#fff;"/><path d="M52.62,49.944c1.295,-1.225 2.759,-1.783 3.268,-1.246c0.508,0.538 -0.131,1.968 -1.427,3.193c-1.295,1.225 -2.759,1.783 -3.267,1.246c-0.508,-0.537 0.131,-1.968 1.426,-3.193Z" style="fill:#fff;"/><path d="M55.121,53.228l0.5,0.08c-0.34,0.626 -0.854,1.113 -1.54,1.46c-0.207,-0.167 -0.444,-0.264 -0.71,-0.29c0.446,-0.6 1.03,-1.017 1.75,-1.25Z" style="fill:#7a8174;fill-rule:nonzero;"/><path d="M47.121,56.558c0.366,0.786 0.95,1.01 1.75,0.67c0.94,0.453 1.756,1.076 2.45,1.87c0.686,0.78 0.51,1.17 -0.53,1.17c-1.454,-0 -2.794,0.4 -4.02,1.2c-0.927,0.613 -0.65,1.233 0.83,1.86c0.15,0.06 0.24,0.23 0.21,0.39c-0.16,0.826 -0.62,1.1 -1.38,0.82c-0.36,-0.13 -0.76,-0 -0.96,0.32c-0.44,0.686 -0.964,1.053 -1.57,1.1c-0.44,0.033 -0.937,-0.2 -1.49,-0.7c-1.06,-0.96 -2.074,-1.97 -3.04,-3.03l0.04,-0.21c0.326,-0.487 0.75,-0.424 1.27,0.19c1.54,1.8 1.963,1.793 1.27,-0.02c-0.087,-0.214 -0.22,-0.434 -0.4,-0.66c-1.48,-1.84 -0.89,-2.53 1.77,-2.07c0.206,0.04 0.41,0.04 0.61,-0c5.06,-1.074 4.936,-1.367 -0.37,-0.88c-2.1,0.193 -3.58,1.02 -4.44,2.48c-1.98,-0.694 -2.294,-1.854 -0.94,-3.48c0.72,-0.854 1.803,-1.277 3.25,-1.27c0.28,0.01 0.53,-0.18 0.6,-0.46c0.386,-1.48 1.32,-2.034 2.8,-1.66c0.24,0.06 0.52,0.25 0.76,0.55l1.53,1.82Z" style="fill:#fff;fill-rule:nonzero;"/><path d="M34.971,57.218c-1.247,-1.434 -0.78,-2.097 1.4,-1.99c0.29,0.02 0.59,-0.11 0.83,-0.35c0.453,-0.44 0.793,-0.39 1.02,0.15c0.12,0.29 0.1,0.64 -0.05,0.94c-0.514,1.006 -1.3,1.543 -2.36,1.61c-0.31,0.03 -0.62,-0.11 -0.84,-0.36Z" style="fill:#fff;fill-rule:nonzero;"/><path d="M53.371,54.478c0.266,0.026 0.503,0.123 0.71,0.29c0.473,2.58 -0.414,3.53 -2.66,2.85c-0.034,-0.007 -0.33,-0.167 -0.89,-0.48c-0.327,-0.18 -0.714,-0.234 -1.16,-0.16c-0.607,-0.02 -1.037,-0.257 -1.29,-0.71c0.38,-0.8 0.956,-1.154 1.73,-1.06c1.173,0.133 1.766,0.2 1.78,0.2c0.66,-0.127 1.253,-0.437 1.78,-0.93Z" style="fill:#fff;fill-rule:nonzero;"/><path d="M48.081,56.268c0.253,0.453 0.683,0.69 1.29,0.71c-0.234,-0.034 -0.4,0.05 -0.5,0.25c-0.8,0.34 -1.384,0.116 -1.75,-0.67l0.96,-0.29Z" style="fill:#7a8174;fill-rule:nonzero;"/><path d="M39.411,62.018c0.02,-0.354 -0.077,-0.674 -0.29,-0.96c0.86,-1.46 2.34,-2.287 4.44,-2.48c5.306,-0.487 5.43,-0.194 0.37,0.88c-0.2,0.04 -0.404,0.04 -0.61,-0c-2.66,-0.46 -3.25,0.23 -1.77,2.07c0.18,0.226 0.313,0.446 0.4,0.66c0.693,1.813 0.27,1.82 -1.27,0.02c-0.52,-0.614 -0.944,-0.677 -1.27,-0.19Z" style="fill:#243e26;fill-rule:nonzero;"/><path d="M32.661,61.518l-0.25,0.75c0.14,2.526 -1.04,3.526 -3.54,3c-3.64,-0.76 -6.33,-2.577 -8.07,-5.45c-0.134,-0.22 -0.21,-0.437 -0.23,-0.65c-0.067,-0.72 0.24,-0.8 0.92,-0.24c1.98,1.64 4.106,2.42 6.38,2.34c0.826,-0.027 1.626,-0.407 2.4,-1.14c0.23,-0.22 0.55,-0.28 0.79,-0.14c0.646,0.373 1.18,0.883 1.6,1.53Z" style="fill:#fff;fill-rule:nonzero;"/><path d="M61.811,61.288c1.526,-0.087 2.89,-0.664 4.09,-1.73c1.24,-1.1 1.673,-1.027 1.3,0.22c-0.08,0.273 -0.207,0.543 -0.38,0.81c-2.087,3.226 -5.027,4.866 -8.82,4.92c-0.87,0.02 -1.62,-0.59 -1.79,-1.44c-0.74,-3.694 0.116,-4.93 2.57,-3.71c1.32,0.66 2.33,0.97 3.03,0.93Z" style="fill:#fff;fill-rule:nonzero;"/><path d="M32.661,61.518c1.2,0.146 1.59,0.813 1.17,2l-0.42,-0c0.073,-0.774 -0.26,-1.19 -1,-1.25l0.25,-0.75Z" style="fill:#7a8174;fill-rule:nonzero;"/><path d="M33.411,63.518l0.42,-0c1.333,2.086 1.81,4.336 1.43,6.75c-0.094,0.6 -0.3,1.05 -0.62,1.35c-0.64,0.6 -1.24,0.283 -1.8,-0.95c-0.314,-0.707 -0.634,-1.42 -0.96,-2.14c-0.147,-0.327 -0.26,-0.317 -0.34,0.03c-0.227,0.993 -0.054,1.896 0.52,2.71c0.24,0.333 0.826,0.746 1.76,1.24c0.66,0.346 1.24,0.803 1.74,1.37c0.14,0.16 0.4,0.12 0.49,-0.08c0.393,-0.867 1.053,-1.54 1.98,-2.02c0.646,-0.334 0.843,-0.16 0.59,0.52c-1.594,4.273 -0.79,5.296 2.41,3.07c0.32,-0.22 0.67,-0.25 0.86,-0.08c0.36,0.34 0.083,0.986 -0.83,1.94c-0.574,0.606 -0.444,0.89 0.39,0.85c2.373,-0.12 4.346,-0.054 5.92,0.2c0.28,0.046 0.44,-0.004 0.48,-0.15c0.03,-0.14 -0.12,-0.31 -0.35,-0.39c-0.627,-0.24 -1.034,-0.707 -1.22,-1.4c-0.227,-0.84 0.07,-1.1 0.89,-0.78c0.233,0.093 0.483,0.29 0.75,0.59c0.826,0.913 1.763,0.976 2.81,0.19c0.2,-0.15 0.24,-0.46 0.08,-0.71l-1.48,-2.41c-0.2,-0.32 -0.22,-0.68 -0.07,-0.93l0.25,-0.43c0.14,-0.23 0.49,-0.24 0.74,-0.02l2.02,1.69c0.22,0.19 0.26,0.51 0.09,0.75c-1.02,1.426 -1.017,1.896 0.01,1.41c0.21,-0.1 0.38,-0.37 0.46,-0.73l0.58,-2.69l0.67,-0c0.646,0.7 1.29,0.666 1.93,-0.1c1.286,-1.56 1.49,-3.264 0.61,-5.11c1.713,-0.514 2.38,-0.027 2,1.46c-0.934,3.68 -1.517,6.33 -1.75,7.95c-0.04,0.29 -0.26,0.52 -0.55,0.57c-3.72,0.7 -5.99,2.936 -6.81,6.71c-0.18,0.82 -0.524,0.996 -1.03,0.53c-0.154,-0.14 -0.29,-0.39 -0.41,-0.75c-0.294,-0.88 -0.877,-1.537 -1.75,-1.97c-2.92,-1.454 -5.137,-0.774 -6.65,2.04c-0.48,0.893 -0.957,0.89 -1.43,-0.01c-0.394,-0.747 -0.6,-1.704 -0.62,-2.87c-0.02,-1.287 -0.67,-2.017 -1.95,-2.19c-1.78,-0.254 -3.18,-1.054 -4.2,-2.4c-0.18,-0.25 -0.29,-0.57 -0.3,-0.92c-0.067,-2.34 -0.42,-4.637 -1.06,-6.89c-0.307,-1.107 0.47,-1.727 2.33,-1.86c0.4,-0.03 0.65,-0.44 0.49,-0.8c-0.3,-0.7 -0.14,-1.414 0.48,-2.14Z" style="fill:#fff;fill-rule:nonzero;"/><path d="M56.161,67.268c0.54,2.34 -0.154,4.006 -2.08,5l-0.67,-0c-0.887,-2.467 -0.86,-4.877 0.08,-7.23c0.12,-0.31 0.35,-0.56 0.63,-0.71c1.226,-0.62 1.77,-0.24 1.63,1.14c-0.027,0.286 0.016,0.603 0.13,0.95l0.28,0.85Z" style="fill:#fff;fill-rule:nonzero;"/><path d="M46.121,66.728l0.25,0.08c-0.054,0.946 0.223,1.753 0.83,2.42c0.25,0.29 0.41,0.58 0.45,0.85c0.14,1.133 -0.307,1.383 -1.34,0.75c-0.827,-0.5 -1.18,-1.42 -1.06,-2.76c0.02,-0.27 -0.19,-0.5 -0.45,-0.47c-1.347,0.12 -2.054,0.946 -2.12,2.48c-0.01,0.35 -0.13,0.67 -0.33,0.88c-1.334,1.473 -1.75,1.093 -1.25,-1.14c0.626,-2.807 2.3,-3.837 5.02,-3.09Z" style="fill:#fff;fill-rule:nonzero;"/><path d="M56.621,67.058c0.88,1.846 0.676,3.55 -0.61,5.11c-0.64,0.766 -1.284,0.8 -1.93,0.1c1.926,-0.994 2.62,-2.66 2.08,-5c0.133,-0.107 0.286,-0.177 0.46,-0.21Z" style="fill:#7a8174;fill-rule:nonzero;"/></svg>