<?xml version="1.0" encoding="UTF-8" standalone="no"?><!DOCTYPE svg PUBLIC "-//W3C//DTD SVG 1.1//EN" "http://www.w3.org/Graphics/SVG/1.1/DTD/svg11.dtd"><svg width="100%" height="100%" viewBox="0 0 66 53" version="1.1" xmlns="http://www.w3.org/2000/svg" xmlns:xlink="http://www.w3.org/1999/xlink" xml:space="preserve" xmlns:serif="http://www.serif.com/" style="fill-rule:evenodd;clip-rule:evenodd;"><path d="M5.917,10.158l2.83,5.5" style="fill:none;fill-rule:nonzero;stroke:#b7c09e;stroke-width:2px;"/><path d="M8.747,15.658c0.473,1.714 1.543,2.81 3.21,3.29" style="fill:none;fill-rule:nonzero;stroke:#81a171;stroke-width:2px;"/><path d="M11.957,18.948l-0.04,0.46" style="fill:none;fill-rule:nonzero;stroke:#efeed9;stroke-width:2px;"/><path d="M11.917,19.408c-0.627,-0.353 -1.01,-0.166 -1.15,0.56c-1.314,6.86 -0.357,12.787 2.87,17.78c3.12,4.84 7.48,8.09 13.08,9.75c5.913,1.76 11.763,0.75 17.55,-3.03c5.093,-3.32 8.336,-8.34 9.73,-15.06" style="fill:none;fill-rule:nonzero;stroke:#81a171;stroke-width:2px;"/><path d="M57.207,14.118c0.366,-2.1 1.33,-3.82 2.89,-5.16c0.266,-0.233 0.456,-0.47 0.57,-0.71c0.613,-1.286 0.21,-1.47 -1.21,-0.55" style="fill:none;fill-rule:nonzero;stroke:#81a171;stroke-width:2px;"/><path d="M55.997,9.658c-2.427,3.747 -5.024,4.237 -7.79,1.47c-1.114,-1.12 -1.687,-1.693 -1.72,-1.72c-4.82,-4.126 -10.494,-5.836 -17.02,-5.13c-5.554,0.607 -10.06,3.06 -13.52,7.36c-1.894,2.354 -3.704,2.34 -5.43,-0.04c-1.167,-1.613 -2.547,-2.623 -4.14,-3.03c-0.27,-0.06 -0.54,-0.24 -0.78,-0.51c-0.3,-0.326 -0.664,-0.52 -1.09,-0.58c-0.36,-0.046 -0.467,0.11 -0.32,0.47c0.366,0.88 0.943,1.617 1.73,2.21" style="fill:none;fill-rule:nonzero;stroke:#859d73;stroke-width:2px;"/><path d="M55.997,9.658c0.473,-0.64 1.043,-1.126 1.71,-1.46" style="fill:none;fill-rule:nonzero;stroke:#809378;stroke-width:2px;"/><path d="M57.707,8.198l-0,0.92" style="fill:none;fill-rule:nonzero;stroke:#4d654b;stroke-width:2px;"/><path d="M57.707,9.118c-0.907,0.434 -1.657,1.294 -2.25,2.58c-0.507,1.1 -1.4,1.794 -2.68,2.08l-7.83,1.75c-0.27,0.06 -0.54,-0.1 -0.61,-0.37c-0.554,-2.026 -1.694,-3.686 -3.42,-4.98c-5.507,-4.12 -11.124,-4.246 -16.85,-0.38c-1.847,1.254 -3.107,3.17 -3.78,5.75c-0.05,0.22 -0.29,0.36 -0.53,0.29l-8.4,-2.32c-0.58,-0.16 -1.06,-0.52 -1.34,-1c-0.907,-1.566 -1.997,-2.71 -3.27,-3.43c-0.687,-0.386 -0.937,-0.196 -0.75,0.57" style="fill:none;fill-rule:nonzero;stroke:#93ae98;stroke-width:2px;"/><path d="M5.997,9.658l-0.08,0.5" style="fill:none;fill-rule:nonzero;stroke:#5a7f5b;stroke-width:2px;"/><path d="M57.707,8.198c0.913,0.507 1.496,0.34 1.75,-0.5" style="fill:none;fill-rule:nonzero;stroke:#a59c93;stroke-width:2px;"/><path d="M57.207,14.118c-0.847,1.92 -2.11,3.517 -3.79,4.79" style="fill:none;fill-rule:nonzero;stroke:#81a171;stroke-width:2px;"/><path d="M5.997,9.658c1.466,1.807 2.606,3.807 3.42,6" style="fill:none;fill-rule:nonzero;stroke:#81a171;stroke-width:2px;"/><path d="M9.417,15.658l-0.67,-0" style="fill:none;fill-rule:nonzero;stroke:#81a171;stroke-width:2px;"/><path d="M57.707,9.118c0.4,-0.026 0.536,0.144 0.41,0.51c-0.874,2.494 -2.024,4.847 -3.45,7.06c-0.16,0.24 -0.43,0.42 -0.76,0.5c-1.1,0.274 -2.014,0.847 -2.74,1.72" style="fill:none;fill-rule:nonzero;stroke:#b9b7b3;stroke-width:2px;"/><path d="M51.167,18.908l-7.05,2.64c-0.26,0.09 -0.57,0.04 -0.85,-0.14c-0.247,-0.166 -0.497,-0.253 -0.75,-0.26c-0.24,-0.01 -0.39,0.28 -0.27,0.53c0.906,1.954 0.31,3.28 -1.79,3.98c-2.114,0.707 -3.737,1.684 -4.87,2.93c-0.22,0.26 -0.52,0.41 -0.82,0.44c-1.967,0.194 -2.33,-0.413 -1.09,-1.82c0.233,-0.266 0.396,-0.483 0.49,-0.65c0.4,-0.766 -0.084,-0.663 -1.45,0.31c-0.29,0.2 -0.69,0.15 -0.91,-0.13c-2.56,-3.186 -2.857,-3.263 -0.89,-0.23c1.193,1.847 0.98,2.65 -0.64,2.41c-0.494,-0.073 -1.024,-0.323 -1.59,-0.75c-1.734,-1.293 -3.614,-2.336 -5.64,-3.13c-0.96,-0.373 -1.48,-1.213 -1.56,-2.52c-0.01,-0.24 -0.15,-0.45 -0.36,-0.56c-1.814,-0.946 -3.724,-1.693 -5.73,-2.24c-1.327,-0.36 -3.32,-1.713 -5.98,-4.06" style="fill:none;fill-rule:nonzero;stroke:#a3aba3;stroke-width:2px;"/><path d="M51.167,18.908l0.08,0.25" style="fill:none;fill-rule:nonzero;stroke:#5d6357;stroke-width:2px;"/><path d="M51.247,19.158c-1.747,1.527 -3.764,2.574 -6.05,3.14c-0.32,0.08 -0.59,0.26 -0.77,0.52c-0.98,1.447 -2.01,2.857 -3.09,4.23c-0.834,1.074 -0.814,2.047 0.06,2.92c1.093,1.107 1.53,2.004 1.31,2.69c-0.287,0.894 -0.597,0.93 -0.93,0.11c-0.434,-1.066 -1.127,-2.113 -2.08,-3.14c-0.33,-0.35 -0.27,-0.91 0.12,-1.19c0.42,-0.3 0.603,-0.653 0.55,-1.06c-0.04,-0.27 -0.34,-0.44 -0.65,-0.38c-1.407,0.287 -2.61,0.947 -3.61,1.98c-0.16,0.16 -0.1,0.43 0.12,0.55l0.76,0.41c0.22,0.12 0.42,0.4 0.53,0.77c0.313,1.007 0.896,1.72 1.75,2.14c2.526,1.24 2.526,2.53 -0,3.87c-1.1,0.587 -2.5,2.034 -4.2,4.34c-0.21,0.29 -0.48,0.49 -0.77,0.58c-1.034,0.327 -2.047,0.384 -3.04,0.17c-0.867,-0.186 -1.784,-0.81 -2.75,-1.87c-1.54,-1.68 -3.17,-3.276 -4.89,-4.79c-0.254,-0.22 -0.42,-0.46 -0.5,-0.72c-0.307,-0.98 0.14,-1.056 1.34,-0.23" style="fill:none;fill-rule:nonzero;stroke:#a2aaa2;stroke-width:2px;"/><path d="M24.457,34.198c0.673,1.294 1.743,1.947 3.21,1.96" style="fill:none;fill-rule:nonzero;stroke:#62745f;stroke-width:2px;"/><path d="M27.667,36.158l3.23,4.12c1.086,1.387 2.083,1.33 2.99,-0.17l3.39,-5.58c0.41,-0.67 0.42,-1.53 0.02,-2.25c-1.127,-2.046 -1.957,-2.433 -2.49,-1.16c-0.214,0.52 -0.35,0.827 -0.41,0.92c-0.714,1.214 -1.037,0.94 -0.97,-0.82c0.013,-0.413 -0.05,-0.766 -0.19,-1.06c-0.934,-1.893 -1.867,-1.356 -2.8,1.61c-0.154,0.494 -0.3,0.49 -0.44,-0.01c-0.44,-1.566 -1.13,-1.696 -2.07,-0.39c-0.994,1.387 -1.44,1.464 -1.34,0.23c0.05,-0.54 -0.17,-1.07 -0.59,-1.42c-1.614,-1.366 -2.307,-1.29 -2.08,0.23" style="fill:none;fill-rule:nonzero;stroke:#a3aba3;stroke-width:2px;"/><path d="M23.917,30.408l-0.92,1.5" style="fill:none;fill-rule:nonzero;stroke:#62745f;stroke-width:2px;"/><path d="M22.997,31.908c-0.227,0.767 -0.534,1.044 -0.92,0.83c-0.26,-0.14 -0.34,-0.5 -0.17,-0.79l1.51,-2.64c0.17,-0.3 0.21,-0.62 0.12,-0.87c-0.6,-1.586 -1.404,-3.046 -2.41,-4.38c-0.754,-0.986 -1.907,-1.786 -3.46,-2.4c-1.96,-0.78 -3.864,-1.683 -5.71,-2.71" style="fill:none;fill-rule:nonzero;stroke:#a2aaa2;stroke-width:2px;"/><path d="M22.997,31.908c1.513,0.12 2,0.884 1.46,2.29" style="fill:none;fill-rule:nonzero;stroke:#bdc7b9;stroke-width:2px;"/><path d="M51.247,19.158c0.446,-0.38 0.863,-0.38 1.25,-0" style="fill:none;fill-rule:nonzero;stroke:#b7b6b1;stroke-width:2px;"/><path d="M52.497,19.158l-1.58,2.5" style="fill:none;fill-rule:nonzero;stroke:#90a692;stroke-width:2px;"/><path d="M14.957,23.368c0.093,-0.473 -0.074,-0.806 -0.5,-1" style="fill:none;fill-rule:nonzero;stroke:#f2f3f1;stroke-width:2px;"/><path d="M52.497,19.158c0.273,-0.22 0.58,-0.303 0.92,-0.25" style="fill:none;fill-rule:nonzero;stroke:#4b5e47;stroke-width:2px;"/><path d="M53.417,18.908l0.75,8" style="fill:none;fill-rule:nonzero;stroke:#81a171;stroke-width:2px;"/><path d="M23.917,30.408c-0,0.6 0.326,1.12 0.98,1.56c1.4,0.947 2.323,2.344 2.77,4.19" style="fill:none;fill-rule:nonzero;stroke:#bec8bb;stroke-width:2px;"/><path d="M11.917,19.408l2.54,2.96" style="fill:none;fill-rule:nonzero;stroke:#8eb194;stroke-width:2px;"/><path d="M14.457,22.368c-1.807,0.987 -2.037,2.23 -0.69,3.73c0.726,0.807 1.166,0.844 1.32,0.11c0.04,-0.22 -0.01,-0.56 -0.16,-0.94c-0.24,-0.626 -0.23,-1.26 0.03,-1.9" style="fill:#1f642c;fill-rule:nonzero;stroke:#1f642c;stroke-width:2px;"/><path d="M14.957,23.368c0.86,1.64 2.43,3.22 4.71,4.74c0.49,0.33 0.79,0.88 0.8,1.47c0.013,1.42 0.26,2.847 0.74,4.28c0.386,1.16 1.2,2.29 2.44,3.39c1.2,1.074 2.36,2.187 3.48,3.34c1.453,1.5 2.74,2.39 3.86,2.67c1.94,0.494 3.67,0.05 5.19,-1.33c1.526,-1.393 2.326,-2.116 2.4,-2.17c2.166,-1.646 3.69,-3.116 4.57,-4.41c0.86,-1.266 1.176,-3.026 0.95,-5.28c-0.06,-0.59 0.19,-1.18 0.67,-1.53c1.96,-1.473 3.463,-3.006 4.51,-4.6c0.013,-0.02 0.176,-0.45 0.49,-1.29c0.18,-0.48 0.563,-0.81 1.15,-0.99" style="fill:none;fill-rule:nonzero;stroke:#1f642c;stroke-width:2px;"/><path d="M50.917,21.658l0.04,0.71" style="fill:none;fill-rule:nonzero;stroke:#21592a;stroke-width:2px;"/><path d="M50.957,22.368c-0.4,0.507 -0.734,1.437 -1,2.79c-0.26,1.307 0.156,1.544 1.25,0.71" style="fill:none;fill-rule:nonzero;stroke:#8aab8f;stroke-width:2px;"/><path d="M51.207,25.868c0.786,0.88 1.773,1.227 2.96,1.04" style="fill:none;fill-rule:nonzero;stroke:#21592a;stroke-width:2px;"/><path d="M54.167,26.908c0.14,0.854 0.083,1.687 -0.17,2.5" style="fill:none;fill-rule:nonzero;stroke:#81a171;stroke-width:2px;"/><path d="M50.957,22.368c1.006,1.067 1.09,2.234 0.25,3.5" style="fill:none;fill-rule:nonzero;stroke:#8ca08c;stroke-width:2px;"/><path d="M26.547,29.638c0.4,0.187 0.82,0.314 1.26,0.38c0.806,0.114 1.086,-0.133 0.84,-0.74c-0.087,-0.22 -0.267,-0.426 -0.54,-0.62c-0.94,-0.693 -1.89,-1.383 -2.85,-2.07c-0.714,-0.513 -1.06,-0.33 -1.04,0.55c0.02,0.954 0.796,1.787 2.33,2.5" style="fill:none;fill-rule:nonzero;stroke:#a2aaa2;stroke-width:2px;"/><path d="M37.947,37.068l1.23,-1.75c0.2,-0.29 0.23,-0.63 0.07,-0.86c-0.267,-0.4 -0.627,-0.346 -1.08,0.16c-0.7,0.78 -1.07,1.49 -1.11,2.13c-0.074,1.174 0.223,1.28 0.89,0.32" style="fill:none;fill-rule:nonzero;stroke:#919688;stroke-width:2px;"/><path d="M55.997,9.658c0.473,-0.64 1.043,-1.126 1.71,-1.46l-0,0.92c-0.907,0.434 -1.657,1.294 -2.25,2.58c-0.507,1.1 -1.4,1.794 -2.68,2.08l-7.83,1.75c-0.27,0.06 -0.54,-0.1 -0.61,-0.37c-0.554,-2.026 -1.694,-3.686 -3.42,-4.98c-5.507,-4.12 -11.124,-4.246 -16.85,-0.38c-1.847,1.254 -3.107,3.17 -3.78,5.75c-0.05,0.22 -0.29,0.36 -0.53,0.29l-8.4,-2.32c-0.58,-0.16 -1.06,-0.52 -1.34,-1c-0.907,-1.566 -1.997,-2.71 -3.27,-3.43c-0.687,-0.386 -0.937,-0.196 -0.75,0.57l-0.08,0.5c-0.787,-0.593 -1.364,-1.33 -1.73,-2.21c-0.147,-0.36 -0.04,-0.516 0.32,-0.47c0.426,0.06 0.79,0.254 1.09,0.58c0.24,0.27 0.51,0.45 0.78,0.51c1.593,0.407 2.973,1.417 4.14,3.03c1.726,2.38 3.536,2.394 5.43,0.04c3.46,-4.3 7.966,-6.753 13.52,-7.36c6.526,-0.706 12.2,1.004 17.02,5.13c0.033,0.027 0.606,0.6 1.72,1.72c2.766,2.767 5.363,2.277 7.79,-1.47Z" style="fill:#275c30;fill-rule:nonzero;"/><path d="M5.917,10.158l0.08,-0.5c1.466,1.807 2.606,3.807 3.42,6l-0.67,-0l-2.83,-5.5Z" style="fill:#8ca186;fill-rule:nonzero;"/><path d="M5.997,9.658c-0.187,-0.766 0.063,-0.956 0.75,-0.57c1.273,0.72 2.363,1.864 3.27,3.43c0.28,0.48 0.76,0.84 1.34,1l8.4,2.32c0.24,0.07 0.48,-0.07 0.53,-0.29c0.673,-2.58 1.933,-4.496 3.78,-5.75c5.726,-3.866 11.343,-3.74 16.85,0.38c1.726,1.294 2.866,2.954 3.42,4.98c0.07,0.27 0.34,0.43 0.61,0.37l7.83,-1.75c1.28,-0.286 2.173,-0.98 2.68,-2.08c0.593,-1.286 1.343,-2.146 2.25,-2.58c0.4,-0.026 0.536,0.144 0.41,0.51c-0.874,2.494 -2.024,4.847 -3.45,7.06c-0.16,0.24 -0.43,0.42 -0.76,0.5c-1.1,0.274 -2.014,0.847 -2.74,1.72l-7.05,2.64c-0.26,0.09 -0.57,0.04 -0.85,-0.14c-0.247,-0.166 -0.497,-0.253 -0.75,-0.26c-0.24,-0.01 -0.39,0.28 -0.27,0.53c0.906,1.954 0.31,3.28 -1.79,3.98c-2.114,0.707 -3.737,1.684 -4.87,2.93c-0.22,0.26 -0.52,0.41 -0.82,0.44c-1.967,0.194 -2.33,-0.413 -1.09,-1.82c0.233,-0.266 0.396,-0.483 0.49,-0.65c0.4,-0.766 -0.084,-0.663 -1.45,0.31c-0.29,0.2 -0.69,0.15 -0.91,-0.13c-2.56,-3.186 -2.857,-3.263 -0.89,-0.23c1.193,1.847 0.98,2.65 -0.64,2.41c-0.494,-0.073 -1.024,-0.323 -1.59,-0.75c-1.734,-1.293 -3.614,-2.336 -5.64,-3.13c-0.96,-0.373 -1.48,-1.213 -1.56,-2.52c-0.01,-0.24 -0.15,-0.45 -0.36,-0.56c-1.814,-0.946 -3.724,-1.693 -5.73,-2.24c-1.327,-0.36 -3.32,-1.713 -5.98,-4.06c-0.814,-2.193 -1.954,-4.193 -3.42,-6Z" style="fill:#fff;fill-rule:nonzero;"/><path d="M8.747,15.658l0.67,-0c2.66,2.347 4.653,3.7 5.98,4.06c2.006,0.547 3.916,1.294 5.73,2.24c0.21,0.11 0.35,0.32 0.36,0.56c0.08,1.307 0.6,2.147 1.56,2.52c2.026,0.794 3.906,1.837 5.64,3.13c0.566,0.427 1.096,0.677 1.59,0.75c1.62,0.24 1.833,-0.563 0.64,-2.41c-1.967,-3.033 -1.67,-2.956 0.89,0.23c0.22,0.28 0.62,0.33 0.91,0.13c1.366,-0.973 1.85,-1.076 1.45,-0.31c-0.094,0.167 -0.257,0.384 -0.49,0.65c-1.24,1.407 -0.877,2.014 1.09,1.82c0.3,-0.03 0.6,-0.18 0.82,-0.44c1.133,-1.246 2.756,-2.223 4.87,-2.93c2.1,-0.7 2.696,-2.026 1.79,-3.98c-0.12,-0.25 0.03,-0.54 0.27,-0.53c0.253,0.007 0.503,0.094 0.75,0.26c0.28,0.18 0.59,0.23 0.85,0.14l7.05,-2.64l0.08,0.25c-1.747,1.527 -3.764,2.574 -6.05,3.14c-0.32,0.08 -0.59,0.26 -0.77,0.52c-0.98,1.447 -2.01,2.857 -3.09,4.23c-0.834,1.074 -0.814,2.047 0.06,2.92c1.093,1.107 1.53,2.004 1.31,2.69c-0.287,0.894 -0.597,0.93 -0.93,0.11c-0.434,-1.066 -1.127,-2.113 -2.08,-3.14c-0.33,-0.35 -0.27,-0.91 0.12,-1.19c0.42,-0.3 0.603,-0.653 0.55,-1.06c-0.04,-0.27 -0.34,-0.44 -0.65,-0.38c-1.407,0.287 -2.61,0.947 -3.61,1.98c-0.16,0.16 -0.1,0.43 0.12,0.55l0.76,0.41c0.22,0.12 0.42,0.4 0.53,0.77c0.313,1.007 0.896,1.72 1.75,2.14c2.526,1.24 2.526,2.53 -0,3.87c-1.1,0.587 -2.5,2.034 -4.2,4.34c-0.21,0.29 -0.48,0.49 -0.77,0.58c-1.034,0.327 -2.047,0.384 -3.04,0.17c-0.867,-0.186 -1.784,-0.81 -2.75,-1.87c-1.54,-1.68 -3.17,-3.276 -4.89,-4.79c-0.254,-0.22 -0.42,-0.46 -0.5,-0.72c-0.307,-0.98 0.14,-1.056 1.34,-0.23c0.673,1.294 1.743,1.947 3.21,1.96l3.23,4.12c1.086,1.387 2.083,1.33 2.99,-0.17l3.39,-5.58c0.41,-0.67 0.42,-1.53 0.02,-2.25c-1.127,-2.046 -1.957,-2.433 -2.49,-1.16c-0.214,0.52 -0.35,0.827 -0.41,0.92c-0.714,1.214 -1.037,0.94 -0.97,-0.82c0.013,-0.413 -0.05,-0.766 -0.19,-1.06c-0.934,-1.893 -1.867,-1.356 -2.8,1.61c-0.154,0.494 -0.3,0.49 -0.44,-0.01c-0.44,-1.566 -1.13,-1.696 -2.07,-0.39c-0.994,1.387 -1.44,1.464 -1.34,0.23c0.05,-0.54 -0.17,-1.07 -0.59,-1.42c-1.614,-1.366 -2.307,-1.29 -2.08,0.23l-0.92,1.5c-0.227,0.767 -0.534,1.044 -0.92,0.83c-0.26,-0.14 -0.34,-0.5 -0.17,-0.79l1.51,-2.64c0.17,-0.3 0.21,-0.62 0.12,-0.87c-0.6,-1.586 -1.404,-3.046 -2.41,-4.38c-0.754,-0.986 -1.907,-1.786 -3.46,-2.4c-1.96,-0.78 -3.864,-1.683 -5.71,-2.71c-1.667,-0.48 -2.737,-1.576 -3.21,-3.29Zm17.8,13.98c0.4,0.187 0.82,0.314 1.26,0.38c0.806,0.114 1.086,-0.133 0.84,-0.74c-0.087,-0.22 -0.267,-0.426 -0.54,-0.62c-0.94,-0.693 -1.89,-1.383 -2.85,-2.07c-0.714,-0.513 -1.06,-0.33 -1.04,0.55c0.02,0.954 0.796,1.787 2.33,2.5Zm11.4,7.43l1.23,-1.75c0.2,-0.29 0.23,-0.63 0.07,-0.86c-0.267,-0.4 -0.627,-0.346 -1.08,0.16c-0.7,0.78 -1.07,1.49 -1.11,2.13c-0.074,1.174 0.223,1.28 0.89,0.32Z" style="fill:#475747;fill-rule:nonzero;"/><path d="M11.917,19.408l2.54,2.96c-1.807,0.987 -2.037,2.23 -0.69,3.73c0.726,0.807 1.166,0.844 1.32,0.11c0.04,-0.22 -0.01,-0.56 -0.16,-0.94c-0.24,-0.626 -0.23,-1.26 0.03,-1.9c0.86,1.64 2.43,3.22 4.71,4.74c0.49,0.33 0.79,0.88 0.8,1.47c0.013,1.42 0.26,2.847 0.74,4.28c0.386,1.16 1.2,2.29 2.44,3.39c1.2,1.074 2.36,2.187 3.48,3.34c1.453,1.5 2.74,2.39 3.86,2.67c1.94,0.494 3.67,0.05 5.19,-1.33c1.526,-1.393 2.326,-2.116 2.4,-2.17c2.166,-1.646 3.69,-3.116 4.57,-4.41c0.86,-1.266 1.176,-3.026 0.95,-5.28c-0.06,-0.59 0.19,-1.18 0.67,-1.53c1.96,-1.473 3.463,-3.006 4.51,-4.6c0.013,-0.02 0.176,-0.45 0.49,-1.29c0.18,-0.48 0.563,-0.81 1.15,-0.99l0.04,0.71c-0.4,0.507 -0.734,1.437 -1,2.79c-0.26,1.307 0.156,1.544 1.25,0.71c0.786,0.88 1.773,1.227 2.96,1.04c0.14,0.854 0.083,1.687 -0.17,2.5c-1.394,6.72 -4.637,11.74 -9.73,15.06c-5.787,3.78 -11.637,4.79 -17.55,3.03c-5.6,-1.66 -9.96,-4.91 -13.08,-9.75c-3.227,-4.993 -4.184,-10.92 -2.87,-17.78c0.14,-0.726 0.523,-0.913 1.15,-0.56Z" style="fill:#1f642c;fill-rule:nonzero;"/><path d="M11.917,19.408l0.04,-0.46c1.846,1.027 3.75,1.93 5.71,2.71c1.553,0.614 2.706,1.414 3.46,2.4c1.006,1.334 1.81,2.794 2.41,4.38c0.09,0.25 0.05,0.57 -0.12,0.87l-1.51,2.64c-0.17,0.29 -0.09,0.65 0.17,0.79c0.386,0.214 0.693,-0.063 0.92,-0.83c1.513,0.12 2,0.884 1.46,2.29c-1.2,-0.826 -1.647,-0.75 -1.34,0.23c0.08,0.26 0.246,0.5 0.5,0.72c1.72,1.514 3.35,3.11 4.89,4.79c0.966,1.06 1.883,1.684 2.75,1.87c0.993,0.214 2.006,0.157 3.04,-0.17c0.29,-0.09 0.56,-0.29 0.77,-0.58c1.7,-2.306 3.1,-3.753 4.2,-4.34c2.526,-1.34 2.526,-2.63 -0,-3.87c-0.854,-0.42 -1.437,-1.133 -1.75,-2.14c-0.11,-0.37 -0.31,-0.65 -0.53,-0.77l-0.76,-0.41c-0.22,-0.12 -0.28,-0.39 -0.12,-0.55c1,-1.033 2.203,-1.693 3.61,-1.98c0.31,-0.06 0.61,0.11 0.65,0.38c0.053,0.407 -0.13,0.76 -0.55,1.06c-0.39,0.28 -0.45,0.84 -0.12,1.19c0.953,1.027 1.646,2.074 2.08,3.14c0.333,0.82 0.643,0.784 0.93,-0.11c0.22,-0.686 -0.217,-1.583 -1.31,-2.69c-0.874,-0.873 -0.894,-1.846 -0.06,-2.92c1.08,-1.373 2.11,-2.783 3.09,-4.23c0.18,-0.26 0.45,-0.44 0.77,-0.52c2.286,-0.566 4.303,-1.613 6.05,-3.14c0.446,-0.38 0.863,-0.38 1.25,-0l-1.58,2.5c-0.587,0.18 -0.97,0.51 -1.15,0.99c-0.314,0.84 -0.477,1.27 -0.49,1.29c-1.047,1.594 -2.55,3.127 -4.51,4.6c-0.48,0.35 -0.73,0.94 -0.67,1.53c0.226,2.254 -0.09,4.014 -0.95,5.28c-0.88,1.294 -2.404,2.764 -4.57,4.41c-0.074,0.054 -0.874,0.777 -2.4,2.17c-1.52,1.38 -3.25,1.824 -5.19,1.33c-1.12,-0.28 -2.407,-1.17 -3.86,-2.67c-1.12,-1.153 -2.28,-2.266 -3.48,-3.34c-1.24,-1.1 -2.054,-2.23 -2.44,-3.39c-0.48,-1.433 -0.727,-2.86 -0.74,-4.28c-0.01,-0.59 -0.31,-1.14 -0.8,-1.47c-2.28,-1.52 -3.85,-3.1 -4.71,-4.74c0.093,-0.473 -0.074,-0.806 -0.5,-1l-2.54,-2.96Z" style="fill:#fcfdfc;fill-rule:nonzero;"/><path d="M22.997,31.908l0.92,-1.5c-0,0.6 0.326,1.12 0.98,1.56c1.4,0.947 2.323,2.344 2.77,4.19c-1.467,-0.013 -2.537,-0.666 -3.21,-1.96c0.54,-1.406 0.053,-2.17 -1.46,-2.29Z" style="fill:#475747;fill-rule:nonzero;"/><path d="M23.917,30.408c-0.227,-1.52 0.466,-1.596 2.08,-0.23c0.42,0.35 0.64,0.88 0.59,1.42c-0.1,1.234 0.346,1.157 1.34,-0.23c0.94,-1.306 1.63,-1.176 2.07,0.39c0.14,0.5 0.286,0.504 0.44,0.01c0.933,-2.966 1.866,-3.503 2.8,-1.61c0.14,0.294 0.203,0.647 0.19,1.06c-0.067,1.76 0.256,2.034 0.97,0.82c0.06,-0.093 0.196,-0.4 0.41,-0.92c0.533,-1.273 1.363,-0.886 2.49,1.16c0.4,0.72 0.39,1.58 -0.02,2.25l-3.39,5.58c-0.907,1.5 -1.904,1.557 -2.99,0.17l-3.23,-4.12c-0.447,-1.846 -1.37,-3.243 -2.77,-4.19c-0.654,-0.44 -0.98,-0.96 -0.98,-1.56Z" style="fill:#fff;fill-rule:nonzero;"/><path d="M26.547,29.638c-1.534,-0.713 -2.31,-1.546 -2.33,-2.5c-0.02,-0.88 0.326,-1.063 1.04,-0.55c0.96,0.687 1.91,1.377 2.85,2.07c0.273,0.194 0.453,0.4 0.54,0.62c0.246,0.607 -0.034,0.854 -0.84,0.74c-0.44,-0.066 -0.86,-0.193 -1.26,-0.38Z" style="fill:#fcfdfc;fill-rule:nonzero;"/><path d="M37.947,37.068c-0.667,0.96 -0.964,0.854 -0.89,-0.32c0.04,-0.64 0.41,-1.35 1.11,-2.13c0.453,-0.506 0.813,-0.56 1.08,-0.16c0.16,0.23 0.13,0.57 -0.07,0.86l-1.23,1.75Z" style="fill:#fff;fill-rule:nonzero;"/><path d="M50.957,22.368c1.006,1.067 1.09,2.234 0.25,3.5c-1.094,0.834 -1.51,0.597 -1.25,-0.71c0.266,-1.353 0.6,-2.283 1,-2.79Z" style="fill:#1f642c;fill-rule:nonzero;"/><path d="M50.957,22.368l-0.04,-0.71l1.58,-2.5c0.273,-0.22 0.58,-0.303 0.92,-0.25l0.75,8c-1.187,0.187 -2.174,-0.16 -2.96,-1.04c0.84,-1.266 0.756,-2.433 -0.25,-3.5Z" style="fill:#1f642c;fill-rule:nonzero;"/><path d="M51.247,19.158l-0.08,-0.25c0.726,-0.873 1.64,-1.446 2.74,-1.72c0.33,-0.08 0.6,-0.26 0.76,-0.5c1.426,-2.213 2.576,-4.566 3.45,-7.06c0.126,-0.366 -0.01,-0.536 -0.41,-0.51l-0,-0.92c0.913,0.507 1.496,0.34 1.75,-0.5c1.42,-0.92 1.823,-0.736 1.21,0.55c-0.114,0.24 -0.304,0.477 -0.57,0.71c-1.56,1.34 -2.524,3.06 -2.89,5.16c-0.847,1.92 -2.11,3.517 -3.79,4.79c-0.34,-0.053 -0.647,0.03 -0.92,0.25c-0.387,-0.38 -0.804,-0.38 -1.25,-0Z" style="fill:#1f642c;fill-rule:nonzero;"/></svg>