<?xml version="1.0" encoding="UTF-8" standalone="no"?><!DOCTYPE svg PUBLIC "-//W3C//DTD SVG 1.1//EN" "http://www.w3.org/Graphics/SVG/1.1/DTD/svg11.dtd"><svg width="100%" height="100%" viewBox="0 0 77 85" version="1.1" xmlns="http://www.w3.org/2000/svg" xmlns:xlink="http://www.w3.org/1999/xlink" xml:space="preserve" xmlns:serif="http://www.serif.com/" style="fill-rule:evenodd;clip-rule:evenodd;"><path d="M34.767,4.334c-0.23,-0.21 -0.55,-0.27 -0.83,-0.15c-6.467,2.607 -11.744,6.654 -15.83,12.14c-1.14,1.534 -1.67,3.07 -1.59,4.61c0.053,0.994 -0.33,1.204 -1.15,0.63c-1.414,-1 -2.087,-0.71 -2.02,0.87c0.04,0.9 -0.29,1.79 -0.93,2.43c-1.967,1.994 -3.58,4.124 -4.84,6.39c-1.14,2.054 -2,4.55 -2.58,7.49c-3.034,15.214 1.833,27.497 14.6,36.85c2.98,2.187 6.983,3.674 12.01,4.46c5.266,0.82 10.153,0.747 14.66,-0.22c4.553,-0.973 8.81,-3.096 12.77,-6.37c7.886,-6.52 12.22,-15.323 13,-26.41c0.293,-4.206 -0.43,-8.22 -2.17,-12.04c-2.234,-4.88 -5.284,-9.17 -9.15,-12.87c-0.21,-0.2 -0.33,-0.5 -0.34,-0.84c-0.02,-0.74 -0.314,-1.37 -0.88,-1.89c-1.6,-1.493 -3.05,-3.11 -4.35,-4.85c-1.14,-1.533 -2.177,-2.706 -3.11,-3.52c-1.194,-1.04 -2.41,-2.046 -3.65,-3.02c-1.2,-0.94 -2.51,-1.543 -3.93,-1.81c-0.02,-0.006 -1.41,0.057 -4.17,0.19c-2.054,0.1 -3.894,-0.59 -5.52,-2.07" style="fill:none;fill-rule:nonzero;stroke:#7ea171;stroke-width:2px;"/><path d="M48.087,13.804c-3.54,-1.506 -6.764,-3.52 -9.67,-6.04c-1.007,-0.873 -2.164,-1.636 -3.47,-2.29c-0.64,-0.32 -1.39,-0.33 -2.04,-0.02c-5.6,2.64 -10.114,6.244 -13.54,10.81c-1.127,1.5 -0.927,1.927 0.6,1.28c2.046,-0.86 4.086,-1.733 6.12,-2.62c1.326,-0.58 2.6,-0.786 3.82,-0.62c1.32,0.18 2.616,0.477 3.89,0.89c0.026,0.007 0.566,0.287 1.62,0.84c0.793,0.414 1.66,0.404 2.6,-0.03c0.52,-0.24 1.1,-0.31 1.66,-0.2c5.133,0.98 9.776,2.397 13.93,4.25c0.506,0.227 1.043,0.16 1.61,-0.2c0.24,-0.16 0.54,-0.13 0.72,0.07c0.646,0.687 1.36,1.287 2.14,1.8c0.38,0.254 0.766,0.36 1.16,0.32c0.873,-0.093 1.103,-0.536 0.69,-1.33c-0.147,-0.286 -0.45,-0.65 -0.91,-1.09c-1.067,-1.02 -2.044,-2.116 -2.93,-3.29c-1.28,-1.713 -2.714,-3.273 -4.3,-4.68c-2.234,-1.986 -3.814,-3.246 -4.74,-3.78c-1.967,-1.133 -4.084,-1.38 -6.35,-0.74c-1.314,0.374 -1.4,0.927 -0.26,1.66l7.68,4.93c0.26,0.167 0.25,0.194 -0.03,0.08" style="fill:none;fill-rule:nonzero;stroke:#8ab094;stroke-width:2px;"/><path d="M33.777,15.924c-2.027,-0.993 -4.174,-1.14 -6.44,-0.44c-2.9,0.894 -5.58,2.23 -8.04,4.01c-0.847,0.607 -1.157,1.23 -0.93,1.87c0.1,0.27 0.41,0.41 0.73,0.33l14.52,-3.89c1.72,-0.46 1.773,-1.086 0.16,-1.88" style="fill:none;fill-rule:nonzero;stroke:#8ab094;stroke-width:2px;"/><path d="M16.107,31.514l0.5,0.08" style="fill:none;fill-rule:nonzero;stroke:#194722;stroke-width:2px;"/><path d="M16.607,31.594c-0.367,1.214 -0.737,2.424 -1.11,3.63c-0.427,1.407 -0.314,2.707 0.34,3.9c0.15,0.26 0.1,0.58 -0.11,0.75c-0.747,0.58 -1.454,0.807 -2.12,0.68c-1.727,-0.32 -2.59,0.244 -2.59,1.69c-0,0.38 -0.09,0.7 -0.25,0.91l-2.02,2.59c-0.2,0.26 -0.25,0.58 -0.12,0.84c0.893,1.787 2.293,2.43 4.2,1.93c0.22,-0.06 0.44,0.12 0.42,0.35c-0.127,1.694 0.07,3.357 0.59,4.99c0.346,1.107 0.766,1.32 1.26,0.64c0.15,-0.22 0.24,-0.55 0.23,-0.94c-0.014,-1.16 0.35,-2.306 1.09,-3.44c0.426,-0.646 1.593,-2.586 3.5,-5.82c0.11,-0.19 0.39,-0.22 0.59,-0.06l1.1,0.86" style="fill:none;fill-rule:nonzero;stroke:#8ab094;stroke-width:2px;"/><path d="M21.607,45.094c-0.02,0.14 -0.104,0.224 -0.25,0.25" style="fill:none;fill-rule:nonzero;stroke:#194722;stroke-width:2px;"/><path d="M21.357,45.344c-2.574,1.654 -4.054,3.974 -4.44,6.96c-0.04,0.29 0.1,0.59 0.36,0.77c0.78,0.554 1.366,1.25 1.76,2.09c0.626,1.327 0.953,2.014 0.98,2.06c2.84,4.76 5.246,9.73 7.22,14.91c0.793,2.1 2.146,3.51 4.06,4.23c2.266,0.86 4.953,1.327 8.06,1.4c4.186,0.094 7.166,-1.683 8.94,-5.33c2.6,-5.366 4.916,-10.856 6.95,-16.47c0.14,-0.38 0.16,-0.73 0.05,-0.96l-1.63,-3.52c-0.24,-0.513 -0.154,-0.593 0.26,-0.24c1.48,1.267 2.623,2.787 3.43,4.56c0.553,1.214 0.95,1.11 1.19,-0.31c0.14,-0.833 0.33,-1.653 0.57,-2.46c0.02,-0.053 0.133,-0.553 0.34,-1.5c0.253,-1.153 0.956,-1.95 2.11,-2.39c0.36,-0.14 0.64,-0.35 0.76,-0.57c0.406,-0.793 0.133,-1.526 -0.82,-2.2c-0.66,-0.46 -1.29,-0.963 -1.89,-1.51c-1.12,-1.033 -1.424,-1.723 -0.91,-2.07c0.32,-0.21 0.52,-0.46 0.54,-0.67c0.066,-0.846 -0.237,-1.543 -0.91,-2.09c-0.307,-0.246 -0.517,-0.493 -0.63,-0.74l-2.85,-5.95" style="fill:none;fill-rule:nonzero;stroke:#8ab094;stroke-width:2px;"/><path d="M54.857,33.344l0.25,-0.08" style="fill:none;fill-rule:nonzero;stroke:#194722;stroke-width:2px;"/><path d="M55.107,33.264c0.866,1.24 1.593,2.56 2.18,3.96c0.233,0.554 0.473,0.947 0.72,1.18c0.613,0.587 1.15,0.53 1.61,-0.17c0.16,-0.24 0.18,-0.58 0.04,-0.89c-0.707,-1.62 -1.494,-3.206 -2.36,-4.76c-0.527,-0.946 -0.37,-1.026 0.47,-0.24c0.1,0.094 0.186,0.204 0.26,0.33c0.92,1.534 1.786,3.094 2.6,4.68c0.13,0.25 0.44,0.35 0.68,0.22c1.466,-0.833 2.223,-1.956 2.27,-3.37c0.033,-0.906 -0.427,-2.02 -1.38,-3.34c-0.814,-1.133 -1.614,-2.28 -2.4,-3.44c-0.467,-0.68 -0.374,-0.793 0.28,-0.34c0.12,0.08 0.28,0.04 0.33,-0.08c0.653,-1.446 0.2,-2.576 -1.36,-3.39c-6.08,-3.153 -12.144,-5.423 -18.19,-6.81c-1.747,-0.4 -3.494,-0.24 -5.24,0.48c-2.427,1 -3.69,1.517 -3.79,1.55c-1.287,0.4 -2.564,0.827 -3.83,1.28c-0.894,0.314 -2.197,0.594 -3.91,0.84c-2.027,0.287 -3.907,0.994 -5.64,2.12c-0.667,0.434 -1.247,0.657 -1.74,0.67c-0.66,0.014 -1.297,-0.133 -1.91,-0.44c-0.25,-0.13 -0.55,-0.03 -0.65,0.2c-0.36,0.86 -0.56,1.757 -0.6,2.69c-0.054,1.307 -0.14,2.2 -0.26,2.68c-0.354,1.407 -0.747,2.8 -1.18,4.18c-0.307,0.974 -0.057,1.71 0.75,2.21c0.21,0.13 0.51,0.01 0.61,-0.25c0.56,-1.433 1.44,-2.6 2.64,-3.5" style="fill:none;fill-rule:nonzero;stroke:#8ab094;stroke-width:2px;"/><path d="M55.107,33.264l-0.4,-0.86c-0.214,-0.453 -0.334,-0.756 -0.36,-0.91c-0.42,-2.426 -1.854,-3.86 -4.3,-4.3c-0.32,-0.06 -0.61,-0.22 -0.81,-0.46c-1.934,-2.28 -4.417,-3.293 -7.45,-3.04c-0.654,0.054 -1.274,0.047 -1.86,-0.02c-0.9,-0.1 -1.527,-0.076 -1.88,0.07c-4.027,1.654 -8.114,3.144 -12.26,4.47c-1.474,0.467 -1.85,0.074 -1.13,-1.18c0.15,-0.25 0.43,-0.42 0.76,-0.46c2.553,-0.266 4.71,-1.243 6.47,-2.93c0.586,-0.566 0.496,-0.71 -0.27,-0.43c-1.907,0.694 -3.82,1.277 -5.74,1.75c-1.187,0.294 -2.007,1.207 -2.46,2.74c-0.09,0.3 -0.34,0.54 -0.65,0.62c-2.747,0.694 -4.967,1.757 -6.66,3.19" style="fill:none;fill-rule:nonzero;stroke:#8d958d;stroke-width:2px;"/><path d="M54.857,33.344c-1.234,-2.4 -3.504,-4.476 -6.81,-6.23c-3.387,-1.793 -6.427,-2.73 -9.12,-2.81c-0.407,-0.006 -0.77,0.077 -1.09,0.25c-1.034,0.56 -0.857,1.047 0.53,1.46c6.16,1.84 6,2.064 -0.48,0.67c-3.24,-0.693 -6.264,-0.19 -9.07,1.51c-1.907,1.154 -1.56,1.67 1.04,1.55c1.886,-0.086 2.203,0.32 0.95,1.22c-3.827,2.727 -7.667,5.27 -11.52,7.63c-0.274,0.167 -0.4,0.087 -0.38,-0.24c0.06,-1.006 0.443,-1.663 1.15,-1.97c0.34,-0.14 0.57,-0.38 0.62,-0.63c0.2,-0.913 -0.157,-1.16 -1.07,-0.74c-0.27,0.12 -0.57,0.03 -0.69,-0.2c-0.48,-1 -0.23,-1.983 0.75,-2.95c0.653,-0.64 0.726,-1.086 0.22,-1.34c-0.2,-0.11 -0.54,-0.08 -0.91,0.08l-2.37,0.99" style="fill:none;fill-rule:nonzero;stroke:#8d958d;stroke-width:2px;"/><path d="M21.357,45.344c-0.02,1.7 0.333,3.167 1.06,4.4c1.74,2.934 3.11,5.72 4.11,8.36c0.106,0.287 0.253,0.514 0.44,0.68c0.526,0.467 0.836,0.43 0.93,-0.11c0.04,-0.246 -0.014,-0.52 -0.16,-0.82c-1.26,-2.613 -2.594,-5.183 -4,-7.71c-0.62,-1.106 -0.997,-2.636 -1.13,-4.59c-0.047,-0.706 -0.38,-0.86 -1,-0.46" style="fill:none;fill-rule:nonzero;stroke:#8d958d;stroke-width:2px;"/><path d="M53.387,16.734c1.286,1.66 1.473,1.657 0.56,-0.01c-0.06,-0.113 -0.144,-0.206 -0.25,-0.28c-3.274,-2.286 -3.447,-2.26 -0.52,0.08c0.08,0.06 0.15,0.13 0.21,0.21" style="fill:none;fill-rule:nonzero;stroke:#8d958d;stroke-width:2px;"/><path d="M26.847,32.334c0.31,-0.35 0.24,-0.9 -0.15,-1.16c-1.807,-1.193 -3.604,-1.463 -5.39,-0.81c-0.3,0.11 -0.55,0.33 -0.72,0.62c-0.96,1.667 -0.777,2.907 0.55,3.72c0.946,0.574 1.93,0.574 2.95,0c0.92,-0.52 1.84,-1.31 2.76,-2.37" style="fill:none;fill-rule:nonzero;stroke:#8d958d;stroke-width:2px;"/><path d="M38.407,31.344c0.62,0.04 1.136,0.33 1.55,0.87c2.9,3.847 6.763,5.93 11.59,6.25c0.333,0.02 0.373,-0.08 0.12,-0.3c-2.58,-2.3 -4.667,-4.993 -6.26,-8.08c-0.08,-0.146 -0.174,-0.276 -0.28,-0.39c-1.094,-1.08 -1.267,-1.05 -0.52,0.09c1.14,1.747 2.203,3.54 3.19,5.38c0.2,0.367 0.266,0.69 0.2,0.97c-0.114,0.447 -0.41,0.684 -0.89,0.71c-0.17,0.01 -0.49,-0.14 -0.85,-0.4l-3.85,-2.75c-0.674,-0.48 -1.067,-0.796 -1.18,-0.95c-2.167,-2.806 -4.69,-3.963 -7.57,-3.47c-0.28,0.04 -0.45,0.33 -0.33,0.57c0.286,0.54 0.863,0.65 1.73,0.33c2.313,-0.86 2.87,-0.03 1.67,2.49c-0.16,0.32 0.06,0.7 0.41,0.73c0.766,0.074 1.06,-0.44 0.88,-1.54c-0.05,-0.28 0.14,-0.53 0.39,-0.51" style="fill:none;fill-rule:nonzero;stroke:#8d958d;stroke-width:2px;"/><path d="M43.647,43.304l-0,0.25" style="fill:none;fill-rule:nonzero;stroke:#fefefe;stroke-width:2px;"/><path d="M43.647,43.554c0.986,3.74 -0.18,5.16 -3.5,4.26c-1.074,-0.293 -1.85,-0.783 -2.33,-1.47c-0.84,-1.213 -0.41,-2.296 1.29,-3.25" style="fill:none;fill-rule:nonzero;stroke:#8ab094;stroke-width:2px;"/><path d="M39.107,43.094c1.98,0.24 3.003,1.37 3.07,3.39c0.006,0.334 0.05,0.344 0.13,0.03c0.54,-2.26 -0.36,-3.483 -2.7,-3.67" style="fill:none;fill-rule:nonzero;stroke:#8ab094;stroke-width:2px;"/><path d="M39.607,42.844l-3.25,-0.79c-1.434,-0.346 -2.704,0.3 -3.81,1.94c-0.754,1.114 -1.347,1.124 -1.78,0.03c-0.14,-0.34 -0.38,-0.58 -0.63,-0.62c-0.607,-0.113 -0.74,0.337 -0.4,1.35c0.273,0.807 0.736,1.714 1.39,2.72c0.16,0.25 0.12,0.58 -0.09,0.79c-1.674,1.607 -2.437,1.457 -2.29,-0.45c0.133,-1.666 -0.14,-2.133 -0.82,-1.4c-0.2,0.22 -0.33,0.53 -0.37,0.89l-0.21,2.18c-0.02,0.22 -0.26,0.34 -0.46,0.24c-0.36,-0.186 -0.674,-0.196 -0.94,-0.03c-0.22,0.14 -0.27,0.49 -0.12,0.82c1.92,4.067 3.393,8.287 4.42,12.66c0.006,0.047 0.09,1.147 0.25,3.3c0.086,1.267 0.61,2.377 1.57,3.33" style="fill:none;fill-rule:nonzero;stroke:#8ab094;stroke-width:2px;"/><path d="M32.067,69.804c0.04,0.154 0.136,0.25 0.29,0.29" style="fill:none;fill-rule:nonzero;stroke:#fefefe;stroke-width:2px;"/><path d="M32.357,70.094c0.513,1.027 1.346,1.61 2.5,1.75" style="fill:none;fill-rule:nonzero;stroke:#8d958d;stroke-width:2px;"/><path d="M34.857,71.844l4.77,1.05c0.35,0.08 0.68,0.02 0.88,-0.16c0.646,-0.586 0.953,-1.263 0.92,-2.03c-0.01,-0.33 0.32,-0.56 0.63,-0.45c1.626,0.607 2.31,0.387 2.05,-0.66" style="fill:none;fill-rule:nonzero;stroke:#8ab094;stroke-width:2px;"/><path d="M44.107,69.594l0.25,-0.08" style="fill:none;fill-rule:nonzero;stroke:#fefefe;stroke-width:2px;"/><path d="M44.357,69.514c0.213,0.06 0.393,0.03 0.54,-0.09c0.093,-0.08 0.153,-0.22 0.18,-0.42c0.733,-6.506 2.05,-12.896 3.95,-19.17c0.09,-0.31 0.32,-0.55 0.61,-0.65c1.306,-0.466 1.81,-0.186 1.51,0.84c-0.167,0.567 -0.264,0.977 -0.29,1.23c-0.74,8.447 -0.087,8.15 1.96,-0.89c0.06,-0.25 -0.03,-0.5 -0.23,-0.66c-1.314,-1.046 -2.584,-2.2 -3.81,-3.46c-1.34,-1.373 -2.63,-2.476 -3.87,-3.31c-2.487,-1.66 -4.964,-3.333 -7.43,-5.02c-0.68,-0.466 -1.207,-0.42 -1.58,0.14c-0.16,0.23 -0.09,0.57 0.15,0.78c1.186,1 2.56,1.64 4.12,1.92c1.593,0.294 2.753,1.144 3.48,2.55" style="fill:none;fill-rule:nonzero;stroke:#8ab094;stroke-width:2px;"/><path d="M44.357,69.514c0.406,-1.46 0.563,-3.126 0.47,-5c-0.067,-1.5 -0.624,-1.706 -1.67,-0.62c-0.874,0.907 -1.164,2.214 -0.87,3.92c0.173,1.007 0.78,1.6 1.82,1.78" style="fill:none;fill-rule:nonzero;stroke:#8ab094;stroke-width:2px;"/><path d="M34.857,71.844c0.273,0.014 0.44,-0.07 0.5,-0.25" style="fill:none;fill-rule:nonzero;stroke:#194722;stroke-width:2px;"/><path d="M35.357,71.594c0.526,-0.113 0.993,-0.343 1.4,-0.69c0.21,-0.19 0.52,-0.2 0.73,-0.03c2.14,1.734 3.18,1.044 3.12,-2.07c-0.014,-0.866 0.256,-1.93 0.81,-3.19c0.733,-1.653 1.813,-2.856 3.24,-3.61c1.32,-0.693 1.413,-1.526 0.28,-2.5c-1.287,-1.1 -2.744,-1.483 -4.37,-1.15c-2.314,0.48 -4.89,0.407 -7.73,-0.22c-0.95,-0.21 -1.89,0.35 -2.17,1.28c-0.614,2.1 -0.064,3.677 1.65,4.73c0.586,0.36 1.046,0.727 1.38,1.1c0.393,0.44 0.803,0.867 1.23,1.28c0.22,0.21 0.25,0.54 0.06,0.75c-0.407,0.447 -0.774,0.45 -1.1,0.01c-0.147,-0.186 -0.25,-0.533 -0.31,-1.04c-0.12,-0.933 -0.564,-1.533 -1.33,-1.8c-1.167,-0.413 -1.587,0 -1.26,1.24l1.08,4.12" style="fill:none;fill-rule:nonzero;stroke:#8ab094;stroke-width:2px;"/><path d="M39.607,42.844c-0.1,0.2 -0.267,0.284 -0.5,0.25" style="fill:none;fill-rule:nonzero;stroke:#166229;stroke-width:2px;"/><path d="M43.647,43.554c0.453,1.354 1.296,2.334 2.53,2.94c0.773,0.38 1.063,0.154 0.87,-0.68c-0.394,-1.733 -1.527,-2.57 -3.4,-2.51" style="fill:none;fill-rule:nonzero;stroke:#8ab094;stroke-width:2px;"/><path d="M35.357,71.594c-0.747,-1.04 -1.747,-1.54 -3,-1.5" style="fill:none;fill-rule:nonzero;stroke:#8d958d;stroke-width:2px;"/><path d="M23.587,43.364c3.433,-2.486 7.086,-4.12 10.96,-4.9c0.373,-0.08 0.386,-0.173 0.04,-0.28c-0.734,-0.226 -1.47,-0.173 -2.21,0.16c-1.674,0.754 -3.367,1.454 -5.08,2.1c-0.874,0.334 -1.584,0.697 -2.13,1.09c-0.747,0.534 -1.35,1.06 -1.81,1.58c-0.647,0.74 -0.57,0.824 0.23,0.25" style="fill:none;fill-rule:nonzero;stroke:#8d958d;stroke-width:2px;"/><path d="M25.346,47.321c0.221,-0.017 0.351,-0.747 0.3,-1.641c-0.059,-0.896 -0.279,-1.606 -0.498,-1.593c-0.221,0.017 -0.351,0.747 -0.301,1.642c0.06,0.895 0.28,1.605 0.499,1.592" style="fill:none;fill-rule:nonzero;stroke:#8ab094;stroke-width:2px;"/><path d="M22.183,53.395c-0.046,-0.131 -0.196,-0.201 -0.335,-0.152l-0.318,0.12c-0.133,0.051 -0.203,0.201 -0.152,0.334l2.772,7.377c0.047,0.13 0.197,0.2 0.335,0.152l0.319,-0.12c0.133,-0.052 0.203,-0.202 0.151,-0.335l-2.772,-7.376" style="fill:none;fill-rule:nonzero;stroke:#8d958d;stroke-width:2px;"/><path d="M48.467,65.145c0.42,0.039 0.86,-1.161 0.987,-2.667c0.123,-1.504 -0.107,-2.764 -0.528,-2.794c-0.419,-0.04 -0.859,1.16 -0.987,2.667c-0.122,1.503 0.108,2.763 0.528,2.794" style="fill:none;fill-rule:nonzero;stroke:#8d958d;stroke-width:2px;"/><path d="M33.047,74.864c4.013,1.754 7.796,1.25 11.35,-1.51c0.1,-0.08 0.18,-0.173 0.24,-0.28c0.313,-0.633 0.186,-0.746 -0.38,-0.34c-2.427,1.734 -5.047,2.314 -7.86,1.74c-1.4,-0.286 -2.304,-0.51 -2.71,-0.67c-0.954,-0.373 -1.667,-1.053 -2.14,-2.04c-0.14,-0.306 -0.227,-0.296 -0.26,0.03c-0.147,1.474 0.44,2.497 1.76,3.07" style="fill:none;fill-rule:nonzero;stroke:#8ab094;stroke-width:2px;"/><path d="M36.74,43.94c0.007,-0.686 -0.553,-1.246 -1.235,-1.244l-0.84,-0.003c-0.688,0.001 -1.238,0.551 -1.245,1.235l-0.007,2.1c-0.006,0.686 0.554,1.246 1.236,1.245l0.84,0.003c0.688,-0.002 1.238,-0.552 1.244,-1.236l0.007,-2.1" style="fill:none;fill-rule:nonzero;stroke:#8ab094;stroke-width:2px;"/><path d="M44.657,49.394c-0.087,0.414 0.47,1.124 1.67,2.13c0.21,0.17 0.52,0.09 0.61,-0.16c0.286,-0.78 0.483,-1.72 0.59,-2.82c0.093,-0.953 -0.574,-1.053 -2,-0.3c-0.45,0.23 -0.77,0.66 -0.87,1.15" style="fill:none;fill-rule:nonzero;stroke:#8ab094;stroke-width:2px;"/><path d="M38.797,65.964c-1.12,-0.253 -2.057,0.04 -2.81,0.88c-0.267,0.294 -0.214,0.47 0.16,0.53c0.866,0.14 1.77,-0.26 2.71,-1.2c0.113,-0.106 0.093,-0.176 -0.06,-0.21" style="fill:none;fill-rule:nonzero;stroke:#8d958d;stroke-width:2px;"/><path d="M34.767,4.334c1.626,1.48 3.466,2.17 5.52,2.07c2.76,-0.133 4.15,-0.196 4.17,-0.19c1.42,0.267 2.73,0.87 3.93,1.81c1.24,0.974 2.456,1.98 3.65,3.02c0.933,0.814 1.97,1.987 3.11,3.52c1.3,1.74 2.75,3.357 4.35,4.85c0.566,0.52 0.86,1.15 0.88,1.89c0.01,0.34 0.13,0.64 0.34,0.84c3.866,3.7 6.916,7.99 9.15,12.87c1.74,3.82 2.463,7.834 2.17,12.04c-0.78,11.087 -5.114,19.89 -13,26.41c-3.96,3.274 -8.217,5.397 -12.77,6.37c-4.507,0.967 -9.394,1.04 -14.66,0.22c-5.027,-0.786 -9.03,-2.273 -12.01,-4.46c-12.767,-9.353 -17.634,-21.636 -14.6,-36.85c0.58,-2.94 1.44,-5.436 2.58,-7.49c1.26,-2.266 2.873,-4.396 4.84,-6.39c0.64,-0.64 0.97,-1.53 0.93,-2.43c-0.067,-1.58 0.606,-1.87 2.02,-0.87c0.82,0.574 1.203,0.364 1.15,-0.63c-0.08,-1.54 0.45,-3.076 1.59,-4.61c4.086,-5.486 9.363,-9.533 15.83,-12.14c0.28,-0.12 0.6,-0.06 0.83,0.15Zm13.32,9.47c-3.54,-1.506 -6.764,-3.52 -9.67,-6.04c-1.007,-0.873 -2.164,-1.636 -3.47,-2.29c-0.64,-0.32 -1.39,-0.33 -2.04,-0.02c-5.6,2.64 -10.114,6.244 -13.54,10.81c-1.127,1.5 -0.927,1.927 0.6,1.28c2.046,-0.86 4.086,-1.733 6.12,-2.62c1.326,-0.58 2.6,-0.786 3.82,-0.62c1.32,0.18 2.616,0.477 3.89,0.89c0.026,0.007 0.566,0.287 1.62,0.84c0.793,0.414 1.66,0.404 2.6,-0.03c0.52,-0.24 1.1,-0.31 1.66,-0.2c5.133,0.98 9.776,2.397 13.93,4.25c0.506,0.227 1.043,0.16 1.61,-0.2c0.24,-0.16 0.54,-0.13 0.72,0.07c0.646,0.687 1.36,1.287 2.14,1.8c0.38,0.254 0.766,0.36 1.16,0.32c0.873,-0.093 1.103,-0.536 0.69,-1.33c-0.147,-0.286 -0.45,-0.65 -0.91,-1.09c-1.067,-1.02 -2.044,-2.116 -2.93,-3.29c-1.28,-1.713 -2.714,-3.273 -4.3,-4.68c-2.234,-1.986 -3.814,-3.246 -4.74,-3.78c-1.967,-1.133 -4.084,-1.38 -6.35,-0.74c-1.314,0.374 -1.4,0.927 -0.26,1.66l7.68,4.93c0.26,0.167 0.25,0.194 -0.03,0.08Zm-14.31,2.12c-2.027,-0.993 -4.174,-1.14 -6.44,-0.44c-2.9,0.894 -5.58,2.23 -8.04,4.01c-0.847,0.607 -1.157,1.23 -0.93,1.87c0.1,0.27 0.41,0.41 0.73,0.33l14.52,-3.89c1.72,-0.46 1.773,-1.086 0.16,-1.88Zm-17.67,15.59l0.5,0.08c-0.367,1.214 -0.737,2.424 -1.11,3.63c-0.427,1.407 -0.314,2.707 0.34,3.9c0.15,0.26 0.1,0.58 -0.11,0.75c-0.747,0.58 -1.454,0.807 -2.12,0.68c-1.727,-0.32 -2.59,0.244 -2.59,1.69c-0,0.38 -0.09,0.7 -0.25,0.91l-2.02,2.59c-0.2,0.26 -0.25,0.58 -0.12,0.84c0.893,1.787 2.293,2.43 4.2,1.93c0.22,-0.06 0.44,0.12 0.42,0.35c-0.127,1.694 0.07,3.357 0.59,4.99c0.346,1.107 0.766,1.32 1.26,0.64c0.15,-0.22 0.24,-0.55 0.23,-0.94c-0.014,-1.16 0.35,-2.306 1.09,-3.44c0.426,-0.646 1.593,-2.586 3.5,-5.82c0.11,-0.19 0.39,-0.22 0.59,-0.06l1.1,0.86c-0.02,0.14 -0.104,0.224 -0.25,0.25c-2.574,1.654 -4.054,3.974 -4.44,6.96c-0.04,0.29 0.1,0.59 0.36,0.77c0.78,0.554 1.366,1.25 1.76,2.09c0.626,1.327 0.953,2.014 0.98,2.06c2.84,4.76 5.246,9.73 7.22,14.91c0.793,2.1 2.146,3.51 4.06,4.23c2.266,0.86 4.953,1.327 8.06,1.4c4.186,0.094 7.166,-1.683 8.94,-5.33c2.6,-5.366 4.916,-10.856 6.95,-16.47c0.14,-0.38 0.16,-0.73 0.05,-0.96l-1.63,-3.52c-0.24,-0.513 -0.154,-0.593 0.26,-0.24c1.48,1.267 2.623,2.787 3.43,4.56c0.553,1.214 0.95,1.11 1.19,-0.31c0.14,-0.833 0.33,-1.653 0.57,-2.46c0.02,-0.053 0.133,-0.553 0.34,-1.5c0.253,-1.153 0.956,-1.95 2.11,-2.39c0.36,-0.14 0.64,-0.35 0.76,-0.57c0.406,-0.793 0.133,-1.526 -0.82,-2.2c-0.66,-0.46 -1.29,-0.963 -1.89,-1.51c-1.12,-1.033 -1.424,-1.723 -0.91,-2.07c0.32,-0.21 0.52,-0.46 0.54,-0.67c0.066,-0.846 -0.237,-1.543 -0.91,-2.09c-0.307,-0.246 -0.517,-0.493 -0.63,-0.74l-2.85,-5.95l0.25,-0.08c0.866,1.24 1.593,2.56 2.18,3.96c0.233,0.554 0.473,0.947 0.72,1.18c0.613,0.587 1.15,0.53 1.61,-0.17c0.16,-0.24 0.18,-0.58 0.04,-0.89c-0.707,-1.62 -1.494,-3.206 -2.36,-4.76c-0.527,-0.946 -0.37,-1.026 0.47,-0.24c0.1,0.094 0.186,0.204 0.26,0.33c0.92,1.534 1.786,3.094 2.6,4.68c0.13,0.25 0.44,0.35 0.68,0.22c1.466,-0.833 2.223,-1.956 2.27,-3.37c0.033,-0.906 -0.427,-2.02 -1.38,-3.34c-0.814,-1.133 -1.614,-2.28 -2.4,-3.44c-0.467,-0.68 -0.374,-0.793 0.28,-0.34c0.12,0.08 0.28,0.04 0.33,-0.08c0.653,-1.446 0.2,-2.576 -1.36,-3.39c-6.08,-3.153 -12.144,-5.423 -18.19,-6.81c-1.747,-0.4 -3.494,-0.24 -5.24,0.48c-2.427,1 -3.69,1.517 -3.79,1.55c-1.287,0.4 -2.564,0.827 -3.83,1.28c-0.894,0.314 -2.197,0.594 -3.91,0.84c-2.027,0.287 -3.907,0.994 -5.64,2.12c-0.667,0.434 -1.247,0.657 -1.74,0.67c-0.66,0.014 -1.297,-0.133 -1.91,-0.44c-0.25,-0.13 -0.55,-0.03 -0.65,0.2c-0.36,0.86 -0.56,1.757 -0.6,2.69c-0.054,1.307 -0.14,2.2 -0.26,2.68c-0.354,1.407 -0.747,2.8 -1.18,4.18c-0.307,0.974 -0.057,1.71 0.75,2.21c0.21,0.13 0.51,0.01 0.61,-0.25c0.56,-1.433 1.44,-2.6 2.64,-3.5Z" style="fill:#166229;fill-rule:nonzero;"/><path d="M48.117,13.724l-7.68,-4.93c-1.14,-0.733 -1.054,-1.286 0.26,-1.66c2.266,-0.64 4.383,-0.393 6.35,0.74c0.926,0.534 2.506,1.794 4.74,3.78c1.586,1.407 3.02,2.967 4.3,4.68c0.886,1.174 1.863,2.27 2.93,3.29c0.46,0.44 0.763,0.804 0.91,1.09c0.413,0.794 0.183,1.237 -0.69,1.33c-0.394,0.04 -0.78,-0.066 -1.16,-0.32c-0.78,-0.513 -1.494,-1.113 -2.14,-1.8c-0.18,-0.2 -0.48,-0.23 -0.72,-0.07c-0.567,0.36 -1.104,0.427 -1.61,0.2c-4.154,-1.853 -8.797,-3.27 -13.93,-4.25c-0.56,-0.11 -1.14,-0.04 -1.66,0.2c-0.94,0.434 -1.807,0.444 -2.6,0.03c-1.054,-0.553 -1.594,-0.833 -1.62,-0.84c-1.274,-0.413 -2.57,-0.71 -3.89,-0.89c-1.22,-0.166 -2.494,0.04 -3.82,0.62c-2.034,0.887 -4.074,1.76 -6.12,2.62c-1.527,0.647 -1.727,0.22 -0.6,-1.28c3.426,-4.566 7.94,-8.17 13.54,-10.81c0.65,-0.31 1.4,-0.3 2.04,0.02c1.306,0.654 2.463,1.417 3.47,2.29c2.906,2.52 6.13,4.534 9.67,6.04c0.28,0.114 0.29,0.087 0.03,-0.08Zm5.27,3.01c1.286,1.66 1.473,1.657 0.56,-0.01c-0.06,-0.113 -0.144,-0.206 -0.25,-0.28c-3.274,-2.286 -3.447,-2.26 -0.52,0.08c0.08,0.06 0.15,0.13 0.21,0.21Z" style="fill:#fefefe;fill-rule:nonzero;"/><path d="M53.177,16.524c-2.927,-2.34 -2.754,-2.366 0.52,-0.08c0.106,0.074 0.19,0.167 0.25,0.28c0.913,1.667 0.726,1.67 -0.56,0.01c-0.06,-0.08 -0.13,-0.15 -0.21,-0.21Z" style="fill:#1c2c1b;fill-rule:nonzero;"/><path d="M33.777,15.924c1.613,0.794 1.56,1.42 -0.16,1.88l-14.52,3.89c-0.32,0.08 -0.63,-0.06 -0.73,-0.33c-0.227,-0.64 0.083,-1.263 0.93,-1.87c2.46,-1.78 5.14,-3.116 8.04,-4.01c2.266,-0.7 4.413,-0.553 6.44,0.44Z" style="fill:#fefefe;fill-rule:nonzero;"/><path d="M55.107,33.264l-0.4,-0.86c-0.214,-0.453 -0.334,-0.756 -0.36,-0.91c-0.42,-2.426 -1.854,-3.86 -4.3,-4.3c-0.32,-0.06 -0.61,-0.22 -0.81,-0.46c-1.934,-2.28 -4.417,-3.293 -7.45,-3.04c-0.654,0.054 -1.274,0.047 -1.86,-0.02c-0.9,-0.1 -1.527,-0.076 -1.88,0.07c-4.027,1.654 -8.114,3.144 -12.26,4.47c-1.474,0.467 -1.85,0.074 -1.13,-1.18c0.15,-0.25 0.43,-0.42 0.76,-0.46c2.553,-0.266 4.71,-1.243 6.47,-2.93c0.586,-0.566 0.496,-0.71 -0.27,-0.43c-1.907,0.694 -3.82,1.277 -5.74,1.75c-1.187,0.294 -2.007,1.207 -2.46,2.74c-0.09,0.3 -0.34,0.54 -0.65,0.62c-2.747,0.694 -4.967,1.757 -6.66,3.19c-1.2,0.9 -2.08,2.067 -2.64,3.5c-0.1,0.26 -0.4,0.38 -0.61,0.25c-0.807,-0.5 -1.057,-1.236 -0.75,-2.21c0.433,-1.38 0.826,-2.773 1.18,-4.18c0.12,-0.48 0.206,-1.373 0.26,-2.68c0.04,-0.933 0.24,-1.83 0.6,-2.69c0.1,-0.23 0.4,-0.33 0.65,-0.2c0.613,0.307 1.25,0.454 1.91,0.44c0.493,-0.013 1.073,-0.236 1.74,-0.67c1.733,-1.126 3.613,-1.833 5.64,-2.12c1.713,-0.246 3.016,-0.526 3.91,-0.84c1.266,-0.453 2.543,-0.88 3.83,-1.28c0.1,-0.033 1.363,-0.55 3.79,-1.55c1.746,-0.72 3.493,-0.88 5.24,-0.48c6.046,1.387 12.11,3.657 18.19,6.81c1.56,0.814 2.013,1.944 1.36,3.39c-0.05,0.12 -0.21,0.16 -0.33,0.08c-0.654,-0.453 -0.747,-0.34 -0.28,0.34c0.786,1.16 1.586,2.307 2.4,3.44c0.953,1.32 1.413,2.434 1.38,3.34c-0.047,1.414 -0.804,2.537 -2.27,3.37c-0.24,0.13 -0.55,0.03 -0.68,-0.22c-0.814,-1.586 -1.68,-3.146 -2.6,-4.68c-0.074,-0.126 -0.16,-0.236 -0.26,-0.33c-0.84,-0.786 -0.997,-0.706 -0.47,0.24c0.866,1.554 1.653,3.14 2.36,4.76c0.14,0.31 0.12,0.65 -0.04,0.89c-0.46,0.7 -0.997,0.757 -1.61,0.17c-0.247,-0.233 -0.487,-0.626 -0.72,-1.18c-0.587,-1.4 -1.314,-2.72 -2.18,-3.96Z" style="fill:#fefefe;fill-rule:nonzero;"/><path d="M55.107,33.264l-0.25,0.08c-1.234,-2.4 -3.504,-4.476 -6.81,-6.23c-3.387,-1.793 -6.427,-2.73 -9.12,-2.81c-0.407,-0.006 -0.77,0.077 -1.09,0.25c-1.034,0.56 -0.857,1.047 0.53,1.46c6.16,1.84 6,2.064 -0.48,0.67c-3.24,-0.693 -6.264,-0.19 -9.07,1.51c-1.907,1.154 -1.56,1.67 1.04,1.55c1.886,-0.086 2.203,0.32 0.95,1.22c-3.827,2.727 -7.667,5.27 -11.52,7.63c-0.274,0.167 -0.4,0.087 -0.38,-0.24c0.06,-1.006 0.443,-1.663 1.15,-1.97c0.34,-0.14 0.57,-0.38 0.62,-0.63c0.2,-0.913 -0.157,-1.16 -1.07,-0.74c-0.27,0.12 -0.57,0.03 -0.69,-0.2c-0.48,-1 -0.23,-1.983 0.75,-2.95c0.653,-0.64 0.726,-1.086 0.22,-1.34c-0.2,-0.11 -0.54,-0.08 -0.91,0.08l-2.37,0.99l-0.5,-0.08c1.693,-1.433 3.913,-2.496 6.66,-3.19c0.31,-0.08 0.56,-0.32 0.65,-0.62c0.453,-1.533 1.273,-2.446 2.46,-2.74c1.92,-0.473 3.833,-1.056 5.74,-1.75c0.766,-0.28 0.856,-0.136 0.27,0.43c-1.76,1.687 -3.917,2.664 -6.47,2.93c-0.33,0.04 -0.61,0.21 -0.76,0.46c-0.72,1.254 -0.344,1.647 1.13,1.18c4.146,-1.326 8.233,-2.816 12.26,-4.47c0.353,-0.146 0.98,-0.17 1.88,-0.07c0.586,0.067 1.206,0.074 1.86,0.02c3.033,-0.253 5.516,0.76 7.45,3.04c0.2,0.24 0.49,0.4 0.81,0.46c2.446,0.44 3.88,1.874 4.3,4.3c0.026,0.154 0.146,0.457 0.36,0.91l0.4,0.86Zm-28.26,-0.93c0.31,-0.35 0.24,-0.9 -0.15,-1.16c-1.807,-1.193 -3.604,-1.463 -5.39,-0.81c-0.3,0.11 -0.55,0.33 -0.72,0.62c-0.96,1.667 -0.777,2.907 0.55,3.72c0.946,0.574 1.93,0.574 2.95,0c0.92,-0.52 1.84,-1.31 2.76,-2.37Z" style="fill:#1c2c1b;fill-rule:nonzero;"/><path d="M54.857,33.344l2.85,5.95c0.113,0.247 0.323,0.494 0.63,0.74c0.673,0.547 0.976,1.244 0.91,2.09c-0.02,0.21 -0.22,0.46 -0.54,0.67c-0.514,0.347 -0.21,1.037 0.91,2.07c0.6,0.547 1.23,1.05 1.89,1.51c0.953,0.674 1.226,1.407 0.82,2.2c-0.12,0.22 -0.4,0.43 -0.76,0.57c-1.154,0.44 -1.857,1.237 -2.11,2.39c-0.207,0.947 -0.32,1.447 -0.34,1.5c-0.24,0.807 -0.43,1.627 -0.57,2.46c-0.24,1.42 -0.637,1.524 -1.19,0.31c-0.807,-1.773 -1.95,-3.293 -3.43,-4.56c-0.414,-0.353 -0.5,-0.273 -0.26,0.24l1.63,3.52c0.11,0.23 0.09,0.58 -0.05,0.96c-2.034,5.614 -4.35,11.104 -6.95,16.47c-1.774,3.647 -4.754,5.424 -8.94,5.33c-3.107,-0.073 -5.794,-0.54 -8.06,-1.4c-1.914,-0.72 -3.267,-2.13 -4.06,-4.23c-1.974,-5.18 -4.38,-10.15 -7.22,-14.91c-0.027,-0.046 -0.354,-0.733 -0.98,-2.06c-0.394,-0.84 -0.98,-1.536 -1.76,-2.09c-0.26,-0.18 -0.4,-0.48 -0.36,-0.77c0.386,-2.986 1.866,-5.306 4.44,-6.96c-0.02,1.7 0.333,3.167 1.06,4.4c1.74,2.934 3.11,5.72 4.11,8.36c0.106,0.287 0.253,0.514 0.44,0.68c0.526,0.467 0.836,0.43 0.93,-0.11c0.04,-0.246 -0.014,-0.52 -0.16,-0.82c-1.26,-2.613 -2.594,-5.183 -4,-7.71c-0.62,-1.106 -0.997,-2.636 -1.13,-4.59c-0.047,-0.706 -0.38,-0.86 -1,-0.46l-1.1,-0.86c-0.2,-0.16 -0.48,-0.13 -0.59,0.06c-1.907,3.234 -3.074,5.174 -3.5,5.82c-0.74,1.134 -1.104,2.28 -1.09,3.44c0.01,0.39 -0.08,0.72 -0.23,0.94c-0.494,0.68 -0.914,0.467 -1.26,-0.64c-0.52,-1.633 -0.717,-3.296 -0.59,-4.99c0.02,-0.23 -0.2,-0.41 -0.42,-0.35c-1.907,0.5 -3.307,-0.143 -4.2,-1.93c-0.13,-0.26 -0.08,-0.58 0.12,-0.84l2.02,-2.59c0.16,-0.21 0.25,-0.53 0.25,-0.91c-0,-1.446 0.863,-2.01 2.59,-1.69c0.666,0.127 1.373,-0.1 2.12,-0.68c0.21,-0.17 0.26,-0.49 0.11,-0.75c-0.654,-1.193 -0.767,-2.493 -0.34,-3.9c0.373,-1.206 0.743,-2.416 1.11,-3.63l2.37,-0.99c0.37,-0.16 0.71,-0.19 0.91,-0.08c0.506,0.254 0.433,0.7 -0.22,1.34c-0.98,0.967 -1.23,1.95 -0.75,2.95c0.12,0.23 0.42,0.32 0.69,0.2c0.913,-0.42 1.27,-0.173 1.07,0.74c-0.05,0.25 -0.28,0.49 -0.62,0.63c-0.707,0.307 -1.09,0.964 -1.15,1.97c-0.02,0.327 0.106,0.407 0.38,0.24c3.853,-2.36 7.693,-4.903 11.52,-7.63c1.253,-0.9 0.936,-1.306 -0.95,-1.22c-2.6,0.12 -2.947,-0.396 -1.04,-1.55c2.806,-1.7 5.83,-2.203 9.07,-1.51c6.48,1.394 6.64,1.17 0.48,-0.67c-1.387,-0.413 -1.564,-0.9 -0.53,-1.46c0.32,-0.173 0.683,-0.256 1.09,-0.25c2.693,0.08 5.733,1.017 9.12,2.81c3.306,1.754 5.576,3.83 6.81,6.23Zm-16.45,-2c0.62,0.04 1.136,0.33 1.55,0.87c2.9,3.847 6.763,5.93 11.59,6.25c0.333,0.02 0.373,-0.08 0.12,-0.3c-2.58,-2.3 -4.667,-4.993 -6.26,-8.08c-0.08,-0.146 -0.174,-0.276 -0.28,-0.39c-1.094,-1.08 -1.267,-1.05 -0.52,0.09c1.14,1.747 2.203,3.54 3.19,5.38c0.2,0.367 0.266,0.69 0.2,0.97c-0.114,0.447 -0.41,0.684 -0.89,0.71c-0.17,0.01 -0.49,-0.14 -0.85,-0.4l-3.85,-2.75c-0.674,-0.48 -1.067,-0.796 -1.18,-0.95c-2.167,-2.806 -4.69,-3.963 -7.57,-3.47c-0.28,0.04 -0.45,0.33 -0.33,0.57c0.286,0.54 0.863,0.65 1.73,0.33c2.313,-0.86 2.87,-0.03 1.67,2.49c-0.16,0.32 0.06,0.7 0.41,0.73c0.766,0.074 1.06,-0.44 0.88,-1.54c-0.05,-0.28 0.14,-0.53 0.39,-0.51Zm5.24,11.96l-0,0.25c0.986,3.74 -0.18,5.16 -3.5,4.26c-1.074,-0.293 -1.85,-0.783 -2.33,-1.47c-0.84,-1.213 -0.41,-2.296 1.29,-3.25c1.98,0.24 3.003,1.37 3.07,3.39c0.006,0.334 0.05,0.344 0.13,0.03c0.54,-2.26 -0.36,-3.483 -2.7,-3.67l-3.25,-0.79c-1.434,-0.346 -2.704,0.3 -3.81,1.94c-0.754,1.114 -1.347,1.124 -1.78,0.03c-0.14,-0.34 -0.38,-0.58 -0.63,-0.62c-0.607,-0.113 -0.74,0.337 -0.4,1.35c0.273,0.807 0.736,1.714 1.39,2.72c0.16,0.25 0.12,0.58 -0.09,0.79c-1.674,1.607 -2.437,1.457 -2.29,-0.45c0.133,-1.666 -0.14,-2.133 -0.82,-1.4c-0.2,0.22 -0.33,0.53 -0.37,0.89l-0.21,2.18c-0.02,0.22 -0.26,0.34 -0.46,0.24c-0.36,-0.186 -0.674,-0.196 -0.94,-0.03c-0.22,0.14 -0.27,0.49 -0.12,0.82c1.92,4.067 3.393,8.287 4.42,12.66c0.006,0.047 0.09,1.147 0.25,3.3c0.086,1.267 0.61,2.377 1.57,3.33c0.04,0.154 0.136,0.25 0.29,0.29c0.513,1.027 1.346,1.61 2.5,1.75l4.77,1.05c0.35,0.08 0.68,0.02 0.88,-0.16c0.646,-0.586 0.953,-1.263 0.92,-2.03c-0.01,-0.33 0.32,-0.56 0.63,-0.45c1.626,0.607 2.31,0.387 2.05,-0.66l0.25,-0.08c0.213,0.06 0.393,0.03 0.54,-0.09c0.093,-0.08 0.153,-0.22 0.18,-0.42c0.733,-6.506 2.05,-12.896 3.95,-19.17c0.09,-0.31 0.32,-0.55 0.61,-0.65c1.306,-0.466 1.81,-0.186 1.51,0.84c-0.167,0.567 -0.264,0.977 -0.29,1.23c-0.74,8.447 -0.087,8.15 1.96,-0.89c0.06,-0.25 -0.03,-0.5 -0.23,-0.66c-1.314,-1.046 -2.584,-2.2 -3.81,-3.46c-1.34,-1.373 -2.63,-2.476 -3.87,-3.31c-2.487,-1.66 -4.964,-3.333 -7.43,-5.02c-0.68,-0.466 -1.207,-0.42 -1.58,0.14c-0.16,0.23 -0.09,0.57 0.15,0.78c1.186,1 2.56,1.64 4.12,1.92c1.593,0.294 2.753,1.144 3.48,2.55Zm-20.06,0.06c3.433,-2.486 7.086,-4.12 10.96,-4.9c0.373,-0.08 0.386,-0.173 0.04,-0.28c-0.734,-0.226 -1.47,-0.173 -2.21,0.16c-1.674,0.754 -3.367,1.454 -5.08,2.1c-0.874,0.334 -1.584,0.697 -2.13,1.09c-0.747,0.534 -1.35,1.06 -1.81,1.58c-0.647,0.74 -0.57,0.824 0.23,0.25Zm1.759,3.957c0.221,-0.017 0.351,-0.747 0.3,-1.641c-0.059,-0.896 -0.279,-1.606 -0.498,-1.593c-0.221,0.017 -0.351,0.747 -0.301,1.642c0.06,0.895 0.28,1.605 0.499,1.592Zm-3.163,6.074c-0.046,-0.131 -0.196,-0.201 -0.335,-0.152l-0.318,0.12c-0.133,0.051 -0.203,0.201 -0.152,0.334l2.772,7.377c0.047,0.13 0.197,0.2 0.335,0.152l0.319,-0.12c0.133,-0.052 0.203,-0.202 0.151,-0.335l-2.772,-7.376Zm26.284,11.75c0.42,0.039 0.86,-1.161 0.987,-2.667c0.123,-1.504 -0.107,-2.764 -0.528,-2.794c-0.419,-0.04 -0.859,1.16 -0.987,2.667c-0.122,1.503 0.108,2.763 0.528,2.794Zm-15.42,9.719c4.013,1.754 7.796,1.25 11.35,-1.51c0.1,-0.08 0.18,-0.173 0.24,-0.28c0.313,-0.633 0.186,-0.746 -0.38,-0.34c-2.427,1.734 -5.047,2.314 -7.86,1.74c-1.4,-0.286 -2.304,-0.51 -2.71,-0.67c-0.954,-0.373 -1.667,-1.053 -2.14,-2.04c-0.14,-0.306 -0.227,-0.296 -0.26,0.03c-0.147,1.474 0.44,2.497 1.76,3.07Z" style="fill:#fefefe;fill-rule:nonzero;"/><path d="M38.017,31.854c0.18,1.1 -0.114,1.614 -0.88,1.54c-0.35,-0.03 -0.57,-0.41 -0.41,-0.73c1.2,-2.52 0.643,-3.35 -1.67,-2.49c-0.867,0.32 -1.444,0.21 -1.73,-0.33c-0.12,-0.24 0.05,-0.53 0.33,-0.57c2.88,-0.493 5.403,0.664 7.57,3.47c0.113,0.154 0.506,0.47 1.18,0.95l3.85,2.75c0.36,0.26 0.68,0.41 0.85,0.4c0.48,-0.026 0.776,-0.263 0.89,-0.71c0.066,-0.28 -0,-0.603 -0.2,-0.97c-0.987,-1.84 -2.05,-3.633 -3.19,-5.38c-0.747,-1.14 -0.574,-1.17 0.52,-0.09c0.106,0.114 0.2,0.244 0.28,0.39c1.593,3.087 3.68,5.78 6.26,8.08c0.253,0.22 0.213,0.32 -0.12,0.3c-4.827,-0.32 -8.69,-2.403 -11.59,-6.25c-0.414,-0.54 -0.93,-0.83 -1.55,-0.87c-0.25,-0.02 -0.44,0.23 -0.39,0.51Z" style="fill:#1c2c1b;fill-rule:nonzero;"/><path d="M26.847,32.334c-0.92,1.06 -1.84,1.85 -2.76,2.37c-1.02,0.574 -2.004,0.574 -2.95,0c-1.327,-0.813 -1.51,-2.053 -0.55,-3.72c0.17,-0.29 0.42,-0.51 0.72,-0.62c1.786,-0.653 3.583,-0.383 5.39,0.81c0.39,0.26 0.46,0.81 0.15,1.16Z" style="fill:#fefefe;fill-rule:nonzero;"/><path d="M44.357,69.514c0.406,-1.46 0.563,-3.126 0.47,-5c-0.067,-1.5 -0.624,-1.706 -1.67,-0.62c-0.874,0.907 -1.164,2.214 -0.87,3.92c0.173,1.007 0.78,1.6 1.82,1.78c0.26,1.047 -0.424,1.267 -2.05,0.66c-0.31,-0.11 -0.64,0.12 -0.63,0.45c0.033,0.767 -0.274,1.444 -0.92,2.03c-0.2,0.18 -0.53,0.24 -0.88,0.16l-4.77,-1.05c0.273,0.014 0.44,-0.07 0.5,-0.25c0.526,-0.113 0.993,-0.343 1.4,-0.69c0.21,-0.19 0.52,-0.2 0.73,-0.03c2.14,1.734 3.18,1.044 3.12,-2.07c-0.014,-0.866 0.256,-1.93 0.81,-3.19c0.733,-1.653 1.813,-2.856 3.24,-3.61c1.32,-0.693 1.413,-1.526 0.28,-2.5c-1.287,-1.1 -2.744,-1.483 -4.37,-1.15c-2.314,0.48 -4.89,0.407 -7.73,-0.22c-0.95,-0.21 -1.89,0.35 -2.17,1.28c-0.614,2.1 -0.064,3.677 1.65,4.73c0.586,0.36 1.046,0.727 1.38,1.1c0.393,0.44 0.803,0.867 1.23,1.28c0.22,0.21 0.25,0.54 0.06,0.75c-0.407,0.447 -0.774,0.45 -1.1,0.01c-0.147,-0.186 -0.25,-0.533 -0.31,-1.04c-0.12,-0.933 -0.564,-1.533 -1.33,-1.8c-1.167,-0.413 -1.587,0 -1.26,1.24l1.08,4.12c-0.96,-0.953 -1.484,-2.063 -1.57,-3.33c-0.16,-2.153 -0.244,-3.253 -0.25,-3.3c-1.027,-4.373 -2.5,-8.593 -4.42,-12.66c-0.15,-0.33 -0.1,-0.68 0.12,-0.82c0.266,-0.166 0.58,-0.156 0.94,0.03c0.2,0.1 0.44,-0.02 0.46,-0.24l0.21,-2.18c0.04,-0.36 0.17,-0.67 0.37,-0.89c0.68,-0.733 0.953,-0.266 0.82,1.4c-0.147,1.907 0.616,2.057 2.29,0.45c0.21,-0.21 0.25,-0.54 0.09,-0.79c-0.654,-1.006 -1.117,-1.913 -1.39,-2.72c-0.34,-1.013 -0.207,-1.463 0.4,-1.35c0.25,0.04 0.49,0.28 0.63,0.62c0.433,1.094 1.026,1.084 1.78,-0.03c1.106,-1.64 2.376,-2.286 3.81,-1.94l3.25,0.79c-0.1,0.2 -0.267,0.284 -0.5,0.25c-1.7,0.954 -2.13,2.037 -1.29,3.25c0.48,0.687 1.256,1.177 2.33,1.47c3.32,0.9 4.486,-0.52 3.5,-4.26c0.453,1.354 1.296,2.334 2.53,2.94c0.773,0.38 1.063,0.154 0.87,-0.68c-0.394,-1.733 -1.527,-2.57 -3.4,-2.51c-0.727,-1.406 -1.887,-2.256 -3.48,-2.55c-1.56,-0.28 -2.934,-0.92 -4.12,-1.92c-0.24,-0.21 -0.31,-0.55 -0.15,-0.78c0.373,-0.56 0.9,-0.606 1.58,-0.14c2.466,1.687 4.943,3.36 7.43,5.02c1.24,0.834 2.53,1.937 3.87,3.31c1.226,1.26 2.496,2.414 3.81,3.46c0.2,0.16 0.29,0.41 0.23,0.66c-2.047,9.04 -2.7,9.337 -1.96,0.89c0.026,-0.253 0.123,-0.663 0.29,-1.23c0.3,-1.026 -0.204,-1.306 -1.51,-0.84c-0.29,0.1 -0.52,0.34 -0.61,0.65c-1.9,6.274 -3.217,12.664 -3.95,19.17c-0.027,0.2 -0.087,0.34 -0.18,0.42c-0.147,0.12 -0.327,0.15 -0.54,0.09Zm-7.617,-25.574c0.007,-0.686 -0.553,-1.246 -1.235,-1.244l-0.84,-0.003c-0.688,0.001 -1.238,0.551 -1.245,1.235l-0.007,2.1c-0.006,0.686 0.554,1.246 1.236,1.245l0.84,0.003c0.688,-0.002 1.238,-0.552 1.244,-1.236l0.007,-2.1Zm7.917,5.454c-0.087,0.414 0.47,1.124 1.67,2.13c0.21,0.17 0.52,0.09 0.61,-0.16c0.286,-0.78 0.483,-1.72 0.59,-2.82c0.093,-0.953 -0.574,-1.053 -2,-0.3c-0.45,0.23 -0.77,0.66 -0.87,1.15Z" style="fill:#166229;fill-rule:nonzero;"/><path d="M23.587,43.364c-0.8,0.574 -0.877,0.49 -0.23,-0.25c0.46,-0.52 1.063,-1.046 1.81,-1.58c0.546,-0.393 1.256,-0.756 2.13,-1.09c1.713,-0.646 3.406,-1.346 5.08,-2.1c0.74,-0.333 1.476,-0.386 2.21,-0.16c0.346,0.107 0.333,0.2 -0.04,0.28c-3.874,0.78 -7.527,2.414 -10.96,4.9Z" style="fill:#1c2c1b;fill-rule:nonzero;"/><path d="M36.74,43.94c0.003,-0.684 -0.551,-1.242 -1.235,-1.244l-0.84,-0.003c-0.685,-0.003 -1.242,0.551 -1.245,1.235l-0.007,2.1c-0.002,0.685 0.551,1.242 1.236,1.245l0.84,0.003c0.684,0.002 1.242,-0.552 1.244,-1.236l0.007,-2.1Z" style="fill:#fefefe;"/><path d="M39.607,42.844c2.34,0.187 3.24,1.41 2.7,3.67c-0.08,0.314 -0.124,0.304 -0.13,-0.03c-0.067,-2.02 -1.09,-3.15 -3.07,-3.39c0.233,0.034 0.4,-0.05 0.5,-0.25Z" style="fill:#166229;fill-rule:nonzero;"/><path d="M43.647,43.554l-0,-0.25c1.873,-0.06 3.006,0.777 3.4,2.51c0.193,0.834 -0.097,1.06 -0.87,0.68c-1.234,-0.606 -2.077,-1.586 -2.53,-2.94Z" style="fill:#fefefe;fill-rule:nonzero;"/><path d="M25.646,45.68c0.054,0.892 -0.08,1.628 -0.3,1.641c-0.221,0.014 -0.444,-0.7 -0.499,-1.592c-0.054,-0.893 0.08,-1.628 0.301,-1.642c0.22,-0.013 0.443,0.7 0.498,1.593Z" style="fill:#166229;"/><path d="M21.357,45.344c0.146,-0.026 0.23,-0.11 0.25,-0.25c0.62,-0.4 0.953,-0.246 1,0.46c0.133,1.954 0.51,3.484 1.13,4.59c1.406,2.527 2.74,5.097 4,7.71c0.146,0.3 0.2,0.574 0.16,0.82c-0.094,0.54 -0.404,0.577 -0.93,0.11c-0.187,-0.166 -0.334,-0.393 -0.44,-0.68c-1,-2.64 -2.37,-5.426 -4.11,-8.36c-0.727,-1.233 -1.08,-2.7 -1.06,-4.4Z" style="fill:#1c2c1b;fill-rule:nonzero;"/><path d="M44.657,49.394c0.1,-0.49 0.42,-0.92 0.87,-1.15c1.426,-0.753 2.093,-0.653 2,0.3c-0.107,1.1 -0.304,2.04 -0.59,2.82c-0.09,0.25 -0.4,0.33 -0.61,0.16c-1.2,-1.006 -1.757,-1.716 -1.67,-2.13Z" style="fill:#fefefe;fill-rule:nonzero;"/><path d="M22.183,53.395c-0.051,-0.134 -0.201,-0.202 -0.335,-0.152l-0.318,0.12c-0.135,0.05 -0.203,0.2 -0.152,0.334l2.772,7.377c0.051,0.134 0.201,0.202 0.335,0.152l0.318,-0.12c0.135,-0.051 0.203,-0.201 0.152,-0.335l-2.772,-7.376Z" style="fill:#1c2c1b;"/><path d="M35.357,71.594c-0.747,-1.04 -1.747,-1.54 -3,-1.5c-0.154,-0.04 -0.25,-0.136 -0.29,-0.29l-1.08,-4.12c-0.327,-1.24 0.093,-1.653 1.26,-1.24c0.766,0.267 1.21,0.867 1.33,1.8c0.06,0.507 0.163,0.854 0.31,1.04c0.326,0.44 0.693,0.437 1.1,-0.01c0.19,-0.21 0.16,-0.54 -0.06,-0.75c-0.427,-0.413 -0.837,-0.84 -1.23,-1.28c-0.334,-0.373 -0.794,-0.74 -1.38,-1.1c-1.714,-1.053 -2.264,-2.63 -1.65,-4.73c0.28,-0.93 1.22,-1.49 2.17,-1.28c2.84,0.627 5.416,0.7 7.73,0.22c1.626,-0.333 3.083,0.05 4.37,1.15c1.133,0.974 1.04,1.807 -0.28,2.5c-1.427,0.754 -2.507,1.957 -3.24,3.61c-0.554,1.26 -0.824,2.324 -0.81,3.19c0.06,3.114 -0.98,3.804 -3.12,2.07c-0.21,-0.17 -0.52,-0.16 -0.73,0.03c-0.407,0.347 -0.874,0.577 -1.4,0.69Zm3.44,-5.63c-1.12,-0.253 -2.057,0.04 -2.81,0.88c-0.267,0.294 -0.214,0.47 0.16,0.53c0.866,0.14 1.77,-0.26 2.71,-1.2c0.113,-0.106 0.093,-0.176 -0.06,-0.21Z" style="fill:#fefefe;fill-rule:nonzero;"/><path d="M49.454,62.478c-0.127,1.507 -0.569,2.702 -0.987,2.667c-0.418,-0.035 -0.654,-1.287 -0.528,-2.794c0.127,-1.507 0.569,-2.702 0.987,-2.667c0.418,0.035 0.655,1.287 0.528,2.794Z" style="fill:#1c2c1b;"/><path d="M44.357,69.514l-0.25,0.08c-1.04,-0.18 -1.647,-0.773 -1.82,-1.78c-0.294,-1.706 -0.004,-3.013 0.87,-3.92c1.046,-1.086 1.603,-0.88 1.67,0.62c0.093,1.874 -0.064,3.54 -0.47,5Z" style="fill:#fefefe;fill-rule:nonzero;"/><path d="M38.797,65.964c0.153,0.034 0.173,0.104 0.06,0.21c-0.94,0.94 -1.844,1.34 -2.71,1.2c-0.374,-0.06 -0.427,-0.236 -0.16,-0.53c0.753,-0.84 1.69,-1.133 2.81,-0.88Z" style="fill:#1c2c1b;fill-rule:nonzero;"/><path d="M32.357,70.094c1.253,-0.04 2.253,0.46 3,1.5c-0.06,0.18 -0.227,0.264 -0.5,0.25c-1.154,-0.14 -1.987,-0.723 -2.5,-1.75Z" style="fill:#1c2c1b;fill-rule:nonzero;"/><path d="M33.047,74.864c-1.32,-0.573 -1.907,-1.596 -1.76,-3.07c0.033,-0.326 0.12,-0.336 0.26,-0.03c0.473,0.987 1.186,1.667 2.14,2.04c0.406,0.16 1.31,0.384 2.71,0.67c2.813,0.574 5.433,-0.006 7.86,-1.74c0.566,-0.406 0.693,-0.293 0.38,0.34c-0.06,0.107 -0.14,0.2 -0.24,0.28c-3.554,2.76 -7.337,3.264 -11.35,1.51Z" style="fill:#166229;fill-rule:nonzero;"/></svg>