<?xml version="1.0" encoding="UTF-8" standalone="no"?><!DOCTYPE svg PUBLIC "-//W3C//DTD SVG 1.1//EN" "http://www.w3.org/Graphics/SVG/1.1/DTD/svg11.dtd"><svg width="100%" height="100%" viewBox="0 0 80 80" version="1.1" xmlns="http://www.w3.org/2000/svg" xmlns:xlink="http://www.w3.org/1999/xlink" xml:space="preserve" xmlns:serif="http://www.serif.com/" style="fill-rule:evenodd;clip-rule:evenodd;"><path d="M37.254,4.124c-3.122,-0.034 -5.076,0.907 -5.11,0.92c-2.94,1.26 -6.26,3.4 -9.96,6.42c-3.16,2.587 -6.01,5.303 -8.55,8.15c-0.32,0.36 -0.82,0.46 -1.18,0.24l-6.75,-4.09c-0.34,-0.21 -0.67,-0.29 -0.89,-0.22c-0.48,0.16 -0.71,0.53 -0.69,1.11c0.04,1.013 0.514,3.037 1.42,6.07c0.667,2.233 1.01,4.493 1.03,6.78c0.007,0.447 -0.263,2.697 -0.81,6.75c-0.36,2.7 -0.41,5.407 -0.15,8.12c0.28,2.947 0.674,5.29 1.18,7.03c0.62,2.113 1.627,4.3 3.02,6.56c7.167,11.667 17,17.59 29.5,17.77c5.307,0.073 10.34,-1.067 15.1,-3.42c5.007,-2.487 9.14,-5.81 12.4,-9.97c6.74,-8.607 8.737,-18.437 5.99,-29.49c-0.453,-1.833 -0.573,-3.493 -0.36,-4.98c0.56,-3.907 1.434,-7.757 2.62,-11.55c0.207,-0.66 -0.02,-0.883 -0.68,-0.67c-2.333,0.733 -4.446,1.883 -6.34,3.45c-1.1,0.913 -2.113,0.823 -3.04,-0.27c-1.386,-1.647 -2.963,-3.253 -4.73,-4.82c-3.013,-2.68 -4.703,-4.167 -5.07,-4.46c-4.506,-3.54 -10.49,-5.35 -17.95,-5.43Z" style="fill:none;fill-rule:nonzero;stroke:#7ea170;stroke-width:2px;"/><path d="M17.124,41.364c0.654,0.253 0.737,0.67 0.25,1.25" style="fill:none;fill-rule:nonzero;stroke:#77966d;stroke-width:2px;"/><path d="M17.374,42.614l-0.83,0.39c-0.23,0.11 -0.33,0.46 -0.23,0.82c1.487,5.587 3.924,10.707 7.31,15.36c0.68,0.94 1.57,1.65 2.67,2.13c1.087,0.467 2.184,0.913 3.29,1.34" style="fill:none;fill-rule:nonzero;stroke:#8cb095;stroke-width:2px;"/><path d="M29.584,62.654c0.027,0.267 0.124,0.503 0.29,0.71" style="fill:none;fill-rule:nonzero;stroke:#184923;stroke-width:2px;"/><path d="M29.874,63.364c-0.946,0.08 -1.78,0.44 -2.5,1.08" style="fill:none;fill-rule:nonzero;stroke:#8cb095;stroke-width:2px;"/><path d="M27.374,64.444c-0.5,-0.42 -1.026,-0.797 -1.58,-1.13c-0.613,-0.367 -1.08,-0.793 -1.4,-1.28c-1.9,-2.887 -3.686,-5.84 -5.36,-8.86c-0.46,-0.84 -0.81,-0.97 -1.05,-0.39c-0.08,0.213 -0.093,0.463 -0.04,0.75c0.36,1.893 0.984,3.67 1.87,5.33c0.72,1.34 1.944,2.71 3.67,4.11c1.754,1.427 3.507,2.86 5.26,4.3c0.04,0.033 0.474,0.44 1.3,1.22c1.627,1.533 3.78,2.047 6.46,1.54c0.33,-0.06 0.68,-0.03 0.99,0.08c3.514,1.233 6.837,1.13 9.97,-0.31c0.78,-0.36 1.61,-0.937 2.49,-1.73c0.767,-0.687 1.524,-1.38 2.27,-2.08c0.467,-0.447 1.64,-1.42 3.52,-2.92c4.854,-3.88 6.51,-9.103 4.97,-15.67c-0.013,-0.047 -0.136,-0.77 -0.37,-2.17c-0.16,-0.987 -0.546,-1.887 -1.16,-2.7c-0.18,-0.24 -0.2,-0.55 -0.05,-0.81c0.407,-0.693 0.72,-1.42 0.94,-2.18c0.174,-0.587 0.19,-1.52 0.05,-2.8c-0.113,-1.033 -0.066,-2.067 0.14,-3.1c0.107,-0.52 0.197,-0.523 0.27,-0.01l0.79,5.71c0.03,0.19 -0.09,0.51 -0.33,0.87c-0.226,0.347 -0.27,0.687 -0.13,1.02c0.1,0.26 0.38,0.47 0.74,0.54c2.18,0.473 3.704,-0.357 4.57,-2.49c0.68,-1.687 1.52,-3.29 2.52,-4.81c1.86,-2.827 2.817,-5.913 2.87,-9.26c0,-0.24 -0.25,-0.4 -0.46,-0.3c-1.686,0.78 -3.003,1.963 -3.95,3.55c-0.046,0.08 -0.326,0.457 -0.84,1.13c-0.493,0.653 -0.533,1.407 -0.12,2.26c0.16,0.34 -0.08,0.73 -0.45,0.74c-1.186,0.047 -2.03,0.627 -2.53,1.74c-0.373,0.82 -0.573,0.647 -0.6,-0.52c-0.01,-0.57 0.16,-1.13 0.5,-1.59c2.48,-3.32 4.99,-6.3 7.53,-8.94c0.807,-0.847 1.454,-1.733 1.94,-2.66c0.507,-0.987 1.01,-1.977 1.51,-2.97c0.154,-0.313 0.057,-0.457 -0.29,-0.43c-0.826,0.067 -1.7,0.397 -2.62,0.99c-2.366,1.54 -5.136,3.433 -8.31,5.68c-0.34,0.24 -0.61,0.57 -0.79,0.96c-0.746,1.64 -1.13,2.157 -1.15,1.55c-0.08,-3.5 -0.86,-6.83 -2.34,-9.99c-2.7,-5.76 -7.196,-9.13 -13.49,-10.11c-15.88,-2.467 -24.933,3.983 -27.16,19.35c-0.04,0.293 -0.143,0.317 -0.31,0.07c-0.4,-0.613 -1.09,-1.283 -2.07,-2.01c-2.906,-2.147 -6.35,-4.41 -10.33,-6.79c-0.526,-0.32 -0.69,-0.187 -0.49,0.4c1.927,5.507 5.034,9.637 9.32,12.39c1.467,0.947 2.11,2.49 1.93,4.63c-0.026,0.307 -0.1,0.313 -0.22,0.02c-0.546,-1.307 -1.59,-1.793 -3.13,-1.46c-0.62,0.133 -0.713,-0.03 -0.28,-0.49c1.24,-1.3 1.324,-2.383 0.25,-3.25c-1.06,-0.86 -1.616,-1.32 -1.67,-1.38c-0.96,-0.973 -2.01,-1.84 -3.15,-2.6c-0.286,-0.193 -0.433,-0.117 -0.44,0.23c-0.093,3.267 0.687,6.243 2.34,8.93c0.9,1.48 1.54,2.623 1.92,3.43c0.687,1.453 1.337,2.6 1.95,3.44c1.267,1.747 2.454,1.797 3.56,0.15" style="fill:none;fill-rule:nonzero;stroke:#8cb095;stroke-width:2px;"/><path d="M27.374,64.444c0.334,0.353 0.737,0.507 1.21,0.46" style="fill:none;fill-rule:nonzero;stroke:#fff;stroke-width:2px;"/><path d="M28.584,64.904c0.594,0.607 1.17,0.753 1.73,0.44c2.094,-1.18 4.094,-1.39 6,-0.63c1.627,0.653 4.06,0.97 7.3,0.95c0.24,-0.007 0.25,-0.047 0.03,-0.12c-0.48,-0.173 -0.733,-0.49 -0.76,-0.95c-0.02,-0.453 -0.08,-0.767 -0.18,-0.94c-0.72,-1.3 -1.166,-1.403 -1.34,-0.31c-0.05,0.29 -0.28,0.51 -0.55,0.5l-6.95,-0.16c-0.33,-0.01 -0.6,-0.22 -0.65,-0.5c-0.12,-0.727 0.4,-1.28 1.56,-1.66c0.24,-0.08 0.37,-0.34 0.28,-0.58c-0.393,-1.073 -0.306,-2.037 0.26,-2.89c0.18,-0.26 0.5,-0.38 0.79,-0.28c0.96,0.32 1.3,1.03 1.02,2.13c-0.266,1.04 -0.11,1.497 0.47,1.37c0.27,-0.06 0.51,-0.32 0.61,-0.67c0.794,-2.567 1.39,-2.527 1.79,0.12c0.04,0.3 0.27,0.54 0.56,0.59l8.57,1.55" style="fill:none;fill-rule:nonzero;stroke:#8b988d;stroke-width:2px;"/><path d="M49.124,62.864c0.167,0.053 0.334,0.053 0.5,-0" style="fill:none;fill-rule:nonzero;stroke:#fff;stroke-width:2px;"/><path d="M49.624,62.864c0.434,0.187 0.817,0.153 1.15,-0.1c0.38,-0.28 0.71,-0.47 0.84,-0.46l3.45,0.04c0.8,0.01 1.47,-0.51 1.56,-1.19l1.41,-11.38c0.02,-0.14 -0.01,-0.27 -0.08,-0.34c-0.086,-0.087 -0.173,-0.06 -0.26,0.08c-0.046,0.073 -0.073,0.17 -0.08,0.29c-0.226,4.347 -1.453,7.9 -3.68,10.66c-1.233,1.527 -2.323,1.773 -3.27,0.74c-0.566,-0.627 -0.846,-1.443 -0.84,-2.45c0.02,-1.833 0.774,-3.38 2.26,-4.64c2.087,-1.78 3.35,-4.017 3.79,-6.71" style="fill:none;fill-rule:nonzero;stroke:#8b988d;stroke-width:2px;"/><path d="M55.874,47.404l1.59,-1.02c0.31,-0.2 0.5,-0.45 0.51,-0.67c0.06,-1.353 -0.38,-1.657 -1.32,-0.91c-0.346,0.273 -0.573,0.603 -0.68,0.99c-0.146,0.513 -0.18,1.05 -0.1,1.61" style="fill:none;fill-rule:nonzero;stroke:#8cb095;stroke-width:2px;"/><path d="M55.874,47.404l-1.98,3.58c-0.68,1.233 -1.306,1.143 -1.88,-0.27c-0.66,-1.627 -1.63,-2.197 -2.91,-1.71c-3.246,1.233 -6.43,2.17 -9.55,2.81c-0.54,0.11 -0.97,0.52 -1.11,1.06c-0.473,1.88 -0.99,2.47 -1.55,1.77c-0.693,-0.86 -0.563,-1.79 0.39,-2.79c0.34,-0.36 0.17,-0.94 -0.31,-1.06c-0.873,-0.22 -1.736,-0.02 -2.59,0.6c-0.2,0.15 -0.22,0.44 -0.04,0.61c0.88,0.86 0.944,2.057 0.19,3.59c-0.18,0.35 -0.64,0.45 -0.93,0.19c-1.133,-0.993 -1.416,-2.283 -0.85,-3.87c0.9,-2.5 0.44,-3.237 -1.38,-2.21c-0.25,0.15 -0.39,0.45 -0.35,0.76c0.18,1.193 0.02,2.333 -0.48,3.42c-0.12,0.25 -0.43,0.34 -0.66,0.19c-2.38,-1.567 -2.31,-2.877 0.21,-3.93c0.327,-0.133 0.357,-0.3 0.09,-0.5c-1.146,-0.847 -2.226,-0.44 -3.24,1.22c-0.673,1.107 -1.536,1.28 -2.59,0.52c-2.466,-1.793 -3.466,-4.313 -3,-7.56c0.04,-0.3 -0.06,-0.6 -0.28,-0.81c-1.84,-1.753 -2.596,-3.883 -2.27,-6.39c0.014,-0.12 0.107,-0.42 0.28,-0.9c0.154,-0.433 0.084,-0.773 -0.21,-1.02c-0.333,-0.273 -0.523,-0.193 -0.57,0.24l-0.64,5.71" style="fill:none;fill-rule:nonzero;stroke:#8b988d;stroke-width:2px;"/><path d="M17.664,40.654l-0.54,0.71" style="fill:none;fill-rule:nonzero;stroke:#eae5d7;stroke-width:2px;"/><path d="M49.624,62.864l-0.35,-2.98c-0.053,-0.433 -0.053,-0.75 0,-0.95c0.267,-1.06 -0.05,-1.837 -0.95,-2.33c-0.29,-0.16 -0.63,-0.16 -0.92,-0c-0.66,0.36 -0.9,0.94 -0.72,1.74c0.147,0.653 0.114,1.173 -0.1,1.56" style="fill:none;fill-rule:nonzero;stroke:#8b988d;stroke-width:2px;"/><path d="M46.584,59.904l-1.48,-2.3c-0.16,-0.25 -0.46,-0.34 -0.65,-0.19c-0.44,0.353 -0.66,0.85 -0.66,1.49c-0.013,2.813 1,3.397 3.04,1.75" style="fill:none;fill-rule:nonzero;stroke:#8b988d;stroke-width:2px;"/><path d="M46.834,60.654l2.29,2.21" style="fill:none;fill-rule:nonzero;stroke:#8b988d;stroke-width:2px;"/><path d="M28.584,64.904c0.3,-0.46 1.254,-0.743 2.86,-0.85c0.37,-0.03 0.68,-0.3 0.76,-0.66c0.34,-1.48 0.644,-2.337 0.91,-2.57c0.61,-0.53 0.79,-1.41 0.45,-2.14c-0.9,-1.933 -1.633,-2.647 -2.2,-2.14c-0.34,0.307 -0.463,0.92 -0.37,1.84c0.114,1.167 0.147,2.34 0.1,3.52c-0.04,0.847 -0.446,1.333 -1.22,1.46" style="fill:none;fill-rule:nonzero;stroke:#8b988d;stroke-width:2px;"/><path d="M29.584,62.654c0.594,-1.253 0.687,-3.113 0.28,-5.58c-0.14,-0.83 -0.67,-1.55 -1.43,-1.92c-2.706,-1.307 -4.88,-3.253 -6.52,-5.84c-1.373,-2.167 -2.65,-4.387 -3.83,-6.66" style="fill:none;fill-rule:nonzero;stroke:#8b988d;stroke-width:2px;"/><path d="M18.084,42.654c0.374,-0.78 0.234,-1.447 -0.42,-2" style="fill:none;fill-rule:nonzero;stroke:#767d65;stroke-width:2px;"/><path d="M18.084,42.654l-0.71,-0.04" style="fill:none;fill-rule:nonzero;stroke:#eae5d7;stroke-width:2px;"/><path d="M46.834,60.654c0.054,-0.293 -0.03,-0.543 -0.25,-0.75" style="fill:none;fill-rule:nonzero;stroke:#fff;stroke-width:2px;"/><path d="M15.604,19.044c-0.673,0.387 -0.936,0.993 -0.79,1.82c0.06,0.3 0.26,0.57 0.56,0.72c1.58,0.807 2.414,0.33 2.5,-1.43c0.01,-0.26 0.13,-0.56 0.35,-0.85c0.354,-0.473 0.377,-1.077 0.07,-1.81c-0.11,-0.27 -0.41,-0.39 -0.68,-0.28c-0.666,0.28 -1.126,0.663 -1.38,1.15c-0.16,0.3 -0.38,0.54 -0.63,0.68" style="fill:none;fill-rule:nonzero;stroke:#19612b;stroke-width:2px;"/><path d="M31.654,25.654c-0.746,-1.073 -1.573,-1.52 -2.48,-1.34c-0.27,0.05 -0.4,0.37 -0.23,0.58c0.46,0.553 1.277,0.937 2.45,1.15c0.407,0.073 0.494,-0.057 0.26,-0.39" style="fill:none;fill-rule:nonzero;stroke:#8cb095;stroke-width:2px;"/><path d="M45.534,26.814c1.78,0.267 2.9,-0.103 3.36,-1.11c0.247,-0.54 0.124,-0.8 -0.37,-0.78c-0.186,0.007 -0.393,0.09 -0.62,0.25c-0.713,0.52 -1.516,0.947 -2.41,1.28c-0.446,0.167 -0.433,0.287 0.04,0.36" style="fill:none;fill-rule:nonzero;stroke:#8cb095;stroke-width:2px;"/><path d="M21.544,31.374c-0.45,-0.13 -0.71,-0.6 -0.6,-1.05c0.674,-2.633 0.62,-3.237 -0.16,-1.81c-1.113,2.027 -0.806,3.713 0.92,5.06c1.394,1.087 2.537,2.387 3.43,3.9c0.13,0.22 0.15,0.55 0.06,0.89c-0.18,0.667 0.11,1.2 0.87,1.6c2.027,1.073 3.684,0.977 4.97,-0.29c0.394,-0.393 0.7,-0.65 0.92,-0.77c1.04,-0.567 1.454,-0.333 1.24,0.7c-0.06,0.29 -0.25,0.57 -0.53,0.79c-1.86,1.433 -3.463,3.107 -4.81,5.02c-0.093,0.133 -0.326,0.38 -0.7,0.74c-0.353,0.34 -0.453,0.697 -0.3,1.07c0.09,0.22 0.4,0.25 0.62,0.06l2.74,-2.35c0.21,-0.17 0.54,-0.17 0.83,-0c1.234,0.72 2.507,0.803 3.82,0.25c0.26,-0.11 0.57,-0.04 0.76,0.17c0.494,0.567 1.07,1 1.73,1.3c0.314,0.147 0.44,0.047 0.38,-0.3c-0.546,-3.18 -2.033,-3.853 -4.46,-2.02c-0.26,0.19 -0.59,0.19 -0.78,-0.01c-0.84,-0.887 -0.416,-2.02 1.27,-3.4c0.45,-0.37 1.08,-0.45 1.6,-0.19c0.974,0.473 1.424,0.107 1.35,-1.1c-0.04,-0.66 0.007,-1.137 0.14,-1.43c0.354,-0.807 0.937,-1.077 1.75,-0.81c0.33,0.11 0.65,0.12 0.92,0.03c2.394,-0.767 3.084,0.087 2.07,2.56c-0.16,0.39 0.16,0.81 0.58,0.76c2.614,-0.307 3.917,0.647 3.91,2.86c0,0.34 -0.13,0.65 -0.35,0.87c-0.673,0.653 -1.233,0.397 -1.68,-0.77c-0.25,-0.66 -1.09,-0.86 -1.61,-0.38c-0.953,0.88 -1.73,1.987 -2.33,3.32c-0.4,0.893 -0.326,1.177 0.22,0.85c0.14,-0.087 0.257,-0.223 0.35,-0.41c0.72,-1.413 1.78,-1.917 3.18,-1.51c0.36,0.11 0.76,0.1 1.12,-0.02c2.74,-0.94 4.677,-0.793 5.81,0.44c0.587,0.633 0.857,0.707 0.81,0.22c-0.02,-0.153 -0.086,-0.303 -0.2,-0.45c-1.493,-1.987 -3.256,-3.697 -5.29,-5.13c-0.34,-0.24 -0.576,-0.48 -0.71,-0.72c-0.386,-0.713 -0.116,-1.05 0.81,-1.01c0.327,0.013 0.687,0.15 1.08,0.41c1.587,1.047 3.274,1.207 5.06,0.48c0.28,-0.11 0.51,-0.36 0.63,-0.67c0.98,-2.553 2.38,-4.44 4.2,-5.66c2.234,-1.487 2.624,-3.19 1.17,-5.11c-0.56,-0.74 -0.77,-0.653 -0.63,0.26c0.327,2.213 -0.35,3.51 -2.03,3.89c-0.29,0.07 -0.61,-0.03 -0.86,-0.26c-1.18,-1.107 -2.353,-1.313 -3.52,-0.62c-0.406,0.24 -1.056,1.043 -1.95,2.41c-0.953,1.44 -2.233,2.553 -3.84,3.34c-0.3,0.15 -0.64,0.13 -0.9,-0.04c-1.646,-1.047 -2.273,-2.777 -1.88,-5.19c0.067,-0.393 -0.016,-0.423 -0.25,-0.09l-2.81,3.97c-0.14,0.2 -0.44,0.18 -0.57,-0.04c-0.693,-1.16 -1.236,-2.39 -1.63,-3.69c-0.086,-0.287 -0.19,-0.533 -0.31,-0.74c-0.873,-1.507 -1.15,-1.17 -0.83,1.01c0.3,2.033 -0.843,3.323 -3.43,3.87c-0.53,0.11 -1.06,-0.18 -1.25,-0.69c-1.14,-3.007 -3.32,-4.36 -6.54,-4.06c-1.26,0.12 -2.453,0.017 -3.58,-0.31" style="fill:none;fill-rule:nonzero;stroke:#8b988d;stroke-width:2px;"/><path d="M45.324,64.174c-0.886,-0.087 -0.903,-0.007 -0.05,0.24c1.614,0.467 3.544,0.637 5.79,0.51c0.207,-0.013 0.4,-0.07 0.58,-0.17c1.594,-0.913 1.35,-1.133 -0.73,-0.66c-1.306,0.3 -3.17,0.327 -5.59,0.08" style="fill:none;fill-rule:nonzero;stroke:#8cb095;stroke-width:2px;"/><path d="M52.704,33.584c-3.233,0.813 -4.023,2.453 -2.37,4.92c0.16,0.23 0.47,0.27 0.68,0.1c1.414,-1.133 2.324,-2.453 2.73,-3.96c0.17,-0.63 -0.4,-1.22 -1.04,-1.06" style="fill:none;fill-rule:nonzero;stroke:#8b988d;stroke-width:2px;"/><path d="M28.624,37.194l0,0.67" style="fill:none;fill-rule:nonzero;stroke:#184923;stroke-width:2px;"/><path d="M28.624,37.864l-1.98,0.48c-0.426,0.107 -0.443,0.247 -0.05,0.42c1.847,0.813 2.94,0.54 3.28,-0.82" style="fill:none;fill-rule:nonzero;stroke:#8b988d;stroke-width:2px;"/><path d="M29.874,37.944c0.4,-0.36 0.4,-0.72 0,-1.08" style="fill:none;fill-rule:nonzero;stroke:#184923;stroke-width:2px;"/><path d="M29.874,36.864c0.4,-2.327 -0.89,-3.373 -3.87,-3.14c-0.67,0.05 -1.13,0.68 -0.98,1.33c0.354,1.48 1.554,2.193 3.6,2.14" style="fill:none;fill-rule:nonzero;stroke:#8b988d;stroke-width:2px;"/><path d="M29.874,36.864l-1.25,0.33" style="fill:none;fill-rule:nonzero;stroke:#8cb095;stroke-width:2px;"/><path d="M29.874,37.944l-1.25,-0.08" style="fill:none;fill-rule:nonzero;stroke:#8cb095;stroke-width:2px;"/><path d="M50.004,51.334c0.17,-0.25 -0.01,-0.59 -0.33,-0.63c-2.513,-0.293 -3.53,0.863 -3.05,3.47c0.234,1.233 0.674,1.35 1.32,0.35l2.06,-3.19" style="fill:none;fill-rule:nonzero;stroke:#8b988d;stroke-width:2px;"/><path d="M44.334,51.764c-0.986,-0.133 -1.34,0.543 -1.06,2.03c0.13,0.69 0.95,0.99 1.49,0.55c0.474,-0.387 0.814,-0.973 1.02,-1.76c0.07,-0.28 -0.06,-0.56 -0.29,-0.65c-0.133,-0.053 -0.276,-0.087 -0.43,-0.1c-0.38,-0.033 -0.623,-0.057 -0.73,-0.07" style="fill:none;fill-rule:nonzero;stroke:#8b988d;stroke-width:2px;"/><path d="M40.654,55.844c0.55,0.14 1.18,-0.5 1.41,-1.413c0.23,-0.917 -0.04,-1.767 -0.589,-1.907c-0.551,-0.14 -1.181,0.5 -1.41,1.413c-0.231,0.917 0.039,1.767 0.589,1.907" style="fill:none;fill-rule:nonzero;stroke:#8b988d;stroke-width:2px;"/><path d="M42.104,59.304c-1.006,-0.407 -1.29,0.093 -0.85,1.5c0.08,0.27 0.37,0.42 0.64,0.35c1.88,-0.54 1.95,-1.157 0.21,-1.85" style="fill:none;fill-rule:nonzero;stroke:#8b988d;stroke-width:2px;"/><path d="M34.184,4.584c0.854,-0.193 2.82,-0.47 3.07,-0.46c7.46,0.08 13.444,1.89 17.95,5.43c0.367,0.293 2.057,1.78 5.07,4.46c1.767,1.567 3.344,3.173 4.73,4.82c0.927,1.093 1.94,1.183 3.04,0.27c1.894,-1.567 4.007,-2.717 6.34,-3.45c0.66,-0.213 0.887,0.01 0.68,0.67c-1.186,3.793 -2.06,7.643 -2.62,11.55c-0.213,1.487 -0.093,3.147 0.36,4.98c2.747,11.053 0.75,20.883 -5.99,29.49c-3.26,4.16 -7.393,7.483 -12.4,9.97c-4.76,2.353 -9.793,3.493 -15.1,3.42c-12.5,-0.18 -22.333,-6.103 -29.5,-17.77c-1.393,-2.26 -2.4,-4.447 -3.02,-6.56c-0.506,-1.74 -0.9,-4.083 -1.18,-7.03c-0.26,-2.713 -0.21,-5.42 0.15,-8.12c0.547,-4.053 0.817,-6.303 0.81,-6.75c-0.02,-2.287 -0.363,-4.547 -1.03,-6.78c-0.906,-3.033 -1.38,-5.057 -1.42,-6.07c-0.02,-0.58 0.21,-0.95 0.69,-1.11c0.22,-0.07 0.55,0.01 0.89,0.22l6.75,4.09c0.36,0.22 0.86,0.12 1.18,-0.24c2.54,-2.847 5.39,-5.563 8.55,-8.15c3.7,-3.02 7.02,-5.16 9.96,-6.42c0.034,-0.013 0.714,-0.167 2.04,-0.46Zm-17.06,36.78c0.654,0.253 0.737,0.67 0.25,1.25l-0.83,0.39c-0.23,0.11 -0.33,0.46 -0.23,0.82c1.487,5.587 3.924,10.707 7.31,15.36c0.68,0.94 1.57,1.65 2.67,2.13c1.087,0.467 2.184,0.913 3.29,1.34c0.027,0.267 0.124,0.503 0.29,0.71c-0.946,0.08 -1.78,0.44 -2.5,1.08c-0.5,-0.42 -1.026,-0.797 -1.58,-1.13c-0.613,-0.367 -1.08,-0.793 -1.4,-1.28c-1.9,-2.887 -3.686,-5.84 -5.36,-8.86c-0.46,-0.84 -0.81,-0.97 -1.05,-0.39c-0.08,0.213 -0.093,0.463 -0.04,0.75c0.36,1.893 0.984,3.67 1.87,5.33c0.72,1.34 1.944,2.71 3.67,4.11c1.754,1.427 3.507,2.86 5.26,4.3c0.04,0.033 0.474,0.44 1.3,1.22c1.627,1.533 3.78,2.047 6.46,1.54c0.33,-0.06 0.68,-0.03 0.99,0.08c3.514,1.233 6.837,1.13 9.97,-0.31c0.78,-0.36 1.61,-0.937 2.49,-1.73c0.767,-0.687 1.524,-1.38 2.27,-2.08c0.467,-0.447 1.64,-1.42 3.52,-2.92c4.854,-3.88 6.51,-9.103 4.97,-15.67c-0.013,-0.047 -0.136,-0.77 -0.37,-2.17c-0.16,-0.987 -0.546,-1.887 -1.16,-2.7c-0.18,-0.24 -0.2,-0.55 -0.05,-0.81c0.407,-0.693 0.72,-1.42 0.94,-2.18c0.174,-0.587 0.19,-1.52 0.05,-2.8c-0.113,-1.033 -0.066,-2.067 0.14,-3.1c0.107,-0.52 0.197,-0.523 0.27,-0.01l0.79,5.71c0.03,0.19 -0.09,0.51 -0.33,0.87c-0.226,0.347 -0.27,0.687 -0.13,1.02c0.1,0.26 0.38,0.47 0.74,0.54c2.18,0.473 3.704,-0.357 4.57,-2.49c0.68,-1.687 1.52,-3.29 2.52,-4.81c1.86,-2.827 2.817,-5.913 2.87,-9.26c0,-0.24 -0.25,-0.4 -0.46,-0.3c-1.686,0.78 -3.003,1.963 -3.95,3.55c-0.046,0.08 -0.326,0.457 -0.84,1.13c-0.493,0.653 -0.533,1.407 -0.12,2.26c0.16,0.34 -0.08,0.73 -0.45,0.74c-1.186,0.047 -2.03,0.627 -2.53,1.74c-0.373,0.82 -0.573,0.647 -0.6,-0.52c-0.01,-0.57 0.16,-1.13 0.5,-1.59c2.48,-3.32 4.99,-6.3 7.53,-8.94c0.807,-0.847 1.454,-1.733 1.94,-2.66c0.507,-0.987 1.01,-1.977 1.51,-2.97c0.154,-0.313 0.057,-0.457 -0.29,-0.43c-0.826,0.067 -1.7,0.397 -2.62,0.99c-2.366,1.54 -5.136,3.433 -8.31,5.68c-0.34,0.24 -0.61,0.57 -0.79,0.96c-0.746,1.64 -1.13,2.157 -1.15,1.55c-0.08,-3.5 -0.86,-6.83 -2.34,-9.99c-2.7,-5.76 -7.196,-9.13 -13.49,-10.11c-15.88,-2.467 -24.933,3.983 -27.16,19.35c-0.04,0.293 -0.143,0.317 -0.31,0.07c-0.4,-0.613 -1.09,-1.283 -2.07,-2.01c-2.906,-2.147 -6.35,-4.41 -10.33,-6.79c-0.526,-0.32 -0.69,-0.187 -0.49,0.4c1.927,5.507 5.034,9.637 9.32,12.39c1.467,0.947 2.11,2.49 1.93,4.63c-0.026,0.307 -0.1,0.313 -0.22,0.02c-0.546,-1.307 -1.59,-1.793 -3.13,-1.46c-0.62,0.133 -0.713,-0.03 -0.28,-0.49c1.24,-1.3 1.324,-2.383 0.25,-3.25c-1.06,-0.86 -1.616,-1.32 -1.67,-1.38c-0.96,-0.973 -2.01,-1.84 -3.15,-2.6c-0.286,-0.193 -0.433,-0.117 -0.44,0.23c-0.093,3.267 0.687,6.243 2.34,8.93c0.9,1.48 1.54,2.623 1.92,3.43c0.687,1.453 1.337,2.6 1.95,3.44c1.267,1.747 2.454,1.797 3.56,0.15Zm-1.52,-22.32c-0.673,0.387 -0.936,0.993 -0.79,1.82c0.06,0.3 0.26,0.57 0.56,0.72c1.58,0.807 2.414,0.33 2.5,-1.43c0.01,-0.26 0.13,-0.56 0.35,-0.85c0.354,-0.473 0.377,-1.077 0.07,-1.81c-0.11,-0.27 -0.41,-0.39 -0.68,-0.28c-0.666,0.28 -1.126,0.663 -1.38,1.15c-0.16,0.3 -0.38,0.54 -0.63,0.68Z" style="fill:#19612b;fill-rule:nonzero;"/><path d="M27.374,64.444c0.334,0.353 0.737,0.507 1.21,0.46c0.594,0.607 1.17,0.753 1.73,0.44c2.094,-1.18 4.094,-1.39 6,-0.63c1.627,0.653 4.06,0.97 7.3,0.95c0.24,-0.007 0.25,-0.047 0.03,-0.12c-0.48,-0.173 -0.733,-0.49 -0.76,-0.95c-0.02,-0.453 -0.08,-0.767 -0.18,-0.94c-0.72,-1.3 -1.166,-1.403 -1.34,-0.31c-0.05,0.29 -0.28,0.51 -0.55,0.5l-6.95,-0.16c-0.33,-0.01 -0.6,-0.22 -0.65,-0.5c-0.12,-0.727 0.4,-1.28 1.56,-1.66c0.24,-0.08 0.37,-0.34 0.28,-0.58c-0.393,-1.073 -0.306,-2.037 0.26,-2.89c0.18,-0.26 0.5,-0.38 0.79,-0.28c0.96,0.32 1.3,1.03 1.02,2.13c-0.266,1.04 -0.11,1.497 0.47,1.37c0.27,-0.06 0.51,-0.32 0.61,-0.67c0.794,-2.567 1.39,-2.527 1.79,0.12c0.04,0.3 0.27,0.54 0.56,0.59l8.57,1.55c0.167,0.053 0.334,0.053 0.5,-0c0.434,0.187 0.817,0.153 1.15,-0.1c0.38,-0.28 0.71,-0.47 0.84,-0.46l3.45,0.04c0.8,0.01 1.47,-0.51 1.56,-1.19l1.41,-11.38c0.02,-0.14 -0.01,-0.27 -0.08,-0.34c-0.086,-0.087 -0.173,-0.06 -0.26,0.08c-0.046,0.073 -0.073,0.17 -0.08,0.29c-0.226,4.347 -1.453,7.9 -3.68,10.66c-1.233,1.527 -2.323,1.773 -3.27,0.74c-0.566,-0.627 -0.846,-1.443 -0.84,-2.45c0.02,-1.833 0.774,-3.38 2.26,-4.64c2.087,-1.78 3.35,-4.017 3.79,-6.71l1.59,-1.02c0.31,-0.2 0.5,-0.45 0.51,-0.67c0.06,-1.353 -0.38,-1.657 -1.32,-0.91c-0.346,0.273 -0.573,0.603 -0.68,0.99c-0.146,0.513 -0.18,1.05 -0.1,1.61l-1.98,3.58c-0.68,1.233 -1.306,1.143 -1.88,-0.27c-0.66,-1.627 -1.63,-2.197 -2.91,-1.71c-3.246,1.233 -6.43,2.17 -9.55,2.81c-0.54,0.11 -0.97,0.52 -1.11,1.06c-0.473,1.88 -0.99,2.47 -1.55,1.77c-0.693,-0.86 -0.563,-1.79 0.39,-2.79c0.34,-0.36 0.17,-0.94 -0.31,-1.06c-0.873,-0.22 -1.736,-0.02 -2.59,0.6c-0.2,0.15 -0.22,0.44 -0.04,0.61c0.88,0.86 0.944,2.057 0.19,3.59c-0.18,0.35 -0.64,0.45 -0.93,0.19c-1.133,-0.993 -1.416,-2.283 -0.85,-3.87c0.9,-2.5 0.44,-3.237 -1.38,-2.21c-0.25,0.15 -0.39,0.45 -0.35,0.76c0.18,1.193 0.02,2.333 -0.48,3.42c-0.12,0.25 -0.43,0.34 -0.66,0.19c-2.38,-1.567 -2.31,-2.877 0.21,-3.93c0.327,-0.133 0.357,-0.3 0.09,-0.5c-1.146,-0.847 -2.226,-0.44 -3.24,1.22c-0.673,1.107 -1.536,1.28 -2.59,0.52c-2.466,-1.793 -3.466,-4.313 -3,-7.56c0.04,-0.3 -0.06,-0.6 -0.28,-0.81c-1.84,-1.753 -2.596,-3.883 -2.27,-6.39c0.014,-0.12 0.107,-0.42 0.28,-0.9c0.154,-0.433 0.084,-0.773 -0.21,-1.02c-0.333,-0.273 -0.523,-0.193 -0.57,0.24l-0.64,5.71l-0.54,0.71c-1.106,1.647 -2.293,1.597 -3.56,-0.15c-0.613,-0.84 -1.263,-1.987 -1.95,-3.44c-0.38,-0.807 -1.02,-1.95 -1.92,-3.43c-1.653,-2.687 -2.433,-5.663 -2.34,-8.93c0.007,-0.347 0.154,-0.423 0.44,-0.23c1.14,0.76 2.19,1.627 3.15,2.6c0.054,0.06 0.61,0.52 1.67,1.38c1.074,0.867 0.99,1.95 -0.25,3.25c-0.433,0.46 -0.34,0.623 0.28,0.49c1.54,-0.333 2.584,0.153 3.13,1.46c0.12,0.293 0.194,0.287 0.22,-0.02c0.18,-2.14 -0.463,-3.683 -1.93,-4.63c-4.286,-2.753 -7.393,-6.883 -9.32,-12.39c-0.2,-0.587 -0.036,-0.72 0.49,-0.4c3.98,2.38 7.424,4.643 10.33,6.79c0.98,0.727 1.67,1.397 2.07,2.01c0.167,0.247 0.27,0.223 0.31,-0.07c2.227,-15.367 11.28,-21.817 27.16,-19.35c6.294,0.98 10.79,4.35 13.49,10.11c1.48,3.16 2.26,6.49 2.34,9.99c0.02,0.607 0.404,0.09 1.15,-1.55c0.18,-0.39 0.45,-0.72 0.79,-0.96c3.174,-2.247 5.944,-4.14 8.31,-5.68c0.92,-0.593 1.794,-0.923 2.62,-0.99c0.347,-0.027 0.444,0.117 0.29,0.43c-0.5,0.993 -1.003,1.983 -1.51,2.97c-0.486,0.927 -1.133,1.813 -1.94,2.66c-2.54,2.64 -5.05,5.62 -7.53,8.94c-0.34,0.46 -0.51,1.02 -0.5,1.59c0.027,1.167 0.227,1.34 0.6,0.52c0.5,-1.113 1.344,-1.693 2.53,-1.74c0.37,-0.01 0.61,-0.4 0.45,-0.74c-0.413,-0.853 -0.373,-1.607 0.12,-2.26c0.514,-0.673 0.794,-1.05 0.84,-1.13c0.947,-1.587 2.264,-2.77 3.95,-3.55c0.21,-0.1 0.46,0.06 0.46,0.3c-0.053,3.347 -1.01,6.433 -2.87,9.26c-1,1.52 -1.84,3.123 -2.52,4.81c-0.866,2.133 -2.39,2.963 -4.57,2.49c-0.36,-0.07 -0.64,-0.28 -0.74,-0.54c-0.14,-0.333 -0.096,-0.673 0.13,-1.02c0.24,-0.36 0.36,-0.68 0.33,-0.87l-0.79,-5.71c-0.073,-0.513 -0.163,-0.51 -0.27,0.01c-0.206,1.033 -0.253,2.067 -0.14,3.1c0.14,1.28 0.124,2.213 -0.05,2.8c-0.22,0.76 -0.533,1.487 -0.94,2.18c-0.15,0.26 -0.13,0.57 0.05,0.81c0.614,0.813 1,1.713 1.16,2.7c0.234,1.4 0.357,2.123 0.37,2.17c1.54,6.567 -0.116,11.79 -4.97,15.67c-1.88,1.5 -3.053,2.473 -3.52,2.92c-0.746,0.7 -1.503,1.393 -2.27,2.08c-0.88,0.793 -1.71,1.37 -2.49,1.73c-3.133,1.44 -6.456,1.543 -9.97,0.31c-0.31,-0.11 -0.66,-0.14 -0.99,-0.08c-2.68,0.507 -4.833,-0.007 -6.46,-1.54c-0.826,-0.78 -1.26,-1.187 -1.3,-1.22c-1.753,-1.44 -3.506,-2.873 -5.26,-4.3c-1.726,-1.4 -2.95,-2.77 -3.67,-4.11c-0.886,-1.66 -1.51,-3.437 -1.87,-5.33c-0.053,-0.287 -0.04,-0.537 0.04,-0.75c0.24,-0.58 0.59,-0.45 1.05,0.39c1.674,3.02 3.46,5.973 5.36,8.86c0.32,0.487 0.787,0.913 1.4,1.28c0.554,0.333 1.08,0.71 1.58,1.13Zm4.28,-38.79c-0.746,-1.073 -1.573,-1.52 -2.48,-1.34c-0.27,0.05 -0.4,0.37 -0.23,0.58c0.46,0.553 1.277,0.937 2.45,1.15c0.407,0.073 0.494,-0.057 0.26,-0.39Zm13.88,1.16c1.78,0.267 2.9,-0.103 3.36,-1.11c0.247,-0.54 0.124,-0.8 -0.37,-0.78c-0.186,0.007 -0.393,0.09 -0.62,0.25c-0.713,0.52 -1.516,0.947 -2.41,1.28c-0.446,0.167 -0.433,0.287 0.04,0.36Zm-23.99,4.56c-0.45,-0.13 -0.71,-0.6 -0.6,-1.05c0.674,-2.633 0.62,-3.237 -0.16,-1.81c-1.113,2.027 -0.806,3.713 0.92,5.06c1.394,1.087 2.537,2.387 3.43,3.9c0.13,0.22 0.15,0.55 0.06,0.89c-0.18,0.667 0.11,1.2 0.87,1.6c2.027,1.073 3.684,0.977 4.97,-0.29c0.394,-0.393 0.7,-0.65 0.92,-0.77c1.04,-0.567 1.454,-0.333 1.24,0.7c-0.06,0.29 -0.25,0.57 -0.53,0.79c-1.86,1.433 -3.463,3.107 -4.81,5.02c-0.093,0.133 -0.326,0.38 -0.7,0.74c-0.353,0.34 -0.453,0.697 -0.3,1.07c0.09,0.22 0.4,0.25 0.62,0.06l2.74,-2.35c0.21,-0.17 0.54,-0.17 0.83,-0c1.234,0.72 2.507,0.803 3.82,0.25c0.26,-0.11 0.57,-0.04 0.76,0.17c0.494,0.567 1.07,1 1.73,1.3c0.314,0.147 0.44,0.047 0.38,-0.3c-0.546,-3.18 -2.033,-3.853 -4.46,-2.02c-0.26,0.19 -0.59,0.19 -0.78,-0.01c-0.84,-0.887 -0.416,-2.02 1.27,-3.4c0.45,-0.37 1.08,-0.45 1.6,-0.19c0.974,0.473 1.424,0.107 1.35,-1.1c-0.04,-0.66 0.007,-1.137 0.14,-1.43c0.354,-0.807 0.937,-1.077 1.75,-0.81c0.33,0.11 0.65,0.12 0.92,0.03c2.394,-0.767 3.084,0.087 2.07,2.56c-0.16,0.39 0.16,0.81 0.58,0.76c2.614,-0.307 3.917,0.647 3.91,2.86c0,0.34 -0.13,0.65 -0.35,0.87c-0.673,0.653 -1.233,0.397 -1.68,-0.77c-0.25,-0.66 -1.09,-0.86 -1.61,-0.38c-0.953,0.88 -1.73,1.987 -2.33,3.32c-0.4,0.893 -0.326,1.177 0.22,0.85c0.14,-0.087 0.257,-0.223 0.35,-0.41c0.72,-1.413 1.78,-1.917 3.18,-1.51c0.36,0.11 0.76,0.1 1.12,-0.02c2.74,-0.94 4.677,-0.793 5.81,0.44c0.587,0.633 0.857,0.707 0.81,0.22c-0.02,-0.153 -0.086,-0.303 -0.2,-0.45c-1.493,-1.987 -3.256,-3.697 -5.29,-5.13c-0.34,-0.24 -0.576,-0.48 -0.71,-0.72c-0.386,-0.713 -0.116,-1.05 0.81,-1.01c0.327,0.013 0.687,0.15 1.08,0.41c1.587,1.047 3.274,1.207 5.06,0.48c0.28,-0.11 0.51,-0.36 0.63,-0.67c0.98,-2.553 2.38,-4.44 4.2,-5.66c2.234,-1.487 2.624,-3.19 1.17,-5.11c-0.56,-0.74 -0.77,-0.653 -0.63,0.26c0.327,2.213 -0.35,3.51 -2.03,3.89c-0.29,0.07 -0.61,-0.03 -0.86,-0.26c-1.18,-1.107 -2.353,-1.313 -3.52,-0.62c-0.406,0.24 -1.056,1.043 -1.95,2.41c-0.953,1.44 -2.233,2.553 -3.84,3.34c-0.3,0.15 -0.64,0.13 -0.9,-0.04c-1.646,-1.047 -2.273,-2.777 -1.88,-5.19c0.067,-0.393 -0.016,-0.423 -0.25,-0.09l-2.81,3.97c-0.14,0.2 -0.44,0.18 -0.57,-0.04c-0.693,-1.16 -1.236,-2.39 -1.63,-3.69c-0.086,-0.287 -0.19,-0.533 -0.31,-0.74c-0.873,-1.507 -1.15,-1.17 -0.83,1.01c0.3,2.033 -0.843,3.323 -3.43,3.87c-0.53,0.11 -1.06,-0.18 -1.25,-0.69c-1.14,-3.007 -3.32,-4.36 -6.54,-4.06c-1.26,0.12 -2.453,0.017 -3.58,-0.31Zm23.78,32.8c-0.886,-0.087 -0.903,-0.007 -0.05,0.24c1.614,0.467 3.544,0.637 5.79,0.51c0.207,-0.013 0.4,-0.07 0.58,-0.17c1.594,-0.913 1.35,-1.133 -0.73,-0.66c-1.306,0.3 -3.17,0.327 -5.59,0.08Z" style="fill:#fff;fill-rule:nonzero;"/><path d="M16.234,18.364c0.254,-0.487 0.714,-0.87 1.38,-1.15c0.27,-0.11 0.57,0.01 0.68,0.28c0.307,0.733 0.284,1.337 -0.07,1.81c-0.22,0.29 -0.34,0.59 -0.35,0.85c-0.086,1.76 -0.92,2.237 -2.5,1.43c-0.3,-0.15 -0.5,-0.42 -0.56,-0.72c-0.146,-0.827 0.117,-1.433 0.79,-1.82c0.25,-0.14 0.47,-0.38 0.63,-0.68Z" style="fill:#19612b;fill-rule:nonzero;"/><path d="M31.654,25.654c0.234,0.333 0.147,0.463 -0.26,0.39c-1.173,-0.213 -1.99,-0.597 -2.45,-1.15c-0.17,-0.21 -0.04,-0.53 0.23,-0.58c0.907,-0.18 1.734,0.267 2.48,1.34Z" style="fill:#19612b;fill-rule:nonzero;"/><path d="M45.534,26.814c-0.473,-0.073 -0.486,-0.193 -0.04,-0.36c0.894,-0.333 1.697,-0.76 2.41,-1.28c0.227,-0.16 0.434,-0.243 0.62,-0.25c0.494,-0.02 0.617,0.24 0.37,0.78c-0.46,1.007 -1.58,1.377 -3.36,1.11Z" style="fill:#19612b;fill-rule:nonzero;"/><path d="M21.544,31.374c1.127,0.327 2.32,0.43 3.58,0.31c3.22,-0.3 5.4,1.053 6.54,4.06c0.19,0.51 0.72,0.8 1.25,0.69c2.587,-0.547 3.73,-1.837 3.43,-3.87c-0.32,-2.18 -0.043,-2.517 0.83,-1.01c0.12,0.207 0.224,0.453 0.31,0.74c0.394,1.3 0.937,2.53 1.63,3.69c0.13,0.22 0.43,0.24 0.57,0.04l2.81,-3.97c0.234,-0.333 0.317,-0.303 0.25,0.09c-0.393,2.413 0.234,4.143 1.88,5.19c0.26,0.17 0.6,0.19 0.9,0.04c1.607,-0.787 2.887,-1.9 3.84,-3.34c0.894,-1.367 1.544,-2.17 1.95,-2.41c1.167,-0.693 2.34,-0.487 3.52,0.62c0.25,0.23 0.57,0.33 0.86,0.26c1.68,-0.38 2.357,-1.677 2.03,-3.89c-0.14,-0.913 0.07,-1 0.63,-0.26c1.454,1.92 1.064,3.623 -1.17,5.11c-1.82,1.22 -3.22,3.107 -4.2,5.66c-0.12,0.31 -0.35,0.56 -0.63,0.67c-1.786,0.727 -3.473,0.567 -5.06,-0.48c-0.393,-0.26 -0.753,-0.397 -1.08,-0.41c-0.926,-0.04 -1.196,0.297 -0.81,1.01c0.134,0.24 0.37,0.48 0.71,0.72c2.034,1.433 3.797,3.143 5.29,5.13c0.114,0.147 0.18,0.297 0.2,0.45c0.047,0.487 -0.223,0.413 -0.81,-0.22c-1.133,-1.233 -3.07,-1.38 -5.81,-0.44c-0.36,0.12 -0.76,0.13 -1.12,0.02c-1.4,-0.407 -2.46,0.097 -3.18,1.51c-0.093,0.187 -0.21,0.323 -0.35,0.41c-0.546,0.327 -0.62,0.043 -0.22,-0.85c0.6,-1.333 1.377,-2.44 2.33,-3.32c0.52,-0.48 1.36,-0.28 1.61,0.38c0.447,1.167 1.007,1.423 1.68,0.77c0.22,-0.22 0.35,-0.53 0.35,-0.87c0.007,-2.213 -1.296,-3.167 -3.91,-2.86c-0.42,0.05 -0.74,-0.37 -0.58,-0.76c1.014,-2.473 0.324,-3.327 -2.07,-2.56c-0.27,0.09 -0.59,0.08 -0.92,-0.03c-0.813,-0.267 -1.396,0.003 -1.75,0.81c-0.133,0.293 -0.18,0.77 -0.14,1.43c0.074,1.207 -0.376,1.573 -1.35,1.1c-0.52,-0.26 -1.15,-0.18 -1.6,0.19c-1.686,1.38 -2.11,2.513 -1.27,3.4c0.19,0.2 0.52,0.2 0.78,0.01c2.427,-1.833 3.914,-1.16 4.46,2.02c0.06,0.347 -0.066,0.447 -0.38,0.3c-0.66,-0.3 -1.236,-0.733 -1.73,-1.3c-0.19,-0.21 -0.5,-0.28 -0.76,-0.17c-1.313,0.553 -2.586,0.47 -3.82,-0.25c-0.29,-0.17 -0.62,-0.17 -0.83,-0l-2.74,2.35c-0.22,0.19 -0.53,0.16 -0.62,-0.06c-0.153,-0.373 -0.053,-0.73 0.3,-1.07c0.374,-0.36 0.607,-0.607 0.7,-0.74c1.347,-1.913 2.95,-3.587 4.81,-5.02c0.28,-0.22 0.47,-0.5 0.53,-0.79c0.214,-1.033 -0.2,-1.267 -1.24,-0.7c-0.22,0.12 -0.526,0.377 -0.92,0.77c-1.286,1.267 -2.943,1.363 -4.97,0.29c-0.76,-0.4 -1.05,-0.933 -0.87,-1.6c0.09,-0.34 0.07,-0.67 -0.06,-0.89c-0.893,-1.513 -2.036,-2.813 -3.43,-3.9c-1.726,-1.347 -2.033,-3.033 -0.92,-5.06c0.78,-1.427 0.834,-0.823 0.16,1.81c-0.11,0.45 0.15,0.92 0.6,1.05Zm31.16,2.21c-3.233,0.813 -4.023,2.453 -2.37,4.92c0.16,0.23 0.47,0.27 0.68,0.1c1.414,-1.133 2.324,-2.453 2.73,-3.96c0.17,-0.63 -0.4,-1.22 -1.04,-1.06Zm-24.08,3.61l0,0.67l-1.98,0.48c-0.426,0.107 -0.443,0.247 -0.05,0.42c1.847,0.813 2.94,0.54 3.28,-0.82c0.4,-0.36 0.4,-0.72 0,-1.08c0.4,-2.327 -0.89,-3.373 -3.87,-3.14c-0.67,0.05 -1.13,0.68 -0.98,1.33c0.354,1.48 1.554,2.193 3.6,2.14Z" style="fill:#17301b;fill-rule:nonzero;"/><path d="M52.704,33.584c0.64,-0.16 1.21,0.43 1.04,1.06c-0.406,1.507 -1.316,2.827 -2.73,3.96c-0.21,0.17 -0.52,0.13 -0.68,-0.1c-1.653,-2.467 -0.863,-4.107 2.37,-4.92Z" style="fill:#fff;fill-rule:nonzero;"/><path d="M29.874,36.864l-1.25,0.33c-2.046,0.053 -3.246,-0.66 -3.6,-2.14c-0.15,-0.65 0.31,-1.28 0.98,-1.33c2.98,-0.233 4.27,0.813 3.87,3.14Z" style="fill:#fff;fill-rule:nonzero;"/><path d="M55.874,47.404c-0.44,2.693 -1.703,4.93 -3.79,6.71c-1.486,1.26 -2.24,2.807 -2.26,4.64c-0.006,1.007 0.274,1.823 0.84,2.45c0.947,1.033 2.037,0.787 3.27,-0.74c2.227,-2.76 3.454,-6.313 3.68,-10.66c0.007,-0.12 0.034,-0.217 0.08,-0.29c0.087,-0.14 0.174,-0.167 0.26,-0.08c0.07,0.07 0.1,0.2 0.08,0.34l-1.41,11.38c-0.09,0.68 -0.76,1.2 -1.56,1.19l-3.45,-0.04c-0.13,-0.01 -0.46,0.18 -0.84,0.46c-0.333,0.253 -0.716,0.287 -1.15,0.1l-0.35,-2.98c-0.053,-0.433 -0.053,-0.75 0,-0.95c0.267,-1.06 -0.05,-1.837 -0.95,-2.33c-0.29,-0.16 -0.63,-0.16 -0.92,-0c-0.66,0.36 -0.9,0.94 -0.72,1.74c0.147,0.653 0.114,1.173 -0.1,1.56l-1.48,-2.3c-0.16,-0.25 -0.46,-0.34 -0.65,-0.19c-0.44,0.353 -0.66,0.85 -0.66,1.49c-0.013,2.813 1,3.397 3.04,1.75l2.29,2.21l-8.57,-1.55c-0.29,-0.05 -0.52,-0.29 -0.56,-0.59c-0.4,-2.647 -0.996,-2.687 -1.79,-0.12c-0.1,0.35 -0.34,0.61 -0.61,0.67c-0.58,0.127 -0.736,-0.33 -0.47,-1.37c0.28,-1.1 -0.06,-1.81 -1.02,-2.13c-0.29,-0.1 -0.61,0.02 -0.79,0.28c-0.566,0.853 -0.653,1.817 -0.26,2.89c0.09,0.24 -0.04,0.5 -0.28,0.58c-1.16,0.38 -1.68,0.933 -1.56,1.66c0.05,0.28 0.32,0.49 0.65,0.5l6.95,0.16c0.27,0.01 0.5,-0.21 0.55,-0.5c0.174,-1.093 0.62,-0.99 1.34,0.31c0.1,0.173 0.16,0.487 0.18,0.94c0.027,0.46 0.28,0.777 0.76,0.95c0.22,0.073 0.21,0.113 -0.03,0.12c-3.24,0.02 -5.673,-0.297 -7.3,-0.95c-1.906,-0.76 -3.906,-0.55 -6,0.63c-0.56,0.313 -1.136,0.167 -1.73,-0.44c0.3,-0.46 1.254,-0.743 2.86,-0.85c0.37,-0.03 0.68,-0.3 0.76,-0.66c0.34,-1.48 0.644,-2.337 0.91,-2.57c0.61,-0.53 0.79,-1.41 0.45,-2.14c-0.9,-1.933 -1.633,-2.647 -2.2,-2.14c-0.34,0.307 -0.463,0.92 -0.37,1.84c0.114,1.167 0.147,2.34 0.1,3.52c-0.04,0.847 -0.446,1.333 -1.22,1.46c-0.166,-0.207 -0.263,-0.443 -0.29,-0.71c0.594,-1.253 0.687,-3.113 0.28,-5.58c-0.14,-0.83 -0.67,-1.55 -1.43,-1.92c-2.706,-1.307 -4.88,-3.253 -6.52,-5.84c-1.373,-2.167 -2.65,-4.387 -3.83,-6.66c0.374,-0.78 0.234,-1.447 -0.42,-2l0.64,-5.71c0.047,-0.433 0.237,-0.513 0.57,-0.24c0.294,0.247 0.364,0.587 0.21,1.02c-0.173,0.48 -0.266,0.78 -0.28,0.9c-0.326,2.507 0.43,4.637 2.27,6.39c0.22,0.21 0.32,0.51 0.28,0.81c-0.466,3.247 0.534,5.767 3,7.56c1.054,0.76 1.917,0.587 2.59,-0.52c1.014,-1.66 2.094,-2.067 3.24,-1.22c0.267,0.2 0.237,0.367 -0.09,0.5c-2.52,1.053 -2.59,2.363 -0.21,3.93c0.23,0.15 0.54,0.06 0.66,-0.19c0.5,-1.087 0.66,-2.227 0.48,-3.42c-0.04,-0.31 0.1,-0.61 0.35,-0.76c1.82,-1.027 2.28,-0.29 1.38,2.21c-0.566,1.587 -0.283,2.877 0.85,3.87c0.29,0.26 0.75,0.16 0.93,-0.19c0.754,-1.533 0.69,-2.73 -0.19,-3.59c-0.18,-0.17 -0.16,-0.46 0.04,-0.61c0.854,-0.62 1.717,-0.82 2.59,-0.6c0.48,0.12 0.65,0.7 0.31,1.06c-0.953,1 -1.083,1.93 -0.39,2.79c0.56,0.7 1.077,0.11 1.55,-1.77c0.14,-0.54 0.57,-0.95 1.11,-1.06c3.12,-0.64 6.304,-1.577 9.55,-2.81c1.28,-0.487 2.25,0.083 2.91,1.71c0.574,1.413 1.2,1.503 1.88,0.27l1.98,-3.58Zm-5.87,3.93c0.17,-0.25 -0.01,-0.59 -0.33,-0.63c-2.513,-0.293 -3.53,0.863 -3.05,3.47c0.234,1.233 0.674,1.35 1.32,0.35l2.06,-3.19Zm-5.67,0.43c-0.986,-0.133 -1.34,0.543 -1.06,2.03c0.13,0.69 0.95,0.99 1.49,0.55c0.474,-0.387 0.814,-0.973 1.02,-1.76c0.07,-0.28 -0.06,-0.56 -0.29,-0.65c-0.133,-0.053 -0.276,-0.087 -0.43,-0.1c-0.38,-0.033 -0.623,-0.057 -0.73,-0.07Zm-3.68,4.08c0.55,0.14 1.18,-0.5 1.41,-1.413c0.23,-0.917 -0.04,-1.767 -0.589,-1.907c-0.551,-0.14 -1.181,0.5 -1.41,1.413c-0.231,0.917 0.039,1.767 0.589,1.907Zm1.45,3.46c-1.006,-0.407 -1.29,0.093 -0.85,1.5c0.08,0.27 0.37,0.42 0.64,0.35c1.88,-0.54 1.95,-1.157 0.21,-1.85Z" style="fill:#17301b;fill-rule:nonzero;"/><path d="M29.874,36.864c0.4,0.36 0.4,0.72 0,1.08l-1.25,-0.08l0,-0.67l1.25,-0.33Z" style="fill:#19612b;fill-rule:nonzero;"/><path d="M28.624,37.864l1.25,0.08c-0.34,1.36 -1.433,1.633 -3.28,0.82c-0.393,-0.173 -0.376,-0.313 0.05,-0.42l1.98,-0.48Z" style="fill:#fff;fill-rule:nonzero;"/><path d="M17.664,40.654c0.654,0.553 0.794,1.22 0.42,2l-0.71,-0.04c0.487,-0.58 0.404,-0.997 -0.25,-1.25l0.54,-0.71Z" style="fill:#d4caaf;fill-rule:nonzero;"/><path d="M17.374,42.614l0.71,0.04c1.18,2.273 2.457,4.493 3.83,6.66c1.64,2.587 3.814,4.533 6.52,5.84c0.76,0.37 1.29,1.09 1.43,1.92c0.407,2.467 0.314,4.327 -0.28,5.58c-1.106,-0.427 -2.203,-0.873 -3.29,-1.34c-1.1,-0.48 -1.99,-1.19 -2.67,-2.13c-3.386,-4.653 -5.823,-9.773 -7.31,-15.36c-0.1,-0.36 0,-0.71 0.23,-0.82l0.83,-0.39Z" style="fill:#fff;fill-rule:nonzero;"/><path d="M55.874,47.404c-0.08,-0.56 -0.046,-1.097 0.1,-1.61c0.107,-0.387 0.334,-0.717 0.68,-0.99c0.94,-0.747 1.38,-0.443 1.32,0.91c-0.01,0.22 -0.2,0.47 -0.51,0.67l-1.59,1.02Z" style="fill:#19612b;fill-rule:nonzero;"/><path d="M50.004,51.334l-2.06,3.19c-0.646,1 -1.086,0.883 -1.32,-0.35c-0.48,-2.607 0.537,-3.763 3.05,-3.47c0.32,0.04 0.5,0.38 0.33,0.63Z" style="fill:#fff;fill-rule:nonzero;"/><path d="M45.064,51.834c0.154,0.013 0.297,0.047 0.43,0.1c0.23,0.09 0.36,0.37 0.29,0.65c-0.206,0.787 -0.546,1.373 -1.02,1.76c-0.54,0.44 -1.36,0.14 -1.49,-0.55c-0.28,-1.487 0.074,-2.163 1.06,-2.03c0.107,0.013 0.35,0.037 0.73,0.07Z" style="fill:#fff;fill-rule:nonzero;"/><path d="M42.064,54.431c-0.227,0.917 -0.859,1.549 -1.41,1.413c-0.552,-0.137 -0.816,-0.991 -0.59,-1.907c0.227,-0.917 0.859,-1.55 1.411,-1.413c0.552,0.137 0.816,0.991 0.589,1.907Z" style="fill:#fff;"/><path d="M28.584,64.904c-0.473,0.047 -0.876,-0.107 -1.21,-0.46c0.72,-0.64 1.554,-1 2.5,-1.08c0.774,-0.127 1.18,-0.613 1.22,-1.46c0.047,-1.18 0.014,-2.353 -0.1,-3.52c-0.093,-0.92 0.03,-1.533 0.37,-1.84c0.567,-0.507 1.3,0.207 2.2,2.14c0.34,0.73 0.16,1.61 -0.45,2.14c-0.266,0.233 -0.57,1.09 -0.91,2.57c-0.08,0.36 -0.39,0.63 -0.76,0.66c-1.606,0.107 -2.56,0.39 -2.86,0.85Z" style="fill:#fff;fill-rule:nonzero;"/><path d="M49.624,62.864c-0.166,0.053 -0.333,0.053 -0.5,-0l-2.29,-2.21c0.054,-0.293 -0.03,-0.543 -0.25,-0.75c0.214,-0.387 0.247,-0.907 0.1,-1.56c-0.18,-0.8 0.06,-1.38 0.72,-1.74c0.29,-0.16 0.63,-0.16 0.92,-0c0.9,0.493 1.217,1.27 0.95,2.33c-0.053,0.2 -0.053,0.517 0,0.95l0.35,2.98Z" style="fill:#fff;fill-rule:nonzero;"/><path d="M46.584,59.904c0.22,0.207 0.304,0.457 0.25,0.75c-2.04,1.647 -3.053,1.063 -3.04,-1.75c0,-0.64 0.22,-1.137 0.66,-1.49c0.19,-0.15 0.49,-0.06 0.65,0.19l1.48,2.3Z" style="fill:#fff;fill-rule:nonzero;"/><path d="M42.104,59.304c1.74,0.693 1.67,1.31 -0.21,1.85c-0.27,0.07 -0.56,-0.08 -0.64,-0.35c-0.44,-1.407 -0.156,-1.907 0.85,-1.5Z" style="fill:#fff;fill-rule:nonzero;"/><path d="M45.324,64.174c2.42,0.247 4.284,0.22 5.59,-0.08c2.08,-0.473 2.324,-0.253 0.73,0.66c-0.18,0.1 -0.373,0.157 -0.58,0.17c-2.246,0.127 -4.176,-0.043 -5.79,-0.51c-0.853,-0.247 -0.836,-0.327 0.05,-0.24Z" style="fill:#19612b;fill-rule:nonzero;"/></svg>