<?xml version="1.0" encoding="UTF-8" standalone="no"?>
<!DOCTYPE svg PUBLIC "-//W3C//DTD SVG 1.1//EN" "http://www.w3.org/Graphics/SVG/1.1/DTD/svg11.dtd">
<svg xmlns="http://www.w3.org/2000/svg" version="1.1" viewBox="0 0 158 76">
<g stroke-width="2.0" fill="none" stroke-linecap="butt">
<path stroke="#dbbdaf" vector-effect="non-scaling-stroke" d="
  M 157.06 0.00
  Q 156.08 0.33 155.96 1.25"
/>
<path stroke="#aa7471" vector-effect="non-scaling-stroke" d="
  M 155.96 1.25
  Q 136.24 0.47 129.31 0.56
  Q 100.06 0.96 81.75 0.75
  Q 71.52 0.63 65.50 0.96"
/>
<path stroke="#73615b" vector-effect="non-scaling-stroke" d="
  M 65.50 0.96
  Q 60.44 1.80 55.40 1.04
  Q 53.97 0.83 52.11 1.12
  Q 50.45 1.39 48.75 1.21"
/>
<path stroke="#aa7471" vector-effect="non-scaling-stroke" d="
  M 48.75 1.21
  Q 41.87 0.65 35.00 1.21
  Q 34.61 1.24 34.08 0.99
  Q 33.61 0.77 33.06 0.81
  Q 26.41 1.29 19.76 1.01
  Q 19.63 1.01 16.63 1.20
  Q 15.02 1.30 13.46 0.69
  C 13.15 0.57 12.82 0.55 12.52 0.62
  Q 10.07 1.21 9.25 1.00
  Q 7.20 0.48 5.43 1.48
  C 5.18 1.62 4.86 1.66 4.52 1.60
  L 2.25 1.21"
/>
<path stroke="#edded7" vector-effect="non-scaling-stroke" d="
  M 2.25 1.21
  Q 0.04 -0.95 0.00 2.94"
/>
<path stroke="#edded7" vector-effect="non-scaling-stroke" d="
  M 1.19 76.00
  Q 1.93 75.55 2.04 74.75"
/>
<path stroke="#aa7471" vector-effect="non-scaling-stroke" d="
  M 2.04 74.75
  Q 9.09 76.18 16.25 75.21"
/>
<path stroke="#836863" vector-effect="non-scaling-stroke" d="
  M 16.25 75.21
  L 33.25 75.21"
/>
<path stroke="#aa7471" vector-effect="non-scaling-stroke" d="
  M 33.25 75.21
  Q 40.92 75.35 58.25 75.25
  Q 64.90 75.21 95.08 75.47
  Q 97.59 75.49 102.41 75.33
  Q 106.08 75.20 109.75 75.28
  Q 117.82 75.44 120.74 75.39
  Q 137.90 75.08 155.07 75.31
  C 155.37 75.31 155.63 75.12 155.73 74.83
  Q 156.97 71.22 157.00 67.00
  Q 157.09 52.91 156.79 43.00"
/>
<path stroke="#73615b" vector-effect="non-scaling-stroke" d="
  M 156.79 43.00
  Q 157.14 34.67 156.95 26.35
  Q 156.86 22.42 156.91 14.66
  Q 156.95 8.80 156.50 2.96"
/>
<path stroke="#aa7471" vector-effect="non-scaling-stroke" d="
  M 156.50 2.96
  Q 156.45 2.03 155.96 1.25"
/>
<path stroke="#bc9599" vector-effect="non-scaling-stroke" d="
  M 2.25 1.21
  Q 1.32 2.76 1.40 4.46
  Q 1.54 7.64 1.54 7.68
  Q 0.81 16.20 0.93 24.73
  Q 1.11 38.15 1.04 41.77
  Q 0.74 57.89 1.25 72.25
  Q 1.29 73.43 2.04 74.75"
/>
<path stroke="#42181d" vector-effect="non-scaling-stroke" d="
  M 48.75 1.21
  Q 44.21 1.19 48.96 2.73
  C 49.23 2.82 49.38 3.11 49.29 3.38
  Q 48.30 6.32 45.97 8.14
  C 45.75 8.31 45.44 8.26 45.28 8.03
  Q 44.56 7.00 43.98 5.89
  Q 43.60 5.16 43.11 5.01
  Q 42.45 4.80 41.75 5.21"
/>
<path stroke="#bc9599" vector-effect="non-scaling-stroke" d="
  M 41.75 5.21
  Q 40.64 4.50 38.25 4.50
  Q 35.86 4.50 33.46 4.50
  Q 31.71 4.50 29.19 5.34
  Q 24.57 6.89 19.71 5.50"
/>
<path stroke="#521f25" vector-effect="non-scaling-stroke" d="
  M 19.71 5.50
  Q 20.66 0.83 16.31 1.56
  Q 15.56 1.69 15.23 2.11
  Q 14.80 2.67 14.93 3.46
  C 14.98 3.73 15.24 3.95 15.56 3.99
  Q 18.55 4.38 14.25 5.21"
/>
<path stroke="#bc9599" vector-effect="non-scaling-stroke" d="
  M 14.25 5.21
  L 9.31 5.57
  C 8.92 5.60 8.60 5.69 8.40 5.84
  Q 6.33 7.36 6.00 10.25
  Q 5.48 14.85 5.87 19.01
  Q 6.07 21.15 6.91 22.16
  Q 8.23 23.76 10.52 23.15
  C 10.80 23.07 11.13 23.12 11.42 23.28
  Q 12.30 23.78 12.98 23.19
  C 13.20 22.99 13.50 22.94 13.73 23.07
  Q 16.36 24.51 19.04 22.75"
/>
<path stroke="#8a4750" vector-effect="non-scaling-stroke" d="
  M 19.04 22.75
  Q 19.85 22.27 20.75 22.21"
/>
<path stroke="#bc9599" vector-effect="non-scaling-stroke" d="
  M 20.75 22.21
  Q 21.22 23.20 21.82 22.32
  Q 22.85 20.81 23.02 18.71
  Q 23.18 16.87 23.79 18.61
  Q 24.60 20.90 27.01 20.38
  C 27.28 20.32 27.54 20.11 27.71 19.79
  L 31.67 12.60
  C 31.87 12.23 31.97 11.90 31.94 11.69
  L 31.47 8.79
  Q 31.40 8.40 31.63 8.69
  Q 33.11 10.54 33.04 13.00"
/>
<path stroke="#bc9599" vector-effect="non-scaling-stroke" d="
  M 33.04 13.00
  Q 30.64 15.77 29.85 19.26
  C 29.78 19.58 29.84 19.91 30.01 20.17
  Q 31.39 22.34 31.89 19.73
  Q 32.34 17.34 33.10 19.55
  Q 33.50 20.74 34.21 21.86
  Q 34.82 22.80 35.24 21.76
  Q 35.53 21.06 36.25 20.96"
/>
<path stroke="#42181d" vector-effect="non-scaling-stroke" d="
  M 36.25 20.96
  L 41.94 21.24
  C 42.13 21.25 42.39 21.04 42.60 20.71
  L 43.25 19.71"
/>
<path stroke="#bc9599" vector-effect="non-scaling-stroke" d="
  M 43.25 19.71
  Q 44.24 20.04 45.25 19.96"
/>
<path stroke="#42181d" vector-effect="non-scaling-stroke" d="
  M 45.25 19.96
  Q 45.96 20.40 46.54 20.11
  C 46.76 20.00 46.81 19.68 46.64 19.41
  Q 46.05 18.43 46.50 17.44
  Q 46.72 16.96 46.92 17.47
  L 48.62 21.73
  C 48.73 22.03 48.98 22.26 49.28 22.35
  Q 50.61 22.77 52.01 22.58
  Q 52.46 22.52 52.95 22.69
  Q 54.53 23.24 54.25 21.04"
/>
<path stroke="#bc9599" vector-effect="non-scaling-stroke" d="
  M 54.25 21.04
  L 54.71 21.00"
/>
<path stroke="#42181d" vector-effect="non-scaling-stroke" d="
  M 54.71 21.00
  Q 55.98 22.91 56.06 25.18
  C 56.07 25.39 56.14 25.56 56.25 25.63
  Q 56.42 25.75 56.56 25.61
  Q 56.68 25.49 56.72 25.23
  Q 56.88 23.85 56.54 22.50"
/>
<path stroke="#bc9599" vector-effect="non-scaling-stroke" d="
  M 56.54 22.50
  L 57.21 22.50"
/>
<path stroke="#42181d" vector-effect="non-scaling-stroke" d="
  M 57.21 22.50
  Q 57.30 23.33 57.95 23.58
  C 58.14 23.66 58.44 23.53 58.70 23.26
  Q 59.22 22.71 60.04 23.94
  C 60.23 24.22 60.62 24.26 60.86 24.02
  Q 63.69 21.16 67.50 21.23
  C 67.77 21.24 68.06 21.39 68.30 21.65
  Q 68.96 22.39 69.46 21.63
  Q 69.58 21.45 70.11 20.93
  L 72.39 18.66
  C 72.60 18.45 72.91 18.42 73.07 18.59
  L 76.15 21.63
  C 76.40 21.87 76.70 22.01 76.99 22.04
  Q 79.11 22.21 81.25 22.24
  Q 81.37 22.25 83.74 22.41
  Q 88.28 22.71 91.00 18.79"
/>
<path stroke="#bc9599" vector-effect="non-scaling-stroke" d="
  M 91.00 18.79
  L 95.75 18.46"
/>
<path stroke="#42181d" vector-effect="non-scaling-stroke" d="
  M 95.75 18.46
  L 98.75 18.96"
/>
<path stroke="#bc9599" vector-effect="non-scaling-stroke" d="
  M 98.75 18.96
  Q 100.97 20.62 103.25 19.04"
/>
<path stroke="#42181d" vector-effect="non-scaling-stroke" d="
  M 103.25 19.04
  Q 102.94 20.35 104.25 20.54"
/>
<path stroke="#892f3a" vector-effect="non-scaling-stroke" d="
  M 104.25 20.54
  Q 101.88 22.11 103.70 24.08
  C 103.90 24.30 104.23 24.36 104.52 24.23
  Q 106.37 23.45 107.81 23.31
  Q 110.21 23.09 110.29 20.75"
/>
<path stroke="#42181d" vector-effect="non-scaling-stroke" d="
  M 110.29 20.75
  Q 111.06 21.75 111.29 20.25"
/>
<path stroke="#bc9599" vector-effect="non-scaling-stroke" d="
  M 111.29 20.25
  L 119.21 21.78
  C 119.56 21.85 119.89 21.77 120.04 21.57
  Q 120.64 20.81 120.54 19.75"
/>
<path stroke="#42181d" vector-effect="non-scaling-stroke" d="
  M 120.54 19.75
  L 120.96 19.25"
/>
<path stroke="#bc9599" vector-effect="non-scaling-stroke" d="
  M 120.96 19.25
  Q 120.79 20.58 122.23 19.62
  C 122.49 19.45 122.84 19.54 122.98 19.81
  Q 124.92 23.46 125.87 20.46
  Q 126.03 19.97 125.97 19.52
  Q 125.81 18.23 124.84 19.14
  C 124.66 19.31 124.38 19.26 124.30 19.05
  Q 123.95 17.98 124.94 17.66
  C 125.21 17.57 125.55 17.62 125.87 17.80
  Q 126.78 18.29 126.81 18.38
  C 127.14 19.24 127.97 19.80 128.89 19.78
  Q 133.55 19.70 135.02 17.19
  C 135.18 16.92 135.20 16.59 135.09 16.29
  Q 133.92 13.31 130.79 12.50"
/>
<path stroke="#521f25" vector-effect="non-scaling-stroke" d="
  M 130.79 12.50
  L 130.54 11.75"
/>
<path stroke="#bc9599" vector-effect="non-scaling-stroke" d="
  M 130.54 11.75
  Q 131.75 9.22 130.47 5.42
  C 130.29 4.88 129.79 4.50 129.22 4.48
  Q 124.90 4.30 120.18 4.26
  Q 119.62 4.25 117.40 3.81
  Q 115.97 3.52 114.49 3.96
  Q 110.91 5.02 107.24 4.57
  Q 106.94 4.53 106.29 4.68
  L 104.31 5.15
  C 104.08 5.21 103.74 5.13 103.38 4.93
  Q 100.82 3.54 98.23 4.72
  Q 97.45 5.07 97.16 5.70
  Q 96.85 6.40 96.96 7.25"
/>
<path stroke="#42181d" vector-effect="non-scaling-stroke" d="
  M 96.96 7.25
  Q 96.18 5.74 95.00 7.04"
/>
<path stroke="#bc9599" vector-effect="non-scaling-stroke" d="
  M 95.00 7.04
  Q 92.66 6.35 90.25 5.99
  Q 86.12 5.38 89.31 7.94
  Q 89.92 8.43 89.80 8.85
  C 89.73 9.09 89.37 9.17 89.04 9.02
  Q 87.02 8.09 84.75 8.28
  Q 82.83 8.44 81.52 7.17
  Q 81.11 6.77 80.71 6.66
  Q 79.00 6.20 77.25 6.75
  C 76.13 7.10 75.38 7.86 75.50 8.50
  Q 75.89 10.57 75.29 12.50"
/>
<path stroke="#42181d" vector-effect="non-scaling-stroke" d="
  M 75.29 12.50
  Q 75.78 10.58 74.49 10.12
  C 74.13 9.98 73.86 9.80 73.72 9.60
  L 70.77 5.17
  C 70.60 4.92 70.32 4.74 70.00 4.70
  Q 67.36 4.34 68.25 1.78
  C 68.36 1.49 68.21 1.18 67.96 1.16
  L 65.50 0.96"
/>
<path stroke="#42181d" vector-effect="non-scaling-stroke" d="
  M 156.50 2.96
  Q 154.02 2.58 154.37 3.90
  Q 154.53 4.51 154.55 4.64
  Q 154.84 6.70 155.27 8.74
  Q 155.78 11.08 155.46 12.81
  Q 155.12 14.65 154.44 16.94
  Q 153.79 19.13 152.54 20.25"
/>
<path stroke="#bc9599" vector-effect="non-scaling-stroke" d="
  M 152.54 20.25
  Q 152.22 18.79 152.95 17.66
  C 153.14 17.36 153.23 17.03 153.20 16.75
  Q 152.61 11.24 150.31 6.19
  Q 150.20 5.94 149.50 5.46"
/>
<path stroke="#8a4750" vector-effect="non-scaling-stroke" d="
  M 149.50 5.46
  Q 147.21 3.04 144.75 5.21"
/>
<path stroke="#bc9599" vector-effect="non-scaling-stroke" d="
  M 144.75 5.21
  Q 143.56 6.74 141.90 6.74
  Q 139.52 6.74 139.15 6.92
  Q 136.85 8.01 138.25 11.00
  Q 139.02 12.64 137.98 14.80
  C 137.83 15.11 137.82 15.45 137.95 15.71
  L 139.43 18.63
  C 139.59 18.95 139.66 19.27 139.63 19.55
  Q 139.17 23.92 140.00 27.50
  Q 140.74 30.71 140.12 33.51
  C 140.05 33.83 140.08 34.15 140.22 34.44
  Q 141.42 36.93 141.55 39.68
  C 141.56 39.98 141.74 40.25 142.02 40.39
  Q 143.96 41.39 142.58 43.13
  C 142.40 43.36 142.39 43.67 142.57 43.88
  Q 143.88 45.43 145.30 46.86
  Q 146.93 48.49 148.63 48.99
  Q 154.07 50.59 154.54 43.50"
/>
<path stroke="#42181d" vector-effect="non-scaling-stroke" d="
  M 154.54 43.50
  Q 155.17 42.86 155.40 42.00
  C 155.49 41.67 155.73 41.43 156.00 41.42
  Q 157.13 41.38 156.79 43.00"
/>
<path stroke="#521f25" vector-effect="non-scaling-stroke" d="
  M 33.25 75.21
  L 33.25 71.54"
/>
<path stroke="#bc9599" vector-effect="non-scaling-stroke" d="
  M 33.25 71.54
  Q 39.25 71.35 43.56 71.69
  Q 47.51 72.00 50.95 71.29
  C 51.25 71.23 51.52 71.05 51.72 70.78
  L 53.05 69.05
  Q 53.94 67.89 53.94 69.36
  Q 53.94 71.45 57.62 71.43
  Q 58.45 71.42 59.28 71.46
  Q 63.16 71.65 62.92 67.20
  Q 62.68 62.98 62.50 58.73
  C 62.47 58.02 62.09 57.37 61.49 56.98
  Q 58.38 54.99 54.32 55.52
  Q 47.79 56.38 41.30 55.51
  Q 37.51 55.00 35.20 55.44
  Q 32.60 55.94 29.19 56.94
  Q 26.33 57.77 25.79 60.25"
/>
<path stroke="#521f25" vector-effect="non-scaling-stroke" d="
  M 25.79 60.25
  Q 24.33 57.05 25.34 53.72
  C 25.41 53.51 25.65 53.28 25.98 53.11
  L 27.25 52.46"
/>
<path stroke="#bc9599" vector-effect="non-scaling-stroke" d="
  M 27.25 52.46
  Q 29.93 52.65 32.46 53.43
  Q 34.86 54.17 36.80 54.03
  Q 41.57 53.70 46.34 53.38
  Q 46.41 53.37 48.28 53.47
  Q 49.93 53.56 51.63 52.38
  C 52.44 51.81 53.41 51.51 54.41 51.50
  Q 58.04 51.48 61.20 53.07
  Q 63.19 54.07 66.01 53.30
  L 72.50 51.54"
/>
<path stroke="#42181d" vector-effect="non-scaling-stroke" d="
  M 72.50 51.54
  Q 72.61 53.93 74.25 51.79"
/>
<path stroke="#bc9599" vector-effect="non-scaling-stroke" d="
  M 74.25 51.79
  L 82.51 48.12
  C 82.90 47.94 83.10 47.50 83.01 47.06
  Q 82.25 43.46 84.20 40.42
  C 84.62 39.77 84.81 39.00 84.75 38.22
  L 83.96 28.25"
/>
<path stroke="#42181d" vector-effect="non-scaling-stroke" d="
  M 83.96 28.25
  Q 84.27 26.83 83.00 26.75
  Q 80.22 26.57 77.27 25.95
  C 76.97 25.88 76.66 26.03 76.51 26.30
  Q 75.90 27.43 74.90 27.97
  C 74.60 28.14 74.41 28.41 74.39 28.68
  Q 74.33 29.83 74.75 30.50
  Q 76.08 32.59 74.09 32.03
  C 73.38 31.82 72.75 31.39 72.31 30.79
  Q 70.80 28.74 70.00 29.29"
/>
<path stroke="#bc9599" vector-effect="non-scaling-stroke" d="
  M 70.00 29.29
  L 67.71 28.46
  C 67.47 28.38 67.34 28.09 67.40 27.77
  Q 67.56 26.88 66.54 26.75"
/>
<path stroke="#42181d" vector-effect="non-scaling-stroke" d="
  M 66.54 26.75
  L 66.51 26.53
  C 66.49 26.41 66.37 26.33 66.22 26.32
  L 53.04 26.19
  C 52.75 26.18 52.49 25.96 52.42 25.65
  Q 52.23 24.80 51.95 24.63
  Q 51.49 24.36 51.58 25.25
  Q 51.73 26.90 50.28 26.58
  C 50.01 26.52 49.82 26.26 49.83 25.96
  Q 49.92 23.22 48.87 26.20
  C 48.79 26.44 48.49 26.54 48.28 26.39
  Q 46.31 24.96 44.75 25.71"
/>
<path stroke="#bc9599" vector-effect="non-scaling-stroke" d="
  M 44.75 25.71
  L 44.29 25.75"
/>
<path stroke="#42181d" vector-effect="non-scaling-stroke" d="
  M 44.29 25.75
  Q 43.74 24.99 43.22 25.53
  C 42.94 25.82 42.67 26.02 42.46 26.08
  Q 39.73 26.84 38.50 26.25
  Q 36.12 25.11 34.49 27.05
  Q 34.17 27.42 33.72 27.63
  Q 32.51 28.19 31.71 29.25"
/>
<path stroke="#bc9599" vector-effect="non-scaling-stroke" d="
  M 31.71 29.25
  Q 29.64 29.71 28.05 28.40
  C 27.77 28.17 27.43 28.09 27.21 28.22
  Q 26.61 28.55 26.71 29.50"
/>
<path stroke="#aa7471" vector-effect="non-scaling-stroke" d="
  M 26.71 29.50
  L 26.00 30.75"
/>
<path stroke="#521f25" vector-effect="non-scaling-stroke" d="
  M 26.00 30.75
  Q 25.10 30.82 25.00 31.50
  Q 24.69 33.61 23.25 34.54"
/>
<path stroke="#bc9599" vector-effect="non-scaling-stroke" d="
  M 23.25 34.54
  Q 22.15 30.62 20.50 34.75
  Q 19.91 36.24 16.45 38.14
  C 16.35 38.19 16.24 38.13 16.24 38.02
  Q 16.24 37.90 16.26 37.79
  Q 16.29 37.59 16.46 37.39
  Q 19.52 33.86 20.33 28.73
  C 20.44 28.02 19.72 27.47 19.02 27.72
  L 13.73 29.63
  C 13.49 29.72 13.17 29.64 12.89 29.42
  L 9.67 27.01
  C 9.44 26.83 9.10 26.83 8.83 27.01
  Q 5.39 29.29 5.56 33.33
  Q 5.66 35.73 5.66 35.79
  Q 5.48 42.52 5.29 49.25"
/>
<path stroke="#aa7471" vector-effect="non-scaling-stroke" d="
  M 5.29 49.25
  Q 5.21 49.69 5.54 50.00"
/>
<path stroke="#bc9599" vector-effect="non-scaling-stroke" d="
  M 5.54 50.00
  Q 5.23 52.08 6.59 53.69
  C 6.84 53.98 7.00 54.29 7.03 54.56
  Q 7.15 55.48 6.83 56.34
  Q 6.23 57.93 6.20 58.41
  Q 5.63 65.25 9.29 71.02
  C 9.46 71.29 9.74 71.48 10.05 71.52
  Q 13.44 72.06 16.75 70.96"
/>
<path stroke="#521f25" vector-effect="non-scaling-stroke" d="
  M 16.75 70.96
  Q 19.58 71.18 16.93 71.48
  Q 16.74 71.50 16.61 71.60
  Q 15.60 72.36 16.28 73.01
  C 16.47 73.20 16.51 73.48 16.39 73.71
  Q 16.03 74.36 16.25 75.21"
/>
<path stroke="#521f25" vector-effect="non-scaling-stroke" d="
  M 151.94 3.07
  Q 151.83 6.79 153.52 10.07
  Q 153.78 10.57 153.96 10.05
  Q 154.57 8.34 152.96 5.36
  C 152.64 4.77 152.66 4.06 153.01 3.49
  Q 153.51 2.69 152.25 2.75
  C 152.08 2.76 151.94 2.90 151.94 3.07"
/>
<path stroke="#bc9599" vector-effect="non-scaling-stroke" d="
  M 132.13 10.44
  Q 132.06 11.74 132.99 11.41
  C 133.28 11.30 133.46 11.01 133.42 10.69
  Q 133.31 9.82 132.68 9.83
  C 132.39 9.84 132.15 10.10 132.13 10.44"
/>
<path stroke="#8a4750" vector-effect="non-scaling-stroke" d="
  M 135.99 12.42
  Q 136.44 16.12 136.82 12.51
  Q 137.01 10.67 136.24 11.55
  C 136.04 11.77 135.95 12.09 135.99 12.42"
/>
<path stroke="#892f3a" vector-effect="non-scaling-stroke" d="
  M 134.99 19.92
  Q 129.93 22.62 135.19 22.57
  C 135.50 22.57 135.77 22.75 135.90 23.02
  L 137.79 27.05
  C 137.92 27.33 138.23 27.46 138.49 27.36
  Q 139.47 26.97 138.62 26.09
  C 138.40 25.87 138.26 25.58 138.19 25.26
  L 136.83 18.53
  C 136.77 18.25 136.46 18.10 136.22 18.23
  Q 135.68 18.53 135.51 19.19
  C 135.43 19.52 135.24 19.79 134.99 19.92"
/>
<path stroke="#42181d" vector-effect="non-scaling-stroke" d="
  M 91.25 25.79
  Q 89.82 25.92 88.67 26.76
  Q 88.42 26.94 88.30 27.20
  Q 87.91 28.04 88.75 27.79"
/>
<path stroke="#bc9599" vector-effect="non-scaling-stroke" d="
  M 88.75 27.79
  Q 88.59 28.75 88.45 29.71
  Q 88.37 30.28 88.50 31.65
  Q 88.64 33.12 87.85 34.40
  C 87.67 34.69 87.58 35.01 87.60 35.31
  Q 87.87 38.86 86.94 41.19
  Q 85.91 43.75 87.50 45.21"
/>
<path stroke="#42181d" vector-effect="non-scaling-stroke" d="
  M 87.50 45.21
  Q 86.10 44.99 86.81 45.94
  Q 86.92 49.00 89.07 51.20
  Q 90.08 52.22 88.65 52.25
  Q 85.17 52.32 82.01 53.84
  C 81.78 53.95 81.75 54.25 81.94 54.39
  Q 82.92 55.09 84.25 54.54"
/>
<path stroke="#bc9599" vector-effect="non-scaling-stroke" d="
  M 84.25 54.54
  Q 82.32 55.60 80.50 56.82
  Q 78.81 57.94 78.35 59.41
  Q 77.81 61.14 78.15 63.01
  Q 78.23 63.48 78.07 63.97
  Q 77.24 66.47 79.06 68.69
  Q 82.14 72.44 86.75 72.28
  C 87.06 72.27 87.35 72.12 87.57 71.87
  Q 89.19 70.00 91.19 68.54
  Q 91.46 68.34 92.15 67.77
  Q 93.87 66.32 93.25 69.21"
/>
<path stroke="#aa7471" vector-effect="non-scaling-stroke" d="
  M 93.25 69.21
  Q 92.58 69.71 91.56 71.56
  Q 90.53 73.45 91.76 72.35
  Q 91.92 72.21 92.06 71.98
  Q 92.82 70.69 94.25 70.21"
/>
<path stroke="#bc9599" vector-effect="non-scaling-stroke" d="
  M 94.25 70.21
  Q 96.44 73.26 97.73 69.58
  Q 98.34 67.82 99.03 69.55
  Q 99.94 71.82 101.21 70.18
  Q 101.53 69.76 101.93 68.59
  Q 103.02 65.33 106.73 63.24
  Q 107.98 62.54 107.47 63.88
  Q 107.14 64.74 105.89 65.61
  Q 102.96 67.65 104.86 71.13
  C 105.00 71.39 105.31 71.50 105.59 71.40
  Q 107.92 70.52 109.94 71.39
  C 110.56 71.66 111.29 71.41 111.62 70.81
  Q 112.89 68.50 112.97 66.00
  Q 113.07 62.86 114.23 59.95
  Q 115.20 57.49 114.33 55.38
  Q 113.57 53.53 111.20 52.72
  Q 107.74 51.54 104.09 52.22
  Q 101.39 52.72 99.85 52.70
  Q 97.70 52.67 95.54 52.75"
/>
<path stroke="#42181d" vector-effect="non-scaling-stroke" d="
  M 95.54 52.75
  Q 97.09 51.66 99.00 51.91
  C 99.32 51.95 99.61 51.80 99.72 51.55
  Q 100.40 49.92 98.75 49.46"
/>
<path stroke="#bc9599" vector-effect="non-scaling-stroke" d="
  M 98.75 49.46
  Q 99.82 49.39 100.04 48.50"
/>
<path stroke="#42181d" vector-effect="non-scaling-stroke" d="
  M 100.04 48.50
  Q 101.52 49.33 101.75 47.79"
/>
<path stroke="#bc9599" vector-effect="non-scaling-stroke" d="
  M 101.75 47.79
  L 102.47 48.31
  C 102.78 48.53 103.08 48.65 103.30 48.62
  Q 104.83 48.46 106.29 48.83
  Q 108.94 49.50 109.15 49.54
  Q 112.26 50.06 115.95 50.99
  C 116.41 51.11 116.90 51.05 117.32 50.83
  Q 118.57 50.20 120.18 50.37
  C 120.50 50.40 120.82 50.32 121.09 50.14
  Q 122.60 49.12 124.30 49.79
  C 124.57 49.90 124.88 49.84 125.10 49.63
  Q 126.47 48.35 128.51 48.66
  C 128.84 48.71 129.16 48.67 129.45 48.55
  Q 131.00 47.90 132.69 47.92
  C 133.04 47.92 133.35 47.79 133.52 47.57
  Q 134.50 46.24 133.25 44.50
  Q 129.60 39.43 127.90 37.37
  Q 124.69 33.48 119.72 35.17
  Q 118.12 35.72 117.69 34.79
  C 117.57 34.53 117.72 34.21 118.02 34.10
  L 123.46 32.07
  C 123.77 31.95 124.01 31.73 124.13 31.46
  Q 125.15 29.17 127.34 29.03
  Q 128.05 28.98 127.61 29.61
  L 124.98 33.46
  C 124.83 33.68 124.99 33.99 125.30 34.09
  Q 129.20 35.36 130.65 39.22
  C 130.76 39.51 130.98 39.75 131.27 39.88
  Q 132.56 40.48 133.50 41.54"
/>
<path stroke="#8a4750" vector-effect="non-scaling-stroke" d="
  M 133.50 41.54
  L 134.36 42.20
  C 134.59 42.38 134.92 42.36 135.10 42.14
  Q 136.10 40.95 135.21 39.50"
/>
<path stroke="#bc9599" vector-effect="non-scaling-stroke" d="
  M 135.21 39.50
  L 135.75 33.25
  C 135.77 33.03 135.56 32.80 135.25 32.70
  L 134.68 32.51
  Q 134.14 32.34 134.69 32.02
  Q 137.07 30.64 135.94 27.70
  Q 135.78 27.28 135.79 26.75
  Q 135.84 24.58 133.50 24.56
  Q 127.11 24.51 120.74 24.96
  C 120.46 24.99 120.17 25.13 119.92 25.38
  Q 118.68 26.65 116.75 26.25
  Q 115.97 26.09 113.99 26.42
  C 113.65 26.48 113.33 26.36 113.16 26.13
  Q 112.81 25.65 112.72 25.05
  C 112.67 24.76 112.46 24.55 112.20 24.53
  Q 109.16 24.38 106.14 24.71
  Q 106.09 24.72 104.53 25.15
  Q 103.29 25.50 102.24 24.49
  Q 101.05 23.34 99.44 23.76
  Q 96.67 24.49 93.75 24.75
  Q 92.09 24.90 91.25 25.79"
/>
<path stroke="#cdb1b6" vector-effect="non-scaling-stroke" d="
  M 135.21 39.50
  Q 134.88 41.03 133.50 41.54"
/>
<path stroke="#858283" vector-effect="non-scaling-stroke" d="
  M 101.75 47.79
  Q 98.65 47.06 99.60 44.03
  Q 100.25 41.99 97.14 43.26
  C 96.89 43.36 96.80 43.67 96.95 43.89
  L 100.04 48.50"
/>
<path stroke="#858283" vector-effect="non-scaling-stroke" d="
  M 98.75 49.46
  Q 94.90 50.75 91.25 50.25
  Q 87.97 49.80 88.05 46.61
  Q 88.05 46.54 88.16 46.04
  Q 88.29 45.41 87.50 45.21"
/>
<path stroke="#858283" vector-effect="non-scaling-stroke" d="
  M 88.75 27.79
  L 91.25 25.79"
/>
<path stroke="#858283" vector-effect="non-scaling-stroke" d="
  M 95.54 52.75
  Q 93.04 53.34 92.25 53.25
  Q 88.03 52.78 84.25 54.54"
/>
<path stroke="#edded7" vector-effect="non-scaling-stroke" d="
  M 94.25 70.21
  Q 93.85 69.61 93.25 69.21"
/>
<path stroke="#aa7471" vector-effect="non-scaling-stroke" d="
  M 140.01 37.11
  Q 140.61 35.60 139.72 35.82
  C 139.43 35.89 139.20 36.15 139.15 36.48
  Q 138.99 37.43 139.33 37.60
  C 139.55 37.71 139.86 37.48 140.01 37.11"
/>
<path stroke="#aa7471" vector-effect="non-scaling-stroke" d="
  M 140.95 40.50
  Q 141.23 39.71 140.56 39.58
  C 140.31 39.53 140.09 39.78 140.12 40.07
  Q 140.55 43.51 140.78 41.15
  Q 140.81 40.90 140.95 40.50"
/>
<path stroke="#bc9599" vector-effect="non-scaling-stroke" d="
  M 145.29 52.00
  L 135.41 58.22
  C 135.15 58.38 134.83 58.31 134.74 58.07
  L 133.96 56.00"
/>
<path stroke="#aa7471" vector-effect="non-scaling-stroke" d="
  M 133.96 56.00
  Q 134.03 55.13 134.21 54.30
  Q 134.78 51.74 132.00 52.54"
/>
<path stroke="#bc9599" vector-effect="non-scaling-stroke" d="
  M 132.00 52.54
  Q 129.02 52.15 125.00 53.25
  Q 123.90 53.55 122.66 52.78
  C 122.39 52.61 122.06 52.59 121.80 52.72
  Q 117.50 54.93 116.46 59.75"
/>
<path stroke="#aa7471" vector-effect="non-scaling-stroke" d="
  M 116.46 59.75
  Q 116.09 60.72 115.83 61.70
  Q 115.41 63.25 116.80 62.63
  C 116.97 62.55 117.02 62.32 116.92 62.11
  Q 116.71 61.71 117.71 61.75"
/>
<path stroke="#bc9599" vector-effect="non-scaling-stroke" d="
  M 117.71 61.75
  Q 118.25 63.00 117.91 64.28
  C 117.82 64.59 117.86 64.92 118.03 65.17
  Q 119.48 67.43 120.10 70.51
  C 120.27 71.34 121.11 71.84 121.92 71.60
  Q 126.60 70.19 131.15 70.67
  Q 133.46 70.92 135.30 70.43
  Q 139.63 69.28 140.75 69.50
  Q 144.26 70.21 147.11 67.79
  C 147.54 67.43 148.19 67.57 148.43 68.08
  Q 149.78 70.95 150.99 69.19
  C 151.18 68.92 151.45 68.74 151.75 68.69
  Q 154.30 68.24 154.72 65.49
  Q 155.64 59.47 153.57 52.93
  C 153.44 52.51 153.05 52.23 152.60 52.23
  L 147.75 52.21"
/>
<path stroke="#8a4750" vector-effect="non-scaling-stroke" d="
  M 147.75 52.21
  Q 146.32 50.40 145.29 52.00"
/>
<path stroke="#cdb1b6" vector-effect="non-scaling-stroke" d="
  M 147.75 52.21
  Q 146.48 52.41 145.29 52.00"
/>
<path stroke="#edded7" vector-effect="non-scaling-stroke" d="
  M 117.71 61.75
  L 116.46 59.75"
/>
<path stroke="#edded7" vector-effect="non-scaling-stroke" d="
  M 132.00 52.54
  Q 133.06 52.95 132.50 54.25
  Q 131.38 56.87 133.96 56.00"
/>
<path stroke="#8a4750" vector-effect="non-scaling-stroke" d="
  M 63.96 56.48
  Q 64.11 57.32 64.52 56.85
  C 64.67 56.67 64.64 56.39 64.45 56.20
  Q 62.53 54.33 63.84 56.17
  Q 63.93 56.30 63.96 56.48"
/>
<path stroke="#bc9599" vector-effect="non-scaling-stroke" d="
  M 73.58 56.20
  Q 67.63 53.63 65.58 58.08
  Q 64.30 60.84 64.38 64.02
  Q 64.46 67.67 67.56 69.69
  Q 71.43 72.20 74.19 68.94
  Q 75.19 67.76 74.66 65.97
  Q 74.56 65.62 74.59 65.01
  L 75.01 58.23
  C 75.06 57.40 74.49 56.59 73.58 56.20"
/>
<path stroke="#aa7471" vector-effect="non-scaling-stroke" d="
  M 146.34 70.31
  Q 146.24 68.44 145.63 70.53
  C 145.53 70.86 145.62 71.19 145.84 71.37
  Q 146.42 71.84 146.34 70.31"
/>
<path stroke="#858283" vector-effect="non-scaling-stroke" d="
  M 75.29 12.50
  Q 75.21 13.60 74.77 14.57
  Q 74.19 15.85 74.22 16.56
  Q 74.35 20.16 78.00 21.25
  Q 79.80 21.79 82.26 21.35
  Q 82.73 21.26 83.23 21.40
  Q 86.22 22.23 88.34 20.29
  C 88.52 20.12 88.68 19.82 88.78 19.44
  Q 89.20 17.89 91.00 18.79"
/>
<path stroke="#858283" vector-effect="non-scaling-stroke" d="
  M 57.21 22.50
  Q 58.98 21.17 60.62 22.42
  C 60.85 22.60 61.17 22.61 61.39 22.44
  L 65.28 19.59
  C 65.51 19.42 65.83 19.44 66.07 19.62
  Q 69.09 21.93 71.06 18.31
  Q 72.00 16.59 72.60 15.11
  Q 73.24 13.52 72.78 11.72
  Q 72.35 10.06 71.82 8.44
  Q 71.42 7.21 70.63 6.43
  Q 69.77 5.58 68.75 4.92
  Q 67.41 4.05 65.41 4.20
  Q 59.59 4.62 53.75 4.71"
/>
<path stroke="#42181d" vector-effect="non-scaling-stroke" d="
  M 53.75 4.71
  Q 53.13 0.20 53.25 4.71"
/>
<path stroke="#858283" vector-effect="non-scaling-stroke" d="
  M 53.25 4.71
  Q 52.57 5.19 51.75 4.96"
/>
<path stroke="#73615b" vector-effect="non-scaling-stroke" d="
  M 51.75 4.96
  Q 52.01 3.51 51.22 3.60
  C 50.92 3.64 50.72 3.93 50.77 4.24
  Q 50.86 4.77 51.25 5.21"
/>
<path stroke="#858283" vector-effect="non-scaling-stroke" d="
  M 51.25 5.21
  Q 50.14 5.42 49.20 5.95
  Q 48.30 6.47 47.82 7.52
  Q 46.67 10.09 46.91 12.96
  Q 46.97 13.72 46.90 14.53
  Q 46.71 16.62 47.89 15.95
  Q 48.77 15.45 49.24 15.32
  Q 52.14 14.51 54.06 12.29
  Q 55.06 11.13 55.95 10.87
  Q 57.16 10.52 58.44 10.63
  Q 58.96 10.67 58.47 10.87
  Q 56.00 11.90 53.95 13.57
  Q 53.82 13.67 51.21 15.47
  Q 48.50 17.33 49.42 20.95
  C 49.50 21.26 49.74 21.50 50.05 21.57
  Q 52.20 22.05 54.25 21.04"
/>
<path stroke="#858283" vector-effect="non-scaling-stroke" d="
  M 45.25 19.96
  Q 45.14 14.71 44.52 9.50
  Q 44.18 6.63 41.75 5.21"
/>
<path stroke="#95898b" vector-effect="non-scaling-stroke" d="
  M 19.71 5.50
  L 14.25 5.21"
/>
<path stroke="#bc9599" vector-effect="non-scaling-stroke" d="
  M 53.75 4.71
  Q 53.50 4.79 53.25 4.71"
/>
<path stroke="#858283" vector-effect="non-scaling-stroke" d="
  M 154.54 43.50
  Q 153.63 39.77 154.50 36.00
  Q 154.93 34.14 155.29 27.75"
/>
<path stroke="#53343a" vector-effect="non-scaling-stroke" d="
  M 155.29 27.75
  Q 156.24 26.02 155.21 24.25"
/>
<path stroke="#42181d" vector-effect="non-scaling-stroke" d="
  M 155.21 24.25
  Q 155.26 23.60 154.96 23.00"
/>
<path stroke="#73615b" vector-effect="non-scaling-stroke" d="
  M 154.96 23.00
  Q 154.33 18.91 154.50 23.04"
/>
<path stroke="#42181d" vector-effect="non-scaling-stroke" d="
  M 154.50 23.04
  L 153.75 24.04"
/>
<path stroke="#858283" vector-effect="non-scaling-stroke" d="
  M 153.75 24.04
  Q 152.94 23.54 152.22 23.90
  Q 151.79 24.12 151.87 23.69
  L 152.54 20.25"
/>
<path stroke="#42181d" vector-effect="non-scaling-stroke" d="
  M 155.2220 20.0277
  C 155.42 20.06 155.66 19.57 155.7560 18.9441
  C 155.85 18.32 155.76 17.78 155.5580 17.7523
  C 155.36 17.72 155.12 18.21 155.0240 18.8359
  C 154.93 19.46 155.02 20.00 155.2220 20.0277"
/>
<path stroke="#edded7" vector-effect="non-scaling-stroke" d="
  M 51.75 4.96
  Q 51.52 5.17 51.25 5.21"
/>
<path stroke="#95898b" vector-effect="non-scaling-stroke" d="
  M 130.54 11.75
  L 130.03 10.93
  C 129.90 10.72 129.59 10.56 129.19 10.50
  Q 127.33 10.23 125.88 9.07
  C 125.67 8.91 125.37 8.99 125.32 9.22
  Q 125.14 10.04 126.06 10.44
  Q 128.05 11.30 128.28 13.19
  C 128.32 13.48 128.55 13.70 128.81 13.67
  Q 130.03 13.53 130.79 12.50"
/>
<path stroke="#858283" vector-effect="non-scaling-stroke" d="
  M 120.96 19.25
  L 120.65 15.77
  C 120.60 15.20 120.95 14.70 121.45 14.61
  Q 125.81 13.84 127.45 16.62
  C 127.63 16.92 127.91 17.10 128.19 17.11
  Q 129.73 17.17 128.31 15.44
  Q 126.72 13.49 125.31 13.56
  Q 120.91 13.79 116.50 13.75
  Q 113.66 13.72 112.11 12.36
  Q 111.62 11.92 111.59 12.47
  Q 111.57 12.94 111.95 13.59
  C 112.23 14.06 112.09 14.68 111.63 14.98
  Q 107.74 17.52 103.25 19.04"
/>
<path stroke="#858283" vector-effect="non-scaling-stroke" d="
  M 98.75 18.96
  Q 96.89 16.52 97.25 13.75
  Q 97.73 10.13 96.96 7.25"
/>
<path stroke="#858283" vector-effect="non-scaling-stroke" d="
  M 56.54 22.50
  Q 56.21 19.76 54.71 21.00"
/>
<path stroke="#cdb1b6" vector-effect="non-scaling-stroke" d="
  M 149.50 5.46
  L 144.75 5.21"
/>
<path stroke="#858283" vector-effect="non-scaling-stroke" d="
  M 43.25 19.71
  L 41.02 13.76
  C 40.89 13.40 40.45 13.24 40.04 13.39
  Q 38.22 14.09 36.86 13.34
  C 36.59 13.19 36.27 13.12 35.94 13.14
  L 33.50 13.29"
/>
<path stroke="#ffffff" vector-effect="non-scaling-stroke" d="
  M 33.50 13.29
  L 33.04 13.00"
/>
<path stroke="#cdb1b6" vector-effect="non-scaling-stroke" d="
  M 20.75 22.21
  Q 21.19 19.79 17.88 19.65
  Q 17.07 19.61 17.78 20.02
  Q 19.39 20.94 19.04 22.75"
/>
<path stroke="#bc9599" vector-effect="non-scaling-stroke" d="
  M 153.75 24.04
  L 154.04 24.50"
/>
<path stroke="#cdb1b6" vector-effect="non-scaling-stroke" d="
  M 154.04 24.50
  L 155.29 27.75"
/>
<path stroke="#858283" vector-effect="non-scaling-stroke" d="
  M 95.00 7.04
  Q 96.69 12.66 95.75 18.46"
/>
<path stroke="#858283" vector-effect="non-scaling-stroke" d="
  M 120.54 19.75
  Q 119.98 17.54 120.35 15.30
  C 120.39 15.01 120.22 14.74 119.96 14.69
  Q 119.39 14.58 118.80 14.62
  Q 117.84 14.69 117.21 14.60
  Q 113.41 14.07 110.88 16.93
  C 110.63 17.22 110.52 17.56 110.59 17.82
  L 111.29 20.25"
/>
<path stroke="#521b23" vector-effect="non-scaling-stroke" d="
  M 110.29 20.75
  L 109.45 18.72
  C 109.33 18.44 109.05 18.28 108.77 18.33
  Q 106.22 18.82 104.25 20.54"
/>
<path stroke="#858283" vector-effect="non-scaling-stroke" d="
  M 33.50 13.29
  Q 32.93 14.20 33.75 14.20
  Q 36.80 14.21 39.82 14.62
  C 40.14 14.66 40.41 14.85 40.55 15.13
  Q 41.74 17.55 41.34 20.26
  C 41.30 20.50 41.06 20.68 40.76 20.70
  L 36.25 20.96"
/>
<path stroke="#bc9599" vector-effect="non-scaling-stroke" d="
  M 34.4625 19.9800
  C 34.72 19.98 34.93 19.65 34.9300 19.2484
  C 34.93 18.85 34.72 18.52 34.4575 18.5200
  C 34.20 18.52 33.99 18.85 33.9900 19.2516
  C 33.99 19.65 34.20 19.98 34.4625 19.9800"
/>
<path stroke="#aa7471" vector-effect="non-scaling-stroke" d="
  M 154.96 23.00
  L 154.50 23.04"
/>
<path stroke="#8a4750" vector-effect="non-scaling-stroke" d="
  M 155.21 24.25
  L 154.04 24.50"
/>
<path stroke="#858283" vector-effect="non-scaling-stroke" d="
  M 66.54 26.75
  Q 64.56 27.87 62.19 27.64
  Q 56.69 27.11 51.19 27.39
  Q 49.44 27.48 47.92 26.92
  Q 46.33 26.32 44.75 25.71"
/>
<path stroke="#858283" vector-effect="non-scaling-stroke" d="
  M 44.29 25.75
  Q 43.96 27.64 42.92 27.25
  C 42.00 26.90 40.98 27.02 40.17 27.57
  Q 37.45 29.39 37.43 26.92
  Q 37.42 26.07 36.71 26.53
  Q 32.10 29.48 36.64 32.42
  Q 37.06 32.70 37.30 33.13
  Q 39.73 37.52 43.75 38.75
  Q 52.01 41.27 54.02 42.27
  Q 54.86 42.69 54.39 42.86
  C 54.22 42.92 53.99 42.90 53.76 42.79
  Q 51.80 41.86 49.67 41.57
  Q 47.09 41.21 45.62 40.62
  Q 43.71 39.85 41.58 39.10
  C 41.13 38.94 40.63 39.24 40.54 39.74
  L 39.75 43.75
  Q 39.37 45.67 39.25 43.75
  Q 39.08 41.08 39.64 38.49
  C 39.70 38.18 39.62 37.86 39.41 37.65
  Q 35.77 33.88 32.00 30.25
  Q 31.70 29.96 31.71 29.25"
/>
<path stroke="#858283" vector-effect="non-scaling-stroke" d="
  M 70.00 29.29
  L 74.06 33.69
  C 74.45 34.11 75.11 34.21 75.70 33.95
  Q 79.04 32.46 79.15 31.87
  Q 79.23 31.44 78.35 31.75
  Q 76.37 32.43 75.75 30.75
  Q 74.88 28.38 77.06 27.00
  C 77.35 26.81 77.69 26.75 77.99 26.82
  L 83.96 28.25"
/>
<path stroke="#858283" vector-effect="non-scaling-stroke" d="
  M 74.25 51.79
  Q 73.41 51.38 72.50 51.54"
/>
<path stroke="#95898b" vector-effect="non-scaling-stroke" d="
  M 27.25 52.46
  L 25.59 45.34
  Q 25.49 44.91 25.57 44.32
  Q 26.59 36.89 26.00 30.75"
/>
<path stroke="#edded7" vector-effect="non-scaling-stroke" d="
  M 26.00 30.75
  Q 28.97 31.44 26.71 29.50"
/>
<path stroke="#95898b" vector-effect="non-scaling-stroke" d="
  M 58.61 33.98
  Q 58.04 34.03 58.38 34.49
  Q 59.04 35.37 59.99 35.49
  C 60.31 35.53 60.63 35.37 60.80 35.10
  Q 61.66 33.72 58.61 33.98"
/>
<path stroke="#95898b" vector-effect="non-scaling-stroke" d="
  M 23.25 34.54
  Q 24.59 41.22 21.70 47.38
  Q 20.98 48.91 20.48 50.89
  Q 20.24 51.83 20.95 51.16
  L 22.63 49.59
  C 22.81 49.42 23.10 49.49 23.19 49.72
  Q 23.96 51.81 23.50 54.00
  Q 22.53 58.70 22.73 63.50
  Q 23.01 69.98 16.75 70.96"
/>
<path stroke="#edded7" vector-effect="non-scaling-stroke" d="
  M 5.54 50.00
  Q 7.12 49.28 6.79 47.49
  Q 6.50 45.94 6.43 47.51
  Q 6.37 48.83 5.29 49.25"
/>
<path stroke="#95898b" vector-effect="non-scaling-stroke" d="
  M 25.79 60.25
  Q 25.83 65.19 27.31 68.44
  Q 28.89 71.89 33.25 71.54"
/>
<path stroke="#2a1217" vector-effect="non-scaling-stroke" d="
  M 25.75 72.06
  Q 26.99 71.20 25.79 70.14
  C 25.49 69.87 25.28 69.52 25.19 69.13
  Q 24.84 67.58 24.55 67.04
  Q 24.19 66.38 23.94 67.82
  Q 23.65 69.54 21.82 70.80
  Q 20.10 71.98 21.82 73.15
  Q 24.11 74.72 25.11 72.78
  Q 25.33 72.34 25.75 72.06"
/>
<path stroke="#bc9599" vector-effect="non-scaling-stroke" d="
  M 31.1287 61.6445
  C 31.47 61.94 32.37 61.44 33.1363 60.5393
  C 33.90 59.64 34.24 58.67 33.8913 58.3755
  C 33.55 58.08 32.65 58.58 31.8837 59.4807
  C 31.12 60.38 30.78 61.35 31.1287 61.6445"
/>
</g>
<path fill="#dbbdaf" d="
  M 0.00 0.00
  Q 78.53 0.00 157.06 0.00
  Q 156.08 0.33 155.96 1.25
  Q 136.24 0.47 129.31 0.56
  Q 100.06 0.96 81.75 0.75
  Q 71.52 0.63 65.50 0.96
  Q 60.44 1.80 55.40 1.04
  Q 53.97 0.83 52.11 1.12
  Q 50.45 1.39 48.75 1.21
  Q 41.87 0.65 35.00 1.21
  Q 34.61 1.24 34.08 0.99
  Q 33.61 0.77 33.06 0.81
  Q 26.41 1.29 19.76 1.01
  Q 19.63 1.01 16.63 1.20
  Q 15.02 1.30 13.46 0.69
  C 13.15 0.57 12.82 0.55 12.52 0.62
  Q 10.07 1.21 9.25 1.00
  Q 7.20 0.48 5.43 1.48
  C 5.18 1.62 4.86 1.66 4.52 1.60
  L 2.25 1.21
  Q 0.04 -0.95 0.00 2.94
  Q 0.00 1.47 0.00 0.00
  Z"
/>
<path fill="#dbbdaf" d="
  M 157.06 0.00
  Q 157.53 0.00 158.00 0.00
  Q 158.00 38.00 158.00 76.00
  Q 79.59 76.00 1.19 76.00
  Q 1.93 75.55 2.04 74.75
  Q 9.09 76.18 16.25 75.21
  L 33.25 75.21
  Q 40.92 75.35 58.25 75.25
  Q 64.90 75.21 95.08 75.47
  Q 97.59 75.49 102.41 75.33
  Q 106.08 75.20 109.75 75.28
  Q 117.82 75.44 120.74 75.39
  Q 137.90 75.08 155.07 75.31
  C 155.37 75.31 155.63 75.12 155.73 74.83
  Q 156.97 71.22 157.00 67.00
  Q 157.09 52.91 156.79 43.00
  Q 157.14 34.67 156.95 26.35
  Q 156.86 22.42 156.91 14.66
  Q 156.95 8.80 156.50 2.96
  Q 156.45 2.03 155.96 1.25
  Q 156.08 0.33 157.06 0.00
  Z"
/>
<path fill="#ffffff" d="
  M 2.25 1.21
  Q 1.32 2.76 1.40 4.46
  Q 1.54 7.64 1.54 7.68
  Q 0.81 16.20 0.93 24.73
  Q 1.11 38.15 1.04 41.77
  Q 0.74 57.89 1.25 72.25
  Q 1.29 73.43 2.04 74.75
  Q 1.93 75.55 1.19 76.00
  Q 0.59 76.00 0.00 76.00
  Q 0.00 39.47 0.00 2.94
  Q 0.04 -0.95 2.25 1.21
  Z"
/>
<path fill="#792b33" d="
  M 48.75 1.21
  Q 44.21 1.19 48.96 2.73
  C 49.23 2.82 49.38 3.11 49.29 3.38
  Q 48.30 6.32 45.97 8.14
  C 45.75 8.31 45.44 8.26 45.28 8.03
  Q 44.56 7.00 43.98 5.89
  Q 43.60 5.16 43.11 5.01
  Q 42.45 4.80 41.75 5.21
  Q 40.64 4.50 38.25 4.50
  Q 35.86 4.50 33.46 4.50
  Q 31.71 4.50 29.19 5.34
  Q 24.57 6.89 19.71 5.50
  Q 20.66 0.83 16.31 1.56
  Q 15.56 1.69 15.23 2.11
  Q 14.80 2.67 14.93 3.46
  C 14.98 3.73 15.24 3.95 15.56 3.99
  Q 18.55 4.38 14.25 5.21
  L 9.31 5.57
  C 8.92 5.60 8.60 5.69 8.40 5.84
  Q 6.33 7.36 6.00 10.25
  Q 5.48 14.85 5.87 19.01
  Q 6.07 21.15 6.91 22.16
  Q 8.23 23.76 10.52 23.15
  C 10.80 23.07 11.13 23.12 11.42 23.28
  Q 12.30 23.78 12.98 23.19
  C 13.20 22.99 13.50 22.94 13.73 23.07
  Q 16.36 24.51 19.04 22.75
  Q 19.85 22.27 20.75 22.21
  Q 21.22 23.20 21.82 22.32
  Q 22.85 20.81 23.02 18.71
  Q 23.18 16.87 23.79 18.61
  Q 24.60 20.90 27.01 20.38
  C 27.28 20.32 27.54 20.11 27.71 19.79
  L 31.67 12.60
  C 31.87 12.23 31.97 11.90 31.94 11.69
  L 31.47 8.79
  Q 31.40 8.40 31.63 8.69
  Q 33.11 10.54 33.04 13.00
  Q 30.64 15.77 29.85 19.26
  C 29.78 19.58 29.84 19.91 30.01 20.17
  Q 31.39 22.34 31.89 19.73
  Q 32.34 17.34 33.10 19.55
  Q 33.50 20.74 34.21 21.86
  Q 34.82 22.80 35.24 21.76
  Q 35.53 21.06 36.25 20.96
  L 41.94 21.24
  C 42.13 21.25 42.39 21.04 42.60 20.71
  L 43.25 19.71
  Q 44.24 20.04 45.25 19.96
  Q 45.96 20.40 46.54 20.11
  C 46.76 20.00 46.81 19.68 46.64 19.41
  Q 46.05 18.43 46.50 17.44
  Q 46.72 16.96 46.92 17.47
  L 48.62 21.73
  C 48.73 22.03 48.98 22.26 49.28 22.35
  Q 50.61 22.77 52.01 22.58
  Q 52.46 22.52 52.95 22.69
  Q 54.53 23.24 54.25 21.04
  L 54.71 21.00
  Q 55.98 22.91 56.06 25.18
  C 56.07 25.39 56.14 25.56 56.25 25.63
  Q 56.42 25.75 56.56 25.61
  Q 56.68 25.49 56.72 25.23
  Q 56.88 23.85 56.54 22.50
  L 57.21 22.50
  Q 57.30 23.33 57.95 23.58
  C 58.14 23.66 58.44 23.53 58.70 23.26
  Q 59.22 22.71 60.04 23.94
  C 60.23 24.22 60.62 24.26 60.86 24.02
  Q 63.69 21.16 67.50 21.23
  C 67.77 21.24 68.06 21.39 68.30 21.65
  Q 68.96 22.39 69.46 21.63
  Q 69.58 21.45 70.11 20.93
  L 72.39 18.66
  C 72.60 18.45 72.91 18.42 73.07 18.59
  L 76.15 21.63
  C 76.40 21.87 76.70 22.01 76.99 22.04
  Q 79.11 22.21 81.25 22.24
  Q 81.37 22.25 83.74 22.41
  Q 88.28 22.71 91.00 18.79
  L 95.75 18.46
  L 98.75 18.96
  Q 100.97 20.62 103.25 19.04
  Q 102.94 20.35 104.25 20.54
  Q 101.88 22.11 103.70 24.08
  C 103.90 24.30 104.23 24.36 104.52 24.23
  Q 106.37 23.45 107.81 23.31
  Q 110.21 23.09 110.29 20.75
  Q 111.06 21.75 111.29 20.25
  L 119.21 21.78
  C 119.56 21.85 119.89 21.77 120.04 21.57
  Q 120.64 20.81 120.54 19.75
  L 120.96 19.25
  Q 120.79 20.58 122.23 19.62
  C 122.49 19.45 122.84 19.54 122.98 19.81
  Q 124.92 23.46 125.87 20.46
  Q 126.03 19.97 125.97 19.52
  Q 125.81 18.23 124.84 19.14
  C 124.66 19.31 124.38 19.26 124.30 19.05
  Q 123.95 17.98 124.94 17.66
  C 125.21 17.57 125.55 17.62 125.87 17.80
  Q 126.78 18.29 126.81 18.38
  C 127.14 19.24 127.97 19.80 128.89 19.78
  Q 133.55 19.70 135.02 17.19
  C 135.18 16.92 135.20 16.59 135.09 16.29
  Q 133.92 13.31 130.79 12.50
  L 130.54 11.75
  Q 131.75 9.22 130.47 5.42
  C 130.29 4.88 129.79 4.50 129.22 4.48
  Q 124.90 4.30 120.18 4.26
  Q 119.62 4.25 117.40 3.81
  Q 115.97 3.52 114.49 3.96
  Q 110.91 5.02 107.24 4.57
  Q 106.94 4.53 106.29 4.68
  L 104.31 5.15
  C 104.08 5.21 103.74 5.13 103.38 4.93
  Q 100.82 3.54 98.23 4.72
  Q 97.45 5.07 97.16 5.70
  Q 96.85 6.40 96.96 7.25
  Q 96.18 5.74 95.00 7.04
  Q 92.66 6.35 90.25 5.99
  Q 86.12 5.38 89.31 7.94
  Q 89.92 8.43 89.80 8.85
  C 89.73 9.09 89.37 9.17 89.04 9.02
  Q 87.02 8.09 84.75 8.28
  Q 82.83 8.44 81.52 7.17
  Q 81.11 6.77 80.71 6.66
  Q 79.00 6.20 77.25 6.75
  C 76.13 7.10 75.38 7.86 75.50 8.50
  Q 75.89 10.57 75.29 12.50
  Q 75.78 10.58 74.49 10.12
  C 74.13 9.98 73.86 9.80 73.72 9.60
  L 70.77 5.17
  C 70.60 4.92 70.32 4.74 70.00 4.70
  Q 67.36 4.34 68.25 1.78
  C 68.36 1.49 68.21 1.18 67.96 1.16
  L 65.50 0.96
  Q 71.52 0.63 81.75 0.75
  Q 100.06 0.96 129.31 0.56
  Q 136.24 0.47 155.96 1.25
  Q 156.45 2.03 156.50 2.96
  Q 154.02 2.58 154.37 3.90
  Q 154.53 4.51 154.55 4.64
  Q 154.84 6.70 155.27 8.74
  Q 155.78 11.08 155.46 12.81
  Q 155.12 14.65 154.44 16.94
  Q 153.79 19.13 152.54 20.25
  Q 152.22 18.79 152.95 17.66
  C 153.14 17.36 153.23 17.03 153.20 16.75
  Q 152.61 11.24 150.31 6.19
  Q 150.20 5.94 149.50 5.46
  Q 147.21 3.04 144.75 5.21
  Q 143.56 6.74 141.90 6.74
  Q 139.52 6.74 139.15 6.92
  Q 136.85 8.01 138.25 11.00
  Q 139.02 12.64 137.98 14.80
  C 137.83 15.11 137.82 15.45 137.95 15.71
  L 139.43 18.63
  C 139.59 18.95 139.66 19.27 139.63 19.55
  Q 139.17 23.92 140.00 27.50
  Q 140.74 30.71 140.12 33.51
  C 140.05 33.83 140.08 34.15 140.22 34.44
  Q 141.42 36.93 141.55 39.68
  C 141.56 39.98 141.74 40.25 142.02 40.39
  Q 143.96 41.39 142.58 43.13
  C 142.40 43.36 142.39 43.67 142.57 43.88
  Q 143.88 45.43 145.30 46.86
  Q 146.93 48.49 148.63 48.99
  Q 154.07 50.59 154.54 43.50
  Q 155.17 42.86 155.40 42.00
  C 155.49 41.67 155.73 41.43 156.00 41.42
  Q 157.13 41.38 156.79 43.00
  Q 157.09 52.91 157.00 67.00
  Q 156.97 71.22 155.73 74.83
  C 155.63 75.12 155.37 75.31 155.07 75.31
  Q 137.90 75.08 120.74 75.39
  Q 117.82 75.44 109.75 75.28
  Q 106.08 75.20 102.41 75.33
  Q 97.59 75.49 95.08 75.47
  Q 64.90 75.21 58.25 75.25
  Q 40.92 75.35 33.25 75.21
  L 33.25 71.54
  Q 39.25 71.35 43.56 71.69
  Q 47.51 72.00 50.95 71.29
  C 51.25 71.23 51.52 71.05 51.72 70.78
  L 53.05 69.05
  Q 53.94 67.89 53.94 69.36
  Q 53.94 71.45 57.62 71.43
  Q 58.45 71.42 59.28 71.46
  Q 63.16 71.65 62.92 67.20
  Q 62.68 62.98 62.50 58.73
  C 62.47 58.02 62.09 57.37 61.49 56.98
  Q 58.38 54.99 54.32 55.52
  Q 47.79 56.38 41.30 55.51
  Q 37.51 55.00 35.20 55.44
  Q 32.60 55.94 29.19 56.94
  Q 26.33 57.77 25.79 60.25
  Q 24.33 57.05 25.34 53.72
  C 25.41 53.51 25.65 53.28 25.98 53.11
  L 27.25 52.46
  Q 29.93 52.65 32.46 53.43
  Q 34.86 54.17 36.80 54.03
  Q 41.57 53.70 46.34 53.38
  Q 46.41 53.37 48.28 53.47
  Q 49.93 53.56 51.63 52.38
  C 52.44 51.81 53.41 51.51 54.41 51.50
  Q 58.04 51.48 61.20 53.07
  Q 63.19 54.07 66.01 53.30
  L 72.50 51.54
  Q 72.61 53.93 74.25 51.79
  L 82.51 48.12
  C 82.90 47.94 83.10 47.50 83.01 47.06
  Q 82.25 43.46 84.20 40.42
  C 84.62 39.77 84.81 39.00 84.75 38.22
  L 83.96 28.25
  Q 84.27 26.83 83.00 26.75
  Q 80.22 26.57 77.27 25.95
  C 76.97 25.88 76.66 26.03 76.51 26.30
  Q 75.90 27.43 74.90 27.97
  C 74.60 28.14 74.41 28.41 74.39 28.68
  Q 74.33 29.83 74.75 30.50
  Q 76.08 32.59 74.09 32.03
  C 73.38 31.82 72.75 31.39 72.31 30.79
  Q 70.80 28.74 70.00 29.29
  L 67.71 28.46
  C 67.47 28.38 67.34 28.09 67.40 27.77
  Q 67.56 26.88 66.54 26.75
  L 66.51 26.53
  C 66.49 26.41 66.37 26.33 66.22 26.32
  L 53.04 26.19
  C 52.75 26.18 52.49 25.96 52.42 25.65
  Q 52.23 24.80 51.95 24.63
  Q 51.49 24.36 51.58 25.25
  Q 51.73 26.90 50.28 26.58
  C 50.01 26.52 49.82 26.26 49.83 25.96
  Q 49.92 23.22 48.87 26.20
  C 48.79 26.44 48.49 26.54 48.28 26.39
  Q 46.31 24.96 44.75 25.71
  L 44.29 25.75
  Q 43.74 24.99 43.22 25.53
  C 42.94 25.82 42.67 26.02 42.46 26.08
  Q 39.73 26.84 38.50 26.25
  Q 36.12 25.11 34.49 27.05
  Q 34.17 27.42 33.72 27.63
  Q 32.51 28.19 31.71 29.25
  Q 29.64 29.71 28.05 28.40
  C 27.77 28.17 27.43 28.09 27.21 28.22
  Q 26.61 28.55 26.71 29.50
  L 26.00 30.75
  Q 25.10 30.82 25.00 31.50
  Q 24.69 33.61 23.25 34.54
  Q 22.15 30.62 20.50 34.75
  Q 19.91 36.24 16.45 38.14
  C 16.35 38.19 16.24 38.13 16.24 38.02
  Q 16.24 37.90 16.26 37.79
  Q 16.29 37.59 16.46 37.39
  Q 19.52 33.86 20.33 28.73
  C 20.44 28.02 19.72 27.47 19.02 27.72
  L 13.73 29.63
  C 13.49 29.72 13.17 29.64 12.89 29.42
  L 9.67 27.01
  C 9.44 26.83 9.10 26.83 8.83 27.01
  Q 5.39 29.29 5.56 33.33
  Q 5.66 35.73 5.66 35.79
  Q 5.48 42.52 5.29 49.25
  Q 5.21 49.69 5.54 50.00
  Q 5.23 52.08 6.59 53.69
  C 6.84 53.98 7.00 54.29 7.03 54.56
  Q 7.15 55.48 6.83 56.34
  Q 6.23 57.93 6.20 58.41
  Q 5.63 65.25 9.29 71.02
  C 9.46 71.29 9.74 71.48 10.05 71.52
  Q 13.44 72.06 16.75 70.96
  Q 19.58 71.18 16.93 71.48
  Q 16.74 71.50 16.61 71.60
  Q 15.60 72.36 16.28 73.01
  C 16.47 73.20 16.51 73.48 16.39 73.71
  Q 16.03 74.36 16.25 75.21
  Q 9.09 76.18 2.04 74.75
  Q 1.29 73.43 1.25 72.25
  Q 0.74 57.89 1.04 41.77
  Q 1.11 38.15 0.93 24.73
  Q 0.81 16.20 1.54 7.68
  Q 1.54 7.64 1.40 4.46
  Q 1.32 2.76 2.25 1.21
  L 4.52 1.60
  C 4.86 1.66 5.18 1.62 5.43 1.48
  Q 7.20 0.48 9.25 1.00
  Q 10.07 1.21 12.52 0.62
  C 12.82 0.55 13.15 0.57 13.46 0.69
  Q 15.02 1.30 16.63 1.20
  Q 19.63 1.01 19.76 1.01
  Q 26.41 1.29 33.06 0.81
  Q 33.61 0.77 34.08 0.99
  Q 34.61 1.24 35.00 1.21
  Q 41.87 0.65 48.75 1.21
  Z
  M 151.94 3.07
  Q 151.83 6.79 153.52 10.07
  Q 153.78 10.57 153.96 10.05
  Q 154.57 8.34 152.96 5.36
  C 152.64 4.77 152.66 4.06 153.01 3.49
  Q 153.51 2.69 152.25 2.75
  C 152.08 2.76 151.94 2.90 151.94 3.07
  Z
  M 132.13 10.44
  Q 132.06 11.74 132.99 11.41
  C 133.28 11.30 133.46 11.01 133.42 10.69
  Q 133.31 9.82 132.68 9.83
  C 132.39 9.84 132.15 10.10 132.13 10.44
  Z
  M 135.99 12.42
  Q 136.44 16.12 136.82 12.51
  Q 137.01 10.67 136.24 11.55
  C 136.04 11.77 135.95 12.09 135.99 12.42
  Z
  M 134.99 19.92
  Q 129.93 22.62 135.19 22.57
  C 135.50 22.57 135.77 22.75 135.90 23.02
  L 137.79 27.05
  C 137.92 27.33 138.23 27.46 138.49 27.36
  Q 139.47 26.97 138.62 26.09
  C 138.40 25.87 138.26 25.58 138.19 25.26
  L 136.83 18.53
  C 136.77 18.25 136.46 18.10 136.22 18.23
  Q 135.68 18.53 135.51 19.19
  C 135.43 19.52 135.24 19.79 134.99 19.92
  Z
  M 91.25 25.79
  Q 89.82 25.92 88.67 26.76
  Q 88.42 26.94 88.30 27.20
  Q 87.91 28.04 88.75 27.79
  Q 88.59 28.75 88.45 29.71
  Q 88.37 30.28 88.50 31.65
  Q 88.64 33.12 87.85 34.40
  C 87.67 34.69 87.58 35.01 87.60 35.31
  Q 87.87 38.86 86.94 41.19
  Q 85.91 43.75 87.50 45.21
  Q 86.10 44.99 86.81 45.94
  Q 86.92 49.00 89.07 51.20
  Q 90.08 52.22 88.65 52.25
  Q 85.17 52.32 82.01 53.84
  C 81.78 53.95 81.75 54.25 81.94 54.39
  Q 82.92 55.09 84.25 54.54
  Q 82.32 55.60 80.50 56.82
  Q 78.81 57.94 78.35 59.41
  Q 77.81 61.14 78.15 63.01
  Q 78.23 63.48 78.07 63.97
  Q 77.24 66.47 79.06 68.69
  Q 82.14 72.44 86.75 72.28
  C 87.06 72.27 87.35 72.12 87.57 71.87
  Q 89.19 70.00 91.19 68.54
  Q 91.46 68.34 92.15 67.77
  Q 93.87 66.32 93.25 69.21
  Q 92.58 69.71 91.56 71.56
  Q 90.53 73.45 91.76 72.35
  Q 91.92 72.21 92.06 71.98
  Q 92.82 70.69 94.25 70.21
  Q 96.44 73.26 97.73 69.58
  Q 98.34 67.82 99.03 69.55
  Q 99.94 71.82 101.21 70.18
  Q 101.53 69.76 101.93 68.59
  Q 103.02 65.33 106.73 63.24
  Q 107.98 62.54 107.47 63.88
  Q 107.14 64.74 105.89 65.61
  Q 102.96 67.65 104.86 71.13
  C 105.00 71.39 105.31 71.50 105.59 71.40
  Q 107.92 70.52 109.94 71.39
  C 110.56 71.66 111.29 71.41 111.62 70.81
  Q 112.89 68.50 112.97 66.00
  Q 113.07 62.86 114.23 59.95
  Q 115.20 57.49 114.33 55.38
  Q 113.57 53.53 111.20 52.72
  Q 107.74 51.54 104.09 52.22
  Q 101.39 52.72 99.85 52.70
  Q 97.70 52.67 95.54 52.75
  Q 97.09 51.66 99.00 51.91
  C 99.32 51.95 99.61 51.80 99.72 51.55
  Q 100.40 49.92 98.75 49.46
  Q 99.82 49.39 100.04 48.50
  Q 101.52 49.33 101.75 47.79
  L 102.47 48.31
  C 102.78 48.53 103.08 48.65 103.30 48.62
  Q 104.83 48.46 106.29 48.83
  Q 108.94 49.50 109.15 49.54
  Q 112.26 50.06 115.95 50.99
  C 116.41 51.11 116.90 51.05 117.32 50.83
  Q 118.57 50.20 120.18 50.37
  C 120.50 50.40 120.82 50.32 121.09 50.14
  Q 122.60 49.12 124.30 49.79
  C 124.57 49.90 124.88 49.84 125.10 49.63
  Q 126.47 48.35 128.51 48.66
  C 128.84 48.71 129.16 48.67 129.45 48.55
  Q 131.00 47.90 132.69 47.92
  C 133.04 47.92 133.35 47.79 133.52 47.57
  Q 134.50 46.24 133.25 44.50
  Q 129.60 39.43 127.90 37.37
  Q 124.69 33.48 119.72 35.17
  Q 118.12 35.72 117.69 34.79
  C 117.57 34.53 117.72 34.21 118.02 34.10
  L 123.46 32.07
  C 123.77 31.95 124.01 31.73 124.13 31.46
  Q 125.15 29.17 127.34 29.03
  Q 128.05 28.98 127.61 29.61
  L 124.98 33.46
  C 124.83 33.68 124.99 33.99 125.30 34.09
  Q 129.20 35.36 130.65 39.22
  C 130.76 39.51 130.98 39.75 131.27 39.88
  Q 132.56 40.48 133.50 41.54
  L 134.36 42.20
  C 134.59 42.38 134.92 42.36 135.10 42.14
  Q 136.10 40.95 135.21 39.50
  L 135.75 33.25
  C 135.77 33.03 135.56 32.80 135.25 32.70
  L 134.68 32.51
  Q 134.14 32.34 134.69 32.02
  Q 137.07 30.64 135.94 27.70
  Q 135.78 27.28 135.79 26.75
  Q 135.84 24.58 133.50 24.56
  Q 127.11 24.51 120.74 24.96
  C 120.46 24.99 120.17 25.13 119.92 25.38
  Q 118.68 26.65 116.75 26.25
  Q 115.97 26.09 113.99 26.42
  C 113.65 26.48 113.33 26.36 113.16 26.13
  Q 112.81 25.65 112.72 25.05
  C 112.67 24.76 112.46 24.55 112.20 24.53
  Q 109.16 24.38 106.14 24.71
  Q 106.09 24.72 104.53 25.15
  Q 103.29 25.50 102.24 24.49
  Q 101.05 23.34 99.44 23.76
  Q 96.67 24.49 93.75 24.75
  Q 92.09 24.90 91.25 25.79
  Z
  M 140.01 37.11
  Q 140.61 35.60 139.72 35.82
  C 139.43 35.89 139.20 36.15 139.15 36.48
  Q 138.99 37.43 139.33 37.60
  C 139.55 37.71 139.86 37.48 140.01 37.11
  Z
  M 140.95 40.50
  Q 141.23 39.71 140.56 39.58
  C 140.31 39.53 140.09 39.78 140.12 40.07
  Q 140.55 43.51 140.78 41.15
  Q 140.81 40.90 140.95 40.50
  Z
  M 145.29 52.00
  L 135.41 58.22
  C 135.15 58.38 134.83 58.31 134.74 58.07
  L 133.96 56.00
  Q 134.03 55.13 134.21 54.30
  Q 134.78 51.74 132.00 52.54
  Q 129.02 52.15 125.00 53.25
  Q 123.90 53.55 122.66 52.78
  C 122.39 52.61 122.06 52.59 121.80 52.72
  Q 117.50 54.93 116.46 59.75
  Q 116.09 60.72 115.83 61.70
  Q 115.41 63.25 116.80 62.63
  C 116.97 62.55 117.02 62.32 116.92 62.11
  Q 116.71 61.71 117.71 61.75
  Q 118.25 63.00 117.91 64.28
  C 117.82 64.59 117.86 64.92 118.03 65.17
  Q 119.48 67.43 120.10 70.51
  C 120.27 71.34 121.11 71.84 121.92 71.60
  Q 126.60 70.19 131.15 70.67
  Q 133.46 70.92 135.30 70.43
  Q 139.63 69.28 140.75 69.50
  Q 144.26 70.21 147.11 67.79
  C 147.54 67.43 148.19 67.57 148.43 68.08
  Q 149.78 70.95 150.99 69.19
  C 151.18 68.92 151.45 68.74 151.75 68.69
  Q 154.30 68.24 154.72 65.49
  Q 155.64 59.47 153.57 52.93
  C 153.44 52.51 153.05 52.23 152.60 52.23
  L 147.75 52.21
  Q 146.32 50.40 145.29 52.00
  Z
  M 63.96 56.48
  Q 64.11 57.32 64.52 56.85
  C 64.67 56.67 64.64 56.39 64.45 56.20
  Q 62.53 54.33 63.84 56.17
  Q 63.93 56.30 63.96 56.48
  Z
  M 73.58 56.20
  Q 67.63 53.63 65.58 58.08
  Q 64.30 60.84 64.38 64.02
  Q 64.46 67.67 67.56 69.69
  Q 71.43 72.20 74.19 68.94
  Q 75.19 67.76 74.66 65.97
  Q 74.56 65.62 74.59 65.01
  L 75.01 58.23
  C 75.06 57.40 74.49 56.59 73.58 56.20
  Z
  M 146.34 70.31
  Q 146.24 68.44 145.63 70.53
  C 145.53 70.86 145.62 71.19 145.84 71.37
  Q 146.42 71.84 146.34 70.31
  Z"
/>
<path fill="#0b0406" d="
  M 65.50 0.96
  L 67.96 1.16
  C 68.21 1.18 68.36 1.49 68.25 1.78
  Q 67.36 4.34 70.00 4.70
  C 70.32 4.74 70.60 4.92 70.77 5.17
  L 73.72 9.60
  C 73.86 9.80 74.13 9.98 74.49 10.12
  Q 75.78 10.58 75.29 12.50
  Q 75.21 13.60 74.77 14.57
  Q 74.19 15.85 74.22 16.56
  Q 74.35 20.16 78.00 21.25
  Q 79.80 21.79 82.26 21.35
  Q 82.73 21.26 83.23 21.40
  Q 86.22 22.23 88.34 20.29
  C 88.52 20.12 88.68 19.82 88.78 19.44
  Q 89.20 17.89 91.00 18.79
  Q 88.28 22.71 83.74 22.41
  Q 81.37 22.25 81.25 22.24
  Q 79.11 22.21 76.99 22.04
  C 76.70 22.01 76.40 21.87 76.15 21.63
  L 73.07 18.59
  C 72.91 18.42 72.60 18.45 72.39 18.66
  L 70.11 20.93
  Q 69.58 21.45 69.46 21.63
  Q 68.96 22.39 68.30 21.65
  C 68.06 21.39 67.77 21.24 67.50 21.23
  Q 63.69 21.16 60.86 24.02
  C 60.62 24.26 60.23 24.22 60.04 23.94
  Q 59.22 22.71 58.70 23.26
  C 58.44 23.53 58.14 23.66 57.95 23.58
  Q 57.30 23.33 57.21 22.50
  Q 58.98 21.17 60.62 22.42
  C 60.85 22.60 61.17 22.61 61.39 22.44
  L 65.28 19.59
  C 65.51 19.42 65.83 19.44 66.07 19.62
  Q 69.09 21.93 71.06 18.31
  Q 72.00 16.59 72.60 15.11
  Q 73.24 13.52 72.78 11.72
  Q 72.35 10.06 71.82 8.44
  Q 71.42 7.21 70.63 6.43
  Q 69.77 5.58 68.75 4.92
  Q 67.41 4.05 65.41 4.20
  Q 59.59 4.62 53.75 4.71
  Q 53.13 0.20 53.25 4.71
  Q 52.57 5.19 51.75 4.96
  Q 52.01 3.51 51.22 3.60
  C 50.92 3.64 50.72 3.93 50.77 4.24
  Q 50.86 4.77 51.25 5.21
  Q 50.14 5.42 49.20 5.95
  Q 48.30 6.47 47.82 7.52
  Q 46.67 10.09 46.91 12.96
  Q 46.97 13.72 46.90 14.53
  Q 46.71 16.62 47.89 15.95
  Q 48.77 15.45 49.24 15.32
  Q 52.14 14.51 54.06 12.29
  Q 55.06 11.13 55.95 10.87
  Q 57.16 10.52 58.44 10.63
  Q 58.96 10.67 58.47 10.87
  Q 56.00 11.90 53.95 13.57
  Q 53.82 13.67 51.21 15.47
  Q 48.50 17.33 49.42 20.95
  C 49.50 21.26 49.74 21.50 50.05 21.57
  Q 52.20 22.05 54.25 21.04
  Q 54.53 23.24 52.95 22.69
  Q 52.46 22.52 52.01 22.58
  Q 50.61 22.77 49.28 22.35
  C 48.98 22.26 48.73 22.03 48.62 21.73
  L 46.92 17.47
  Q 46.72 16.96 46.50 17.44
  Q 46.05 18.43 46.64 19.41
  C 46.81 19.68 46.76 20.00 46.54 20.11
  Q 45.96 20.40 45.25 19.96
  Q 45.14 14.71 44.52 9.50
  Q 44.18 6.63 41.75 5.21
  Q 42.45 4.80 43.11 5.01
  Q 43.60 5.16 43.98 5.89
  Q 44.56 7.00 45.28 8.03
  C 45.44 8.26 45.75 8.31 45.97 8.14
  Q 48.30 6.32 49.29 3.38
  C 49.38 3.11 49.23 2.82 48.96 2.73
  Q 44.21 1.19 48.75 1.21
  Q 50.45 1.39 52.11 1.12
  Q 53.97 0.83 55.40 1.04
  Q 60.44 1.80 65.50 0.96
  Z"
/>
<path fill="#2a1217" d="
  M 19.71 5.50
  L 14.25 5.21
  Q 18.55 4.38 15.56 3.99
  C 15.24 3.95 14.98 3.73 14.93 3.46
  Q 14.80 2.67 15.23 2.11
  Q 15.56 1.69 16.31 1.56
  Q 20.66 0.83 19.71 5.50
  Z"
/>
<path fill="#792b33" d="
  M 53.75 4.71
  Q 53.50 4.79 53.25 4.71
  Q 53.13 0.20 53.75 4.71
  Z"
/>
<path fill="#2a1217" d="
  M 151.94 3.07
  C 151.94 2.90 152.08 2.76 152.25 2.75
  Q 153.51 2.69 153.01 3.49
  C 152.66 4.06 152.64 4.77 152.96 5.36
  Q 154.57 8.34 153.96 10.05
  Q 153.78 10.57 153.52 10.07
  Q 151.83 6.79 151.94 3.07
  Z"
/>
<path fill="#0b0406" d="
  M 156.50 2.96
  Q 156.95 8.80 156.91 14.66
  Q 156.86 22.42 156.95 26.35
  Q 157.14 34.67 156.79 43.00
  Q 157.13 41.38 156.00 41.42
  C 155.73 41.43 155.49 41.67 155.40 42.00
  Q 155.17 42.86 154.54 43.50
  Q 153.63 39.77 154.50 36.00
  Q 154.93 34.14 155.29 27.75
  Q 156.24 26.02 155.21 24.25
  Q 155.26 23.60 154.96 23.00
  Q 154.33 18.91 154.50 23.04
  L 153.75 24.04
  Q 152.94 23.54 152.22 23.90
  Q 151.79 24.12 151.87 23.69
  L 152.54 20.25
  Q 153.79 19.13 154.44 16.94
  Q 155.12 14.65 155.46 12.81
  Q 155.78 11.08 155.27 8.74
  Q 154.84 6.70 154.55 4.64
  Q 154.53 4.51 154.37 3.90
  Q 154.02 2.58 156.50 2.96
  Z
  M 155.2220 20.0277
  C 155.42 20.06 155.66 19.57 155.7560 18.9441
  C 155.85 18.32 155.76 17.78 155.5580 17.7523
  C 155.36 17.72 155.12 18.21 155.0240 18.8359
  C 154.93 19.46 155.02 20.00 155.2220 20.0277
  Z"
/>
<path fill="#dbbdaf" d="
  M 51.75 4.96
  Q 51.52 5.17 51.25 5.21
  Q 50.86 4.77 50.77 4.24
  C 50.72 3.93 50.92 3.64 51.22 3.60
  Q 52.01 3.51 51.75 4.96
  Z"
/>
<path fill="#ffffff" d="
  M 130.54 11.75
  L 130.03 10.93
  C 129.90 10.72 129.59 10.56 129.19 10.50
  Q 127.33 10.23 125.88 9.07
  C 125.67 8.91 125.37 8.99 125.32 9.22
  Q 125.14 10.04 126.06 10.44
  Q 128.05 11.30 128.28 13.19
  C 128.32 13.48 128.55 13.70 128.81 13.67
  Q 130.03 13.53 130.79 12.50
  Q 133.92 13.31 135.09 16.29
  C 135.20 16.59 135.18 16.92 135.02 17.19
  Q 133.55 19.70 128.89 19.78
  C 127.97 19.80 127.14 19.24 126.81 18.38
  Q 126.78 18.29 125.87 17.80
  C 125.55 17.62 125.21 17.57 124.94 17.66
  Q 123.95 17.98 124.30 19.05
  C 124.38 19.26 124.66 19.31 124.84 19.14
  Q 125.81 18.23 125.97 19.52
  Q 126.03 19.97 125.87 20.46
  Q 124.92 23.46 122.98 19.81
  C 122.84 19.54 122.49 19.45 122.23 19.62
  Q 120.79 20.58 120.96 19.25
  L 120.65 15.77
  C 120.60 15.20 120.95 14.70 121.45 14.61
  Q 125.81 13.84 127.45 16.62
  C 127.63 16.92 127.91 17.10 128.19 17.11
  Q 129.73 17.17 128.31 15.44
  Q 126.72 13.49 125.31 13.56
  Q 120.91 13.79 116.50 13.75
  Q 113.66 13.72 112.11 12.36
  Q 111.62 11.92 111.59 12.47
  Q 111.57 12.94 111.95 13.59
  C 112.23 14.06 112.09 14.68 111.63 14.98
  Q 107.74 17.52 103.25 19.04
  Q 100.97 20.62 98.75 18.96
  Q 96.89 16.52 97.25 13.75
  Q 97.73 10.13 96.96 7.25
  Q 96.85 6.40 97.16 5.70
  Q 97.45 5.07 98.23 4.72
  Q 100.82 3.54 103.38 4.93
  C 103.74 5.13 104.08 5.21 104.31 5.15
  L 106.29 4.68
  Q 106.94 4.53 107.24 4.57
  Q 110.91 5.02 114.49 3.96
  Q 115.97 3.52 117.40 3.81
  Q 119.62 4.25 120.18 4.26
  Q 124.90 4.30 129.22 4.48
  C 129.79 4.50 130.29 4.88 130.47 5.42
  Q 131.75 9.22 130.54 11.75
  Z"
/>
<path fill="#ffffff" d="
  M 57.21 22.50
  L 56.54 22.50
  Q 56.21 19.76 54.71 21.00
  L 54.25 21.04
  Q 52.20 22.05 50.05 21.57
  C 49.74 21.50 49.50 21.26 49.42 20.95
  Q 48.50 17.33 51.21 15.47
  Q 53.82 13.67 53.95 13.57
  Q 56.00 11.90 58.47 10.87
  Q 58.96 10.67 58.44 10.63
  Q 57.16 10.52 55.95 10.87
  Q 55.06 11.13 54.06 12.29
  Q 52.14 14.51 49.24 15.32
  Q 48.77 15.45 47.89 15.95
  Q 46.71 16.62 46.90 14.53
  Q 46.97 13.72 46.91 12.96
  Q 46.67 10.09 47.82 7.52
  Q 48.30 6.47 49.20 5.95
  Q 50.14 5.42 51.25 5.21
  Q 51.52 5.17 51.75 4.96
  Q 52.57 5.19 53.25 4.71
  Q 53.50 4.79 53.75 4.71
  Q 59.59 4.62 65.41 4.20
  Q 67.41 4.05 68.75 4.92
  Q 69.77 5.58 70.63 6.43
  Q 71.42 7.21 71.82 8.44
  Q 72.35 10.06 72.78 11.72
  Q 73.24 13.52 72.60 15.11
  Q 72.00 16.59 71.06 18.31
  Q 69.09 21.93 66.07 19.62
  C 65.83 19.44 65.51 19.42 65.28 19.59
  L 61.39 22.44
  C 61.17 22.61 60.85 22.60 60.62 22.42
  Q 58.98 21.17 57.21 22.50
  Z"
/>
<path fill="#9a636d" d="
  M 149.50 5.46
  L 144.75 5.21
  Q 147.21 3.04 149.50 5.46
  Z"
/>
<path fill="#ffffff" d="
  M 41.75 5.21
  Q 44.18 6.63 44.52 9.50
  Q 45.14 14.71 45.25 19.96
  Q 44.24 20.04 43.25 19.71
  L 41.02 13.76
  C 40.89 13.40 40.45 13.24 40.04 13.39
  Q 38.22 14.09 36.86 13.34
  C 36.59 13.19 36.27 13.12 35.94 13.14
  L 33.50 13.29
  L 33.04 13.00
  Q 33.11 10.54 31.63 8.69
  Q 31.40 8.40 31.47 8.79
  L 31.94 11.69
  C 31.97 11.90 31.87 12.23 31.67 12.60
  L 27.71 19.79
  C 27.54 20.11 27.28 20.32 27.01 20.38
  Q 24.60 20.90 23.79 18.61
  Q 23.18 16.87 23.02 18.71
  Q 22.85 20.81 21.82 22.32
  Q 21.22 23.20 20.75 22.21
  Q 21.19 19.79 17.88 19.65
  Q 17.07 19.61 17.78 20.02
  Q 19.39 20.94 19.04 22.75
  Q 16.36 24.51 13.73 23.07
  C 13.50 22.94 13.20 22.99 12.98 23.19
  Q 12.30 23.78 11.42 23.28
  C 11.13 23.12 10.80 23.07 10.52 23.15
  Q 8.23 23.76 6.91 22.16
  Q 6.07 21.15 5.87 19.01
  Q 5.48 14.85 6.00 10.25
  Q 6.33 7.36 8.40 5.84
  C 8.60 5.69 8.92 5.60 9.31 5.57
  L 14.25 5.21
  L 19.71 5.50
  Q 24.57 6.89 29.19 5.34
  Q 31.71 4.50 33.46 4.50
  Q 35.86 4.50 38.25 4.50
  Q 40.64 4.50 41.75 5.21
  Z"
/>
<path fill="#ffffff" d="
  M 144.75 5.21
  L 149.50 5.46
  Q 150.20 5.94 150.31 6.19
  Q 152.61 11.24 153.20 16.75
  C 153.23 17.03 153.14 17.36 152.95 17.66
  Q 152.22 18.79 152.54 20.25
  L 151.87 23.69
  Q 151.79 24.12 152.22 23.90
  Q 152.94 23.54 153.75 24.04
  L 154.04 24.50
  L 155.29 27.75
  Q 154.93 34.14 154.50 36.00
  Q 153.63 39.77 154.54 43.50
  Q 154.07 50.59 148.63 48.99
  Q 146.93 48.49 145.30 46.86
  Q 143.88 45.43 142.57 43.88
  C 142.39 43.67 142.40 43.36 142.58 43.13
  Q 143.96 41.39 142.02 40.39
  C 141.74 40.25 141.56 39.98 141.55 39.68
  Q 141.42 36.93 140.22 34.44
  C 140.08 34.15 140.05 33.83 140.12 33.51
  Q 140.74 30.71 140.00 27.50
  Q 139.17 23.92 139.63 19.55
  C 139.66 19.27 139.59 18.95 139.43 18.63
  L 137.95 15.71
  C 137.82 15.45 137.83 15.11 137.98 14.80
  Q 139.02 12.64 138.25 11.00
  Q 136.85 8.01 139.15 6.92
  Q 139.52 6.74 141.90 6.74
  Q 143.56 6.74 144.75 5.21
  Z"
/>
<path fill="#ffffff" d="
  M 95.00 7.04
  Q 96.69 12.66 95.75 18.46
  L 91.00 18.79
  Q 89.20 17.89 88.78 19.44
  C 88.68 19.82 88.52 20.12 88.34 20.29
  Q 86.22 22.23 83.23 21.40
  Q 82.73 21.26 82.26 21.35
  Q 79.80 21.79 78.00 21.25
  Q 74.35 20.16 74.22 16.56
  Q 74.19 15.85 74.77 14.57
  Q 75.21 13.60 75.29 12.50
  Q 75.89 10.57 75.50 8.50
  C 75.38 7.86 76.13 7.10 77.25 6.75
  Q 79.00 6.20 80.71 6.66
  Q 81.11 6.77 81.52 7.17
  Q 82.83 8.44 84.75 8.28
  Q 87.02 8.09 89.04 9.02
  C 89.37 9.17 89.73 9.09 89.80 8.85
  Q 89.92 8.43 89.31 7.94
  Q 86.12 5.38 90.25 5.99
  Q 92.66 6.35 95.00 7.04
  Z"
/>
<path fill="#0b0406" d="
  M 96.96 7.25
  Q 97.73 10.13 97.25 13.75
  Q 96.89 16.52 98.75 18.96
  L 95.75 18.46
  Q 96.69 12.66 95.00 7.04
  Q 96.18 5.74 96.96 7.25
  Z"
/>
<path fill="#2a1217" d="
  M 130.54 11.75
  L 130.79 12.50
  Q 130.03 13.53 128.81 13.67
  C 128.55 13.70 128.32 13.48 128.28 13.19
  Q 128.05 11.30 126.06 10.44
  Q 125.14 10.04 125.32 9.22
  C 125.37 8.99 125.67 8.91 125.88 9.07
  Q 127.33 10.23 129.19 10.50
  C 129.59 10.56 129.90 10.72 130.03 10.93
  L 130.54 11.75
  Z"
/>
<path fill="#ffffff" d="
  M 132.68 9.83
  Q 133.31 9.82 133.42 10.69
  C 133.46 11.01 133.28 11.30 132.99 11.41
  Q 132.06 11.74 132.13 10.44
  C 132.15 10.10 132.39 9.84 132.68 9.83
  Z"
/>
<path fill="#9a636d" d="
  M 136.24 11.55
  Q 137.01 10.67 136.82 12.51
  Q 136.44 16.12 135.99 12.42
  C 135.95 12.09 136.04 11.77 136.24 11.55
  Z"
/>
<path fill="#0b0406" d="
  M 120.96 19.25
  L 120.54 19.75
  Q 119.98 17.54 120.35 15.30
  C 120.39 15.01 120.22 14.74 119.96 14.69
  Q 119.39 14.58 118.80 14.62
  Q 117.84 14.69 117.21 14.60
  Q 113.41 14.07 110.88 16.93
  C 110.63 17.22 110.52 17.56 110.59 17.82
  L 111.29 20.25
  Q 111.06 21.75 110.29 20.75
  L 109.45 18.72
  C 109.33 18.44 109.05 18.28 108.77 18.33
  Q 106.22 18.82 104.25 20.54
  Q 102.94 20.35 103.25 19.04
  Q 107.74 17.52 111.63 14.98
  C 112.09 14.68 112.23 14.06 111.95 13.59
  Q 111.57 12.94 111.59 12.47
  Q 111.62 11.92 112.11 12.36
  Q 113.66 13.72 116.50 13.75
  Q 120.91 13.79 125.31 13.56
  Q 126.72 13.49 128.31 15.44
  Q 129.73 17.17 128.19 17.11
  C 127.91 17.10 127.63 16.92 127.45 16.62
  Q 125.81 13.84 121.45 14.61
  C 120.95 14.70 120.60 15.20 120.65 15.77
  L 120.96 19.25
  Z"
/>
<path fill="#ffffff" d="
  M 33.04 13.00
  L 33.50 13.29
  Q 32.93 14.20 33.75 14.20
  Q 36.80 14.21 39.82 14.62
  C 40.14 14.66 40.41 14.85 40.55 15.13
  Q 41.74 17.55 41.34 20.26
  C 41.30 20.50 41.06 20.68 40.76 20.70
  L 36.25 20.96
  Q 35.53 21.06 35.24 21.76
  Q 34.82 22.80 34.21 21.86
  Q 33.50 20.74 33.10 19.55
  Q 32.34 17.34 31.89 19.73
  Q 31.39 22.34 30.01 20.17
  C 29.84 19.91 29.78 19.58 29.85 19.26
  Q 30.64 15.77 33.04 13.00
  Z
  M 34.4625 19.9800
  C 34.72 19.98 34.93 19.65 34.9300 19.2484
  C 34.93 18.85 34.72 18.52 34.4575 18.5200
  C 34.20 18.52 33.99 18.85 33.9900 19.2516
  C 33.99 19.65 34.20 19.98 34.4625 19.9800
  Z"
/>
<path fill="#0b0406" d="
  M 43.25 19.71
  L 42.60 20.71
  C 42.39 21.04 42.13 21.25 41.94 21.24
  L 36.25 20.96
  L 40.76 20.70
  C 41.06 20.68 41.30 20.50 41.34 20.26
  Q 41.74 17.55 40.55 15.13
  C 40.41 14.85 40.14 14.66 39.82 14.62
  Q 36.80 14.21 33.75 14.20
  Q 32.93 14.20 33.50 13.29
  L 35.94 13.14
  C 36.27 13.12 36.59 13.19 36.86 13.34
  Q 38.22 14.09 40.04 13.39
  C 40.45 13.24 40.89 13.40 41.02 13.76
  L 43.25 19.71
  Z"
/>
<path fill="#ffffff" d="
  M 120.54 19.75
  Q 120.64 20.81 120.04 21.57
  C 119.89 21.77 119.56 21.85 119.21 21.78
  L 111.29 20.25
  L 110.59 17.82
  C 110.52 17.56 110.63 17.22 110.88 16.93
  Q 113.41 14.07 117.21 14.60
  Q 117.84 14.69 118.80 14.62
  Q 119.39 14.58 119.96 14.69
  C 120.22 14.74 120.39 15.01 120.35 15.30
  Q 119.98 17.54 120.54 19.75
  Z"
/>
<ellipse fill="#792b33" cx="0.00" cy="0.00" transform="translate(155.39,18.89) rotate(98.4)" rx="1.15" ry="0.37"/>
<path fill="#983240" d="
  M 135.51 19.19
  Q 135.68 18.53 136.22 18.23
  C 136.46 18.10 136.77 18.25 136.83 18.53
  L 138.19 25.26
  C 138.26 25.58 138.40 25.87 138.62 26.09
  Q 139.47 26.97 138.49 27.36
  C 138.23 27.46 137.92 27.33 137.79 27.05
  L 135.90 23.02
  C 135.77 22.75 135.50 22.57 135.19 22.57
  Q 129.93 22.62 134.99 19.92
  C 135.24 19.79 135.43 19.52 135.51 19.19
  Z"
/>
<path fill="#983240" d="
  M 110.29 20.75
  Q 110.21 23.09 107.81 23.31
  Q 106.37 23.45 104.52 24.23
  C 104.23 24.36 103.90 24.30 103.70 24.08
  Q 101.88 22.11 104.25 20.54
  Q 106.22 18.82 108.77 18.33
  C 109.05 18.28 109.33 18.44 109.45 18.72
  L 110.29 20.75
  Z"
/>
<ellipse fill="#792b33" cx="0.00" cy="0.00" transform="translate(34.46,19.25) rotate(89.8)" rx="0.73" ry="0.47"/>
<path fill="#9a636d" d="
  M 20.75 22.21
  Q 19.85 22.27 19.04 22.75
  Q 19.39 20.94 17.78 20.02
  Q 17.07 19.61 17.88 19.65
  Q 21.19 19.79 20.75 22.21
  Z"
/>
<path fill="#0b0406" d="
  M 56.54 22.50
  Q 56.88 23.85 56.72 25.23
  Q 56.68 25.49 56.56 25.61
  Q 56.42 25.75 56.25 25.63
  C 56.14 25.56 56.07 25.39 56.06 25.18
  Q 55.98 22.91 54.71 21.00
  Q 56.21 19.76 56.54 22.50
  Z"
/>
<path fill="#dbbdaf" d="
  M 154.96 23.00
  L 154.50 23.04
  Q 154.33 18.91 154.96 23.00
  Z"
/>
<path fill="#792b33" d="
  M 154.50 23.04
  L 154.96 23.00
  Q 155.26 23.60 155.21 24.25
  L 154.04 24.50
  L 153.75 24.04
  L 154.50 23.04
  Z"
/>
<path fill="#ffffff" d="
  M 135.21 39.50
  Q 134.88 41.03 133.50 41.54
  Q 132.56 40.48 131.27 39.88
  C 130.98 39.75 130.76 39.51 130.65 39.22
  Q 129.20 35.36 125.30 34.09
  C 124.99 33.99 124.83 33.68 124.98 33.46
  L 127.61 29.61
  Q 128.05 28.98 127.34 29.03
  Q 125.15 29.17 124.13 31.46
  C 124.01 31.73 123.77 31.95 123.46 32.07
  L 118.02 34.10
  C 117.72 34.21 117.57 34.53 117.69 34.79
  Q 118.12 35.72 119.72 35.17
  Q 124.69 33.48 127.90 37.37
  Q 129.60 39.43 133.25 44.50
  Q 134.50 46.24 133.52 47.57
  C 133.35 47.79 133.04 47.92 132.69 47.92
  Q 131.00 47.90 129.45 48.55
  C 129.16 48.67 128.84 48.71 128.51 48.66
  Q 126.47 48.35 125.10 49.63
  C 124.88 49.84 124.57 49.90 124.30 49.79
  Q 122.60 49.12 121.09 50.14
  C 120.82 50.32 120.50 50.40 120.18 50.37
  Q 118.57 50.20 117.32 50.83
  C 116.90 51.05 116.41 51.11 115.95 50.99
  Q 112.26 50.06 109.15 49.54
  Q 108.94 49.50 106.29 48.83
  Q 104.83 48.46 103.30 48.62
  C 103.08 48.65 102.78 48.53 102.47 48.31
  L 101.75 47.79
  Q 98.65 47.06 99.60 44.03
  Q 100.25 41.99 97.14 43.26
  C 96.89 43.36 96.80 43.67 96.95 43.89
  L 100.04 48.50
  Q 99.82 49.39 98.75 49.46
  Q 94.90 50.75 91.25 50.25
  Q 87.97 49.80 88.05 46.61
  Q 88.05 46.54 88.16 46.04
  Q 88.29 45.41 87.50 45.21
  Q 85.91 43.75 86.94 41.19
  Q 87.87 38.86 87.60 35.31
  C 87.58 35.01 87.67 34.69 87.85 34.40
  Q 88.64 33.12 88.50 31.65
  Q 88.37 30.28 88.45 29.71
  Q 88.59 28.75 88.75 27.79
  L 91.25 25.79
  Q 92.09 24.90 93.75 24.75
  Q 96.67 24.49 99.44 23.76
  Q 101.05 23.34 102.24 24.49
  Q 103.29 25.50 104.53 25.15
  Q 106.09 24.72 106.14 24.71
  Q 109.16 24.38 112.20 24.53
  C 112.46 24.55 112.67 24.76 112.72 25.05
  Q 112.81 25.65 113.16 26.13
  C 113.33 26.36 113.65 26.48 113.99 26.42
  Q 115.97 26.09 116.75 26.25
  Q 118.68 26.65 119.92 25.38
  C 120.17 25.13 120.46 24.99 120.74 24.96
  Q 127.11 24.51 133.50 24.56
  Q 135.84 24.58 135.79 26.75
  Q 135.78 27.28 135.94 27.70
  Q 137.07 30.64 134.69 32.02
  Q 134.14 32.34 134.68 32.51
  L 135.25 32.70
  C 135.56 32.80 135.77 33.03 135.75 33.25
  L 135.21 39.50
  Z"
/>
<path fill="#0b0406" d="
  M 66.54 26.75
  Q 64.56 27.87 62.19 27.64
  Q 56.69 27.11 51.19 27.39
  Q 49.44 27.48 47.92 26.92
  Q 46.33 26.32 44.75 25.71
  Q 46.31 24.96 48.28 26.39
  C 48.49 26.54 48.79 26.44 48.87 26.20
  Q 49.92 23.22 49.83 25.96
  C 49.82 26.26 50.01 26.52 50.28 26.58
  Q 51.73 26.90 51.58 25.25
  Q 51.49 24.36 51.95 24.63
  Q 52.23 24.80 52.42 25.65
  C 52.49 25.96 52.75 26.18 53.04 26.19
  L 66.22 26.32
  C 66.37 26.33 66.49 26.41 66.51 26.53
  L 66.54 26.75
  Z"
/>
<path fill="#9a636d" d="
  M 155.21 24.25
  Q 156.24 26.02 155.29 27.75
  L 154.04 24.50
  L 155.21 24.25
  Z"
/>
<path fill="#0b0406" d="
  M 44.29 25.75
  Q 43.96 27.64 42.92 27.25
  C 42.00 26.90 40.98 27.02 40.17 27.57
  Q 37.45 29.39 37.43 26.92
  Q 37.42 26.07 36.71 26.53
  Q 32.10 29.48 36.64 32.42
  Q 37.06 32.70 37.30 33.13
  Q 39.73 37.52 43.75 38.75
  Q 52.01 41.27 54.02 42.27
  Q 54.86 42.69 54.39 42.86
  C 54.22 42.92 53.99 42.90 53.76 42.79
  Q 51.80 41.86 49.67 41.57
  Q 47.09 41.21 45.62 40.62
  Q 43.71 39.85 41.58 39.10
  C 41.13 38.94 40.63 39.24 40.54 39.74
  L 39.75 43.75
  Q 39.37 45.67 39.25 43.75
  Q 39.08 41.08 39.64 38.49
  C 39.70 38.18 39.62 37.86 39.41 37.65
  Q 35.77 33.88 32.00 30.25
  Q 31.70 29.96 31.71 29.25
  Q 32.51 28.19 33.72 27.63
  Q 34.17 27.42 34.49 27.05
  Q 36.12 25.11 38.50 26.25
  Q 39.73 26.84 42.46 26.08
  C 42.67 26.02 42.94 25.82 43.22 25.53
  Q 43.74 24.99 44.29 25.75
  Z"
/>
<path fill="#ffffff" d="
  M 44.29 25.75
  L 44.75 25.71
  Q 46.33 26.32 47.92 26.92
  Q 49.44 27.48 51.19 27.39
  Q 56.69 27.11 62.19 27.64
  Q 64.56 27.87 66.54 26.75
  Q 67.56 26.88 67.40 27.77
  C 67.34 28.09 67.47 28.38 67.71 28.46
  L 70.00 29.29
  L 74.06 33.69
  C 74.45 34.11 75.11 34.21 75.70 33.95
  Q 79.04 32.46 79.15 31.87
  Q 79.23 31.44 78.35 31.75
  Q 76.37 32.43 75.75 30.75
  Q 74.88 28.38 77.06 27.00
  C 77.35 26.81 77.69 26.75 77.99 26.82
  L 83.96 28.25
  L 84.75 38.22
  C 84.81 39.00 84.62 39.77 84.20 40.42
  Q 82.25 43.46 83.01 47.06
  C 83.10 47.50 82.90 47.94 82.51 48.12
  L 74.25 51.79
  Q 73.41 51.38 72.50 51.54
  L 66.01 53.30
  Q 63.19 54.07 61.20 53.07
  Q 58.04 51.48 54.41 51.50
  C 53.41 51.51 52.44 51.81 51.63 52.38
  Q 49.93 53.56 48.28 53.47
  Q 46.41 53.37 46.34 53.38
  Q 41.57 53.70 36.80 54.03
  Q 34.86 54.17 32.46 53.43
  Q 29.93 52.65 27.25 52.46
  L 25.59 45.34
  Q 25.49 44.91 25.57 44.32
  Q 26.59 36.89 26.00 30.75
  Q 28.97 31.44 26.71 29.50
  Q 26.61 28.55 27.21 28.22
  C 27.43 28.09 27.77 28.17 28.05 28.40
  Q 29.64 29.71 31.71 29.25
  Q 31.70 29.96 32.00 30.25
  Q 35.77 33.88 39.41 37.65
  C 39.62 37.86 39.70 38.18 39.64 38.49
  Q 39.08 41.08 39.25 43.75
  Q 39.37 45.67 39.75 43.75
  L 40.54 39.74
  C 40.63 39.24 41.13 38.94 41.58 39.10
  Q 43.71 39.85 45.62 40.62
  Q 47.09 41.21 49.67 41.57
  Q 51.80 41.86 53.76 42.79
  C 53.99 42.90 54.22 42.92 54.39 42.86
  Q 54.86 42.69 54.02 42.27
  Q 52.01 41.27 43.75 38.75
  Q 39.73 37.52 37.30 33.13
  Q 37.06 32.70 36.64 32.42
  Q 32.10 29.48 36.71 26.53
  Q 37.42 26.07 37.43 26.92
  Q 37.45 29.39 40.17 27.57
  C 40.98 27.02 42.00 26.90 42.92 27.25
  Q 43.96 27.64 44.29 25.75
  Z
  M 58.61 33.98
  Q 58.04 34.03 58.38 34.49
  Q 59.04 35.37 59.99 35.49
  C 60.31 35.53 60.63 35.37 60.80 35.10
  Q 61.66 33.72 58.61 33.98
  Z"
/>
<path fill="#0b0406" d="
  M 91.25 25.79
  L 88.75 27.79
  Q 87.91 28.04 88.30 27.20
  Q 88.42 26.94 88.67 26.76
  Q 89.82 25.92 91.25 25.79
  Z"
/>
<path fill="#0b0406" d="
  M 83.96 28.25
  L 77.99 26.82
  C 77.69 26.75 77.35 26.81 77.06 27.00
  Q 74.88 28.38 75.75 30.75
  Q 76.37 32.43 78.35 31.75
  Q 79.23 31.44 79.15 31.87
  Q 79.04 32.46 75.70 33.95
  C 75.11 34.21 74.45 34.11 74.06 33.69
  L 70.00 29.29
  Q 70.80 28.74 72.31 30.79
  C 72.75 31.39 73.38 31.82 74.09 32.03
  Q 76.08 32.59 74.75 30.50
  Q 74.33 29.83 74.39 28.68
  C 74.41 28.41 74.60 28.14 74.90 27.97
  Q 75.90 27.43 76.51 26.30
  C 76.66 26.03 76.97 25.88 77.27 25.95
  Q 80.22 26.57 83.00 26.75
  Q 84.27 26.83 83.96 28.25
  Z"
/>
<path fill="#ffffff" d="
  M 23.25 34.54
  Q 24.59 41.22 21.70 47.38
  Q 20.98 48.91 20.48 50.89
  Q 20.24 51.83 20.95 51.16
  L 22.63 49.59
  C 22.81 49.42 23.10 49.49 23.19 49.72
  Q 23.96 51.81 23.50 54.00
  Q 22.53 58.70 22.73 63.50
  Q 23.01 69.98 16.75 70.96
  Q 13.44 72.06 10.05 71.52
  C 9.74 71.48 9.46 71.29 9.29 71.02
  Q 5.63 65.25 6.20 58.41
  Q 6.23 57.93 6.83 56.34
  Q 7.15 55.48 7.03 54.56
  C 7.00 54.29 6.84 53.98 6.59 53.69
  Q 5.23 52.08 5.54 50.00
  Q 7.12 49.28 6.79 47.49
  Q 6.50 45.94 6.43 47.51
  Q 6.37 48.83 5.29 49.25
  Q 5.48 42.52 5.66 35.79
  Q 5.66 35.73 5.56 33.33
  Q 5.39 29.29 8.83 27.01
  C 9.10 26.83 9.44 26.83 9.67 27.01
  L 12.89 29.42
  C 13.17 29.64 13.49 29.72 13.73 29.63
  L 19.02 27.72
  C 19.72 27.47 20.44 28.02 20.33 28.73
  Q 19.52 33.86 16.46 37.39
  Q 16.29 37.59 16.26 37.79
  Q 16.24 37.90 16.24 38.02
  C 16.24 38.13 16.35 38.19 16.45 38.14
  Q 19.91 36.24 20.50 34.75
  Q 22.15 30.62 23.25 34.54
  Z"
/>
<path fill="#dbbdaf" d="
  M 26.71 29.50
  Q 28.97 31.44 26.00 30.75
  L 26.71 29.50
  Z"
/>
<path fill="#2a1217" d="
  M 26.00 30.75
  Q 26.59 36.89 25.57 44.32
  Q 25.49 44.91 25.59 45.34
  L 27.25 52.46
  L 25.98 53.11
  C 25.65 53.28 25.41 53.51 25.34 53.72
  Q 24.33 57.05 25.79 60.25
  Q 25.83 65.19 27.31 68.44
  Q 28.89 71.89 33.25 71.54
  L 33.25 75.21
  L 16.25 75.21
  Q 16.03 74.36 16.39 73.71
  C 16.51 73.48 16.47 73.20 16.28 73.01
  Q 15.60 72.36 16.61 71.60
  Q 16.74 71.50 16.93 71.48
  Q 19.58 71.18 16.75 70.96
  Q 23.01 69.98 22.73 63.50
  Q 22.53 58.70 23.50 54.00
  Q 23.96 51.81 23.19 49.72
  C 23.10 49.49 22.81 49.42 22.63 49.59
  L 20.95 51.16
  Q 20.24 51.83 20.48 50.89
  Q 20.98 48.91 21.70 47.38
  Q 24.59 41.22 23.25 34.54
  Q 24.69 33.61 25.00 31.50
  Q 25.10 30.82 26.00 30.75
  Z
  M 25.75 72.06
  Q 26.99 71.20 25.79 70.14
  C 25.49 69.87 25.28 69.52 25.19 69.13
  Q 24.84 67.58 24.55 67.04
  Q 24.19 66.38 23.94 67.82
  Q 23.65 69.54 21.82 70.80
  Q 20.10 71.98 21.82 73.15
  Q 24.11 74.72 25.11 72.78
  Q 25.33 72.34 25.75 72.06
  Z"
/>
<path fill="#2a1217" d="
  M 58.61 33.98
  Q 61.66 33.72 60.80 35.10
  C 60.63 35.37 60.31 35.53 59.99 35.49
  Q 59.04 35.37 58.38 34.49
  Q 58.04 34.03 58.61 33.98
  Z"
/>
<path fill="#dbbdaf" d="
  M 139.33 37.60
  Q 138.99 37.43 139.15 36.48
  C 139.20 36.15 139.43 35.89 139.72 35.82
  Q 140.61 35.60 140.01 37.11
  C 139.86 37.48 139.55 37.71 139.33 37.60
  Z"
/>
<path fill="#9a636d" d="
  M 135.21 39.50
  Q 136.10 40.95 135.10 42.14
  C 134.92 42.36 134.59 42.38 134.36 42.20
  L 133.50 41.54
  Q 134.88 41.03 135.21 39.50
  Z"
/>
<path fill="#dbbdaf" d="
  M 140.78 41.15
  Q 140.55 43.51 140.12 40.07
  C 140.09 39.78 140.31 39.53 140.56 39.58
  Q 141.23 39.71 140.95 40.50
  Q 140.81 40.90 140.78 41.15
  Z"
/>
<path fill="#0b0406" d="
  M 101.75 47.79
  Q 101.52 49.33 100.04 48.50
  L 96.95 43.89
  C 96.80 43.67 96.89 43.36 97.14 43.26
  Q 100.25 41.99 99.60 44.03
  Q 98.65 47.06 101.75 47.79
  Z"
/>
<path fill="#0b0406" d="
  M 87.50 45.21
  Q 88.29 45.41 88.16 46.04
  Q 88.05 46.54 88.05 46.61
  Q 87.97 49.80 91.25 50.25
  Q 94.90 50.75 98.75 49.46
  Q 100.40 49.92 99.72 51.55
  C 99.61 51.80 99.32 51.95 99.00 51.91
  Q 97.09 51.66 95.54 52.75
  Q 93.04 53.34 92.25 53.25
  Q 88.03 52.78 84.25 54.54
  Q 82.92 55.09 81.94 54.39
  C 81.75 54.25 81.78 53.95 82.01 53.84
  Q 85.17 52.32 88.65 52.25
  Q 90.08 52.22 89.07 51.20
  Q 86.92 49.00 86.81 45.94
  Q 86.10 44.99 87.50 45.21
  Z"
/>
<path fill="#dbbdaf" d="
  M 5.54 50.00
  Q 5.21 49.69 5.29 49.25
  Q 6.37 48.83 6.43 47.51
  Q 6.50 45.94 6.79 47.49
  Q 7.12 49.28 5.54 50.00
  Z"
/>
<path fill="#9a636d" d="
  M 147.75 52.21
  Q 146.48 52.41 145.29 52.00
  Q 146.32 50.40 147.75 52.21
  Z"
/>
<path fill="#0b0406" d="
  M 72.50 51.54
  Q 73.41 51.38 74.25 51.79
  Q 72.61 53.93 72.50 51.54
  Z"
/>
<path fill="#ffffff" d="
  M 94.25 70.21
  Q 93.85 69.61 93.25 69.21
  Q 93.87 66.32 92.15 67.77
  Q 91.46 68.34 91.19 68.54
  Q 89.19 70.00 87.57 71.87
  C 87.35 72.12 87.06 72.27 86.75 72.28
  Q 82.14 72.44 79.06 68.69
  Q 77.24 66.47 78.07 63.97
  Q 78.23 63.48 78.15 63.01
  Q 77.81 61.14 78.35 59.41
  Q 78.81 57.94 80.50 56.82
  Q 82.32 55.60 84.25 54.54
  Q 88.03 52.78 92.25 53.25
  Q 93.04 53.34 95.54 52.75
  Q 97.70 52.67 99.85 52.70
  Q 101.39 52.72 104.09 52.22
  Q 107.74 51.54 111.20 52.72
  Q 113.57 53.53 114.33 55.38
  Q 115.20 57.49 114.23 59.95
  Q 113.07 62.86 112.97 66.00
  Q 112.89 68.50 111.62 70.81
  C 111.29 71.41 110.56 71.66 109.94 71.39
  Q 107.92 70.52 105.59 71.40
  C 105.31 71.50 105.00 71.39 104.86 71.13
  Q 102.96 67.65 105.89 65.61
  Q 107.14 64.74 107.47 63.88
  Q 107.98 62.54 106.73 63.24
  Q 103.02 65.33 101.93 68.59
  Q 101.53 69.76 101.21 70.18
  Q 99.94 71.82 99.03 69.55
  Q 98.34 67.82 97.73 69.58
  Q 96.44 73.26 94.25 70.21
  Z"
/>
<path fill="#ffffff" d="
  M 145.29 52.00
  Q 146.48 52.41 147.75 52.21
  L 152.60 52.23
  C 153.05 52.23 153.44 52.51 153.57 52.93
  Q 155.64 59.47 154.72 65.49
  Q 154.30 68.24 151.75 68.69
  C 151.45 68.74 151.18 68.92 150.99 69.19
  Q 149.78 70.95 148.43 68.08
  C 148.19 67.57 147.54 67.43 147.11 67.79
  Q 144.26 70.21 140.75 69.50
  Q 139.63 69.28 135.30 70.43
  Q 133.46 70.92 131.15 70.67
  Q 126.60 70.19 121.92 71.60
  C 121.11 71.84 120.27 71.34 120.10 70.51
  Q 119.48 67.43 118.03 65.17
  C 117.86 64.92 117.82 64.59 117.91 64.28
  Q 118.25 63.00 117.71 61.75
  L 116.46 59.75
  Q 117.50 54.93 121.80 52.72
  C 122.06 52.59 122.39 52.61 122.66 52.78
  Q 123.90 53.55 125.00 53.25
  Q 129.02 52.15 132.00 52.54
  Q 133.06 52.95 132.50 54.25
  Q 131.38 56.87 133.96 56.00
  L 134.74 58.07
  C 134.83 58.31 135.15 58.38 135.41 58.22
  L 145.29 52.00
  Z"
/>
<path fill="#dbbdaf" d="
  M 132.00 52.54
  Q 134.78 51.74 134.21 54.30
  Q 134.03 55.13 133.96 56.00
  Q 131.38 56.87 132.50 54.25
  Q 133.06 52.95 132.00 52.54
  Z"
/>
<path fill="#ffffff" d="
  M 33.25 71.54
  Q 28.89 71.89 27.31 68.44
  Q 25.83 65.19 25.79 60.25
  Q 26.33 57.77 29.19 56.94
  Q 32.60 55.94 35.20 55.44
  Q 37.51 55.00 41.30 55.51
  Q 47.79 56.38 54.32 55.52
  Q 58.38 54.99 61.49 56.98
  C 62.09 57.37 62.47 58.02 62.50 58.73
  Q 62.68 62.98 62.92 67.20
  Q 63.16 71.65 59.28 71.46
  Q 58.45 71.42 57.62 71.43
  Q 53.94 71.45 53.94 69.36
  Q 53.94 67.89 53.05 69.05
  L 51.72 70.78
  C 51.52 71.05 51.25 71.23 50.95 71.29
  Q 47.51 72.00 43.56 71.69
  Q 39.25 71.35 33.25 71.54
  Z
  M 31.1287 61.6445
  C 31.47 61.94 32.37 61.44 33.1363 60.5393
  C 33.90 59.64 34.24 58.67 33.8913 58.3755
  C 33.55 58.08 32.65 58.58 31.8837 59.4807
  C 31.12 60.38 30.78 61.35 31.1287 61.6445
  Z"
/>
<path fill="#9a636d" d="
  M 63.84 56.17
  Q 62.53 54.33 64.45 56.20
  C 64.64 56.39 64.67 56.67 64.52 56.85
  Q 64.11 57.32 63.96 56.48
  Q 63.93 56.30 63.84 56.17
  Z"
/>
<path fill="#ffffff" d="
  M 73.58 56.20
  C 74.49 56.59 75.06 57.40 75.01 58.23
  L 74.59 65.01
  Q 74.56 65.62 74.66 65.97
  Q 75.19 67.76 74.19 68.94
  Q 71.43 72.20 67.56 69.69
  Q 64.46 67.67 64.38 64.02
  Q 64.30 60.84 65.58 58.08
  Q 67.63 53.63 73.58 56.20
  Z"
/>
<ellipse fill="#792b33" cx="0.00" cy="0.00" transform="translate(32.51,60.01) rotate(130.2)" rx="2.14" ry="0.82"/>
<path fill="#dbbdaf" d="
  M 116.46 59.75
  L 117.71 61.75
  Q 116.71 61.71 116.92 62.11
  C 117.02 62.32 116.97 62.55 116.80 62.63
  Q 115.41 63.25 115.83 61.70
  Q 116.09 60.72 116.46 59.75
  Z"
/>
<path fill="#2a1217" d="
  M 25.11 72.78
  Q 24.11 74.72 21.82 73.15
  Q 20.10 71.98 21.82 70.80
  Q 23.65 69.54 23.94 67.82
  Q 24.19 66.38 24.55 67.04
  Q 24.84 67.58 25.19 69.13
  C 25.28 69.52 25.49 69.87 25.79 70.14
  Q 26.99 71.20 25.75 72.06
  Q 25.33 72.34 25.11 72.78
  Z"
/>
<path fill="#dbbdaf" d="
  M 93.25 69.21
  Q 93.85 69.61 94.25 70.21
  Q 92.82 70.69 92.06 71.98
  Q 91.92 72.21 91.76 72.35
  Q 90.53 73.45 91.56 71.56
  Q 92.58 69.71 93.25 69.21
  Z"
/>
<path fill="#dbbdaf" d="
  M 146.34 70.31
  Q 146.42 71.84 145.84 71.37
  C 145.62 71.19 145.53 70.86 145.63 70.53
  Q 146.24 68.44 146.34 70.31
  Z"
/>
</svg>
