<?xml version="1.0" encoding="UTF-8" standalone="no"?>
<!DOCTYPE svg PUBLIC "-//W3C//DTD SVG 1.1//EN" "http://www.w3.org/Graphics/SVG/1.1/DTD/svg11.dtd">
<svg xmlns="http://www.w3.org/2000/svg" version="1.1" viewBox="0 0 82 81">
<g stroke-width="2.0" fill="none" stroke-linecap="butt">
<path stroke="#d7ceb3" stroke-opacity="0.549" vector-effect="non-scaling-stroke" d="
  M 1.31 0.00
  Q 1.00 0.48 1.00 1.75
  Q 0.95 41.09 1.06 80.44
  C 1.06 80.56 1.15 80.68 1.29 80.73
  Q 1.49 80.80 1.44 81.00"
/>
<path stroke="#d7ceb3" stroke-opacity="0.549" vector-effect="non-scaling-stroke" d="
  M 81.06 0.00
  Q 81.00 40.50 80.94 81.00"
/>
<path stroke="#b0877d" stroke-opacity="0.996" vector-effect="non-scaling-stroke" d="
  M 79.8257 3.3670
  C 79.83 3.01 79.54 2.72 79.1768 2.7159
  L 3.7770 2.5843
  C 3.42 2.58 3.13 2.87 3.1258 3.2331
  L 2.9943 78.5930
  C 2.99 78.95 3.28 79.24 3.6432 79.2441
  L 79.0430 79.3757
  C 79.40 79.38 79.69 79.09 79.6942 78.7269
  L 79.8257 3.3670"
/>
<path stroke="#ede4c6" stroke-opacity="0.992" vector-effect="non-scaling-stroke" d="
  M 1.9293 73.7298
  C 2.24 73.73 2.51 71.99 2.5300 69.8459
  C 2.55 67.70 2.32 65.95 2.0107 65.9502
  C 1.70 65.95 1.43 67.69 1.4100 69.8341
  C 1.39 71.98 1.62 73.73 1.9293 73.7298"
/>
<path stroke="#b9959a" vector-effect="non-scaling-stroke" d="
  M 46.25 7.04
  Q 45.80 8.07 45.00 7.46"
/>
<path stroke="#98656d" vector-effect="non-scaling-stroke" d="
  M 45.00 7.46
  Q 44.93 6.73 44.06 6.69
  Q 39.47 6.47 36.00 7.04"
/>
<path stroke="#b9959a" vector-effect="non-scaling-stroke" d="
  M 36.00 7.04
  Q 34.92 6.28 34.73 7.18
  C 34.64 7.60 34.50 7.92 34.34 8.05
  Q 33.40 8.83 32.35 7.86
  C 32.15 7.68 31.85 7.72 31.74 7.93
  Q 31.13 9.12 31.70 10.37
  Q 31.92 10.85 31.93 11.31
  Q 31.98 14.42 34.94 13.91
  Q 35.47 13.83 35.28 14.30
  Q 34.72 15.68 32.94 16.94
  Q 29.22 19.57 31.95 23.36
  C 32.15 23.64 32.20 23.96 32.08 24.21
  Q 31.59 25.23 30.27 25.25
  C 30.00 25.26 29.79 25.46 29.77 25.73
  Q 29.63 28.89 29.86 31.74
  Q 29.93 32.68 30.94 35.42
  Q 31.93 38.10 30.73 40.99
  Q 28.89 45.43 33.50 45.49
  Q 36.43 45.52 39.33 47.83
  C 39.61 48.05 40.00 48.09 40.32 47.93
  Q 41.97 47.12 43.53 47.30
  Q 43.91 47.34 45.26 48.12
  Q 46.36 48.76 47.44 47.90
  C 47.72 47.67 48.05 47.58 48.31 47.64
  Q 50.05 48.04 48.47 50.11
  C 48.29 50.36 48.34 50.69 48.58 50.81
  L 51.96 52.50"
/>
<path stroke="#8a4d58" vector-effect="non-scaling-stroke" d="
  M 51.96 52.50
  Q 52.64 52.94 53.46 52.75"
/>
<path stroke="#b9959a" vector-effect="non-scaling-stroke" d="
  M 53.46 52.75
  Q 54.01 55.01 56.31 55.44
  Q 56.99 55.57 57.54 56.50"
/>
<path stroke="#98656d" vector-effect="non-scaling-stroke" d="
  M 57.54 56.50
  Q 57.62 57.38 57.00 57.96"
/>
<path stroke="#b9959a" vector-effect="non-scaling-stroke" d="
  M 57.00 57.96
  Q 55.35 57.82 53.81 57.30
  Q 52.52 56.86 51.35 55.39
  Q 48.46 51.74 44.54 49.74
  Q 42.68 48.79 41.33 50.39
  Q 38.61 53.64 37.74 51.74
  Q 36.76 49.60 36.72 49.56
  Q 35.23 47.98 33.10 49.39
  C 32.86 49.55 32.55 49.65 32.20 49.66
  Q 31.72 49.68 31.33 49.89
  Q 30.84 50.17 30.62 50.95
  Q 29.52 54.84 30.13 59.82
  C 30.16 60.08 30.43 60.24 30.67 60.14
  Q 32.63 59.32 33.54 60.75"
/>
<path stroke="#8a4d58" vector-effect="non-scaling-stroke" d="
  M 33.54 60.75
  Q 33.83 63.64 36.50 63.33
  C 36.82 63.29 37.11 63.10 37.25 62.82
  Q 37.79 61.76 37.75 60.54"
/>
<path stroke="#b9959a" vector-effect="non-scaling-stroke" d="
  M 37.75 60.54
  Q 38.18 59.41 38.88 59.90
  Q 39.54 60.36 39.72 60.42
  Q 40.47 60.67 41.25 60.79"
/>
<path stroke="#8a4d58" vector-effect="non-scaling-stroke" d="
  M 41.25 60.79
  Q 43.28 61.49 45.03 62.74
  Q 47.04 64.17 49.50 63.25
  Q 50.81 62.76 54.25 63.00
  Q 56.25 63.14 58.25 63.03
  Q 59.98 62.94 59.04 61.25"
/>
<path stroke="#98656d" vector-effect="non-scaling-stroke" d="
  M 59.04 61.25
  L 59.04 61.00"
/>
<path stroke="#8a4d58" vector-effect="non-scaling-stroke" d="
  M 59.04 61.00
  Q 62.66 58.12 62.69 53.56
  C 62.70 53.29 62.59 52.98 62.39 52.66
  Q 61.63 51.46 62.25 50.00
  Q 63.00 48.27 61.29 47.75"
/>
<path stroke="#8a4d58" vector-effect="non-scaling-stroke" d="
  M 61.29 47.75
  Q 61.11 46.61 61.47 45.61
  Q 62.06 43.98 62.10 43.65
  Q 62.48 40.55 61.81 36.94
  Q 61.46 35.00 62.25 32.89
  C 62.37 32.60 62.38 32.27 62.28 31.96
  Q 61.30 28.85 62.42 25.68
  Q 63.57 22.41 60.79 20.50"
/>
<path stroke="#b9959a" vector-effect="non-scaling-stroke" d="
  M 60.79 20.50
  Q 60.31 18.61 61.84 17.02
  Q 63.23 15.58 61.60 14.43
  Q 58.98 12.58 56.51 10.83
  Q 56.31 10.69 56.20 10.47
  Q 55.61 9.33 56.32 9.95
  Q 58.73 12.06 61.25 9.96"
/>
<path stroke="#8a4d58" vector-effect="non-scaling-stroke" d="
  M 61.25 9.96
  Q 63.22 11.41 62.49 10.01
  Q 62.29 9.63 62.00 9.53
  Q 61.65 9.41 61.25 9.54"
/>
<path stroke="#b9959a" vector-effect="non-scaling-stroke" d="
  M 61.25 9.54
  Q 58.58 9.01 57.50 6.46"
/>
<path stroke="#8a4d58" vector-effect="non-scaling-stroke" d="
  M 57.50 6.46
  Q 54.63 5.60 53.75 5.75
  Q 50.11 6.35 46.43 6.49
  Q 46.21 6.50 46.09 6.59
  Q 45.82 6.80 46.25 7.04"
/>
<path stroke="#d0b8bd" vector-effect="non-scaling-stroke" d="
  M 57.50 6.46
  L 46.25 7.04"
/>
<path stroke="#d0b8bd" vector-effect="non-scaling-stroke" d="
  M 61.25 9.54
  L 61.25 9.96"
/>
<path stroke="#d0b8bd" vector-effect="non-scaling-stroke" d="
  M 60.79 20.50
  Q 61.13 22.11 60.11 22.92
  C 59.87 23.11 59.76 23.41 59.83 23.67
  Q 60.65 26.63 61.13 29.65
  Q 61.39 31.32 60.88 34.18
  Q 60.47 36.47 60.70 38.83
  Q 60.86 40.56 60.00 45.00
  Q 59.62 46.98 61.21 48.50"
/>
<path stroke="#d0b8bd" vector-effect="non-scaling-stroke" d="
  M 61.21 48.50
  Q 62.91 49.30 61.25 50.00
  Q 59.19 50.87 60.00 52.50
  Q 61.33 55.16 59.25 57.04"
/>
<path stroke="#ded0d2" vector-effect="non-scaling-stroke" d="
  M 59.25 57.04
  L 57.54 56.50"
/>
<path stroke="#d0b8bd" vector-effect="non-scaling-stroke" d="
  M 53.46 52.75
  Q 53.13 51.21 52.98 49.64
  Q 52.92 48.97 52.58 48.60
  Q 51.74 47.69 51.19 48.79
  C 51.06 49.04 51.09 49.37 51.25 49.68
  Q 51.94 51.00 51.96 52.50"
/>
<path stroke="#ded0d2" vector-effect="non-scaling-stroke" d="
  M 45.00 7.46
  L 36.00 7.04"
/>
<path stroke="#a0707a" vector-effect="non-scaling-stroke" d="
  M 61.29 47.75
  L 61.21 48.50"
/>
<path stroke="#ae8890" vector-effect="non-scaling-stroke" d="
  M 59.04 61.00
  Q 58.45 58.95 59.25 57.04"
/>
<path stroke="#ae8890" vector-effect="non-scaling-stroke" d="
  M 59.04 61.25
  Q 58.94 64.04 57.75 61.79"
/>
<path stroke="#ded0d2" vector-effect="non-scaling-stroke" d="
  M 57.00 57.96
  Q 59.45 59.55 57.75 61.79"
/>
<path stroke="#d0b8bd" vector-effect="non-scaling-stroke" d="
  M 57.75 61.79
  L 55.75 61.71"
/>
<path stroke="#ded0d2" vector-effect="non-scaling-stroke" d="
  M 55.75 61.71
  Q 53.47 59.24 50.25 60.79"
/>
<path stroke="#d0b8bd" vector-effect="non-scaling-stroke" d="
  M 50.25 60.79
  Q 45.74 60.25 41.25 60.79"
/>
<path stroke="#d0b8bd" vector-effect="non-scaling-stroke" d="
  M 37.75 60.54
  Q 37.16 61.72 35.81 60.94
  Q 34.86 60.38 33.54 60.75"
/>
<path stroke="#ae8890" vector-effect="non-scaling-stroke" d="
  M 55.75 61.71
  L 54.96 61.80
  C 54.58 61.84 54.27 61.79 54.11 61.68
  Q 52.74 60.69 51.14 61.32
  C 50.84 61.44 50.56 61.48 50.33 61.43
  Q 49.36 61.23 50.25 60.79"
/>
<path stroke="#b9959a" vector-effect="non-scaling-stroke" d="
  M 11.25 8.96
  Q 9.79 9.96 8.19 9.36
  C 7.59 9.14 6.93 9.52 6.83 10.15
  Q 5.96 15.60 6.47 20.47
  C 6.50 20.80 6.67 21.10 6.93 21.30
  Q 7.77 21.97 7.22 22.51
  Q 6.64 23.11 6.57 23.25
  Q 5.59 25.31 8.02 26.51
  Q 8.51 26.75 8.04 27.02
  Q 6.02 28.21 6.14 30.56
  C 6.15 30.84 6.33 31.12 6.62 31.30
  Q 7.82 32.05 7.64 33.11
  C 7.53 33.76 8.05 34.34 8.71 34.29
  Q 10.65 34.15 11.12 35.26
  C 11.27 35.63 11.52 35.88 11.72 35.87
  Q 12.18 35.85 12.13 35.06
  C 12.11 34.77 12.29 34.51 12.55 34.47
  Q 14.27 34.19 16.00 34.71"
/>
<path stroke="#8a4d58" vector-effect="non-scaling-stroke" d="
  M 16.00 34.71
  Q 20.48 35.74 24.40 33.64
  Q 25.27 33.18 25.69 32.43
  Q 26.87 30.33 23.54 31.00"
/>
<path stroke="#b9959a" vector-effect="non-scaling-stroke" d="
  M 23.54 31.00
  Q 23.66 29.69 24.75 29.35
  C 25.09 29.24 25.35 29.04 25.44 28.80
  Q 26.31 26.50 25.39 24.27
  C 25.28 23.99 25.05 23.75 24.74 23.59
  Q 22.25 22.29 25.25 22.00
  Q 26.85 21.85 27.52 20.29
  C 27.63 20.03 27.56 19.70 27.34 19.44
  Q 26.26 18.17 26.38 16.55
  Q 26.48 15.03 26.48 14.95
  Q 26.41 11.50 26.65 8.05
  C 26.66 7.83 26.44 7.67 26.23 7.75
  Q 24.39 8.40 22.75 6.96"
/>
<path stroke="#8a4d58" vector-effect="non-scaling-stroke" d="
  M 22.75 6.96
  Q 21.98 6.49 21.63 6.98
  C 21.40 7.31 21.14 7.52 20.95 7.53
  Q 20.17 7.58 19.70 6.98
  C 19.46 6.68 19.19 6.48 18.96 6.42
  Q 16.83 5.84 14.98 6.92
  C 14.72 7.07 14.40 7.07 14.15 6.92
  Q 10.70 4.81 11.25 8.96"
/>
<path stroke="#d0b8bd" vector-effect="non-scaling-stroke" d="
  M 22.75 6.96
  Q 22.37 7.12 22.10 7.41
  C 21.86 7.67 21.58 7.84 21.32 7.87
  L 11.25 8.96"
/>
<path stroke="#d0b8bd" vector-effect="non-scaling-stroke" d="
  M 23.54 31.00
  Q 22.99 32.65 21.80 33.84
  C 21.63 34.02 21.32 34.14 20.94 34.18
  L 16.00 34.71"
/>
<path stroke="#b9959a" vector-effect="non-scaling-stroke" d="
  M 71.57 8.20
  Q 69.71 6.42 67.38 7.46
  C 67.12 7.58 66.88 7.82 66.73 8.14
  L 65.04 11.62
  C 64.91 11.90 64.90 12.23 65.03 12.52
  Q 65.84 14.43 65.38 16.51
  C 65.30 16.86 65.32 17.19 65.42 17.46
  Q 66.18 19.42 67.85 20.71
  C 68.08 20.89 68.41 20.93 68.72 20.81
  Q 70.31 20.23 72.00 20.27
  Q 74.59 20.34 76.81 19.23
  C 77.05 19.11 77.13 18.81 76.98 18.59
  Q 75.79 16.85 74.19 15.50
  Q 73.75 15.12 73.61 14.76
  Q 73.44 14.30 73.42 13.81
  C 73.41 13.49 73.26 13.20 73.03 13.02
  Q 71.77 12.04 73.69 11.95
  C 74.03 11.93 74.31 11.74 74.38 11.48
  Q 74.47 11.11 74.40 10.72
  Q 74.29 10.13 74.33 9.76
  Q 74.59 7.76 72.88 8.45
  C 72.43 8.63 71.92 8.53 71.57 8.20"
/>
<path stroke="#b0877d" stroke-opacity="0.996" vector-effect="non-scaling-stroke" d="
  M 76.58 13.55
  Q 73.82 12.81 75.45 15.10
  C 75.64 15.36 75.93 15.52 76.24 15.53
  Q 78.45 15.61 77.37 14.08
  C 77.19 13.82 76.91 13.63 76.58 13.55"
/>
<path stroke="#98656d" vector-effect="non-scaling-stroke" d="
  M 76.46 42.75
  Q 75.80 41.41 76.21 40.00"
/>
<path stroke="#b9959a" vector-effect="non-scaling-stroke" d="
  M 76.21 40.00
  L 76.29 39.75"
/>
<path stroke="#8a4d58" vector-effect="non-scaling-stroke" d="
  M 76.29 39.75
  Q 77.08 38.93 76.77 38.11
  Q 76.76 38.09 75.90 37.19
  Q 75.38 36.64 75.71 35.75"
/>
<path stroke="#b9959a" vector-effect="non-scaling-stroke" d="
  M 75.71 35.75
  Q 76.87 34.04 76.71 32.00"
/>
<path stroke="#98656d" vector-effect="non-scaling-stroke" d="
  M 76.71 32.00
  L 76.21 30.50"
/>
<path stroke="#b9959a" vector-effect="non-scaling-stroke" d="
  M 76.21 30.50
  Q 77.21 29.43 77.21 28.05
  C 77.22 27.77 77.00 27.52 76.70 27.47
  Q 73.66 26.92 70.57 26.78
  Q 70.44 26.77 68.97 26.50
  Q 67.96 26.32 67.08 26.89
  Q 66.69 27.14 66.19 27.25
  Q 64.70 27.59 64.75 29.50
  Q 64.87 33.84 64.56 49.31
  Q 64.48 53.34 64.88 55.27
  Q 64.98 55.75 64.86 56.24
  Q 63.83 60.08 67.76 59.58
  C 68.10 59.53 68.42 59.60 68.68 59.77
  L 70.27 60.79
  C 70.51 60.94 70.70 61.21 70.81 61.55
  Q 71.30 63.12 72.63 62.07
  C 72.89 61.87 73.20 61.78 73.50 61.81
  Q 78.45 62.30 76.50 57.28
  Q 75.86 55.64 76.92 54.24
  Q 78.32 52.40 76.76 51.55
  C 76.40 51.35 76.23 50.93 76.35 50.54
  Q 77.53 46.38 76.46 42.75"
/>
<path stroke="#ded0d2" vector-effect="non-scaling-stroke" d="
  M 76.21 30.50
  Q 75.13 30.63 75.62 31.43
  Q 75.81 31.73 75.89 31.99
  Q 76.19 33.00 76.71 32.00"
/>
<path stroke="#d0b8bd" vector-effect="non-scaling-stroke" d="
  M 75.71 35.75
  Q 72.83 36.89 75.48 38.49
  Q 76.22 38.93 76.29 39.75"
/>
<path stroke="#ded0d2" vector-effect="non-scaling-stroke" d="
  M 76.21 40.00
  Q 75.51 39.80 75.07 40.13
  C 74.83 40.31 74.80 40.67 75.01 40.93
  L 76.46 42.75"
/>
<path stroke="#b9959a" vector-effect="non-scaling-stroke" d="
  M 5.79 43.75
  L 5.54 53.25"
/>
<path stroke="#8a4d58" vector-effect="non-scaling-stroke" d="
  M 5.54 53.25
  L 5.79 54.75"
/>
<path stroke="#b9959a" vector-effect="non-scaling-stroke" d="
  M 5.79 54.75
  Q 4.76 57.05 6.83 56.47
  C 7.18 56.37 7.52 56.44 7.69 56.65
  Q 8.14 57.20 7.56 57.81
  Q 4.41 61.15 5.79 65.50"
/>
<path stroke="#98656d" vector-effect="non-scaling-stroke" d="
  M 5.79 65.50
  Q 5.33 66.77 6.21 67.75"
/>
<path stroke="#b9959a" vector-effect="non-scaling-stroke" d="
  M 6.21 67.75
  L 6.75 68.54"
/>
<path stroke="#98656d" vector-effect="non-scaling-stroke" d="
  M 6.75 68.54
  L 6.04 69.75"
/>
<path stroke="#b9959a" vector-effect="non-scaling-stroke" d="
  M 6.04 69.75
  Q 4.99 71.81 7.00 73.04"
/>
<path stroke="#8a4d58" vector-effect="non-scaling-stroke" d="
  M 7.00 73.04
  Q 8.22 74.19 9.71 73.50"
/>
<path stroke="#b9959a" vector-effect="non-scaling-stroke" d="
  M 9.71 73.50
  Q 9.81 73.13 10.04 72.94
  C 10.20 72.81 10.56 72.81 10.96 72.94
  L 16.01 74.62
  Q 16.36 74.74 16.99 74.63
  Q 18.55 74.34 19.48 75.58
  C 19.69 75.86 20.00 75.98 20.22 75.87
  Q 20.59 75.68 20.79 75.25"
/>
<path stroke="#8a4d58" vector-effect="non-scaling-stroke" d="
  M 20.79 75.25
  L 23.00 74.96"
/>
<path stroke="#b0877d" stroke-opacity="0.996" vector-effect="non-scaling-stroke" d="
  M 23.00 74.96
  Q 25.35 74.62 25.93 72.30
  Q 26.50 70.03 27.04 67.75"
/>
<path stroke="#8a4d58" vector-effect="non-scaling-stroke" d="
  M 27.04 67.75
  Q 28.80 63.59 25.50 60.54"
/>
<path stroke="#b9959a" vector-effect="non-scaling-stroke" d="
  M 25.50 60.54
  L 24.02 59.66
  C 23.73 59.49 23.56 59.21 23.57 58.95
  Q 23.69 56.78 25.38 58.62
  Q 26.37 59.69 26.92 58.98
  Q 27.20 58.60 27.16 57.84
  Q 26.86 53.04 25.29 48.50"
/>
<path stroke="#98656d" vector-effect="non-scaling-stroke" d="
  M 25.29 48.50
  Q 25.76 48.64 26.00 48.29"
/>
<path stroke="#b9959a" vector-effect="non-scaling-stroke" d="
  M 26.00 48.29
  Q 27.70 47.50 26.87 45.66
  Q 26.56 44.97 26.51 44.24
  C 26.49 43.91 26.29 43.65 26.02 43.58
  L 22.82 42.77
  Q 22.29 42.64 21.96 42.33
  Q 20.30 40.83 18.25 42.04"
/>
<path stroke="#98656d" vector-effect="non-scaling-stroke" d="
  M 18.25 42.04
  Q 16.79 42.24 15.66 41.54
  C 15.35 41.35 15.03 41.26 14.74 41.27
  Q 10.00 41.53 5.79 43.75"
/>
<path stroke="#ded0d2" vector-effect="non-scaling-stroke" d="
  M 18.25 42.04
  Q 17.65 42.67 16.93 42.45
  Q 16.07 42.19 16.02 42.18
  Q 12.32 41.73 8.94 43.44
  Q 7.40 44.21 5.79 43.75"
/>
<path stroke="#ded0d2" vector-effect="non-scaling-stroke" d="
  M 26.00 48.29
  L 26.08 46.55
  C 26.10 46.27 25.92 46.03 25.68 46.01
  Q 22.57 45.80 25.29 48.50"
/>
<path stroke="#d0b8bd" vector-effect="non-scaling-stroke" d="
  M 25.50 60.54
  Q 25.28 62.28 25.35 64.02
  Q 25.44 66.02 24.92 67.38
  Q 23.32 71.55 20.79 75.25"
/>
<path stroke="#d0b8bd" vector-effect="non-scaling-stroke" d="
  M 9.71 73.50
  Q 8.10 73.65 8.91 72.34
  C 9.09 72.05 9.13 71.73 9.04 71.46
  Q 8.50 69.97 7.80 71.12
  Q 7.65 71.36 7.58 72.06
  Q 7.52 72.67 7.00 73.04"
/>
<path stroke="#ded0d2" vector-effect="non-scaling-stroke" d="
  M 6.04 69.75
  Q 9.18 70.25 6.75 68.54"
/>
<path stroke="#ded0d2" vector-effect="non-scaling-stroke" d="
  M 6.21 67.75
  Q 6.60 66.41 5.79 65.50"
/>
<path stroke="#d0b8bd" vector-effect="non-scaling-stroke" d="
  M 5.79 54.75
  Q 8.60 55.95 9.25 53.50
  Q 9.74 51.67 7.75 52.75
  Q 6.71 53.31 5.54 53.25"
/>
<path stroke="#c6aaa0" stroke-opacity="0.996" vector-effect="non-scaling-stroke" d="
  M 27.04 67.75
  Q 26.48 66.75 26.25 68.00
  Q 25.74 70.77 22.96 74.14
  Q 22.78 74.36 22.79 74.53
  Q 22.80 74.77 23.00 74.96"
/>
<path stroke="#8a4d58" vector-effect="non-scaling-stroke" d="
  M 64.81 63.32
  Q 66.33 63.46 65.62 62.10
  Q 64.74 60.42 64.06 62.07
  C 63.83 62.64 64.20 63.27 64.81 63.32"
/>
<path stroke="#8a4d58" vector-effect="non-scaling-stroke" d="
  M 30.50 73.96
  Q 28.90 77.23 32.58 76.21
  Q 32.97 76.10 33.41 75.69
  Q 34.45 74.74 36.00 74.96"
/>
<path stroke="#98656d" vector-effect="non-scaling-stroke" d="
  M 36.00 74.96
  Q 38.06 77.46 40.25 75.46"
/>
<path stroke="#8a4d58" vector-effect="non-scaling-stroke" d="
  M 40.25 75.46
  Q 45.28 75.23 50.25 75.90
  Q 50.74 75.96 51.68 76.34
  Q 53.47 77.06 52.71 74.50"
/>
<path stroke="#b9959a" vector-effect="non-scaling-stroke" d="
  M 52.71 74.50
  Q 54.25 74.23 55.50 75.29"
/>
<path stroke="#8a4d58" vector-effect="non-scaling-stroke" d="
  M 55.50 75.29
  L 60.06 76.19
  Q 61.65 76.50 63.00 76.50
  Q 64.12 76.50 65.21 76.71
  Q 68.03 77.24 67.71 74.50"
/>
<path stroke="#b9959a" vector-effect="non-scaling-stroke" d="
  M 67.71 74.50
  Q 68.25 72.97 69.61 73.28
  Q 70.61 73.50 70.92 73.47
  Q 71.59 73.41 72.25 73.21"
/>
<path stroke="#98656d" vector-effect="non-scaling-stroke" d="
  M 72.25 73.21
  Q 73.19 73.23 73.33 74.29
  Q 73.49 75.49 74.18 74.50
  Q 75.98 71.93 74.79 69.50"
/>
<path stroke="#b9959a" vector-effect="non-scaling-stroke" d="
  M 74.79 69.50
  Q 75.30 66.13 72.44 66.44
  Q 70.73 66.62 68.60 66.20
  Q 66.14 65.72 64.84 65.71
  Q 60.23 65.69 55.65 66.27
  Q 55.55 66.28 53.22 66.23
  Q 51.89 66.20 50.80 67.10
  C 50.60 67.26 50.30 67.33 49.97 67.27
  L 46.57 66.69
  Q 45.88 66.57 45.63 66.43
  Q 43.23 65.10 40.54 65.69
  C 40.26 65.75 39.99 65.95 39.78 66.23
  Q 37.91 68.82 34.88 66.59
  C 34.29 66.16 33.45 66.41 33.20 67.09
  Q 32.75 68.31 31.21 69.50
  Q 28.78 71.37 30.50 73.96"
/>
<path stroke="#ded0d2" vector-effect="non-scaling-stroke" d="
  M 74.79 69.50
  Q 75.11 71.42 73.31 72.06
  Q 72.54 72.34 72.25 73.21"
/>
<path stroke="#d0b8bd" vector-effect="non-scaling-stroke" d="
  M 67.71 74.50
  L 67.29 74.50"
/>
<path stroke="#b9959a" vector-effect="non-scaling-stroke" d="
  M 67.29 74.50
  Q 66.95 72.66 65.25 72.21"
/>
<path stroke="#ded0d2" vector-effect="non-scaling-stroke" d="
  M 65.25 72.21
  Q 63.92 71.25 62.84 70.02
  Q 62.52 69.65 62.18 69.51
  Q 60.78 68.95 61.94 70.81
  Q 62.28 71.36 64.46 73.25"
/>
<path stroke="#b9959a" vector-effect="non-scaling-stroke" d="
  M 64.46 73.25
  L 64.54 74.25"
/>
<path stroke="#d0b8bd" vector-effect="non-scaling-stroke" d="
  M 64.54 74.25
  Q 63.61 75.11 62.65 74.54
  C 62.31 74.34 61.98 74.25 61.74 74.29
  L 55.50 75.29"
/>
<path stroke="#d0b8bd" vector-effect="non-scaling-stroke" d="
  M 52.71 74.50
  Q 50.91 75.60 49.23 75.09
  Q 46.73 74.34 46.63 74.33
  Q 43.32 73.97 40.00 74.04"
/>
<path stroke="#ded0d2" vector-effect="non-scaling-stroke" d="
  M 40.00 74.04
  L 36.00 74.79"
/>
<path stroke="#d0b8bd" vector-effect="non-scaling-stroke" d="
  M 36.00 74.79
  L 30.50 73.96"
/>
<path stroke="#98656d" vector-effect="non-scaling-stroke" d="
  M 65.25 72.21
  Q 64.49 72.44 64.46 73.25"
/>
<path stroke="#ae8890" vector-effect="non-scaling-stroke" d="
  M 36.00 74.79
  L 36.00 74.96"
/>
<path stroke="#8a4d58" vector-effect="non-scaling-stroke" d="
  M 67.29 74.50
  Q 65.89 75.99 64.54 74.25"
/>
<path stroke="#ae8890" vector-effect="non-scaling-stroke" d="
  M 40.00 74.04
  Q 39.72 74.80 40.25 75.46"
/>
<path stroke="#d0b8bd" vector-effect="non-scaling-stroke" d="
  M 20.80 17.00
  C 20.63 17.04 20.51 17.18 20.49 17.35
  Q 20.30 19.40 21.49 18.90
  Q 22.06 18.65 22.45 18.02
  Q 23.44 16.40 20.80 17.00"
/>
</g>
<path fill="#050405" fill-opacity="0.106" d="
  M 0.00 0.00
  Q 0.66 0.00 1.31 0.00
  Q 1.00 0.48 1.00 1.75
  Q 0.95 41.09 1.06 80.44
  C 1.06 80.56 1.15 80.68 1.29 80.73
  Q 1.49 80.80 1.44 81.00
  Q 0.72 81.00 0.00 81.00
  Q 0.00 40.50 0.00 0.00
  Z"
/>
<path fill="#ede4c6" fill-opacity="0.992" d="
  M 1.31 0.00
  Q 41.19 0.00 81.06 0.00
  Q 81.00 40.50 80.94 81.00
  Q 41.19 81.00 1.44 81.00
  Q 1.49 80.80 1.29 80.73
  C 1.15 80.68 1.06 80.56 1.06 80.44
  Q 0.95 41.09 1.00 1.75
  Q 1.00 0.48 1.31 0.00
  Z
  M 79.8257 3.3670
  C 79.83 3.01 79.54 2.72 79.1768 2.7159
  L 3.7770 2.5843
  C 3.42 2.58 3.13 2.87 3.1258 3.2331
  L 2.9943 78.5930
  C 2.99 78.95 3.28 79.24 3.6432 79.2441
  L 79.0430 79.3757
  C 79.40 79.38 79.69 79.09 79.6942 78.7269
  L 79.8257 3.3670
  Z
  M 1.9293 73.7298
  C 2.24 73.73 2.51 71.99 2.5300 69.8459
  C 2.55 67.70 2.32 65.95 2.0107 65.9502
  C 1.70 65.95 1.43 67.69 1.4100 69.8341
  C 1.39 71.98 1.62 73.73 1.9293 73.7298
  Z"
/>
<path fill="#050405" fill-opacity="0.106" d="
  M 81.06 0.00
  Q 81.53 0.00 82.00 0.00
  Q 82.00 40.50 82.00 81.00
  Q 81.47 81.00 80.94 81.00
  Q 81.00 40.50 81.06 0.00
  Z"
/>
<path fill="#732a35" d="
  M 79.6942 78.7269
  C 79.69 79.09 79.40 79.38 79.0430 79.3757
  L 3.6432 79.2441
  C 3.28 79.24 2.99 78.95 2.9943 78.5930
  L 3.1258 3.2331
  C 3.13 2.87 3.42 2.58 3.7770 2.5843
  L 79.1768 2.7159
  C 79.54 2.72 79.83 3.01 79.8257 3.3670
  L 79.6942 78.7269
  Z
  M 46.25 7.04
  Q 45.80 8.07 45.00 7.46
  Q 44.93 6.73 44.06 6.69
  Q 39.47 6.47 36.00 7.04
  Q 34.92 6.28 34.73 7.18
  C 34.64 7.60 34.50 7.92 34.34 8.05
  Q 33.40 8.83 32.35 7.86
  C 32.15 7.68 31.85 7.72 31.74 7.93
  Q 31.13 9.12 31.70 10.37
  Q 31.92 10.85 31.93 11.31
  Q 31.98 14.42 34.94 13.91
  Q 35.47 13.83 35.28 14.30
  Q 34.72 15.68 32.94 16.94
  Q 29.22 19.57 31.95 23.36
  C 32.15 23.64 32.20 23.96 32.08 24.21
  Q 31.59 25.23 30.27 25.25
  C 30.00 25.26 29.79 25.46 29.77 25.73
  Q 29.63 28.89 29.86 31.74
  Q 29.93 32.68 30.94 35.42
  Q 31.93 38.10 30.73 40.99
  Q 28.89 45.43 33.50 45.49
  Q 36.43 45.52 39.33 47.83
  C 39.61 48.05 40.00 48.09 40.32 47.93
  Q 41.97 47.12 43.53 47.30
  Q 43.91 47.34 45.26 48.12
  Q 46.36 48.76 47.44 47.90
  C 47.72 47.67 48.05 47.58 48.31 47.64
  Q 50.05 48.04 48.47 50.11
  C 48.29 50.36 48.34 50.69 48.58 50.81
  L 51.96 52.50
  Q 52.64 52.94 53.46 52.75
  Q 54.01 55.01 56.31 55.44
  Q 56.99 55.57 57.54 56.50
  Q 57.62 57.38 57.00 57.96
  Q 55.35 57.82 53.81 57.30
  Q 52.52 56.86 51.35 55.39
  Q 48.46 51.74 44.54 49.74
  Q 42.68 48.79 41.33 50.39
  Q 38.61 53.64 37.74 51.74
  Q 36.76 49.60 36.72 49.56
  Q 35.23 47.98 33.10 49.39
  C 32.86 49.55 32.55 49.65 32.20 49.66
  Q 31.72 49.68 31.33 49.89
  Q 30.84 50.17 30.62 50.95
  Q 29.52 54.84 30.13 59.82
  C 30.16 60.08 30.43 60.24 30.67 60.14
  Q 32.63 59.32 33.54 60.75
  Q 33.83 63.64 36.50 63.33
  C 36.82 63.29 37.11 63.10 37.25 62.82
  Q 37.79 61.76 37.75 60.54
  Q 38.18 59.41 38.88 59.90
  Q 39.54 60.36 39.72 60.42
  Q 40.47 60.67 41.25 60.79
  Q 43.28 61.49 45.03 62.74
  Q 47.04 64.17 49.50 63.25
  Q 50.81 62.76 54.25 63.00
  Q 56.25 63.14 58.25 63.03
  Q 59.98 62.94 59.04 61.25
  L 59.04 61.00
  Q 62.66 58.12 62.69 53.56
  C 62.70 53.29 62.59 52.98 62.39 52.66
  Q 61.63 51.46 62.25 50.00
  Q 63.00 48.27 61.29 47.75
  Q 61.11 46.61 61.47 45.61
  Q 62.06 43.98 62.10 43.65
  Q 62.48 40.55 61.81 36.94
  Q 61.46 35.00 62.25 32.89
  C 62.37 32.60 62.38 32.27 62.28 31.96
  Q 61.30 28.85 62.42 25.68
  Q 63.57 22.41 60.79 20.50
  Q 60.31 18.61 61.84 17.02
  Q 63.23 15.58 61.60 14.43
  Q 58.98 12.58 56.51 10.83
  Q 56.31 10.69 56.20 10.47
  Q 55.61 9.33 56.32 9.95
  Q 58.73 12.06 61.25 9.96
  Q 63.22 11.41 62.49 10.01
  Q 62.29 9.63 62.00 9.53
  Q 61.65 9.41 61.25 9.54
  Q 58.58 9.01 57.50 6.46
  Q 54.63 5.60 53.75 5.75
  Q 50.11 6.35 46.43 6.49
  Q 46.21 6.50 46.09 6.59
  Q 45.82 6.80 46.25 7.04
  Z
  M 11.25 8.96
  Q 9.79 9.96 8.19 9.36
  C 7.59 9.14 6.93 9.52 6.83 10.15
  Q 5.96 15.60 6.47 20.47
  C 6.50 20.80 6.67 21.10 6.93 21.30
  Q 7.77 21.97 7.22 22.51
  Q 6.64 23.11 6.57 23.25
  Q 5.59 25.31 8.02 26.51
  Q 8.51 26.75 8.04 27.02
  Q 6.02 28.21 6.14 30.56
  C 6.15 30.84 6.33 31.12 6.62 31.30
  Q 7.82 32.05 7.64 33.11
  C 7.53 33.76 8.05 34.34 8.71 34.29
  Q 10.65 34.15 11.12 35.26
  C 11.27 35.63 11.52 35.88 11.72 35.87
  Q 12.18 35.85 12.13 35.06
  C 12.11 34.77 12.29 34.51 12.55 34.47
  Q 14.27 34.19 16.00 34.71
  Q 20.48 35.74 24.40 33.64
  Q 25.27 33.18 25.69 32.43
  Q 26.87 30.33 23.54 31.00
  Q 23.66 29.69 24.75 29.35
  C 25.09 29.24 25.35 29.04 25.44 28.80
  Q 26.31 26.50 25.39 24.27
  C 25.28 23.99 25.05 23.75 24.74 23.59
  Q 22.25 22.29 25.25 22.00
  Q 26.85 21.85 27.52 20.29
  C 27.63 20.03 27.56 19.70 27.34 19.44
  Q 26.26 18.17 26.38 16.55
  Q 26.48 15.03 26.48 14.95
  Q 26.41 11.50 26.65 8.05
  C 26.66 7.83 26.44 7.67 26.23 7.75
  Q 24.39 8.40 22.75 6.96
  Q 21.98 6.49 21.63 6.98
  C 21.40 7.31 21.14 7.52 20.95 7.53
  Q 20.17 7.58 19.70 6.98
  C 19.46 6.68 19.19 6.48 18.96 6.42
  Q 16.83 5.84 14.98 6.92
  C 14.72 7.07 14.40 7.07 14.15 6.92
  Q 10.70 4.81 11.25 8.96
  Z
  M 71.57 8.20
  Q 69.71 6.42 67.38 7.46
  C 67.12 7.58 66.88 7.82 66.73 8.14
  L 65.04 11.62
  C 64.91 11.90 64.90 12.23 65.03 12.52
  Q 65.84 14.43 65.38 16.51
  C 65.30 16.86 65.32 17.19 65.42 17.46
  Q 66.18 19.42 67.85 20.71
  C 68.08 20.89 68.41 20.93 68.72 20.81
  Q 70.31 20.23 72.00 20.27
  Q 74.59 20.34 76.81 19.23
  C 77.05 19.11 77.13 18.81 76.98 18.59
  Q 75.79 16.85 74.19 15.50
  Q 73.75 15.12 73.61 14.76
  Q 73.44 14.30 73.42 13.81
  C 73.41 13.49 73.26 13.20 73.03 13.02
  Q 71.77 12.04 73.69 11.95
  C 74.03 11.93 74.31 11.74 74.38 11.48
  Q 74.47 11.11 74.40 10.72
  Q 74.29 10.13 74.33 9.76
  Q 74.59 7.76 72.88 8.45
  C 72.43 8.63 71.92 8.53 71.57 8.20
  Z
  M 76.58 13.55
  Q 73.82 12.81 75.45 15.10
  C 75.64 15.36 75.93 15.52 76.24 15.53
  Q 78.45 15.61 77.37 14.08
  C 77.19 13.82 76.91 13.63 76.58 13.55
  Z
  M 76.46 42.75
  Q 75.80 41.41 76.21 40.00
  L 76.29 39.75
  Q 77.08 38.93 76.77 38.11
  Q 76.76 38.09 75.90 37.19
  Q 75.38 36.64 75.71 35.75
  Q 76.87 34.04 76.71 32.00
  L 76.21 30.50
  Q 77.21 29.43 77.21 28.05
  C 77.22 27.77 77.00 27.52 76.70 27.47
  Q 73.66 26.92 70.57 26.78
  Q 70.44 26.77 68.97 26.50
  Q 67.96 26.32 67.08 26.89
  Q 66.69 27.14 66.19 27.25
  Q 64.70 27.59 64.75 29.50
  Q 64.87 33.84 64.56 49.31
  Q 64.48 53.34 64.88 55.27
  Q 64.98 55.75 64.86 56.24
  Q 63.83 60.08 67.76 59.58
  C 68.10 59.53 68.42 59.60 68.68 59.77
  L 70.27 60.79
  C 70.51 60.94 70.70 61.21 70.81 61.55
  Q 71.30 63.12 72.63 62.07
  C 72.89 61.87 73.20 61.78 73.50 61.81
  Q 78.45 62.30 76.50 57.28
  Q 75.86 55.64 76.92 54.24
  Q 78.32 52.40 76.76 51.55
  C 76.40 51.35 76.23 50.93 76.35 50.54
  Q 77.53 46.38 76.46 42.75
  Z
  M 5.79 43.75
  L 5.54 53.25
  L 5.79 54.75
  Q 4.76 57.05 6.83 56.47
  C 7.18 56.37 7.52 56.44 7.69 56.65
  Q 8.14 57.20 7.56 57.81
  Q 4.41 61.15 5.79 65.50
  Q 5.33 66.77 6.21 67.75
  L 6.75 68.54
  L 6.04 69.75
  Q 4.99 71.81 7.00 73.04
  Q 8.22 74.19 9.71 73.50
  Q 9.81 73.13 10.04 72.94
  C 10.20 72.81 10.56 72.81 10.96 72.94
  L 16.01 74.62
  Q 16.36 74.74 16.99 74.63
  Q 18.55 74.34 19.48 75.58
  C 19.69 75.86 20.00 75.98 20.22 75.87
  Q 20.59 75.68 20.79 75.25
  L 23.00 74.96
  Q 25.35 74.62 25.93 72.30
  Q 26.50 70.03 27.04 67.75
  Q 28.80 63.59 25.50 60.54
  L 24.02 59.66
  C 23.73 59.49 23.56 59.21 23.57 58.95
  Q 23.69 56.78 25.38 58.62
  Q 26.37 59.69 26.92 58.98
  Q 27.20 58.60 27.16 57.84
  Q 26.86 53.04 25.29 48.50
  Q 25.76 48.64 26.00 48.29
  Q 27.70 47.50 26.87 45.66
  Q 26.56 44.97 26.51 44.24
  C 26.49 43.91 26.29 43.65 26.02 43.58
  L 22.82 42.77
  Q 22.29 42.64 21.96 42.33
  Q 20.30 40.83 18.25 42.04
  Q 16.79 42.24 15.66 41.54
  C 15.35 41.35 15.03 41.26 14.74 41.27
  Q 10.00 41.53 5.79 43.75
  Z
  M 64.81 63.32
  Q 66.33 63.46 65.62 62.10
  Q 64.74 60.42 64.06 62.07
  C 63.83 62.64 64.20 63.27 64.81 63.32
  Z
  M 30.50 73.96
  Q 28.90 77.23 32.58 76.21
  Q 32.97 76.10 33.41 75.69
  Q 34.45 74.74 36.00 74.96
  Q 38.06 77.46 40.25 75.46
  Q 45.28 75.23 50.25 75.90
  Q 50.74 75.96 51.68 76.34
  Q 53.47 77.06 52.71 74.50
  Q 54.25 74.23 55.50 75.29
  L 60.06 76.19
  Q 61.65 76.50 63.00 76.50
  Q 64.12 76.50 65.21 76.71
  Q 68.03 77.24 67.71 74.50
  Q 68.25 72.97 69.61 73.28
  Q 70.61 73.50 70.92 73.47
  Q 71.59 73.41 72.25 73.21
  Q 73.19 73.23 73.33 74.29
  Q 73.49 75.49 74.18 74.50
  Q 75.98 71.93 74.79 69.50
  Q 75.30 66.13 72.44 66.44
  Q 70.73 66.62 68.60 66.20
  Q 66.14 65.72 64.84 65.71
  Q 60.23 65.69 55.65 66.27
  Q 55.55 66.28 53.22 66.23
  Q 51.89 66.20 50.80 67.10
  C 50.60 67.26 50.30 67.33 49.97 67.27
  L 46.57 66.69
  Q 45.88 66.57 45.63 66.43
  Q 43.23 65.10 40.54 65.69
  C 40.26 65.75 39.99 65.95 39.78 66.23
  Q 37.91 68.82 34.88 66.59
  C 34.29 66.16 33.45 66.41 33.20 67.09
  Q 32.75 68.31 31.21 69.50
  Q 28.78 71.37 30.50 73.96
  Z"
/>
<path fill="#a0707a" d="
  M 57.50 6.46
  L 46.25 7.04
  Q 45.82 6.80 46.09 6.59
  Q 46.21 6.50 46.43 6.49
  Q 50.11 6.35 53.75 5.75
  Q 54.63 5.60 57.50 6.46
  Z"
/>
<path fill="#a0707a" d="
  M 22.75 6.96
  Q 22.37 7.12 22.10 7.41
  C 21.86 7.67 21.58 7.84 21.32 7.87
  L 11.25 8.96
  Q 10.70 4.81 14.15 6.92
  C 14.40 7.07 14.72 7.07 14.98 6.92
  Q 16.83 5.84 18.96 6.42
  C 19.19 6.48 19.46 6.68 19.70 6.98
  Q 20.17 7.58 20.95 7.53
  C 21.14 7.52 21.40 7.31 21.63 6.98
  Q 21.98 6.49 22.75 6.96
  Z"
/>
<path fill="#bca0a5" d="
  M 45.00 7.46
  L 36.00 7.04
  Q 39.47 6.47 44.06 6.69
  Q 44.93 6.73 45.00 7.46
  Z"
/>
<path fill="#ffffff" d="
  M 57.50 6.46
  Q 58.58 9.01 61.25 9.54
  L 61.25 9.96
  Q 58.73 12.06 56.32 9.95
  Q 55.61 9.33 56.20 10.47
  Q 56.31 10.69 56.51 10.83
  Q 58.98 12.58 61.60 14.43
  Q 63.23 15.58 61.84 17.02
  Q 60.31 18.61 60.79 20.50
  Q 61.13 22.11 60.11 22.92
  C 59.87 23.11 59.76 23.41 59.83 23.67
  Q 60.65 26.63 61.13 29.65
  Q 61.39 31.32 60.88 34.18
  Q 60.47 36.47 60.70 38.83
  Q 60.86 40.56 60.00 45.00
  Q 59.62 46.98 61.21 48.50
  Q 62.91 49.30 61.25 50.00
  Q 59.19 50.87 60.00 52.50
  Q 61.33 55.16 59.25 57.04
  L 57.54 56.50
  Q 56.99 55.57 56.31 55.44
  Q 54.01 55.01 53.46 52.75
  Q 53.13 51.21 52.98 49.64
  Q 52.92 48.97 52.58 48.60
  Q 51.74 47.69 51.19 48.79
  C 51.06 49.04 51.09 49.37 51.25 49.68
  Q 51.94 51.00 51.96 52.50
  L 48.58 50.81
  C 48.34 50.69 48.29 50.36 48.47 50.11
  Q 50.05 48.04 48.31 47.64
  C 48.05 47.58 47.72 47.67 47.44 47.90
  Q 46.36 48.76 45.26 48.12
  Q 43.91 47.34 43.53 47.30
  Q 41.97 47.12 40.32 47.93
  C 40.00 48.09 39.61 48.05 39.33 47.83
  Q 36.43 45.52 33.50 45.49
  Q 28.89 45.43 30.73 40.99
  Q 31.93 38.10 30.94 35.42
  Q 29.93 32.68 29.86 31.74
  Q 29.63 28.89 29.77 25.73
  C 29.79 25.46 30.00 25.26 30.27 25.25
  Q 31.59 25.23 32.08 24.21
  C 32.20 23.96 32.15 23.64 31.95 23.36
  Q 29.22 19.57 32.94 16.94
  Q 34.72 15.68 35.28 14.30
  Q 35.47 13.83 34.94 13.91
  Q 31.98 14.42 31.93 11.31
  Q 31.92 10.85 31.70 10.37
  Q 31.13 9.12 31.74 7.93
  C 31.85 7.72 32.15 7.68 32.35 7.86
  Q 33.40 8.83 34.34 8.05
  C 34.50 7.92 34.64 7.60 34.73 7.18
  Q 34.92 6.28 36.00 7.04
  L 45.00 7.46
  Q 45.80 8.07 46.25 7.04
  L 57.50 6.46
  Z"
/>
<path fill="#ffffff" d="
  M 22.75 6.96
  Q 24.39 8.40 26.23 7.75
  C 26.44 7.67 26.66 7.83 26.65 8.05
  Q 26.41 11.50 26.48 14.95
  Q 26.48 15.03 26.38 16.55
  Q 26.26 18.17 27.34 19.44
  C 27.56 19.70 27.63 20.03 27.52 20.29
  Q 26.85 21.85 25.25 22.00
  Q 22.25 22.29 24.74 23.59
  C 25.05 23.75 25.28 23.99 25.39 24.27
  Q 26.31 26.50 25.44 28.80
  C 25.35 29.04 25.09 29.24 24.75 29.35
  Q 23.66 29.69 23.54 31.00
  Q 22.99 32.65 21.80 33.84
  C 21.63 34.02 21.32 34.14 20.94 34.18
  L 16.00 34.71
  Q 14.27 34.19 12.55 34.47
  C 12.29 34.51 12.11 34.77 12.13 35.06
  Q 12.18 35.85 11.72 35.87
  C 11.52 35.88 11.27 35.63 11.12 35.26
  Q 10.65 34.15 8.71 34.29
  C 8.05 34.34 7.53 33.76 7.64 33.11
  Q 7.82 32.05 6.62 31.30
  C 6.33 31.12 6.15 30.84 6.14 30.56
  Q 6.02 28.21 8.04 27.02
  Q 8.51 26.75 8.02 26.51
  Q 5.59 25.31 6.57 23.25
  Q 6.64 23.11 7.22 22.51
  Q 7.77 21.97 6.93 21.30
  C 6.67 21.10 6.50 20.80 6.47 20.47
  Q 5.96 15.60 6.83 10.15
  C 6.93 9.52 7.59 9.14 8.19 9.36
  Q 9.79 9.96 11.25 8.96
  L 21.32 7.87
  C 21.58 7.84 21.86 7.67 22.10 7.41
  Q 22.37 7.12 22.75 6.96
  Z
  M 20.80 17.00
  C 20.63 17.04 20.51 17.18 20.49 17.35
  Q 20.30 19.40 21.49 18.90
  Q 22.06 18.65 22.45 18.02
  Q 23.44 16.40 20.80 17.00
  Z"
/>
<path fill="#ffffff" d="
  M 71.57 8.20
  C 71.92 8.53 72.43 8.63 72.88 8.45
  Q 74.59 7.76 74.33 9.76
  Q 74.29 10.13 74.40 10.72
  Q 74.47 11.11 74.38 11.48
  C 74.31 11.74 74.03 11.93 73.69 11.95
  Q 71.77 12.04 73.03 13.02
  C 73.26 13.20 73.41 13.49 73.42 13.81
  Q 73.44 14.30 73.61 14.76
  Q 73.75 15.12 74.19 15.50
  Q 75.79 16.85 76.98 18.59
  C 77.13 18.81 77.05 19.11 76.81 19.23
  Q 74.59 20.34 72.00 20.27
  Q 70.31 20.23 68.72 20.81
  C 68.41 20.93 68.08 20.89 67.85 20.71
  Q 66.18 19.42 65.42 17.46
  C 65.32 17.19 65.30 16.86 65.38 16.51
  Q 65.84 14.43 65.03 12.52
  C 64.90 12.23 64.91 11.90 65.04 11.62
  L 66.73 8.14
  C 66.88 7.82 67.12 7.58 67.38 7.46
  Q 69.71 6.42 71.57 8.20
  Z"
/>
<path fill="#a0707a" d="
  M 61.25 9.54
  Q 61.65 9.41 62.00 9.53
  Q 62.29 9.63 62.49 10.01
  Q 63.22 11.41 61.25 9.96
  L 61.25 9.54
  Z"
/>
<path fill="#ede4c6" fill-opacity="0.992" d="
  M 77.37 14.08
  Q 78.45 15.61 76.24 15.53
  C 75.93 15.52 75.64 15.36 75.45 15.10
  Q 73.82 12.81 76.58 13.55
  C 76.91 13.63 77.19 13.82 77.37 14.08
  Z"
/>
<path fill="#a0707a" d="
  M 20.80 17.00
  Q 23.44 16.40 22.45 18.02
  Q 22.06 18.65 21.49 18.90
  Q 20.30 19.40 20.49 17.35
  C 20.51 17.18 20.63 17.04 20.80 17.00
  Z"
/>
<path fill="#a0707a" d="
  M 60.79 20.50
  Q 63.57 22.41 62.42 25.68
  Q 61.30 28.85 62.28 31.96
  C 62.38 32.27 62.37 32.60 62.25 32.89
  Q 61.46 35.00 61.81 36.94
  Q 62.48 40.55 62.10 43.65
  Q 62.06 43.98 61.47 45.61
  Q 61.11 46.61 61.29 47.75
  L 61.21 48.50
  Q 59.62 46.98 60.00 45.00
  Q 60.86 40.56 60.70 38.83
  Q 60.47 36.47 60.88 34.18
  Q 61.39 31.32 61.13 29.65
  Q 60.65 26.63 59.83 23.67
  C 59.76 23.41 59.87 23.11 60.11 22.92
  Q 61.13 22.11 60.79 20.50
  Z"
/>
<path fill="#ffffff" d="
  M 76.21 30.50
  Q 75.13 30.63 75.62 31.43
  Q 75.81 31.73 75.89 31.99
  Q 76.19 33.00 76.71 32.00
  Q 76.87 34.04 75.71 35.75
  Q 72.83 36.89 75.48 38.49
  Q 76.22 38.93 76.29 39.75
  L 76.21 40.00
  Q 75.51 39.80 75.07 40.13
  C 74.83 40.31 74.80 40.67 75.01 40.93
  L 76.46 42.75
  Q 77.53 46.38 76.35 50.54
  C 76.23 50.93 76.40 51.35 76.76 51.55
  Q 78.32 52.40 76.92 54.24
  Q 75.86 55.64 76.50 57.28
  Q 78.45 62.30 73.50 61.81
  C 73.20 61.78 72.89 61.87 72.63 62.07
  Q 71.30 63.12 70.81 61.55
  C 70.70 61.21 70.51 60.94 70.27 60.79
  L 68.68 59.77
  C 68.42 59.60 68.10 59.53 67.76 59.58
  Q 63.83 60.08 64.86 56.24
  Q 64.98 55.75 64.88 55.27
  Q 64.48 53.34 64.56 49.31
  Q 64.87 33.84 64.75 29.50
  Q 64.70 27.59 66.19 27.25
  Q 66.69 27.14 67.08 26.89
  Q 67.96 26.32 68.97 26.50
  Q 70.44 26.77 70.57 26.78
  Q 73.66 26.92 76.70 27.47
  C 77.00 27.52 77.22 27.77 77.21 28.05
  Q 77.21 29.43 76.21 30.50
  Z"
/>
<path fill="#bca0a5" d="
  M 76.21 30.50
  L 76.71 32.00
  Q 76.19 33.00 75.89 31.99
  Q 75.81 31.73 75.62 31.43
  Q 75.13 30.63 76.21 30.50
  Z"
/>
<path fill="#a0707a" d="
  M 16.00 34.71
  L 20.94 34.18
  C 21.32 34.14 21.63 34.02 21.80 33.84
  Q 22.99 32.65 23.54 31.00
  Q 26.87 30.33 25.69 32.43
  Q 25.27 33.18 24.40 33.64
  Q 20.48 35.74 16.00 34.71
  Z"
/>
<path fill="#a0707a" d="
  M 75.71 35.75
  Q 75.38 36.64 75.90 37.19
  Q 76.76 38.09 76.77 38.11
  Q 77.08 38.93 76.29 39.75
  Q 76.22 38.93 75.48 38.49
  Q 72.83 36.89 75.71 35.75
  Z"
/>
<path fill="#bca0a5" d="
  M 76.21 40.00
  Q 75.80 41.41 76.46 42.75
  L 75.01 40.93
  C 74.80 40.67 74.83 40.31 75.07 40.13
  Q 75.51 39.80 76.21 40.00
  Z"
/>
<path fill="#bca0a5" d="
  M 18.25 42.04
  Q 17.65 42.67 16.93 42.45
  Q 16.07 42.19 16.02 42.18
  Q 12.32 41.73 8.94 43.44
  Q 7.40 44.21 5.79 43.75
  Q 10.00 41.53 14.74 41.27
  C 15.03 41.26 15.35 41.35 15.66 41.54
  Q 16.79 42.24 18.25 42.04
  Z"
/>
<path fill="#ffffff" d="
  M 26.00 48.29
  L 26.08 46.55
  C 26.10 46.27 25.92 46.03 25.68 46.01
  Q 22.57 45.80 25.29 48.50
  Q 26.86 53.04 27.16 57.84
  Q 27.20 58.60 26.92 58.98
  Q 26.37 59.69 25.38 58.62
  Q 23.69 56.78 23.57 58.95
  C 23.56 59.21 23.73 59.49 24.02 59.66
  L 25.50 60.54
  Q 25.28 62.28 25.35 64.02
  Q 25.44 66.02 24.92 67.38
  Q 23.32 71.55 20.79 75.25
  Q 20.59 75.68 20.22 75.87
  C 20.00 75.98 19.69 75.86 19.48 75.58
  Q 18.55 74.34 16.99 74.63
  Q 16.36 74.74 16.01 74.62
  L 10.96 72.94
  C 10.56 72.81 10.20 72.81 10.04 72.94
  Q 9.81 73.13 9.71 73.50
  Q 8.10 73.65 8.91 72.34
  C 9.09 72.05 9.13 71.73 9.04 71.46
  Q 8.50 69.97 7.80 71.12
  Q 7.65 71.36 7.58 72.06
  Q 7.52 72.67 7.00 73.04
  Q 4.99 71.81 6.04 69.75
  Q 9.18 70.25 6.75 68.54
  L 6.21 67.75
  Q 6.60 66.41 5.79 65.50
  Q 4.41 61.15 7.56 57.81
  Q 8.14 57.20 7.69 56.65
  C 7.52 56.44 7.18 56.37 6.83 56.47
  Q 4.76 57.05 5.79 54.75
  Q 8.60 55.95 9.25 53.50
  Q 9.74 51.67 7.75 52.75
  Q 6.71 53.31 5.54 53.25
  L 5.79 43.75
  Q 7.40 44.21 8.94 43.44
  Q 12.32 41.73 16.02 42.18
  Q 16.07 42.19 16.93 42.45
  Q 17.65 42.67 18.25 42.04
  Q 20.30 40.83 21.96 42.33
  Q 22.29 42.64 22.82 42.77
  L 26.02 43.58
  C 26.29 43.65 26.49 43.91 26.51 44.24
  Q 26.56 44.97 26.87 45.66
  Q 27.70 47.50 26.00 48.29
  Z"
/>
<path fill="#bca0a5" d="
  M 26.00 48.29
  Q 25.76 48.64 25.29 48.50
  Q 22.57 45.80 25.68 46.01
  C 25.92 46.03 26.10 46.27 26.08 46.55
  L 26.00 48.29
  Z"
/>
<path fill="#a0707a" d="
  M 61.29 47.75
  Q 63.00 48.27 62.25 50.00
  Q 61.63 51.46 62.39 52.66
  C 62.59 52.98 62.70 53.29 62.69 53.56
  Q 62.66 58.12 59.04 61.00
  Q 58.45 58.95 59.25 57.04
  Q 61.33 55.16 60.00 52.50
  Q 59.19 50.87 61.25 50.00
  Q 62.91 49.30 61.21 48.50
  L 61.29 47.75
  Z"
/>
<path fill="#a0707a" d="
  M 53.46 52.75
  Q 52.64 52.94 51.96 52.50
  Q 51.94 51.00 51.25 49.68
  C 51.09 49.37 51.06 49.04 51.19 48.79
  Q 51.74 47.69 52.58 48.60
  Q 52.92 48.97 52.98 49.64
  Q 53.13 51.21 53.46 52.75
  Z"
/>
<path fill="#ffffff" d="
  M 57.00 57.96
  Q 59.45 59.55 57.75 61.79
  L 55.75 61.71
  Q 53.47 59.24 50.25 60.79
  Q 45.74 60.25 41.25 60.79
  Q 40.47 60.67 39.72 60.42
  Q 39.54 60.36 38.88 59.90
  Q 38.18 59.41 37.75 60.54
  Q 37.16 61.72 35.81 60.94
  Q 34.86 60.38 33.54 60.75
  Q 32.63 59.32 30.67 60.14
  C 30.43 60.24 30.16 60.08 30.13 59.82
  Q 29.52 54.84 30.62 50.95
  Q 30.84 50.17 31.33 49.89
  Q 31.72 49.68 32.20 49.66
  C 32.55 49.65 32.86 49.55 33.10 49.39
  Q 35.23 47.98 36.72 49.56
  Q 36.76 49.60 37.74 51.74
  Q 38.61 53.64 41.33 50.39
  Q 42.68 48.79 44.54 49.74
  Q 48.46 51.74 51.35 55.39
  Q 52.52 56.86 53.81 57.30
  Q 55.35 57.82 57.00 57.96
  Z"
/>
<path fill="#a0707a" d="
  M 5.79 54.75
  L 5.54 53.25
  Q 6.71 53.31 7.75 52.75
  Q 9.74 51.67 9.25 53.50
  Q 8.60 55.95 5.79 54.75
  Z"
/>
<path fill="#bca0a5" d="
  M 57.54 56.50
  L 59.25 57.04
  Q 58.45 58.95 59.04 61.00
  L 59.04 61.25
  Q 58.94 64.04 57.75 61.79
  Q 59.45 59.55 57.00 57.96
  Q 57.62 57.38 57.54 56.50
  Z"
/>
<path fill="#bca0a5" d="
  M 55.75 61.71
  L 54.96 61.80
  C 54.58 61.84 54.27 61.79 54.11 61.68
  Q 52.74 60.69 51.14 61.32
  C 50.84 61.44 50.56 61.48 50.33 61.43
  Q 49.36 61.23 50.25 60.79
  Q 53.47 59.24 55.75 61.71
  Z"
/>
<path fill="#a0707a" d="
  M 25.50 60.54
  Q 28.80 63.59 27.04 67.75
  Q 26.48 66.75 26.25 68.00
  Q 25.74 70.77 22.96 74.14
  Q 22.78 74.36 22.79 74.53
  Q 22.80 74.77 23.00 74.96
  L 20.79 75.25
  Q 23.32 71.55 24.92 67.38
  Q 25.44 66.02 25.35 64.02
  Q 25.28 62.28 25.50 60.54
  Z"
/>
<path fill="#a0707a" d="
  M 37.75 60.54
  Q 37.79 61.76 37.25 62.82
  C 37.11 63.10 36.82 63.29 36.50 63.33
  Q 33.83 63.64 33.54 60.75
  Q 34.86 60.38 35.81 60.94
  Q 37.16 61.72 37.75 60.54
  Z"
/>
<path fill="#a0707a" d="
  M 50.25 60.79
  Q 49.36 61.23 50.33 61.43
  C 50.56 61.48 50.84 61.44 51.14 61.32
  Q 52.74 60.69 54.11 61.68
  C 54.27 61.79 54.58 61.84 54.96 61.80
  L 55.75 61.71
  L 57.75 61.79
  Q 58.94 64.04 59.04 61.25
  Q 59.98 62.94 58.25 63.03
  Q 56.25 63.14 54.25 63.00
  Q 50.81 62.76 49.50 63.25
  Q 47.04 64.17 45.03 62.74
  Q 43.28 61.49 41.25 60.79
  Q 45.74 60.25 50.25 60.79
  Z"
/>
<path fill="#a0707a" d="
  M 64.81 63.32
  C 64.20 63.27 63.83 62.64 64.06 62.07
  Q 64.74 60.42 65.62 62.10
  Q 66.33 63.46 64.81 63.32
  Z"
/>
<path fill="#bca0a5" d="
  M 5.79 65.50
  Q 6.60 66.41 6.21 67.75
  Q 5.33 66.77 5.79 65.50
  Z"
/>
<path fill="#ffffff" d="
  M 74.79 69.50
  Q 75.11 71.42 73.31 72.06
  Q 72.54 72.34 72.25 73.21
  Q 71.59 73.41 70.92 73.47
  Q 70.61 73.50 69.61 73.28
  Q 68.25 72.97 67.71 74.50
  L 67.29 74.50
  Q 66.95 72.66 65.25 72.21
  Q 63.92 71.25 62.84 70.02
  Q 62.52 69.65 62.18 69.51
  Q 60.78 68.95 61.94 70.81
  Q 62.28 71.36 64.46 73.25
  L 64.54 74.25
  Q 63.61 75.11 62.65 74.54
  C 62.31 74.34 61.98 74.25 61.74 74.29
  L 55.50 75.29
  Q 54.25 74.23 52.71 74.50
  Q 50.91 75.60 49.23 75.09
  Q 46.73 74.34 46.63 74.33
  Q 43.32 73.97 40.00 74.04
  L 36.00 74.79
  L 30.50 73.96
  Q 28.78 71.37 31.21 69.50
  Q 32.75 68.31 33.20 67.09
  C 33.45 66.41 34.29 66.16 34.88 66.59
  Q 37.91 68.82 39.78 66.23
  C 39.99 65.95 40.26 65.75 40.54 65.69
  Q 43.23 65.10 45.63 66.43
  Q 45.88 66.57 46.57 66.69
  L 49.97 67.27
  C 50.30 67.33 50.60 67.26 50.80 67.10
  Q 51.89 66.20 53.22 66.23
  Q 55.55 66.28 55.65 66.27
  Q 60.23 65.69 64.84 65.71
  Q 66.14 65.72 68.60 66.20
  Q 70.73 66.62 72.44 66.44
  Q 75.30 66.13 74.79 69.50
  Z"
/>
<ellipse fill="#ede4c6" fill-opacity="0.992" cx="0.00" cy="0.00" transform="translate(1.97,69.84) rotate(90.6)" rx="3.89" ry="0.56"/>
<path fill="#ede4c6" fill-opacity="0.992" d="
  M 27.04 67.75
  Q 26.50 70.03 25.93 72.30
  Q 25.35 74.62 23.00 74.96
  Q 22.80 74.77 22.79 74.53
  Q 22.78 74.36 22.96 74.14
  Q 25.74 70.77 26.25 68.00
  Q 26.48 66.75 27.04 67.75
  Z"
/>
<path fill="#bca0a5" d="
  M 6.75 68.54
  Q 9.18 70.25 6.04 69.75
  L 6.75 68.54
  Z"
/>
<path fill="#bca0a5" d="
  M 65.25 72.21
  Q 64.49 72.44 64.46 73.25
  Q 62.28 71.36 61.94 70.81
  Q 60.78 68.95 62.18 69.51
  Q 62.52 69.65 62.84 70.02
  Q 63.92 71.25 65.25 72.21
  Z"
/>
<path fill="#bca0a5" d="
  M 74.79 69.50
  Q 75.98 71.93 74.18 74.50
  Q 73.49 75.49 73.33 74.29
  Q 73.19 73.23 72.25 73.21
  Q 72.54 72.34 73.31 72.06
  Q 75.11 71.42 74.79 69.50
  Z"
/>
<path fill="#a0707a" d="
  M 9.71 73.50
  Q 8.22 74.19 7.00 73.04
  Q 7.52 72.67 7.58 72.06
  Q 7.65 71.36 7.80 71.12
  Q 8.50 69.97 9.04 71.46
  C 9.13 71.73 9.09 72.05 8.91 72.34
  Q 8.10 73.65 9.71 73.50
  Z"
/>
<path fill="#732a35" d="
  M 65.25 72.21
  Q 66.95 72.66 67.29 74.50
  Q 65.89 75.99 64.54 74.25
  L 64.46 73.25
  Q 64.49 72.44 65.25 72.21
  Z"
/>
<path fill="#a0707a" d="
  M 30.50 73.96
  L 36.00 74.79
  L 36.00 74.96
  Q 34.45 74.74 33.41 75.69
  Q 32.97 76.10 32.58 76.21
  Q 28.90 77.23 30.50 73.96
  Z"
/>
<path fill="#bca0a5" d="
  M 40.00 74.04
  Q 39.72 74.80 40.25 75.46
  Q 38.06 77.46 36.00 74.96
  L 36.00 74.79
  L 40.00 74.04
  Z"
/>
<path fill="#a0707a" d="
  M 40.00 74.04
  Q 43.32 73.97 46.63 74.33
  Q 46.73 74.34 49.23 75.09
  Q 50.91 75.60 52.71 74.50
  Q 53.47 77.06 51.68 76.34
  Q 50.74 75.96 50.25 75.90
  Q 45.28 75.23 40.25 75.46
  Q 39.72 74.80 40.00 74.04
  Z"
/>
<path fill="#a0707a" d="
  M 64.54 74.25
  Q 65.89 75.99 67.29 74.50
  L 67.71 74.50
  Q 68.03 77.24 65.21 76.71
  Q 64.12 76.50 63.00 76.50
  Q 61.65 76.50 60.06 76.19
  L 55.50 75.29
  L 61.74 74.29
  C 61.98 74.25 62.31 74.34 62.65 74.54
  Q 63.61 75.11 64.54 74.25
  Z"
/>
</svg>
