<?xml version="1.0" encoding="UTF-8" standalone="no"?><!DOCTYPE svg PUBLIC "-//W3C//DTD SVG 1.1//EN" "http://www.w3.org/Graphics/SVG/1.1/DTD/svg11.dtd"><svg width="100%" height="100%" viewBox="0 0 93 45" version="1.1" xmlns="http://www.w3.org/2000/svg" xmlns:xlink="http://www.w3.org/1999/xlink" xml:space="preserve" xmlns:serif="http://www.serif.com/" style="fill-rule:evenodd;clip-rule:evenodd;"><path d="M39.833,4.382c-0.673,0.1 -1.287,0.323 -1.84,0.67c-0.23,0.15 -0.54,0.12 -0.75,-0.07c-0.52,-0.46 -0.99,-0.4 -1.41,0.18c-0.16,0.22 -0.45,0.27 -0.65,0.13c-1.567,-1.073 -2.993,-0.93 -4.28,0.43c-0.14,0.15 -0.4,0.09 -0.48,-0.11c-0.347,-0.82 -0.903,-1.073 -1.67,-0.76c-0.19,0.08 -0.43,0.03 -0.61,-0.12c-0.133,-0.1 -0.27,-0.147 -0.41,-0.14c-0.23,0.01 -0.47,0.28 -0.58,0.67c-0.32,1.073 -0.747,1.143 -1.28,0.21c-0.13,-0.23 -0.42,-0.3 -0.66,-0.17c-0.587,0.34 -1.047,0.413 -1.38,0.22c-1.02,-0.587 -2.12,-0.887 -3.3,-0.9c-3.653,-0.047 -6.137,0.763 -7.45,2.43" style="fill:none;fill-rule:nonzero;stroke:#b8998c;stroke-width:2px;"/><path d="M13.083,7.052c-1.333,2.493 -2.167,5.16 -2.5,8" style="fill:none;fill-rule:nonzero;stroke:#9d8979;stroke-width:2px;"/><path d="M10.583,15.052c-1.833,1.52 -3.917,2.52 -6.25,3" style="fill:none;fill-rule:nonzero;stroke:#b8998c;stroke-width:2px;"/><path d="M4.333,18.052l-0.21,6.79" style="fill:none;fill-rule:nonzero;stroke:#9d8979;stroke-width:2px;"/><path d="M10.543,32.092l1.1,3.69c0.487,1.627 1.8,2.23 3.94,1.81c1.107,-0.22 2.12,-0.053 3.04,0.5" style="fill:none;fill-rule:nonzero;stroke:#9d8979;stroke-width:2px;"/><path d="M18.623,38.092c-1.88,2.933 -1.547,3.017 1,0.25" style="fill:none;fill-rule:nonzero;stroke:#e2c4bb;stroke-width:2px;"/><path d="M19.623,38.342c2.293,-1.147 4.26,-1.377 5.9,-0.69c2.933,1.233 5.553,1.833 7.86,1.8c1.887,-0.027 2.857,-0.04 2.91,-0.04c7.467,0.353 14.927,0.3 22.38,-0.16c2.707,-0.173 6.317,-0.263 10.83,-0.27c3.62,-0.013 7.233,-0.227 10.84,-0.64c1.767,-0.207 2.773,-1.19 3.02,-2.95c0.2,-1.44 0.193,-2.947 -0.02,-4.52c-0.387,-2.887 0.36,-4.567 2.24,-5.04c1.473,-0.373 2.267,-1.32 2.38,-2.84c0.24,-3.26 -0.787,-5.153 -3.08,-5.68c-0.43,-0.1 -0.75,-0.5 -0.8,-1.01l-0.7,-7.47c-0.14,-1.487 -1.043,-2.607 -2.71,-3.36c-1.273,-0.573 -2.56,-0.93 -3.86,-1.07c-0.2,-0.027 -1.5,0.11 -3.9,0.41c-1.28,0.167 -2.55,0.01 -3.81,-0.47c-0.28,-0.1 -0.6,-0.05 -0.83,0.15c-1.853,1.58 -3.617,1.507 -5.29,-0.22c-0.19,-0.19 -0.49,-0.2 -0.7,-0.02c-0.6,0.507 -1.3,0.747 -2.1,0.72c-1.047,-0.047 -1.617,-0.067 -1.71,-0.06c-1.573,0.107 -3.14,0.08 -4.7,-0.08c-0.23,-0.02 -0.45,0.16 -0.53,0.44c-0.14,0.46 -0.613,0.583 -1.42,0.37c-2.62,-0.693 -5.28,-0.897 -7.98,-0.61c-0.31,0.03 -0.62,-0.07 -0.86,-0.29c-0.667,-0.6 -1.043,-0.563 -1.13,0.11c-0.033,0.26 -0.15,0.293 -0.35,0.1c-0.453,-0.44 -1.01,-0.63 -1.67,-0.57" style="fill:none;fill-rule:nonzero;stroke:#9d8979;stroke-width:2px;"/><path d="M19.623,38.342c-0.273,-0.28 -0.607,-0.363 -1,-0.25" style="fill:none;fill-rule:nonzero;stroke:#916469;stroke-width:2px;"/><path d="M10.543,32.092l0.19,-5.19c0.01,-0.27 -0.2,-0.49 -0.46,-0.5c-2.173,-0.06 -4.223,-0.58 -6.15,-1.56" style="fill:none;fill-rule:nonzero;stroke:#99866e;stroke-width:2px;"/><path d="M4.333,18.052c1.787,0.54 2.467,1.803 2.04,3.79" style="fill:none;fill-rule:nonzero;stroke:#67383a;stroke-width:2px;"/><path d="M6.373,21.842c-0.373,0.553 -0.387,0.97 -0.04,1.25c1.28,1.04 2.78,1.277 4.5,0.71" style="fill:none;fill-rule:nonzero;stroke:#9d7f81;stroke-width:2px;"/><path d="M10.833,23.802c2.127,-0.113 4.183,0.187 6.17,0.9c1.747,0.62 3.357,0.403 4.83,-0.65" style="fill:none;fill-rule:nonzero;stroke:#67383a;stroke-width:2px;"/><path d="M21.833,24.052c2.2,1.093 4.467,1.447 6.8,1.06c1.56,-0.267 2.37,-0.403 2.43,-0.41c1.5,-0.167 3,-0.347 4.5,-0.54c1.033,-0.14 1.193,-0.497 0.48,-1.07" style="fill:none;fill-rule:nonzero;stroke:#9d7f81;stroke-width:2px;"/><path d="M36.043,23.092c0.24,-1.673 0.503,-2.757 0.79,-3.25c0.587,-1 1.323,-1.083 2.21,-0.25" style="fill:none;fill-rule:nonzero;stroke:#67383a;stroke-width:2px;"/><path d="M39.043,19.592l-0.65,3.44c-0.05,0.26 0.2,0.5 0.51,0.49c3.92,-0.02 7.833,0.15 11.74,0.51c0.58,0.053 1.317,-0.047 2.21,-0.3c0.31,-0.09 0.65,-0.08 0.96,0.01c2.387,0.693 4.81,0.81 7.27,0.35c0.553,-0.107 1.803,-0.01 3.75,0.29" style="fill:none;fill-rule:nonzero;stroke:#916469;stroke-width:2px;"/><path d="M64.833,24.382c0.133,1.273 0.557,2.437 1.27,3.49c0.18,0.26 0.48,0.41 0.79,0.37c2.047,-0.24 3.467,-1.3 4.26,-3.18c0.11,-0.26 0.39,-0.4 0.66,-0.34l2.28,0.53c0.32,0.07 0.64,-0.04 0.84,-0.28c0.353,-0.44 0.57,-0.97 0.65,-1.59" style="fill:none;fill-rule:nonzero;stroke:#67383a;stroke-width:2px;"/><path d="M75.583,23.382c2.28,-0.267 5.183,0.057 8.71,0.97c0.45,0.12 0.93,-0.1 1.14,-0.53c1.473,-2.947 0.877,-4.377 -1.79,-4.29c-1.607,0.053 -2.44,0.077 -2.5,0.07c-9.38,-0.38 -16.13,-0.447 -20.25,-0.2c-1.64,0.1 -2.66,0.067 -3.06,-0.1" style="fill:none;fill-rule:nonzero;stroke:#9d7f81;stroke-width:2px;"/><path d="M57.833,19.302c-0.247,-0.62 -0.26,-1.273 -0.04,-1.96" style="fill:none;fill-rule:nonzero;stroke:#67383a;stroke-width:2px;"/><path d="M57.793,17.342c3.38,-0.727 6.257,-2.293 8.63,-4.7c0.23,-0.23 0.33,-0.55 0.29,-0.86c-0.307,-2.04 -1.167,-3.797 -2.58,-5.27c-0.22,-0.23 -0.54,-0.36 -0.87,-0.36l-25.43,0.15" style="fill:none;fill-rule:nonzero;stroke:#a69493;stroke-width:2px;"/><path d="M37.833,6.302c-0.133,-0.613 0.107,-0.817 0.72,-0.61c1.247,0.427 1.673,-0.01 1.28,-1.31" style="fill:none;fill-rule:nonzero;stroke:#67383a;stroke-width:2px;"/><path d="M57.833,19.302c-1.7,-0.267 -2.92,0.07 -3.66,1.01c-0.7,0.873 -0.487,1.303 0.64,1.29l22.73,-0.26c0.21,0 0.39,0.08 0.48,0.2c0.06,0.087 0.093,0.18 0.1,0.28c0.03,0.26 -0.24,0.48 -0.58,0.49l-5.22,0.06c-0.37,0 -0.68,0.11 -0.86,0.31c-0.48,0.52 -0.167,0.743 0.94,0.67c1.06,-0.067 2.12,-0.057 3.18,0.03" style="fill:none;fill-rule:nonzero;stroke:#b78f93;stroke-width:2px;"/><path d="M64.833,24.382l4.38,-1.07c0.3,-0.073 0.323,-0.18 0.07,-0.32c-1.227,-0.7 -2.327,-0.973 -3.3,-0.82c-0.84,0.127 -1.28,0.193 -1.32,0.2c-3.86,0.147 -7.72,0.22 -11.58,0.22c-0.36,0 -0.68,-0.13 -0.86,-0.35c-0.573,-0.667 -0.453,-1.383 0.36,-2.15c0.227,-0.213 0.477,-0.783 0.75,-1.71" style="fill:none;fill-rule:nonzero;stroke:#ac747b;stroke-width:2px;"/><path d="M57.793,17.342c-1.567,0.007 -3.053,0.353 -4.46,1.04" style="fill:none;fill-rule:nonzero;stroke:#c0a4a6;stroke-width:2px;"/><path d="M53.333,18.382l-4.25,-0.25" style="fill:none;fill-rule:nonzero;stroke:#ebcfd5;stroke-width:2px;"/><path d="M37.833,6.302c-3.407,-0.293 -6.073,-0.197 -8,0.29c-5.327,1.353 -6.877,4.513 -4.65,9.48c0.13,0.28 0.4,0.48 0.71,0.5c3.4,0.287 6.797,0.543 10.19,0.77c0.407,0.027 0.89,0.303 1.45,0.83c0.23,0.21 0.54,0.33 0.87,0.32l10.68,-0.36" style="fill:none;fill-rule:nonzero;stroke:#c0a4a6;stroke-width:2px;"/><path d="M49.083,18.132c-1.167,0.807 -2.583,1.043 -4.25,0.71c-1.9,-0.38 -3.83,-0.13 -5.79,0.75" style="fill:none;fill-rule:nonzero;stroke:#ac747b;stroke-width:2px;"/><path d="M36.043,23.092c-1.353,0.407 -2.733,0.533 -4.14,0.38c-2.667,-0.3 -5.34,-0.357 -8.02,-0.17c-0.14,0.007 -0.503,-0.017 -1.09,-0.07c-0.627,-0.06 -0.947,0.213 -0.96,0.82" style="fill:none;fill-rule:nonzero;stroke:#b78f93;stroke-width:2px;"/><path d="M10.833,23.802c0.713,-0.167 1.433,-0.29 2.16,-0.37c0.753,-0.087 1.46,-0.23 2.12,-0.43c2.673,-0.827 5.41,-1.157 8.21,-0.99c0.78,0.047 1.453,0.04 2.02,-0.02c0.667,-0.067 1.333,-0.137 2,-0.21c0.593,-0.073 1.577,-0.003 2.95,0.21c0.913,0.14 1.83,0.08 2.75,-0.18c0.31,-0.09 0.63,-0.08 0.93,0.02c1.393,0.493 2.037,0.077 1.93,-1.25c-0.02,-0.29 -0.25,-0.53 -0.56,-0.58c-2.033,-0.347 -4.067,-0.417 -6.1,-0.21c-3.7,0.367 -5.7,0.553 -6,0.56c-3.967,0.087 -7.933,0.163 -11.9,0.23c-0.313,0.007 -0.63,-0.073 -0.95,-0.24c-1.807,-0.907 -3.147,-0.407 -4.02,1.5" style="fill:none;fill-rule:nonzero;stroke:#b78f93;stroke-width:2px;"/><path d="M10.583,15.052c0.513,0.213 1.013,0.24 1.5,0.08" style="fill:none;fill-rule:nonzero;stroke:#67383a;stroke-width:2px;"/><path d="M12.083,15.132c0.133,1.06 0.65,1.693 1.55,1.9c1.147,0.26 1.757,0.4 1.83,0.42c3.153,1.16 5.52,0.327 7.1,-2.5c0.34,-0.607 0.443,-1.247 0.31,-1.92c-0.133,-0.673 -0.33,-1.333 -0.59,-1.98c-0.113,-0.28 -0.157,-0.597 -0.13,-0.95c0.053,-0.82 -0.293,-0.96 -1.04,-0.42c-0.41,0.29 -1.15,0.42 -2.03,0.34l-4.71,-0.43" style="fill:none;fill-rule:nonzero;stroke:#c0a4a6;stroke-width:2px;"/><path d="M14.373,9.592c0.06,-1.253 -0.37,-2.1 -1.29,-2.54" style="fill:none;fill-rule:nonzero;stroke:#67383a;stroke-width:2px;"/><path d="M14.373,9.592l-2.29,5.54" style="fill:none;fill-rule:nonzero;stroke:#a69493;stroke-width:2px;"/><path d="M79.29,7.086c0.043,-0.384 -0.887,-0.804 -2.081,-0.93c-1.196,-0.134 -2.196,0.076 -2.233,0.462c-0.043,0.384 0.887,0.804 2.082,0.93c1.195,0.134 2.195,-0.076 2.232,-0.462" style="fill:none;fill-rule:nonzero;stroke:#9d7f81;stroke-width:2px;"/><path d="M73.9,6.936c-0.067,-0.484 -0.767,-0.784 -1.565,-0.676c-0.802,0.112 -1.392,0.582 -1.329,1.068c0.067,0.484 0.767,0.784 1.565,0.676c0.802,-0.112 1.392,-0.582 1.329,-1.068" style="fill:none;fill-rule:nonzero;stroke:#916469;stroke-width:2px;"/><path d="M82.454,10.997c0.009,-0.865 -0.681,-1.585 -1.545,-1.595l-10.139,-0.159c-0.867,-0.011 -1.577,0.679 -1.594,1.545l-0.084,5.319c-0.009,0.865 0.681,1.585 1.545,1.595l10.139,0.159c0.867,0.011 1.577,-0.679 1.595,-1.545l0.083,-5.319" style="fill:none;fill-rule:nonzero;stroke:#a69493;stroke-width:2px;"/><path d="M65.663,29.502c-0.58,-0.67 -1.36,-1.12 -2.23,-1.27c-6.72,-1.133 -13.653,-1.757 -20.8,-1.87c-1.94,-0.033 -3.953,0.177 -6.04,0.63c-1.993,0.433 -3.983,0.86 -5.97,1.28c-3.98,0.853 -5.283,3.197 -3.91,7.03c0.11,0.31 0.33,0.57 0.62,0.73c2.587,1.493 4.753,2.18 6.5,2.06c2.993,-0.207 5.993,-0.213 9,-0.02c6.833,0.447 13.55,-0.14 20.15,-1.76c1.787,-0.44 2.98,-1.09 3.58,-1.95c0.967,-1.393 0.667,-3.013 -0.9,-4.86" style="fill:none;fill-rule:nonzero;stroke:#a69493;stroke-width:2px;"/><path d="M19.643,26.782c-6.32,-1.347 -8.473,1.117 -6.46,7.39c0.387,1.193 1.14,1.747 2.26,1.66l6.36,-0.48c0.48,-0.04 0.89,-0.4 1,-0.89l1.28,-5.64c0.13,-0.56 -0.29,-1.13 -0.92,-1.27c-1.113,-0.253 -2.287,-0.51 -3.52,-0.77" style="fill:none;fill-rule:nonzero;stroke:#a69493;stroke-width:2px;"/><path d="M81.123,27.552c-2.807,-0.38 -5.247,-0.563 -7.32,-0.55c-1.587,0.013 -2.763,0.443 -3.53,1.29c-0.947,1.047 -1.35,2.397 -1.21,4.05c0.1,1.247 0,2.49 -0.3,3.73c-0.05,0.22 0.15,0.42 0.38,0.37c2.127,-0.5 4.167,-0.78 6.12,-0.84c0.053,0 0.593,0.027 1.62,0.08c1.5,0.073 2.74,-0.37 3.72,-1.33c0.7,-0.68 1.15,-1.627 1.35,-2.84c0.193,-1.18 0.177,-2.26 -0.05,-3.24c-0.08,-0.38 -0.4,-0.67 -0.78,-0.72" style="fill:none;fill-rule:nonzero;stroke:#a69493;stroke-width:2px;"/><path d="M46.082,38.798c-0.009,-0.306 -0.839,-0.536 -1.845,-0.506c-1.014,0.03 -1.824,0.31 -1.813,0.614c0.009,0.306 0.839,0.536 1.846,0.506c1.013,-0.03 1.823,-0.31 1.812,-0.614" style="fill:none;fill-rule:nonzero;stroke:#4c2827;stroke-width:2px;"/><path d="M17.063,6.192c-0.31,-0.08 -0.63,0.1 -0.73,0.4c-0.427,1.333 -0.16,1.597 0.8,0.79c0.073,-0.06 0.26,-0.19 0.56,-0.39c0.46,-0.307 0.25,-0.573 -0.63,-0.8" style="fill:none;fill-rule:nonzero;stroke:#ac747b;stroke-width:2px;"/><path d="M19.623,38.342c-0.273,-0.28 -0.607,-0.363 -1,-0.25c-0.92,-0.553 -1.933,-0.72 -3.04,-0.5c-2.14,0.42 -3.453,-0.183 -3.94,-1.81l-1.1,-3.69l0.19,-5.19c0.01,-0.27 -0.2,-0.49 -0.46,-0.5c-2.173,-0.06 -4.223,-0.58 -6.15,-1.56l0.21,-6.79c1.787,0.54 2.467,1.803 2.04,3.79c-0.373,0.553 -0.387,0.97 -0.04,1.25c1.28,1.04 2.78,1.277 4.5,0.71c2.127,-0.113 4.183,0.187 6.17,0.9c1.747,0.62 3.357,0.403 4.83,-0.65c2.2,1.093 4.467,1.447 6.8,1.06c1.56,-0.267 2.37,-0.403 2.43,-0.41c1.5,-0.167 3,-0.347 4.5,-0.54c1.033,-0.14 1.193,-0.497 0.48,-1.07c0.24,-1.673 0.503,-2.757 0.79,-3.25c0.587,-1 1.323,-1.083 2.21,-0.25l-0.65,3.44c-0.05,0.26 0.2,0.5 0.51,0.49c3.92,-0.02 7.833,0.15 11.74,0.51c0.58,0.053 1.317,-0.047 2.21,-0.3c0.31,-0.09 0.65,-0.08 0.96,0.01c2.387,0.693 4.81,0.81 7.27,0.35c0.553,-0.107 1.803,-0.01 3.75,0.29c0.133,1.273 0.557,2.437 1.27,3.49c0.18,0.26 0.48,0.41 0.79,0.37c2.047,-0.24 3.467,-1.3 4.26,-3.18c0.11,-0.26 0.39,-0.4 0.66,-0.34l2.28,0.53c0.32,0.07 0.64,-0.04 0.84,-0.28c0.353,-0.44 0.57,-0.97 0.65,-1.59c2.28,-0.267 5.183,0.057 8.71,0.97c0.45,0.12 0.93,-0.1 1.14,-0.53c1.473,-2.947 0.877,-4.377 -1.79,-4.29c-1.607,0.053 -2.44,0.077 -2.5,0.07c-9.38,-0.38 -16.13,-0.447 -20.25,-0.2c-1.64,0.1 -2.66,0.067 -3.06,-0.1c-0.247,-0.62 -0.26,-1.273 -0.04,-1.96c3.38,-0.727 6.257,-2.293 8.63,-4.7c0.23,-0.23 0.33,-0.55 0.29,-0.86c-0.307,-2.04 -1.167,-3.797 -2.58,-5.27c-0.22,-0.23 -0.54,-0.36 -0.87,-0.36l-25.43,0.15c-0.133,-0.613 0.107,-0.817 0.72,-0.61c1.247,0.427 1.673,-0.01 1.28,-1.31c0.66,-0.06 1.217,0.13 1.67,0.57c0.2,0.193 0.317,0.16 0.35,-0.1c0.087,-0.673 0.463,-0.71 1.13,-0.11c0.24,0.22 0.55,0.32 0.86,0.29c2.7,-0.287 5.36,-0.083 7.98,0.61c0.807,0.213 1.28,0.09 1.42,-0.37c0.08,-0.28 0.3,-0.46 0.53,-0.44c1.56,0.16 3.127,0.187 4.7,0.08c0.093,-0.007 0.663,0.013 1.71,0.06c0.8,0.027 1.5,-0.213 2.1,-0.72c0.21,-0.18 0.51,-0.17 0.7,0.02c1.673,1.727 3.437,1.8 5.29,0.22c0.23,-0.2 0.55,-0.25 0.83,-0.15c1.26,0.48 2.53,0.637 3.81,0.47c2.4,-0.3 3.7,-0.437 3.9,-0.41c1.3,0.14 2.587,0.497 3.86,1.07c1.667,0.753 2.57,1.873 2.71,3.36l0.7,7.47c0.05,0.51 0.37,0.91 0.8,1.01c2.293,0.527 3.32,2.42 3.08,5.68c-0.113,1.52 -0.907,2.467 -2.38,2.84c-1.88,0.473 -2.627,2.153 -2.24,5.04c0.213,1.573 0.22,3.08 0.02,4.52c-0.247,1.76 -1.253,2.743 -3.02,2.95c-3.607,0.413 -7.22,0.627 -10.84,0.64c-4.513,0.007 -8.123,0.097 -10.83,0.27c-7.453,0.46 -14.913,0.513 -22.38,0.16c-0.053,0 -1.023,0.013 -2.91,0.04c-2.307,0.033 -4.927,-0.567 -7.86,-1.8c-1.64,-0.687 -3.607,-0.457 -5.9,0.69Zm59.667,-31.256c0.043,-0.384 -0.887,-0.804 -2.081,-0.93c-1.196,-0.134 -2.196,0.076 -2.233,0.462c-0.043,0.384 0.887,0.804 2.082,0.93c1.195,0.134 2.195,-0.076 2.232,-0.462Zm-5.39,-0.15c-0.067,-0.484 -0.767,-0.784 -1.565,-0.676c-0.802,0.112 -1.392,0.582 -1.329,1.068c0.067,0.484 0.767,0.784 1.565,0.676c0.802,-0.112 1.392,-0.582 1.329,-1.068Zm8.554,4.061c0.009,-0.865 -0.681,-1.585 -1.545,-1.595l-10.139,-0.159c-0.867,-0.011 -1.577,0.679 -1.594,1.545l-0.084,5.319c-0.009,0.865 0.681,1.585 1.545,1.595l10.139,0.159c0.867,0.011 1.577,-0.679 1.595,-1.545l0.083,-5.319Zm-16.791,18.505c-0.58,-0.67 -1.36,-1.12 -2.23,-1.27c-6.72,-1.133 -13.653,-1.757 -20.8,-1.87c-1.94,-0.033 -3.953,0.177 -6.04,0.63c-1.993,0.433 -3.983,0.86 -5.97,1.28c-3.98,0.853 -5.283,3.197 -3.91,7.03c0.11,0.31 0.33,0.57 0.62,0.73c2.587,1.493 4.753,2.18 6.5,2.06c2.993,-0.207 5.993,-0.213 9,-0.02c6.833,0.447 13.55,-0.14 20.15,-1.76c1.787,-0.44 2.98,-1.09 3.58,-1.95c0.967,-1.393 0.667,-3.013 -0.9,-4.86Zm-46.02,-2.72c-6.32,-1.347 -8.473,1.117 -6.46,7.39c0.387,1.193 1.14,1.747 2.26,1.66l6.36,-0.48c0.48,-0.04 0.89,-0.4 1,-0.89l1.28,-5.64c0.13,-0.56 -0.29,-1.13 -0.92,-1.27c-1.113,-0.253 -2.287,-0.51 -3.52,-0.77Zm61.48,0.77c-2.807,-0.38 -5.247,-0.563 -7.32,-0.55c-1.587,0.013 -2.763,0.443 -3.53,1.29c-0.947,1.047 -1.35,2.397 -1.21,4.05c0.1,1.247 0,2.49 -0.3,3.73c-0.05,0.22 0.15,0.42 0.38,0.37c2.127,-0.5 4.167,-0.78 6.12,-0.84c0.053,0 0.593,0.027 1.62,0.08c1.5,0.073 2.74,-0.37 3.72,-1.33c0.7,-0.68 1.15,-1.627 1.35,-2.84c0.193,-1.18 0.177,-2.26 -0.05,-3.24c-0.08,-0.38 -0.4,-0.67 -0.78,-0.72Zm-35.041,11.246c-0.009,-0.306 -0.839,-0.536 -1.845,-0.506c-1.014,0.03 -1.824,0.31 -1.813,0.614c0.009,0.306 0.839,0.536 1.846,0.506c1.013,-0.03 1.823,-0.31 1.812,-0.614Z" style="fill:#4c2827;fill-rule:nonzero;"/><path d="M39.833,4.382c0.393,1.3 -0.033,1.737 -1.28,1.31c-0.613,-0.207 -0.853,-0.003 -0.72,0.61c-3.407,-0.293 -6.073,-0.197 -8,0.29c-5.327,1.353 -6.877,4.513 -4.65,9.48c0.13,0.28 0.4,0.48 0.71,0.5c3.4,0.287 6.797,0.543 10.19,0.77c0.407,0.027 0.89,0.303 1.45,0.83c0.23,0.21 0.54,0.33 0.87,0.32l10.68,-0.36c-1.167,0.807 -2.583,1.043 -4.25,0.71c-1.9,-0.38 -3.83,-0.13 -5.79,0.75c-0.887,-0.833 -1.623,-0.75 -2.21,0.25c-0.287,0.493 -0.55,1.577 -0.79,3.25c-1.353,0.407 -2.733,0.533 -4.14,0.38c-2.667,-0.3 -5.34,-0.357 -8.02,-0.17c-0.14,0.007 -0.503,-0.017 -1.09,-0.07c-0.627,-0.06 -0.947,0.213 -0.96,0.82c-1.473,1.053 -3.083,1.27 -4.83,0.65c-1.987,-0.713 -4.043,-1.013 -6.17,-0.9c0.713,-0.167 1.433,-0.29 2.16,-0.37c0.753,-0.087 1.46,-0.23 2.12,-0.43c2.673,-0.827 5.41,-1.157 8.21,-0.99c0.78,0.047 1.453,0.04 2.02,-0.02c0.667,-0.067 1.333,-0.137 2,-0.21c0.593,-0.073 1.577,-0.003 2.95,0.21c0.913,0.14 1.83,0.08 2.75,-0.18c0.31,-0.09 0.63,-0.08 0.93,0.02c1.393,0.493 2.037,0.077 1.93,-1.25c-0.02,-0.29 -0.25,-0.53 -0.56,-0.58c-2.033,-0.347 -4.067,-0.417 -6.1,-0.21c-3.7,0.367 -5.7,0.553 -6,0.56c-3.967,0.087 -7.933,0.163 -11.9,0.23c-0.313,0.007 -0.63,-0.073 -0.95,-0.24c-1.807,-0.907 -3.147,-0.407 -4.02,1.5c0.427,-1.987 -0.253,-3.25 -2.04,-3.79c2.333,-0.48 4.417,-1.48 6.25,-3c0.513,0.213 1.013,0.24 1.5,0.08c0.133,1.06 0.65,1.693 1.55,1.9c1.147,0.26 1.757,0.4 1.83,0.42c3.153,1.16 5.52,0.327 7.1,-2.5c0.34,-0.607 0.443,-1.247 0.31,-1.92c-0.133,-0.673 -0.33,-1.333 -0.59,-1.98c-0.113,-0.28 -0.157,-0.597 -0.13,-0.95c0.053,-0.82 -0.293,-0.96 -1.04,-0.42c-0.41,0.29 -1.15,0.42 -2.03,0.34l-4.71,-0.43c0.06,-1.253 -0.37,-2.1 -1.29,-2.54c1.313,-1.667 3.797,-2.477 7.45,-2.43c1.18,0.013 2.28,0.313 3.3,0.9c0.333,0.193 0.793,0.12 1.38,-0.22c0.24,-0.13 0.53,-0.06 0.66,0.17c0.533,0.933 0.96,0.863 1.28,-0.21c0.11,-0.39 0.35,-0.66 0.58,-0.67c0.14,-0.007 0.277,0.04 0.41,0.14c0.18,0.15 0.42,0.2 0.61,0.12c0.767,-0.313 1.323,-0.06 1.67,0.76c0.08,0.2 0.34,0.26 0.48,0.11c1.287,-1.36 2.713,-1.503 4.28,-0.43c0.2,0.14 0.49,0.09 0.65,-0.13c0.42,-0.58 0.89,-0.64 1.41,-0.18c0.21,0.19 0.52,0.22 0.75,0.07c0.553,-0.347 1.167,-0.57 1.84,-0.67Zm-22.77,1.81c-0.31,-0.08 -0.63,0.1 -0.73,0.4c-0.427,1.333 -0.16,1.597 0.8,0.79c0.073,-0.06 0.26,-0.19 0.56,-0.39c0.46,-0.307 0.25,-0.573 -0.63,-0.8Z" style="fill:#81484c;fill-rule:nonzero;"/><path d="M17.063,6.192c0.88,0.227 1.09,0.493 0.63,0.8c-0.3,0.2 -0.487,0.33 -0.56,0.39c-0.96,0.807 -1.227,0.543 -0.8,-0.79c0.1,-0.3 0.42,-0.48 0.73,-0.4Z" style="fill:#d69faa;fill-rule:nonzero;"/><path d="M37.833,6.302l25.43,-0.15c0.33,0 0.65,0.13 0.87,0.36c1.413,1.473 2.273,3.23 2.58,5.27c0.04,0.31 -0.06,0.63 -0.29,0.86c-2.373,2.407 -5.25,3.973 -8.63,4.7c-1.567,0.007 -3.053,0.353 -4.46,1.04l-4.25,-0.25l-10.68,0.36c-0.33,0.01 -0.64,-0.11 -0.87,-0.32c-0.56,-0.527 -1.043,-0.803 -1.45,-0.83c-3.393,-0.227 -6.79,-0.483 -10.19,-0.77c-0.31,-0.02 -0.58,-0.22 -0.71,-0.5c-2.227,-4.967 -0.677,-8.127 4.65,-9.48c1.927,-0.487 4.593,-0.583 8,-0.29Z" style="fill:#fff;fill-rule:nonzero;"/><path d="M77.209,6.156c1.19,0.13 2.123,0.546 2.081,0.93c-0.041,0.385 -1.042,0.591 -2.232,0.462c-1.191,-0.129 -2.124,-0.546 -2.082,-0.93c0.042,-0.384 1.042,-0.591 2.233,-0.462Z" style="fill:#edd6da;"/><path d="M72.335,6.26c0.799,-0.108 1.5,0.195 1.565,0.676c0.065,0.482 -0.53,0.96 -1.329,1.068c-0.799,0.108 -1.5,-0.195 -1.565,-0.676c-0.065,-0.482 0.531,-0.96 1.329,-1.068Z" style="fill:#d69faa;"/><path d="M13.083,7.052c0.92,0.44 1.35,1.287 1.29,2.54l-2.29,5.54c-0.487,0.16 -0.987,0.133 -1.5,-0.08c0.333,-2.84 1.167,-5.507 2.5,-8Z" style="fill:#4c2827;fill-rule:nonzero;"/><path d="M12.083,15.132l2.29,-5.54l4.71,0.43c0.88,0.08 1.62,-0.05 2.03,-0.34c0.747,-0.54 1.093,-0.4 1.04,0.42c-0.027,0.353 0.017,0.67 0.13,0.95c0.26,0.647 0.457,1.307 0.59,1.98c0.133,0.673 0.03,1.313 -0.31,1.92c-1.58,2.827 -3.947,3.66 -7.1,2.5c-0.073,-0.02 -0.683,-0.16 -1.83,-0.42c-0.9,-0.207 -1.417,-0.84 -1.55,-1.9Z" style="fill:#fff;fill-rule:nonzero;"/><path d="M82.454,10.997c0.014,-0.867 -0.679,-1.581 -1.545,-1.595l-10.139,-0.159c-0.866,-0.014 -1.581,0.679 -1.594,1.545l-0.084,5.319c-0.013,0.867 0.679,1.581 1.545,1.595l10.139,0.159c0.866,0.014 1.581,-0.679 1.595,-1.545l0.083,-5.319Z" style="fill:#fff;"/><path d="M57.793,17.342c-0.22,0.687 -0.207,1.34 0.04,1.96c-1.7,-0.267 -2.92,0.07 -3.66,1.01c-0.7,0.873 -0.487,1.303 0.64,1.29l22.73,-0.26c0.21,0 0.39,0.08 0.48,0.2c0.06,0.087 0.093,0.18 0.1,0.28c0.03,0.26 -0.24,0.48 -0.58,0.49l-5.22,0.06c-0.37,0 -0.68,0.11 -0.86,0.31c-0.48,0.52 -0.167,0.743 0.94,0.67c1.06,-0.067 2.12,-0.057 3.18,0.03c-0.08,0.62 -0.297,1.15 -0.65,1.59c-0.2,0.24 -0.52,0.35 -0.84,0.28l-2.28,-0.53c-0.27,-0.06 -0.55,0.08 -0.66,0.34c-0.793,1.88 -2.213,2.94 -4.26,3.18c-0.31,0.04 -0.61,-0.11 -0.79,-0.37c-0.713,-1.053 -1.137,-2.217 -1.27,-3.49l4.38,-1.07c0.3,-0.073 0.323,-0.18 0.07,-0.32c-1.227,-0.7 -2.327,-0.973 -3.3,-0.82c-0.84,0.127 -1.28,0.193 -1.32,0.2c-3.86,0.147 -7.72,0.22 -11.58,0.22c-0.36,0 -0.68,-0.13 -0.86,-0.35c-0.573,-0.667 -0.453,-1.383 0.36,-2.15c0.227,-0.213 0.477,-0.783 0.75,-1.71c1.407,-0.687 2.893,-1.033 4.46,-1.04Z" style="fill:#81484c;fill-rule:nonzero;"/><path d="M49.083,18.132l4.25,0.25c-0.273,0.927 -0.523,1.497 -0.75,1.71c-0.813,0.767 -0.933,1.483 -0.36,2.15c0.18,0.22 0.5,0.35 0.86,0.35c3.86,0 7.72,-0.073 11.58,-0.22c0.04,-0.007 0.48,-0.073 1.32,-0.2c0.973,-0.153 2.073,0.12 3.3,0.82c0.253,0.14 0.23,0.247 -0.07,0.32l-4.38,1.07c-1.947,-0.3 -3.197,-0.397 -3.75,-0.29c-2.46,0.46 -4.883,0.343 -7.27,-0.35c-0.31,-0.09 -0.65,-0.1 -0.96,-0.01c-0.893,0.253 -1.63,0.353 -2.21,0.3c-3.907,-0.36 -7.82,-0.53 -11.74,-0.51c-0.31,0.01 -0.56,-0.23 -0.51,-0.49l0.65,-3.44c1.96,-0.88 3.89,-1.13 5.79,-0.75c1.667,0.333 3.083,0.097 4.25,-0.71Z" style="fill:#d69faa;fill-rule:nonzero;"/><path d="M57.833,19.302c0.4,0.167 1.42,0.2 3.06,0.1c4.12,-0.247 10.87,-0.18 20.25,0.2c0.06,0.007 0.893,-0.017 2.5,-0.07c2.667,-0.087 3.263,1.343 1.79,4.29c-0.21,0.43 -0.69,0.65 -1.14,0.53c-3.527,-0.913 -6.43,-1.237 -8.71,-0.97c-1.06,-0.087 -2.12,-0.097 -3.18,-0.03c-1.107,0.073 -1.42,-0.15 -0.94,-0.67c0.18,-0.2 0.49,-0.31 0.86,-0.31l5.22,-0.06c0.34,-0.01 0.61,-0.23 0.58,-0.49c-0.007,-0.1 -0.04,-0.193 -0.1,-0.28c-0.09,-0.12 -0.27,-0.2 -0.48,-0.2l-22.73,0.26c-1.127,0.013 -1.34,-0.417 -0.64,-1.29c0.74,-0.94 1.96,-1.277 3.66,-1.01Z" style="fill:#edd6da;fill-rule:nonzero;"/><path d="M10.833,23.802c-1.72,0.567 -3.22,0.33 -4.5,-0.71c-0.347,-0.28 -0.333,-0.697 0.04,-1.25c0.873,-1.907 2.213,-2.407 4.02,-1.5c0.32,0.167 0.637,0.247 0.95,0.24c3.967,-0.067 7.933,-0.143 11.9,-0.23c0.3,-0.007 2.3,-0.193 6,-0.56c2.033,-0.207 4.067,-0.137 6.1,0.21c0.31,0.05 0.54,0.29 0.56,0.58c0.107,1.327 -0.537,1.743 -1.93,1.25c-0.3,-0.1 -0.62,-0.11 -0.93,-0.02c-0.92,0.26 -1.837,0.32 -2.75,0.18c-1.373,-0.213 -2.357,-0.283 -2.95,-0.21c-0.667,0.073 -1.333,0.143 -2,0.21c-0.567,0.06 -1.24,0.067 -2.02,0.02c-2.8,-0.167 -5.537,0.163 -8.21,0.99c-0.66,0.2 -1.367,0.343 -2.12,0.43c-0.727,0.08 -1.447,0.203 -2.16,0.37Z" style="fill:#edd6da;fill-rule:nonzero;"/><path d="M36.043,23.092c0.713,0.573 0.553,0.93 -0.48,1.07c-1.5,0.193 -3,0.373 -4.5,0.54c-0.06,0.007 -0.87,0.143 -2.43,0.41c-2.333,0.387 -4.6,0.033 -6.8,-1.06c0.013,-0.607 0.333,-0.88 0.96,-0.82c0.587,0.053 0.95,0.077 1.09,0.07c2.68,-0.187 5.353,-0.13 8.02,0.17c1.407,0.153 2.787,0.027 4.14,-0.38Z" style="fill:#edd6da;fill-rule:nonzero;"/><path d="M65.663,29.502c1.567,1.847 1.867,3.467 0.9,4.86c-0.6,0.86 -1.793,1.51 -3.58,1.95c-6.6,1.62 -13.317,2.207 -20.15,1.76c-3.007,-0.193 -6.007,-0.187 -9,0.02c-1.747,0.12 -3.913,-0.567 -6.5,-2.06c-0.29,-0.16 -0.51,-0.42 -0.62,-0.73c-1.373,-3.833 -0.07,-6.177 3.91,-7.03c1.987,-0.42 3.977,-0.847 5.97,-1.28c2.087,-0.453 4.1,-0.663 6.04,-0.63c7.147,0.113 14.08,0.737 20.8,1.87c0.87,0.15 1.65,0.6 2.23,1.27Z" style="fill:#fff;fill-rule:nonzero;"/><path d="M19.643,26.782c1.233,0.26 2.407,0.517 3.52,0.77c0.63,0.14 1.05,0.71 0.92,1.27l-1.28,5.64c-0.11,0.49 -0.52,0.85 -1,0.89l-6.36,0.48c-1.12,0.087 -1.873,-0.467 -2.26,-1.66c-2.013,-6.273 0.14,-8.737 6.46,-7.39Z" style="fill:#fff;fill-rule:nonzero;"/><path d="M81.123,27.552c0.38,0.05 0.7,0.34 0.78,0.72c0.227,0.98 0.243,2.06 0.05,3.24c-0.2,1.213 -0.65,2.16 -1.35,2.84c-0.98,0.96 -2.22,1.403 -3.72,1.33c-1.027,-0.053 -1.567,-0.08 -1.62,-0.08c-1.953,0.06 -3.993,0.34 -6.12,0.84c-0.23,0.05 -0.43,-0.15 -0.38,-0.37c0.3,-1.24 0.4,-2.483 0.3,-3.73c-0.14,-1.653 0.263,-3.003 1.21,-4.05c0.767,-0.847 1.943,-1.277 3.53,-1.29c2.073,-0.013 4.513,0.17 7.32,0.55Z" style="fill:#fff;fill-rule:nonzero;"/><path d="M18.623,38.092c0.393,-0.113 0.727,-0.03 1,0.25c-2.547,2.767 -2.88,2.683 -1,-0.25Z" style="fill:#d69faa;fill-rule:nonzero;"/><path d="M44.236,38.292c1.01,-0.03 1.837,0.197 1.846,0.506c0.009,0.309 -0.803,0.584 -1.812,0.614c-1.01,0.03 -1.837,-0.197 -1.846,-0.506c-0.009,-0.309 0.803,-0.584 1.812,-0.614Z" style="fill:#4c2827;"/></svg>