<?xml version="1.0" encoding="UTF-8" standalone="no"?><!DOCTYPE svg PUBLIC "-//W3C//DTD SVG 1.1//EN" "http://www.w3.org/Graphics/SVG/1.1/DTD/svg11.dtd"><svg width="100%" height="100%" viewBox="0 0 82 81" version="1.1" xmlns="http://www.w3.org/2000/svg" xmlns:xlink="http://www.w3.org/1999/xlink" xml:space="preserve" xmlns:serif="http://www.serif.com/" style="fill-rule:evenodd;clip-rule:evenodd;"><g><path d="M1.31,0c-0.02,0.067 -0.04,0.137 -0.06,0.21" style="fill:none;fill-rule:nonzero;stroke:#d1ceae;stroke-opacity:0.05;stroke-width:2px;"/><path d="M13.75,78.46c6.033,0.74 12.073,0.98 18.12,0.72c5.167,-0.22 8.8,-0.32 10.9,-0.3c5.293,0.04 8.933,0.017 10.92,-0.07c7.68,-0.34 15.613,-0.527 23.8,-0.56c0.51,-0.01 0.94,-0.37 1.03,-0.87c1.007,-5.567 1.097,-11.193 0.27,-16.88" style="fill:none;fill-rule:nonzero;stroke:#b6aa90;stroke-width:2px;"/><path d="M78.79,60.5c-0.04,-0.593 -0.207,-1.127 -0.5,-1.6c-0.16,-0.25 -0.45,-0.42 -0.79,-0.46c-4.987,-0.553 -9.987,-0.61 -15,-0.17c-3.2,0.28 -6.223,-0.19 -9.07,-1.41c-1.247,-0.533 -2.21,-1.443 -2.89,-2.73c-1.96,-3.7 -3.35,-7.817 -4.17,-12.35c-0.13,-0.7 0.08,-1.42 0.55,-1.95c5.507,-6.173 10.88,-11.77 16.12,-16.79c1.387,-1.32 2.573,-2.833 3.56,-4.54c0.833,-1.433 0.693,-2.79 -0.42,-4.07l-4.95,-5.73c-0.42,-0.48 -1.09,-0.67 -1.69,-0.46c-1.307,0.44 -2.587,0.93 -3.84,1.47c-1.207,0.52 -2.397,1.207 -3.57,2.06c-6.013,4.387 -11.59,9.267 -16.73,14.64c-4.7,4.92 -7.057,7.387 -7.07,7.4c-5.127,5.133 -10.303,10.213 -15.53,15.24c-3.393,3.273 -6.097,6.153 -8.11,8.64c-0.693,0.853 -1.053,1.857 -1.08,3.01c-0.047,1.973 -0.077,3.003 -0.09,3.09c-0.6,4.353 -0.707,8.58 -0.32,12.68c0.133,1.393 0.91,2.083 2.33,2.07l8.22,-0.08" style="fill:none;fill-rule:nonzero;stroke:#a3897a;stroke-width:2px;"/><path d="M78.79,60.5c0.113,0.673 -0.137,1.09 -0.75,1.25" style="fill:none;fill-rule:nonzero;stroke:#6d4842;stroke-width:2px;"/><path d="M78.04,61.75c-0.713,-1.007 -1.477,-1.59 -2.29,-1.75c-3.087,-0.607 -6.44,-0.75 -10.06,-0.43c-2.48,0.22 -4.777,0.24 -6.89,0.06c-5.027,-0.427 -10.057,-0.357 -15.09,0.21c-0.633,0.073 -1.097,0.267 -1.39,0.58c-0.573,0.627 -0.347,1.25 0.68,1.87" style="fill:none;fill-rule:nonzero;stroke:#ac9396;stroke-width:2px;"/><path d="M43,62.29c-0.333,1.353 0.087,1.953 1.26,1.8c0.33,-0.04 0.63,0.09 0.76,0.32c0.34,0.613 0.43,1.31 0.27,2.09" style="fill:none;fill-rule:nonzero;stroke:#59272c;stroke-width:2px;"/><path d="M45.29,66.5c-0.293,0.533 -0.723,0.88 -1.29,1.04" style="fill:none;fill-rule:nonzero;stroke:#9e8475;stroke-width:2px;"/><path d="M44,67.54l-3.25,-5.33" style="fill:none;fill-rule:nonzero;stroke:#ac9396;stroke-width:2px;"/><path d="M40.75,62.21c-0.127,-1.04 0.047,-1.95 0.52,-2.73c0.16,-0.27 0.44,-0.45 0.78,-0.51l6.46,-1.14c0.3,-0.05 0.62,0.01 0.91,0.17c1.42,0.787 1.883,0.477 1.39,-0.93c-0.12,-0.347 -0.333,-0.74 -0.64,-1.18c-1.733,-2.5 -2.957,-4.963 -3.67,-7.39c-0.233,-0.793 -0.72,-1.127 -1.46,-1" style="fill:none;fill-rule:nonzero;stroke:#782a35;stroke-width:2px;"/><path d="M45.04,47.5c-0.66,-3.347 -1.507,-3.693 -2.54,-1.04" style="fill:none;fill-rule:nonzero;stroke:#9e8475;stroke-width:2px;"/><path d="M42.5,46.46c-1.54,-0.013 -2.137,-0.833 -1.79,-2.46" style="fill:none;fill-rule:nonzero;stroke:#782a35;stroke-width:2px;"/><path d="M40.71,44c1.5,-1.433 2.793,-3.017 3.88,-4.75c0.073,-0.113 0.23,-0.517 0.47,-1.21c0.193,-0.553 0.593,-0.833 1.2,-0.84c0.37,0 0.68,-0.11 0.85,-0.29l11.38,-11.82c0.367,-0.38 0.75,-0.643 1.15,-0.79c2.64,-0.987 4.21,-2.733 4.71,-5.24c0.06,-0.27 -0.14,-0.52 -0.41,-0.53c-1.36,-0.007 -2.34,0.597 -2.94,1.81c-0.28,0.56 -0.4,0.533 -0.36,-0.08c0.133,-1.94 1.17,-2.86 3.11,-2.76c2.453,0.127 3.1,-0.603 1.94,-2.19c-1.093,-1.48 -2.233,-2.923 -3.42,-4.33c-1.633,-1.92 -3.327,-2.017 -5.08,-0.29c-5.8,5.707 -11.677,11.33 -17.63,16.87c-0.8,0.747 -2.667,2.9 -5.6,6.46c-0.033,0.047 -0.443,0.597 -1.23,1.65c-1.02,1.367 -2.307,2.453 -3.86,3.26c-1.687,0.873 -2.903,2.01 -3.65,3.41c-0.47,0.88 -0.26,1.96 0.49,2.6c0.793,0.68 1.507,1.27 2.14,1.77c0.86,0.693 1.683,0.98 2.47,0.86c1.38,-0.213 1.973,-1.203 1.78,-2.97c-0.027,-0.227 -0,-0.41 0.08,-0.55c0.153,-0.3 0.343,-0.387 0.57,-0.26c0.133,0.073 0.257,0.243 0.37,0.51c0.953,2.353 1.997,2.033 3.13,-0.96c0.347,-0.913 0.533,-0.88 0.56,0.1c0.027,1.16 0.507,1.693 1.44,1.6" style="fill:none;fill-rule:nonzero;stroke:#ac9396;stroke-width:2px;"/><path d="M38.25,45.04c-1.86,0.707 -2.957,2.11 -3.29,4.21" style="fill:none;fill-rule:nonzero;stroke:#782a35;stroke-width:2px;"/><path d="M34.96,49.25c-1.1,-0.6 -2.243,-0.86 -3.43,-0.78c-1.827,0.12 -2.853,0.21 -3.08,0.27c-1.047,0.273 -1.797,1.2 -2.25,2.78c-0.2,0.67 0.27,1.34 0.97,1.4c1.34,0.1 2.043,0.587 2.11,1.46c0.06,0.76 0.35,0.897 0.87,0.41l4.31,-4.04" style="fill:none;fill-rule:nonzero;stroke:#ac9396;stroke-width:2px;"/><path d="M34.46,50.75c0.76,0.84 0.873,1.627 0.34,2.36c-0.2,0.273 -0.76,0.647 -1.68,1.12c-1.74,0.893 -2.963,2.287 -3.67,4.18c-0.15,0.4 0.17,0.82 0.6,0.78c0.933,-0.093 1.717,0.14 2.35,0.7c0.23,0.21 0.24,0.56 0.02,0.74c-0.187,0.153 -0.41,0.263 -0.67,0.33" style="fill:none;fill-rule:nonzero;stroke:#782a35;stroke-width:2px;"/><path d="M31.75,60.96l-5.5,0.75" style="fill:none;fill-rule:nonzero;stroke:#ac9396;stroke-width:2px;"/><path d="M26.25,61.71c-0.733,-1.507 -1.053,-1.327 -0.96,0.54" style="fill:none;fill-rule:nonzero;stroke:#6d4842;stroke-width:2px;"/><path d="M25.29,62.25c-1.087,1.907 -1.933,1.92 -2.54,0.04" style="fill:none;fill-rule:nonzero;stroke:#ac9396;stroke-width:2px;"/><path d="M22.75,62.29c0.873,-0.507 1.32,-1.21 1.34,-2.11c0.01,-0.28 -0.24,-0.5 -0.53,-0.47c-1.16,0.1 -2.18,0.543 -3.06,1.33" style="fill:none;fill-rule:nonzero;stroke:#6d4842;stroke-width:2px;"/><path d="M20.5,61.04l-2.22,-1.02c-0.27,-0.12 -0.6,-0.08 -0.85,0.12c-0.7,0.547 -1.407,0.73 -2.12,0.55c-2.32,-0.587 -5.09,-1.02 -8.31,-1.3c-0.47,-0.04 -0.88,0.31 -0.94,0.78l-1.57,13.3c-0.18,1.5 0.41,2.543 1.77,3.13c1.673,0.713 3.67,0.597 5.99,-0.35c0.98,-0.4 1.743,-0.15 2.29,0.75" style="fill:none;fill-rule:nonzero;stroke:#ac9396;stroke-width:2px;"/><path d="M14.54,77l-0.79,1.46" style="fill:none;fill-rule:nonzero;stroke:#6d4842;stroke-width:2px;"/><path d="M20.5,61.04c0.547,0.787 1.297,1.203 2.25,1.25" style="fill:none;fill-rule:nonzero;stroke:#c0b4ab;stroke-width:2px;"/><path d="M25.29,62.25l0.96,-0.54" style="fill:none;fill-rule:nonzero;stroke:#c0b4ab;stroke-width:2px;"/><path d="M44,67.54c2.107,1.107 3.273,0.69 3.5,-1.25" style="fill:none;fill-rule:nonzero;stroke:#f1f0de;stroke-width:2px;"/><path d="M47.5,66.29l3.57,-2.23c0.68,-0.43 1.56,-0.29 2.03,0.32c0.74,0.953 1.28,1.543 1.62,1.77c0.96,0.633 1.18,0.437 0.66,-0.59c-0.573,-1.127 -1.317,-2.047 -2.23,-2.76c-0.23,-0.19 -0.56,-0.23 -0.87,-0.11c-2.173,0.84 -4.32,0.737 -6.44,-0.31c-0.947,-0.467 -1.893,-0.497 -2.84,-0.09" style="fill:none;fill-rule:nonzero;stroke:#ac9396;stroke-width:2px;"/><path d="M78.04,61.75l0.19,11.94c0.02,1.327 -0.647,2.143 -2,2.45c-3.753,0.853 -7.593,1.027 -11.52,0.52c-1.66,-0.22 -3.293,-0.2 -4.9,0.06c-2.633,0.42 -5.283,0.573 -7.95,0.46c-5.2,-0.227 -7.823,-0.34 -7.87,-0.34c-9.813,0.06 -19.63,0.113 -29.45,0.16" style="fill:none;fill-rule:nonzero;stroke:#c0b4ab;stroke-width:2px;"/><path d="M40.71,44c-0.733,0.553 -1.553,0.9 -2.46,1.04" style="fill:none;fill-rule:nonzero;stroke:#cb969e;stroke-width:2px;"/><path d="M47.5,66.29c-0.767,-0.16 -1.503,-0.09 -2.21,0.21" style="fill:none;fill-rule:nonzero;stroke:#9e8475;stroke-width:2px;"/><path d="M42.5,46.46c0.5,0.68 1.033,1.33 1.6,1.95c0.847,0.92 1.16,0.617 0.94,-0.91" style="fill:none;fill-rule:nonzero;stroke:#bd877d;stroke-width:2px;"/><path d="M40.75,62.21c-2.08,0.033 -4.097,-0.283 -6.05,-0.95c-0.473,-0.167 -0.96,-0.25 -1.46,-0.25c-0.493,0 -0.99,-0.017 -1.49,-0.05" style="fill:none;fill-rule:nonzero;stroke:#cb969e;stroke-width:2px;"/><path d="M34.46,50.75c0.38,-0.433 0.547,-0.933 0.5,-1.5" style="fill:none;fill-rule:nonzero;stroke:#cb969e;stroke-width:2px;"/><path d="M22.12,58.61l3.59,-4.7c0.19,-0.25 0.29,-0.56 0.29,-0.9c-0.013,-3.14 -0.097,-5.06 -0.25,-5.76c-0.273,-1.227 -0.923,-1.9 -1.95,-2.02c-0.673,-0.073 -1.407,0.22 -2.2,0.88c-4.04,3.367 -7.95,6.88 -11.73,10.54c-0.18,0.17 -0.14,0.47 0.08,0.57c1.927,0.9 3.963,1.277 6.11,1.13c1.593,-0.113 3.337,0.063 5.23,0.53c0.32,0.08 0.64,-0.03 0.83,-0.27" style="fill:none;fill-rule:nonzero;stroke:#ac9396;stroke-width:2px;"/><path d="M29.296,55.49c0.084,-0.12 0.064,-0.29 -0.057,-0.378l-1.481,-1.092c-0.118,-0.09 -0.288,-0.06 -0.378,0.057l-2.516,3.413c-0.084,0.12 -0.064,0.29 0.057,0.378l1.481,1.092c0.118,0.09 0.288,0.06 0.378,-0.058l2.516,-3.412" style="fill:none;fill-rule:nonzero;stroke:#ac9396;stroke-width:2px;"/><path d="M37.76,59.49c-0.74,-0.673 -1.033,-0.65 -0.88,0.07c0.06,0.27 0.25,0.51 0.52,0.64c1.667,0.813 1.787,0.577 0.36,-0.71" style="fill:none;fill-rule:nonzero;stroke:#8c4b4a;stroke-width:2px;"/></g><path d="M78.79,60.5c0.113,0.673 -0.137,1.09 -0.75,1.25c-0.713,-1.007 -1.477,-1.59 -2.29,-1.75c-3.087,-0.607 -6.44,-0.75 -10.06,-0.43c-2.48,0.22 -4.777,0.24 -6.89,0.06c-5.027,-0.427 -10.057,-0.357 -15.09,0.21c-0.633,0.073 -1.097,0.267 -1.39,0.58c-0.573,0.627 -0.347,1.25 0.68,1.87c-0.333,1.353 0.087,1.953 1.26,1.8c0.33,-0.04 0.63,0.09 0.76,0.32c0.34,0.613 0.43,1.31 0.27,2.09c-0.293,0.533 -0.723,0.88 -1.29,1.04l-3.25,-5.33c-0.127,-1.04 0.047,-1.95 0.52,-2.73c0.16,-0.27 0.44,-0.45 0.78,-0.51l6.46,-1.14c0.3,-0.05 0.62,0.01 0.91,0.17c1.42,0.787 1.883,0.477 1.39,-0.93c-0.12,-0.347 -0.333,-0.74 -0.64,-1.18c-1.733,-2.5 -2.957,-4.963 -3.67,-7.39c-0.233,-0.793 -0.72,-1.127 -1.46,-1c-0.66,-3.347 -1.507,-3.693 -2.54,-1.04c-1.54,-0.013 -2.137,-0.833 -1.79,-2.46c1.5,-1.433 2.793,-3.017 3.88,-4.75c0.073,-0.113 0.23,-0.517 0.47,-1.21c0.193,-0.553 0.593,-0.833 1.2,-0.84c0.37,-0 0.68,-0.11 0.85,-0.29l11.38,-11.82c0.367,-0.38 0.75,-0.643 1.15,-0.79c2.64,-0.987 4.21,-2.733 4.71,-5.24c0.06,-0.27 -0.14,-0.52 -0.41,-0.53c-1.36,-0.007 -2.34,0.597 -2.94,1.81c-0.28,0.56 -0.4,0.533 -0.36,-0.08c0.133,-1.94 1.17,-2.86 3.11,-2.76c2.453,0.127 3.1,-0.603 1.94,-2.19c-1.093,-1.48 -2.233,-2.923 -3.42,-4.33c-1.633,-1.92 -3.327,-2.017 -5.08,-0.29c-5.8,5.707 -11.677,11.33 -17.63,16.87c-0.8,0.747 -2.667,2.9 -5.6,6.46c-0.033,0.047 -0.443,0.597 -1.23,1.65c-1.02,1.367 -2.307,2.453 -3.86,3.26c-1.687,0.873 -2.903,2.01 -3.65,3.41c-0.47,0.88 -0.26,1.96 0.49,2.6c0.793,0.68 1.507,1.27 2.14,1.77c0.86,0.693 1.683,0.98 2.47,0.86c1.38,-0.213 1.973,-1.203 1.78,-2.97c-0.027,-0.227 0,-0.41 0.08,-0.55c0.153,-0.3 0.343,-0.387 0.57,-0.26c0.133,0.073 0.257,0.243 0.37,0.51c0.953,2.353 1.997,2.033 3.13,-0.96c0.347,-0.913 0.533,-0.88 0.56,0.1c0.027,1.16 0.507,1.693 1.44,1.6c-1.86,0.707 -2.957,2.11 -3.29,4.21c-1.1,-0.6 -2.243,-0.86 -3.43,-0.78c-1.827,0.12 -2.853,0.21 -3.08,0.27c-1.047,0.273 -1.797,1.2 -2.25,2.78c-0.2,0.67 0.27,1.34 0.97,1.4c1.34,0.1 2.043,0.587 2.11,1.46c0.06,0.76 0.35,0.897 0.87,0.41l4.31,-4.04c0.76,0.84 0.873,1.627 0.34,2.36c-0.2,0.273 -0.76,0.647 -1.68,1.12c-1.74,0.893 -2.963,2.287 -3.67,4.18c-0.15,0.4 0.17,0.82 0.6,0.78c0.933,-0.093 1.717,0.14 2.35,0.7c0.23,0.21 0.24,0.56 0.02,0.74c-0.187,0.153 -0.41,0.263 -0.67,0.33l-5.5,0.75c-0.733,-1.507 -1.053,-1.327 -0.96,0.54c-1.087,1.907 -1.933,1.92 -2.54,0.04c0.873,-0.507 1.32,-1.21 1.34,-2.11c0.01,-0.28 -0.24,-0.5 -0.53,-0.47c-1.16,0.1 -2.18,0.543 -3.06,1.33l-2.22,-1.02c-0.27,-0.12 -0.6,-0.08 -0.85,0.12c-0.7,0.547 -1.407,0.73 -2.12,0.55c-2.32,-0.587 -5.09,-1.02 -8.31,-1.3c-0.47,-0.04 -0.88,0.31 -0.94,0.78l-1.57,13.3c-0.18,1.5 0.41,2.543 1.77,3.13c1.673,0.713 3.67,0.597 5.99,-0.35c0.98,-0.4 1.743,-0.15 2.29,0.75l-0.79,1.46l-8.22,0.08c-1.42,0.013 -2.197,-0.677 -2.33,-2.07c-0.387,-4.1 -0.28,-8.327 0.32,-12.68c0.013,-0.087 0.043,-1.117 0.09,-3.09c0.027,-1.153 0.387,-2.157 1.08,-3.01c2.013,-2.487 4.717,-5.367 8.11,-8.64c5.227,-5.027 10.403,-10.107 15.53,-15.24c0.013,-0.013 2.37,-2.48 7.07,-7.4c5.14,-5.373 10.717,-10.253 16.73,-14.64c1.173,-0.853 2.363,-1.54 3.57,-2.06c1.253,-0.54 2.533,-1.03 3.84,-1.47c0.6,-0.21 1.27,-0.02 1.69,0.46l4.95,5.73c1.113,1.28 1.253,2.637 0.42,4.07c-0.987,1.707 -2.173,3.22 -3.56,4.54c-5.24,5.02 -10.613,10.617 -16.12,16.79c-0.47,0.53 -0.68,1.25 -0.55,1.95c0.82,4.533 2.21,8.65 4.17,12.35c0.68,1.287 1.643,2.197 2.89,2.73c2.847,1.22 5.87,1.69 9.07,1.41c5.013,-0.44 10.013,-0.383 15,0.17c0.34,0.04 0.63,0.21 0.79,0.46c0.293,0.473 0.46,1.007 0.5,1.6Zm-56.67,-1.89l3.59,-4.7c0.19,-0.25 0.29,-0.56 0.29,-0.9c-0.013,-3.14 -0.097,-5.06 -0.25,-5.76c-0.273,-1.227 -0.923,-1.9 -1.95,-2.02c-0.673,-0.073 -1.407,0.22 -2.2,0.88c-4.04,3.367 -7.95,6.88 -11.73,10.54c-0.18,0.17 -0.14,0.47 0.08,0.57c1.927,0.9 3.963,1.277 6.11,1.13c1.593,-0.113 3.337,0.063 5.23,0.53c0.32,0.08 0.64,-0.03 0.83,-0.27Zm7.176,-3.12c0.084,-0.12 0.064,-0.29 -0.057,-0.378l-1.481,-1.092c-0.118,-0.09 -0.288,-0.06 -0.378,0.057l-2.516,3.413c-0.084,0.12 -0.064,0.29 0.057,0.378l1.481,1.092c0.118,0.09 0.288,0.06 0.378,-0.058l2.516,-3.412Z" style="fill:#59272c;fill-rule:nonzero;"/><path d="M40.71,44c-0.733,0.553 -1.553,0.9 -2.46,1.04c-0.933,0.093 -1.413,-0.44 -1.44,-1.6c-0.027,-0.98 -0.213,-1.013 -0.56,-0.1c-1.133,2.993 -2.177,3.313 -3.13,0.96c-0.113,-0.267 -0.237,-0.437 -0.37,-0.51c-0.227,-0.127 -0.417,-0.04 -0.57,0.26c-0.08,0.14 -0.107,0.323 -0.08,0.55c0.193,1.767 -0.4,2.757 -1.78,2.97c-0.787,0.12 -1.61,-0.167 -2.47,-0.86c-0.633,-0.5 -1.347,-1.09 -2.14,-1.77c-0.75,-0.64 -0.96,-1.72 -0.49,-2.6c0.747,-1.4 1.963,-2.537 3.65,-3.41c1.553,-0.807 2.84,-1.893 3.86,-3.26c0.787,-1.053 1.197,-1.603 1.23,-1.65c2.933,-3.56 4.8,-5.713 5.6,-6.46c5.953,-5.54 11.83,-11.163 17.63,-16.87c1.753,-1.727 3.447,-1.63 5.08,0.29c1.187,1.407 2.327,2.85 3.42,4.33c1.16,1.587 0.513,2.317 -1.94,2.19c-1.94,-0.1 -2.977,0.82 -3.11,2.76c-0.04,0.613 0.08,0.64 0.36,0.08c0.6,-1.213 1.58,-1.817 2.94,-1.81c0.27,0.01 0.47,0.26 0.41,0.53c-0.5,2.507 -2.07,4.253 -4.71,5.24c-0.4,0.147 -0.783,0.41 -1.15,0.79l-11.38,11.82c-0.17,0.18 -0.48,0.29 -0.85,0.29c-0.607,0.007 -1.007,0.287 -1.2,0.84c-0.24,0.693 -0.397,1.097 -0.47,1.21c-1.087,1.733 -2.38,3.317 -3.88,4.75Z" style="fill:#fff;fill-rule:nonzero;"/><path d="M40.71,44c-0.347,1.627 0.25,2.447 1.79,2.46c0.5,0.68 1.033,1.33 1.6,1.95c0.847,0.92 1.16,0.617 0.94,-0.91c0.74,-0.127 1.227,0.207 1.46,1c0.713,2.427 1.937,4.89 3.67,7.39c0.307,0.44 0.52,0.833 0.64,1.18c0.493,1.407 0.03,1.717 -1.39,0.93c-0.29,-0.16 -0.61,-0.22 -0.91,-0.17l-6.46,1.14c-0.34,0.06 -0.62,0.24 -0.78,0.51c-0.473,0.78 -0.647,1.69 -0.52,2.73c-2.08,0.033 -4.097,-0.283 -6.05,-0.95c-0.473,-0.167 -0.96,-0.25 -1.46,-0.25c-0.493,0 -0.99,-0.017 -1.49,-0.05c0.26,-0.067 0.483,-0.177 0.67,-0.33c0.22,-0.18 0.21,-0.53 -0.02,-0.74c-0.633,-0.56 -1.417,-0.793 -2.35,-0.7c-0.43,0.04 -0.75,-0.38 -0.6,-0.78c0.707,-1.893 1.93,-3.287 3.67,-4.18c0.92,-0.473 1.48,-0.847 1.68,-1.12c0.533,-0.733 0.42,-1.52 -0.34,-2.36c0.38,-0.433 0.547,-0.933 0.5,-1.5c0.333,-2.1 1.43,-3.503 3.29,-4.21c0.907,-0.14 1.727,-0.487 2.46,-1.04Zm-2.95,15.49c-0.74,-0.673 -1.033,-0.65 -0.88,0.07c0.06,0.27 0.25,0.51 0.52,0.64c1.667,0.813 1.787,0.577 0.36,-0.71Z" style="fill:#972d3d;fill-rule:nonzero;"/><path d="M45.04,47.5c0.22,1.527 -0.093,1.83 -0.94,0.91c-0.567,-0.62 -1.1,-1.27 -1.6,-1.95c1.033,-2.653 1.88,-2.307 2.54,1.04Z" style="fill:#e3e0bd;fill-rule:nonzero;"/><path d="M22.12,58.61c-0.19,0.24 -0.51,0.35 -0.83,0.27c-1.893,-0.467 -3.637,-0.643 -5.23,-0.53c-2.147,0.147 -4.183,-0.23 -6.11,-1.13c-0.22,-0.1 -0.26,-0.4 -0.08,-0.57c3.78,-3.66 7.69,-7.173 11.73,-10.54c0.793,-0.66 1.527,-0.953 2.2,-0.88c1.027,0.12 1.677,0.793 1.95,2.02c0.153,0.7 0.237,2.62 0.25,5.76c0,0.34 -0.1,0.65 -0.29,0.9l-3.59,4.7Z" style="fill:#fff;fill-rule:nonzero;"/><path d="M34.96,49.25c0.047,0.567 -0.12,1.067 -0.5,1.5l-4.31,4.04c-0.52,0.487 -0.81,0.35 -0.87,-0.41c-0.067,-0.873 -0.77,-1.36 -2.11,-1.46c-0.7,-0.06 -1.17,-0.73 -0.97,-1.4c0.453,-1.58 1.203,-2.507 2.25,-2.78c0.227,-0.06 1.253,-0.15 3.08,-0.27c1.187,-0.08 2.33,0.18 3.43,0.78Z" style="fill:#fff;fill-rule:nonzero;"/><path d="M29.296,55.49c0.088,-0.12 0.063,-0.289 -0.057,-0.378l-1.481,-1.092c-0.12,-0.088 -0.289,-0.062 -0.378,0.057l-2.516,3.413c-0.088,0.12 -0.063,0.289 0.057,0.378l1.481,1.092c0.12,0.088 0.289,0.062 0.378,-0.057l2.516,-3.413Z" style="fill:#fff;"/><path d="M37.76,59.49c1.427,1.287 1.307,1.523 -0.36,0.71c-0.27,-0.13 -0.46,-0.37 -0.52,-0.64c-0.153,-0.72 0.14,-0.743 0.88,-0.07Z" style="fill:#806957;fill-rule:nonzero;"/><path d="M20.5,61.04c0.547,0.787 1.297,1.203 2.25,1.25c0.607,1.88 1.453,1.867 2.54,-0.04l0.96,-0.54l5.5,-0.75c0.5,0.033 0.997,0.05 1.49,0.05c0.5,0 0.987,0.083 1.46,0.25c1.953,0.667 3.97,0.983 6.05,0.95l3.25,5.33c2.107,1.107 3.273,0.69 3.5,-1.25l3.57,-2.23c0.68,-0.43 1.56,-0.29 2.03,0.32c0.74,0.953 1.28,1.543 1.62,1.77c0.96,0.633 1.18,0.437 0.66,-0.59c-0.573,-1.127 -1.317,-2.047 -2.23,-2.76c-0.23,-0.19 -0.56,-0.23 -0.87,-0.11c-2.173,0.84 -4.32,0.737 -6.44,-0.31c-0.947,-0.467 -1.893,-0.497 -2.84,-0.09c-1.027,-0.62 -1.253,-1.243 -0.68,-1.87c0.293,-0.313 0.757,-0.507 1.39,-0.58c5.033,-0.567 10.063,-0.637 15.09,-0.21c2.113,0.18 4.41,0.16 6.89,-0.06c3.62,-0.32 6.973,-0.177 10.06,0.43c0.813,0.16 1.577,0.743 2.29,1.75l0.19,11.94c0.02,1.327 -0.647,2.143 -2,2.45c-3.753,0.853 -7.593,1.027 -11.52,0.52c-1.66,-0.22 -3.293,-0.2 -4.9,0.06c-2.633,0.42 -5.283,0.573 -7.95,0.46c-5.2,-0.227 -7.823,-0.34 -7.87,-0.34c-9.813,0.06 -19.63,0.113 -29.45,0.16c-0.547,-0.9 -1.31,-1.15 -2.29,-0.75c-2.32,0.947 -4.317,1.063 -5.99,0.35c-1.36,-0.587 -1.95,-1.63 -1.77,-3.13l1.57,-13.3c0.06,-0.47 0.47,-0.82 0.94,-0.78c3.22,0.28 5.99,0.713 8.31,1.3c0.713,0.18 1.42,-0.003 2.12,-0.55c0.25,-0.2 0.58,-0.24 0.85,-0.12l2.22,1.02Z" style="fill:#fff;fill-rule:nonzero;"/><path d="M22.75,62.29c-0.953,-0.047 -1.703,-0.463 -2.25,-1.25c0.88,-0.787 1.9,-1.23 3.06,-1.33c0.29,-0.03 0.54,0.19 0.53,0.47c-0.02,0.9 -0.467,1.603 -1.34,2.11Z" style="fill:#806957;fill-rule:nonzero;"/><path d="M78.79,60.5c0.827,5.687 0.737,11.313 -0.27,16.88c-0.09,0.5 -0.52,0.86 -1.03,0.87c-8.187,0.033 -16.12,0.22 -23.8,0.56c-1.987,0.087 -5.627,0.11 -10.92,0.07c-2.1,-0.02 -5.733,0.08 -10.9,0.3c-6.047,0.26 -12.087,0.02 -18.12,-0.72l0.79,-1.46c9.82,-0.047 19.637,-0.1 29.45,-0.16c0.047,0 2.67,0.113 7.87,0.34c2.667,0.113 5.317,-0.04 7.95,-0.46c1.607,-0.26 3.24,-0.28 4.9,-0.06c3.927,0.507 7.767,0.333 11.52,-0.52c1.353,-0.307 2.02,-1.123 2,-2.45l-0.19,-11.94c0.613,-0.16 0.863,-0.577 0.75,-1.25Z" style="fill:#806957;fill-rule:nonzero;"/><path d="M26.25,61.71l-0.96,0.54c-0.093,-1.867 0.227,-2.047 0.96,-0.54Z" style="fill:#806957;fill-rule:nonzero;"/><path d="M47.5,66.29c-0.767,-0.16 -1.503,-0.09 -2.21,0.21c0.16,-0.78 0.07,-1.477 -0.27,-2.09c-0.13,-0.23 -0.43,-0.36 -0.76,-0.32c-1.173,0.153 -1.593,-0.447 -1.26,-1.8c0.947,-0.407 1.893,-0.377 2.84,0.09c2.12,1.047 4.267,1.15 6.44,0.31c0.31,-0.12 0.64,-0.08 0.87,0.11c0.913,0.713 1.657,1.633 2.23,2.76c0.52,1.027 0.3,1.223 -0.66,0.59c-0.34,-0.227 -0.88,-0.817 -1.62,-1.77c-0.47,-0.61 -1.35,-0.75 -2.03,-0.32l-3.57,2.23Z" style="fill:#59272c;fill-rule:nonzero;"/><path d="M47.5,66.29c-0.227,1.94 -1.393,2.357 -3.5,1.25c0.567,-0.16 0.997,-0.507 1.29,-1.04c0.707,-0.3 1.443,-0.37 2.21,-0.21Z" style="fill:#e3e0bd;fill-rule:nonzero;"/></svg>