<?xml version="1.0" encoding="UTF-8" standalone="no"?><!DOCTYPE svg PUBLIC "-//W3C//DTD SVG 1.1//EN" "http://www.w3.org/Graphics/SVG/1.1/DTD/svg11.dtd"><svg width="100%" height="100%" viewBox="0 0 55 83" version="1.1" xmlns="http://www.w3.org/2000/svg" xmlns:xlink="http://www.w3.org/1999/xlink" xml:space="preserve" xmlns:serif="http://www.serif.com/" style="fill-rule:evenodd;clip-rule:evenodd;"><path d="M17.223,46.95c-0.667,1.473 -1.56,2.756 -2.68,3.85c-1.947,1.9 -3.027,2.99 -3.24,3.27c-2.8,3.68 -5.007,7.71 -6.62,12.09c-0.747,2.04 -0.747,4.066 0,6.08" style="fill:none;fill-rule:nonzero;stroke:#9f8577;stroke-width:2px;"/><path d="M4.683,72.24c-0.033,0.58 0.217,0.996 0.75,1.25" style="fill:none;fill-rule:nonzero;stroke:#dac2b5;stroke-width:2px;"/><path d="M5.433,73.49c-0.047,1.666 0.36,3.18 1.22,4.54c0.13,0.2 0.42,0.19 0.55,-0.01c1.147,-1.854 2.313,-3.694 3.5,-5.52c0.9,-1.394 2.203,-3.137 3.91,-5.23c1.987,-2.454 3.82,-5.017 5.5,-7.69c2.507,-3.994 4.257,-6.597 5.25,-7.81c3.22,-3.934 6.833,-7.49 10.84,-10.67c0.067,-0.054 0.697,-0.49 1.89,-1.31c2,-1.38 3.197,-3.244 3.59,-5.59c1.773,-10.627 4.543,-20.554 8.31,-29.78c0.133,-0.327 0.063,-0.384 -0.21,-0.17l-26.77,21.06c-0.25,0.2 -0.43,0.49 -0.49,0.82c-0.78,4.153 -1.227,8.343 -1.34,12.57c-0.027,1.026 -0.79,2.693 -2.29,5" style="fill:none;fill-rule:nonzero;stroke:#9f8577;stroke-width:2px;"/><path d="M18.893,43.7l-1.67,3.25" style="fill:none;fill-rule:nonzero;stroke:#99806f;stroke-width:2px;"/><path d="M5.433,73.49l2.59,-8.24c0.1,-0.31 0.06,-0.66 -0.1,-0.95c-0.327,-0.574 -0.64,-0.354 -0.94,0.66c-0.727,2.433 -1.493,4.86 -2.3,7.28" style="fill:none;fill-rule:nonzero;stroke:#8d5c65;stroke-width:2px;"/><path d="M29.423,22.16c-1.133,0.866 -2.257,1.746 -3.37,2.64c-1.687,1.366 -2.597,3.163 -2.73,5.39c-0.173,2.92 -0.213,6.083 -0.12,9.49c0.01,0.29 0.24,0.52 0.53,0.52c2.347,0.013 4.17,-0.804 5.47,-2.45c2.527,-3.214 4.21,-6.557 5.05,-10.03c0.21,-0.9 0.75,-1.69 1.5,-2.22c5.307,-3.754 8.39,-8.684 9.25,-14.79c0.047,-0.34 -0.077,-0.42 -0.37,-0.24c-4.327,2.673 -8.31,5.66 -11.95,8.96c-1.14,1.033 -2.227,1.943 -3.26,2.73" style="fill:none;fill-rule:nonzero;stroke:#a88f93;stroke-width:2px;"/><path d="M38.223,27.7l-2.54,1.46" style="fill:none;fill-rule:nonzero;stroke:#8d5c65;stroke-width:2px;"/><path d="M35.683,29.16c-0.4,0.72 -0.47,1.483 -0.21,2.29" style="fill:none;fill-rule:nonzero;stroke:#8d5c65;stroke-width:2px;"/><path d="M35.473,31.45c-0.767,1.073 -1.24,2.26 -1.42,3.56c-0.04,0.27 -0.27,0.48 -0.55,0.51c-0.64,0.06 -1.113,0.34 -1.42,0.84c-2.233,3.633 -5.473,5.553 -9.72,5.76c-0.37,0.02 -0.68,0.17 -0.82,0.4l-2.32,4.07c-0.29,0.51 0.05,1.18 0.69,1.36c1.047,0.293 1.757,0.983 2.13,2.07c0.28,0.84 1.34,1.09 1.97,0.47c4.4,-4.34 8.803,-8.34 13.21,-12c0.767,-0.634 0.99,-1.397 0.67,-2.29" style="fill:none;fill-rule:nonzero;stroke:#702530;stroke-width:2px;"/><path d="M37.893,36.2l1.04,-1.96" style="fill:none;fill-rule:nonzero;stroke:#8d5c65;stroke-width:2px;"/><path d="M38.933,34.24c0.227,-0.114 0.323,-0.294 0.29,-0.54" style="fill:none;fill-rule:nonzero;stroke:#9f8577;stroke-width:2px;"/><path d="M39.223,33.7l0.96,-4.04" style="fill:none;fill-rule:nonzero;stroke:#8d5c65;stroke-width:2px;"/><path d="M40.183,29.66c0.24,-0.76 0.283,-1.5 0.13,-2.22c-0.1,-0.487 -0.357,-0.85 -0.77,-1.09c-0.913,-0.534 -1.353,-0.084 -1.32,1.35" style="fill:none;fill-rule:nonzero;stroke:#9f8577;stroke-width:2px;"/><path d="M40.183,29.66c-0.893,0.566 -1.38,0.163 -1.46,-1.21" style="fill:none;fill-rule:nonzero;stroke:#dac2b5;stroke-width:2px;"/><path d="M38.723,28.45l-0.5,-0.75" style="fill:none;fill-rule:nonzero;stroke:#dac2b5;stroke-width:2px;"/><path d="M39.223,33.7c-0.033,-3.127 -0.397,-3.38 -1.09,-0.76c-0.227,0.853 0.04,1.286 0.8,1.3" style="fill:none;fill-rule:nonzero;stroke:#dac2b5;stroke-width:2px;"/><path d="M37.893,36.2l-2.42,-4.75" style="fill:none;fill-rule:nonzero;stroke:#ab626e;stroke-width:2px;"/><path d="M38.723,28.45c-0.673,0.313 -1.25,0.756 -1.73,1.33c-0.427,0.513 -0.64,0.456 -0.64,-0.17c0,-0.22 -0.14,-0.4 -0.32,-0.42l-0.35,-0.03" style="fill:none;fill-rule:nonzero;stroke:#c899a3;stroke-width:2px;"/><path d="M21.049,51.653c0.334,-0.523 0.184,-1.223 -0.343,-1.561l-1.567,-1.002c-0.526,-0.34 -1.226,-0.18 -1.56,0.343l-0.162,0.253c-0.334,0.524 -0.184,1.224 0.343,1.561l1.567,1.002c0.526,0.341 1.226,0.181 1.561,-0.343l0.161,-0.253" style="fill:none;fill-rule:nonzero;stroke:#9f8577;stroke-width:2px;"/><path d="M18.497,56.441c0.246,-0.371 0.146,-0.861 -0.218,-1.11l-3.387,-2.276c-0.369,-0.245 -0.859,-0.145 -1.11,0.218l-0.312,0.465c-0.247,0.372 -0.147,0.862 0.218,1.11l3.386,2.276c0.369,0.246 0.859,0.146 1.11,-0.218l0.313,-0.465" style="fill:none;fill-rule:nonzero;stroke:#9f8577;stroke-width:2px;"/><path d="M11.893,56.7l-1.65,3.62c-0.39,0.86 0.16,1.89 1.18,2.2c2.26,0.68 3.97,-0.114 5.13,-2.38c0.23,-0.45 0.16,-1 -0.18,-1.37c-1.12,-1.214 -2.42,-1.984 -3.9,-2.31c-0.25,-0.05 -0.49,0.05 -0.58,0.24" style="fill:none;fill-rule:nonzero;stroke:#a88f93;stroke-width:2px;"/><path d="M5.433,73.49l2.59,-8.24c0.1,-0.31 0.06,-0.66 -0.1,-0.95c-0.327,-0.574 -0.64,-0.354 -0.94,0.66c-0.727,2.433 -1.493,4.86 -2.3,7.28c-0.747,-2.014 -0.747,-4.04 0,-6.08c1.613,-4.38 3.82,-8.41 6.62,-12.09c0.213,-0.28 1.293,-1.37 3.24,-3.27c1.12,-1.094 2.013,-2.377 2.68,-3.85l1.67,-3.25c1.5,-2.307 2.263,-3.974 2.29,-5c0.113,-4.227 0.56,-8.417 1.34,-12.57c0.06,-0.33 0.24,-0.62 0.49,-0.82l26.77,-21.06c0.273,-0.214 0.343,-0.157 0.21,0.17c-3.767,9.226 -6.537,19.153 -8.31,29.78c-0.393,2.346 -1.59,4.21 -3.59,5.59c-1.193,0.82 -1.823,1.256 -1.89,1.31c-4.007,3.18 -7.62,6.736 -10.84,10.67c-0.993,1.213 -2.743,3.816 -5.25,7.81c-1.68,2.673 -3.513,5.236 -5.5,7.69c-1.707,2.093 -3.01,3.836 -3.91,5.23c-1.187,1.826 -2.353,3.666 -3.5,5.52c-0.13,0.2 -0.42,0.21 -0.55,0.01c-0.86,-1.36 -1.267,-2.874 -1.22,-4.54Zm23.99,-51.33c-1.133,0.866 -2.257,1.746 -3.37,2.64c-1.687,1.366 -2.597,3.163 -2.73,5.39c-0.173,2.92 -0.213,6.083 -0.12,9.49c0.01,0.29 0.24,0.52 0.53,0.52c2.347,0.013 4.17,-0.804 5.47,-2.45c2.527,-3.214 4.21,-6.557 5.05,-10.03c0.21,-0.9 0.75,-1.69 1.5,-2.22c5.307,-3.754 8.39,-8.684 9.25,-14.79c0.047,-0.34 -0.077,-0.42 -0.37,-0.24c-4.327,2.673 -8.31,5.66 -11.95,8.96c-1.14,1.033 -2.227,1.943 -3.26,2.73Zm8.8,5.54l-2.54,1.46c-0.4,0.72 -0.47,1.483 -0.21,2.29c-0.767,1.073 -1.24,2.26 -1.42,3.56c-0.04,0.27 -0.27,0.48 -0.55,0.51c-0.64,0.06 -1.113,0.34 -1.42,0.84c-2.233,3.633 -5.473,5.553 -9.72,5.76c-0.37,0.02 -0.68,0.17 -0.82,0.4l-2.32,4.07c-0.29,0.51 0.05,1.18 0.69,1.36c1.047,0.293 1.757,0.983 2.13,2.07c0.28,0.84 1.34,1.09 1.97,0.47c4.4,-4.34 8.803,-8.34 13.21,-12c0.767,-0.634 0.99,-1.397 0.67,-2.29l1.04,-1.96c0.227,-0.114 0.323,-0.294 0.29,-0.54l0.96,-4.04c0.24,-0.76 0.283,-1.5 0.13,-2.22c-0.1,-0.487 -0.357,-0.85 -0.77,-1.09c-0.913,-0.534 -1.353,-0.084 -1.32,1.35Zm-17.174,23.953c0.334,-0.523 0.184,-1.223 -0.343,-1.561l-1.567,-1.002c-0.526,-0.34 -1.226,-0.18 -1.56,0.343l-0.162,0.253c-0.334,0.524 -0.184,1.224 0.343,1.561l1.567,1.002c0.526,0.341 1.226,0.181 1.561,-0.343l0.161,-0.253Zm-2.552,4.788c0.246,-0.371 0.146,-0.861 -0.218,-1.11l-3.387,-2.276c-0.369,-0.245 -0.859,-0.145 -1.11,0.218l-0.312,0.465c-0.247,0.372 -0.147,0.862 0.218,1.11l3.386,2.276c0.369,0.246 0.859,0.146 1.11,-0.218l0.313,-0.465Zm-6.604,0.259l-1.65,3.62c-0.39,0.86 0.16,1.89 1.18,2.2c2.26,0.68 3.97,-0.114 5.13,-2.38c0.23,-0.45 0.16,-1 -0.18,-1.37c-1.12,-1.214 -2.42,-1.984 -3.9,-2.31c-0.25,-0.05 -0.49,0.05 -0.58,0.24Z" style="fill:#511f27;fill-rule:nonzero;"/><path d="M32.683,19.43c3.64,-3.3 7.623,-6.287 11.95,-8.96c0.293,-0.18 0.417,-0.1 0.37,0.24c-0.86,6.106 -3.943,11.036 -9.25,14.79c-0.75,0.53 -1.29,1.32 -1.5,2.22c-0.84,3.473 -2.523,6.816 -5.05,10.03c-1.3,1.646 -3.123,2.463 -5.47,2.45c-0.29,-0 -0.52,-0.23 -0.53,-0.52c-0.093,-3.407 -0.053,-6.57 0.12,-9.49c0.133,-2.227 1.043,-4.024 2.73,-5.39c1.113,-0.894 2.237,-1.774 3.37,-2.64c1.033,-0.787 2.12,-1.697 3.26,-2.73Z" style="fill:#fff;fill-rule:nonzero;"/><path d="M40.183,29.66c-0.893,0.566 -1.38,0.163 -1.46,-1.21l-0.5,-0.75c-0.033,-1.434 0.407,-1.884 1.32,-1.35c0.413,0.24 0.67,0.603 0.77,1.09c0.153,0.72 0.11,1.46 -0.13,2.22Z" style="fill:#ecebc6;fill-rule:nonzero;"/><path d="M38.223,27.7l0.5,0.75c-0.673,0.313 -1.25,0.756 -1.73,1.33c-0.427,0.513 -0.64,0.456 -0.64,-0.17c0,-0.22 -0.14,-0.4 -0.32,-0.42l-0.35,-0.03l2.54,-1.46Z" style="fill:#c899a3;fill-rule:nonzero;"/><path d="M38.723,28.45c0.08,1.373 0.567,1.776 1.46,1.21l-0.96,4.04c-0.033,-3.127 -0.397,-3.38 -1.09,-0.76c-0.227,0.853 0.04,1.286 0.8,1.3l-1.04,1.96l-2.42,-4.75c-0.26,-0.807 -0.19,-1.57 0.21,-2.29l0.35,0.03c0.18,0.02 0.32,0.2 0.32,0.42c0,0.626 0.213,0.683 0.64,0.17c0.48,-0.574 1.057,-1.017 1.73,-1.33Z" style="fill:#c899a3;fill-rule:nonzero;"/><path d="M39.223,33.7c0.033,0.246 -0.063,0.426 -0.29,0.54c-0.76,-0.014 -1.027,-0.447 -0.8,-1.3c0.693,-2.62 1.057,-2.367 1.09,0.76Z" style="fill:#ecebc6;fill-rule:nonzero;"/><path d="M35.473,31.45l2.42,4.75c0.32,0.893 0.097,1.656 -0.67,2.29c-4.407,3.66 -8.81,7.66 -13.21,12c-0.63,0.62 -1.69,0.37 -1.97,-0.47c-0.373,-1.087 -1.083,-1.777 -2.13,-2.07c-0.64,-0.18 -0.98,-0.85 -0.69,-1.36l2.32,-4.07c0.14,-0.23 0.45,-0.38 0.82,-0.4c4.247,-0.207 7.487,-2.127 9.72,-5.76c0.307,-0.5 0.78,-0.78 1.42,-0.84c0.28,-0.03 0.51,-0.24 0.55,-0.51c0.18,-1.3 0.653,-2.487 1.42,-3.56Z" style="fill:#8e2b39;fill-rule:nonzero;"/><path d="M21.049,51.653c0.336,-0.525 0.183,-1.225 -0.343,-1.561l-1.567,-1.002c-0.525,-0.336 -1.225,-0.182 -1.561,0.343l-0.161,0.253c-0.336,0.525 -0.182,1.225 0.343,1.561l1.567,1.002c0.525,0.336 1.225,0.182 1.561,-0.343l0.161,-0.253Z" style="fill:#ecebc6;"/><path d="M18.497,56.441c0.246,-0.366 0.148,-0.864 -0.218,-1.11l-3.387,-2.276c-0.366,-0.246 -0.864,-0.148 -1.11,0.218l-0.312,0.465c-0.247,0.366 -0.149,0.864 0.218,1.11l3.386,2.276c0.366,0.246 0.864,0.148 1.11,-0.218l0.313,-0.465Z" style="fill:#ecebc6;"/><path d="M11.893,56.7c0.09,-0.19 0.33,-0.29 0.58,-0.24c1.48,0.326 2.78,1.096 3.9,2.31c0.34,0.37 0.41,0.92 0.18,1.37c-1.16,2.266 -2.87,3.06 -5.13,2.38c-1.02,-0.31 -1.57,-1.34 -1.18,-2.2l1.65,-3.62Z" style="fill:#fff;fill-rule:nonzero;"/><path d="M5.433,73.49c-0.533,-0.254 -0.783,-0.67 -0.75,-1.25c0.807,-2.42 1.573,-4.847 2.3,-7.28c0.3,-1.014 0.613,-1.234 0.94,-0.66c0.16,0.29 0.2,0.64 0.1,0.95l-2.59,8.24Z" style="fill:#c899a3;fill-rule:nonzero;"/></svg>