<?xml version="1.0" encoding="UTF-8" standalone="no"?>
<!DOCTYPE svg PUBLIC "-//W3C//DTD SVG 1.1//EN" "http://www.w3.org/Graphics/SVG/1.1/DTD/svg11.dtd">
<svg xmlns="http://www.w3.org/2000/svg" version="1.1" viewBox="0 0 82 81">
<g stroke-width="2.0" fill="none" stroke-linecap="butt">
<path stroke="#dcd4ce" stroke-opacity="0.533" vector-effect="non-scaling-stroke" d="
  M 1.31 0.00
  Q 0.74 1.96 1.04 4.00"
/>
<path stroke="#dcd4ce" stroke-opacity="0.533" vector-effect="non-scaling-stroke" d="
  M 1.04 77.00
  Q 0.64 79.09 1.44 81.00"
/>
<path stroke="#dcd4ce" stroke-opacity="0.533" vector-effect="non-scaling-stroke" d="
  M 81.06 0.00
  Q 80.98 40.50 80.94 81.00"
/>
<path stroke="#ebe3dd" stroke-opacity="0.992" vector-effect="non-scaling-stroke" d="
  M 53.19 81.00
  Q 50.94 80.37 48.69 81.00"
/>
<path stroke="#c2c0a2" stroke-opacity="0.980" vector-effect="non-scaling-stroke" d="
  M 1.04 77.00
  L 1.96 77.00"
/>
<path stroke="#b88388" stroke-opacity="0.996" vector-effect="non-scaling-stroke" d="
  M 1.96 77.00
  Q 2.25 79.21 4.25 79.25
  Q 20.92 79.60 43.41 78.97
  Q 50.56 78.77 57.58 78.93
  Q 64.66 79.10 71.75 79.19
  Q 75.56 79.25 79.20 78.32
  C 79.49 78.24 79.69 77.99 79.70 77.69
  Q 80.29 54.39 79.92 31.08
  Q 79.84 25.80 79.93 19.05
  Q 80.02 13.03 79.95 7.00
  Q 79.92 4.49 78.95 2.20
  C 78.83 1.93 78.56 1.75 78.25 1.74
  Q 27.58 1.17 4.19 1.69
  Q 2.04 1.73 2.21 4.50"
/>
<path stroke="#c2c0a2" stroke-opacity="0.980" vector-effect="non-scaling-stroke" d="
  M 2.21 4.50
  L 1.04 4.00"
/>
<path stroke="#8f5f4d" stroke-opacity="0.984" vector-effect="non-scaling-stroke" d="
  M 1.96 77.00
  Q 1.43 40.75 2.21 4.50"
/>
<path stroke="#8d444c" vector-effect="non-scaling-stroke" d="
  M 45.79 21.75
  Q 45.59 22.70 44.79 23.25"
/>
<path stroke="#c29199" vector-effect="non-scaling-stroke" d="
  M 44.79 23.25
  Q 43.87 25.80 43.63 31.27
  Q 43.60 31.82 43.15 31.50
  Q 42.05 30.72 41.34 31.79
  Q 40.79 32.61 40.67 32.78
  Q 39.09 34.85 41.15 36.58
  Q 41.46 36.85 41.62 37.13
  Q 43.01 39.52 40.43 37.31
  Q 39.46 36.48 39.12 37.27
  C 39.01 37.53 39.06 37.87 39.24 38.17
  Q 40.48 40.21 43.75 43.50
  Q 45.21 44.97 49.97 51.79
  Q 51.33 53.74 53.33 55.00
  C 53.54 55.13 53.82 55.01 53.86 54.77
  Q 54.02 53.91 53.79 53.00"
/>
<path stroke="#a1606e" vector-effect="non-scaling-stroke" d="
  M 53.79 53.00
  L 55.00 52.04"
/>
<path stroke="#c29199" vector-effect="non-scaling-stroke" d="
  M 55.00 52.04
  Q 56.23 51.71 57.15 50.85
  C 57.38 50.64 57.69 50.53 58.01 50.55
  Q 61.96 50.84 62.29 46.75"
/>
<path stroke="#a1606e" vector-effect="non-scaling-stroke" d="
  M 62.29 46.75
  Q 63.94 43.15 62.29 39.50"
/>
<path stroke="#c29199" vector-effect="non-scaling-stroke" d="
  M 62.29 39.50
  Q 60.95 35.67 57.50 33.57
  C 57.24 33.41 56.91 33.46 56.72 33.69
  Q 55.79 34.79 55.56 36.25
  C 55.50 36.63 55.33 36.93 55.11 37.06
  Q 54.49 37.43 54.96 35.81
  Q 55.36 34.46 55.29 33.05
  Q 55.29 32.89 55.32 31.95
  Q 55.36 30.53 53.75 30.79"
/>
<path stroke="#8f5f4d" stroke-opacity="0.984" vector-effect="non-scaling-stroke" d="
  M 53.75 30.79
  Q 53.20 30.81 52.79 30.50"
/>
<path stroke="#c29199" vector-effect="non-scaling-stroke" d="
  M 52.79 30.50
  L 52.96 24.50"
/>
<path stroke="#a1606e" vector-effect="non-scaling-stroke" d="
  M 52.96 24.50
  Q 53.31 19.26 53.19 17.81
  Q 53.10 16.82 52.40 17.21
  C 52.14 17.35 51.97 17.65 51.96 17.99
  L 51.79 23.50"
/>
<path stroke="#c29199" vector-effect="non-scaling-stroke" d="
  M 51.79 23.50
  Q 50.35 26.57 50.71 30.00"
/>
<path stroke="#8f5f4d" stroke-opacity="0.984" vector-effect="non-scaling-stroke" d="
  M 50.71 30.00
  Q 50.42 30.26 50.04 30.25"
/>
<path stroke="#c29199" vector-effect="non-scaling-stroke" d="
  M 50.04 30.25
  L 48.96 22.75"
/>
<path stroke="#8f5f4d" stroke-opacity="0.984" vector-effect="non-scaling-stroke" d="
  M 48.96 22.75
  Q 50.62 17.40 49.24 12.00
  C 49.20 11.85 49.10 11.75 48.99 11.75
  L 48.79 11.75"
/>
<path stroke="#c29199" vector-effect="non-scaling-stroke" d="
  M 48.79 11.75
  Q 48.61 7.47 50.01 3.53
  C 50.10 3.28 49.95 3.01 49.70 2.96
  Q 45.49 2.14 45.77 5.44
  Q 46.05 8.72 46.01 9.23
  Q 45.51 15.48 45.79 21.75"
/>
<path stroke="#cdceb3" stroke-opacity="0.984" vector-effect="non-scaling-stroke" d="
  M 48.79 11.75
  L 48.96 22.75"
/>
<path stroke="#cdceb3" stroke-opacity="0.984" vector-effect="non-scaling-stroke" d="
  M 50.04 30.25
  Q 49.78 31.11 49.79 32.00
  Q 49.80 33.31 50.33 32.38
  Q 50.44 32.20 50.45 31.96
  Q 50.50 30.97 50.71 30.00"
/>
<path stroke="#deced3" vector-effect="non-scaling-stroke" d="
  M 51.79 23.50
  Q 53.03 22.90 52.96 24.50"
/>
<path stroke="#cdceb3" stroke-opacity="0.984" vector-effect="non-scaling-stroke" d="
  M 52.79 30.50
  Q 53.59 37.36 53.75 30.79"
/>
<path stroke="#deced3" vector-effect="non-scaling-stroke" d="
  M 62.29 39.50
  Q 60.32 40.46 61.06 42.19
  Q 62.30 45.09 62.29 46.75"
/>
<path stroke="#deced3" vector-effect="non-scaling-stroke" d="
  M 55.00 52.04
  Q 51.33 50.44 53.79 53.00"
/>
<path stroke="#cab2b1" vector-effect="non-scaling-stroke" d="
  M 44.79 23.25
  Q 46.31 23.32 45.73 24.99
  Q 44.86 27.48 46.38 28.14
  Q 47.98 28.84 47.69 27.12
  Q 47.11 23.67 45.79 21.75"
/>
<path stroke="#a1606e" vector-effect="non-scaling-stroke" d="
  M 21.50 3.29
  Q 21.19 7.98 22.00 4.29"
/>
<path stroke="#c29199" vector-effect="non-scaling-stroke" d="
  M 22.00 4.29
  Q 23.30 5.56 22.71 7.50"
/>
<path stroke="#a1606e" vector-effect="non-scaling-stroke" d="
  M 22.71 7.50
  Q 22.12 7.59 22.25 8.50
  Q 22.56 10.70 23.25 18.75
  Q 23.37 20.18 21.46 22.50"
/>
<path stroke="#8d444c" vector-effect="non-scaling-stroke" d="
  M 21.46 22.50
  Q 19.38 23.70 19.04 26.00"
/>
<path stroke="#c29199" vector-effect="non-scaling-stroke" d="
  M 19.04 26.00
  Q 17.03 28.94 19.04 31.75"
/>
<path stroke="#8d444c" vector-effect="non-scaling-stroke" d="
  M 19.04 31.75
  Q 19.78 34.57 22.75 34.21"
/>
<path stroke="#c29199" vector-effect="non-scaling-stroke" d="
  M 22.75 34.21
  Q 24.51 35.35 26.51 35.09
  C 26.73 35.06 27.00 34.86 27.24 34.56
  L 29.94 31.19
  C 30.17 30.90 30.25 30.56 30.13 30.36
  L 28.29 27.25"
/>
<path stroke="#6d2938" vector-effect="non-scaling-stroke" d="
  M 28.29 27.25
  Q 27.99 24.27 26.31 19.69
  Q 25.87 18.49 24.79 18.75"
/>
<path stroke="#a1606e" vector-effect="non-scaling-stroke" d="
  M 24.79 18.75
  Q 23.62 14.32 23.96 9.75"
/>
<path stroke="#c29199" vector-effect="non-scaling-stroke" d="
  M 23.96 9.75
  Q 23.79 8.40 24.81 6.56
  Q 27.59 1.54 21.50 3.29"
/>
<path stroke="#deced3" vector-effect="non-scaling-stroke" d="
  M 23.96 9.75
  L 22.71 7.50"
/>
<path stroke="#deced3" vector-effect="non-scaling-stroke" d="
  M 22.00 4.29
  Q 21.23 4.16 21.50 3.29"
/>
<path stroke="#896672" vector-effect="non-scaling-stroke" d="
  M 24.79 18.75
  L 25.21 23.00"
/>
<path stroke="#deced3" vector-effect="non-scaling-stroke" d="
  M 25.21 23.00
  Q 24.10 22.82 23.95 23.68
  C 23.90 23.98 23.67 24.19 23.44 24.15
  L 21.54 23.75"
/>
<path stroke="#a98185" vector-effect="non-scaling-stroke" d="
  M 21.54 23.75
  L 21.46 22.50"
/>
<path stroke="#cab2b1" vector-effect="non-scaling-stroke" d="
  M 21.54 23.75
  Q 20.77 25.94 21.16 28.27
  C 21.21 28.56 21.02 28.83 20.76 28.85
  Q 19.88 28.92 19.60 28.01
  Q 19.56 27.88 19.60 26.98
  Q 19.63 26.32 19.04 26.00"
/>
<path stroke="#aa979d" vector-effect="non-scaling-stroke" d="
  M 28.29 27.25
  Q 28.52 29.16 27.35 30.05
  Q 26.95 30.36 26.93 29.81
  Q 26.84 26.18 25.21 23.00"
/>
<path stroke="#cab2b1" vector-effect="non-scaling-stroke" d="
  M 22.75 34.21
  Q 22.08 31.12 19.04 31.75"
/>
<path stroke="#b88388" stroke-opacity="0.996" vector-effect="non-scaling-stroke" d="
  M 41.42 3.09
  Q 39.84 2.76 38.29 3.17
  C 38.00 3.25 37.80 3.51 37.82 3.81
  Q 37.96 6.18 40.50 5.25
  Q 41.53 4.87 42.70 3.79
  C 42.87 3.64 42.84 3.36 42.64 3.28
  Q 42.44 3.21 42.23 3.18
  Q 41.47 3.10 41.42 3.09"
/>
<path stroke="#a1606e" vector-effect="non-scaling-stroke" d="
  M 64.08 3.32
  L 61.81 3.23
  C 61.59 3.22 61.40 3.48 61.39 3.80
  L 61.34 8.76
  Q 61.33 9.45 61.46 9.70
  Q 62.31 11.31 62.75 9.50
  Q 63.40 6.83 64.19 5.94
  Q 65.06 4.94 64.75 3.90
  C 64.65 3.57 64.38 3.33 64.08 3.32"
/>
<path stroke="#b88388" stroke-opacity="0.996" vector-effect="non-scaling-stroke" d="
  M 11.11 3.50
  Q 8.03 2.36 8.14 5.28
  Q 8.22 7.14 8.21 7.23
  Q 8.15 9.88 8.44 12.51
  C 8.48 12.87 8.63 13.17 8.85 13.35
  Q 9.45 13.82 9.81 13.21
  Q 10.01 12.87 9.95 12.25
  Q 9.58 8.03 10.00 6.50
  Q 10.47 4.81 12.50 4.74
  C 12.86 4.73 13.15 4.57 13.27 4.34
  Q 13.71 3.45 12.06 3.62
  Q 11.56 3.67 11.11 3.50"
/>
<path stroke="#8d444c" vector-effect="non-scaling-stroke" d="
  M 71.50 23.54
  Q 70.78 25.14 69.00 25.29"
/>
<path stroke="#c29199" vector-effect="non-scaling-stroke" d="
  M 69.00 25.29
  Q 66.02 23.79 65.53 26.32
  Q 65.21 28.02 64.20 29.43
  Q 62.61 31.63 64.94 32.81
  Q 65.53 33.11 66.51 34.30
  C 66.69 34.53 66.96 34.71 67.29 34.81
  Q 68.89 35.34 69.62 37.08
  Q 70.49 39.16 72.29 37.79
  Q 75.28 35.51 73.50 33.25
  Q 73.11 32.76 72.71 30.25"
/>
<path stroke="#8d444c" vector-effect="non-scaling-stroke" d="
  M 72.71 30.25
  Q 72.59 29.34 72.54 28.42
  Q 72.50 27.84 72.80 26.62
  Q 73.18 25.06 72.46 23.50"
/>
<path stroke="#b88388" stroke-opacity="0.996" vector-effect="non-scaling-stroke" d="
  M 72.46 23.50
  L 72.71 14.25"
/>
<path stroke="#8d444c" vector-effect="non-scaling-stroke" d="
  M 72.71 14.25
  L 74.62 10.78
  C 74.79 10.48 75.02 10.26 75.28 10.15
  Q 76.94 9.46 76.82 7.75
  Q 76.79 7.29 76.47 7.67
  Q 76.00 8.21 75.31 8.23
  C 75.08 8.24 74.81 8.05 74.61 7.73
  Q 74.08 6.88 72.79 7.25"
/>
<path stroke="#b88388" stroke-opacity="0.996" vector-effect="non-scaling-stroke" d="
  M 72.79 7.25
  Q 73.60 1.69 68.78 3.62
  C 68.56 3.71 68.49 3.99 68.65 4.17
  Q 70.11 5.86 69.94 8.06
  Q 69.63 11.94 70.81 15.19
  Q 71.35 16.66 70.92 17.74
  C 70.75 18.17 70.66 18.53 70.68 18.68
  L 71.50 23.54"
/>
<path stroke="#c0a4a0" stroke-opacity="0.996" vector-effect="non-scaling-stroke" d="
  M 72.79 7.25
  Q 72.90 8.52 72.11 9.40
  C 71.87 9.67 71.74 9.97 71.75 10.25
  Q 71.79 12.35 72.71 14.25"
/>
<path stroke="#c0a4a0" stroke-opacity="0.996" vector-effect="non-scaling-stroke" d="
  M 72.46 23.50
  L 71.50 23.54"
/>
<path stroke="#cab2b1" vector-effect="non-scaling-stroke" d="
  M 72.71 30.25
  Q 71.55 30.35 70.51 29.91
  C 70.25 29.80 70.10 29.51 70.14 29.20
  Q 70.41 27.04 69.00 25.29"
/>
<path stroke="#b88388" stroke-opacity="0.996" vector-effect="non-scaling-stroke" d="
  M 41.67 10.24
  L 42.06 10.28
  C 42.37 10.32 42.64 10.22 42.71 10.05
  Q 43.34 8.58 43.09 6.99
  C 43.04 6.64 42.83 6.36 42.56 6.27
  Q 41.93 6.07 41.93 7.06
  Q 41.93 8.68 40.92 8.96
  C 40.54 9.07 40.23 9.35 40.10 9.73
  Q 38.56 14.19 38.94 17.83
  Q 39.18 20.17 39.68 17.89
  L 41.26 10.69
  C 41.32 10.42 41.49 10.22 41.67 10.24"
/>
<path stroke="#b88388" stroke-opacity="0.996" vector-effect="non-scaling-stroke" d="
  M 55.26 11.82
  Q 56.45 12.36 56.27 11.26
  L 55.73 7.85
  Q 55.59 6.91 54.97 7.70
  Q 52.65 10.63 55.26 11.82"
/>
<path stroke="#8d444c" vector-effect="non-scaling-stroke" d="
  M 64.1699 10.1540
  C 64.42 10.30 64.87 9.99 65.1876 9.4547
  C 65.50 8.92 65.56 8.37 65.3101 8.2260
  C 65.06 8.08 64.61 8.39 64.2924 8.9253
  C 63.98 9.46 63.92 10.01 64.1699 10.1540"
/>
<path stroke="#c29199" vector-effect="non-scaling-stroke" d="
  M 32.44 13.56
  Q 33.71 13.34 33.99 12.18
  C 34.05 11.94 33.93 11.64 33.69 11.38
  Q 33.14 10.79 32.75 9.50
  Q 32.13 7.45 31.97 9.52
  Q 31.90 10.43 31.50 11.25
  Q 30.18 13.95 32.44 13.56"
/>
<path stroke="#b88388" stroke-opacity="0.996" vector-effect="non-scaling-stroke" d="
  M 43.13 18.11
  Q 43.46 16.20 43.11 14.30
  Q 43.02 13.77 42.99 13.19
  Q 42.90 11.01 41.77 12.59
  C 41.61 12.81 41.54 13.14 41.58 13.49
  L 42.27 20.59
  Q 42.43 22.27 43.07 20.73
  Q 43.24 20.30 43.12 19.40
  Q 43.02 18.73 43.13 18.11"
/>
<path stroke="#a33f58" vector-effect="non-scaling-stroke" d="
  M 62.8438 13.6803
  C 62.84 13.50 62.69 13.36 62.5171 13.3671
  L 62.1372 13.3751
  C 61.96 13.38 61.82 13.52 61.8240 13.7017
  L 62.0162 22.8797
  C 62.02 23.06 62.17 23.20 62.3429 23.1929
  L 62.7228 23.1849
  C 62.90 23.18 63.04 23.04 63.0360 22.8583
  L 62.8438 13.6803"
/>
<path stroke="#a1606e" vector-effect="non-scaling-stroke" d="
  M 10.6435 15.9192
  C 10.65 15.78 10.54 15.65 10.4013 15.6425
  L 9.5232 15.5842
  C 9.38 15.57 9.26 15.68 9.2466 15.8264
  L 8.4765 27.4208
  C 8.47 27.56 8.58 27.69 8.7187 27.6975
  L 9.5968 27.7558
  C 9.74 27.77 9.86 27.66 9.8734 27.5136
  L 10.6435 15.9192"
/>
<path stroke="#a1606e" vector-effect="non-scaling-stroke" d="
  M 55.6646 25.3990
  C 56.14 25.39 56.50 24.10 56.4597 22.5272
  C 56.42 20.95 56.00 19.69 55.5154 19.7010
  C 55.04 19.71 54.68 21.00 54.7203 22.5728
  C 54.76 24.15 55.18 25.41 55.6646 25.3990"
/>
<path stroke="#a1606e" vector-effect="non-scaling-stroke" d="
  M 37.4212 25.5599
  C 37.68 25.56 37.89 24.60 37.9000 23.4140
  C 37.91 22.23 37.71 21.26 37.4588 21.2601
  C 37.20 21.26 36.99 22.22 36.9800 23.4060
  C 36.97 24.59 37.17 25.56 37.4212 25.5599"
/>
<path stroke="#b88388" stroke-opacity="0.996" vector-effect="non-scaling-stroke" d="
  M 59.80 30.79
  C 60.62 31.23 61.63 30.77 61.81 29.86
  Q 62.34 27.23 60.15 27.37
  Q 58.82 27.45 58.20 28.24
  Q 57.27 29.40 59.80 30.79"
/>
<path stroke="#a1606e" vector-effect="non-scaling-stroke" d="
  M 60.21 33.54
  Q 61.87 35.10 61.79 33.00
  C 61.78 32.70 61.57 32.44 61.28 32.34
  Q 57.69 31.15 60.21 33.54"
/>
<path stroke="#b88388" stroke-opacity="0.996" vector-effect="non-scaling-stroke" d="
  M 16.29 37.75
  L 15.68 38.78
  C 15.55 39.00 15.62 39.33 15.84 39.61
  L 18.00 42.29"
/>
<path stroke="#a1606e" vector-effect="non-scaling-stroke" d="
  M 18.00 42.29
  Q 18.03 43.89 19.50 44.46"
/>
<path stroke="#b88388" stroke-opacity="0.996" vector-effect="non-scaling-stroke" d="
  M 19.50 44.46
  L 21.84 45.97
  C 22.11 46.15 22.44 46.10 22.58 45.88
  Q 22.87 45.40 22.71 44.75"
/>
<path stroke="#a1606e" vector-effect="non-scaling-stroke" d="
  M 22.71 44.75
  Q 23.51 43.91 24.27 44.60
  Q 24.68 44.99 24.99 45.07
  Q 26.53 45.50 24.91 44.10
  Q 22.97 42.42 23.39 39.99
  Q 23.49 39.42 23.36 39.03
  Q 22.83 37.50 22.20 38.78
  Q 22.04 39.11 22.00 39.76
  Q 21.95 40.67 21.54 41.50"
/>
<path stroke="#b88388" stroke-opacity="0.996" vector-effect="non-scaling-stroke" d="
  M 21.54 41.50
  Q 20.23 39.89 20.21 37.75"
/>
<path stroke="#a1606e" vector-effect="non-scaling-stroke" d="
  M 20.21 37.75
  Q 19.90 35.67 18.59 34.12
  C 18.37 33.86 18.03 33.78 17.79 33.91
  Q 17.28 34.20 17.52 34.81
  C 17.63 35.10 17.61 35.41 17.47 35.66
  L 16.29 37.75"
/>
<path stroke="#d4c0c2" stroke-opacity="0.996" vector-effect="non-scaling-stroke" d="
  M 20.21 37.75
  Q 18.30 38.33 16.29 37.75"
/>
<path stroke="#d4c0c2" stroke-opacity="0.996" vector-effect="non-scaling-stroke" d="
  M 21.54 41.50
  Q 21.55 43.37 22.71 44.75"
/>
<path stroke="#d4c0c2" stroke-opacity="0.996" vector-effect="non-scaling-stroke" d="
  M 19.50 44.46
  Q 19.10 43.15 18.00 42.29"
/>
<path stroke="#a1606e" vector-effect="non-scaling-stroke" d="
  M 66.18 35.45
  Q 65.78 34.37 64.78 33.96
  C 64.54 33.86 64.27 34.04 64.26 34.30
  Q 64.14 36.34 66.20 36.94
  C 66.49 37.03 66.74 37.22 66.93 37.49
  Q 67.48 38.28 68.14 37.83
  C 68.39 37.66 68.47 37.32 68.34 37.02
  Q 67.92 36.05 66.81 35.94
  C 66.52 35.92 66.28 35.72 66.18 35.45"
/>
<path stroke="#a33f58" vector-effect="non-scaling-stroke" d="
  M 30.98 36.81
  L 30.23 40.57
  Q 29.98 41.85 31.12 41.06
  Q 32.95 39.80 31.50 36.79
  Q 31.14 36.04 30.98 36.81"
/>
<path stroke="#a1606e" vector-effect="non-scaling-stroke" d="
  M 64.3917 39.1601
  C 64.66 39.01 64.61 38.40 64.2684 37.7959
  C 63.93 37.19 63.44 36.83 63.1683 36.9799
  C 62.90 37.13 62.95 37.74 63.2916 38.3441
  C 63.63 38.95 64.12 39.31 64.3917 39.1601"
/>
<path stroke="#c29199" vector-effect="non-scaling-stroke" d="
  M 33.37 43.59
  C 33.94 43.53 34.50 43.77 34.86 44.22
  Q 35.77 45.35 35.82 44.00
  Q 35.92 41.42 35.40 38.91
  Q 35.25 38.19 34.79 37.76
  Q 33.34 36.38 33.87 39.73
  Q 34.25 42.11 32.45 43.05
  Q 32.00 43.29 32.46 43.45
  Q 32.96 43.63 33.37 43.59"
/>
<path stroke="#8d444c" vector-effect="non-scaling-stroke" d="
  M 40.21 45.25
  Q 43.27 44.05 42.96 47.75"
/>
<path stroke="#b88388" stroke-opacity="0.996" vector-effect="non-scaling-stroke" d="
  M 42.96 47.75
  L 42.76 50.45
  Q 42.64 51.98 43.43 50.70
  Q 44.56 48.87 43.50 46.96"
/>
<path stroke="#8d444c" vector-effect="non-scaling-stroke" d="
  M 43.50 46.96
  Q 43.76 42.59 39.50 42.54"
/>
<path stroke="#b88388" stroke-opacity="0.996" vector-effect="non-scaling-stroke" d="
  M 39.50 42.54
  Q 39.15 41.86 38.56 41.65
  C 38.31 41.56 38.05 41.77 38.05 42.06
  Q 38.05 44.07 38.78 45.96
  Q 39.03 46.62 39.49 46.79
  Q 40.38 47.12 40.21 45.25"
/>
<path stroke="#c0a4a0" stroke-opacity="0.996" vector-effect="non-scaling-stroke" d="
  M 39.50 42.54
  Q 40.53 43.65 40.21 45.25"
/>
<path stroke="#c0a4a0" stroke-opacity="0.996" vector-effect="non-scaling-stroke" d="
  M 43.50 46.96
  Q 42.80 47.04 42.96 47.75"
/>
<path stroke="#b88388" stroke-opacity="0.996" vector-effect="non-scaling-stroke" d="
  M 67.57 42.17
  Q 64.97 41.08 64.92 43.56
  C 64.91 43.86 65.15 44.10 65.43 44.09
  L 67.95 44.00
  C 68.26 43.99 68.50 43.74 68.49 43.45
  Q 68.48 42.55 67.57 42.17"
/>
<path stroke="#b88388" stroke-opacity="0.996" vector-effect="non-scaling-stroke" d="
  M 66.71 50.75
  Q 65.99 50.58 65.29 49.53
  C 64.95 49.02 64.23 48.94 63.78 49.36
  Q 62.08 50.98 61.50 52.75
  Q 60.94 54.46 62.44 53.44
  Q 63.27 52.86 63.76 51.98
  Q 64.47 50.69 65.21 51.75"
/>
<path stroke="#c29199" vector-effect="non-scaling-stroke" d="
  M 65.21 51.75
  Q 66.80 53.93 69.71 55.87
  C 69.95 56.03 70.28 55.99 70.47 55.76
  Q 73.58 51.97 71.74 48.42
  Q 71.55 48.05 71.30 47.55
  Q 70.48 45.88 70.04 47.90
  Q 69.90 48.52 69.61 48.87
  Q 68.49 50.22 66.71 50.75"
/>
<path stroke="#f5f1ee" stroke-opacity="0.996" vector-effect="non-scaling-stroke" d="
  M 65.21 51.75
  Q 66.17 51.52 66.71 50.75"
/>
<path stroke="#a33f58" vector-effect="non-scaling-stroke" d="
  M 9.96 47.75
  Q 9.11 47.56 8.46 48.00"
/>
<path stroke="#c29199" vector-effect="non-scaling-stroke" d="
  M 8.46 48.00
  Q 6.81 47.94 6.88 48.98
  Q 6.90 49.42 7.48 50.28
  Q 9.20 52.81 9.82 56.13
  Q 9.96 56.85 10.46 56.31
  Q 12.27 54.36 13.29 52.39
  Q 14.09 50.82 12.12 49.80
  C 11.78 49.63 11.55 49.28 11.53 48.90
  Q 11.32 45.91 9.96 47.75"
/>
<path stroke="#e0adbd" vector-effect="non-scaling-stroke" d="
  M 8.46 48.00
  Q 8.34 50.48 10.20 50.08
  C 10.42 50.03 10.54 49.76 10.46 49.50
  L 9.96 47.75"
/>
<path stroke="#c29199" vector-effect="non-scaling-stroke" d="
  M 33.0598 57.6909
  C 34.09 57.22 34.04 54.93 32.9624 52.5734
  C 31.88 50.22 30.17 48.70 29.1402 49.1691
  C 28.11 49.64 28.16 51.93 29.2376 54.2866
  C 30.32 56.64 32.03 58.16 33.0598 57.6909"
/>
<path stroke="#c29199" vector-effect="non-scaling-stroke" d="
  M 26.59 59.39
  Q 26.19 58.27 25.22 57.49
  C 24.96 57.27 24.78 56.99 24.72 56.69
  L 24.28 54.31
  C 24.23 54.04 23.97 53.86 23.70 53.91
  Q 22.70 54.11 21.72 54.37
  Q 18.88 55.13 18.52 52.07
  Q 18.32 50.40 17.55 51.89
  Q 16.18 54.49 16.45 57.75
  C 16.47 58.05 16.67 58.31 16.96 58.43
  Q 19.92 59.62 21.31 61.44
  Q 22.63 63.16 24.09 62.29
  Q 24.53 62.03 25.00 61.93
  Q 25.85 61.74 26.35 61.14
  Q 26.96 60.42 26.59 59.39"
/>
<path stroke="#b88388" stroke-opacity="0.996" vector-effect="non-scaling-stroke" d="
  M 38.49 57.60
  Q 39.35 55.30 37.98 56.16
  Q 37.51 56.45 37.26 57.03
  Q 35.97 59.98 37.93 58.39
  Q 38.32 58.07 38.49 57.60"
/>
<path stroke="#c29199" vector-effect="non-scaling-stroke" d="
  M 57.04 62.00
  Q 55.32 60.72 55.10 62.43
  C 55.06 62.73 55.18 63.05 55.42 63.29
  Q 57.76 65.65 60.01 68.10
  Q 60.09 68.18 60.71 69.12
  Q 61.31 70.01 62.51 69.85
  Q 62.72 69.82 63.47 69.90
  Q 64.50 70.01 65.02 67.92
  C 65.10 67.57 65.39 67.30 65.75 67.25
  Q 67.29 67.02 67.44 66.05
  C 67.48 65.80 67.31 65.50 67.01 65.31
  Q 64.61 63.76 64.39 60.81
  Q 64.32 59.79 63.77 59.86
  C 63.54 59.90 63.29 60.16 63.14 60.54
  Q 62.31 62.59 61.68 60.16
  Q 60.82 56.86 59.96 60.75"
/>
<path stroke="#a1606e" vector-effect="non-scaling-stroke" d="
  M 59.96 60.75
  Q 58.37 60.29 58.81 58.51
  Q 59.14 57.16 58.29 56.72
  C 58.08 56.61 57.82 56.80 57.83 57.07
  Q 57.90 59.13 57.86 61.19
  Q 57.85 62.15 57.04 62.00"
/>
<path stroke="#deced3" vector-effect="non-scaling-stroke" d="
  M 59.96 60.75
  L 58.57 62.76
  C 58.39 63.02 58.06 63.09 57.89 62.91
  L 57.04 62.00"
/>
<path stroke="#a1606e" vector-effect="non-scaling-stroke" d="
  M 50.00 65.04
  L 52.07 63.51
  C 52.30 63.34 52.35 63.03 52.17 62.86
  Q 51.54 62.27 50.74 62.58
  C 50.52 62.67 50.33 62.95 50.26 63.31
  Q 50.09 64.17 49.29 64.50"
/>
<path stroke="#b88388" stroke-opacity="0.996" vector-effect="non-scaling-stroke" d="
  M 49.29 64.50
  L 47.81 61.05
  C 47.68 60.75 47.47 60.52 47.21 60.42
  Q 46.20 60.01 45.91 58.93
  Q 45.73 58.29 45.49 58.06
  Q 44.80 57.41 44.31 58.31
  Q 43.35 60.08 45.25 62.25
  L 49.00 66.54
  C 49.18 66.75 49.50 66.76 49.64 66.56
  Q 50.10 65.91 50.00 65.04"
/>
<path stroke="#d4c0c2" stroke-opacity="0.996" vector-effect="non-scaling-stroke" d="
  M 49.29 64.50
  Q 49.57 64.87 50.00 65.04"
/>
<path stroke="#b88388" stroke-opacity="0.996" vector-effect="non-scaling-stroke" d="
  M 71.1276 63.4962
  C 71.57 63.78 72.39 63.27 72.9628 62.3651
  C 73.54 61.46 73.65 60.50 73.2124 60.2238
  C 72.77 59.94 71.95 60.45 71.3772 61.3549
  C 70.80 62.26 70.69 63.22 71.1276 63.4962"
/>
<path stroke="#8f5f4d" stroke-opacity="0.984" vector-effect="non-scaling-stroke" d="
  M 34.96 64.25
  Q 34.48 64.52 34.21 65.00"
/>
<path stroke="#c29199" vector-effect="non-scaling-stroke" d="
  M 34.21 65.00
  Q 32.68 64.42 31.95 62.97
  Q 31.71 62.48 31.47 62.92
  Q 31.02 63.77 31.32 64.78
  C 31.39 65.03 31.29 65.31 31.06 65.49
  L 29.46 66.75"
/>
<path stroke="#8d444c" vector-effect="non-scaling-stroke" d="
  M 29.46 66.75
  Q 30.19 67.76 31.08 68.67
  Q 32.49 70.12 32.50 68.25
  Q 32.50 67.35 33.25 67.46"
/>
<path stroke="#c29199" vector-effect="non-scaling-stroke" d="
  M 33.25 67.46
  L 36.94 71.44
  Q 38.48 73.11 40.34 72.33
  L 44.94 70.42
  C 45.18 70.32 45.26 70.02 45.11 69.80
  Q 43.59 67.69 42.84 65.41
  Q 42.46 64.24 41.98 63.59
  Q 41.38 62.77 40.65 62.03
  Q 39.99 61.34 40.00 62.30
  Q 40.04 64.70 37.91 63.40
  Q 37.45 63.12 36.92 62.95
  C 36.61 62.84 36.33 62.66 36.13 62.42
  Q 34.49 60.51 34.96 64.25"
/>
<path stroke="#cab2b1" vector-effect="non-scaling-stroke" d="
  M 33.25 67.46
  Q 31.46 66.71 29.46 66.75"
/>
<path stroke="#cdceb3" stroke-opacity="0.984" vector-effect="non-scaling-stroke" d="
  M 34.21 65.00
  L 35.73 66.56
  C 35.97 66.81 36.29 66.90 36.54 66.80
  Q 37.39 66.45 36.56 65.63
  Q 36.37 65.45 35.70 65.21
  Q 35.03 64.98 34.96 64.25"
/>
<path stroke="#b88388" stroke-opacity="0.996" vector-effect="non-scaling-stroke" d="
  M 12.88 63.79
  Q 12.45 64.58 13.23 64.23
  C 13.44 64.14 13.59 63.94 13.61 63.70
  Q 13.79 62.14 12.88 63.79"
/>
<path stroke="#c29199" vector-effect="non-scaling-stroke" d="
  M 21.5628 67.7357
  C 22.04 67.77 22.47 67.08 22.5377 66.2030
  C 22.60 65.32 22.27 64.58 21.7972 64.5443
  C 21.32 64.51 20.89 65.20 20.8223 66.0770
  C 20.76 66.96 21.09 67.70 21.5628 67.7357"
/>
<path stroke="#c29199" vector-effect="non-scaling-stroke" d="
  M 19.2586 68.5299
  C 19.75 68.36 19.93 67.60 19.6688 66.8340
  C 19.40 66.07 18.79 65.58 18.3014 65.7501
  C 17.81 65.92 17.63 66.68 17.8912 67.4460
  C 18.16 68.21 18.77 68.70 19.2586 68.5299"
/>
<path stroke="#8d444c" vector-effect="non-scaling-stroke" d="
  M 23.77 71.08
  Q 24.43 73.32 24.55 71.80
  Q 24.57 71.46 24.47 71.09
  Q 23.89 68.88 23.71 70.54
  Q 23.68 70.80 23.77 71.08"
/>
</g>
<path fill="#020402" fill-opacity="0.071" d="
  M 0.00 0.00
  Q 0.66 0.00 1.31 0.00
  Q 0.74 1.96 1.04 4.00
  L 1.04 77.00
  Q 0.64 79.09 1.44 81.00
  Q 0.72 81.00 0.00 81.00
  Q 0.00 40.50 0.00 0.00
  Z"
/>
<path fill="#ebe3dd" fill-opacity="0.992" d="
  M 1.31 0.00
  Q 41.19 0.00 81.06 0.00
  Q 80.98 40.50 80.94 81.00
  Q 67.06 81.00 53.19 81.00
  Q 50.94 80.37 48.69 81.00
  Q 25.06 81.00 1.44 81.00
  Q 0.64 79.09 1.04 77.00
  L 1.96 77.00
  Q 2.25 79.21 4.25 79.25
  Q 20.92 79.60 43.41 78.97
  Q 50.56 78.77 57.58 78.93
  Q 64.66 79.10 71.75 79.19
  Q 75.56 79.25 79.20 78.32
  C 79.49 78.24 79.69 77.99 79.70 77.69
  Q 80.29 54.39 79.92 31.08
  Q 79.84 25.80 79.93 19.05
  Q 80.02 13.03 79.95 7.00
  Q 79.92 4.49 78.95 2.20
  C 78.83 1.93 78.56 1.75 78.25 1.74
  Q 27.58 1.17 4.19 1.69
  Q 2.04 1.73 2.21 4.50
  L 1.04 4.00
  Q 0.74 1.96 1.31 0.00
  Z"
/>
<path fill="#020402" fill-opacity="0.071" d="
  M 81.06 0.00
  Q 81.53 0.00 82.00 0.00
  Q 82.00 40.50 82.00 81.00
  Q 81.47 81.00 80.94 81.00
  Q 80.98 40.50 81.06 0.00
  Z"
/>
<path fill="#852334" d="
  M 1.96 77.00
  Q 1.43 40.75 2.21 4.50
  Q 2.04 1.73 4.19 1.69
  Q 27.58 1.17 78.25 1.74
  C 78.56 1.75 78.83 1.93 78.95 2.20
  Q 79.92 4.49 79.95 7.00
  Q 80.02 13.03 79.93 19.05
  Q 79.84 25.80 79.92 31.08
  Q 80.29 54.39 79.70 77.69
  C 79.69 77.99 79.49 78.24 79.20 78.32
  Q 75.56 79.25 71.75 79.19
  Q 64.66 79.10 57.58 78.93
  Q 50.56 78.77 43.41 78.97
  Q 20.92 79.60 4.25 79.25
  Q 2.25 79.21 1.96 77.00
  Z
  M 45.79 21.75
  Q 45.59 22.70 44.79 23.25
  Q 43.87 25.80 43.63 31.27
  Q 43.60 31.82 43.15 31.50
  Q 42.05 30.72 41.34 31.79
  Q 40.79 32.61 40.67 32.78
  Q 39.09 34.85 41.15 36.58
  Q 41.46 36.85 41.62 37.13
  Q 43.01 39.52 40.43 37.31
  Q 39.46 36.48 39.12 37.27
  C 39.01 37.53 39.06 37.87 39.24 38.17
  Q 40.48 40.21 43.75 43.50
  Q 45.21 44.97 49.97 51.79
  Q 51.33 53.74 53.33 55.00
  C 53.54 55.13 53.82 55.01 53.86 54.77
  Q 54.02 53.91 53.79 53.00
  L 55.00 52.04
  Q 56.23 51.71 57.15 50.85
  C 57.38 50.64 57.69 50.53 58.01 50.55
  Q 61.96 50.84 62.29 46.75
  Q 63.94 43.15 62.29 39.50
  Q 60.95 35.67 57.50 33.57
  C 57.24 33.41 56.91 33.46 56.72 33.69
  Q 55.79 34.79 55.56 36.25
  C 55.50 36.63 55.33 36.93 55.11 37.06
  Q 54.49 37.43 54.96 35.81
  Q 55.36 34.46 55.29 33.05
  Q 55.29 32.89 55.32 31.95
  Q 55.36 30.53 53.75 30.79
  Q 53.20 30.81 52.79 30.50
  L 52.96 24.50
  Q 53.31 19.26 53.19 17.81
  Q 53.10 16.82 52.40 17.21
  C 52.14 17.35 51.97 17.65 51.96 17.99
  L 51.79 23.50
  Q 50.35 26.57 50.71 30.00
  Q 50.42 30.26 50.04 30.25
  L 48.96 22.75
  Q 50.62 17.40 49.24 12.00
  C 49.20 11.85 49.10 11.75 48.99 11.75
  L 48.79 11.75
  Q 48.61 7.47 50.01 3.53
  C 50.10 3.28 49.95 3.01 49.70 2.96
  Q 45.49 2.14 45.77 5.44
  Q 46.05 8.72 46.01 9.23
  Q 45.51 15.48 45.79 21.75
  Z
  M 21.50 3.29
  Q 21.19 7.98 22.00 4.29
  Q 23.30 5.56 22.71 7.50
  Q 22.12 7.59 22.25 8.50
  Q 22.56 10.70 23.25 18.75
  Q 23.37 20.18 21.46 22.50
  Q 19.38 23.70 19.04 26.00
  Q 17.03 28.94 19.04 31.75
  Q 19.78 34.57 22.75 34.21
  Q 24.51 35.35 26.51 35.09
  C 26.73 35.06 27.00 34.86 27.24 34.56
  L 29.94 31.19
  C 30.17 30.90 30.25 30.56 30.13 30.36
  L 28.29 27.25
  Q 27.99 24.27 26.31 19.69
  Q 25.87 18.49 24.79 18.75
  Q 23.62 14.32 23.96 9.75
  Q 23.79 8.40 24.81 6.56
  Q 27.59 1.54 21.50 3.29
  Z
  M 41.42 3.09
  Q 39.84 2.76 38.29 3.17
  C 38.00 3.25 37.80 3.51 37.82 3.81
  Q 37.96 6.18 40.50 5.25
  Q 41.53 4.87 42.70 3.79
  C 42.87 3.64 42.84 3.36 42.64 3.28
  Q 42.44 3.21 42.23 3.18
  Q 41.47 3.10 41.42 3.09
  Z
  M 64.08 3.32
  L 61.81 3.23
  C 61.59 3.22 61.40 3.48 61.39 3.80
  L 61.34 8.76
  Q 61.33 9.45 61.46 9.70
  Q 62.31 11.31 62.75 9.50
  Q 63.40 6.83 64.19 5.94
  Q 65.06 4.94 64.75 3.90
  C 64.65 3.57 64.38 3.33 64.08 3.32
  Z
  M 11.11 3.50
  Q 8.03 2.36 8.14 5.28
  Q 8.22 7.14 8.21 7.23
  Q 8.15 9.88 8.44 12.51
  C 8.48 12.87 8.63 13.17 8.85 13.35
  Q 9.45 13.82 9.81 13.21
  Q 10.01 12.87 9.95 12.25
  Q 9.58 8.03 10.00 6.50
  Q 10.47 4.81 12.50 4.74
  C 12.86 4.73 13.15 4.57 13.27 4.34
  Q 13.71 3.45 12.06 3.62
  Q 11.56 3.67 11.11 3.50
  Z
  M 71.50 23.54
  Q 70.78 25.14 69.00 25.29
  Q 66.02 23.79 65.53 26.32
  Q 65.21 28.02 64.20 29.43
  Q 62.61 31.63 64.94 32.81
  Q 65.53 33.11 66.51 34.30
  C 66.69 34.53 66.96 34.71 67.29 34.81
  Q 68.89 35.34 69.62 37.08
  Q 70.49 39.16 72.29 37.79
  Q 75.28 35.51 73.50 33.25
  Q 73.11 32.76 72.71 30.25
  Q 72.59 29.34 72.54 28.42
  Q 72.50 27.84 72.80 26.62
  Q 73.18 25.06 72.46 23.50
  L 72.71 14.25
  L 74.62 10.78
  C 74.79 10.48 75.02 10.26 75.28 10.15
  Q 76.94 9.46 76.82 7.75
  Q 76.79 7.29 76.47 7.67
  Q 76.00 8.21 75.31 8.23
  C 75.08 8.24 74.81 8.05 74.61 7.73
  Q 74.08 6.88 72.79 7.25
  Q 73.60 1.69 68.78 3.62
  C 68.56 3.71 68.49 3.99 68.65 4.17
  Q 70.11 5.86 69.94 8.06
  Q 69.63 11.94 70.81 15.19
  Q 71.35 16.66 70.92 17.74
  C 70.75 18.17 70.66 18.53 70.68 18.68
  L 71.50 23.54
  Z
  M 41.67 10.24
  L 42.06 10.28
  C 42.37 10.32 42.64 10.22 42.71 10.05
  Q 43.34 8.58 43.09 6.99
  C 43.04 6.64 42.83 6.36 42.56 6.27
  Q 41.93 6.07 41.93 7.06
  Q 41.93 8.68 40.92 8.96
  C 40.54 9.07 40.23 9.35 40.10 9.73
  Q 38.56 14.19 38.94 17.83
  Q 39.18 20.17 39.68 17.89
  L 41.26 10.69
  C 41.32 10.42 41.49 10.22 41.67 10.24
  Z
  M 55.26 11.82
  Q 56.45 12.36 56.27 11.26
  L 55.73 7.85
  Q 55.59 6.91 54.97 7.70
  Q 52.65 10.63 55.26 11.82
  Z
  M 64.1699 10.1540
  C 64.42 10.30 64.87 9.99 65.1876 9.4547
  C 65.50 8.92 65.56 8.37 65.3101 8.2260
  C 65.06 8.08 64.61 8.39 64.2924 8.9253
  C 63.98 9.46 63.92 10.01 64.1699 10.1540
  Z
  M 32.44 13.56
  Q 33.71 13.34 33.99 12.18
  C 34.05 11.94 33.93 11.64 33.69 11.38
  Q 33.14 10.79 32.75 9.50
  Q 32.13 7.45 31.97 9.52
  Q 31.90 10.43 31.50 11.25
  Q 30.18 13.95 32.44 13.56
  Z
  M 43.13 18.11
  Q 43.46 16.20 43.11 14.30
  Q 43.02 13.77 42.99 13.19
  Q 42.90 11.01 41.77 12.59
  C 41.61 12.81 41.54 13.14 41.58 13.49
  L 42.27 20.59
  Q 42.43 22.27 43.07 20.73
  Q 43.24 20.30 43.12 19.40
  Q 43.02 18.73 43.13 18.11
  Z
  M 62.8438 13.6803
  C 62.84 13.50 62.69 13.36 62.5171 13.3671
  L 62.1372 13.3751
  C 61.96 13.38 61.82 13.52 61.8240 13.7017
  L 62.0162 22.8797
  C 62.02 23.06 62.17 23.20 62.3429 23.1929
  L 62.7228 23.1849
  C 62.90 23.18 63.04 23.04 63.0360 22.8583
  L 62.8438 13.6803
  Z
  M 10.6435 15.9192
  C 10.65 15.78 10.54 15.65 10.4013 15.6425
  L 9.5232 15.5842
  C 9.38 15.57 9.26 15.68 9.2466 15.8264
  L 8.4765 27.4208
  C 8.47 27.56 8.58 27.69 8.7187 27.6975
  L 9.5968 27.7558
  C 9.74 27.77 9.86 27.66 9.8734 27.5136
  L 10.6435 15.9192
  Z
  M 55.6646 25.3990
  C 56.14 25.39 56.50 24.10 56.4597 22.5272
  C 56.42 20.95 56.00 19.69 55.5154 19.7010
  C 55.04 19.71 54.68 21.00 54.7203 22.5728
  C 54.76 24.15 55.18 25.41 55.6646 25.3990
  Z
  M 37.4212 25.5599
  C 37.68 25.56 37.89 24.60 37.9000 23.4140
  C 37.91 22.23 37.71 21.26 37.4588 21.2601
  C 37.20 21.26 36.99 22.22 36.9800 23.4060
  C 36.97 24.59 37.17 25.56 37.4212 25.5599
  Z
  M 59.80 30.79
  C 60.62 31.23 61.63 30.77 61.81 29.86
  Q 62.34 27.23 60.15 27.37
  Q 58.82 27.45 58.20 28.24
  Q 57.27 29.40 59.80 30.79
  Z
  M 60.21 33.54
  Q 61.87 35.10 61.79 33.00
  C 61.78 32.70 61.57 32.44 61.28 32.34
  Q 57.69 31.15 60.21 33.54
  Z
  M 16.29 37.75
  L 15.68 38.78
  C 15.55 39.00 15.62 39.33 15.84 39.61
  L 18.00 42.29
  Q 18.03 43.89 19.50 44.46
  L 21.84 45.97
  C 22.11 46.15 22.44 46.10 22.58 45.88
  Q 22.87 45.40 22.71 44.75
  Q 23.51 43.91 24.27 44.60
  Q 24.68 44.99 24.99 45.07
  Q 26.53 45.50 24.91 44.10
  Q 22.97 42.42 23.39 39.99
  Q 23.49 39.42 23.36 39.03
  Q 22.83 37.50 22.20 38.78
  Q 22.04 39.11 22.00 39.76
  Q 21.95 40.67 21.54 41.50
  Q 20.23 39.89 20.21 37.75
  Q 19.90 35.67 18.59 34.12
  C 18.37 33.86 18.03 33.78 17.79 33.91
  Q 17.28 34.20 17.52 34.81
  C 17.63 35.10 17.61 35.41 17.47 35.66
  L 16.29 37.75
  Z
  M 66.18 35.45
  Q 65.78 34.37 64.78 33.96
  C 64.54 33.86 64.27 34.04 64.26 34.30
  Q 64.14 36.34 66.20 36.94
  C 66.49 37.03 66.74 37.22 66.93 37.49
  Q 67.48 38.28 68.14 37.83
  C 68.39 37.66 68.47 37.32 68.34 37.02
  Q 67.92 36.05 66.81 35.94
  C 66.52 35.92 66.28 35.72 66.18 35.45
  Z
  M 30.98 36.81
  L 30.23 40.57
  Q 29.98 41.85 31.12 41.06
  Q 32.95 39.80 31.50 36.79
  Q 31.14 36.04 30.98 36.81
  Z
  M 64.3917 39.1601
  C 64.66 39.01 64.61 38.40 64.2684 37.7959
  C 63.93 37.19 63.44 36.83 63.1683 36.9799
  C 62.90 37.13 62.95 37.74 63.2916 38.3441
  C 63.63 38.95 64.12 39.31 64.3917 39.1601
  Z
  M 33.37 43.59
  C 33.94 43.53 34.50 43.77 34.86 44.22
  Q 35.77 45.35 35.82 44.00
  Q 35.92 41.42 35.40 38.91
  Q 35.25 38.19 34.79 37.76
  Q 33.34 36.38 33.87 39.73
  Q 34.25 42.11 32.45 43.05
  Q 32.00 43.29 32.46 43.45
  Q 32.96 43.63 33.37 43.59
  Z
  M 40.21 45.25
  Q 43.27 44.05 42.96 47.75
  L 42.76 50.45
  Q 42.64 51.98 43.43 50.70
  Q 44.56 48.87 43.50 46.96
  Q 43.76 42.59 39.50 42.54
  Q 39.15 41.86 38.56 41.65
  C 38.31 41.56 38.05 41.77 38.05 42.06
  Q 38.05 44.07 38.78 45.96
  Q 39.03 46.62 39.49 46.79
  Q 40.38 47.12 40.21 45.25
  Z
  M 67.57 42.17
  Q 64.97 41.08 64.92 43.56
  C 64.91 43.86 65.15 44.10 65.43 44.09
  L 67.95 44.00
  C 68.26 43.99 68.50 43.74 68.49 43.45
  Q 68.48 42.55 67.57 42.17
  Z
  M 66.71 50.75
  Q 65.99 50.58 65.29 49.53
  C 64.95 49.02 64.23 48.94 63.78 49.36
  Q 62.08 50.98 61.50 52.75
  Q 60.94 54.46 62.44 53.44
  Q 63.27 52.86 63.76 51.98
  Q 64.47 50.69 65.21 51.75
  Q 66.80 53.93 69.71 55.87
  C 69.95 56.03 70.28 55.99 70.47 55.76
  Q 73.58 51.97 71.74 48.42
  Q 71.55 48.05 71.30 47.55
  Q 70.48 45.88 70.04 47.90
  Q 69.90 48.52 69.61 48.87
  Q 68.49 50.22 66.71 50.75
  Z
  M 9.96 47.75
  Q 9.11 47.56 8.46 48.00
  Q 6.81 47.94 6.88 48.98
  Q 6.90 49.42 7.48 50.28
  Q 9.20 52.81 9.82 56.13
  Q 9.96 56.85 10.46 56.31
  Q 12.27 54.36 13.29 52.39
  Q 14.09 50.82 12.12 49.80
  C 11.78 49.63 11.55 49.28 11.53 48.90
  Q 11.32 45.91 9.96 47.75
  Z
  M 33.0598 57.6909
  C 34.09 57.22 34.04 54.93 32.9624 52.5734
  C 31.88 50.22 30.17 48.70 29.1402 49.1691
  C 28.11 49.64 28.16 51.93 29.2376 54.2866
  C 30.32 56.64 32.03 58.16 33.0598 57.6909
  Z
  M 26.59 59.39
  Q 26.19 58.27 25.22 57.49
  C 24.96 57.27 24.78 56.99 24.72 56.69
  L 24.28 54.31
  C 24.23 54.04 23.97 53.86 23.70 53.91
  Q 22.70 54.11 21.72 54.37
  Q 18.88 55.13 18.52 52.07
  Q 18.32 50.40 17.55 51.89
  Q 16.18 54.49 16.45 57.75
  C 16.47 58.05 16.67 58.31 16.96 58.43
  Q 19.92 59.62 21.31 61.44
  Q 22.63 63.16 24.09 62.29
  Q 24.53 62.03 25.00 61.93
  Q 25.85 61.74 26.35 61.14
  Q 26.96 60.42 26.59 59.39
  Z
  M 38.49 57.60
  Q 39.35 55.30 37.98 56.16
  Q 37.51 56.45 37.26 57.03
  Q 35.97 59.98 37.93 58.39
  Q 38.32 58.07 38.49 57.60
  Z
  M 57.04 62.00
  Q 55.32 60.72 55.10 62.43
  C 55.06 62.73 55.18 63.05 55.42 63.29
  Q 57.76 65.65 60.01 68.10
  Q 60.09 68.18 60.71 69.12
  Q 61.31 70.01 62.51 69.85
  Q 62.72 69.82 63.47 69.90
  Q 64.50 70.01 65.02 67.92
  C 65.10 67.57 65.39 67.30 65.75 67.25
  Q 67.29 67.02 67.44 66.05
  C 67.48 65.80 67.31 65.50 67.01 65.31
  Q 64.61 63.76 64.39 60.81
  Q 64.32 59.79 63.77 59.86
  C 63.54 59.90 63.29 60.16 63.14 60.54
  Q 62.31 62.59 61.68 60.16
  Q 60.82 56.86 59.96 60.75
  Q 58.37 60.29 58.81 58.51
  Q 59.14 57.16 58.29 56.72
  C 58.08 56.61 57.82 56.80 57.83 57.07
  Q 57.90 59.13 57.86 61.19
  Q 57.85 62.15 57.04 62.00
  Z
  M 50.00 65.04
  L 52.07 63.51
  C 52.30 63.34 52.35 63.03 52.17 62.86
  Q 51.54 62.27 50.74 62.58
  C 50.52 62.67 50.33 62.95 50.26 63.31
  Q 50.09 64.17 49.29 64.50
  L 47.81 61.05
  C 47.68 60.75 47.47 60.52 47.21 60.42
  Q 46.20 60.01 45.91 58.93
  Q 45.73 58.29 45.49 58.06
  Q 44.80 57.41 44.31 58.31
  Q 43.35 60.08 45.25 62.25
  L 49.00 66.54
  C 49.18 66.75 49.50 66.76 49.64 66.56
  Q 50.10 65.91 50.00 65.04
  Z
  M 71.1276 63.4962
  C 71.57 63.78 72.39 63.27 72.9628 62.3651
  C 73.54 61.46 73.65 60.50 73.2124 60.2238
  C 72.77 59.94 71.95 60.45 71.3772 61.3549
  C 70.80 62.26 70.69 63.22 71.1276 63.4962
  Z
  M 34.96 64.25
  Q 34.48 64.52 34.21 65.00
  Q 32.68 64.42 31.95 62.97
  Q 31.71 62.48 31.47 62.92
  Q 31.02 63.77 31.32 64.78
  C 31.39 65.03 31.29 65.31 31.06 65.49
  L 29.46 66.75
  Q 30.19 67.76 31.08 68.67
  Q 32.49 70.12 32.50 68.25
  Q 32.50 67.35 33.25 67.46
  L 36.94 71.44
  Q 38.48 73.11 40.34 72.33
  L 44.94 70.42
  C 45.18 70.32 45.26 70.02 45.11 69.80
  Q 43.59 67.69 42.84 65.41
  Q 42.46 64.24 41.98 63.59
  Q 41.38 62.77 40.65 62.03
  Q 39.99 61.34 40.00 62.30
  Q 40.04 64.70 37.91 63.40
  Q 37.45 63.12 36.92 62.95
  C 36.61 62.84 36.33 62.66 36.13 62.42
  Q 34.49 60.51 34.96 64.25
  Z
  M 12.88 63.79
  Q 12.45 64.58 13.23 64.23
  C 13.44 64.14 13.59 63.94 13.61 63.70
  Q 13.79 62.14 12.88 63.79
  Z
  M 21.5628 67.7357
  C 22.04 67.77 22.47 67.08 22.5377 66.2030
  C 22.60 65.32 22.27 64.58 21.7972 64.5443
  C 21.32 64.51 20.89 65.20 20.8223 66.0770
  C 20.76 66.96 21.09 67.70 21.5628 67.7357
  Z
  M 19.2586 68.5299
  C 19.75 68.36 19.93 67.60 19.6688 66.8340
  C 19.40 66.07 18.79 65.58 18.3014 65.7501
  C 17.81 65.92 17.63 66.68 17.8912 67.4460
  C 18.16 68.21 18.77 68.70 19.2586 68.5299
  Z
  M 23.77 71.08
  Q 24.43 73.32 24.55 71.80
  Q 24.57 71.46 24.47 71.09
  Q 23.89 68.88 23.71 70.54
  Q 23.68 70.80 23.77 71.08
  Z"
/>
<path fill="#fffffe" d="
  M 48.79 11.75
  L 48.96 22.75
  L 50.04 30.25
  Q 49.78 31.11 49.79 32.00
  Q 49.80 33.31 50.33 32.38
  Q 50.44 32.20 50.45 31.96
  Q 50.50 30.97 50.71 30.00
  Q 50.35 26.57 51.79 23.50
  Q 53.03 22.90 52.96 24.50
  L 52.79 30.50
  Q 53.59 37.36 53.75 30.79
  Q 55.36 30.53 55.32 31.95
  Q 55.29 32.89 55.29 33.05
  Q 55.36 34.46 54.96 35.81
  Q 54.49 37.43 55.11 37.06
  C 55.33 36.93 55.50 36.63 55.56 36.25
  Q 55.79 34.79 56.72 33.69
  C 56.91 33.46 57.24 33.41 57.50 33.57
  Q 60.95 35.67 62.29 39.50
  Q 60.32 40.46 61.06 42.19
  Q 62.30 45.09 62.29 46.75
  Q 61.96 50.84 58.01 50.55
  C 57.69 50.53 57.38 50.64 57.15 50.85
  Q 56.23 51.71 55.00 52.04
  Q 51.33 50.44 53.79 53.00
  Q 54.02 53.91 53.86 54.77
  C 53.82 55.01 53.54 55.13 53.33 55.00
  Q 51.33 53.74 49.97 51.79
  Q 45.21 44.97 43.75 43.50
  Q 40.48 40.21 39.24 38.17
  C 39.06 37.87 39.01 37.53 39.12 37.27
  Q 39.46 36.48 40.43 37.31
  Q 43.01 39.52 41.62 37.13
  Q 41.46 36.85 41.15 36.58
  Q 39.09 34.85 40.67 32.78
  Q 40.79 32.61 41.34 31.79
  Q 42.05 30.72 43.15 31.50
  Q 43.60 31.82 43.63 31.27
  Q 43.87 25.80 44.79 23.25
  Q 46.31 23.32 45.73 24.99
  Q 44.86 27.48 46.38 28.14
  Q 47.98 28.84 47.69 27.12
  Q 47.11 23.67 45.79 21.75
  Q 45.51 15.48 46.01 9.23
  Q 46.05 8.72 45.77 5.44
  Q 45.49 2.14 49.70 2.96
  C 49.95 3.01 50.10 3.28 50.01 3.53
  Q 48.61 7.47 48.79 11.75
  Z"
/>
<path fill="#fffffe" d="
  M 23.96 9.75
  L 22.71 7.50
  Q 23.30 5.56 22.00 4.29
  Q 21.23 4.16 21.50 3.29
  Q 27.59 1.54 24.81 6.56
  Q 23.79 8.40 23.96 9.75
  Z"
/>
<path fill="#ebe3dd" fill-opacity="0.992" d="
  M 42.23 3.18
  Q 42.44 3.21 42.64 3.28
  C 42.84 3.36 42.87 3.64 42.70 3.79
  Q 41.53 4.87 40.50 5.25
  Q 37.96 6.18 37.82 3.81
  C 37.80 3.51 38.00 3.25 38.29 3.17
  Q 39.84 2.76 41.42 3.09
  Q 41.47 3.10 42.23 3.18
  Z"
/>
<path fill="#bd9da7" d="
  M 64.75 3.90
  Q 65.06 4.94 64.19 5.94
  Q 63.40 6.83 62.75 9.50
  Q 62.31 11.31 61.46 9.70
  Q 61.33 9.45 61.34 8.76
  L 61.39 3.80
  C 61.40 3.48 61.59 3.22 61.81 3.23
  L 64.08 3.32
  C 64.38 3.33 64.65 3.57 64.75 3.90
  Z"
/>
<path fill="#ebe3dd" fill-opacity="0.992" d="
  M 12.06 3.62
  Q 13.71 3.45 13.27 4.34
  C 13.15 4.57 12.86 4.73 12.50 4.74
  Q 10.47 4.81 10.00 6.50
  Q 9.58 8.03 9.95 12.25
  Q 10.01 12.87 9.81 13.21
  Q 9.45 13.82 8.85 13.35
  C 8.63 13.17 8.48 12.87 8.44 12.51
  Q 8.15 9.88 8.21 7.23
  Q 8.22 7.14 8.14 5.28
  Q 8.03 2.36 11.11 3.50
  Q 11.56 3.67 12.06 3.62
  Z"
/>
<path fill="#bd9da7" d="
  M 21.50 3.29
  Q 21.23 4.16 22.00 4.29
  Q 21.19 7.98 21.50 3.29
  Z"
/>
<path fill="#ebe3dd" fill-opacity="0.992" d="
  M 72.79 7.25
  Q 72.90 8.52 72.11 9.40
  C 71.87 9.67 71.74 9.97 71.75 10.25
  Q 71.79 12.35 72.71 14.25
  L 72.46 23.50
  L 71.50 23.54
  L 70.68 18.68
  C 70.66 18.53 70.75 18.17 70.92 17.74
  Q 71.35 16.66 70.81 15.19
  Q 69.63 11.94 69.94 8.06
  Q 70.11 5.86 68.65 4.17
  C 68.49 3.99 68.56 3.71 68.78 3.62
  Q 73.60 1.69 72.79 7.25
  Z"
/>
<path fill="#999c66" fill-opacity="0.969" d="
  M 1.04 4.00
  L 2.21 4.50
  Q 1.43 40.75 1.96 77.00
  L 1.04 77.00
  L 1.04 4.00
  Z"
/>
<path fill="#ebe3dd" fill-opacity="0.992" d="
  M 41.26 10.69
  L 39.68 17.89
  Q 39.18 20.17 38.94 17.83
  Q 38.56 14.19 40.10 9.73
  C 40.23 9.35 40.54 9.07 40.92 8.96
  Q 41.93 8.68 41.93 7.06
  Q 41.93 6.07 42.56 6.27
  C 42.83 6.36 43.04 6.64 43.09 6.99
  Q 43.34 8.58 42.71 10.05
  C 42.64 10.22 42.37 10.32 42.06 10.28
  L 41.67 10.24
  C 41.49 10.22 41.32 10.42 41.26 10.69
  Z"
/>
<path fill="#ebe3dd" fill-opacity="0.992" d="
  M 55.26 11.82
  Q 52.65 10.63 54.97 7.70
  Q 55.59 6.91 55.73 7.85
  L 56.27 11.26
  Q 56.45 12.36 55.26 11.82
  Z"
/>
<path fill="#956563" d="
  M 72.79 7.25
  Q 74.08 6.88 74.61 7.73
  C 74.81 8.05 75.08 8.24 75.31 8.23
  Q 76.00 8.21 76.47 7.67
  Q 76.79 7.29 76.82 7.75
  Q 76.94 9.46 75.28 10.15
  C 75.02 10.26 74.79 10.48 74.62 10.78
  L 72.71 14.25
  Q 71.79 12.35 71.75 10.25
  C 71.74 9.97 71.87 9.67 72.11 9.40
  Q 72.90 8.52 72.79 7.25
  Z"
/>
<path fill="#bd9da7" d="
  M 22.71 7.50
  L 23.96 9.75
  Q 23.62 14.32 24.79 18.75
  L 25.21 23.00
  Q 24.10 22.82 23.95 23.68
  C 23.90 23.98 23.67 24.19 23.44 24.15
  L 21.54 23.75
  L 21.46 22.50
  Q 23.37 20.18 23.25 18.75
  Q 22.56 10.70 22.25 8.50
  Q 22.12 7.59 22.71 7.50
  Z"
/>
<ellipse fill="#956563" cx="0.00" cy="0.00" transform="translate(64.74,9.19) rotate(120.6)" rx="1.12" ry="0.52"/>
<path fill="#fffffe" d="
  M 32.44 13.56
  Q 30.18 13.95 31.50 11.25
  Q 31.90 10.43 31.97 9.52
  Q 32.13 7.45 32.75 9.50
  Q 33.14 10.79 33.69 11.38
  C 33.93 11.64 34.05 11.94 33.99 12.18
  Q 33.71 13.34 32.44 13.56
  Z"
/>
<path fill="#999c66" fill-opacity="0.969" d="
  M 48.79 11.75
  L 48.99 11.75
  C 49.10 11.75 49.20 11.85 49.24 12.00
  Q 50.62 17.40 48.96 22.75
  L 48.79 11.75
  Z"
/>
<path fill="#ebe3dd" fill-opacity="0.992" d="
  M 43.12 19.40
  Q 43.24 20.30 43.07 20.73
  Q 42.43 22.27 42.27 20.59
  L 41.58 13.49
  C 41.54 13.14 41.61 12.81 41.77 12.59
  Q 42.90 11.01 42.99 13.19
  Q 43.02 13.77 43.11 14.30
  Q 43.46 16.20 43.13 18.11
  Q 43.02 18.73 43.12 19.40
  Z"
/>
<rect fill="#c05a7b" x="-0.51" y="-4.91" transform="translate(62.43,18.28) rotate(-1.2)" width="1.02" height="9.82" rx="0.32"/>
<rect fill="#bd9da7" x="-0.70" y="-6.07" transform="translate(9.56,21.67) rotate(3.8)" width="1.40" height="12.14" rx="0.26"/>
<path fill="#bd9da7" d="
  M 52.96 24.50
  Q 53.03 22.90 51.79 23.50
  L 51.96 17.99
  C 51.97 17.65 52.14 17.35 52.40 17.21
  Q 53.10 16.82 53.19 17.81
  Q 53.31 19.26 52.96 24.50
  Z"
/>
<path fill="#542e3c" d="
  M 24.79 18.75
  Q 25.87 18.49 26.31 19.69
  Q 27.99 24.27 28.29 27.25
  Q 28.52 29.16 27.35 30.05
  Q 26.95 30.36 26.93 29.81
  Q 26.84 26.18 25.21 23.00
  L 24.79 18.75
  Z"
/>
<ellipse fill="#bd9da7" cx="0.00" cy="0.00" transform="translate(55.59,22.55) rotate(88.5)" rx="2.85" ry="0.87"/>
<ellipse fill="#bd9da7" cx="0.00" cy="0.00" transform="translate(37.44,23.41) rotate(90.5)" rx="2.15" ry="0.46"/>
<path fill="#956563" d="
  M 45.79 21.75
  Q 47.11 23.67 47.69 27.12
  Q 47.98 28.84 46.38 28.14
  Q 44.86 27.48 45.73 24.99
  Q 46.31 23.32 44.79 23.25
  Q 45.59 22.70 45.79 21.75
  Z"
/>
<path fill="#956563" d="
  M 21.46 22.50
  L 21.54 23.75
  Q 20.77 25.94 21.16 28.27
  C 21.21 28.56 21.02 28.83 20.76 28.85
  Q 19.88 28.92 19.60 28.01
  Q 19.56 27.88 19.60 26.98
  Q 19.63 26.32 19.04 26.00
  Q 19.38 23.70 21.46 22.50
  Z"
/>
<path fill="#fffffe" d="
  M 25.21 23.00
  Q 26.84 26.18 26.93 29.81
  Q 26.95 30.36 27.35 30.05
  Q 28.52 29.16 28.29 27.25
  L 30.13 30.36
  C 30.25 30.56 30.17 30.90 29.94 31.19
  L 27.24 34.56
  C 27.00 34.86 26.73 35.06 26.51 35.09
  Q 24.51 35.35 22.75 34.21
  Q 22.08 31.12 19.04 31.75
  Q 17.03 28.94 19.04 26.00
  Q 19.63 26.32 19.60 26.98
  Q 19.56 27.88 19.60 28.01
  Q 19.88 28.92 20.76 28.85
  C 21.02 28.83 21.21 28.56 21.16 28.27
  Q 20.77 25.94 21.54 23.75
  L 23.44 24.15
  C 23.67 24.19 23.90 23.98 23.95 23.68
  Q 24.10 22.82 25.21 23.00
  Z"
/>
<path fill="#956563" d="
  M 71.50 23.54
  L 72.46 23.50
  Q 73.18 25.06 72.80 26.62
  Q 72.50 27.84 72.54 28.42
  Q 72.59 29.34 72.71 30.25
  Q 71.55 30.35 70.51 29.91
  C 70.25 29.80 70.10 29.51 70.14 29.20
  Q 70.41 27.04 69.00 25.29
  Q 70.78 25.14 71.50 23.54
  Z"
/>
<path fill="#fffffe" d="
  M 69.00 25.29
  Q 70.41 27.04 70.14 29.20
  C 70.10 29.51 70.25 29.80 70.51 29.91
  Q 71.55 30.35 72.71 30.25
  Q 73.11 32.76 73.50 33.25
  Q 75.28 35.51 72.29 37.79
  Q 70.49 39.16 69.62 37.08
  Q 68.89 35.34 67.29 34.81
  C 66.96 34.71 66.69 34.53 66.51 34.30
  Q 65.53 33.11 64.94 32.81
  Q 62.61 31.63 64.20 29.43
  Q 65.21 28.02 65.53 26.32
  Q 66.02 23.79 69.00 25.29
  Z"
/>
<path fill="#ebe3dd" fill-opacity="0.992" d="
  M 59.80 30.79
  Q 57.27 29.40 58.20 28.24
  Q 58.82 27.45 60.15 27.37
  Q 62.34 27.23 61.81 29.86
  C 61.63 30.77 60.62 31.23 59.80 30.79
  Z"
/>
<path fill="#999c66" fill-opacity="0.969" d="
  M 50.71 30.00
  Q 50.50 30.97 50.45 31.96
  Q 50.44 32.20 50.33 32.38
  Q 49.80 33.31 49.79 32.00
  Q 49.78 31.11 50.04 30.25
  Q 50.42 30.26 50.71 30.00
  Z"
/>
<path fill="#999c66" fill-opacity="0.969" d="
  M 52.79 30.50
  Q 53.20 30.81 53.75 30.79
  Q 53.59 37.36 52.79 30.50
  Z"
/>
<path fill="#956563" d="
  M 22.75 34.21
  Q 19.78 34.57 19.04 31.75
  Q 22.08 31.12 22.75 34.21
  Z"
/>
<path fill="#bd9da7" d="
  M 60.21 33.54
  Q 57.69 31.15 61.28 32.34
  C 61.57 32.44 61.78 32.70 61.79 33.00
  Q 61.87 35.10 60.21 33.54
  Z"
/>
<path fill="#bd9da7" d="
  M 20.21 37.75
  Q 18.30 38.33 16.29 37.75
  L 17.47 35.66
  C 17.61 35.41 17.63 35.10 17.52 34.81
  Q 17.28 34.20 17.79 33.91
  C 18.03 33.78 18.37 33.86 18.59 34.12
  Q 19.90 35.67 20.21 37.75
  Z"
/>
<path fill="#bd9da7" d="
  M 66.81 35.94
  Q 67.92 36.05 68.34 37.02
  C 68.47 37.32 68.39 37.66 68.14 37.83
  Q 67.48 38.28 66.93 37.49
  C 66.74 37.22 66.49 37.03 66.20 36.94
  Q 64.14 36.34 64.26 34.30
  C 64.27 34.04 64.54 33.86 64.78 33.96
  Q 65.78 34.37 66.18 35.45
  C 66.28 35.72 66.52 35.92 66.81 35.94
  Z"
/>
<path fill="#c05a7b" d="
  M 30.98 36.81
  Q 31.14 36.04 31.50 36.79
  Q 32.95 39.80 31.12 41.06
  Q 29.98 41.85 30.23 40.57
  L 30.98 36.81
  Z"
/>
<ellipse fill="#bd9da7" cx="0.00" cy="0.00" transform="translate(63.78,38.07) rotate(60.7)" rx="1.25" ry="0.56"/>
<path fill="#fffffe" d="
  M 33.37 43.59
  Q 32.96 43.63 32.46 43.45
  Q 32.00 43.29 32.45 43.05
  Q 34.25 42.11 33.87 39.73
  Q 33.34 36.38 34.79 37.76
  Q 35.25 38.19 35.40 38.91
  Q 35.92 41.42 35.82 44.00
  Q 35.77 45.35 34.86 44.22
  C 34.50 43.77 33.94 43.53 33.37 43.59
  Z"
/>
<path fill="#ebe3dd" fill-opacity="0.992" d="
  M 16.29 37.75
  Q 18.30 38.33 20.21 37.75
  Q 20.23 39.89 21.54 41.50
  Q 21.55 43.37 22.71 44.75
  Q 22.87 45.40 22.58 45.88
  C 22.44 46.10 22.11 46.15 21.84 45.97
  L 19.50 44.46
  Q 19.10 43.15 18.00 42.29
  L 15.84 39.61
  C 15.62 39.33 15.55 39.00 15.68 38.78
  L 16.29 37.75
  Z"
/>
<path fill="#bd9da7" d="
  M 22.71 44.75
  Q 21.55 43.37 21.54 41.50
  Q 21.95 40.67 22.00 39.76
  Q 22.04 39.11 22.20 38.78
  Q 22.83 37.50 23.36 39.03
  Q 23.49 39.42 23.39 39.99
  Q 22.97 42.42 24.91 44.10
  Q 26.53 45.50 24.99 45.07
  Q 24.68 44.99 24.27 44.60
  Q 23.51 43.91 22.71 44.75
  Z"
/>
<path fill="#bd9da7" d="
  M 62.29 39.50
  Q 63.94 43.15 62.29 46.75
  Q 62.30 45.09 61.06 42.19
  Q 60.32 40.46 62.29 39.50
  Z"
/>
<path fill="#ebe3dd" fill-opacity="0.992" d="
  M 39.50 42.54
  Q 40.53 43.65 40.21 45.25
  Q 40.38 47.12 39.49 46.79
  Q 39.03 46.62 38.78 45.96
  Q 38.05 44.07 38.05 42.06
  C 38.05 41.77 38.31 41.56 38.56 41.65
  Q 39.15 41.86 39.50 42.54
  Z"
/>
<path fill="#ebe3dd" fill-opacity="0.992" d="
  M 67.57 42.17
  Q 68.48 42.55 68.49 43.45
  C 68.50 43.74 68.26 43.99 67.95 44.00
  L 65.43 44.09
  C 65.15 44.10 64.91 43.86 64.92 43.56
  Q 64.97 41.08 67.57 42.17
  Z"
/>
<path fill="#bd9da7" d="
  M 18.00 42.29
  Q 19.10 43.15 19.50 44.46
  Q 18.03 43.89 18.00 42.29
  Z"
/>
<path fill="#956563" d="
  M 39.50 42.54
  Q 43.76 42.59 43.50 46.96
  Q 42.80 47.04 42.96 47.75
  Q 43.27 44.05 40.21 45.25
  Q 40.53 43.65 39.50 42.54
  Z"
/>
<path fill="#fffffe" d="
  M 65.21 51.75
  Q 66.17 51.52 66.71 50.75
  Q 68.49 50.22 69.61 48.87
  Q 69.90 48.52 70.04 47.90
  Q 70.48 45.88 71.30 47.55
  Q 71.55 48.05 71.74 48.42
  Q 73.58 51.97 70.47 55.76
  C 70.28 55.99 69.95 56.03 69.71 55.87
  Q 66.80 53.93 65.21 51.75
  Z"
/>
<path fill="#fffffe" d="
  M 8.46 48.00
  Q 8.34 50.48 10.20 50.08
  C 10.42 50.03 10.54 49.76 10.46 49.50
  L 9.96 47.75
  Q 11.32 45.91 11.53 48.90
  C 11.55 49.28 11.78 49.63 12.12 49.80
  Q 14.09 50.82 13.29 52.39
  Q 12.27 54.36 10.46 56.31
  Q 9.96 56.85 9.82 56.13
  Q 9.20 52.81 7.48 50.28
  Q 6.90 49.42 6.88 48.98
  Q 6.81 47.94 8.46 48.00
  Z"
/>
<path fill="#ebe3dd" fill-opacity="0.992" d="
  M 43.50 46.96
  Q 44.56 48.87 43.43 50.70
  Q 42.64 51.98 42.76 50.45
  L 42.96 47.75
  Q 42.80 47.04 43.50 46.96
  Z"
/>
<path fill="#c05a7b" d="
  M 9.96 47.75
  L 10.46 49.50
  C 10.54 49.76 10.42 50.03 10.20 50.08
  Q 8.34 50.48 8.46 48.00
  Q 9.11 47.56 9.96 47.75
  Z"
/>
<ellipse fill="#fffffe" cx="0.00" cy="0.00" transform="translate(31.10,53.43) rotate(65.3)" rx="4.69" ry="2.05"/>
<path fill="#ebe3dd" fill-opacity="0.992" d="
  M 66.71 50.75
  Q 66.17 51.52 65.21 51.75
  Q 64.47 50.69 63.76 51.98
  Q 63.27 52.86 62.44 53.44
  Q 60.94 54.46 61.50 52.75
  Q 62.08 50.98 63.78 49.36
  C 64.23 48.94 64.95 49.02 65.29 49.53
  Q 65.99 50.58 66.71 50.75
  Z"
/>
<path fill="#fffffe" d="
  M 26.35 61.14
  Q 25.85 61.74 25.00 61.93
  Q 24.53 62.03 24.09 62.29
  Q 22.63 63.16 21.31 61.44
  Q 19.92 59.62 16.96 58.43
  C 16.67 58.31 16.47 58.05 16.45 57.75
  Q 16.18 54.49 17.55 51.89
  Q 18.32 50.40 18.52 52.07
  Q 18.88 55.13 21.72 54.37
  Q 22.70 54.11 23.70 53.91
  C 23.97 53.86 24.23 54.04 24.28 54.31
  L 24.72 56.69
  C 24.78 56.99 24.96 57.27 25.22 57.49
  Q 26.19 58.27 26.59 59.39
  Q 26.96 60.42 26.35 61.14
  Z"
/>
<path fill="#bd9da7" d="
  M 55.00 52.04
  L 53.79 53.00
  Q 51.33 50.44 55.00 52.04
  Z"
/>
<path fill="#ebe3dd" fill-opacity="0.992" d="
  M 37.93 58.39
  Q 35.97 59.98 37.26 57.03
  Q 37.51 56.45 37.98 56.16
  Q 39.35 55.30 38.49 57.60
  Q 38.32 58.07 37.93 58.39
  Z"
/>
<path fill="#bd9da7" d="
  M 59.96 60.75
  L 58.57 62.76
  C 58.39 63.02 58.06 63.09 57.89 62.91
  L 57.04 62.00
  Q 57.85 62.15 57.86 61.19
  Q 57.90 59.13 57.83 57.07
  C 57.82 56.80 58.08 56.61 58.29 56.72
  Q 59.14 57.16 58.81 58.51
  Q 58.37 60.29 59.96 60.75
  Z"
/>
<path fill="#ebe3dd" fill-opacity="0.992" d="
  M 49.29 64.50
  Q 49.57 64.87 50.00 65.04
  Q 50.10 65.91 49.64 66.56
  C 49.50 66.76 49.18 66.75 49.00 66.54
  L 45.25 62.25
  Q 43.35 60.08 44.31 58.31
  Q 44.80 57.41 45.49 58.06
  Q 45.73 58.29 45.91 58.93
  Q 46.20 60.01 47.21 60.42
  C 47.47 60.52 47.68 60.75 47.81 61.05
  L 49.29 64.50
  Z"
/>
<path fill="#fffffe" d="
  M 57.04 62.00
  L 57.89 62.91
  C 58.06 63.09 58.39 63.02 58.57 62.76
  L 59.96 60.75
  Q 60.82 56.86 61.68 60.16
  Q 62.31 62.59 63.14 60.54
  C 63.29 60.16 63.54 59.90 63.77 59.86
  Q 64.32 59.79 64.39 60.81
  Q 64.61 63.76 67.01 65.31
  C 67.31 65.50 67.48 65.80 67.44 66.05
  Q 67.29 67.02 65.75 67.25
  C 65.39 67.30 65.10 67.57 65.02 67.92
  Q 64.50 70.01 63.47 69.90
  Q 62.72 69.82 62.51 69.85
  Q 61.31 70.01 60.71 69.12
  Q 60.09 68.18 60.01 68.10
  Q 57.76 65.65 55.42 63.29
  C 55.18 63.05 55.06 62.73 55.10 62.43
  Q 55.32 60.72 57.04 62.00
  Z"
/>
<ellipse fill="#ebe3dd" fill-opacity="0.992" cx="0.00" cy="0.00" transform="translate(72.17,61.86) rotate(122.5)" rx="1.94" ry="0.94"/>
<path fill="#fffffe" d="
  M 33.25 67.46
  Q 31.46 66.71 29.46 66.75
  L 31.06 65.49
  C 31.29 65.31 31.39 65.03 31.32 64.78
  Q 31.02 63.77 31.47 62.92
  Q 31.71 62.48 31.95 62.97
  Q 32.68 64.42 34.21 65.00
  L 35.73 66.56
  C 35.97 66.81 36.29 66.90 36.54 66.80
  Q 37.39 66.45 36.56 65.63
  Q 36.37 65.45 35.70 65.21
  Q 35.03 64.98 34.96 64.25
  Q 34.49 60.51 36.13 62.42
  C 36.33 62.66 36.61 62.84 36.92 62.95
  Q 37.45 63.12 37.91 63.40
  Q 40.04 64.70 40.00 62.30
  Q 39.99 61.34 40.65 62.03
  Q 41.38 62.77 41.98 63.59
  Q 42.46 64.24 42.84 65.41
  Q 43.59 67.69 45.11 69.80
  C 45.26 70.02 45.18 70.32 44.94 70.42
  L 40.34 72.33
  Q 38.48 73.11 36.94 71.44
  L 33.25 67.46
  Z"
/>
<path fill="#bd9da7" d="
  M 50.00 65.04
  Q 49.57 64.87 49.29 64.50
  Q 50.09 64.17 50.26 63.31
  C 50.33 62.95 50.52 62.67 50.74 62.58
  Q 51.54 62.27 52.17 62.86
  C 52.35 63.03 52.30 63.34 52.07 63.51
  L 50.00 65.04
  Z"
/>
<path fill="#ebe3dd" fill-opacity="0.992" d="
  M 12.88 63.79
  Q 13.79 62.14 13.61 63.70
  C 13.59 63.94 13.44 64.14 13.23 64.23
  Q 12.45 64.58 12.88 63.79
  Z"
/>
<path fill="#999c66" fill-opacity="0.969" d="
  M 34.96 64.25
  Q 35.03 64.98 35.70 65.21
  Q 36.37 65.45 36.56 65.63
  Q 37.39 66.45 36.54 66.80
  C 36.29 66.90 35.97 66.81 35.73 66.56
  L 34.21 65.00
  Q 34.48 64.52 34.96 64.25
  Z"
/>
<ellipse fill="#fffffe" cx="0.00" cy="0.00" transform="translate(21.68,66.14) rotate(94.2)" rx="1.60" ry="0.86"/>
<ellipse fill="#fffffe" cx="0.00" cy="0.00" transform="translate(18.78,67.14) rotate(71.0)" rx="1.47" ry="0.94"/>
<path fill="#956563" d="
  M 29.46 66.75
  Q 31.46 66.71 33.25 67.46
  Q 32.50 67.35 32.50 68.25
  Q 32.49 70.12 31.08 68.67
  Q 30.19 67.76 29.46 66.75
  Z"
/>
<path fill="#956563" d="
  M 23.71 70.54
  Q 23.89 68.88 24.47 71.09
  Q 24.57 71.46 24.55 71.80
  Q 24.43 73.32 23.77 71.08
  Q 23.68 70.80 23.71 70.54
  Z"
/>
<path fill="#ebe3dd" fill-opacity="0.992" d="
  M 53.19 81.00
  Q 50.94 81.00 48.69 81.00
  Q 50.94 80.37 53.19 81.00
  Z"
/>
</svg>
