<?xml version="1.0" encoding="UTF-8" standalone="no"?><!DOCTYPE svg PUBLIC "-//W3C//DTD SVG 1.1//EN" "http://www.w3.org/Graphics/SVG/1.1/DTD/svg11.dtd"><svg width="100%" height="100%" viewBox="0 0 83 88" version="1.1" xmlns="http://www.w3.org/2000/svg" xmlns:xlink="http://www.w3.org/1999/xlink" xml:space="preserve" xmlns:serif="http://www.serif.com/" style="fill-rule:evenodd;clip-rule:evenodd;"><path d="M4.123,53.375c0.253,1.447 0.5,2.377 0.74,2.79c0.907,1.52 1.187,3.147 0.84,4.88c-0.62,3.074 0.353,4.774 2.92,5.1c0.32,0.04 0.59,0.23 0.69,0.51c0.68,1.914 0.22,3.044 -1.38,3.39c-0.22,0.04 -0.55,-0.02 -0.92,-0.17c-0.54,-0.226 -0.753,0.114 -0.64,1.02" style="fill:none;fill-rule:nonzero;stroke:#a48477;stroke-width:2px;"/><path d="M6.373,70.895c-0.84,1.094 -0.933,2.214 -0.28,3.36c0.17,0.29 0.23,0.63 0.16,0.92c-0.593,2.46 -0.723,4.944 -0.39,7.45c0.04,0.3 0.27,0.54 0.56,0.59c1.36,0.234 3.093,0.39 5.2,0.47c0.68,0.027 1.11,-0.223 1.29,-0.75" style="fill:none;fill-rule:nonzero;stroke:#847c69;stroke-width:2px;"/><path d="M12.913,82.935l1.5,0.5" style="fill:none;fill-rule:nonzero;stroke:#f0eedc;stroke-width:2px;"/><path d="M14.413,83.435c0.96,0.114 1.837,-0.096 2.63,-0.63c0.29,-0.19 0.6,-0.29 0.9,-0.28c9.06,0.374 18.123,0.36 27.19,-0.04c0.053,-0.006 0.713,0.01 1.98,0.05c1.613,0.047 2.923,-0.506 3.93,-1.66c0.013,-0.013 0.383,-0.63 1.11,-1.85c0.933,-1.56 2.423,-2.36 4.47,-2.4c0.87,-0.02 1.63,-0.59 1.91,-1.41c0.273,-0.846 1.06,-1.143 2.36,-0.89c1.767,0.34 3.497,0.244 5.19,-0.29c0.28,-0.09 0.51,-0.33 0.6,-0.65l0.34,-1.16c0.08,-0.29 0.3,-0.53 0.61,-0.68c1.587,-0.753 2.903,-1.823 3.95,-3.21c0.17,-0.23 0.25,-0.55 0.21,-0.88c-0.107,-0.98 0.1,-1.903 0.62,-2.77" style="fill:none;fill-rule:nonzero;stroke:#a48477;stroke-width:2px;"/><path d="M72.413,64.685c1.933,-4.3 3.247,-8.776 3.94,-13.43c0.113,-0.733 0.5,-2.053 1.16,-3.96c0.8,-2.3 0.753,-4.92 -0.14,-7.86c-0.733,-2.42 -1.147,-6.136 -1.24,-11.15c-0.007,-0.613 -0.087,-1.176 -0.24,-1.69c-0.153,-0.546 -0.327,-1.086 -0.52,-1.62" style="fill:none;fill-rule:nonzero;stroke:#847c69;stroke-width:2px;"/><path d="M59.833,14.185c-3.073,-0.753 -5.403,-2.756 -6.99,-6.01c-0.42,-0.87 -1.28,-1.46 -2.25,-1.53c-6.887,-0.54 -13.96,-0.623 -21.22,-0.25" style="fill:none;fill-rule:nonzero;stroke:#a48477;stroke-width:2px;"/><path d="M29.373,6.395l-8.74,-0.25c-1.1,-0.026 -2.05,-0.393 -2.85,-1.1c-0.893,-0.786 -2.207,-1.07 -3.94,-0.85c-1.993,0.247 -3.547,1.1 -4.66,2.56c-0.333,0.44 -0.733,0.877 -1.2,1.31c-0.447,0.42 -0.823,0.894 -1.13,1.42c-0.15,0.26 -0.21,0.59 -0.18,0.95c0.193,2.234 0.023,4.777 -0.51,7.63c-0.2,1.08 0.033,2.06 0.7,2.94c0.38,0.487 1.037,0.63 1.97,0.43" style="fill:none;fill-rule:nonzero;stroke:#847c69;stroke-width:2px;"/><path d="M8.833,21.435c1.773,2 1.473,3.52 -0.9,4.56c-0.36,0.16 -0.96,0.9 -1.56,1.94c-0.793,1.374 -0.94,3.244 -0.44,5.61c0.07,0.34 0.02,0.7 -0.15,1.02c-1.787,3.294 -1.99,6.594 -0.61,9.9c0.13,0.32 0.16,0.66 0.08,0.96c-0.26,1.027 -0.637,2.01 -1.13,2.95" style="fill:none;fill-rule:nonzero;stroke:#a48477;stroke-width:2px;"/><path d="M75.373,24.975l-2.04,-2.79" style="fill:none;fill-rule:nonzero;stroke:#847c69;stroke-width:2px;"/><path d="M73.333,22.185c-0.213,-1.28 -0.703,-2.37 -1.47,-3.27c-0.633,-0.746 -1.623,-1.31 -2.97,-1.69c-1.813,-0.526 -3.57,-0.86 -5.27,-1c-0.687,-0.053 -1.37,-0.01 -2.05,0.13c-1.107,0.234 -1.79,0.204 -2.05,-0.09c-0.107,-0.126 -0.04,-0.446 0.2,-0.96c0.153,-0.34 0.19,-0.713 0.11,-1.12" style="fill:none;fill-rule:nonzero;stroke:#a48477;stroke-width:2px;"/><path d="M29.373,6.395c1.067,-0.066 1.317,0.294 0.75,1.08" style="fill:none;fill-rule:nonzero;stroke:#482427;stroke-width:2px;"/><path d="M30.123,7.475l-7.16,0.01c-0.18,0 -0.33,0.14 -0.35,0.33c-0.16,1.947 0.51,2.724 2.01,2.33" style="fill:none;fill-rule:nonzero;stroke:#948e8c;stroke-width:2px;"/><path d="M24.623,10.145c1.08,-0.193 1.413,0.057 1,0.75" style="fill:none;fill-rule:nonzero;stroke:#482427;stroke-width:2px;"/><path d="M25.623,10.895l-5,1.58" style="fill:none;fill-rule:nonzero;stroke:#948e8c;stroke-width:2px;"/><path d="M20.623,12.475c-0.58,-0.173 -0.917,-0.1 -1.01,0.22c-0.09,0.34 -0.28,0.58 -0.47,0.61c-1.073,0.18 -1.39,-0.52 -0.95,-2.1c0.3,-1.093 0.027,-1.836 -0.82,-2.23" style="fill:none;fill-rule:nonzero;stroke:#482427;stroke-width:2px;"/><path d="M17.373,8.975c-2.48,-0.84 -4.88,-0.81 -7.2,0.09c-0.813,0.314 -1.36,0.744 -1.64,1.29c-0.407,0.814 -0.21,1.604 0.59,2.37" style="fill:none;fill-rule:nonzero;stroke:#948e8c;stroke-width:2px;"/><path d="M9.123,12.725c-1.06,1.02 -0.727,1.437 1,1.25" style="fill:none;fill-rule:nonzero;stroke:#482427;stroke-width:2px;"/><path d="M10.123,13.975c-1.687,0.06 -2.253,0.814 -1.7,2.26c0.1,0.26 0.39,0.42 0.7,0.37c2.533,-0.373 5.073,-0.443 7.62,-0.21c0.28,0.027 0.527,-0.003 0.74,-0.09c0.233,-0.1 0.46,-0.223 0.68,-0.37" style="fill:none;fill-rule:nonzero;stroke:#948e8c;stroke-width:2px;"/><path d="M18.163,15.935c0.287,1.167 -0.143,1.68 -1.29,1.54" style="fill:none;fill-rule:nonzero;stroke:#482427;stroke-width:2px;"/><path d="M16.873,17.475c-2.54,-0.273 -5.067,-0.173 -7.58,0.3c-0.32,0.06 -0.59,0.26 -0.74,0.53c-0.613,1.167 -0.257,1.974 1.07,2.42" style="fill:none;fill-rule:nonzero;stroke:#948e8c;stroke-width:2px;"/><path d="M9.623,20.725c-0.327,0.18 -0.59,0.417 -0.79,0.71" style="fill:none;fill-rule:nonzero;stroke:#482427;stroke-width:2px;"/><path d="M12.763,6.945c1.373,0.534 2.753,0.584 4.14,0.15c0.22,-0.07 0.28,-0.35 0.11,-0.51c-1.753,-1.633 -3.617,-1.683 -5.59,-0.15c-0.17,0.13 -0.16,0.38 0.02,0.46c0.133,0.06 0.27,0.08 0.41,0.06c0.42,-0.06 0.77,-0.07 0.91,-0.01" style="fill:none;fill-rule:nonzero;stroke:#948e8c;stroke-width:2px;"/><path d="M20.473,9.745c-0.82,-0.246 -1.167,-0.18 -1.04,0.2c0.09,0.25 0.39,0.44 0.76,0.47c2.373,0.207 2.467,-0.016 0.28,-0.67" style="fill:none;fill-rule:nonzero;stroke:#847c69;stroke-width:2px;"/><path d="M73.333,22.185l-0.96,-0.04" style="fill:none;fill-rule:nonzero;stroke:#482427;stroke-width:2px;"/><path d="M72.373,22.145c-0.36,-2.08 -1.61,-3.14 -3.75,-3.18c-1.087,-0.02 -2.16,-0.1 -3.22,-0.24c-2.633,-0.36 -3.213,0.46 -1.74,2.46" style="fill:none;fill-rule:nonzero;stroke:#b3969a;stroke-width:2px;"/><path d="M63.663,21.185c-0.1,0.234 -0.267,0.317 -0.5,0.25" style="fill:none;fill-rule:nonzero;stroke:#482427;stroke-width:2px;"/><path d="M63.163,21.435c-0.6,-0.466 -1.15,-0.983 -1.65,-1.55c-0.653,-0.746 -1.23,-1.196 -1.73,-1.35c-1.233,-0.386 -2.223,-0.003 -2.97,1.15c-0.167,0.26 -0.39,0.497 -0.67,0.71c-0.847,0.654 -0.87,1.45 -0.07,2.39c0.2,0.23 0.2,0.57 0.01,0.79c-1.02,1.207 -1.543,2.49 -1.57,3.85c-0.02,0.847 0.203,1.647 0.67,2.4c0.973,1.567 2.06,1.287 3.26,-0.84c0.713,-1.26 1.607,-1.403 2.68,-0.43c1.033,0.94 1.46,2.14 1.28,3.6c-0.353,2.76 -0.377,5.52 -0.07,8.28" style="fill:none;fill-rule:nonzero;stroke:#b3969a;stroke-width:2px;"/><path d="M62.333,40.435c-0.46,-0.086 -0.863,0.01 -1.21,0.29" style="fill:none;fill-rule:nonzero;stroke:#7a5256;stroke-width:2px;"/><path d="M61.123,40.725c-1.553,-0.213 -2.867,0.21 -3.94,1.27c-0.773,0.76 -1.273,1.76 -1.5,3c-0.22,1.207 0.343,1.95 1.69,2.23" style="fill:none;fill-rule:nonzero;stroke:#b3969a;stroke-width:2px;"/><path d="M57.373,47.225l0.78,1.26c0.21,0.34 0.44,0.58 0.66,0.69c1.907,0.994 2.58,0.33 2.02,-1.99" style="fill:none;fill-rule:nonzero;stroke:#7a5256;stroke-width:2px;"/><path d="M60.833,47.185l0.58,-1.25" style="fill:none;fill-rule:nonzero;stroke:#b3969a;stroke-width:2px;"/><path d="M61.413,45.935l0.92,0" style="fill:none;fill-rule:nonzero;stroke:#7a5256;stroke-width:2px;"/><path d="M62.333,45.935c-0.487,1.834 0.027,2.93 1.54,3.29" style="fill:none;fill-rule:nonzero;stroke:#b3969a;stroke-width:2px;"/><path d="M63.873,49.225l0,1.17" style="fill:none;fill-rule:nonzero;stroke:#482427;stroke-width:2px;"/><path d="M63.873,50.395c-0.78,-0.153 -1.377,0.027 -1.79,0.54" style="fill:none;fill-rule:nonzero;stroke:#b3969a;stroke-width:2px;"/><path d="M62.083,50.935l-0.96,0.29" style="fill:none;fill-rule:nonzero;stroke:#7a5256;stroke-width:2px;"/><path d="M61.123,51.225l-5.2,0.19c-0.3,0.01 -0.6,0.18 -0.83,0.46c-0.48,0.62 -0.683,1.287 -0.61,2c0.067,0.66 0.45,1.314 1.15,1.96c1.307,1.207 2.873,2.097 4.7,2.67c0.26,0.08 0.52,-0.09 0.54,-0.34l0.29,-4.48" style="fill:none;fill-rule:nonzero;stroke:#b3969a;stroke-width:2px;"/><path d="M61.163,53.685c0.62,-0.033 1.19,-0.213 1.71,-0.54" style="fill:none;fill-rule:nonzero;stroke:#7a5256;stroke-width:2px;"/><path d="M62.873,53.145c0.847,0.154 1.39,-0.09 1.63,-0.73c0.16,-0.41 0.36,-0.7 0.52,-0.75c0.167,-0.053 0.353,-0.046 0.56,0.02" style="fill:none;fill-rule:nonzero;stroke:#b3969a;stroke-width:2px;"/><path d="M65.583,51.685c0.28,0.647 0.413,1.317 0.4,2.01c-0.013,0.834 0.027,1.49 0.12,1.97c0.553,2.994 -0.16,5.697 -2.14,8.11c-0.46,0.554 -0.47,0.9 -0.03,1.04c0.193,0.06 0.433,0.03 0.72,-0.09c2.16,-0.906 4.4,-1.1 6.72,-0.58" style="fill:none;fill-rule:nonzero;stroke:#b3969a;stroke-width:2px;"/><path d="M71.373,64.145c0.593,-0.14 0.94,0.04 1.04,0.54" style="fill:none;fill-rule:nonzero;stroke:#482427;stroke-width:2px;"/><path d="M14.413,83.435c0.527,-1.12 0.57,-2.283 0.13,-3.49c-0.407,-1.1 -0.267,-2.126 0.42,-3.08c0.673,-0.933 0.477,-1.646 -0.59,-2.14" style="fill:none;fill-rule:nonzero;stroke:#b3969a;stroke-width:2px;"/><path d="M14.373,74.725c0.72,-0.68 0.387,-1.013 -1,-1" style="fill:none;fill-rule:nonzero;stroke:#482427;stroke-width:2px;"/><path d="M13.373,73.725c1.7,0.327 2.387,-0.26 2.06,-1.76c-0.19,-0.87 -0.94,-1.51 -1.84,-1.55c-2.333,-0.12 -4.337,0.137 -6.01,0.77" style="fill:none;fill-rule:nonzero;stroke:#b3969a;stroke-width:2px;"/><path d="M7.583,71.185c-0.36,-0.233 -0.763,-0.33 -1.21,-0.29" style="fill:none;fill-rule:nonzero;stroke:#482427;stroke-width:2px;"/><path d="M9.623,20.725c2.6,-0.12 5.04,-0.756 7.32,-1.91c0.293,-0.153 0.49,-0.33 0.59,-0.53c0.227,-0.44 0.007,-0.71 -0.66,-0.81" style="fill:none;fill-rule:nonzero;stroke:#b3969a;stroke-width:2px;"/><path d="M18.163,15.935c0.013,-0.76 -0.173,-1.44 -0.56,-2.04c-0.18,-0.28 -0.49,-0.43 -0.8,-0.41l-6.68,0.49" style="fill:none;fill-rule:nonzero;stroke:#b3969a;stroke-width:2px;"/><path d="M9.123,12.725l7.76,-1.03c0.34,-0.05 0.61,-0.23 0.7,-0.47c0.26,-0.74 0.19,-1.49 -0.21,-2.25" style="fill:none;fill-rule:nonzero;stroke:#b3969a;stroke-width:2px;"/><path d="M20.623,12.475c-0.12,0.147 -0.2,0.304 -0.24,0.47c-0.06,0.26 0.14,0.54 0.45,0.64c1.567,0.447 3.83,0.647 6.79,0.6c6.833,-0.106 13.667,-0.19 20.5,-0.25c1.8,-0.013 2.363,-0.683 1.69,-2.01c-0.14,-0.27 -0.41,-0.47 -0.74,-0.55c-2.193,-0.54 -4.403,-0.78 -6.63,-0.72c-4.027,0.12 -6.08,0.177 -6.16,0.17c-3.553,-0.093 -7.107,-0.07 -10.66,0.07" style="fill:none;fill-rule:nonzero;stroke:#b3969a;stroke-width:2px;"/><path d="M24.623,10.145c7.833,-0.4 15.673,-0.476 23.52,-0.23c0.64,0.02 1.117,-0.04 1.43,-0.18c0.673,-0.306 0.853,-0.84 0.54,-1.6c-0.13,-0.33 -0.46,-0.54 -0.83,-0.54l-19.16,-0.12" style="fill:none;fill-rule:nonzero;stroke:#b3969a;stroke-width:2px;"/><path d="M21.163,16.435c-0.087,0.46 -0.35,0.78 -0.79,0.96" style="fill:none;fill-rule:nonzero;stroke:#a48477;stroke-width:2px;"/><path d="M20.373,17.395c-0.9,0.28 -1.28,0.8 -1.14,1.56c0.05,0.25 0.32,0.44 0.64,0.44l5.25,0" style="fill:none;fill-rule:nonzero;stroke:#b3969a;stroke-width:2px;"/><path d="M25.123,19.395c7.733,-0.346 15.46,-0.283 23.18,0.19c0.31,0.02 0.58,-0.17 0.66,-0.45c0.28,-0.986 0.297,-1.976 0.05,-2.97c-0.07,-0.28 -0.33,-0.48 -0.63,-0.48c-6.84,-0.033 -13.677,-0.023 -20.51,0.03c-1.953,0.014 -3.883,-0.19 -5.79,-0.61c-1.867,-0.413 -2.173,0.03 -0.92,1.33" style="fill:none;fill-rule:nonzero;stroke:#b3969a;stroke-width:2px;"/><path d="M25.123,19.395l-0.04,-0.71" style="fill:none;fill-rule:nonzero;stroke:#fff;stroke-width:2px;"/><path d="M25.083,18.685c0.04,-0.153 0.137,-0.25 0.29,-0.29" style="fill:none;fill-rule:nonzero;stroke:#b3969a;stroke-width:2px;"/><path d="M25.373,18.395c4.487,0.034 4.57,-0.356 0.25,-1.17" style="fill:none;fill-rule:nonzero;stroke:#f0eedc;stroke-width:2px;"/><path d="M25.623,17.225c-0.727,-0.666 -1.477,-0.693 -2.25,-0.08" style="fill:none;fill-rule:nonzero;stroke:#b3969a;stroke-width:2px;"/><path d="M23.373,17.145c-0.84,-0.013 -1.577,-0.25 -2.21,-0.71" style="fill:none;fill-rule:nonzero;stroke:#f0eedc;stroke-width:2px;"/><path d="M23.373,17.145c-0.78,-0.146 -1.127,0.117 -1.04,0.79" style="fill:none;fill-rule:nonzero;stroke:#a48477;stroke-width:2px;"/><path d="M22.333,17.935l-1.96,-0.54" style="fill:none;fill-rule:nonzero;stroke:#f0eedc;stroke-width:2px;"/><path d="M25.623,17.225l-0.25,1.17" style="fill:none;fill-rule:nonzero;stroke:#a48477;stroke-width:2px;"/><path d="M25.083,18.685c-0.833,-0.453 -1.75,-0.703 -2.75,-0.75" style="fill:none;fill-rule:nonzero;stroke:#b3969a;stroke-width:2px;"/><path d="M54.893,15.625c-1.033,0.014 -2.057,-0.09 -3.07,-0.31c-1.42,-0.313 -1.823,0.087 -1.21,1.2c0.147,0.267 0.247,0.574 0.3,0.92c0.253,1.754 1.807,2.314 4.66,1.68c0.82,-0.18 1.47,-0.83 1.66,-1.65c0.293,-1.246 -0.487,-1.86 -2.34,-1.84" style="fill:none;fill-rule:nonzero;stroke:#b3969a;stroke-width:2px;"/><path d="M19.173,22.105c0.78,0.267 1.577,0.424 2.39,0.47c3.893,0.234 5.023,-0.356 3.39,-1.77c-0.19,-0.16 -0.52,-0.25 -0.9,-0.25l-4.62,0c-0.28,0 -0.51,0.19 -0.51,0.43c0,0.687 0.083,1.06 0.25,1.12" style="fill:none;fill-rule:nonzero;stroke:#b3969a;stroke-width:2px;"/><path d="M44.372,21.176c0.001,-0.161 -0.129,-0.301 -0.291,-0.308l-11.575,-0.344c-0.163,-0.009 -0.303,0.121 -0.309,0.291l-0.062,2.099c-0.002,0.161 0.128,0.301 0.291,0.309l11.575,0.343c0.162,0.009 0.302,-0.121 0.308,-0.291l0.063,-2.099" style="fill:none;fill-rule:nonzero;stroke:#b3969a;stroke-width:2px;"/><path d="M51.403,24.055c0.847,0.007 1.487,-0.65 1.92,-1.97c0.19,-0.6 -0.28,-1.21 -0.91,-1.18c-2.387,0.134 -3.307,0.774 -2.76,1.92c0.393,0.82 0.977,1.23 1.75,1.23" style="fill:none;fill-rule:nonzero;stroke:#b3969a;stroke-width:2px;"/><path d="M31.773,26.455c-0.73,0.12 -1.32,0.66 -1.5,1.38c-0.453,1.874 0.313,2.287 2.3,1.24c0.71,-0.37 1.59,-0.01 1.84,0.75c0.513,1.54 1.667,2.19 3.46,1.95c0.33,-0.05 0.62,-0.21 0.83,-0.45l3.49,-4.06c0.667,-0.773 0.483,-1.216 -0.55,-1.33c-2.573,-0.273 -5.863,-0.1 -9.87,0.52" style="fill:none;fill-rule:nonzero;stroke:#b3969a;stroke-width:2px;"/><path d="M43.123,28.645c-0.453,1.707 -0.12,1.817 1,0.33" style="fill:none;fill-rule:nonzero;stroke:#b3969a;stroke-width:2px;"/><path d="M44.123,28.975c1.933,0.54 3.653,1.384 5.16,2.53c0.65,0.49 1.58,0.34 2.04,-0.34c1.153,-1.713 1.047,-3.02 -0.32,-3.92c-0.26,-0.166 -0.49,-0.393 -0.69,-0.68c-0.2,-0.286 -0.447,-0.513 -0.74,-0.68c-0.18,-0.1 -0.52,-0.1 -0.91,0l-3.6,0.94c-0.33,0.09 -0.6,0.27 -0.73,0.49c-0.313,0.527 -0.717,0.97 -1.21,1.33" style="fill:none;fill-rule:nonzero;stroke:#b3969a;stroke-width:2px;"/><path d="M44.123,28.975c-0.293,-0.24 -0.627,-0.35 -1,-0.33" style="fill:none;fill-rule:nonzero;stroke:#fff;stroke-width:2px;"/><path d="M21.723,29.485c-2.32,1.82 -1.943,2.594 1.13,2.32c0.393,-0.04 1.073,-0.046 2.04,-0.02c2.193,0.06 3.71,-1.036 4.55,-3.29c0.74,-1.993 0.073,-2.75 -2,-2.27c-2.793,0.654 -5.657,0.68 -8.59,0.08c-1.647,-0.333 -2.417,0.127 -2.31,1.38c0.02,0.26 0.29,0.43 0.56,0.36c1.707,-0.44 3.247,-0.163 4.62,0.83c0.2,0.14 0.2,0.45 0,0.61" style="fill:none;fill-rule:nonzero;stroke:#b3969a;stroke-width:2px;"/><path d="M12.633,30.545c0.387,-0.786 0.95,-1.42 1.69,-1.9c0.78,-0.5 0.973,-1.016 0.58,-1.55c-0.17,-0.23 -0.49,-0.34 -0.84,-0.3c-3.013,0.367 -4.93,1.98 -5.75,4.84c-0.107,0.374 0.013,0.514 0.36,0.42l3.3,-0.87c0.25,-0.07 0.5,-0.31 0.66,-0.64" style="fill:none;fill-rule:nonzero;stroke:#b3969a;stroke-width:2px;"/><path d="M57.083,35.935c-1.88,0.714 -1.963,1.797 -0.25,3.25" style="fill:none;fill-rule:nonzero;stroke:#7a5256;stroke-width:2px;"/><path d="M56.833,39.185c0.62,0.38 1.263,0.404 1.93,0.07c0.3,-0.153 0.607,-0.25 0.92,-0.29c0.967,-0.14 1.477,-0.663 1.53,-1.57c0.053,-1.02 0.107,-1.65 0.16,-1.89c0.347,-1.566 0.277,-3.05 -0.21,-4.45c-0.56,-1.62 -1.26,-1.683 -2.1,-0.19c-0.9,1.594 -1.56,3.284 -1.98,5.07" style="fill:none;fill-rule:nonzero;stroke:#b3969a;stroke-width:2px;"/><path d="M56.833,39.185c0.52,-1.06 0.603,-2.143 0.25,-3.25" style="fill:none;fill-rule:nonzero;stroke:#c6bbbb;stroke-width:2px;"/><path d="M43.333,37.935l-1.42,-0.25" style="fill:none;fill-rule:nonzero;stroke:#8c5b62;stroke-width:2px;"/><path d="M41.913,37.685c-0.287,-1.64 -0.957,-3.076 -2.01,-4.31c-0.21,-0.25 -0.53,-0.38 -0.85,-0.35c-2.853,0.214 -5.02,1.584 -6.5,4.11c-0.39,0.67 -0.96,1.21 -1.65,1.57c-1.06,0.547 -1.023,1.25 0.11,2.11c0.76,0.58 1.503,1.18 2.23,1.8c0.21,0.17 0.52,0.15 0.71,-0.05c1.12,-1.206 1.767,-1.106 1.94,0.3c0.04,0.34 0.25,0.6 0.52,0.67c0.987,0.247 1.64,-0.203 1.96,-1.35c0.333,-1.193 1.333,-1.706 3,-1.54" style="fill:none;fill-rule:nonzero;stroke:#b3969a;stroke-width:2px;"/><path d="M41.373,40.645c0.587,-0.013 0.99,0.25 1.21,0.79" style="fill:none;fill-rule:nonzero;stroke:#8c5b62;stroke-width:2px;"/><path d="M42.583,41.435l3.58,-1.03c0.34,-0.1 0.67,-0.02 0.76,0.19l0.95,2.13" style="fill:none;fill-rule:nonzero;stroke:#b3969a;stroke-width:2px;"/><path d="M47.873,42.725l0.04,1.71" style="fill:none;fill-rule:nonzero;stroke:#7a5256;stroke-width:2px;"/><path d="M47.913,44.435c-0.493,1.094 -1.32,1.694 -2.48,1.8c-0.27,0.03 -0.54,0.19 -0.75,0.45l-1.94,2.41c-0.24,0.3 -0.37,0.6 -0.35,0.83c0.113,1.54 0.84,1.78 2.18,0.72c0.36,-0.29 0.86,-0.36 1.28,-0.16c1.7,0.787 2.57,1.837 2.61,3.15c0.01,0.35 0.15,0.65 0.38,0.79c0.62,0.38 1.257,0.42 1.91,0.12c0.54,-0.26 0.997,-0.776 1.37,-1.55c1.773,-3.733 0.773,-6.766 -3,-9.1" style="fill:none;fill-rule:nonzero;stroke:#b3969a;stroke-width:2px;"/><path d="M49.123,43.895c0.513,-0.566 1.18,-0.873 2,-0.92" style="fill:none;fill-rule:nonzero;stroke:#7a5256;stroke-width:2px;"/><path d="M51.123,42.975l2.3,-6.31c0.467,-1.273 0.15,-2.253 -0.95,-2.94c-4.487,-2.793 -7.533,-1.39 -9.14,4.21" style="fill:none;fill-rule:nonzero;stroke:#b3969a;stroke-width:2px;"/><path d="M51.123,42.975l-3.25,-0.25" style="fill:none;fill-rule:nonzero;stroke:#c6bbbb;stroke-width:2px;"/><path d="M42.583,41.435l0.75,-3.5" style="fill:none;fill-rule:nonzero;stroke:#d8c4c7;stroke-width:2px;"/><path d="M49.123,43.895c-0.593,-0.093 -0.997,0.087 -1.21,0.54" style="fill:none;fill-rule:nonzero;stroke:#c6bbbb;stroke-width:2px;"/><path d="M41.913,37.685l-0.54,2.96" style="fill:none;fill-rule:nonzero;stroke:#d8c4c7;stroke-width:2px;"/><path d="M7.623,43.475c1.18,1.047 1.173,1.977 -0.02,2.79c-0.07,0.05 -0.08,0.15 -0.03,0.25l0.09,0.17" style="fill:none;fill-rule:nonzero;stroke:#7a5256;stroke-width:2px;"/><path d="M7.663,46.685c-0.58,0.387 -0.793,0.83 -0.64,1.33c0.133,0.454 0.203,0.7 0.21,0.74c0.227,1.874 0.233,3.747 0.02,5.62c-0.04,0.35 0.11,0.66 0.36,0.76c0.307,0.127 0.643,0.13 1.01,0.01" style="fill:none;fill-rule:nonzero;stroke:#b3969a;stroke-width:2px;"/><path d="M8.623,55.145c0.973,0.367 1.557,0.144 1.75,-0.67" style="fill:none;fill-rule:nonzero;stroke:#8c5b62;stroke-width:2px;"/><path d="M10.373,54.475l3.07,-1.56c0.28,-0.14 0.49,-0.39 0.58,-0.7c0.547,-1.953 0.33,-3.81 -0.65,-5.57" style="fill:none;fill-rule:nonzero;stroke:#b3969a;stroke-width:2px;"/><path d="M13.373,46.645l-1.29,-3.21" style="fill:none;fill-rule:nonzero;stroke:#7a5256;stroke-width:2px;"/><path d="M12.083,43.435l-0.32,-1.61c-0.05,-0.26 0.07,-0.51 0.28,-0.57c1.353,-0.413 2.053,-1.356 2.1,-2.83c0.033,-1.02 0.143,-2.026 0.33,-3.02c0.227,-1.22 -0.05,-1.566 -0.83,-1.04c-0.193,0.134 -0.38,0.337 -0.56,0.61c-1.16,1.74 -1.48,1.477 -0.96,-0.79c0.147,-0.64 -0.113,-1.093 -0.78,-1.36c-0.25,-0.1 -0.57,-0.02 -0.82,0.21c-0.62,0.567 -1.363,0.93 -2.23,1.09c-0.59,0.11 -0.97,0.7 -0.82,1.28c0.293,1.12 0.223,2.27 -0.21,3.45c-0.6,1.627 -0.48,3.167 0.36,4.62" style="fill:none;fill-rule:nonzero;stroke:#b3969a;stroke-width:2px;"/><path d="M12.083,43.435l-4.46,0.04" style="fill:none;fill-rule:nonzero;stroke:#c6bbbb;stroke-width:2px;"/><path d="M13.373,46.645c-0.5,0.067 -0.95,-0.053 -1.35,-0.36c-1.507,-1.153 -2.96,-1.02 -4.36,0.4" style="fill:none;fill-rule:nonzero;stroke:#c6bbbb;stroke-width:2px;"/><path d="M10.373,54.475c-0.667,-0.173 -1.25,0.05 -1.75,0.67" style="fill:none;fill-rule:nonzero;stroke:#d8c4c7;stroke-width:2px;"/><path d="M21.413,43.685l0.96,1.71" style="fill:none;fill-rule:nonzero;stroke:#7a5256;stroke-width:2px;"/><path d="M22.373,45.395l-5.56,1.98c-2.387,0.847 -2.617,1.867 -0.69,3.06c0.693,0.434 1.193,1.03 1.5,1.79" style="fill:none;fill-rule:nonzero;stroke:#b3969a;stroke-width:2px;"/><path d="M17.623,52.225c0.693,1.46 1.86,2.1 3.5,1.92" style="fill:none;fill-rule:nonzero;stroke:#7a5256;stroke-width:2px;"/><path d="M21.123,54.145c0.567,0.614 1.237,1.014 2.01,1.2c0.26,0.06 0.57,-0.05 0.81,-0.3l4.47,-4.61" style="fill:none;fill-rule:nonzero;stroke:#b3969a;stroke-width:2px;"/><path d="M28.413,50.435c0.853,-1.2 0.59,-1.853 -0.79,-1.96" style="fill:none;fill-rule:nonzero;stroke:#8c5b62;stroke-width:2px;"/><path d="M27.623,48.475l-1.79,-2.79" style="fill:none;fill-rule:nonzero;stroke:#b3969a;stroke-width:2px;"/><path d="M25.833,45.685l-0.07,-2.94c-0.01,-0.37 0.09,-0.68 0.28,-0.85c0.647,-0.573 1.423,-0.963 2.33,-1.17" style="fill:none;fill-rule:nonzero;stroke:#7a5256;stroke-width:2px;"/><path d="M28.373,40.725c1.513,-1.733 1.43,-3.106 -0.25,-4.12c-0.26,-0.15 -0.41,-0.44 -0.38,-0.74c0.327,-3.166 -0.637,-4.123 -2.89,-2.87c-1.04,0.58 -2.133,1.027 -3.28,1.34c-4.347,1.187 -6.337,3.2 -5.97,6.04c0.03,0.27 0.28,0.48 0.58,0.47l3.88,-0.1c0.33,-0.01 0.64,0.12 0.84,0.36c0.573,0.7 0.743,1.56 0.51,2.58" style="fill:none;fill-rule:nonzero;stroke:#b3969a;stroke-width:2px;"/><path d="M28.373,40.725c-1.007,-0.126 -2.037,0.194 -3.09,0.96c-0.3,0.21 -0.36,0.63 -0.14,0.92c0.573,0.734 0.403,1.054 -0.51,0.96c-1.087,-0.113 -2.16,-0.073 -3.22,0.12" style="fill:none;fill-rule:nonzero;stroke:#c6bbbb;stroke-width:2px;"/><path d="M25.833,45.685l-3.46,-0.29" style="fill:none;fill-rule:nonzero;stroke:#c6bbbb;stroke-width:2px;"/><path d="M27.623,48.475l0.79,1.96" style="fill:none;fill-rule:nonzero;stroke:#d8c4c7;stroke-width:2px;"/><path d="M21.123,54.145c-0.953,-1.066 -2.12,-1.706 -3.5,-1.92" style="fill:none;fill-rule:nonzero;stroke:#c6bbbb;stroke-width:2px;"/><path d="M34.833,45.435c-2.62,-0.76 -3.177,-0.176 -1.67,1.75" style="fill:none;fill-rule:nonzero;stroke:#a48477;stroke-width:2px;"/><path d="M33.163,47.185c-0.28,0.554 -0.647,0.657 -1.1,0.31c-1.187,-0.126 -1.787,0.3 -1.8,1.28c-0.007,0.5 -0.007,1.107 0,1.82c0.013,1.247 0.917,1.667 2.71,1.26c0.63,-0.14 1.24,0.29 1.32,0.92c0.287,2.254 0.947,2.924 1.98,2.01c0.25,-0.22 0.54,-0.36 0.85,-0.42c2.587,-0.506 4.033,-2.746 4.34,-6.72c0.127,-1.6 -0.6,-2.53 -2.18,-2.79c-0.953,-0.153 -2.437,0.04 -4.45,0.58" style="fill:none;fill-rule:nonzero;stroke:#b3969a;stroke-width:2px;"/><path d="M33.163,47.185c0.7,-0.46 1.257,-1.043 1.67,-1.75" style="fill:none;fill-rule:nonzero;stroke:#f0eedc;stroke-width:2px;"/><path d="M59.123,60.225l-2.5,-1" style="fill:none;fill-rule:nonzero;stroke:#8c5b62;stroke-width:2px;"/><path d="M56.623,59.225c-1.327,-0.96 -1.91,-0.64 -1.75,0.96c0.093,0.92 -0.3,2.13 -1.18,3.63c-0.16,0.28 -0.18,0.6 -0.05,0.88c1.687,3.54 2.867,5.6 3.54,6.18c1.133,0.96 2.19,1.074 3.17,0.34c0.327,-0.246 0.713,-0.846 1.16,-1.8c0.307,-0.646 0.713,-1.263 1.22,-1.85c0.42,-0.49 0.42,-1.19 -0.01,-1.56l-3.6,-3.11" style="fill:none;fill-rule:nonzero;stroke:#b3969a;stroke-width:2px;"/><path d="M59.123,62.895c0.08,-0.533 0.33,-0.866 0.75,-1" style="fill:none;fill-rule:nonzero;stroke:#8c5b62;stroke-width:2px;"/><path d="M59.873,61.895c0.513,-0.3 1.203,-0.156 2.07,0.43c0.5,0.33 1.18,0.21 1.53,-0.28c1.5,-2.086 1.773,-4.12 0.82,-6.1c-0.11,-0.25 -0.43,-0.33 -0.65,-0.17c-1.18,0.847 -2.037,1.957 -2.57,3.33c-0.193,0.507 -0.41,0.83 -0.65,0.97c-0.367,0.214 -0.8,0.264 -1.3,0.15" style="fill:none;fill-rule:nonzero;stroke:#b3969a;stroke-width:2px;"/><path d="M59.873,61.895c-1.213,-0.286 -1.463,-0.843 -0.75,-1.67" style="fill:none;fill-rule:nonzero;stroke:#d8c4c7;stroke-width:2px;"/><path d="M56.623,59.225l2.5,3.67" style="fill:none;fill-rule:nonzero;stroke:#d8c4c7;stroke-width:2px;"/><path d="M31.123,62.145l1.21,0.79" style="fill:none;fill-rule:nonzero;stroke:#a48477;stroke-width:2px;"/><path d="M32.333,62.935c0.533,0.414 1.13,0.567 1.79,0.46" style="fill:none;fill-rule:nonzero;stroke:#b3969a;stroke-width:2px;"/><path d="M34.123,63.395c0.54,0.32 1.123,0.514 1.75,0.58" style="fill:none;fill-rule:nonzero;stroke:#a48477;stroke-width:2px;"/><path d="M35.873,63.975c1.367,0.514 2.533,0.264 3.5,-0.75" style="fill:none;fill-rule:nonzero;stroke:#b3969a;stroke-width:2px;"/><path d="M39.373,63.225c0.487,0.074 0.917,-0.023 1.29,-0.29" style="fill:none;fill-rule:nonzero;stroke:#7a5256;stroke-width:2px;"/><path d="M40.663,62.935c1.793,0.047 2.26,-0.6 1.4,-1.94c-1.013,-1.553 -1.69,-2.65 -2.03,-3.29c-0.18,-0.34 -0.44,-0.58 -0.69,-0.66l-3.16,-0.96c-0.24,-0.07 -0.48,0.13 -0.48,0.41c-0.027,2 -1.057,2.844 -3.09,2.53c-0.33,-0.05 -0.64,0.04 -0.85,0.25c-0.7,0.707 -1.163,1.427 -1.39,2.16c-0.207,0.687 0.043,0.924 0.75,0.71" style="fill:none;fill-rule:nonzero;stroke:#b3969a;stroke-width:2px;"/><path d="M40.663,62.935c-1.047,-1.786 -1.477,-1.69 -1.29,0.29" style="fill:none;fill-rule:nonzero;stroke:#c6bbbb;stroke-width:2px;"/><path d="M35.873,63.975c0.66,-1.313 0.323,-2.13 -1.01,-2.45c-0.29,-0.07 -0.59,0.1 -0.67,0.38c-0.147,0.474 -0.17,0.97 -0.07,1.49" style="fill:none;fill-rule:nonzero;stroke:#f0eedc;stroke-width:2px;"/><path d="M32.333,62.935c0.64,-2.486 0.237,-2.75 -1.21,-0.79" style="fill:none;fill-rule:nonzero;stroke:#f0eedc;stroke-width:2px;"/><path d="M47.083,56.185l-2.75,2.5" style="fill:none;fill-rule:nonzero;stroke:#7a5256;stroke-width:2px;"/><path d="M44.333,58.685c-1.867,-0.14 -2.01,0.707 -0.43,2.54c0.54,0.63 0.7,1.51 0.42,2.29c-0.267,0.72 0.18,0.844 1.34,0.37c0.27,-0.11 0.59,-0.12 0.93,-0.03c0.767,0.194 1.367,-0.046 1.8,-0.72c0.13,-0.22 0.41,-0.28 0.63,-0.15c0.34,0.207 0.69,0.294 1.05,0.26c0.24,-0.03 0.51,-0.24 0.73,-0.57l1.44,-2.16c0.21,-0.31 0.32,-0.63 0.31,-0.9c-0.153,-3.333 -1.977,-4.476 -5.47,-3.43" style="fill:none;fill-rule:nonzero;stroke:#b3969a;stroke-width:2px;"/><path d="M44.333,58.685c1.1,0.807 2.217,0.744 3.35,-0.19c0.92,-0.753 0.88,-1.253 -0.12,-1.5c-0.413,-0.1 -0.573,-0.37 -0.48,-0.81" style="fill:none;fill-rule:nonzero;stroke:#c6bbbb;stroke-width:2px;"/><path d="M25.623,56.895l-3.01,0.29c-0.36,0.04 -0.66,0.14 -0.9,0.3c-1.467,0.98 -3.083,1.214 -4.85,0.7c-0.6,-0.18 -1.21,0.25 -1.25,0.88l-0.21,3.88c-0.02,0.37 0.08,0.69 0.28,0.89c0.38,0.387 0.81,0.437 1.29,0.15c0.32,-0.19 0.64,-0.28 0.9,-0.25c0.96,0.094 1.917,0.204 2.87,0.33c0.107,0.014 0.69,0.02 1.75,0.02c0.833,0 1.543,0.297 2.13,0.89" style="fill:none;fill-rule:nonzero;stroke:#b3969a;stroke-width:2px;"/><path d="M24.623,64.975c0.453,0.28 0.89,0.344 1.31,0.19c0.22,-0.07 0.33,-0.37 0.26,-0.69c-0.12,-0.493 0.037,-0.923 0.47,-1.29" style="fill:none;fill-rule:nonzero;stroke:#7a5256;stroke-width:2px;"/><path d="M26.663,63.185c0.467,0.014 0.91,-0.06 1.33,-0.22c0.29,-0.12 0.51,-0.38 0.59,-0.7c0.327,-1.293 0.007,-2.416 -0.96,-3.37" style="fill:none;fill-rule:nonzero;stroke:#b3969a;stroke-width:2px;"/><path d="M27.623,58.895c-0.133,-1.333 -0.8,-2 -2,-2" style="fill:none;fill-rule:nonzero;stroke:#8c5b62;stroke-width:2px;"/><path d="M27.623,58.895c-0.953,-0.346 -1.62,-1.013 -2,-2" style="fill:none;fill-rule:nonzero;stroke:#d8c4c7;stroke-width:2px;"/><path d="M26.663,63.185c-1.047,-0.686 -1.393,-0.353 -1.04,1c0.193,0.734 -0.14,0.997 -1,0.79" style="fill:none;fill-rule:nonzero;stroke:#c6bbbb;stroke-width:2px;"/><path d="M7.873,59.225c0.28,1.034 0.42,2.084 0.42,3.15c0.007,0.934 0.45,1.05 1.33,0.35" style="fill:none;fill-rule:nonzero;stroke:#a48477;stroke-width:2px;"/><path d="M9.623,62.725c0.633,0.22 1.273,0.36 1.92,0.42c0.14,0.014 0.673,0.114 1.6,0.3c0.847,0.167 1.217,-0.26 1.11,-1.28c-0.033,-0.346 -0.033,-0.836 0,-1.47c0.04,-0.786 -0.317,-1.223 -1.07,-1.31c-0.3,-0.04 -0.56,-0.22 -0.67,-0.48c-0.8,-1.946 -2.27,-2.453 -4.41,-1.52c-0.913,0.4 -0.99,1.014 -0.23,1.84" style="fill:none;fill-rule:nonzero;stroke:#b3969a;stroke-width:2px;"/><path d="M9.623,62.725c-0.953,-0.213 -1.283,-0.81 -0.99,-1.79c0.287,-0.96 0.033,-1.53 -0.76,-1.71" style="fill:none;fill-rule:nonzero;stroke:#f0eedc;stroke-width:2px;"/><path d="M62.373,70.965c3.713,0.634 6.5,-0.563 8.36,-3.59c0.813,-1.333 0.297,-1.713 -1.55,-1.14c-0.853,0.267 -1.727,0.39 -2.62,0.37c-2.48,-0.06 -3.933,1.317 -4.36,4.13c-0.02,0.11 0.06,0.21 0.17,0.23" style="fill:none;fill-rule:nonzero;stroke:#b3969a;stroke-width:2px;"/><path d="M44.523,66.585c-0.733,-0.466 -1.367,-0.6 -1.9,-0.4c-2.333,0.874 -4.75,1.22 -7.25,1.04c-0.31,-0.02 -0.59,0.16 -0.67,0.43c-0.22,0.76 -0.203,1.51 0.05,2.25c0.09,0.28 0.37,0.46 0.69,0.44c3.427,-0.193 6.99,0.034 10.69,0.68c0.94,0.16 1.82,-0.49 1.94,-1.43c0.287,-2.273 -0.597,-3.216 -2.65,-2.83c-0.31,0.06 -0.63,-0.01 -0.9,-0.18" style="fill:none;fill-rule:nonzero;stroke:#b3969a;stroke-width:2px;"/><path d="M16.713,69.705c-0.36,0.78 -0.117,1.107 0.73,0.98c2.147,-0.313 4.71,-0.246 7.69,0.2c2.167,0.32 3.447,-0.803 3.84,-3.37c0.08,-0.46 -0.35,-0.85 -0.8,-0.73c-2.813,0.754 -5.423,0.757 -7.83,0.01c-1.333,-0.413 -2.543,0.557 -3.63,2.91" style="fill:none;fill-rule:nonzero;stroke:#b3969a;stroke-width:2px;"/><path d="M10.183,67.855c-0.36,1.527 0.197,2.014 1.67,1.46c0.3,-0.11 0.54,-0.36 0.64,-0.66c0.5,-1.426 -0.07,-1.906 -1.71,-1.44c-0.3,0.09 -0.53,0.34 -0.6,0.64" style="fill:none;fill-rule:nonzero;stroke:#7a5256;stroke-width:2px;"/><path d="M49.913,73.685c-0.1,0.5 -0.447,0.68 -1.04,0.54" style="fill:none;fill-rule:nonzero;stroke:#7a5256;stroke-width:2px;"/><path d="M48.873,74.225c-0.893,-0.646 -1.893,-0.923 -3,-0.83" style="fill:none;fill-rule:nonzero;stroke:#a48477;stroke-width:2px;"/><path d="M45.873,73.395c0.153,-0.913 -0.097,-1.4 -0.75,-1.46c-8.007,-0.72 -17.197,-0.67 -27.57,0.15c-0.33,0.02 -0.6,0.23 -0.67,0.5c-0.113,0.514 0.05,0.977 0.49,1.39" style="fill:none;fill-rule:nonzero;stroke:#b3969a;stroke-width:2px;"/><path d="M17.373,73.975c0.167,1.78 1.167,2.28 3,1.5" style="fill:none;fill-rule:nonzero;stroke:#8c5b62;stroke-width:2px;"/><path d="M20.373,75.475l8.25,0.17" style="fill:none;fill-rule:nonzero;stroke:#a48477;stroke-width:2px;"/><path d="M28.623,75.645c0.707,-0.18 1.207,-0.013 1.5,0.5" style="fill:none;fill-rule:nonzero;stroke:#8c5b62;stroke-width:2px;"/><path d="M30.123,76.145c-3.54,-0.02 -6.863,0.29 -9.97,0.93c-1.493,0.307 -1.51,0.674 -0.05,1.1c2.993,0.887 6.033,1.27 9.12,1.15c2.487,-0.1 3.757,-0.15 3.81,-0.15c5.347,-0.013 10.69,0.047 16.03,0.18c0.3,0.01 0.57,-0.18 0.65,-0.46c0.653,-2.293 -0.293,-3.196 -2.84,-2.71c-2.02,0.387 -3.7,0.304 -5.04,-0.25" style="fill:none;fill-rule:nonzero;stroke:#b3969a;stroke-width:2px;"/><path d="M41.833,75.935c2.367,-0.66 4.797,-0.923 7.29,-0.79" style="fill:none;fill-rule:nonzero;stroke:#a48477;stroke-width:2px;"/><path d="M49.123,75.145c0.493,0.167 0.923,0.097 1.29,-0.21" style="fill:none;fill-rule:nonzero;stroke:#7a5256;stroke-width:2px;"/><path d="M50.413,74.935l4.32,-3.18c0.25,-0.18 0.34,-0.52 0.2,-0.78c-0.587,-1.12 -1.627,-1.236 -3.12,-0.35c-1.427,0.847 -2.06,1.867 -1.9,3.06" style="fill:none;fill-rule:nonzero;stroke:#b3969a;stroke-width:2px;"/><path d="M50.413,74.935c0.1,-0.593 -0.067,-1.01 -0.5,-1.25" style="fill:none;fill-rule:nonzero;stroke:#c6bbbb;stroke-width:2px;"/><path d="M48.873,74.225c0.22,0.274 0.303,0.58 0.25,0.92" style="fill:none;fill-rule:nonzero;stroke:#b7aa97;stroke-width:2px;"/><path d="M41.833,75.935l-0.21,-0.04" style="fill:none;fill-rule:nonzero;stroke:#f0eedc;stroke-width:2px;"/><path d="M41.413,73.935c-1.207,0.7 -2.477,0.84 -3.81,0.42c-0.367,-0.113 -0.693,-0.14 -0.98,-0.08c-1.267,0.267 -1.343,0.6 -0.23,1c0.27,0.1 0.61,0.11 0.95,0.03c1.52,-0.36 2.947,-0.163 4.28,0.59" style="fill:none;fill-rule:nonzero;stroke:#c8b3a4;stroke-width:2px;"/><path d="M41.623,75.895c-3.827,0.46 -7.66,0.544 -11.5,0.25" style="fill:none;fill-rule:nonzero;stroke:#d8c4c7;stroke-width:2px;"/><path d="M28.623,75.645c1.387,0.18 2.123,-0.123 2.21,-0.91c0.03,-0.26 -0.22,-0.48 -0.53,-0.47l-9.39,0.23c-0.36,0.01 -0.66,0.18 -0.71,0.42c-0.047,0.2 0.01,0.387 0.17,0.56" style="fill:none;fill-rule:nonzero;stroke:#c8b3a4;stroke-width:2px;"/><path d="M45.873,73.395l-4.46,0.54" style="fill:none;fill-rule:nonzero;stroke:#f0eedc;stroke-width:2px;"/><path d="M41.413,73.935c-1.453,-0.633 -2.913,-0.713 -4.38,-0.24c-0.28,0.094 -0.6,0.13 -0.96,0.11l-5.48,-0.37c-0.927,-0.06 -2.347,-0.04 -4.26,0.06l-8.96,0.48" style="fill:none;fill-rule:nonzero;stroke:#d8c4c7;stroke-width:2px;"/><path d="M65.433,72.125c-1.84,-0.966 -3.09,-1.26 -3.75,-0.88c-1.527,0.894 -1.63,1.707 -0.31,2.44c1.26,0.707 2.613,0.56 4.06,-0.44c0.62,-0.426 0.62,-0.8 0,-1.12" style="fill:none;fill-rule:nonzero;stroke:#b3969a;stroke-width:2px;"/><path d="M57.739,74.077c-0.156,-0.662 -1.646,-0.872 -3.319,-0.479c-1.677,0.397 -2.907,1.257 -2.753,1.915c0.156,0.662 1.646,0.872 3.319,0.479c1.677,-0.397 2.907,-1.257 2.753,-1.915" style="fill:none;fill-rule:nonzero;stroke:#b3969a;stroke-width:2px;"/><path d="M45.373,80.895c3.273,-0.093 3.273,-0.233 0,-0.42" style="fill:none;fill-rule:nonzero;stroke:#8c5b62;stroke-width:2px;"/><path d="M45.373,80.475c-2.727,-0.433 -5.457,-0.583 -8.19,-0.45c-4.387,0.22 -7.1,0.307 -8.14,0.26c-3.813,-0.16 -7.627,-0.37 -11.44,-0.63c-1.127,-0.08 -1.47,0.217 -1.03,0.89c0.16,0.24 0.46,0.4 0.8,0.42c7.133,0.46 14.267,0.574 21.4,0.34c0.073,-0.006 1.09,0.047 3.05,0.16c1.207,0.067 2.39,-0.123 3.55,-0.57" style="fill:none;fill-rule:nonzero;stroke:#b3969a;stroke-width:2px;"/><path d="M45.373,80.475l0,0.42" style="fill:none;fill-rule:nonzero;stroke:#d8c4c7;stroke-width:2px;"/><path d="M63.163,21.435c2.007,2.86 3.223,6.03 3.65,9.51c0.347,2.84 -0.217,5.49 -1.69,7.95" style="fill:none;fill-rule:nonzero;stroke:#948e8c;stroke-width:2px;"/><path d="M65.123,38.895c-1.153,1.054 -1.287,2.13 -0.4,3.23c0.19,0.24 0.3,0.55 0.31,0.88c0.027,0.954 0.557,1.417 1.59,1.39" style="fill:none;fill-rule:nonzero;stroke:#d8c4c7;stroke-width:2px;"/><path d="M66.623,44.395c0.493,0.38 0.61,0.837 0.35,1.37c-0.707,1.454 -1.74,2.607 -3.1,3.46" style="fill:none;fill-rule:nonzero;stroke:#948e8c;stroke-width:2px;"/><path d="M62.333,45.935c0.773,-1.833 0.773,-3.666 0,-5.5" style="fill:none;fill-rule:nonzero;stroke:#c6bbbb;stroke-width:2px;"/><path d="M72.373,22.145c-1.047,0.254 -2.11,0.37 -3.19,0.35c-0.107,0 -0.807,0.024 -2.1,0.07c-1.347,0.054 -2.487,-0.406 -3.42,-1.38" style="fill:none;fill-rule:nonzero;stroke:#948e8c;stroke-width:2px;"/><path d="M71.373,64.145c1.34,-1.56 1.993,-3.38 1.96,-5.46" style="fill:none;fill-rule:nonzero;stroke:#948e8c;stroke-width:2px;"/><path d="M73.333,58.685l0.04,-0.21" style="fill:none;fill-rule:nonzero;stroke:#482427;stroke-width:2px;"/><path d="M73.373,58.475c1.687,-2.44 2.3,-5.123 1.84,-8.05c-0.05,-0.28 -0.3,-0.49 -0.59,-0.49l-7.75,0c-0.833,0 -1.43,0.25 -1.79,0.75" style="fill:none;fill-rule:nonzero;stroke:#948e8c;stroke-width:2px;"/><path d="M65.083,50.685l-1.21,-0.29" style="fill:none;fill-rule:nonzero;stroke:#948e8c;stroke-width:2px;"/><path d="M66.623,44.395c0.46,-1.22 0.377,-2.363 -0.25,-3.43c-0.3,-0.52 -0.147,-0.78 0.46,-0.78" style="fill:none;fill-rule:nonzero;stroke:#6c5354;stroke-width:2px;"/><path d="M66.833,40.185c1.807,2.487 1.91,5.017 0.31,7.59c-0.193,0.314 -0.117,0.46 0.23,0.44l7.96,-0.52c0.78,-0.05 1.46,-0.64 1.71,-1.47c0.66,-2.246 0.54,-4.22 -0.36,-5.92c-0.15,-0.28 -0.44,-0.45 -0.76,-0.46l-8.8,-0.2" style="fill:none;fill-rule:nonzero;stroke:#948e8c;stroke-width:2px;"/><path d="M67.123,39.645l-2,-0.75" style="fill:none;fill-rule:nonzero;stroke:#6c5354;stroke-width:2px;"/><path d="M68.783,30.005c0.273,-0.24 0.553,-0.346 0.84,-0.32c1.78,0.174 3.517,0.03 5.21,-0.43c0.31,-0.08 0.53,-0.33 0.57,-0.63c0.153,-1.28 -0.247,-2.55 -1.2,-3.81c-0.48,-0.64 -1.18,-1.02 -1.86,-1.01l-5.73,0.05c-0.25,0 -0.41,0.28 -0.32,0.55c1.047,2.907 1.513,5.89 1.4,8.95c-0.013,0.347 -0.157,1.047 -0.43,2.1c-0.18,0.707 -0.23,1.434 -0.15,2.18c0.03,0.28 0.28,0.49 0.57,0.48l7.79,-0.18c0.29,-0.01 0.54,-0.24 0.57,-0.53c0.253,-2.32 0.01,-4.433 -0.73,-6.34c-0.1,-0.26 -0.37,-0.44 -0.7,-0.45l-5.68,-0.17c-0.427,-0.013 -0.477,-0.16 -0.15,-0.44" style="fill:none;fill-rule:nonzero;stroke:#948e8c;stroke-width:2px;"/><path d="M67.123,39.645c-0.227,0.114 -0.323,0.294 -0.29,0.54" style="fill:none;fill-rule:nonzero;stroke:#d8c4c7;stroke-width:2px;"/><path d="M61.413,45.935l-0.29,-5.21" style="fill:none;fill-rule:nonzero;stroke:#c6bbbb;stroke-width:2px;"/><path d="M60.833,47.185c-1.053,0.56 -2.207,0.574 -3.46,0.04" style="fill:none;fill-rule:nonzero;stroke:#c6bbbb;stroke-width:2px;"/><path d="M73.373,58.475c-1.98,-1.146 -3.973,-1.33 -5.98,-0.55c-0.327,0.134 -0.313,0.244 0.04,0.33c1.94,0.474 3.907,0.617 5.9,0.43" style="fill:none;fill-rule:nonzero;stroke:#b3969a;stroke-width:2px;"/><path d="M65.583,51.685c-0.007,-0.4 -0.173,-0.733 -0.5,-1" style="fill:none;fill-rule:nonzero;stroke:#fff;stroke-width:2px;"/><path d="M62.873,53.145c-0.653,-0.566 -0.917,-1.303 -0.79,-2.21" style="fill:none;fill-rule:nonzero;stroke:#c6bbbb;stroke-width:2px;"/><path d="M61.163,53.685c0.207,-0.846 0.193,-1.666 -0.04,-2.46" style="fill:none;fill-rule:nonzero;stroke:#c6bbbb;stroke-width:2px;"/><path d="M13.373,73.725c-2.067,-0.08 -3.317,-0.093 -3.75,-0.04c-2.113,0.254 -2.793,-0.58 -2.04,-2.5" style="fill:none;fill-rule:nonzero;stroke:#948e8c;stroke-width:2px;"/><path d="M14.373,74.725l-5,0" style="fill:none;fill-rule:nonzero;stroke:#948e8c;stroke-width:2px;"/><path d="M9.373,74.725c-1.86,0.374 -2.8,1.487 -2.82,3.34c-0.007,0.32 0.073,0.59 0.24,0.81c0.327,0.44 0.657,0.457 0.99,0.05c0.027,-0.033 0.12,-0.34 0.28,-0.92c0.093,-0.353 0.433,-0.46 1.02,-0.32" style="fill:none;fill-rule:nonzero;stroke:#5b4a48;stroke-width:2px;"/><path d="M9.083,77.685l0.04,0.35c0.02,0.18 0.21,0.3 0.41,0.26c0.887,-0.16 1.773,-0.146 2.66,0.04c0.313,0.06 0.57,0.19 0.77,0.39c0.593,0.587 0.23,0.87 -1.09,0.85c-1.407,-0.026 -2.683,0.33 -3.83,1.07c-0.26,0.16 -0.35,0.48 -0.22,0.74c0.767,1.507 2.04,1.96 3.82,1.36c0.48,-0.16 0.903,-0.096 1.27,0.19" style="fill:none;fill-rule:nonzero;stroke:#948e8c;stroke-width:2px;"/><path d="M9.373,74.725l-0.29,2.96" style="fill:none;fill-rule:nonzero;stroke:#c6bbbb;stroke-width:2px;"/><path d="M29.373,6.395c1.067,-0.066 1.317,0.294 0.75,1.08l-7.16,0.01c-0.18,0 -0.33,0.14 -0.35,0.33c-0.16,1.947 0.51,2.724 2.01,2.33c1.08,-0.193 1.413,0.057 1,0.75l-5,1.58c-0.58,-0.173 -0.917,-0.1 -1.01,0.22c-0.09,0.34 -0.28,0.58 -0.47,0.61c-1.073,0.18 -1.39,-0.52 -0.95,-2.1c0.3,-1.093 0.027,-1.836 -0.82,-2.23c-2.48,-0.84 -4.88,-0.81 -7.2,0.09c-0.813,0.314 -1.36,0.744 -1.64,1.29c-0.407,0.814 -0.21,1.604 0.59,2.37c-1.06,1.02 -0.727,1.437 1,1.25c-1.687,0.06 -2.253,0.814 -1.7,2.26c0.1,0.26 0.39,0.42 0.7,0.37c2.533,-0.373 5.073,-0.443 7.62,-0.21c0.28,0.027 0.527,-0.003 0.74,-0.09c0.233,-0.1 0.46,-0.223 0.68,-0.37c0.287,1.167 -0.143,1.68 -1.29,1.54c-2.54,-0.273 -5.067,-0.173 -7.58,0.3c-0.32,0.06 -0.59,0.26 -0.74,0.53c-0.613,1.167 -0.257,1.974 1.07,2.42c-0.327,0.18 -0.59,0.417 -0.79,0.71c-0.933,0.2 -1.59,0.057 -1.97,-0.43c-0.667,-0.88 -0.9,-1.86 -0.7,-2.94c0.533,-2.853 0.703,-5.396 0.51,-7.63c-0.03,-0.36 0.03,-0.69 0.18,-0.95c0.307,-0.526 0.683,-1 1.13,-1.42c0.467,-0.433 0.867,-0.87 1.2,-1.31c1.113,-1.46 2.667,-2.313 4.66,-2.56c1.733,-0.22 3.047,0.064 3.94,0.85c0.8,0.707 1.75,1.074 2.85,1.1l8.74,0.25Zm-16.61,0.55c1.373,0.534 2.753,0.584 4.14,0.15c0.22,-0.07 0.28,-0.35 0.11,-0.51c-1.753,-1.633 -3.617,-1.683 -5.59,-0.15c-0.17,0.13 -0.16,0.38 0.02,0.46c0.133,0.06 0.27,0.08 0.41,0.06c0.42,-0.06 0.77,-0.07 0.91,-0.01Zm7.71,2.8c-0.82,-0.246 -1.167,-0.18 -1.04,0.2c0.09,0.25 0.39,0.44 0.76,0.47c2.373,0.207 2.467,-0.016 0.28,-0.67Z" style="fill:#281c19;fill-rule:nonzero;"/><path d="M11.853,6.955c-0.14,0.02 -0.277,0 -0.41,-0.06c-0.18,-0.08 -0.19,-0.33 -0.02,-0.46c1.973,-1.533 3.837,-1.483 5.59,0.15c0.17,0.16 0.11,0.44 -0.11,0.51c-1.387,0.434 -2.767,0.384 -4.14,-0.15c-0.14,-0.06 -0.49,-0.05 -0.91,0.01Z" style="fill:#fff;fill-rule:nonzero;"/><path d="M59.833,14.185c0.08,0.407 0.043,0.78 -0.11,1.12c-0.24,0.514 -0.307,0.834 -0.2,0.96c0.26,0.294 0.943,0.324 2.05,0.09c0.68,-0.14 1.363,-0.183 2.05,-0.13c1.7,0.14 3.457,0.474 5.27,1c1.347,0.38 2.337,0.944 2.97,1.69c0.767,0.9 1.257,1.99 1.47,3.27l-0.96,-0.04c-0.36,-2.08 -1.61,-3.14 -3.75,-3.18c-1.087,-0.02 -2.16,-0.1 -3.22,-0.24c-2.633,-0.36 -3.213,0.46 -1.74,2.46c-0.1,0.234 -0.267,0.317 -0.5,0.25c-0.6,-0.466 -1.15,-0.983 -1.65,-1.55c-0.653,-0.746 -1.23,-1.196 -1.73,-1.35c-1.233,-0.386 -2.223,-0.003 -2.97,1.15c-0.167,0.26 -0.39,0.497 -0.67,0.71c-0.847,0.654 -0.87,1.45 -0.07,2.39c0.2,0.23 0.2,0.57 0.01,0.79c-1.02,1.207 -1.543,2.49 -1.57,3.85c-0.02,0.847 0.203,1.647 0.67,2.4c0.973,1.567 2.06,1.287 3.26,-0.84c0.713,-1.26 1.607,-1.403 2.68,-0.43c1.033,0.94 1.46,2.14 1.28,3.6c-0.353,2.76 -0.377,5.52 -0.07,8.28c-0.46,-0.086 -0.863,0.01 -1.21,0.29c-1.553,-0.213 -2.867,0.21 -3.94,1.27c-0.773,0.76 -1.273,1.76 -1.5,3c-0.22,1.207 0.343,1.95 1.69,2.23l0.78,1.26c0.21,0.34 0.44,0.58 0.66,0.69c1.907,0.994 2.58,0.33 2.02,-1.99l0.58,-1.25l0.92,0c-0.487,1.834 0.027,2.93 1.54,3.29l0,1.17c-0.78,-0.153 -1.377,0.027 -1.79,0.54l-0.96,0.29l-5.2,0.19c-0.3,0.01 -0.6,0.18 -0.83,0.46c-0.48,0.62 -0.683,1.287 -0.61,2c0.067,0.66 0.45,1.314 1.15,1.96c1.307,1.207 2.873,2.097 4.7,2.67c0.26,0.08 0.52,-0.09 0.54,-0.34l0.29,-4.48c0.62,-0.033 1.19,-0.213 1.71,-0.54c0.847,0.154 1.39,-0.09 1.63,-0.73c0.16,-0.41 0.36,-0.7 0.52,-0.75c0.167,-0.053 0.353,-0.046 0.56,0.02c0.28,0.647 0.413,1.317 0.4,2.01c-0.013,0.834 0.027,1.49 0.12,1.97c0.553,2.994 -0.16,5.697 -2.14,8.11c-0.46,0.554 -0.47,0.9 -0.03,1.04c0.193,0.06 0.433,0.03 0.72,-0.09c2.16,-0.906 4.4,-1.1 6.72,-0.58c0.593,-0.14 0.94,0.04 1.04,0.54c-0.52,0.867 -0.727,1.79 -0.62,2.77c0.04,0.33 -0.04,0.65 -0.21,0.88c-1.047,1.387 -2.363,2.457 -3.95,3.21c-0.31,0.15 -0.53,0.39 -0.61,0.68l-0.34,1.16c-0.09,0.32 -0.32,0.56 -0.6,0.65c-1.693,0.534 -3.423,0.63 -5.19,0.29c-1.3,-0.253 -2.087,0.044 -2.36,0.89c-0.28,0.82 -1.04,1.39 -1.91,1.41c-2.047,0.04 -3.537,0.84 -4.47,2.4c-0.727,1.22 -1.097,1.837 -1.11,1.85c-1.007,1.154 -2.317,1.707 -3.93,1.66c-1.267,-0.04 -1.927,-0.056 -1.98,-0.05c-9.067,0.4 -18.13,0.414 -27.19,0.04c-0.3,-0.01 -0.61,0.09 -0.9,0.28c-0.793,0.534 -1.67,0.744 -2.63,0.63c0.527,-1.12 0.57,-2.283 0.13,-3.49c-0.407,-1.1 -0.267,-2.126 0.42,-3.08c0.673,-0.933 0.477,-1.646 -0.59,-2.14c0.72,-0.68 0.387,-1.013 -1,-1c1.7,0.327 2.387,-0.26 2.06,-1.76c-0.19,-0.87 -0.94,-1.51 -1.84,-1.55c-2.333,-0.12 -4.337,0.137 -6.01,0.77c-0.36,-0.233 -0.763,-0.33 -1.21,-0.29c-0.113,-0.906 0.1,-1.246 0.64,-1.02c0.37,0.15 0.7,0.21 0.92,0.17c1.6,-0.346 2.06,-1.476 1.38,-3.39c-0.1,-0.28 -0.37,-0.47 -0.69,-0.51c-2.567,-0.326 -3.54,-2.026 -2.92,-5.1c0.347,-1.733 0.067,-3.36 -0.84,-4.88c-0.24,-0.413 -0.487,-1.343 -0.74,-2.79l0,-5c0.493,-0.94 0.87,-1.923 1.13,-2.95c0.08,-0.3 0.05,-0.64 -0.08,-0.96c-1.38,-3.306 -1.177,-6.606 0.61,-9.9c0.17,-0.32 0.22,-0.68 0.15,-1.02c-0.5,-2.366 -0.353,-4.236 0.44,-5.61c0.6,-1.04 1.2,-1.78 1.56,-1.94c2.373,-1.04 2.673,-2.56 0.9,-4.56c0.2,-0.293 0.463,-0.53 0.79,-0.71c2.6,-0.12 5.04,-0.756 7.32,-1.91c0.293,-0.153 0.49,-0.33 0.59,-0.53c0.227,-0.44 0.007,-0.71 -0.66,-0.81c1.147,0.14 1.577,-0.373 1.29,-1.54c0.013,-0.76 -0.173,-1.44 -0.56,-2.04c-0.18,-0.28 -0.49,-0.43 -0.8,-0.41l-6.68,0.49c-1.727,0.187 -2.06,-0.23 -1,-1.25l7.76,-1.03c0.34,-0.05 0.61,-0.23 0.7,-0.47c0.26,-0.74 0.19,-1.49 -0.21,-2.25c0.847,0.394 1.12,1.137 0.82,2.23c-0.44,1.58 -0.123,2.28 0.95,2.1c0.19,-0.03 0.38,-0.27 0.47,-0.61c0.093,-0.32 0.43,-0.393 1.01,-0.22c-0.12,0.147 -0.2,0.304 -0.24,0.47c-0.06,0.26 0.14,0.54 0.45,0.64c1.567,0.447 3.83,0.647 6.79,0.6c6.833,-0.106 13.667,-0.19 20.5,-0.25c1.8,-0.013 2.363,-0.683 1.69,-2.01c-0.14,-0.27 -0.41,-0.47 -0.74,-0.55c-2.193,-0.54 -4.403,-0.78 -6.63,-0.72c-4.027,0.12 -6.08,0.177 -6.16,0.17c-3.553,-0.093 -7.107,-0.07 -10.66,0.07c0.413,-0.693 0.08,-0.943 -1,-0.75c7.833,-0.4 15.673,-0.476 23.52,-0.23c0.64,0.02 1.117,-0.04 1.43,-0.18c0.673,-0.306 0.853,-0.84 0.54,-1.6c-0.13,-0.33 -0.46,-0.54 -0.83,-0.54l-19.16,-0.12c0.567,-0.786 0.317,-1.146 -0.75,-1.08c7.26,-0.373 14.333,-0.29 21.22,0.25c0.97,0.07 1.83,0.66 2.25,1.53c1.587,3.254 3.917,5.257 6.99,6.01Zm-38.67,2.25c-0.087,0.46 -0.35,0.78 -0.79,0.96c-0.9,0.28 -1.28,0.8 -1.14,1.56c0.05,0.25 0.32,0.44 0.64,0.44l5.25,0c7.733,-0.346 15.46,-0.283 23.18,0.19c0.31,0.02 0.58,-0.17 0.66,-0.45c0.28,-0.986 0.297,-1.976 0.05,-2.97c-0.07,-0.28 -0.33,-0.48 -0.63,-0.48c-6.84,-0.033 -13.677,-0.023 -20.51,0.03c-1.953,0.014 -3.883,-0.19 -5.79,-0.61c-1.867,-0.413 -2.173,0.03 -0.92,1.33Zm33.73,-0.81c-1.033,0.014 -2.057,-0.09 -3.07,-0.31c-1.42,-0.313 -1.823,0.087 -1.21,1.2c0.147,0.267 0.247,0.574 0.3,0.92c0.253,1.754 1.807,2.314 4.66,1.68c0.82,-0.18 1.47,-0.83 1.66,-1.65c0.293,-1.246 -0.487,-1.86 -2.34,-1.84Zm-35.72,6.48c0.78,0.267 1.577,0.424 2.39,0.47c3.893,0.234 5.023,-0.356 3.39,-1.77c-0.19,-0.16 -0.52,-0.25 -0.9,-0.25l-4.62,0c-0.28,0 -0.51,0.19 -0.51,0.43c0,0.687 0.083,1.06 0.25,1.12Zm25.199,-0.929c0.001,-0.161 -0.129,-0.301 -0.291,-0.308l-11.575,-0.344c-0.163,-0.009 -0.303,0.121 -0.309,0.291l-0.062,2.099c-0.002,0.161 0.128,0.301 0.291,0.309l11.575,0.343c0.162,0.009 0.302,-0.121 0.308,-0.291l0.063,-2.099Zm7.031,2.879c0.847,0.007 1.487,-0.65 1.92,-1.97c0.19,-0.6 -0.28,-1.21 -0.91,-1.18c-2.387,0.134 -3.307,0.774 -2.76,1.92c0.393,0.82 0.977,1.23 1.75,1.23Zm-19.63,2.4c-0.73,0.12 -1.32,0.66 -1.5,1.38c-0.453,1.874 0.313,2.287 2.3,1.24c0.71,-0.37 1.59,-0.01 1.84,0.75c0.513,1.54 1.667,2.19 3.46,1.95c0.33,-0.05 0.62,-0.21 0.83,-0.45l3.49,-4.06c0.667,-0.773 0.483,-1.216 -0.55,-1.33c-2.573,-0.273 -5.863,-0.1 -9.87,0.52Zm11.35,2.19c-0.453,1.707 -0.12,1.817 1,0.33c1.933,0.54 3.653,1.384 5.16,2.53c0.65,0.49 1.58,0.34 2.04,-0.34c1.153,-1.713 1.047,-3.02 -0.32,-3.92c-0.26,-0.166 -0.49,-0.393 -0.69,-0.68c-0.2,-0.286 -0.447,-0.513 -0.74,-0.68c-0.18,-0.1 -0.52,-0.1 -0.91,0l-3.6,0.94c-0.33,0.09 -0.6,0.27 -0.73,0.49c-0.313,0.527 -0.717,0.97 -1.21,1.33Zm-21.4,0.84c-2.32,1.82 -1.943,2.594 1.13,2.32c0.393,-0.04 1.073,-0.046 2.04,-0.02c2.193,0.06 3.71,-1.036 4.55,-3.29c0.74,-1.993 0.073,-2.75 -2,-2.27c-2.793,0.654 -5.657,0.68 -8.59,0.08c-1.647,-0.333 -2.417,0.127 -2.31,1.38c0.02,0.26 0.29,0.43 0.56,0.36c1.707,-0.44 3.247,-0.163 4.62,0.83c0.2,0.14 0.2,0.45 0,0.61Zm-9.09,1.06c0.387,-0.786 0.95,-1.42 1.69,-1.9c0.78,-0.5 0.973,-1.016 0.58,-1.55c-0.17,-0.23 -0.49,-0.34 -0.84,-0.3c-3.013,0.367 -4.93,1.98 -5.75,4.84c-0.107,0.374 0.013,0.514 0.36,0.42l3.3,-0.87c0.25,-0.07 0.5,-0.31 0.66,-0.64Zm44.45,5.39c-1.88,0.714 -1.963,1.797 -0.25,3.25c0.62,0.38 1.263,0.404 1.93,0.07c0.3,-0.153 0.607,-0.25 0.92,-0.29c0.967,-0.14 1.477,-0.663 1.53,-1.57c0.053,-1.02 0.107,-1.65 0.16,-1.89c0.347,-1.566 0.277,-3.05 -0.21,-4.45c-0.56,-1.62 -1.26,-1.683 -2.1,-0.19c-0.9,1.594 -1.56,3.284 -1.98,5.07Zm-13.75,2l-1.42,-0.25c-0.287,-1.64 -0.957,-3.076 -2.01,-4.31c-0.21,-0.25 -0.53,-0.38 -0.85,-0.35c-2.853,0.214 -5.02,1.584 -6.5,4.11c-0.39,0.67 -0.96,1.21 -1.65,1.57c-1.06,0.547 -1.023,1.25 0.11,2.11c0.76,0.58 1.503,1.18 2.23,1.8c0.21,0.17 0.52,0.15 0.71,-0.05c1.12,-1.206 1.767,-1.106 1.94,0.3c0.04,0.34 0.25,0.6 0.52,0.67c0.987,0.247 1.64,-0.203 1.96,-1.35c0.333,-1.193 1.333,-1.706 3,-1.54c0.587,-0.013 0.99,0.25 1.21,0.79l3.58,-1.03c0.34,-0.1 0.67,-0.02 0.76,0.19l0.95,2.13l0.04,1.71c-0.493,1.094 -1.32,1.694 -2.48,1.8c-0.27,0.03 -0.54,0.19 -0.75,0.45l-1.94,2.41c-0.24,0.3 -0.37,0.6 -0.35,0.83c0.113,1.54 0.84,1.78 2.18,0.72c0.36,-0.29 0.86,-0.36 1.28,-0.16c1.7,0.787 2.57,1.837 2.61,3.15c0.01,0.35 0.15,0.65 0.38,0.79c0.62,0.38 1.257,0.42 1.91,0.12c0.54,-0.26 0.997,-0.776 1.37,-1.55c1.773,-3.733 0.773,-6.766 -3,-9.1c0.513,-0.566 1.18,-0.873 2,-0.92l2.3,-6.31c0.467,-1.273 0.15,-2.253 -0.95,-2.94c-4.487,-2.793 -7.533,-1.39 -9.14,4.21Zm-35.71,5.54c1.18,1.047 1.173,1.977 -0.02,2.79c-0.07,0.05 -0.08,0.15 -0.03,0.25l0.09,0.17c-0.58,0.387 -0.793,0.83 -0.64,1.33c0.133,0.454 0.203,0.7 0.21,0.74c0.227,1.874 0.233,3.747 0.02,5.62c-0.04,0.35 0.11,0.66 0.36,0.76c0.307,0.127 0.643,0.13 1.01,0.01c0.973,0.367 1.557,0.144 1.75,-0.67l3.07,-1.56c0.28,-0.14 0.49,-0.39 0.58,-0.7c0.547,-1.953 0.33,-3.81 -0.65,-5.57l-1.29,-3.21l-0.32,-1.61c-0.05,-0.26 0.07,-0.51 0.28,-0.57c1.353,-0.413 2.053,-1.356 2.1,-2.83c0.033,-1.02 0.143,-2.026 0.33,-3.02c0.227,-1.22 -0.05,-1.566 -0.83,-1.04c-0.193,0.134 -0.38,0.337 -0.56,0.61c-1.16,1.74 -1.48,1.477 -0.96,-0.79c0.147,-0.64 -0.113,-1.093 -0.78,-1.36c-0.25,-0.1 -0.57,-0.02 -0.82,0.21c-0.62,0.567 -1.363,0.93 -2.23,1.09c-0.59,0.11 -0.97,0.7 -0.82,1.28c0.293,1.12 0.223,2.27 -0.21,3.45c-0.6,1.627 -0.48,3.167 0.36,4.62Zm13.79,0.21l0.96,1.71l-5.56,1.98c-2.387,0.847 -2.617,1.867 -0.69,3.06c0.693,0.434 1.193,1.03 1.5,1.79c0.693,1.46 1.86,2.1 3.5,1.92c0.567,0.614 1.237,1.014 2.01,1.2c0.26,0.06 0.57,-0.05 0.81,-0.3l4.47,-4.61c0.853,-1.2 0.59,-1.853 -0.79,-1.96l-1.79,-2.79l-0.07,-2.94c-0.01,-0.37 0.09,-0.68 0.28,-0.85c0.647,-0.573 1.423,-0.963 2.33,-1.17c1.513,-1.733 1.43,-3.106 -0.25,-4.12c-0.26,-0.15 -0.41,-0.44 -0.38,-0.74c0.327,-3.166 -0.637,-4.123 -2.89,-2.87c-1.04,0.58 -2.133,1.027 -3.28,1.34c-4.347,1.187 -6.337,3.2 -5.97,6.04c0.03,0.27 0.28,0.48 0.58,0.47l3.88,-0.1c0.33,-0.01 0.64,0.12 0.84,0.36c0.573,0.7 0.743,1.56 0.51,2.58Zm13.42,1.75c-2.62,-0.76 -3.177,-0.176 -1.67,1.75c-0.28,0.554 -0.647,0.657 -1.1,0.31c-1.187,-0.126 -1.787,0.3 -1.8,1.28c-0.007,0.5 -0.007,1.107 0,1.82c0.013,1.247 0.917,1.667 2.71,1.26c0.63,-0.14 1.24,0.29 1.32,0.92c0.287,2.254 0.947,2.924 1.98,2.01c0.25,-0.22 0.54,-0.36 0.85,-0.42c2.587,-0.506 4.033,-2.746 4.34,-6.72c0.127,-1.6 -0.6,-2.53 -2.18,-2.79c-0.953,-0.153 -2.437,0.04 -4.45,0.58Zm24.29,14.79l-2.5,-1c-1.327,-0.96 -1.91,-0.64 -1.75,0.96c0.093,0.92 -0.3,2.13 -1.18,3.63c-0.16,0.28 -0.18,0.6 -0.05,0.88c1.687,3.54 2.867,5.6 3.54,6.18c1.133,0.96 2.19,1.074 3.17,0.34c0.327,-0.246 0.713,-0.846 1.16,-1.8c0.307,-0.646 0.713,-1.263 1.22,-1.85c0.42,-0.49 0.42,-1.19 -0.01,-1.56l-3.6,-3.11c0.08,-0.533 0.33,-0.866 0.75,-1c0.513,-0.3 1.203,-0.156 2.07,0.43c0.5,0.33 1.18,0.21 1.53,-0.28c1.5,-2.086 1.773,-4.12 0.82,-6.1c-0.11,-0.25 -0.43,-0.33 -0.65,-0.17c-1.18,0.847 -2.037,1.957 -2.57,3.33c-0.193,0.507 -0.41,0.83 -0.65,0.97c-0.367,0.214 -0.8,0.264 -1.3,0.15Zm-28,1.92l1.21,0.79c0.533,0.414 1.13,0.567 1.79,0.46c0.54,0.32 1.123,0.514 1.75,0.58c1.367,0.514 2.533,0.264 3.5,-0.75c0.487,0.074 0.917,-0.023 1.29,-0.29c1.793,0.047 2.26,-0.6 1.4,-1.94c-1.013,-1.553 -1.69,-2.65 -2.03,-3.29c-0.18,-0.34 -0.44,-0.58 -0.69,-0.66l-3.16,-0.96c-0.24,-0.07 -0.48,0.13 -0.48,0.41c-0.027,2 -1.057,2.844 -3.09,2.53c-0.33,-0.05 -0.64,0.04 -0.85,0.25c-0.7,0.707 -1.163,1.427 -1.39,2.16c-0.207,0.687 0.043,0.924 0.75,0.71Zm15.96,-5.96l-2.75,2.5c-1.867,-0.14 -2.01,0.707 -0.43,2.54c0.54,0.63 0.7,1.51 0.42,2.29c-0.267,0.72 0.18,0.844 1.34,0.37c0.27,-0.11 0.59,-0.12 0.93,-0.03c0.767,0.194 1.367,-0.046 1.8,-0.72c0.13,-0.22 0.41,-0.28 0.63,-0.15c0.34,0.207 0.69,0.294 1.05,0.26c0.24,-0.03 0.51,-0.24 0.73,-0.57l1.44,-2.16c0.21,-0.31 0.32,-0.63 0.31,-0.9c-0.153,-3.333 -1.977,-4.476 -5.47,-3.43Zm-21.46,0.71l-3.01,0.29c-0.36,0.04 -0.66,0.14 -0.9,0.3c-1.467,0.98 -3.083,1.214 -4.85,0.7c-0.6,-0.18 -1.21,0.25 -1.25,0.88l-0.21,3.88c-0.02,0.37 0.08,0.69 0.28,0.89c0.38,0.387 0.81,0.437 1.29,0.15c0.32,-0.19 0.64,-0.28 0.9,-0.25c0.96,0.094 1.917,0.204 2.87,0.33c0.107,0.014 0.69,0.02 1.75,0.02c0.833,0 1.543,0.297 2.13,0.89c0.453,0.28 0.89,0.344 1.31,0.19c0.22,-0.07 0.33,-0.37 0.26,-0.69c-0.12,-0.493 0.037,-0.923 0.47,-1.29c0.467,0.014 0.91,-0.06 1.33,-0.22c0.29,-0.12 0.51,-0.38 0.59,-0.7c0.327,-1.293 0.007,-2.416 -0.96,-3.37c-0.133,-1.333 -0.8,-2 -2,-2Zm-17.75,2.33c0.28,1.034 0.42,2.084 0.42,3.15c0.007,0.934 0.45,1.05 1.33,0.35c0.633,0.22 1.273,0.36 1.92,0.42c0.14,0.014 0.673,0.114 1.6,0.3c0.847,0.167 1.217,-0.26 1.11,-1.28c-0.033,-0.346 -0.033,-0.836 0,-1.47c0.04,-0.786 -0.317,-1.223 -1.07,-1.31c-0.3,-0.04 -0.56,-0.22 -0.67,-0.48c-0.8,-1.946 -2.27,-2.453 -4.41,-1.52c-0.913,0.4 -0.99,1.014 -0.23,1.84Zm54.5,11.74c3.713,0.634 6.5,-0.563 8.36,-3.59c0.813,-1.333 0.297,-1.713 -1.55,-1.14c-0.853,0.267 -1.727,0.39 -2.62,0.37c-2.48,-0.06 -3.933,1.317 -4.36,4.13c-0.02,0.11 0.06,0.21 0.17,0.23Zm-17.85,-4.38c-0.733,-0.466 -1.367,-0.6 -1.9,-0.4c-2.333,0.874 -4.75,1.22 -7.25,1.04c-0.31,-0.02 -0.59,0.16 -0.67,0.43c-0.22,0.76 -0.203,1.51 0.05,2.25c0.09,0.28 0.37,0.46 0.69,0.44c3.427,-0.193 6.99,0.034 10.69,0.68c0.94,0.16 1.82,-0.49 1.94,-1.43c0.287,-2.273 -0.597,-3.216 -2.65,-2.83c-0.31,0.06 -0.63,-0.01 -0.9,-0.18Zm-27.81,3.12c-0.36,0.78 -0.117,1.107 0.73,0.98c2.147,-0.313 4.71,-0.246 7.69,0.2c2.167,0.32 3.447,-0.803 3.84,-3.37c0.08,-0.46 -0.35,-0.85 -0.8,-0.73c-2.813,0.754 -5.423,0.757 -7.83,0.01c-1.333,-0.413 -2.543,0.557 -3.63,2.91Zm-6.53,-1.85c-0.36,1.527 0.197,2.014 1.67,1.46c0.3,-0.11 0.54,-0.36 0.64,-0.66c0.5,-1.426 -0.07,-1.906 -1.71,-1.44c-0.3,0.09 -0.53,0.34 -0.6,0.64Zm39.73,5.83c-0.1,0.5 -0.447,0.68 -1.04,0.54c-0.893,-0.646 -1.893,-0.923 -3,-0.83c0.153,-0.913 -0.097,-1.4 -0.75,-1.46c-8.007,-0.72 -17.197,-0.67 -27.57,0.15c-0.33,0.02 -0.6,0.23 -0.67,0.5c-0.113,0.514 0.05,0.977 0.49,1.39c0.167,1.78 1.167,2.28 3,1.5l8.25,0.17c0.707,-0.18 1.207,-0.013 1.5,0.5c-3.54,-0.02 -6.863,0.29 -9.97,0.93c-1.493,0.307 -1.51,0.674 -0.05,1.1c2.993,0.887 6.033,1.27 9.12,1.15c2.487,-0.1 3.757,-0.15 3.81,-0.15c5.347,-0.013 10.69,0.047 16.03,0.18c0.3,0.01 0.57,-0.18 0.65,-0.46c0.653,-2.293 -0.293,-3.196 -2.84,-2.71c-2.02,0.387 -3.7,0.304 -5.04,-0.25c2.367,-0.66 4.797,-0.923 7.29,-0.79c0.493,0.167 0.923,0.097 1.29,-0.21l4.32,-3.18c0.25,-0.18 0.34,-0.52 0.2,-0.78c-0.587,-1.12 -1.627,-1.236 -3.12,-0.35c-1.427,0.847 -2.06,1.867 -1.9,3.06Zm15.52,-1.56c-1.84,-0.966 -3.09,-1.26 -3.75,-0.88c-1.527,0.894 -1.63,1.707 -0.31,2.44c1.26,0.707 2.613,0.56 4.06,-0.44c0.62,-0.426 0.62,-0.8 0,-1.12Zm-7.694,1.952c-0.156,-0.662 -1.646,-0.872 -3.319,-0.479c-1.677,0.397 -2.907,1.257 -2.753,1.915c0.156,0.662 1.646,0.872 3.319,0.479c1.677,-0.397 2.907,-1.257 2.753,-1.915Zm-12.366,6.818c3.273,-0.093 3.273,-0.233 0,-0.42c-2.727,-0.433 -5.457,-0.583 -8.19,-0.45c-4.387,0.22 -7.1,0.307 -8.14,0.26c-3.813,-0.16 -7.627,-0.37 -11.44,-0.63c-1.127,-0.08 -1.47,0.217 -1.03,0.89c0.16,0.24 0.46,0.4 0.8,0.42c7.133,0.46 14.267,0.574 21.4,0.34c0.073,-0.006 1.09,0.047 3.05,0.16c1.207,0.067 2.39,-0.123 3.55,-0.57Z" style="fill:#672c35;fill-rule:nonzero;"/><path d="M30.123,7.475l19.16,0.12c0.37,0 0.7,0.21 0.83,0.54c0.313,0.76 0.133,1.294 -0.54,1.6c-0.313,0.14 -0.79,0.2 -1.43,0.18c-7.847,-0.246 -15.687,-0.17 -23.52,0.23c-1.5,0.394 -2.17,-0.383 -2.01,-2.33c0.02,-0.19 0.17,-0.33 0.35,-0.33l7.16,-0.01Z" style="fill:#fff;fill-rule:nonzero;"/><path d="M17.373,8.975c0.4,0.76 0.47,1.51 0.21,2.25c-0.09,0.24 -0.36,0.42 -0.7,0.47l-7.76,1.03c-0.8,-0.766 -0.997,-1.556 -0.59,-2.37c0.28,-0.546 0.827,-0.976 1.64,-1.29c2.32,-0.9 4.72,-0.93 7.2,-0.09Z" style="fill:#fff;fill-rule:nonzero;"/><path d="M20.473,9.745c2.187,0.654 2.093,0.877 -0.28,0.67c-0.37,-0.03 -0.67,-0.22 -0.76,-0.47c-0.127,-0.38 0.22,-0.446 1.04,-0.2Z" style="fill:#e0dcb8;fill-rule:nonzero;"/><path d="M20.623,12.475l5,-1.58c3.553,-0.14 7.107,-0.163 10.66,-0.07c0.08,0.007 2.133,-0.05 6.16,-0.17c2.227,-0.06 4.437,0.18 6.63,0.72c0.33,0.08 0.6,0.28 0.74,0.55c0.673,1.327 0.11,1.997 -1.69,2.01c-6.833,0.06 -13.667,0.144 -20.5,0.25c-2.96,0.047 -5.223,-0.153 -6.79,-0.6c-0.31,-0.1 -0.51,-0.38 -0.45,-0.64c0.04,-0.166 0.12,-0.323 0.24,-0.47Z" style="fill:#fff;fill-rule:nonzero;"/><path d="M18.163,15.935c-0.22,0.147 -0.447,0.27 -0.68,0.37c-0.213,0.087 -0.46,0.117 -0.74,0.09c-2.547,-0.233 -5.087,-0.163 -7.62,0.21c-0.31,0.05 -0.6,-0.11 -0.7,-0.37c-0.553,-1.446 0.013,-2.2 1.7,-2.26l6.68,-0.49c0.31,-0.02 0.62,0.13 0.8,0.41c0.387,0.6 0.573,1.28 0.56,2.04Z" style="fill:#fff;fill-rule:nonzero;"/><path d="M25.123,19.395l-0.04,-0.71c0.04,-0.153 0.137,-0.25 0.29,-0.29c4.487,0.034 4.57,-0.356 0.25,-1.17c-0.727,-0.666 -1.477,-0.693 -2.25,-0.08c-0.84,-0.013 -1.577,-0.25 -2.21,-0.71c-1.253,-1.3 -0.947,-1.743 0.92,-1.33c1.907,0.42 3.837,0.624 5.79,0.61c6.833,-0.053 13.67,-0.063 20.51,-0.03c0.3,0 0.56,0.2 0.63,0.48c0.247,0.994 0.23,1.984 -0.05,2.97c-0.08,0.28 -0.35,0.47 -0.66,0.45c-7.72,-0.473 -15.447,-0.536 -23.18,-0.19Z" style="fill:#fff;fill-rule:nonzero;"/><path d="M54.893,15.625c1.853,-0.02 2.633,0.594 2.34,1.84c-0.19,0.82 -0.84,1.47 -1.66,1.65c-2.853,0.634 -4.407,0.074 -4.66,-1.68c-0.053,-0.346 -0.153,-0.653 -0.3,-0.92c-0.613,-1.113 -0.21,-1.513 1.21,-1.2c1.013,0.22 2.037,0.324 3.07,0.31Z" style="fill:#fff;fill-rule:nonzero;"/><path d="M21.163,16.435c0.633,0.46 1.37,0.697 2.21,0.71c-0.78,-0.146 -1.127,0.117 -1.04,0.79l-1.96,-0.54c0.44,-0.18 0.703,-0.5 0.79,-0.96Z" style="fill:#e0dcb8;fill-rule:nonzero;"/><path d="M25.623,17.225l-0.25,1.17c-0.153,0.04 -0.25,0.137 -0.29,0.29c-0.833,-0.453 -1.75,-0.703 -2.75,-0.75c-0.087,-0.673 0.26,-0.936 1.04,-0.79c0.773,-0.613 1.523,-0.586 2.25,0.08Z" style="fill:#672c35;fill-rule:nonzero;"/><path d="M16.873,17.475c0.667,0.1 0.887,0.37 0.66,0.81c-0.1,0.2 -0.297,0.377 -0.59,0.53c-2.28,1.154 -4.72,1.79 -7.32,1.91c-1.327,-0.446 -1.683,-1.253 -1.07,-2.42c0.15,-0.27 0.42,-0.47 0.74,-0.53c2.513,-0.473 5.04,-0.573 7.58,-0.3Z" style="fill:#fff;fill-rule:nonzero;"/><path d="M25.623,17.225c4.32,0.814 4.237,1.204 -0.25,1.17l0.25,-1.17Z" style="fill:#e0dcb8;fill-rule:nonzero;"/><path d="M20.373,17.395l1.96,0.54c1,0.047 1.917,0.297 2.75,0.75l0.04,0.71l-5.25,0c-0.32,0 -0.59,-0.19 -0.64,-0.44c-0.14,-0.76 0.24,-1.28 1.14,-1.56Z" style="fill:#fff;fill-rule:nonzero;"/><path d="M63.163,21.435c2.007,2.86 3.223,6.03 3.65,9.51c0.347,2.84 -0.217,5.49 -1.69,7.95c-1.153,1.054 -1.287,2.13 -0.4,3.23c0.19,0.24 0.3,0.55 0.31,0.88c0.027,0.954 0.557,1.417 1.59,1.39c0.493,0.38 0.61,0.837 0.35,1.37c-0.707,1.454 -1.74,2.607 -3.1,3.46c-1.513,-0.36 -2.027,-1.456 -1.54,-3.29c0.773,-1.833 0.773,-3.666 0,-5.5c-0.307,-2.76 -0.283,-5.52 0.07,-8.28c0.18,-1.46 -0.247,-2.66 -1.28,-3.6c-1.073,-0.973 -1.967,-0.83 -2.68,0.43c-1.2,2.127 -2.287,2.407 -3.26,0.84c-0.467,-0.753 -0.69,-1.553 -0.67,-2.4c0.027,-1.36 0.55,-2.643 1.57,-3.85c0.19,-0.22 0.19,-0.56 -0.01,-0.79c-0.8,-0.94 -0.777,-1.736 0.07,-2.39c0.28,-0.213 0.503,-0.45 0.67,-0.71c0.747,-1.153 1.737,-1.536 2.97,-1.15c0.5,0.154 1.077,0.604 1.73,1.35c0.5,0.567 1.05,1.084 1.65,1.55Z" style="fill:#fff;fill-rule:nonzero;"/><path d="M72.373,22.145c-1.047,0.254 -2.11,0.37 -3.19,0.35c-0.107,0 -0.807,0.024 -2.1,0.07c-1.347,0.054 -2.487,-0.406 -3.42,-1.38c-1.473,-2 -0.893,-2.82 1.74,-2.46c1.06,0.14 2.133,0.22 3.22,0.24c2.14,0.04 3.39,1.1 3.75,3.18Z" style="fill:#fff;fill-rule:nonzero;"/><path d="M19.173,22.105c-0.167,-0.06 -0.25,-0.433 -0.25,-1.12c0,-0.24 0.23,-0.43 0.51,-0.43l4.62,0c0.38,0 0.71,0.09 0.9,0.25c1.633,1.414 0.503,2.004 -3.39,1.77c-0.813,-0.046 -1.61,-0.203 -2.39,-0.47Z" style="fill:#fff;fill-rule:nonzero;"/><path d="M44.372,21.176c0.004,-0.165 -0.126,-0.304 -0.291,-0.308l-11.575,-0.344c-0.166,-0.005 -0.304,0.126 -0.309,0.291l-0.062,2.099c-0.005,0.166 0.125,0.304 0.291,0.309l11.575,0.343c0.165,0.005 0.303,-0.125 0.308,-0.291l0.063,-2.099Z" style="fill:#fff;"/><path d="M49.653,22.825c-0.547,-1.146 0.373,-1.786 2.76,-1.92c0.63,-0.03 1.1,0.58 0.91,1.18c-0.433,1.32 -1.073,1.977 -1.92,1.97c-0.773,0 -1.357,-0.41 -1.75,-1.23Z" style="fill:#fff;fill-rule:nonzero;"/><path d="M63.663,21.185c0.933,0.974 2.073,1.434 3.42,1.38c1.293,-0.046 1.993,-0.07 2.1,-0.07c1.08,0.02 2.143,-0.096 3.19,-0.35l0.96,0.04l2.04,2.79c0.193,0.534 0.367,1.074 0.52,1.62c0.153,0.514 0.233,1.077 0.24,1.69c0.093,5.014 0.507,8.73 1.24,11.15c0.893,2.94 0.94,5.56 0.14,7.86c-0.66,1.907 -1.047,3.227 -1.16,3.96c-0.693,4.654 -2.007,9.13 -3.94,13.43c-0.1,-0.5 -0.447,-0.68 -1.04,-0.54c1.34,-1.56 1.993,-3.38 1.96,-5.46l0.04,-0.21c1.687,-2.44 2.3,-5.123 1.84,-8.05c-0.05,-0.28 -0.3,-0.49 -0.59,-0.49l-7.75,0c-0.833,0 -1.43,0.25 -1.79,0.75l-1.21,-0.29l0,-1.17c1.36,-0.853 2.393,-2.006 3.1,-3.46c0.26,-0.533 0.143,-0.99 -0.35,-1.37c0.46,-1.22 0.377,-2.363 -0.25,-3.43c-0.3,-0.52 -0.147,-0.78 0.46,-0.78c1.807,2.487 1.91,5.017 0.31,7.59c-0.193,0.314 -0.117,0.46 0.23,0.44l7.96,-0.52c0.78,-0.05 1.46,-0.64 1.71,-1.47c0.66,-2.246 0.54,-4.22 -0.36,-5.92c-0.15,-0.28 -0.44,-0.45 -0.76,-0.46l-8.8,-0.2l-2,-0.75c1.473,-2.46 2.037,-5.11 1.69,-7.95c-0.427,-3.48 -1.643,-6.65 -3.65,-9.51c0.233,0.067 0.4,-0.016 0.5,-0.25Zm5.12,8.82c0.273,-0.24 0.553,-0.346 0.84,-0.32c1.78,0.174 3.517,0.03 5.21,-0.43c0.31,-0.08 0.53,-0.33 0.57,-0.63c0.153,-1.28 -0.247,-2.55 -1.2,-3.81c-0.48,-0.64 -1.18,-1.02 -1.86,-1.01l-5.73,0.05c-0.25,0 -0.41,0.28 -0.32,0.55c1.047,2.907 1.513,5.89 1.4,8.95c-0.013,0.347 -0.157,1.047 -0.43,2.1c-0.18,0.707 -0.23,1.434 -0.15,2.18c0.03,0.28 0.28,0.49 0.57,0.48l7.79,-0.18c0.29,-0.01 0.54,-0.24 0.57,-0.53c0.253,-2.32 0.01,-4.433 -0.73,-6.34c-0.1,-0.26 -0.37,-0.44 -0.7,-0.45l-5.68,-0.17c-0.427,-0.013 -0.477,-0.16 -0.15,-0.44Z" style="fill:#281c19;fill-rule:nonzero;"/><path d="M68.933,30.445l5.68,0.17c0.33,0.01 0.6,0.19 0.7,0.45c0.74,1.907 0.983,4.02 0.73,6.34c-0.03,0.29 -0.28,0.52 -0.57,0.53l-7.79,0.18c-0.29,0.01 -0.54,-0.2 -0.57,-0.48c-0.08,-0.746 -0.03,-1.473 0.15,-2.18c0.273,-1.053 0.417,-1.753 0.43,-2.1c0.113,-3.06 -0.353,-6.043 -1.4,-8.95c-0.09,-0.27 0.07,-0.55 0.32,-0.55l5.73,-0.05c0.68,-0.01 1.38,0.37 1.86,1.01c0.953,1.26 1.353,2.53 1.2,3.81c-0.04,0.3 -0.26,0.55 -0.57,0.63c-1.693,0.46 -3.43,0.604 -5.21,0.43c-0.287,-0.026 -0.567,0.08 -0.84,0.32c-0.327,0.28 -0.277,0.427 0.15,0.44Z" style="fill:#fff;fill-rule:nonzero;"/><path d="M31.773,26.455c4.007,-0.62 7.297,-0.793 9.87,-0.52c1.033,0.114 1.217,0.557 0.55,1.33l-3.49,4.06c-0.21,0.24 -0.5,0.4 -0.83,0.45c-1.793,0.24 -2.947,-0.41 -3.46,-1.95c-0.25,-0.76 -1.13,-1.12 -1.84,-0.75c-1.987,1.047 -2.753,0.634 -2.3,-1.24c0.18,-0.72 0.77,-1.26 1.5,-1.38Z" style="fill:#fff;fill-rule:nonzero;"/><path d="M44.123,28.975c-0.293,-0.24 -0.627,-0.35 -1,-0.33c0.493,-0.36 0.897,-0.803 1.21,-1.33c0.13,-0.22 0.4,-0.4 0.73,-0.49l3.6,-0.94c0.39,-0.1 0.73,-0.1 0.91,0c0.293,0.167 0.54,0.394 0.74,0.68c0.2,0.287 0.43,0.514 0.69,0.68c1.367,0.9 1.473,2.207 0.32,3.92c-0.46,0.68 -1.39,0.83 -2.04,0.34c-1.507,-1.146 -3.227,-1.99 -5.16,-2.53Z" style="fill:#fff;fill-rule:nonzero;"/><path d="M21.723,28.875c-1.373,-0.993 -2.913,-1.27 -4.62,-0.83c-0.27,0.07 -0.54,-0.1 -0.56,-0.36c-0.107,-1.253 0.663,-1.713 2.31,-1.38c2.933,0.6 5.797,0.574 8.59,-0.08c2.073,-0.48 2.74,0.277 2,2.27c-0.84,2.254 -2.357,3.35 -4.55,3.29c-0.967,-0.026 -1.647,-0.02 -2.04,0.02c-3.073,0.274 -3.45,-0.5 -1.13,-2.32c0.2,-0.16 0.2,-0.47 0,-0.61Z" style="fill:#fff;fill-rule:nonzero;"/><path d="M11.973,31.185l-3.3,0.87c-0.347,0.094 -0.467,-0.046 -0.36,-0.42c0.82,-2.86 2.737,-4.473 5.75,-4.84c0.35,-0.04 0.67,0.07 0.84,0.3c0.393,0.534 0.2,1.05 -0.58,1.55c-0.74,0.48 -1.303,1.114 -1.69,1.9c-0.16,0.33 -0.41,0.57 -0.66,0.64Z" style="fill:#fff;fill-rule:nonzero;"/><path d="M43.123,28.645c0.373,-0.02 0.707,0.09 1,0.33c-1.12,1.487 -1.453,1.377 -1,-0.33Z" style="fill:#fff;fill-rule:nonzero;"/><path d="M56.833,39.185c0.52,-1.06 0.603,-2.143 0.25,-3.25c0.42,-1.786 1.08,-3.476 1.98,-5.07c0.84,-1.493 1.54,-1.43 2.1,0.19c0.487,1.4 0.557,2.884 0.21,4.45c-0.053,0.24 -0.107,0.87 -0.16,1.89c-0.053,0.907 -0.563,1.43 -1.53,1.57c-0.313,0.04 -0.62,0.137 -0.92,0.29c-0.667,0.334 -1.31,0.31 -1.93,-0.07Z" style="fill:#fff;fill-rule:nonzero;"/><path d="M51.123,42.975l-3.25,-0.25l-0.95,-2.13c-0.09,-0.21 -0.42,-0.29 -0.76,-0.19l-3.58,1.03l0.75,-3.5c1.607,-5.6 4.653,-7.003 9.14,-4.21c1.1,0.687 1.417,1.667 0.95,2.94l-2.3,6.31Z" style="fill:#fff;fill-rule:nonzero;"/><path d="M12.083,43.435l-4.46,0.04c-0.84,-1.453 -0.96,-2.993 -0.36,-4.62c0.433,-1.18 0.503,-2.33 0.21,-3.45c-0.15,-0.58 0.23,-1.17 0.82,-1.28c0.867,-0.16 1.61,-0.523 2.23,-1.09c0.25,-0.23 0.57,-0.31 0.82,-0.21c0.667,0.267 0.927,0.72 0.78,1.36c-0.52,2.267 -0.2,2.53 0.96,0.79c0.18,-0.273 0.367,-0.476 0.56,-0.61c0.78,-0.526 1.057,-0.18 0.83,1.04c-0.187,0.994 -0.297,2 -0.33,3.02c-0.047,1.474 -0.747,2.417 -2.1,2.83c-0.21,0.06 -0.33,0.31 -0.28,0.57l0.32,1.61Z" style="fill:#fff;fill-rule:nonzero;"/><path d="M28.373,40.725c-1.007,-0.126 -2.037,0.194 -3.09,0.96c-0.3,0.21 -0.36,0.63 -0.14,0.92c0.573,0.734 0.403,1.054 -0.51,0.96c-1.087,-0.113 -2.16,-0.073 -3.22,0.12c0.233,-1.02 0.063,-1.88 -0.51,-2.58c-0.2,-0.24 -0.51,-0.37 -0.84,-0.36l-3.88,0.1c-0.3,0.01 -0.55,-0.2 -0.58,-0.47c-0.367,-2.84 1.623,-4.853 5.97,-6.04c1.147,-0.313 2.24,-0.76 3.28,-1.34c2.253,-1.253 3.217,-0.296 2.89,2.87c-0.03,0.3 0.12,0.59 0.38,0.74c1.68,1.014 1.763,2.387 0.25,4.12Z" style="fill:#fff;fill-rule:nonzero;"/><path d="M41.913,37.685l-0.54,2.96c-1.667,-0.166 -2.667,0.347 -3,1.54c-0.32,1.147 -0.973,1.597 -1.96,1.35c-0.27,-0.07 -0.48,-0.33 -0.52,-0.67c-0.173,-1.406 -0.82,-1.506 -1.94,-0.3c-0.19,0.2 -0.5,0.22 -0.71,0.05c-0.727,-0.62 -1.47,-1.22 -2.23,-1.8c-1.133,-0.86 -1.17,-1.563 -0.11,-2.11c0.69,-0.36 1.26,-0.9 1.65,-1.57c1.48,-2.526 3.647,-3.896 6.5,-4.11c0.32,-0.03 0.64,0.1 0.85,0.35c1.053,1.234 1.723,2.67 2.01,4.31Z" style="fill:#fff;fill-rule:nonzero;"/><path d="M57.083,35.935c0.353,1.107 0.27,2.19 -0.25,3.25c-1.713,-1.453 -1.63,-2.536 0.25,-3.25Z" style="fill:#8d7776;fill-rule:nonzero;"/><path d="M41.913,37.685l1.42,0.25l-0.75,3.5c-0.22,-0.54 -0.623,-0.803 -1.21,-0.79l0.54,-2.96Z" style="fill:#b0898f;fill-rule:nonzero;"/><path d="M65.123,38.895l2,0.75c-0.227,0.114 -0.323,0.294 -0.29,0.54c-0.607,0 -0.76,0.26 -0.46,0.78c0.627,1.067 0.71,2.21 0.25,3.43c-1.033,0.027 -1.563,-0.436 -1.59,-1.39c-0.01,-0.33 -0.12,-0.64 -0.31,-0.88c-0.887,-1.1 -0.753,-2.176 0.4,-3.23Z" style="fill:#b0898f;fill-rule:nonzero;"/><path d="M67.123,39.645l8.8,0.2c0.32,0.01 0.61,0.18 0.76,0.46c0.9,1.7 1.02,3.674 0.36,5.92c-0.25,0.83 -0.93,1.42 -1.71,1.47l-7.96,0.52c-0.347,0.02 -0.423,-0.126 -0.23,-0.44c1.6,-2.573 1.497,-5.103 -0.31,-7.59c-0.033,-0.246 0.063,-0.426 0.29,-0.54Z" style="fill:#fff;fill-rule:nonzero;"/><path d="M62.333,40.435c0.773,1.834 0.773,3.667 0,5.5l-0.92,0l-0.29,-5.21c0.347,-0.28 0.75,-0.376 1.21,-0.29Z" style="fill:#8d7776;fill-rule:nonzero;"/><path d="M28.373,40.725c-0.907,0.207 -1.683,0.597 -2.33,1.17c-0.19,0.17 -0.29,0.48 -0.28,0.85l0.07,2.94l-3.46,-0.29l-0.96,-1.71c1.06,-0.193 2.133,-0.233 3.22,-0.12c0.913,0.094 1.083,-0.226 0.51,-0.96c-0.22,-0.29 -0.16,-0.71 0.14,-0.92c1.053,-0.766 2.083,-1.086 3.09,-0.96Z" style="fill:#8d7776;fill-rule:nonzero;"/><path d="M61.123,40.725l0.29,5.21l-0.58,1.25c-1.053,0.56 -2.207,0.574 -3.46,0.04c-1.347,-0.28 -1.91,-1.023 -1.69,-2.23c0.227,-1.24 0.727,-2.24 1.5,-3c1.073,-1.06 2.387,-1.483 3.94,-1.27Z" style="fill:#fff;fill-rule:nonzero;"/><path d="M47.873,42.725l3.25,0.25c-0.82,0.047 -1.487,0.354 -2,0.92c-0.593,-0.093 -0.997,0.087 -1.21,0.54l-0.04,-1.71Z" style="fill:#8d7776;fill-rule:nonzero;"/><path d="M7.623,43.475l4.46,-0.04l1.29,3.21c-0.5,0.067 -0.95,-0.053 -1.35,-0.36c-1.507,-1.153 -2.96,-1.02 -4.36,0.4l-0.09,-0.17c-0.05,-0.1 -0.04,-0.2 0.03,-0.25c1.193,-0.813 1.2,-1.743 0.02,-2.79Z" style="fill:#8d7776;fill-rule:nonzero;"/><path d="M49.123,43.895c3.773,2.334 4.773,5.367 3,9.1c-0.373,0.774 -0.83,1.29 -1.37,1.55c-0.653,0.3 -1.29,0.26 -1.91,-0.12c-0.23,-0.14 -0.37,-0.44 -0.38,-0.79c-0.04,-1.313 -0.91,-2.363 -2.61,-3.15c-0.42,-0.2 -0.92,-0.13 -1.28,0.16c-1.34,1.06 -2.067,0.82 -2.18,-0.72c-0.02,-0.23 0.11,-0.53 0.35,-0.83l1.94,-2.41c0.21,-0.26 0.48,-0.42 0.75,-0.45c1.16,-0.106 1.987,-0.706 2.48,-1.8c0.213,-0.453 0.617,-0.633 1.21,-0.54Z" style="fill:#fff;fill-rule:nonzero;"/><path d="M33.163,47.185c0.7,-0.46 1.257,-1.043 1.67,-1.75c2.013,-0.54 3.497,-0.733 4.45,-0.58c1.58,0.26 2.307,1.19 2.18,2.79c-0.307,3.974 -1.753,6.214 -4.34,6.72c-0.31,0.06 -0.6,0.2 -0.85,0.42c-1.033,0.914 -1.693,0.244 -1.98,-2.01c-0.08,-0.63 -0.69,-1.06 -1.32,-0.92c-1.793,0.407 -2.697,-0.013 -2.71,-1.26c-0.007,-0.713 -0.007,-1.32 0,-1.82c0.013,-0.98 0.613,-1.406 1.8,-1.28c0.453,0.347 0.82,0.244 1.1,-0.31Z" style="fill:#fff;fill-rule:nonzero;"/><path d="M25.833,45.685l1.79,2.79l0.79,1.96l-4.47,4.61c-0.24,0.25 -0.55,0.36 -0.81,0.3c-0.773,-0.186 -1.443,-0.586 -2.01,-1.2c-0.953,-1.066 -2.12,-1.706 -3.5,-1.92c-0.307,-0.76 -0.807,-1.356 -1.5,-1.79c-1.927,-1.193 -1.697,-2.213 0.69,-3.06l5.56,-1.98l3.46,0.29Z" style="fill:#fff;fill-rule:nonzero;"/><path d="M34.833,45.435c-0.413,0.707 -0.97,1.29 -1.67,1.75c-1.507,-1.926 -0.95,-2.51 1.67,-1.75Z" style="fill:#e0dcb8;fill-rule:nonzero;"/><path d="M13.373,46.645c0.98,1.76 1.197,3.617 0.65,5.57c-0.09,0.31 -0.3,0.56 -0.58,0.7l-3.07,1.56c-0.667,-0.173 -1.25,0.05 -1.75,0.67c-0.367,0.12 -0.703,0.117 -1.01,-0.01c-0.25,-0.1 -0.4,-0.41 -0.36,-0.76c0.213,-1.873 0.207,-3.746 -0.02,-5.62c-0.007,-0.04 -0.077,-0.286 -0.21,-0.74c-0.153,-0.5 0.06,-0.943 0.64,-1.33c1.4,-1.42 2.853,-1.553 4.36,-0.4c0.4,0.307 0.85,0.427 1.35,0.36Z" style="fill:#fff;fill-rule:nonzero;"/><path d="M57.373,47.225c1.253,0.534 2.407,0.52 3.46,-0.04c0.56,2.32 -0.113,2.984 -2.02,1.99c-0.22,-0.11 -0.45,-0.35 -0.66,-0.69l-0.78,-1.26Z" style="fill:#8d7776;fill-rule:nonzero;"/><path d="M27.623,48.475c1.38,0.107 1.643,0.76 0.79,1.96l-0.79,-1.96Z" style="fill:#b0898f;fill-rule:nonzero;"/><path d="M73.373,58.475c-1.98,-1.146 -3.973,-1.33 -5.98,-0.55c-0.327,0.134 -0.313,0.244 0.04,0.33c1.94,0.474 3.907,0.617 5.9,0.43c0.033,2.08 -0.62,3.9 -1.96,5.46c-2.32,-0.52 -4.56,-0.326 -6.72,0.58c-0.287,0.12 -0.527,0.15 -0.72,0.09c-0.44,-0.14 -0.43,-0.486 0.03,-1.04c1.98,-2.413 2.693,-5.116 2.14,-8.11c-0.093,-0.48 -0.133,-1.136 -0.12,-1.97c0.013,-0.693 -0.12,-1.363 -0.4,-2.01c-0.007,-0.4 -0.173,-0.733 -0.5,-1c0.36,-0.5 0.957,-0.75 1.79,-0.75l7.75,0c0.29,0 0.54,0.21 0.59,0.49c0.46,2.927 -0.153,5.61 -1.84,8.05Z" style="fill:#fff;fill-rule:nonzero;"/><path d="M63.873,50.395l1.21,0.29c0.327,0.267 0.493,0.6 0.5,1c-0.207,-0.066 -0.393,-0.073 -0.56,-0.02c-0.16,0.05 -0.36,0.34 -0.52,0.75c-0.24,0.64 -0.783,0.884 -1.63,0.73c-0.653,-0.566 -0.917,-1.303 -0.79,-2.21c0.413,-0.513 1.01,-0.693 1.79,-0.54Z" style="fill:#fff;fill-rule:nonzero;"/><path d="M62.083,50.935c-0.127,0.907 0.137,1.644 0.79,2.21c-0.52,0.327 -1.09,0.507 -1.71,0.54c0.207,-0.846 0.193,-1.666 -0.04,-2.46l0.96,-0.29Z" style="fill:#8d7776;fill-rule:nonzero;"/><path d="M61.123,51.225c0.233,0.794 0.247,1.614 0.04,2.46l-0.29,4.48c-0.02,0.25 -0.28,0.42 -0.54,0.34c-1.827,-0.573 -3.393,-1.463 -4.7,-2.67c-0.7,-0.646 -1.083,-1.3 -1.15,-1.96c-0.073,-0.713 0.13,-1.38 0.61,-2c0.23,-0.28 0.53,-0.45 0.83,-0.46l5.2,-0.19Z" style="fill:#fff;fill-rule:nonzero;"/><path d="M17.623,52.225c1.38,0.214 2.547,0.854 3.5,1.92c-1.64,0.18 -2.807,-0.46 -3.5,-1.92Z" style="fill:#8d7776;fill-rule:nonzero;"/><path d="M10.373,54.475c-0.193,0.814 -0.777,1.037 -1.75,0.67c0.5,-0.62 1.083,-0.843 1.75,-0.67Z" style="fill:#b0898f;fill-rule:nonzero;"/><path d="M59.873,61.895c-1.213,-0.286 -1.463,-0.843 -0.75,-1.67c0.5,0.114 0.933,0.064 1.3,-0.15c0.24,-0.14 0.457,-0.463 0.65,-0.97c0.533,-1.373 1.39,-2.483 2.57,-3.33c0.22,-0.16 0.54,-0.08 0.65,0.17c0.953,1.98 0.68,4.014 -0.82,6.1c-0.35,0.49 -1.03,0.61 -1.53,0.28c-0.867,-0.586 -1.557,-0.73 -2.07,-0.43Z" style="fill:#fff;fill-rule:nonzero;"/><path d="M40.663,62.935c-1.047,-1.786 -1.477,-1.69 -1.29,0.29c-0.967,1.014 -2.133,1.264 -3.5,0.75c0.66,-1.313 0.323,-2.13 -1.01,-2.45c-0.29,-0.07 -0.59,0.1 -0.67,0.38c-0.147,0.474 -0.17,0.97 -0.07,1.49c-0.66,0.107 -1.257,-0.046 -1.79,-0.46c0.64,-2.486 0.237,-2.75 -1.21,-0.79c-0.707,0.214 -0.957,-0.023 -0.75,-0.71c0.227,-0.733 0.69,-1.453 1.39,-2.16c0.21,-0.21 0.52,-0.3 0.85,-0.25c2.033,0.314 3.063,-0.53 3.09,-2.53c0,-0.28 0.24,-0.48 0.48,-0.41l3.16,0.96c0.25,0.08 0.51,0.32 0.69,0.66c0.34,0.64 1.017,1.737 2.03,3.29c0.86,1.34 0.393,1.987 -1.4,1.94Z" style="fill:#fff;fill-rule:nonzero;"/><path d="M44.333,58.685c1.1,0.807 2.217,0.744 3.35,-0.19c0.92,-0.753 0.88,-1.253 -0.12,-1.5c-0.413,-0.1 -0.573,-0.37 -0.48,-0.81c3.493,-1.046 5.317,0.097 5.47,3.43c0.01,0.27 -0.1,0.59 -0.31,0.9l-1.44,2.16c-0.22,0.33 -0.49,0.54 -0.73,0.57c-0.36,0.034 -0.71,-0.053 -1.05,-0.26c-0.22,-0.13 -0.5,-0.07 -0.63,0.15c-0.433,0.674 -1.033,0.914 -1.8,0.72c-0.34,-0.09 -0.66,-0.08 -0.93,0.03c-1.16,0.474 -1.607,0.35 -1.34,-0.37c0.28,-0.78 0.12,-1.66 -0.42,-2.29c-1.58,-1.833 -1.437,-2.68 0.43,-2.54Z" style="fill:#fff;fill-rule:nonzero;"/><path d="M47.083,56.185c-0.093,0.44 0.067,0.71 0.48,0.81c1,0.247 1.04,0.747 0.12,1.5c-1.133,0.934 -2.25,0.997 -3.35,0.19l2.75,-2.5Z" style="fill:#8d7776;fill-rule:nonzero;"/><path d="M27.623,58.895c-0.953,-0.346 -1.62,-1.013 -2,-2c1.2,0 1.867,0.667 2,2Z" style="fill:#b0898f;fill-rule:nonzero;"/><path d="M9.623,62.725c-0.953,-0.213 -1.283,-0.81 -0.99,-1.79c0.287,-0.96 0.033,-1.53 -0.76,-1.71c-0.76,-0.826 -0.683,-1.44 0.23,-1.84c2.14,-0.933 3.61,-0.426 4.41,1.52c0.11,0.26 0.37,0.44 0.67,0.48c0.753,0.087 1.11,0.524 1.07,1.31c-0.033,0.634 -0.033,1.124 0,1.47c0.107,1.02 -0.263,1.447 -1.11,1.28c-0.927,-0.186 -1.46,-0.286 -1.6,-0.3c-0.647,-0.06 -1.287,-0.2 -1.92,-0.42Z" style="fill:#fff;fill-rule:nonzero;"/><path d="M25.623,56.895c0.38,0.987 1.047,1.654 2,2c0.967,0.954 1.287,2.077 0.96,3.37c-0.08,0.32 -0.3,0.58 -0.59,0.7c-0.42,0.16 -0.863,0.234 -1.33,0.22c-1.047,-0.686 -1.393,-0.353 -1.04,1c0.193,0.734 -0.14,0.997 -1,0.79c-0.587,-0.593 -1.297,-0.89 -2.13,-0.89c-1.06,0 -1.643,-0.006 -1.75,-0.02c-0.953,-0.126 -1.91,-0.236 -2.87,-0.33c-0.26,-0.03 -0.58,0.06 -0.9,0.25c-0.48,0.287 -0.91,0.237 -1.29,-0.15c-0.2,-0.2 -0.3,-0.52 -0.28,-0.89l0.21,-3.88c0.04,-0.63 0.65,-1.06 1.25,-0.88c1.767,0.514 3.383,0.28 4.85,-0.7c0.24,-0.16 0.54,-0.26 0.9,-0.3l3.01,-0.29Z" style="fill:#fff;fill-rule:nonzero;"/><path d="M73.373,58.475l-0.04,0.21c-1.993,0.187 -3.96,0.044 -5.9,-0.43c-0.353,-0.086 -0.367,-0.196 -0.04,-0.33c2.007,-0.78 4,-0.596 5.98,0.55Z" style="fill:#672c35;fill-rule:nonzero;"/><path d="M56.623,59.225l2.5,3.67l3.6,3.11c0.43,0.37 0.43,1.07 0.01,1.56c-0.507,0.587 -0.913,1.204 -1.22,1.85c-0.447,0.954 -0.833,1.554 -1.16,1.8c-0.98,0.734 -2.037,0.62 -3.17,-0.34c-0.673,-0.58 -1.853,-2.64 -3.54,-6.18c-0.13,-0.28 -0.11,-0.6 0.05,-0.88c0.88,-1.5 1.273,-2.71 1.18,-3.63c-0.16,-1.6 0.423,-1.92 1.75,-0.96Z" style="fill:#fff;fill-rule:nonzero;"/><path d="M7.873,59.225c0.793,0.18 1.047,0.75 0.76,1.71c-0.293,0.98 0.037,1.577 0.99,1.79c-0.88,0.7 -1.323,0.584 -1.33,-0.35c0,-1.066 -0.14,-2.116 -0.42,-3.15Z" style="fill:#e0dcb8;fill-rule:nonzero;"/><path d="M56.623,59.225l2.5,1c-0.713,0.827 -0.463,1.384 0.75,1.67c-0.42,0.134 -0.67,0.467 -0.75,1l-2.5,-3.67Z" style="fill:#b0898f;fill-rule:nonzero;"/><path d="M32.333,62.935l-1.21,-0.79c1.447,-1.96 1.85,-1.696 1.21,0.79Z" style="fill:#e0dcb8;fill-rule:nonzero;"/><path d="M35.873,63.975c-0.627,-0.066 -1.21,-0.26 -1.75,-0.58c-0.1,-0.52 -0.077,-1.016 0.07,-1.49c0.08,-0.28 0.38,-0.45 0.67,-0.38c1.333,0.32 1.67,1.137 1.01,2.45Z" style="fill:#e0dcb8;fill-rule:nonzero;"/><path d="M40.663,62.935c-0.373,0.267 -0.803,0.364 -1.29,0.29c-0.187,-1.98 0.243,-2.076 1.29,-0.29Z" style="fill:#8d7776;fill-rule:nonzero;"/><path d="M26.663,63.185c-0.433,0.367 -0.59,0.797 -0.47,1.29c0.07,0.32 -0.04,0.62 -0.26,0.69c-0.42,0.154 -0.857,0.09 -1.31,-0.19c0.86,0.207 1.193,-0.056 1,-0.79c-0.353,-1.353 -0.007,-1.686 1.04,-1Z" style="fill:#8d7776;fill-rule:nonzero;"/><path d="M62.373,70.965c-0.11,-0.02 -0.19,-0.12 -0.17,-0.23c0.427,-2.813 1.88,-4.19 4.36,-4.13c0.893,0.02 1.767,-0.103 2.62,-0.37c1.847,-0.573 2.363,-0.193 1.55,1.14c-1.86,3.027 -4.647,4.224 -8.36,3.59Z" style="fill:#fff;fill-rule:nonzero;"/><path d="M45.423,66.765c2.053,-0.386 2.937,0.557 2.65,2.83c-0.12,0.94 -1,1.59 -1.94,1.43c-3.7,-0.646 -7.263,-0.873 -10.69,-0.68c-0.32,0.02 -0.6,-0.16 -0.69,-0.44c-0.253,-0.74 -0.27,-1.49 -0.05,-2.25c0.08,-0.27 0.36,-0.45 0.67,-0.43c2.5,0.18 4.917,-0.166 7.25,-1.04c0.533,-0.2 1.167,-0.066 1.9,0.4c0.27,0.17 0.59,0.24 0.9,0.18Z" style="fill:#fff;fill-rule:nonzero;"/><path d="M16.713,69.705c1.087,-2.353 2.297,-3.323 3.63,-2.91c2.407,0.747 5.017,0.744 7.83,-0.01c0.45,-0.12 0.88,0.27 0.8,0.73c-0.393,2.567 -1.673,3.69 -3.84,3.37c-2.98,-0.446 -5.543,-0.513 -7.69,-0.2c-0.847,0.127 -1.09,-0.2 -0.73,-0.98Z" style="fill:#fff;fill-rule:nonzero;"/><path d="M10.783,67.215c1.64,-0.466 2.21,0.014 1.71,1.44c-0.1,0.3 -0.34,0.55 -0.64,0.66c-1.473,0.554 -2.03,0.067 -1.67,-1.46c0.07,-0.3 0.3,-0.55 0.6,-0.64Z" style="fill:#8d7776;fill-rule:nonzero;"/><path d="M50.413,74.935c0.1,-0.593 -0.067,-1.01 -0.5,-1.25c-0.16,-1.193 0.473,-2.213 1.9,-3.06c1.493,-0.886 2.533,-0.77 3.12,0.35c0.14,0.26 0.05,0.6 -0.2,0.78l-4.32,3.18Z" style="fill:#fff;fill-rule:nonzero;"/><path d="M13.373,73.725c-2.067,-0.08 -3.317,-0.093 -3.75,-0.04c-2.113,0.254 -2.793,-0.58 -2.04,-2.5c1.673,-0.633 3.677,-0.89 6.01,-0.77c0.9,0.04 1.65,0.68 1.84,1.55c0.327,1.5 -0.36,2.087 -2.06,1.76Z" style="fill:#fff;fill-rule:nonzero;"/><path d="M6.373,70.895c0.447,-0.04 0.85,0.057 1.21,0.29c-0.753,1.92 -0.073,2.754 2.04,2.5c0.433,-0.053 1.683,-0.04 3.75,0.04c1.387,-0.013 1.72,0.32 1,1l-5,0c-1.86,0.374 -2.8,1.487 -2.82,3.34c-0.007,0.32 0.073,0.59 0.24,0.81c0.327,0.44 0.657,0.457 0.99,0.05c0.027,-0.033 0.12,-0.34 0.28,-0.92c0.093,-0.353 0.433,-0.46 1.02,-0.32l0.04,0.35c0.02,0.18 0.21,0.3 0.41,0.26c0.887,-0.16 1.773,-0.146 2.66,0.04c0.313,0.06 0.57,0.19 0.77,0.39c0.593,0.587 0.23,0.87 -1.09,0.85c-1.407,-0.026 -2.683,0.33 -3.83,1.07c-0.26,0.16 -0.35,0.48 -0.22,0.74c0.767,1.507 2.04,1.96 3.82,1.36c0.48,-0.16 0.903,-0.096 1.27,0.19c-0.18,0.527 -0.61,0.777 -1.29,0.75c-2.107,-0.08 -3.84,-0.236 -5.2,-0.47c-0.29,-0.05 -0.52,-0.29 -0.56,-0.59c-0.333,-2.506 -0.203,-4.99 0.39,-7.45c0.07,-0.29 0.01,-0.63 -0.16,-0.92c-0.653,-1.146 -0.56,-2.266 0.28,-3.36Z" style="fill:#281c19;fill-rule:nonzero;"/><path d="M65.433,72.125c0.62,0.32 0.62,0.694 0,1.12c-1.447,1 -2.8,1.147 -4.06,0.44c-1.32,-0.733 -1.217,-1.546 0.31,-2.44c0.66,-0.38 1.91,-0.086 3.75,0.88Z" style="fill:#fff;fill-rule:nonzero;"/><path d="M45.873,73.395l-4.46,0.54c-1.453,-0.633 -2.913,-0.713 -4.38,-0.24c-0.28,0.094 -0.6,0.13 -0.96,0.11l-5.48,-0.37c-0.927,-0.06 -2.347,-0.04 -4.26,0.06l-8.96,0.48c-0.44,-0.413 -0.603,-0.876 -0.49,-1.39c0.07,-0.27 0.34,-0.48 0.67,-0.5c10.373,-0.82 19.563,-0.87 27.57,-0.15c0.653,0.06 0.903,0.547 0.75,1.46Z" style="fill:#fff;fill-rule:nonzero;"/><path d="M54.42,73.598c1.676,-0.396 3.163,-0.181 3.319,0.479c0.157,0.661 -1.077,1.519 -2.753,1.915c-1.676,0.396 -3.163,0.182 -3.319,-0.479c-0.156,-0.661 1.077,-1.519 2.753,-1.915Z" style="fill:#fff;"/><path d="M41.413,73.935c-1.207,0.7 -2.477,0.84 -3.81,0.42c-0.367,-0.113 -0.693,-0.14 -0.98,-0.08c-1.267,0.267 -1.343,0.6 -0.23,1c0.27,0.1 0.61,0.11 0.95,0.03c1.52,-0.36 2.947,-0.163 4.28,0.59c-3.827,0.46 -7.66,0.544 -11.5,0.25c-0.293,-0.513 -0.793,-0.68 -1.5,-0.5c1.387,0.18 2.123,-0.123 2.21,-0.91c0.03,-0.26 -0.22,-0.48 -0.53,-0.47l-9.39,0.23c-0.36,0.01 -0.66,0.18 -0.71,0.42c-0.047,0.2 0.01,0.387 0.17,0.56c-1.833,0.78 -2.833,0.28 -3,-1.5l8.96,-0.48c1.913,-0.1 3.333,-0.12 4.26,-0.06l5.48,0.37c0.36,0.02 0.68,-0.016 0.96,-0.11c1.467,-0.473 2.927,-0.393 4.38,0.24Z" style="fill:#b0898f;fill-rule:nonzero;"/><path d="M45.873,73.395c1.107,-0.093 2.107,0.184 3,0.83c0.22,0.274 0.303,0.58 0.25,0.92c-2.493,-0.133 -4.923,0.13 -7.29,0.79l-0.21,-0.04c-1.333,-0.753 -2.76,-0.95 -4.28,-0.59c-0.34,0.08 -0.68,0.07 -0.95,-0.03c-1.113,-0.4 -1.037,-0.733 0.23,-1c0.287,-0.06 0.613,-0.033 0.98,0.08c1.333,0.42 2.603,0.28 3.81,-0.42l4.46,-0.54Z" style="fill:#e0dcb8;fill-rule:nonzero;"/><path d="M49.913,73.685c0.433,0.24 0.6,0.657 0.5,1.25c-0.367,0.307 -0.797,0.377 -1.29,0.21c0.053,-0.34 -0.03,-0.646 -0.25,-0.92c0.593,0.14 0.94,-0.04 1.04,-0.54Z" style="fill:#8d7776;fill-rule:nonzero;"/><path d="M28.623,75.645l-8.25,-0.17c-0.16,-0.173 -0.217,-0.36 -0.17,-0.56c0.05,-0.24 0.35,-0.41 0.71,-0.42l9.39,-0.23c0.31,-0.01 0.56,0.21 0.53,0.47c-0.087,0.787 -0.823,1.09 -2.21,0.91Z" style="fill:#e0dcb8;fill-rule:nonzero;"/><path d="M9.373,74.725l-0.29,2.96c-0.587,-0.14 -0.927,-0.033 -1.02,0.32c-0.16,0.58 -0.253,0.887 -0.28,0.92c-0.333,0.407 -0.663,0.39 -0.99,-0.05c-0.167,-0.22 -0.247,-0.49 -0.24,-0.81c0.02,-1.853 0.96,-2.966 2.82,-3.34Z" style="fill:#8d7776;fill-rule:nonzero;"/><path d="M9.373,74.725l5,0c1.067,0.494 1.263,1.207 0.59,2.14c-0.687,0.954 -0.827,1.98 -0.42,3.08c0.44,1.207 0.397,2.37 -0.13,3.49l-1.5,-0.5c-0.367,-0.286 -0.79,-0.35 -1.27,-0.19c-1.78,0.6 -3.053,0.147 -3.82,-1.36c-0.13,-0.26 -0.04,-0.58 0.22,-0.74c1.147,-0.74 2.423,-1.096 3.83,-1.07c1.32,0.02 1.683,-0.263 1.09,-0.85c-0.2,-0.2 -0.457,-0.33 -0.77,-0.39c-0.887,-0.186 -1.773,-0.2 -2.66,-0.04c-0.2,0.04 -0.39,-0.08 -0.41,-0.26l-0.04,-0.35l0.29,-2.96Z" style="fill:#fff;fill-rule:nonzero;"/><path d="M41.623,75.895l0.21,0.04c1.34,0.554 3.02,0.637 5.04,0.25c2.547,-0.486 3.493,0.417 2.84,2.71c-0.08,0.28 -0.35,0.47 -0.65,0.46c-5.34,-0.133 -10.683,-0.193 -16.03,-0.18c-0.053,0 -1.323,0.05 -3.81,0.15c-3.087,0.12 -6.127,-0.263 -9.12,-1.15c-1.46,-0.426 -1.443,-0.793 0.05,-1.1c3.107,-0.64 6.43,-0.95 9.97,-0.93c3.84,0.294 7.673,0.21 11.5,-0.25Z" style="fill:#fff;fill-rule:nonzero;"/><path d="M45.373,80.475l0,0.42c-1.16,0.447 -2.343,0.637 -3.55,0.57c-1.96,-0.113 -2.977,-0.166 -3.05,-0.16c-7.133,0.234 -14.267,0.12 -21.4,-0.34c-0.34,-0.02 -0.64,-0.18 -0.8,-0.42c-0.44,-0.673 -0.097,-0.97 1.03,-0.89c3.813,0.26 7.627,0.47 11.44,0.63c1.04,0.047 3.753,-0.04 8.14,-0.26c2.733,-0.133 5.463,0.017 8.19,0.45Z" style="fill:#fff;fill-rule:nonzero;"/><path d="M45.373,80.475c3.273,0.187 3.273,0.327 0,0.42l0,-0.42Z" style="fill:#b0898f;fill-rule:nonzero;"/></svg>