<?xml version="1.0" encoding="UTF-8" standalone="no"?><!DOCTYPE svg PUBLIC "-//W3C//DTD SVG 1.1//EN" "http://www.w3.org/Graphics/SVG/1.1/DTD/svg11.dtd"><svg width="100%" height="100%" viewBox="0 0 73 83" version="1.1" xmlns="http://www.w3.org/2000/svg" xmlns:xlink="http://www.w3.org/1999/xlink" xml:space="preserve" xmlns:serif="http://www.serif.com/" style="fill-rule:evenodd;clip-rule:evenodd;"><path d="M59.926,67.915l0.79,-5.21" style="fill:none;fill-rule:nonzero;stroke:#a4b38e;stroke-width:2px;"/><path d="M60.716,62.705l1.45,-2.27c0.31,-0.49 1.01,-0.5 1.29,-0.03c1,1.653 2.403,2.163 4.21,1.53c1.226,-0.433 1.27,-0.957 0.13,-1.57c-2.394,-1.293 -3.1,-3.237 -2.12,-5.83c3.446,-9.193 3.073,-17.923 -1.12,-26.19c-1.247,-2.453 -2.42,-4.867 -3.52,-7.24c-1.954,-4.213 -4.624,-7.893 -8.01,-11.04c-1.954,-1.807 -4.27,-3.12 -6.95,-3.94c-4.094,-1.247 -8.29,-1.913 -12.59,-2c-2.014,-0.033 -3.944,0.383 -5.79,1.25c-2.987,1.407 -5.827,3.077 -8.52,5.01c-1.687,1.213 -3.277,3.287 -4.77,6.22c-0.907,1.773 -3.277,5.777 -7.11,12.01c-1.307,2.12 -2.137,4.173 -2.49,6.16c-0.907,5.02 -0.91,10.077 -0.01,15.17c0.56,3.14 0.773,6.3 0.64,9.48c-0.067,1.747 0.213,1.93 0.84,0.55c0.7,-1.533 1.45,-1.907 2.25,-1.12c1.106,1.087 1.836,2.33 2.19,3.73c0.24,0.953 0.17,2.33 -0.21,4.13c-0.354,1.627 -0.654,3.26 -0.9,4.9c-0.04,0.28 0.18,0.52 0.43,0.47c0.5,-0.093 0.85,-0.457 1.05,-1.09c0.486,-1.5 1.246,-2.823 2.28,-3.97c0.21,-0.22 0.53,-0.3 0.83,-0.2c2.366,0.82 4.443,2.123 6.23,3.91c0.233,0.24 0.51,0.407 0.83,0.5c2.706,0.8 5.003,2.403 6.89,4.81c0.38,0.48 0.89,0.83 1.48,1.02c4.453,1.393 8.713,1.407 12.78,0.04c1.78,-0.6 3.17,-1.99 4.17,-4.17c0.13,-0.29 0.38,-0.52 0.68,-0.62c3.346,-1.227 6.296,-3.077 8.85,-5.55c0.22,-0.21 0.55,-0.25 0.78,-0.09c0.566,0.413 1.006,0.943 1.32,1.59c0.16,0.33 0.39,0.58 0.64,0.69c0.96,0.433 1.32,0.087 1.08,-1.04" style="fill:none;fill-rule:nonzero;stroke:#83936e;stroke-width:2px;"/><path d="M60.716,62.705l-0.96,0.46" style="fill:none;fill-rule:nonzero;stroke:#446647;stroke-width:2px;"/><path d="M59.756,63.165c-0.194,-1.4 -0.31,-2.803 -0.35,-4.21c-0.034,-1.233 -0.127,-2.63 -0.28,-4.19c-0.447,-4.487 0.16,-8.857 1.82,-13.11c0.313,-0.8 0.5,-1.63 0.56,-2.49" style="fill:none;fill-rule:nonzero;stroke:#90a292;stroke-width:2px;"/><path d="M61.506,39.165c0.36,-0.06 0.526,0.107 0.5,0.5" style="fill:none;fill-rule:nonzero;stroke:#7d8a6a;stroke-width:2px;"/><path d="M62.006,39.665c-0.354,2.207 -0.86,4.377 -1.52,6.51c-0.574,1.847 -0.57,3.637 0.01,5.37c0.673,2.02 1.043,3.14 1.11,3.36c0.406,1.44 1.026,2.79 1.86,4.05" style="fill:none;fill-rule:nonzero;stroke:#90a292;stroke-width:2px;"/><path d="M63.466,58.955c0.26,1.1 0.906,1.72 1.94,1.86c0.42,0.06 0.543,-0.093 0.37,-0.46l-1.02,-2.19" style="fill:none;fill-rule:nonzero;stroke:#7d8a6a;stroke-width:2px;"/><path d="M64.756,58.165c-1.507,-6.487 -2.034,-13.07 -1.58,-19.75" style="fill:none;fill-rule:nonzero;stroke:#90a292;stroke-width:2px;"/><path d="M63.176,38.415c-0.087,-0.653 -0.31,-1.237 -0.67,-1.75" style="fill:none;fill-rule:nonzero;stroke:#7d8a6a;stroke-width:2px;"/><path d="M62.506,36.665c-0.76,-3.08 -1.19,-5.83 -1.29,-8.25c-0.247,-5.787 -2.274,-10.68 -6.08,-14.68c-0.48,-0.5 -0.897,-0.657 -1.25,-0.47c-0.23,0.12 -0.26,0.47 -0.08,0.76c2.48,3.88 4.236,8.05 5.27,12.51c0.113,0.5 0.2,1.763 0.26,3.79c0.033,1.247 0.3,2.51 0.8,3.79c0.44,1.147 0.343,2.227 -0.29,3.24l-4.42,7.08c-0.18,0.28 -0.28,0.6 -0.29,0.92c-0.107,4.867 0.486,9.64 1.78,14.32c0.686,2.473 1.203,4.983 1.55,7.53" style="fill:none;fill-rule:nonzero;stroke:#90a292;stroke-width:2px;"/><path d="M58.466,67.205c0.26,0.64 0.746,0.877 1.46,0.71" style="fill:none;fill-rule:nonzero;stroke:#446647;stroke-width:2px;"/><path d="M62.506,36.665c-0.647,0.693 -0.98,1.527 -1,2.5" style="fill:none;fill-rule:nonzero;stroke:#ebe7d6;stroke-width:2px;"/><path d="M59.756,63.165c-0.107,0.867 -0.254,1.727 -0.44,2.58c-0.034,0.14 -0.047,0.42 -0.04,0.84c0.013,0.487 -0.257,0.693 -0.81,0.62" style="fill:none;fill-rule:nonzero;stroke:#b2c3b3;stroke-width:2px;"/><path d="M64.756,58.165c-0.02,0.74 -0.45,1.003 -1.29,0.79" style="fill:none;fill-rule:nonzero;stroke:#ebe7d6;stroke-width:2px;"/><path d="M63.176,38.415c-0.82,-0.093 -1.21,0.323 -1.17,1.25" style="fill:none;fill-rule:nonzero;stroke:#ebe7d6;stroke-width:2px;"/><path d="M9.426,46.165c-0.914,0.347 -1.234,-0.153 -0.96,-1.5c0.46,-2.253 0.856,-6.1 1.19,-11.54c0.006,-0.073 0.123,-0.7 0.35,-1.88c0.186,-0.98 -0.147,-1.613 -1,-1.9c-0.73,-0.24 -1.52,0.16 -1.75,0.89c-2.194,7 -2.457,13.727 -0.79,20.18c0.133,0.507 0.55,0.687 1.25,0.54" style="fill:none;fill-rule:nonzero;stroke:#234c2a;stroke-width:2px;"/><path d="M7.716,50.955c-0.507,1.687 -1.044,3.367 -1.61,5.04c-0.107,0.313 -0.17,0.603 -0.19,0.87c-0.1,1.22 0.186,1.43 0.86,0.63c2.486,-2.98 4.18,-6.347 5.08,-10.1c0.07,-0.27 0.34,-0.44 0.6,-0.36c1.54,0.48 2.113,1.607 1.72,3.38" style="fill:none;fill-rule:nonzero;stroke:#90a292;stroke-width:2px;"/><path d="M14.176,50.415c-0.234,-0.1 -0.4,-0.267 -0.5,-0.5" style="fill:none;fill-rule:nonzero;stroke:#446647;stroke-width:2px;"/><path d="M13.676,49.915c-1.38,-2.653 -1.77,-2.07 -1.17,1.75" style="fill:none;fill-rule:nonzero;stroke:#90a292;stroke-width:2px;"/><path d="M12.506,51.665l-0.83,14.5" style="fill:none;fill-rule:nonzero;stroke:#90a292;stroke-width:2px;"/><path d="M11.676,66.165c-1.28,2.273 -1.03,2.357 0.75,0.25" style="fill:none;fill-rule:nonzero;stroke:#446647;stroke-width:2px;"/><path d="M12.426,66.415c2.626,-5.733 3.993,-11.92 4.1,-18.56c0.04,-2.553 -0.574,-4.753 -1.84,-6.6c-1.407,-2.047 -2.16,-3.263 -2.26,-3.65c-0.367,-1.46 -0.207,-2.967 0.48,-4.52c0.526,-1.173 0.713,-2.397 0.56,-3.67c-0.28,-2.313 0.26,-4.37 1.62,-6.17c0.866,-1.147 1.64,-2.35 2.32,-3.61c0.846,-1.56 1.053,-1.4 0.62,0.48c-0.07,0.3 -0.24,0.59 -0.49,0.84c-2.527,2.533 -3.597,6.043 -3.21,10.53c0.07,0.72 -0.08,1.45 -0.42,2.09c-0.907,1.68 -1.09,3.193 -0.55,4.54c0.213,0.547 1.18,1.523 2.9,2.93c1.986,1.627 3.31,3.75 3.97,6.37c0.053,0.227 0.06,0.423 0.02,0.59c-0.114,0.427 -0.28,0.413 -0.5,-0.04c-0.294,-0.607 -0.59,-1.213 -0.89,-1.82c-0.567,-1.16 -0.877,-1.273 -0.93,-0.34c-0.034,0.653 0.066,1.777 0.3,3.37c0.08,0.547 0.036,1.087 -0.13,1.62c-0.407,1.333 0.076,2.227 1.45,2.68c0.34,0.11 0.59,0.34 0.63,0.6l0.46,2.77c0.05,0.3 -0.12,0.6 -0.43,0.74c-0.7,0.313 -1.147,0.193 -1.34,-0.36c-0.08,-0.24 0.01,-0.57 0.24,-0.88c0.38,-0.513 0.466,-0.987 0.26,-1.42c-0.234,-0.493 -0.434,-0.477 -0.6,0.05c-0.427,1.347 -0.557,2.537 -0.39,3.57c0.02,0.133 0.39,1.223 1.11,3.27c0.846,2.44 1.903,4.243 3.17,5.41c2.52,2.34 4.546,5.02 6.08,8.04c0.24,0.47 0.69,0.81 1.21,0.9c3.753,0.64 7.51,0.723 11.27,0.25c2.353,-0.3 3.69,-1.78 4.01,-4.44c0.04,-0.32 0.19,-0.62 0.42,-0.83c0.84,-0.773 1.62,-1.6 2.34,-2.48c0.586,-0.727 1.446,-1.693 2.58,-2.9c1.833,-1.973 2.82,-4.11 2.96,-6.41c0.233,-3.793 0.53,-7.583 0.89,-11.37c0.04,-0.44 0.03,-0.817 -0.03,-1.13c-0.227,-1.26 -0.724,-1.307 -1.49,-0.14c-0.114,0.167 -0.247,0.44 -0.4,0.82c-0.26,0.66 -0.504,0.87 -0.73,0.63c-0.18,-0.19 -0.18,-0.55 0.01,-0.87c2.113,-3.727 4.03,-6.583 5.75,-8.57c1.873,-2.16 2.133,-4.39 0.78,-6.69c-0.17,-0.29 -0.25,-0.62 -0.21,-0.93c0.573,-4.773 -0.34,-9.177 -2.74,-13.21c-0,-0 -0.6,-0.827 -1.8,-2.48c-0.727,-0.993 -1.174,-1.94 -1.34,-2.84c-0.3,-1.587 -1.15,-2.783 -2.55,-3.59c-2.22,-1.287 -4.56,-2.17 -7.02,-2.65c-2.434,-0.48 -4.884,-0.777 -7.35,-0.89c-4.66,-0.213 -8.88,1.1 -12.66,3.94c-0.84,0.633 -1.92,1.283 -3.24,1.95c-1.46,0.733 -2.417,1.613 -2.87,2.64c-1.14,2.6 -2.3,5.187 -3.48,7.76c-1.774,3.873 -2.487,7.953 -2.14,12.24c0.253,3.153 -0.24,7.217 -1.48,12.19" style="fill:none;fill-rule:nonzero;stroke:#90a292;stroke-width:2px;"/><path d="M12.426,66.415c-0.334,0.1 -0.584,0.017 -0.75,-0.25" style="fill:none;fill-rule:nonzero;stroke:#b2c3b3;stroke-width:2px;"/><path d="M12.506,51.665l0.46,-0.29" style="fill:none;fill-rule:nonzero;stroke:#fefffe;stroke-width:2px;"/><path d="M12.966,51.375c0.78,0.1 1.183,-0.22 1.21,-0.96" style="fill:none;fill-rule:nonzero;stroke:#b2c3b3;stroke-width:2px;"/><path d="M7.716,50.955l1.71,-4.79" style="fill:none;fill-rule:nonzero;stroke:#91a996;stroke-width:2px;"/><path d="M13.676,49.915c-0.367,0.427 -0.604,0.913 -0.71,1.46" style="fill:none;fill-rule:nonzero;stroke:#b2c3b3;stroke-width:2px;"/><path d="M24.857,11.673c-0.121,-0.268 -0.581,-0.328 -1.016,-0.129c-0.435,0.201 -0.695,0.581 -0.566,0.853c0.121,0.268 0.581,0.328 1.015,0.129c0.436,-0.201 0.696,-0.581 0.567,-0.853" style="fill:none;fill-rule:nonzero;stroke:#90a292;stroke-width:2px;"/><path d="M48.996,12.915c-0.66,-0.34 -1.27,-0.34 -1.83,-0c-0.25,0.16 -0.35,0.49 -0.23,0.79c0.42,1.033 1.183,1.663 2.29,1.89c0.31,0.06 0.61,-0.09 0.74,-0.36c0.48,-0.973 0.156,-1.747 -0.97,-2.32" style="fill:none;fill-rule:nonzero;stroke:#879188;stroke-width:2px;"/><path d="M19.656,16.045c-1.56,-0.16 -1.847,0.183 -0.86,1.03c0.28,0.247 0.58,0.433 0.9,0.56c1.366,0.54 2.163,0.113 2.39,-1.28c0.073,-0.413 0.003,-0.807 -0.21,-1.18c-0.64,-1.113 -1.17,-0.963 -1.59,0.45c-0.08,0.27 -0.34,0.44 -0.63,0.42" style="fill:none;fill-rule:nonzero;stroke:#879188;stroke-width:2px;"/><path d="M35.076,30.115c0.226,-3.133 -1.064,-5.367 -3.87,-6.7c-0.387,-0.18 -0.55,-0.093 -0.49,0.26c0.033,0.173 0.136,0.32 0.31,0.44c1.773,1.193 2.483,3.01 2.13,5.45c-0.267,1.853 -0.917,1.997 -1.95,0.43c-0.774,-1.18 -1.767,-2.08 -2.98,-2.7c-1.127,-0.587 -2.384,-0.8 -3.77,-0.64c-2.634,0.3 -4.724,1.557 -6.27,3.77c-0.14,0.21 -0.44,0.22 -0.57,0.02c-0.607,-0.973 -0.8,-2.05 -0.58,-3.23c0.066,-0.353 -0.05,-0.457 -0.35,-0.31c-1,0.46 -1.26,1.317 -0.78,2.57c0.193,0.527 0.413,1.443 0.66,2.75c0.05,0.29 0.28,0.53 0.58,0.6c0.966,0.24 1.796,0.727 2.49,1.46c0.22,0.23 0.54,0.29 0.77,0.14l1.16,-0.72c0.26,-0.17 0.58,-0.17 0.83,-0.02c1.84,1.087 3.19,1.073 4.05,-0.04c0.8,-1.04 0.55,-1.483 -0.75,-1.33c-2.954,0.347 -4.704,0.057 -5.25,-0.87c-0.14,-0.24 -0.09,-0.58 0.13,-0.86c2.04,-2.587 4.523,-3.163 7.45,-1.73c1.78,0.867 2.033,2.093 0.76,3.68c-0.187,0.24 -0.33,0.53 -0.43,0.87c-0.28,0.993 -0.914,1.567 -1.9,1.72c-0.36,0.06 -0.66,0.2 -0.84,0.41c-0.814,0.913 -0.47,1.213 1.03,0.9c0.36,-0.08 0.69,-0.223 0.99,-0.43c4.126,-2.793 7.966,-3.917 11.52,-3.37c0.31,0.05 0.6,0.21 0.85,0.44c1.66,1.6 3.593,2.73 5.8,3.39c0.34,0.11 0.68,0.03 0.83,-0.19c0.14,-0.193 0.14,-0.387 -0,-0.58c-0.12,-0.18 -0.44,-0.33 -0.86,-0.4c-0.614,-0.113 -1.19,-0.34 -1.73,-0.68c-0.894,-0.567 -0.817,-0.873 0.23,-0.92l8.16,-0.34c0.37,-0.02 0.68,-0.14 0.83,-0.32l0.28,-0.37c0.22,-0.28 0.48,-0.46 0.73,-0.52c1.293,-0.28 1.813,-1.11 1.56,-2.49c-0.04,-0.23 -0.32,-0.34 -0.54,-0.21c-1.22,0.707 -2.267,0.383 -3.14,-0.97c-0.874,-1.34 -2.044,-2.073 -3.51,-2.2c-1.1,-0.1 -2.387,0.017 -3.86,0.35c-2.114,0.473 -3.654,1.75 -4.62,3.83c-0.14,0.3 -0.41,0.49 -0.7,0.5c-0.74,-0 -1.374,-0.227 -1.9,-0.68c-0.22,-0.2 -0.31,-0.53 -0.22,-0.85c0.5,-1.807 1.14,-3.563 1.92,-5.27c0.006,-0.02 0.123,-0.207 0.35,-0.56c0.153,-0.24 0.18,-0.477 0.08,-0.71c-0.147,-0.347 -0.347,-0.35 -0.6,-0.01c-1.574,2.053 -2.617,4.15 -3.13,6.29c-0.114,0.487 -0.294,0.863 -0.54,1.13c-0.26,0.287 -0.377,0.227 -0.35,-0.18" style="fill:none;fill-rule:nonzero;stroke:#879188;stroke-width:2px;"/><path d="M27.242,40.392c0.254,0.213 1.424,-0.787 2.617,-2.219c1.197,-1.438 1.957,-2.768 1.71,-2.975c-0.253,-0.213 -1.423,0.787 -2.617,2.219c-1.196,1.438 -1.956,2.768 -1.71,2.975" style="fill:none;fill-rule:nonzero;stroke:#879188;stroke-width:2px;"/><path d="M36.236,38.215c0.353,1.773 1.353,3.01 3,3.71c1.513,0.64 1.8,0.317 0.86,-0.97l-2.73,-3.73c-0.2,-0.28 -0.3,-0.59 -0.29,-0.87c0.08,-1.313 -0.324,-1.76 -1.21,-1.34c-0.387,0.18 -0.76,0.52 -1.12,1.02c-1.234,1.707 -2.174,3.567 -2.82,5.58c-0.07,0.24 0.11,0.47 0.35,0.44c1.873,-0.24 2.853,-1.287 2.94,-3.14c0.026,-0.56 0.176,-0.923 0.45,-1.09c0.22,-0.13 0.51,0.07 0.57,0.39" style="fill:none;fill-rule:nonzero;stroke:#879188;stroke-width:2px;"/><path d="M39.709,35.12c-0.153,-0.155 -0.393,-0.155 -0.551,-0.004l-0.072,0.07c-0.15,0.149 -0.16,0.399 -0.005,0.551l5.201,5.293c0.154,0.155 0.394,0.155 0.552,0.004l0.071,-0.07c0.151,-0.149 0.161,-0.399 0.005,-0.551l-5.201,-5.293" style="fill:none;fill-rule:nonzero;stroke:#879188;stroke-width:2px;"/><path d="M28.256,68.915c-0.527,1 -0.44,1.833 0.26,2.5c0.26,0.247 0.46,0.5 0.6,0.76c0.766,1.387 1.696,0.983 2.79,-1.21c0.273,-0.553 0.18,-0.627 -0.28,-0.22c-1.907,1.66 -2.794,1.063 -2.66,-1.79" style="fill:none;fill-rule:nonzero;stroke:#b2c3b3;stroke-width:2px;"/><path d="M28.966,68.955c3.86,0.607 7.716,0.64 11.57,0.1c0.23,-0.03 0.4,-0.28 0.41,-0.57l0.06,-3.58c0.01,-0.34 0.3,-0.64 0.7,-0.7c1.966,-0.313 2.696,0.333 2.19,1.94c-0.26,0.8 -0.667,1.523 -1.22,2.17c-0.114,0.127 -0.184,0.247 -0.21,0.36c-0.047,0.22 -0.014,0.367 0.1,0.44c0.18,0.12 0.49,0.02 0.7,-0.24l3.42,-4.04c0.17,-0.2 0.25,-0.53 0.21,-0.91c-0.127,-1.32 0.383,-2.073 1.53,-2.26" style="fill:none;fill-rule:nonzero;stroke:#91a996;stroke-width:2px;"/><path d="M48.426,61.665c-0.374,1.033 -0.277,1.767 0.29,2.2c0.2,0.15 0.49,0.02 0.56,-0.25c0.6,-2.453 1.08,-4.933 1.44,-7.44c0.04,-0.28 0.113,-0.57 0.22,-0.87c0.526,-1.493 0.323,-1.787 -0.61,-0.88c-0.194,0.187 -0.33,0.423 -0.41,0.71c-0.327,1.26 -0.657,2.52 -0.99,3.78" style="fill:none;fill-rule:nonzero;stroke:#90a292;stroke-width:2px;"/><path d="M48.926,58.915c-0.734,0.013 -0.994,-0.41 -0.78,-1.27c0.6,-2.46 0.956,-4.953 1.07,-7.48c0.086,-1.9 -0.29,-3.29 -1.13,-4.17c-0.134,-0.14 -0.32,-0.403 -0.56,-0.79l-1.29,-2.1c-0.14,-0.24 -0.48,-0.32 -0.8,-0.19c-1.5,0.593 -3.007,1.173 -4.52,1.74c-0.367,0.14 -0.847,0.23 -1.44,0.27c-1.18,0.08 -1.51,0.537 -0.99,1.37c0.393,0.627 0.61,1.087 0.65,1.38c0.133,0.993 -0.037,2.047 -0.51,3.16c-0.11,0.26 -0.44,0.35 -0.67,0.18c-1.394,-1.033 -1.947,-2.347 -1.66,-3.94c0.07,-0.39 0.04,-0.74 -0.07,-0.94l-1.26,-2.26c-0.167,-0.3 -0.347,-0.283 -0.54,0.05c-0.554,0.967 -1.34,1.54 -2.36,1.72c-0.427,0.073 -1.294,-0.107 -2.6,-0.54c-1.56,-0.52 -3.087,-0.34 -4.58,0.54c-0.22,0.14 -0.54,0.19 -0.9,0.16l-1.2,-0.11c-0.27,-0.03 -0.5,0.23 -0.48,0.54c0.206,3.26 0.796,6.433 1.77,9.52c0.5,1.58 1.053,3.733 1.66,6.46c0.526,2.333 1.366,4.567 2.52,6.7" style="fill:none;fill-rule:nonzero;stroke:#91a996;stroke-width:2px;"/><path d="M48.926,58.915l-0.5,2.75" style="fill:none;fill-rule:nonzero;stroke:#234c2a;stroke-width:2px;"/><path d="M28.966,68.955l-0.71,-0.04" style="fill:none;fill-rule:nonzero;stroke:#446d4a;stroke-width:2px;"/><path d="M24.456,65.615c0.346,0.12 0.576,0.017 0.69,-0.31c0.066,-0.2 0.046,-0.46 -0.06,-0.78c-0.774,-2.44 -1.444,-5.137 -2.01,-8.09c-0.2,-1.053 -0.447,-1.063 -0.74,-0.03c-0.86,3.047 -0.32,5.98 1.62,8.8c0.153,0.213 0.32,0.35 0.5,0.41" style="fill:none;fill-rule:nonzero;stroke:#90a292;stroke-width:2px;"/><path d="M36.936,71.595c2.113,0.773 2.7,0.453 1.76,-0.96c-0.17,-0.24 -0.47,-0.37 -0.79,-0.33l-4.14,0.61c-0.354,0.053 -0.377,0.163 -0.07,0.33c0.72,0.407 1.483,0.513 2.29,0.32c0.34,-0.08 0.67,-0.07 0.95,0.03" style="fill:none;fill-rule:nonzero;stroke:#879188;stroke-width:2px;"/><path d="M41.926,30.135c-0.7,1.2 -0.367,1.927 1,2.18c2.86,0.533 5.546,0.65 8.06,0.35c0.56,-0.07 0.89,-0.66 0.65,-1.17c-1.234,-2.673 -3.384,-3.763 -6.45,-3.27c-1.574,0.247 -2.66,0.883 -3.26,1.91" style="fill:none;fill-rule:nonzero;stroke:#879188;stroke-width:2px;"/><path d="M46.216,47.165c0.013,0.1 -0.02,0.17 -0.1,0.21c-0.067,0.033 -0.17,0.03 -0.31,-0.01c-1.474,-0.48 -2.04,0.127 -1.7,1.82c0.06,0.32 0.25,0.59 0.52,0.76c1.473,0.907 2.566,0.46 3.28,-1.34c0.266,-0.667 -0.13,-1.98 -1.19,-3.94c-0.667,-1.24 -1.444,-1.5 -2.33,-0.78c-0.25,0.2 -0.39,0.51 -0.4,0.85c-0.02,1.24 0.636,1.977 1.97,2.21c0.14,0.02 0.24,0.11 0.26,0.22" style="fill:none;fill-rule:nonzero;stroke:#91a996;stroke-width:2px;"/><path d="M40.656,45.605c-0.374,0.773 -0.407,1.717 -0.1,2.83c0.08,0.27 0.38,0.41 0.63,0.29c1.42,-0.68 2.02,-1.85 1.8,-3.51c-0.04,-0.3 -0.28,-0.54 -0.58,-0.56c-0.84,-0.053 -1.424,0.263 -1.75,0.95" style="fill:none;fill-rule:nonzero;stroke:#91a996;stroke-width:2px;"/><path d="M24.236,48.355c0.726,4.233 1.903,4.57 3.53,1.01c0.106,-0.227 0.153,-0.54 0.14,-0.94l-0.04,-1.94c-0.01,-0.26 -0.23,-0.46 -0.46,-0.4c-1.067,0.273 -2.024,0.753 -2.87,1.44c-0.24,0.19 -0.36,0.51 -0.3,0.83" style="fill:none;fill-rule:nonzero;stroke:#91a996;stroke-width:2px;"/><path d="M31.336,49.745c0.586,-1.633 0.03,-2.833 -1.67,-3.6c-0.25,-0.12 -0.53,0.08 -0.51,0.36l0.33,3.85c0.03,0.31 0.27,0.54 0.55,0.51c0.62,-0.06 1.053,-0.433 1.3,-1.12" style="fill:none;fill-rule:nonzero;stroke:#91a996;stroke-width:2px;"/><path d="M32.266,47.265c-0.614,1.027 -0.387,2.017 0.68,2.97c0.21,0.19 0.53,0.15 0.69,-0.07c0.64,-0.867 0.98,-1.763 1.02,-2.69c0.02,-0.33 -0.13,-0.64 -0.39,-0.81c-0.78,-0.513 -1.447,-0.313 -2,0.6" style="fill:none;fill-rule:nonzero;stroke:#91a996;stroke-width:2px;"/><path d="M27.966,64.955c0.306,1.533 1.096,2.47 2.37,2.81c0.18,0.053 0.93,0.02 2.25,-0.1c0.713,-0.067 1.48,0.037 2.3,0.31c0.28,0.09 0.56,-0.1 0.59,-0.39c0.14,-1.567 -0.614,-2.353 -2.26,-2.36c-1.674,-0.007 -3.34,-0.123 -5,-0.35" style="fill:none;fill-rule:nonzero;stroke:#91a996;stroke-width:2px;"/><path d="M28.216,64.875c-0.06,-0.28 -0.03,-0.503 0.09,-0.67c0.14,-0.2 0.5,-0.23 0.86,-0.08c0.9,0.387 1.84,0.513 2.82,0.38c0.326,-0.047 0.646,-0.02 0.96,0.08c2.58,0.82 5.513,0.487 8.8,-1c0.83,-0.37 1.79,-0.29 2.54,0.21c0.68,0.46 1.123,0.22 1.33,-0.72c0.113,-0.507 0.256,-0.92 0.43,-1.24c0.513,-0.947 0.936,-1.93 1.27,-2.95c0.09,-0.27 -0.03,-0.57 -0.28,-0.7c-2.867,-1.467 -6.557,-2.223 -11.07,-2.27c-3.76,-0.04 -6.784,0.547 -9.07,1.76c-0.28,0.14 -0.47,0.41 -0.52,0.72c-0.407,2.413 0.123,4.6 1.59,6.56" style="fill:none;fill-rule:nonzero;stroke:#91a996;stroke-width:2px;"/><path d="M28.216,64.875l-0.25,0.08" style="fill:none;fill-rule:nonzero;stroke:#fefffe;stroke-width:2px;"/><path d="M40.311,65.557c-0.425,-0.632 -1.545,-0.622 -2.513,0.021c-0.962,0.647 -1.402,1.677 -0.977,2.315c0.425,0.632 1.545,0.622 2.512,-0.021c0.963,-0.647 1.403,-1.677 0.978,-2.315" style="fill:none;fill-rule:nonzero;stroke:#91a996;stroke-width:2px;"/><path d="M36.743,60.795c0.303,-0 0.543,-0.9 0.523,-1.998c-0.02,-1.102 -0.27,-1.982 -0.578,-1.982c-0.302,-0 -0.542,0.9 -0.522,1.998c0.02,1.102 0.27,1.982 0.577,1.982" style="fill:none;fill-rule:nonzero;stroke:#91a996;stroke-width:2px;"/><path d="M60.716,62.705l-0.96,0.46c-0.194,-1.4 -0.31,-2.803 -0.35,-4.21c-0.034,-1.233 -0.127,-2.63 -0.28,-4.19c-0.447,-4.487 0.16,-8.857 1.82,-13.11c0.313,-0.8 0.5,-1.63 0.56,-2.49c0.36,-0.06 0.526,0.107 0.5,0.5c-0.354,2.207 -0.86,4.377 -1.52,6.51c-0.574,1.847 -0.57,3.637 0.01,5.37c0.673,2.02 1.043,3.14 1.11,3.36c0.406,1.44 1.026,2.79 1.86,4.05c0.26,1.1 0.906,1.72 1.94,1.86c0.42,0.06 0.543,-0.093 0.37,-0.46l-1.02,-2.19c-1.507,-6.487 -2.034,-13.07 -1.58,-19.75c-0.087,-0.653 -0.31,-1.237 -0.67,-1.75c-0.76,-3.08 -1.19,-5.83 -1.29,-8.25c-0.247,-5.787 -2.274,-10.68 -6.08,-14.68c-0.48,-0.5 -0.897,-0.657 -1.25,-0.47c-0.23,0.12 -0.26,0.47 -0.08,0.76c2.48,3.88 4.236,8.05 5.27,12.51c0.113,0.5 0.2,1.763 0.26,3.79c0.033,1.247 0.3,2.51 0.8,3.79c0.44,1.147 0.343,2.227 -0.29,3.24l-4.42,7.08c-0.18,0.28 -0.28,0.6 -0.29,0.92c-0.107,4.867 0.486,9.64 1.78,14.32c0.686,2.473 1.203,4.983 1.55,7.53c0.26,0.64 0.746,0.877 1.46,0.71c0.24,1.127 -0.12,1.473 -1.08,1.04c-0.25,-0.11 -0.48,-0.36 -0.64,-0.69c-0.314,-0.647 -0.754,-1.177 -1.32,-1.59c-0.23,-0.16 -0.56,-0.12 -0.78,0.09c-2.554,2.473 -5.504,4.323 -8.85,5.55c-0.3,0.1 -0.55,0.33 -0.68,0.62c-1,2.18 -2.39,3.57 -4.17,4.17c-4.067,1.367 -8.327,1.353 -12.78,-0.04c-0.59,-0.19 -1.1,-0.54 -1.48,-1.02c-1.887,-2.407 -4.184,-4.01 -6.89,-4.81c-0.32,-0.093 -0.597,-0.26 -0.83,-0.5c-1.787,-1.787 -3.864,-3.09 -6.23,-3.91c-0.3,-0.1 -0.62,-0.02 -0.83,0.2c-1.034,1.147 -1.794,2.47 -2.28,3.97c-0.2,0.633 -0.55,0.997 -1.05,1.09c-0.25,0.05 -0.47,-0.19 -0.43,-0.47c0.246,-1.64 0.546,-3.273 0.9,-4.9c0.38,-1.8 0.45,-3.177 0.21,-4.13c-0.354,-1.4 -1.084,-2.643 -2.19,-3.73c-0.8,-0.787 -1.55,-0.413 -2.25,1.12c-0.627,1.38 -0.907,1.197 -0.84,-0.55c0.133,-3.18 -0.08,-6.34 -0.64,-9.48c-0.9,-5.093 -0.897,-10.15 0.01,-15.17c0.353,-1.987 1.183,-4.04 2.49,-6.16c3.833,-6.233 6.203,-10.237 7.11,-12.01c1.493,-2.933 3.083,-5.007 4.77,-6.22c2.693,-1.933 5.533,-3.603 8.52,-5.01c1.846,-0.867 3.776,-1.283 5.79,-1.25c4.3,0.087 8.496,0.753 12.59,2c2.68,0.82 4.996,2.133 6.95,3.94c3.386,3.147 6.056,6.827 8.01,11.04c1.1,2.373 2.273,4.787 3.52,7.24c4.193,8.267 4.566,16.997 1.12,26.19c-0.98,2.593 -0.274,4.537 2.12,5.83c1.14,0.613 1.096,1.137 -0.13,1.57c-1.807,0.633 -3.21,0.123 -4.21,-1.53c-0.28,-0.47 -0.98,-0.46 -1.29,0.03l-1.45,2.27Zm-51.29,-16.54c-0.914,0.347 -1.234,-0.153 -0.96,-1.5c0.46,-2.253 0.856,-6.1 1.19,-11.54c0.006,-0.073 0.123,-0.7 0.35,-1.88c0.186,-0.98 -0.147,-1.613 -1,-1.9c-0.73,-0.24 -1.52,0.16 -1.75,0.89c-2.194,7 -2.457,13.727 -0.79,20.18c0.133,0.507 0.55,0.687 1.25,0.54c-0.507,1.687 -1.044,3.367 -1.61,5.04c-0.107,0.313 -0.17,0.603 -0.19,0.87c-0.1,1.22 0.186,1.43 0.86,0.63c2.486,-2.98 4.18,-6.347 5.08,-10.1c0.07,-0.27 0.34,-0.44 0.6,-0.36c1.54,0.48 2.113,1.607 1.72,3.38c-0.234,-0.1 -0.4,-0.267 -0.5,-0.5c-1.38,-2.653 -1.77,-2.07 -1.17,1.75l-0.83,14.5c-1.28,2.273 -1.03,2.357 0.75,0.25c2.626,-5.733 3.993,-11.92 4.1,-18.56c0.04,-2.553 -0.574,-4.753 -1.84,-6.6c-1.407,-2.047 -2.16,-3.263 -2.26,-3.65c-0.367,-1.46 -0.207,-2.967 0.48,-4.52c0.526,-1.173 0.713,-2.397 0.56,-3.67c-0.28,-2.313 0.26,-4.37 1.62,-6.17c0.866,-1.147 1.64,-2.35 2.32,-3.61c0.846,-1.56 1.053,-1.4 0.62,0.48c-0.07,0.3 -0.24,0.59 -0.49,0.84c-2.527,2.533 -3.597,6.043 -3.21,10.53c0.07,0.72 -0.08,1.45 -0.42,2.09c-0.907,1.68 -1.09,3.193 -0.55,4.54c0.213,0.547 1.18,1.523 2.9,2.93c1.986,1.627 3.31,3.75 3.97,6.37c0.053,0.227 0.06,0.423 0.02,0.59c-0.114,0.427 -0.28,0.413 -0.5,-0.04c-0.294,-0.607 -0.59,-1.213 -0.89,-1.82c-0.567,-1.16 -0.877,-1.273 -0.93,-0.34c-0.034,0.653 0.066,1.777 0.3,3.37c0.08,0.547 0.036,1.087 -0.13,1.62c-0.407,1.333 0.076,2.227 1.45,2.68c0.34,0.11 0.59,0.34 0.63,0.6l0.46,2.77c0.05,0.3 -0.12,0.6 -0.43,0.74c-0.7,0.313 -1.147,0.193 -1.34,-0.36c-0.08,-0.24 0.01,-0.57 0.24,-0.88c0.38,-0.513 0.466,-0.987 0.26,-1.42c-0.234,-0.493 -0.434,-0.477 -0.6,0.05c-0.427,1.347 -0.557,2.537 -0.39,3.57c0.02,0.133 0.39,1.223 1.11,3.27c0.846,2.44 1.903,4.243 3.17,5.41c2.52,2.34 4.546,5.02 6.08,8.04c0.24,0.47 0.69,0.81 1.21,0.9c3.753,0.64 7.51,0.723 11.27,0.25c2.353,-0.3 3.69,-1.78 4.01,-4.44c0.04,-0.32 0.19,-0.62 0.42,-0.83c0.84,-0.773 1.62,-1.6 2.34,-2.48c0.586,-0.727 1.446,-1.693 2.58,-2.9c1.833,-1.973 2.82,-4.11 2.96,-6.41c0.233,-3.793 0.53,-7.583 0.89,-11.37c0.04,-0.44 0.03,-0.817 -0.03,-1.13c-0.227,-1.26 -0.724,-1.307 -1.49,-0.14c-0.114,0.167 -0.247,0.44 -0.4,0.82c-0.26,0.66 -0.504,0.87 -0.73,0.63c-0.18,-0.19 -0.18,-0.55 0.01,-0.87c2.113,-3.727 4.03,-6.583 5.75,-8.57c1.873,-2.16 2.133,-4.39 0.78,-6.69c-0.17,-0.29 -0.25,-0.62 -0.21,-0.93c0.573,-4.773 -0.34,-9.177 -2.74,-13.21c-0,-0 -0.6,-0.827 -1.8,-2.48c-0.727,-0.993 -1.174,-1.94 -1.34,-2.84c-0.3,-1.587 -1.15,-2.783 -2.55,-3.59c-2.22,-1.287 -4.56,-2.17 -7.02,-2.65c-2.434,-0.48 -4.884,-0.777 -7.35,-0.89c-4.66,-0.213 -8.88,1.1 -12.66,3.94c-0.84,0.633 -1.92,1.283 -3.24,1.95c-1.46,0.733 -2.417,1.613 -2.87,2.64c-1.14,2.6 -2.3,5.187 -3.48,7.76c-1.774,3.873 -2.487,7.953 -2.14,12.24c0.253,3.153 -0.24,7.217 -1.48,12.19Z" style="fill:#224526;fill-rule:nonzero;"/><path d="M12.426,66.415c-0.334,0.1 -0.584,0.017 -0.75,-0.25l0.83,-14.5l0.46,-0.29c0.78,0.1 1.183,-0.22 1.21,-0.96c0.393,-1.773 -0.18,-2.9 -1.72,-3.38c-0.26,-0.08 -0.53,0.09 -0.6,0.36c-0.9,3.753 -2.594,7.12 -5.08,10.1c-0.674,0.8 -0.96,0.59 -0.86,-0.63c0.02,-0.267 0.083,-0.557 0.19,-0.87c0.566,-1.673 1.103,-3.353 1.61,-5.04l1.71,-4.79c1.24,-4.973 1.733,-9.037 1.48,-12.19c-0.347,-4.287 0.366,-8.367 2.14,-12.24c1.18,-2.573 2.34,-5.16 3.48,-7.76c0.453,-1.027 1.41,-1.907 2.87,-2.64c1.32,-0.667 2.4,-1.317 3.24,-1.95c3.78,-2.84 8,-4.153 12.66,-3.94c2.466,0.113 4.916,0.41 7.35,0.89c2.46,0.48 4.8,1.363 7.02,2.65c1.4,0.807 2.25,2.003 2.55,3.59c0.166,0.9 0.613,1.847 1.34,2.84c1.2,1.653 1.8,2.48 1.8,2.48c2.4,4.033 3.313,8.437 2.74,13.21c-0.04,0.31 0.04,0.64 0.21,0.93c1.353,2.3 1.093,4.53 -0.78,6.69c-1.72,1.987 -3.637,4.843 -5.75,8.57c-0.19,0.32 -0.19,0.68 -0.01,0.87c0.226,0.24 0.47,0.03 0.73,-0.63c0.153,-0.38 0.286,-0.653 0.4,-0.82c0.766,-1.167 1.263,-1.12 1.49,0.14c0.06,0.313 0.07,0.69 0.03,1.13c-0.36,3.787 -0.657,7.577 -0.89,11.37c-0.14,2.3 -1.127,4.437 -2.96,6.41c-1.134,1.207 -1.994,2.173 -2.58,2.9c-0.72,0.88 -1.5,1.707 -2.34,2.48c-0.23,0.21 -0.38,0.51 -0.42,0.83c-0.32,2.66 -1.657,4.14 -4.01,4.44c-3.76,0.473 -7.517,0.39 -11.27,-0.25c-0.52,-0.09 -0.97,-0.43 -1.21,-0.9c-1.534,-3.02 -3.56,-5.7 -6.08,-8.04c-1.267,-1.167 -2.324,-2.97 -3.17,-5.41c-0.72,-2.047 -1.09,-3.137 -1.11,-3.27c-0.167,-1.033 -0.037,-2.223 0.39,-3.57c0.166,-0.527 0.366,-0.543 0.6,-0.05c0.206,0.433 0.12,0.907 -0.26,1.42c-0.23,0.31 -0.32,0.64 -0.24,0.88c0.193,0.553 0.64,0.673 1.34,0.36c0.31,-0.14 0.48,-0.44 0.43,-0.74l-0.46,-2.77c-0.04,-0.26 -0.29,-0.49 -0.63,-0.6c-1.374,-0.453 -1.857,-1.347 -1.45,-2.68c0.166,-0.533 0.21,-1.073 0.13,-1.62c-0.234,-1.593 -0.334,-2.717 -0.3,-3.37c0.053,-0.933 0.363,-0.82 0.93,0.34c0.3,0.607 0.596,1.213 0.89,1.82c0.22,0.453 0.386,0.467 0.5,0.04c0.04,-0.167 0.033,-0.363 -0.02,-0.59c-0.66,-2.62 -1.984,-4.743 -3.97,-6.37c-1.72,-1.407 -2.687,-2.383 -2.9,-2.93c-0.54,-1.347 -0.357,-2.86 0.55,-4.54c0.34,-0.64 0.49,-1.37 0.42,-2.09c-0.387,-4.487 0.683,-7.997 3.21,-10.53c0.25,-0.25 0.42,-0.54 0.49,-0.84c0.433,-1.88 0.226,-2.04 -0.62,-0.48c-0.68,1.26 -1.454,2.463 -2.32,3.61c-1.36,1.8 -1.9,3.857 -1.62,6.17c0.153,1.273 -0.034,2.497 -0.56,3.67c-0.687,1.553 -0.847,3.06 -0.48,4.52c0.1,0.387 0.853,1.603 2.26,3.65c1.266,1.847 1.88,4.047 1.84,6.6c-0.107,6.64 -1.474,12.827 -4.1,18.56Zm12.431,-54.742c-0.121,-0.268 -0.581,-0.328 -1.016,-0.129c-0.435,0.201 -0.695,0.581 -0.566,0.853c0.121,0.268 0.581,0.328 1.015,0.129c0.436,-0.201 0.696,-0.581 0.567,-0.853Zm24.139,1.242c-0.66,-0.34 -1.27,-0.34 -1.83,-0c-0.25,0.16 -0.35,0.49 -0.23,0.79c0.42,1.033 1.183,1.663 2.29,1.89c0.31,0.06 0.61,-0.09 0.74,-0.36c0.48,-0.973 0.156,-1.747 -0.97,-2.32Zm-29.34,3.13c-1.56,-0.16 -1.847,0.183 -0.86,1.03c0.28,0.247 0.58,0.433 0.9,0.56c1.366,0.54 2.163,0.113 2.39,-1.28c0.073,-0.413 0.003,-0.807 -0.21,-1.18c-0.64,-1.113 -1.17,-0.963 -1.59,0.45c-0.08,0.27 -0.34,0.44 -0.63,0.42Zm15.42,14.07c0.226,-3.133 -1.064,-5.367 -3.87,-6.7c-0.387,-0.18 -0.55,-0.093 -0.49,0.26c0.033,0.173 0.136,0.32 0.31,0.44c1.773,1.193 2.483,3.01 2.13,5.45c-0.267,1.853 -0.917,1.997 -1.95,0.43c-0.774,-1.18 -1.767,-2.08 -2.98,-2.7c-1.127,-0.587 -2.384,-0.8 -3.77,-0.64c-2.634,0.3 -4.724,1.557 -6.27,3.77c-0.14,0.21 -0.44,0.22 -0.57,0.02c-0.607,-0.973 -0.8,-2.05 -0.58,-3.23c0.066,-0.353 -0.05,-0.457 -0.35,-0.31c-1,0.46 -1.26,1.317 -0.78,2.57c0.193,0.527 0.413,1.443 0.66,2.75c0.05,0.29 0.28,0.53 0.58,0.6c0.966,0.24 1.796,0.727 2.49,1.46c0.22,0.23 0.54,0.29 0.77,0.14l1.16,-0.72c0.26,-0.17 0.58,-0.17 0.83,-0.02c1.84,1.087 3.19,1.073 4.05,-0.04c0.8,-1.04 0.55,-1.483 -0.75,-1.33c-2.954,0.347 -4.704,0.057 -5.25,-0.87c-0.14,-0.24 -0.09,-0.58 0.13,-0.86c2.04,-2.587 4.523,-3.163 7.45,-1.73c1.78,0.867 2.033,2.093 0.76,3.68c-0.187,0.24 -0.33,0.53 -0.43,0.87c-0.28,0.993 -0.914,1.567 -1.9,1.72c-0.36,0.06 -0.66,0.2 -0.84,0.41c-0.814,0.913 -0.47,1.213 1.03,0.9c0.36,-0.08 0.69,-0.223 0.99,-0.43c4.126,-2.793 7.966,-3.917 11.52,-3.37c0.31,0.05 0.6,0.21 0.85,0.44c1.66,1.6 3.593,2.73 5.8,3.39c0.34,0.11 0.68,0.03 0.83,-0.19c0.14,-0.193 0.14,-0.387 -0,-0.58c-0.12,-0.18 -0.44,-0.33 -0.86,-0.4c-0.614,-0.113 -1.19,-0.34 -1.73,-0.68c-0.894,-0.567 -0.817,-0.873 0.23,-0.92l8.16,-0.34c0.37,-0.02 0.68,-0.14 0.83,-0.32l0.28,-0.37c0.22,-0.28 0.48,-0.46 0.73,-0.52c1.293,-0.28 1.813,-1.11 1.56,-2.49c-0.04,-0.23 -0.32,-0.34 -0.54,-0.21c-1.22,0.707 -2.267,0.383 -3.14,-0.97c-0.874,-1.34 -2.044,-2.073 -3.51,-2.2c-1.1,-0.1 -2.387,0.017 -3.86,0.35c-2.114,0.473 -3.654,1.75 -4.62,3.83c-0.14,0.3 -0.41,0.49 -0.7,0.5c-0.74,-0 -1.374,-0.227 -1.9,-0.68c-0.22,-0.2 -0.31,-0.53 -0.22,-0.85c0.5,-1.807 1.14,-3.563 1.92,-5.27c0.006,-0.02 0.123,-0.207 0.35,-0.56c0.153,-0.24 0.18,-0.477 0.08,-0.71c-0.147,-0.347 -0.347,-0.35 -0.6,-0.01c-1.574,2.053 -2.617,4.15 -3.13,6.29c-0.114,0.487 -0.294,0.863 -0.54,1.13c-0.26,0.287 -0.377,0.227 -0.35,-0.18Zm-7.834,10.277c0.254,0.213 1.424,-0.787 2.617,-2.219c1.197,-1.438 1.957,-2.768 1.71,-2.975c-0.253,-0.213 -1.423,0.787 -2.617,2.219c-1.196,1.438 -1.956,2.768 -1.71,2.975Zm8.994,-2.177c0.353,1.773 1.353,3.01 3,3.71c1.513,0.64 1.8,0.317 0.86,-0.97l-2.73,-3.73c-0.2,-0.28 -0.3,-0.59 -0.29,-0.87c0.08,-1.313 -0.324,-1.76 -1.21,-1.34c-0.387,0.18 -0.76,0.52 -1.12,1.02c-1.234,1.707 -2.174,3.567 -2.82,5.58c-0.07,0.24 0.11,0.47 0.35,0.44c1.873,-0.24 2.853,-1.287 2.94,-3.14c0.026,-0.56 0.176,-0.923 0.45,-1.09c0.22,-0.13 0.51,0.07 0.57,0.39Zm3.473,-3.095c-0.153,-0.155 -0.393,-0.155 -0.551,-0.004l-0.072,0.07c-0.15,0.149 -0.16,0.399 -0.005,0.551l5.201,5.293c0.154,0.155 0.394,0.155 0.552,0.004l0.071,-0.07c0.151,-0.149 0.161,-0.399 0.005,-0.551l-5.201,-5.293Zm-11.453,33.795c-0.527,1 -0.44,1.833 0.26,2.5c0.26,0.247 0.46,0.5 0.6,0.76c0.766,1.387 1.696,0.983 2.79,-1.21c0.273,-0.553 0.18,-0.627 -0.28,-0.22c-1.907,1.66 -2.794,1.063 -2.66,-1.79c3.86,0.607 7.716,0.64 11.57,0.1c0.23,-0.03 0.4,-0.28 0.41,-0.57l0.06,-3.58c0.01,-0.34 0.3,-0.64 0.7,-0.7c1.966,-0.313 2.696,0.333 2.19,1.94c-0.26,0.8 -0.667,1.523 -1.22,2.17c-0.114,0.127 -0.184,0.247 -0.21,0.36c-0.047,0.22 -0.014,0.367 0.1,0.44c0.18,0.12 0.49,0.02 0.7,-0.24l3.42,-4.04c0.17,-0.2 0.25,-0.53 0.21,-0.91c-0.127,-1.32 0.383,-2.073 1.53,-2.26c-0.374,1.033 -0.277,1.767 0.29,2.2c0.2,0.15 0.49,0.02 0.56,-0.25c0.6,-2.453 1.08,-4.933 1.44,-7.44c0.04,-0.28 0.113,-0.57 0.22,-0.87c0.526,-1.493 0.323,-1.787 -0.61,-0.88c-0.194,0.187 -0.33,0.423 -0.41,0.71c-0.327,1.26 -0.657,2.52 -0.99,3.78c-0.734,0.013 -0.994,-0.41 -0.78,-1.27c0.6,-2.46 0.956,-4.953 1.07,-7.48c0.086,-1.9 -0.29,-3.29 -1.13,-4.17c-0.134,-0.14 -0.32,-0.403 -0.56,-0.79l-1.29,-2.1c-0.14,-0.24 -0.48,-0.32 -0.8,-0.19c-1.5,0.593 -3.007,1.173 -4.52,1.74c-0.367,0.14 -0.847,0.23 -1.44,0.27c-1.18,0.08 -1.51,0.537 -0.99,1.37c0.393,0.627 0.61,1.087 0.65,1.38c0.133,0.993 -0.037,2.047 -0.51,3.16c-0.11,0.26 -0.44,0.35 -0.67,0.18c-1.394,-1.033 -1.947,-2.347 -1.66,-3.94c0.07,-0.39 0.04,-0.74 -0.07,-0.94l-1.26,-2.26c-0.167,-0.3 -0.347,-0.283 -0.54,0.05c-0.554,0.967 -1.34,1.54 -2.36,1.72c-0.427,0.073 -1.294,-0.107 -2.6,-0.54c-1.56,-0.52 -3.087,-0.34 -4.58,0.54c-0.22,0.14 -0.54,0.19 -0.9,0.16l-1.2,-0.11c-0.27,-0.03 -0.5,0.23 -0.48,0.54c0.206,3.26 0.796,6.433 1.77,9.52c0.5,1.58 1.053,3.733 1.66,6.46c0.526,2.333 1.366,4.567 2.52,6.7Zm-3.8,-3.3c0.346,0.12 0.576,0.017 0.69,-0.31c0.066,-0.2 0.046,-0.46 -0.06,-0.78c-0.774,-2.44 -1.444,-5.137 -2.01,-8.09c-0.2,-1.053 -0.447,-1.063 -0.74,-0.03c-0.86,3.047 -0.32,5.98 1.62,8.8c0.153,0.213 0.32,0.35 0.5,0.41Zm12.48,5.98c2.113,0.773 2.7,0.453 1.76,-0.96c-0.17,-0.24 -0.47,-0.37 -0.79,-0.33l-4.14,0.61c-0.354,0.053 -0.377,0.163 -0.07,0.33c0.72,0.407 1.483,0.513 2.29,0.32c0.34,-0.08 0.67,-0.07 0.95,0.03Z" style="fill:#fefffe;fill-rule:nonzero;"/><path d="M23.841,11.544c0.436,-0.2 0.892,-0.142 1.016,0.129c0.124,0.271 -0.13,0.653 -0.567,0.853c-0.436,0.2 -0.891,0.142 -1.015,-0.129c-0.124,-0.271 0.129,-0.653 0.566,-0.853Z" style="fill:#224526;"/><path d="M48.996,12.915c1.126,0.573 1.45,1.347 0.97,2.32c-0.13,0.27 -0.43,0.42 -0.74,0.36c-1.107,-0.227 -1.87,-0.857 -2.29,-1.89c-0.12,-0.3 -0.02,-0.63 0.23,-0.79c0.56,-0.34 1.17,-0.34 1.83,-0Z" style="fill:#102211;fill-rule:nonzero;"/><path d="M62.506,36.665c-0.647,0.693 -0.98,1.527 -1,2.5c-0.06,0.86 -0.247,1.69 -0.56,2.49c-1.66,4.253 -2.267,8.623 -1.82,13.11c0.153,1.56 0.246,2.957 0.28,4.19c0.04,1.407 0.156,2.81 0.35,4.21c-0.107,0.867 -0.254,1.727 -0.44,2.58c-0.034,0.14 -0.047,0.42 -0.04,0.84c0.013,0.487 -0.257,0.693 -0.81,0.62c-0.347,-2.547 -0.864,-5.057 -1.55,-7.53c-1.294,-4.68 -1.887,-9.453 -1.78,-14.32c0.01,-0.32 0.11,-0.64 0.29,-0.92l4.42,-7.08c0.633,-1.013 0.73,-2.093 0.29,-3.24c-0.5,-1.28 -0.767,-2.543 -0.8,-3.79c-0.06,-2.027 -0.147,-3.29 -0.26,-3.79c-1.034,-4.46 -2.79,-8.63 -5.27,-12.51c-0.18,-0.29 -0.15,-0.64 0.08,-0.76c0.353,-0.187 0.77,-0.03 1.25,0.47c3.806,4 5.833,8.893 6.08,14.68c0.1,2.42 0.53,5.17 1.29,8.25Z" style="fill:#fefffe;fill-rule:nonzero;"/><path d="M20.286,15.625c0.42,-1.413 0.95,-1.563 1.59,-0.45c0.213,0.373 0.283,0.767 0.21,1.18c-0.227,1.393 -1.024,1.82 -2.39,1.28c-0.32,-0.127 -0.62,-0.313 -0.9,-0.56c-0.987,-0.847 -0.7,-1.19 0.86,-1.03c0.29,0.02 0.55,-0.15 0.63,-0.42Z" style="fill:#102211;fill-rule:nonzero;"/><path d="M35.426,30.295c0.246,-0.267 0.426,-0.643 0.54,-1.13c0.513,-2.14 1.556,-4.237 3.13,-6.29c0.253,-0.34 0.453,-0.337 0.6,0.01c0.1,0.233 0.073,0.47 -0.08,0.71c-0.227,0.353 -0.344,0.54 -0.35,0.56c-0.78,1.707 -1.42,3.463 -1.92,5.27c-0.09,0.32 -0,0.65 0.22,0.85c0.526,0.453 1.16,0.68 1.9,0.68c0.29,-0.01 0.56,-0.2 0.7,-0.5c0.966,-2.08 2.506,-3.357 4.62,-3.83c1.473,-0.333 2.76,-0.45 3.86,-0.35c1.466,0.127 2.636,0.86 3.51,2.2c0.873,1.353 1.92,1.677 3.14,0.97c0.22,-0.13 0.5,-0.02 0.54,0.21c0.253,1.38 -0.267,2.21 -1.56,2.49c-0.25,0.06 -0.51,0.24 -0.73,0.52l-0.28,0.37c-0.15,0.18 -0.46,0.3 -0.83,0.32l-8.16,0.34c-1.047,0.047 -1.124,0.353 -0.23,0.92c0.54,0.34 1.116,0.567 1.73,0.68c0.42,0.07 0.74,0.22 0.86,0.4c0.14,0.193 0.14,0.387 -0,0.58c-0.15,0.22 -0.49,0.3 -0.83,0.19c-2.207,-0.66 -4.14,-1.79 -5.8,-3.39c-0.25,-0.23 -0.54,-0.39 -0.85,-0.44c-3.554,-0.547 -7.394,0.577 -11.52,3.37c-0.3,0.207 -0.63,0.35 -0.99,0.43c-1.5,0.313 -1.844,0.013 -1.03,-0.9c0.18,-0.21 0.48,-0.35 0.84,-0.41c0.986,-0.153 1.62,-0.727 1.9,-1.72c0.1,-0.34 0.243,-0.63 0.43,-0.87c1.273,-1.587 1.02,-2.813 -0.76,-3.68c-2.927,-1.433 -5.41,-0.857 -7.45,1.73c-0.22,0.28 -0.27,0.62 -0.13,0.86c0.546,0.927 2.296,1.217 5.25,0.87c1.3,-0.153 1.55,0.29 0.75,1.33c-0.86,1.113 -2.21,1.127 -4.05,0.04c-0.25,-0.15 -0.57,-0.15 -0.83,0.02l-1.16,0.72c-0.23,0.15 -0.55,0.09 -0.77,-0.14c-0.694,-0.733 -1.524,-1.22 -2.49,-1.46c-0.3,-0.07 -0.53,-0.31 -0.58,-0.6c-0.247,-1.307 -0.467,-2.223 -0.66,-2.75c-0.48,-1.253 -0.22,-2.11 0.78,-2.57c0.3,-0.147 0.416,-0.043 0.35,0.31c-0.22,1.18 -0.027,2.257 0.58,3.23c0.13,0.2 0.43,0.19 0.57,-0.02c1.546,-2.213 3.636,-3.47 6.27,-3.77c1.386,-0.16 2.643,0.053 3.77,0.64c1.213,0.62 2.206,1.52 2.98,2.7c1.033,1.567 1.683,1.423 1.95,-0.43c0.353,-2.44 -0.357,-4.257 -2.13,-5.45c-0.174,-0.12 -0.277,-0.267 -0.31,-0.44c-0.06,-0.353 0.103,-0.44 0.49,-0.26c2.806,1.333 4.096,3.567 3.87,6.7c-0.027,0.407 0.09,0.467 0.35,0.18Zm6.5,-0.16c-0.7,1.2 -0.367,1.927 1,2.18c2.86,0.533 5.546,0.65 8.06,0.35c0.56,-0.07 0.89,-0.66 0.65,-1.17c-1.234,-2.673 -3.384,-3.763 -6.45,-3.27c-1.574,0.247 -2.66,0.883 -3.26,1.91Z" style="fill:#102211;fill-rule:nonzero;"/><path d="M41.926,30.135c0.6,-1.027 1.686,-1.663 3.26,-1.91c3.066,-0.493 5.216,0.597 6.45,3.27c0.24,0.51 -0.09,1.1 -0.65,1.17c-2.514,0.3 -5.2,0.183 -8.06,-0.35c-1.367,-0.253 -1.7,-0.98 -1,-2.18Z" style="fill:#fefffe;fill-rule:nonzero;"/><path d="M9.426,46.165l-1.71,4.79c-0.7,0.147 -1.117,-0.033 -1.25,-0.54c-1.667,-6.453 -1.404,-13.18 0.79,-20.18c0.23,-0.73 1.02,-1.13 1.75,-0.89c0.853,0.287 1.186,0.92 1,1.9c-0.227,1.18 -0.344,1.807 -0.35,1.88c-0.334,5.44 -0.73,9.287 -1.19,11.54c-0.274,1.347 0.046,1.847 0.96,1.5Z" style="fill:#23532d;fill-rule:nonzero;"/><path d="M29.859,38.173c-1.194,1.433 -2.367,2.427 -2.617,2.219c-0.25,-0.209 0.516,-1.541 1.71,-2.975c1.194,-1.433 2.367,-2.427 2.617,-2.219c0.25,0.209 -0.516,1.541 -1.71,2.975Z" style="fill:#102211;"/><path d="M35.666,37.825c-0.274,0.167 -0.424,0.53 -0.45,1.09c-0.087,1.853 -1.067,2.9 -2.94,3.14c-0.24,0.03 -0.42,-0.2 -0.35,-0.44c0.646,-2.013 1.586,-3.873 2.82,-5.58c0.36,-0.5 0.733,-0.84 1.12,-1.02c0.886,-0.42 1.29,0.027 1.21,1.34c-0.01,0.28 0.09,0.59 0.29,0.87l2.73,3.73c0.94,1.287 0.653,1.61 -0.86,0.97c-1.647,-0.7 -2.647,-1.937 -3,-3.71c-0.06,-0.32 -0.35,-0.52 -0.57,-0.39Z" style="fill:#102211;fill-rule:nonzero;"/><path d="M39.709,35.12c-0.151,-0.153 -0.398,-0.155 -0.551,-0.004l-0.072,0.07c-0.153,0.151 -0.155,0.398 -0.005,0.551l5.201,5.293c0.151,0.153 0.398,0.155 0.552,0.004l0.071,-0.07c0.154,-0.151 0.156,-0.398 0.005,-0.551l-5.201,-5.293Z" style="fill:#102211;"/><path d="M62.506,36.665c0.36,0.513 0.583,1.097 0.67,1.75c-0.82,-0.093 -1.21,0.323 -1.17,1.25c0.026,-0.393 -0.14,-0.56 -0.5,-0.5c0.02,-0.973 0.353,-1.807 1,-2.5Z" style="fill:#d7cfad;fill-rule:nonzero;"/><path d="M63.176,38.415c-0.454,6.68 0.073,13.263 1.58,19.75c-0.02,0.74 -0.45,1.003 -1.29,0.79c-0.834,-1.26 -1.454,-2.61 -1.86,-4.05c-0.067,-0.22 -0.437,-1.34 -1.11,-3.36c-0.58,-1.733 -0.584,-3.523 -0.01,-5.37c0.66,-2.133 1.166,-4.303 1.52,-6.51c-0.04,-0.927 0.35,-1.343 1.17,-1.25Z" style="fill:#fefffe;fill-rule:nonzero;"/><path d="M48.926,58.915l-0.5,2.75c-1.147,0.187 -1.657,0.94 -1.53,2.26c0.04,0.38 -0.04,0.71 -0.21,0.91l-3.42,4.04c-0.21,0.26 -0.52,0.36 -0.7,0.24c-0.114,-0.073 -0.147,-0.22 -0.1,-0.44c0.026,-0.113 0.096,-0.233 0.21,-0.36c0.553,-0.647 0.96,-1.37 1.22,-2.17c0.506,-1.607 -0.224,-2.253 -2.19,-1.94c-0.4,0.06 -0.69,0.36 -0.7,0.7l-0.06,3.58c-0.01,0.29 -0.18,0.54 -0.41,0.57c-3.854,0.54 -7.71,0.507 -11.57,-0.1l-0.71,-0.04c-1.154,-2.133 -1.994,-4.367 -2.52,-6.7c-0.607,-2.727 -1.16,-4.88 -1.66,-6.46c-0.974,-3.087 -1.564,-6.26 -1.77,-9.52c-0.02,-0.31 0.21,-0.57 0.48,-0.54l1.2,0.11c0.36,0.03 0.68,-0.02 0.9,-0.16c1.493,-0.88 3.02,-1.06 4.58,-0.54c1.306,0.433 2.173,0.613 2.6,0.54c1.02,-0.18 1.806,-0.753 2.36,-1.72c0.193,-0.333 0.373,-0.35 0.54,-0.05l1.26,2.26c0.11,0.2 0.14,0.55 0.07,0.94c-0.287,1.593 0.266,2.907 1.66,3.94c0.23,0.17 0.56,0.08 0.67,-0.18c0.473,-1.113 0.643,-2.167 0.51,-3.16c-0.04,-0.293 -0.257,-0.753 -0.65,-1.38c-0.52,-0.833 -0.19,-1.29 0.99,-1.37c0.593,-0.04 1.073,-0.13 1.44,-0.27c1.513,-0.567 3.02,-1.147 4.52,-1.74c0.32,-0.13 0.66,-0.05 0.8,0.19l1.29,2.1c0.24,0.387 0.426,0.65 0.56,0.79c0.84,0.88 1.216,2.27 1.13,4.17c-0.114,2.527 -0.47,5.02 -1.07,7.48c-0.214,0.86 0.046,1.283 0.78,1.27Zm-2.71,-11.75c0.013,0.1 -0.02,0.17 -0.1,0.21c-0.067,0.033 -0.17,0.03 -0.31,-0.01c-1.474,-0.48 -2.04,0.127 -1.7,1.82c0.06,0.32 0.25,0.59 0.52,0.76c1.473,0.907 2.566,0.46 3.28,-1.34c0.266,-0.667 -0.13,-1.98 -1.19,-3.94c-0.667,-1.24 -1.444,-1.5 -2.33,-0.78c-0.25,0.2 -0.39,0.51 -0.4,0.85c-0.02,1.24 0.636,1.977 1.97,2.21c0.14,0.02 0.24,0.11 0.26,0.22Zm-5.56,-1.56c-0.374,0.773 -0.407,1.717 -0.1,2.83c0.08,0.27 0.38,0.41 0.63,0.29c1.42,-0.68 2.02,-1.85 1.8,-3.51c-0.04,-0.3 -0.28,-0.54 -0.58,-0.56c-0.84,-0.053 -1.424,0.263 -1.75,0.95Zm-16.42,2.75c0.726,4.233 1.903,4.57 3.53,1.01c0.106,-0.227 0.153,-0.54 0.14,-0.94l-0.04,-1.94c-0.01,-0.26 -0.23,-0.46 -0.46,-0.4c-1.067,0.273 -2.024,0.753 -2.87,1.44c-0.24,0.19 -0.36,0.51 -0.3,0.83Zm7.1,1.39c0.586,-1.633 0.03,-2.833 -1.67,-3.6c-0.25,-0.12 -0.53,0.08 -0.51,0.36l0.33,3.85c0.03,0.31 0.27,0.54 0.55,0.51c0.62,-0.06 1.053,-0.433 1.3,-1.12Zm0.93,-2.48c-0.614,1.027 -0.387,2.017 0.68,2.97c0.21,0.19 0.53,0.15 0.69,-0.07c0.64,-0.867 0.98,-1.763 1.02,-2.69c0.02,-0.33 -0.13,-0.64 -0.39,-0.81c-0.78,-0.513 -1.447,-0.313 -2,0.6Zm-4.3,17.69c0.306,1.533 1.096,2.47 2.37,2.81c0.18,0.053 0.93,0.02 2.25,-0.1c0.713,-0.067 1.48,0.037 2.3,0.31c0.28,0.09 0.56,-0.1 0.59,-0.39c0.14,-1.567 -0.614,-2.353 -2.26,-2.36c-1.674,-0.007 -3.34,-0.123 -5,-0.35c-0.06,-0.28 -0.03,-0.503 0.09,-0.67c0.14,-0.2 0.5,-0.23 0.86,-0.08c0.9,0.387 1.84,0.513 2.82,0.38c0.326,-0.047 0.646,-0.02 0.96,0.08c2.58,0.82 5.513,0.487 8.8,-1c0.83,-0.37 1.79,-0.29 2.54,0.21c0.68,0.46 1.123,0.22 1.33,-0.72c0.113,-0.507 0.256,-0.92 0.43,-1.24c0.513,-0.947 0.936,-1.93 1.27,-2.95c0.09,-0.27 -0.03,-0.57 -0.28,-0.7c-2.867,-1.467 -6.557,-2.223 -11.07,-2.27c-3.76,-0.04 -6.784,0.547 -9.07,1.76c-0.28,0.14 -0.47,0.41 -0.52,0.72c-0.407,2.413 0.123,4.6 1.59,6.56Zm12.345,0.602c-0.425,-0.632 -1.545,-0.622 -2.513,0.021c-0.962,0.647 -1.402,1.677 -0.977,2.315c0.425,0.632 1.545,0.622 2.512,-0.021c0.963,-0.647 1.403,-1.677 0.978,-2.315Z" style="fill:#23532d;fill-rule:nonzero;"/><path d="M45.956,46.945c-1.334,-0.233 -1.99,-0.97 -1.97,-2.21c0.01,-0.34 0.15,-0.65 0.4,-0.85c0.886,-0.72 1.663,-0.46 2.33,0.78c1.06,1.96 1.456,3.273 1.19,3.94c-0.714,1.8 -1.807,2.247 -3.28,1.34c-0.27,-0.17 -0.46,-0.44 -0.52,-0.76c-0.34,-1.693 0.226,-2.3 1.7,-1.82c0.14,0.04 0.243,0.043 0.31,0.01c0.08,-0.04 0.113,-0.11 0.1,-0.21c-0.02,-0.11 -0.12,-0.2 -0.26,-0.22Z" style="fill:#fefffe;fill-rule:nonzero;"/><path d="M40.656,45.605c0.326,-0.687 0.91,-1.003 1.75,-0.95c0.3,0.02 0.54,0.26 0.58,0.56c0.22,1.66 -0.38,2.83 -1.8,3.51c-0.25,0.12 -0.55,-0.02 -0.63,-0.29c-0.307,-1.113 -0.274,-2.057 0.1,-2.83Z" style="fill:#fefffe;fill-rule:nonzero;"/><path d="M24.536,47.525c0.846,-0.687 1.803,-1.167 2.87,-1.44c0.23,-0.06 0.45,0.14 0.46,0.4l0.04,1.94c0.013,0.4 -0.034,0.713 -0.14,0.94c-1.627,3.56 -2.804,3.223 -3.53,-1.01c-0.06,-0.32 0.06,-0.64 0.3,-0.83Z" style="fill:#fefffe;fill-rule:nonzero;"/><path d="M31.336,49.745c-0.247,0.687 -0.68,1.06 -1.3,1.12c-0.28,0.03 -0.52,-0.2 -0.55,-0.51l-0.33,-3.85c-0.02,-0.28 0.26,-0.48 0.51,-0.36c1.7,0.767 2.256,1.967 1.67,3.6Z" style="fill:#fefffe;fill-rule:nonzero;"/><path d="M32.266,47.265c0.553,-0.913 1.22,-1.113 2,-0.6c0.26,0.17 0.41,0.48 0.39,0.81c-0.04,0.927 -0.38,1.823 -1.02,2.69c-0.16,0.22 -0.48,0.26 -0.69,0.07c-1.067,-0.953 -1.294,-1.943 -0.68,-2.97Z" style="fill:#fefffe;fill-rule:nonzero;"/><path d="M13.676,49.915c-0.367,0.427 -0.604,0.913 -0.71,1.46l-0.46,0.29c-0.6,-3.82 -0.21,-4.403 1.17,-1.75Z" style="fill:#fefffe;fill-rule:nonzero;"/><path d="M13.676,49.915c0.1,0.233 0.266,0.4 0.5,0.5c-0.027,0.74 -0.43,1.06 -1.21,0.96c0.106,-0.547 0.343,-1.033 0.71,-1.46Z" style="fill:#658667;fill-rule:nonzero;"/><path d="M48.426,61.665l0.5,-2.75c0.333,-1.26 0.663,-2.52 0.99,-3.78c0.08,-0.287 0.216,-0.523 0.41,-0.71c0.933,-0.907 1.136,-0.613 0.61,0.88c-0.107,0.3 -0.18,0.59 -0.22,0.87c-0.36,2.507 -0.84,4.987 -1.44,7.44c-0.07,0.27 -0.36,0.4 -0.56,0.25c-0.567,-0.433 -0.664,-1.167 -0.29,-2.2Z" style="fill:#224526;fill-rule:nonzero;"/><path d="M23.956,65.205c-1.94,-2.82 -2.48,-5.753 -1.62,-8.8c0.293,-1.033 0.54,-1.023 0.74,0.03c0.566,2.953 1.236,5.65 2.01,8.09c0.106,0.32 0.126,0.58 0.06,0.78c-0.114,0.327 -0.344,0.43 -0.69,0.31c-0.18,-0.06 -0.347,-0.197 -0.5,-0.41Z" style="fill:#224526;fill-rule:nonzero;"/><path d="M28.216,64.875l-0.25,0.08c-1.467,-1.96 -1.997,-4.147 -1.59,-6.56c0.05,-0.31 0.24,-0.58 0.52,-0.72c2.286,-1.213 5.31,-1.8 9.07,-1.76c4.513,0.047 8.203,0.803 11.07,2.27c0.25,0.13 0.37,0.43 0.28,0.7c-0.334,1.02 -0.757,2.003 -1.27,2.95c-0.174,0.32 -0.317,0.733 -0.43,1.24c-0.207,0.94 -0.65,1.18 -1.33,0.72c-0.75,-0.5 -1.71,-0.58 -2.54,-0.21c-3.287,1.487 -6.22,1.82 -8.8,1c-0.314,-0.1 -0.634,-0.127 -0.96,-0.08c-0.98,0.133 -1.92,0.007 -2.82,-0.38c-0.36,-0.15 -0.72,-0.12 -0.86,0.08c-0.12,0.167 -0.15,0.39 -0.09,0.67Zm8.527,-4.08c0.303,-0 0.543,-0.9 0.523,-1.998c-0.02,-1.102 -0.27,-1.982 -0.578,-1.982c-0.302,-0 -0.542,0.9 -0.522,1.998c0.02,1.102 0.27,1.982 0.577,1.982Z" style="fill:#fefffe;fill-rule:nonzero;"/><path d="M37.266,58.797c0.015,1.098 -0.219,1.994 -0.523,1.998c-0.303,0.004 -0.562,-0.884 -0.577,-1.982c-0.016,-1.099 0.218,-1.994 0.522,-1.998c0.303,-0.004 0.562,0.884 0.578,1.982Z" style="fill:#23532d;"/><path d="M64.756,58.165l1.02,2.19c0.173,0.367 0.05,0.52 -0.37,0.46c-1.034,-0.14 -1.68,-0.76 -1.94,-1.86c0.84,0.213 1.27,-0.05 1.29,-0.79Z" style="fill:#d7cfad;fill-rule:nonzero;"/><path d="M60.716,62.705l-0.79,5.21c-0.714,0.167 -1.2,-0.07 -1.46,-0.71c0.553,0.073 0.823,-0.133 0.81,-0.62c-0.007,-0.42 0.006,-0.7 0.04,-0.84c0.186,-0.853 0.333,-1.713 0.44,-2.58l0.96,-0.46Z" style="fill:#658667;fill-rule:nonzero;"/><path d="M27.966,64.955l0.25,-0.08c1.66,0.227 3.326,0.343 5,0.35c1.646,0.007 2.4,0.793 2.26,2.36c-0.03,0.29 -0.31,0.48 -0.59,0.39c-0.82,-0.273 -1.587,-0.377 -2.3,-0.31c-1.32,0.12 -2.07,0.153 -2.25,0.1c-1.274,-0.34 -2.064,-1.277 -2.37,-2.81Z" style="fill:#fefffe;fill-rule:nonzero;"/><path d="M37.798,65.578c0.963,-0.645 2.089,-0.654 2.513,-0.021c0.423,0.633 -0.015,1.67 -0.978,2.315c-0.963,0.644 -2.089,0.654 -2.512,0.021c-0.424,-0.633 0.014,-1.67 0.977,-2.315Z" style="fill:#fefffe;"/><path d="M11.676,66.165c0.166,0.267 0.416,0.35 0.75,0.25c-1.78,2.107 -2.03,2.023 -0.75,-0.25Z" style="fill:#658667;fill-rule:nonzero;"/><path d="M28.256,68.915l0.71,0.04c-0.134,2.853 0.753,3.45 2.66,1.79c0.46,-0.407 0.553,-0.333 0.28,0.22c-1.094,2.193 -2.024,2.597 -2.79,1.21c-0.14,-0.26 -0.34,-0.513 -0.6,-0.76c-0.7,-0.667 -0.787,-1.5 -0.26,-2.5Z" style="fill:#658667;fill-rule:nonzero;"/><path d="M35.986,71.565c-0.807,0.193 -1.57,0.087 -2.29,-0.32c-0.307,-0.167 -0.284,-0.277 0.07,-0.33l4.14,-0.61c0.32,-0.04 0.62,0.09 0.79,0.33c0.94,1.413 0.353,1.733 -1.76,0.96c-0.28,-0.1 -0.61,-0.11 -0.95,-0.03Z" style="fill:#102211;fill-rule:nonzero;"/></svg>